<?xml version="1.0" encoding="UTF-8"?>
<svg version="1.1" xmlns="http://www.w3.org/2000/svg" width="512" height="512">
<path d="M0 0 C9.51236148 8.14822532 16.56243694 17.67288842 20.83984375 29.51953125 C20.83984375 30.50953125 20.83984375 31.49953125 20.83984375 32.51953125 C21.63648438 32.24238281 22.433125 31.96523438 23.25390625 31.6796875 C24.31351563 31.31746094 25.373125 30.95523438 26.46484375 30.58203125 C27.50898438 30.22238281 28.553125 29.86273438 29.62890625 29.4921875 C42.54332023 25.58015699 58.59770324 26.39846099 70.83984375 32.51953125 C70.94296875 31.6584375 71.04609375 30.79734375 71.15234375 29.91015625 C73.98036819 15.9628539 85.33336947 4.17742369 96.83984375 -3.48046875 C110.76764334 -12.22810428 128.12733834 -14.76014885 144.07592773 -11.2956543 C159.58872576 -7.54011625 172.34359385 0.54578139 181.83984375 13.51953125 C189.83984375 26.93286458 189.83984375 26.93286458 189.83984375 32.51953125 C191.00386719 32.10380859 191.00386719 32.10380859 192.19140625 31.6796875 C209.87764949 25.74909758 227.9331089 26.22066401 244.83984375 34.51953125 C256.01486973 40.90526038 265.00233794 50.06480288 270.83984375 61.51953125 C271.22914063 62.28265625 271.6184375 63.04578125 272.01953125 63.83203125 C278.16081222 76.74216934 279.53976799 94.24725571 274.9375 107.8828125 C269.64272027 120.60158942 263.20370411 130.48114183 252.34765625 139.265625 C250.74532243 140.59813577 249.29303774 142.02717934 247.83984375 143.51953125 C248.52046875 143.60589844 249.20109375 143.69226563 249.90234375 143.78125 C266.11810016 147.85675261 281.35476284 163.87590683 289.83984375 177.51953125 C291.37154117 180.22676527 292.7871653 182.97489679 294.15234375 185.76953125 C294.62281128 186.71445435 294.62281128 186.71445435 295.1027832 187.6784668 C301.17180053 200.85370447 302.49931451 214.16542155 302.36132812 228.48681641 C302.33958133 231.17699361 302.36140928 233.86458292 302.38671875 236.5546875 C302.38407995 238.28516208 302.37896427 240.01563506 302.37109375 241.74609375 C302.37919067 242.53988434 302.3872876 243.33367493 302.39562988 244.15151978 C302.30773845 249.37074026 301.36727212 252.43518027 297.83984375 256.51953125 C293.76653725 259.59274116 290.24699271 259.96216245 285.2956543 259.9519043 C284.5536528 259.96209595 283.81165131 259.9722876 283.04716492 259.98278809 C280.60688673 260.01286105 278.16700146 260.02217505 275.7265625 260.03125 C274.02975669 260.04810096 272.33296332 260.06625177 270.63618469 260.08564758 C266.17943208 260.1331086 261.72272995 260.1629431 257.26580811 260.18908691 C252.71421336 260.21891215 248.1627925 260.26543574 243.61132812 260.31054688 C234.68759104 260.39653559 225.76381812 260.46390056 216.83984375 260.51953125 C216.90967468 261.08827972 216.97950562 261.6570282 217.05145264 262.24301147 C217.91308895 269.55776394 218.06009261 276.7811249 218.08984375 284.14453125 C218.12078125 286.07039062 218.12078125 286.07039062 218.15234375 288.03515625 C218.20854157 301.6069291 218.20854157 301.6069291 213.33984375 307.26171875 C209.36565845 310.2630566 206.59760143 311.64793292 201.64379883 311.63305664 C200.80315384 311.63298111 199.96250885 311.63290558 199.09638977 311.63282776 C198.1931749 311.62766647 197.28996002 311.62250519 196.359375 311.6171875 C195.43138596 311.61577255 194.50339691 311.6143576 193.54728699 311.61289978 C190.58227317 311.60730062 187.61733476 311.59474829 184.65234375 311.58203125 C182.64257922 311.57701614 180.6328135 311.57245325 178.62304688 311.56835938 C173.69528343 311.55733146 168.76757638 311.54006742 163.83984375 311.51953125 C164.05133057 312.50268311 164.26281738 313.48583496 164.48071289 314.4987793 C166.40950035 323.83468732 167.3567936 332.76652135 167.27734375 342.33203125 C167.26598389 344.28133545 167.26598389 344.28133545 167.25439453 346.27001953 C166.68618095 379.67848983 151.93493275 408.35157493 128.578125 431.7890625 C104.59435404 454.42498517 72.94137615 464.40461977 40.359375 463.76171875 C8.11820233 462.63631407 -20.71783473 448.3238257 -43.16015625 425.51953125 C-64.40028562 402.58634809 -75.55234318 373.87930887 -75.47265625 342.76953125 C-75.48876953 341.526875 -75.50488281 340.28421875 -75.52148438 339.00390625 C-75.52637975 329.52646855 -74.1668342 320.73673529 -72.16015625 311.51953125 C-73.40104004 311.5352417 -74.64192383 311.55095215 -75.92041016 311.56713867 C-80.5385078 311.62157213 -85.15657725 311.65593017 -89.77490234 311.68432617 C-91.77104466 311.69938223 -93.76715406 311.71983152 -95.76318359 311.74584961 C-98.6377781 311.78237286 -101.51193397 311.79928962 -104.38671875 311.8125 C-105.71831528 311.83572578 -105.71831528 311.83572578 -107.07681274 311.85942078 C-112.91758082 311.86099556 -117.27200827 311.09210962 -121.8046875 307.0546875 C-125.8885535 301.90546515 -126.28654847 298.57183087 -126.29296875 292.1015625 C-126.29425781 290.84666016 -126.29554687 289.59175781 -126.296875 288.29882812 C-126.29300781 286.98978516 -126.28914063 285.68074219 -126.28515625 284.33203125 C-126.28902344 283.04232422 -126.29289062 281.75261719 -126.296875 280.42382812 C-126.29558594 279.16248047 -126.29429688 277.90113281 -126.29296875 276.6015625 C-126.29184082 275.45921143 -126.29071289 274.31686035 -126.28955078 273.13989258 C-126.13791778 268.89731555 -125.68427329 264.7299132 -125.16015625 260.51953125 C-126.08643829 260.51588562 -127.01272034 260.51223999 -127.96707153 260.50848389 C-136.70680615 260.47057909 -145.44616855 260.41369797 -154.18564034 260.33562851 C-158.67846234 260.29616016 -163.17108854 260.26396861 -167.6640625 260.24853516 C-172.0020485 260.23336422 -176.33949617 260.19891127 -180.67724228 260.15122223 C-182.33014109 260.13641287 -183.98311676 260.12849049 -185.6360817 260.1276474 C-187.95604743 260.12527454 -190.27452928 260.09817218 -192.59423828 260.06542969 C-193.91328156 260.05654724 -195.23232483 260.04766479 -196.59133911 260.03851318 C-201.96601995 259.25692025 -205.01107322 256.85190213 -208.50195312 252.80419922 C-210.59226069 248.66359291 -210.7393338 245.53399646 -210.69140625 240.96484375 C-210.69523315 240.14563446 -210.69906006 239.32642517 -210.70300293 238.48239136 C-210.70571706 236.74931611 -210.69839078 235.01619955 -210.68164062 233.28320312 C-210.6604981 230.68651716 -210.68131262 228.09268635 -210.70703125 225.49609375 C-210.74891052 200.0941924 -202.07916982 178.74749333 -184.16015625 160.51953125 C-183.13148438 159.47152344 -183.13148438 159.47152344 -182.08203125 158.40234375 C-176.70610504 153.28525843 -170.77758832 149.78734416 -164.296875 146.28125 C-161.72562533 144.83712347 -159.45364086 143.35998186 -157.16015625 141.51953125 C-157.78921875 141.04644531 -158.41828125 140.57335937 -159.06640625 140.0859375 C-172.25184963 129.89899104 -182.90061512 116.56696208 -185.16015625 99.51953125 C-186.06003992 87.68856072 -185.89680843 76.57689635 -181.16015625 65.51953125 C-180.79792969 64.64296875 -180.43570313 63.76640625 -180.0625 62.86328125 C-172.89518748 47.11948968 -159.94866733 36.92302609 -144.16015625 30.51953125 C-129.5776191 25.95033628 -112.17695498 25.51113189 -98.16015625 32.51953125 C-98.05445312 31.65585937 -97.94875 30.7921875 -97.83984375 29.90234375 C-95.20796686 16.80346222 -84.5720954 4.83064644 -73.72265625 -2.41796875 C-51.01681499 -15.67921507 -21.35891626 -17.32351111 0 0 Z " fill="#FEDBCC" transform="translate(210.16015625,30.48046875)"/>
<path d="M0 0 C14.31379805 5.13311127 30.34299076 3.57983759 44.4375 -1.5625 C45.16710937 -1.93632812 45.89671875 -2.31015625 46.6484375 -2.6953125 C49.69585412 -4.17244458 52.34077041 -3.52554253 55.4375 -2.5625 C64.67740897 1.44392453 75.19519901 7.85645546 81.37084961 15.98095703 C85.46598745 21.41577755 85.46598745 21.41577755 91.45800781 24.17773438 C94.93416273 24.27915241 98.28472604 24.10184364 101.75 23.8125 C104.25465183 23.71052571 106.75994894 23.62335542 109.265625 23.55078125 C110.48830078 23.5142041 111.71097656 23.47762695 112.97070312 23.43994141 C142.07381371 23.41944626 170.82532327 39.82806271 191.0625 59.5625 C214.86200967 83.56513924 225.88081918 114.59758054 225.80322266 147.99267578 C225.35623896 181.48364715 210.58773659 210.2142056 187.17578125 233.70703125 C163.19201029 256.34295392 131.5390324 266.32258852 98.95703125 265.6796875 C66.71585858 264.55428282 37.87982152 250.24179445 15.4375 227.4375 C-5.80262937 204.50431684 -16.95468693 175.79727762 -16.875 144.6875 C-16.89111328 143.44484375 -16.90722656 142.2021875 -16.92382812 140.921875 C-16.9287235 131.4444373 -15.56917795 122.65470404 -13.5625 113.4375 C-14.80338379 113.45321045 -16.04426758 113.4689209 -17.32275391 113.48510742 C-21.94085155 113.53954088 -26.558921 113.57389892 -31.17724609 113.60229492 C-33.17338841 113.61735098 -35.16949781 113.63780027 -37.16552734 113.66381836 C-40.04012185 113.70034161 -42.91427772 113.71725837 -45.7890625 113.73046875 C-47.12065903 113.75369453 -47.12065903 113.75369453 -48.47915649 113.77738953 C-54.31992457 113.77896431 -58.67435202 113.01007837 -63.20703125 108.97265625 C-68.76854563 101.96031204 -67.74569413 95.09230401 -67.75 86.4375 C-67.76224609 85.17292969 -67.77449219 83.90835938 -67.78710938 82.60546875 C-67.82707277 56.7358289 -59.04038464 33.75685118 -41.19140625 14.9375 C-29.3695829 3.75626807 -16.15240841 -6.44993783 0 0 Z " fill="#99D2FE" transform="translate(151.5625,228.5625)"/>
<path d="M0 0 C0.84949219 0.32742187 1.69898438 0.65484375 2.57421875 0.9921875 C19.17538773 8.13303569 29.39043719 23.93583296 35.81640625 40.046875 C36.85607415 43.33309803 37.08143501 46.61251275 37.109375 50.04296875 C37.11533691 50.77346436 37.12129883 51.50395996 37.12744141 52.2565918 C37.12390546 55.50577201 37.07096031 58.75159473 37 62 C44.53041145 63.83507167 51.70234007 64.33603974 59.4375 64.3125 C60.49259766 64.32861328 61.54769531 64.34472656 62.63476562 64.36132812 C69.86130874 64.36577523 76.13791508 63.25382011 83 61 C83.20753906 61.99257812 83.41507813 62.98515625 83.62890625 64.0078125 C87.53960289 81.68372316 95.03819916 96.56392042 110.375 106.9375 C125.53968044 115.82339441 143.4913181 118.83455902 160.6875 114.6875 C163.88926308 113.76450899 166.86337047 112.66762171 169.875 111.25 C174.28297552 109.48680979 177.34654132 110.37757734 181.71875 112.0234375 C204.35055066 123.02147546 219.26441493 141.55041383 228 165 C231.80410749 176.45690184 232.20156241 187.63669648 232.25 199.625 C232.2809375 201.55085938 232.2809375 201.55085938 232.3125 203.515625 C232.36869782 217.08739785 232.36869782 217.08739785 227.5 222.7421875 C223.48594838 225.77363274 220.7110086 227.12818478 215.7121582 227.11352539 C214.85149246 227.11344986 213.99082672 227.11337433 213.1040802 227.11329651 C212.17899155 227.10813522 211.25390289 227.10297394 210.30078125 227.09765625 C209.35059616 227.0962413 208.40041107 227.09482635 207.4214325 227.09336853 C204.38508971 227.08776875 201.34882052 227.07521632 198.3125 227.0625 C196.25455836 227.05748497 194.19661556 227.05292207 192.13867188 227.04882812 C187.09241954 227.0377994 182.04622225 227.02053493 177 227 C176.76345703 226.32412842 176.52691406 225.64825684 176.28320312 224.9519043 C166.17654527 196.5552494 150.19063169 171.89925406 124 156 C123.43764648 155.65775391 122.87529297 155.31550781 122.29589844 154.96289062 C105.32643334 144.81737756 85.05293394 137.32177823 65.1015625 138.25 C44.6290958 139.16685847 44.6290958 139.16685847 40.25 135.69140625 C37.90861977 133.24015937 36.09971861 130.45511962 34.24316406 127.62939453 C31.98608621 124.67108 29.03961779 122.66066828 26 120.5625 C25.40783691 120.15362549 24.81567383 119.74475098 24.20556641 119.32348633 C15.32357078 113.08930879 15.32357078 113.08930879 5.06640625 111.26171875 C1.94421595 112.01343081 -1.03270667 112.93664028 -4.0625 114 C-19.19912439 119.29879258 -36.47095157 118.98107009 -51 112 C-66.36089669 103.76681479 -78.18212817 91.90116356 -83.5 75 C-88.47045435 56.9590916 -86.68869147 41.25177897 -77.875 24.75 C-70.65405924 13.19649478 -61.04230448 5.82250217 -49 0 C-48.10410156 -0.45503906 -47.20820313 -0.91007812 -46.28515625 -1.37890625 C-32.65268461 -7.12416229 -13.39005978 -5.92064137 0 0 Z " fill="#C1855F" transform="translate(196,115)"/>
<path d="M0 0 C1.09908691 0.01208496 2.19817383 0.02416992 3.33056641 0.03662109 C11.40819819 0.23416211 18.223175 1.07144902 25.625 4.5 C27.04232422 5.13615234 27.04232422 5.13615234 28.48828125 5.78515625 C35.531124 9.28222478 41.07877171 13.97336968 46.625 19.5 C47.47191406 20.31210938 47.47191406 20.31210938 48.3359375 21.140625 C59.6762279 33.02092923 62.69175776 49.73142424 63.625 65.5 C79.69289044 71.85902378 95.16052285 70.98151025 110.9375 64.25 C111.69675781 63.89421875 112.45601562 63.5384375 113.23828125 63.171875 C117.63009202 61.93555511 120.84839342 63.13541344 124.88671875 65.03125 C147.29268555 77.9076551 162.64916273 95.41649231 170.47949219 120.20507812 C172.92227082 129.55273557 173.11760239 138.62465445 173.07104492 148.2409668 C173.06243626 150.95761606 173.09155961 153.67222384 173.12304688 156.38867188 C173.124657 158.13281188 173.12408498 159.87695557 173.12109375 161.62109375 C173.13794472 162.82589638 173.13794472 162.82589638 173.15513611 164.05503845 C173.09011958 169.31139647 172.18742878 172.38938796 168.625 176.5 C164.51728969 179.61728401 160.9835835 179.91731154 155.98901367 179.84057617 C155.23725861 179.84101425 154.48550354 179.84145233 153.71096802 179.84190369 C151.23803298 179.83982165 148.76578465 179.81651895 146.29296875 179.79296875 C144.57375967 179.7873707 142.85454579 179.78310159 141.1353302 179.78010559 C136.6192189 179.76867326 132.10339888 179.73922005 127.58740234 179.70599365 C122.97562602 179.67525794 118.36380244 179.66159278 113.75195312 179.64648438 C104.70950772 179.61434873 95.66727812 179.56317194 86.625 179.5 C86.03513306 177.67384155 86.03513306 177.67384155 85.43334961 175.81079102 C84.90244625 174.18757598 84.3712627 172.56445256 83.83984375 170.94140625 C83.58247437 170.14206665 83.32510498 169.34272705 83.05993652 168.51916504 C79.47037204 157.60566371 74.04343431 148.28100388 66.625 139.5 C66.12871094 138.84773437 65.63242187 138.19546875 65.12109375 137.5234375 C57.69126326 128.17563072 44.97568883 119.10416987 33.625 115.5 C29.49870454 115.81699405 25.9621221 117.00043504 22.125 118.5 C8.9460435 123.65039679 -9.13139641 123.40058579 -22.17578125 117.97265625 C-38.90257887 110.4973266 -50.47995461 98.55214396 -57.33203125 81.45703125 C-62.83865582 65.84461628 -61.81126987 49.67790546 -55.08984375 34.62109375 C-46.74035811 17.89886485 -32.62657774 7.50936079 -15.41430664 1.34448242 C-10.28331443 -0.08118246 -5.29501697 -0.09355154 0 0 Z " fill="#FEDBCC" transform="translate(339.375,110.5)"/>
<path d="M0 0 C34.08160462 0 62.25392621 11.35936146 86.625 35.125 C110.42450967 59.12763924 121.44331918 90.16008054 121.36572266 123.55517578 C120.91873896 157.04614715 106.15023659 185.7767056 82.73828125 209.26953125 C60.23820195 230.50514329 30.66204551 241 0 241 C0 218.23 0 195.46 0 172 C4.455 170.02 4.455 170.02 9 168 C13.0424524 164.78676861 14.7285355 161.35899738 15.31884766 156.22924805 C15.35026855 155.24996338 15.38168945 154.27067871 15.4140625 153.26171875 C15.45273437 152.19501953 15.49140625 151.12832031 15.53125 150.02929688 C15.5621875 148.92650391 15.593125 147.82371094 15.625 146.6875 C15.68300781 145.00430664 15.68300781 145.00430664 15.7421875 143.28710938 C15.83622011 140.52490148 15.92187341 137.762696 16 135 C16.65484375 134.9906543 17.3096875 134.98130859 17.984375 134.97167969 C20.99030905 134.9175474 23.99475775 134.83398611 27 134.75 C28.54494141 134.72873047 28.54494141 134.72873047 30.12109375 134.70703125 C36.40607345 134.50687266 41.87179633 133.9250482 47 130 C50.11485903 124.93835408 50.64117753 120.77059774 50 115 C47.53885457 109.98304971 45.18060918 107.94826328 40 106 C35.71296405 105.49879778 31.43794962 105.39768806 27.125 105.3125 C25.9596875 105.27833984 24.794375 105.24417969 23.59375 105.20898438 C20.72926282 105.12680646 17.86507015 105.05755579 15 105 C14.98598145 103.86570557 14.98598145 103.86570557 14.97167969 102.70849609 C14.917808 99.26334866 14.83419159 95.81953438 14.75 92.375 C14.73582031 91.18519531 14.72164063 89.99539063 14.70703125 88.76953125 C14.57187243 83.93084566 14.37151364 79.93694924 12.578125 75.4140625 C9.23624812 71.99170087 9.23624812 71.99170087 0 69 C0 46.23 0 23.46 0 0 Z " fill="#75AFFE" transform="translate(256,253)"/>
<path d="M0 0 C11.38472163 8.33314676 18.35161165 18.61125985 23.7109375 31.4765625 C23.7109375 32.4665625 23.7109375 33.4565625 23.7109375 34.4765625 C24.48695313 34.19941406 25.26296875 33.92226563 26.0625 33.63671875 C43.74874324 27.70612883 61.80420265 28.17769526 78.7109375 36.4765625 C89.88596348 42.86229163 98.87343169 52.02183413 104.7109375 63.4765625 C105.10023438 64.2396875 105.48953125 65.0028125 105.890625 65.7890625 C112.03190597 78.69920059 113.41086174 96.20428696 108.80859375 109.83984375 C104.50965887 120.16646669 99.8740231 128.58994504 91.7109375 136.4765625 C91.10121094 137.07210937 90.49148438 137.66765625 89.86328125 138.28125 C77.07484468 149.99184568 58.76940481 153.34776831 42.00830078 152.67773438 C36.95111037 152.23489432 29.37504931 151.14067431 25.7109375 147.4765625 C25.49693681 145.65437843 25.28933611 143.83118274 25.11645508 142.00463867 C23.47154968 124.81694293 18.43411179 109.9200313 5.5703125 97.796875 C-10.84699305 84.47463525 -28.61536828 81.66138666 -49.2890625 83.4765625 C-52.65520537 84.40358534 -52.65520537 84.40358534 -55.2890625 85.4765625 C-56.6090625 85.4765625 -57.9290625 85.4765625 -59.2890625 85.4765625 C-59.49208984 84.20425781 -59.49208984 84.20425781 -59.69921875 82.90625 C-62.61510216 67.01730447 -69.701152 52.8879145 -82.8515625 43.1015625 C-86.88334796 40.32760426 -90.97182606 37.7790886 -95.2890625 35.4765625 C-93.87756837 21.44983955 -84.42565058 10.33593368 -73.8515625 1.6640625 C-52.11333101 -14.24742653 -22.44734738 -14.93936088 0 0 Z " fill="#FECA70" transform="translate(376.2890625,28.5234375)"/>
<path d="M0 0 C1.7181473 0.6933319 3.42971379 1.4032962 5.1328125 2.1328125 C11.17555807 4.56205695 17.08977838 4.29038773 23.52734375 4.3203125 C24.60951172 4.3409375 25.69167969 4.3615625 26.80664062 4.3828125 C34.1525241 4.41806569 40.49297673 3.38351047 47.46484375 1.0703125 C47.60994385 1.64885986 47.75504395 2.22740723 47.90454102 2.82348633 C51.94726545 18.95752883 51.94726545 18.95752883 60.46484375 33.0703125 C61.16738281 33.94945312 61.86992188 34.82859375 62.59375 35.734375 C67.28463965 41.26554576 72.19919777 45.42646165 78.46484375 49.0703125 C75.49778582 51.4662466 72.56082811 53.01074693 69.08984375 54.5703125 C47.99775785 64.96164577 34.51358659 83.29834442 26.46484375 105.0703125 C25.92672601 106.80837959 25.39966969 108.54989908 24.88208008 110.29418945 C24.61559158 111.18999222 24.34910309 112.08579498 24.07453918 113.00874329 C23.87333969 113.68906113 23.6721402 114.36937897 23.46484375 115.0703125 C13.65938027 115.16308579 3.8540216 115.23411467 -5.95179176 115.27756119 C-10.50529127 115.29841583 -15.05848999 115.32669443 -19.61181641 115.37207031 C-24.00792768 115.41560418 -28.40375004 115.43946558 -32.80006027 115.44982147 C-34.47538169 115.45719934 -36.1506877 115.47160679 -37.82588577 115.49323273 C-40.17674901 115.52236794 -42.52642601 115.52626443 -44.87744141 115.52441406 C-45.56652588 115.53879517 -46.25561035 115.55317627 -46.96557617 115.56799316 C-51.93360196 115.52581859 -54.69753613 114.15065489 -58.53515625 111.0703125 C-62.67556444 106.2694764 -63.12998839 102.57720146 -63.06640625 96.515625 C-63.07023315 95.69641571 -63.07406006 94.87720642 -63.07800293 94.03317261 C-63.08071706 92.30009736 -63.07339078 90.5669808 -63.05664062 88.83398438 C-63.0354981 86.23729841 -63.05631262 83.6434676 -63.08203125 81.046875 C-63.12391052 55.64497365 -54.45416982 34.29827458 -36.53515625 16.0703125 C-35.849375 15.37164062 -35.16359375 14.67296875 -34.45703125 13.953125 C-28.23152 8.02736059 -21.07412885 4.06981727 -13.53515625 0.0703125 C-12.43494141 -0.54070312 -12.43494141 -0.54070312 -11.3125 -1.1640625 C-7.54054119 -2.7889063 -3.69298017 -1.35428241 0 0 Z " fill="#FEBE40" transform="translate(62.53515625,174.9296875)"/>
<path d="M0 0 C22.4059668 12.8764051 37.76244398 30.38524231 45.59277344 55.17382812 C48.03555207 64.52148557 48.23088364 73.59340445 48.18432617 83.2097168 C48.17571751 85.92636606 48.20484086 88.64097384 48.23632812 91.35742188 C48.23793825 93.10156188 48.23736623 94.84570557 48.234375 96.58984375 C48.24560898 97.3930455 48.25684296 98.19624725 48.26841736 99.02378845 C48.20340083 104.28014647 47.30071003 107.35813796 43.73828125 111.46875 C39.63057094 114.58603401 36.09686475 114.88606154 31.10229492 114.80932617 C30.35053986 114.80976425 29.59878479 114.81020233 28.82424927 114.81065369 C26.35131423 114.80857165 23.8790659 114.78526895 21.40625 114.76171875 C19.68704092 114.7561207 17.96782704 114.75185159 16.24861145 114.74885559 C11.73250015 114.73742326 7.21668013 114.70797005 2.70068359 114.67474365 C-1.91109273 114.64400794 -6.52291631 114.63034278 -11.13476562 114.61523438 C-20.17721103 114.58309873 -29.21944063 114.53192194 -38.26171875 114.46875 C-38.65496338 113.25131104 -39.04820801 112.03387207 -39.45336914 110.77954102 C-39.9842725 109.15632598 -40.51545605 107.53320256 -41.046875 105.91015625 C-41.30424438 105.11081665 -41.56161377 104.31147705 -41.82678223 103.48791504 C-45.41634671 92.57441371 -50.84328444 83.24975388 -58.26171875 74.46875 C-58.75800781 73.81648438 -59.25429688 73.16421875 -59.765625 72.4921875 C-68.33710452 61.70802029 -80.9663787 55.11189999 -93.26171875 49.46875 C-91.02078061 47.10725506 -88.63100162 45.20907882 -86.01171875 43.28125 C-72.47533201 32.79934014 -65.67669089 18.18289926 -63.26171875 1.46875 C-59.31756785 1.88392378 -55.82531389 2.29088019 -52.03125 3.48828125 C-47.73925254 4.60464535 -43.92144148 4.81317729 -39.51171875 4.78125 C-38.71894531 4.77706055 -37.92617188 4.77287109 -37.109375 4.76855469 C-27.8093706 4.59029196 -20.0299216 2.06811161 -11.6484375 -1.859375 C-7.25662673 -3.09569489 -4.03832533 -1.89583656 0 0 Z " fill="#BDEAF9" transform="translate(464.26171875,175.53125)"/>
<path d="M0 0 C12.6072813 10.00688442 20.79710792 24.13128806 22.6875 40.125 C22.790625 41.40375 22.89375 42.6825 23 44 C22.03320312 44.53367188 21.06640625 45.06734375 20.0703125 45.6171875 C3.19894564 55.16394395 -8.01414478 67.65372145 -13.32421875 86.6015625 C-14.53612013 92.69609544 -14.82833922 98.79446273 -15 105 C-16.27057182 105.47985967 -17.54146848 105.9588593 -18.8125 106.4375 C-19.52019531 106.70433594 -20.22789063 106.97117187 -20.95703125 107.24609375 C-32.1660102 111.3824856 -49.49194406 110.92690645 -60.45703125 106.24609375 C-61.71580078 105.62927734 -61.71580078 105.62927734 -63 105 C-63.97324219 104.59910156 -64.94648437 104.19820313 -65.94921875 103.78515625 C-80.40130543 97.40107187 -90.12333077 86.26041409 -96.33984375 71.90625 C-101.93637308 57.08839299 -102.27633854 39.6516493 -96 25 C-95.45666016 23.68515625 -95.45666016 23.68515625 -94.90234375 22.34375 C-87.73503123 6.59995843 -74.78851108 -3.59650516 -59 -10 C-38.07244048 -16.55730198 -17.37683226 -13.06506228 0 0 Z " fill="#FEDBCC" transform="translate(125,71)"/>
<path d="M0 0 C13.52332946 4.40379792 30.98927491 3.1960141 43.75390625 -2.8125 C48.16188177 -4.57569021 51.22544757 -3.68492266 55.59765625 -2.0390625 C78.22945691 8.95897546 93.14332118 27.48791383 101.87890625 50.9375 C105.68301374 62.39440184 106.08046866 73.57419648 106.12890625 85.5625 C106.15984375 87.48835938 106.15984375 87.48835938 106.19140625 89.453125 C106.24760407 103.02489785 106.24760407 103.02489785 101.37890625 108.6796875 C97.36485463 111.71113274 94.58991485 113.06568478 89.59106445 113.05102539 C88.73039871 113.05094986 87.86973297 113.05087433 86.98298645 113.05079651 C86.0578978 113.04563522 85.13280914 113.04047394 84.1796875 113.03515625 C83.22950241 113.0337413 82.27931732 113.03232635 81.30033875 113.03086853 C78.26399596 113.02526875 75.22772677 113.01271632 72.19140625 113 C70.13346461 112.99498497 68.07552181 112.99042207 66.01757812 112.98632812 C60.97132579 112.9752994 55.9251285 112.95803493 50.87890625 112.9375 C50.64236328 112.26162842 50.40582031 111.58575684 50.16210938 110.8894043 C40.05545152 82.4927494 24.06953794 57.83675406 -2.12109375 41.9375 C-2.68344727 41.59525391 -3.24580078 41.25300781 -3.82519531 40.90039062 C-17.50988845 32.7187401 -33.17965385 26.52516373 -49.12109375 24.9375 C-49.12109375 19.9574803 -45.50889852 17.33715024 -42.12109375 13.9375 C-29.19631221 1.97165386 -17.23279061 -6.82288071 0 0 Z " fill="#55427F" transform="translate(322.12109375,229.0625)"/>
<path d="M0 0 C14.31379805 5.13311127 30.34299076 3.57983759 44.4375 -1.5625 C45.16710937 -1.93632812 45.89671875 -2.31015625 46.6484375 -2.6953125 C49.69585412 -4.17244458 52.34077041 -3.52554253 55.4375 -2.5625 C68.05592537 2.90884924 80.21482647 12.38894642 88.4375 23.4375 C88.4375 24.0975 88.4375 24.7575 88.4375 25.4375 C87.70789063 25.51226562 86.97828125 25.58703125 86.2265625 25.6640625 C56.32214374 29.42980412 28.71003869 46.00394822 9.88085938 69.36914062 C0.73631473 81.39008201 -6.47540937 94.71138107 -10.87109375 109.1796875 C-11.5625 111.4375 -11.5625 111.4375 -12.5625 113.4375 C-18.57647009 113.51182654 -24.59017096 113.56618588 -30.60449219 113.60229492 C-32.64913594 113.61735288 -34.69374755 113.63780357 -36.73828125 113.66381836 C-39.68237252 113.70033311 -42.62603557 113.71725651 -45.5703125 113.73046875 C-46.4799173 113.74595261 -47.38952209 113.76143646 -48.32669067 113.77738953 C-54.22913593 113.77894391 -58.62323195 113.05561287 -63.20703125 108.97265625 C-68.76854563 101.96031204 -67.74569413 95.09230401 -67.75 86.4375 C-67.76224609 85.17292969 -67.77449219 83.90835938 -67.78710938 82.60546875 C-67.82707277 56.7358289 -59.04038464 33.75685118 -41.19140625 14.9375 C-29.3695829 3.75626807 -16.15240841 -6.44993783 0 0 Z " fill="#EAF4FE" transform="translate(151.5625,228.5625)"/>
<path d="M0 0 C8.84313022 6.47280666 15.33467002 14.0478229 20.2734375 23.7890625 C20.62027588 24.470896 20.96711426 25.15272949 21.32446289 25.85522461 C23.08372341 29.51933651 24.14510126 32.39542319 23.7109375 36.4765625 C22.5765625 36.9921875 21.4421875 37.5078125 20.2734375 38.0390625 C5.73834186 45.37069805 -3.46094592 57.57654579 -9.2890625 72.4765625 C-10.65138569 76.7334316 -11.56438967 81.06813611 -12.2890625 85.4765625 C-18.81810754 84.58041906 -18.81810754 84.58041906 -21.66821289 83.9519043 C-26.63713501 83.05069411 -31.69061657 83.29195174 -36.7265625 83.2890625 C-37.84611328 83.27681641 -38.96566406 83.26457031 -40.11914062 83.25195312 C-45.62647232 83.24214779 -50.1133302 83.40134812 -55.2890625 85.4765625 C-56.6090625 85.4765625 -57.9290625 85.4765625 -59.2890625 85.4765625 C-59.49208984 84.20425781 -59.49208984 84.20425781 -59.69921875 82.90625 C-62.61510216 67.01730447 -69.701152 52.8879145 -82.8515625 43.1015625 C-86.88334796 40.32760426 -90.97182606 37.7790886 -95.2890625 35.4765625 C-93.87756837 21.44983955 -84.42565058 10.33593368 -73.8515625 1.6640625 C-52.11333101 -14.24742653 -22.44734738 -14.93936088 0 0 Z " fill="#9A5E4C" transform="translate(376.2890625,28.5234375)"/>
<path d="M0 0 C9.18727785 7.86976086 17.36015887 17.7212247 20.83984375 29.51953125 C20.78125 32.1640625 20.78125 32.1640625 19.83984375 34.51953125 C17.6171875 36.07421875 17.6171875 36.07421875 14.77734375 37.39453125 C1.51481893 44.18836654 -6.89167918 55.71900771 -12.23046875 69.5078125 C-13.75024691 74.43112746 -14.55329695 79.41104404 -15.16015625 84.51953125 C-15.74796875 84.30296875 -16.33578125 84.08640625 -16.94140625 83.86328125 C-24.38778641 81.55233568 -31.46193535 81.18754017 -39.22265625 81.14453125 C-40.22683594 81.13099609 -41.23101562 81.11746094 -42.265625 81.10351562 C-49.30512042 81.14487036 -55.47003871 82.35389655 -62.16015625 84.51953125 C-62.36769531 83.44316406 -62.57523438 82.36679688 -62.7890625 81.2578125 C-66.62695345 62.58379917 -75.2248774 48.42261678 -91.16015625 37.51953125 C-93.46012206 36.09211232 -95.76841983 34.79173147 -98.16015625 33.51953125 C-96.81003395 20.39700114 -88.56709232 10.18816922 -79.16015625 1.51953125 C-56.70024401 -15.99213137 -22.83138019 -18.51777794 0 0 Z " fill="#FEBBA8" transform="translate(210.16015625,30.48046875)"/>
<path d="M0 0 C4.60753269 2.18251548 6.75212052 4.48857218 9 9 C9.34057617 11.9543457 9.34057617 11.9543457 9.29296875 15.17578125 C9.28330078 16.33271484 9.27363281 17.48964844 9.26367188 18.68164062 C9.23853516 19.87982422 9.21339844 21.07800781 9.1875 22.3125 C9.16719727 24.1387793 9.16719727 24.1387793 9.14648438 26.00195312 C9.11119261 29.00175345 9.06188481 32.00064975 9 35 C9.72590332 34.98428955 10.45180664 34.9685791 11.19970703 34.95239258 C14.50805788 34.88979645 17.81628381 34.85093088 21.125 34.8125 C22.26710938 34.78736328 23.40921875 34.76222656 24.5859375 34.73632812 C35.23561227 34.64345305 35.23561227 34.64345305 40 38 C43.84602806 42.26181487 45.38618229 44.9408857 45.26953125 50.7734375 C44.79848414 54.66469624 43.61780119 58.06114772 41 61 C34.74600636 65.58599405 28.49737896 65.49396978 21 65.25 C19.93910156 65.23195313 18.87820313 65.21390625 17.78515625 65.1953125 C15.1891428 65.14853748 12.59506472 65.08301142 10 65 C10.0314209 66.02770508 10.0314209 66.02770508 10.06347656 67.07617188 C10.14725399 70.21729522 10.19885414 73.35818264 10.25 76.5 C10.28351563 77.57765625 10.31703125 78.6553125 10.3515625 79.765625 C10.43144244 86.31578005 10.04280001 91.63431628 6 97 C1.72701599 100.79374624 -2.8306509 101.80151281 -8.4921875 101.59375 C-13.02032753 100.521667 -16.10183874 97.53378932 -19 94 C-20.07917226 90.76248322 -20.11425601 88.42248229 -20.09765625 85.01953125 C-20.09443359 83.85615234 -20.09121094 82.69277344 -20.08789062 81.49414062 C-20.07532227 79.67172852 -20.07532227 79.67172852 -20.0625 77.8125 C-20.05798828 76.58595703 -20.05347656 75.35941406 -20.04882812 74.09570312 C-20.03703065 71.06375332 -20.02056921 68.03190094 -20 65 C-20.74572266 65.02618408 -21.49144531 65.05236816 -22.25976562 65.0793457 C-25.67295858 65.18395551 -29.08581328 65.24852969 -32.5 65.3125 C-33.67304688 65.35439453 -34.84609375 65.39628906 -36.0546875 65.43945312 C-43.20979768 65.53994625 -48.6499405 65.11559474 -54 60 C-57.08080567 54.8974156 -57.64390991 50.79518918 -57 45 C-54.72288576 40.44577152 -51.82454198 36.84457989 -47 35 C-42.36500542 34.50942119 -37.77911304 34.62395111 -33.125 34.75 C-31.86429688 34.76804687 -30.60359375 34.78609375 -29.3046875 34.8046875 C-26.20234386 34.85169271 -23.1015662 34.91739324 -20 35 C-20.02094727 34.24380371 -20.04189453 33.48760742 -20.06347656 32.70849609 C-20.14690585 29.264134 -20.19874624 25.81998493 -20.25 22.375 C-20.28351563 21.18519531 -20.31703125 19.99539063 -20.3515625 18.76953125 C-20.47513442 7.70984427 -20.47513442 7.70984427 -16 3 C-11.48700559 -1.42872688 -5.94057819 -0.71573231 0 0 Z " fill="#D8EAFF" transform="translate(262,323)"/>
<path d="M0 0 C0.20753906 0.99257812 0.41507812 1.98515625 0.62890625 3.0078125 C4.50777525 20.53986579 11.94182038 35.47417185 27.1875 45.75 C28.44756437 46.51795517 29.71412156 47.27609807 31 48 C28.48431779 50.51568221 25.61020895 51.69245844 22.4375 53.1875 C16.33344726 56.16178754 11.12765551 59.51098751 6 64 C5.12085938 64.75925781 4.24171875 65.51851563 3.3359375 66.30078125 C-1.44182243 70.25361628 -1.44182243 70.25361628 -5.20361328 75.08129883 C-8.20830642 78.29057898 -11.76295793 77.72507922 -15.95706177 77.89614868 C-18.13894423 77.96510031 -20.3170817 77.99024066 -22.5 78 C-23.23708191 78.00602234 -23.97416382 78.01204468 -24.73358154 78.01824951 C-38.66381913 78.01098881 -38.66381913 78.01098881 -43.0703125 74.6640625 C-45.625 71.625 -45.625 71.625 -47.79296875 68.3125 C-50.38359974 64.42426092 -53.1294951 62.23602946 -56.9375 59.625 C-57.52305664 59.21797852 -58.10861328 58.81095703 -58.71191406 58.39160156 C-64.19440548 54.69099587 -69.9692007 51.71717331 -76 49 C-73.63807519 46.55934436 -71.26709529 44.22919663 -68.6875 42.015625 C-55.56287873 30.73165184 -49.2946449 17.84822476 -46 1 C-45.1347168 1.21112427 -45.1347168 1.21112427 -44.25195312 1.42651367 C-37.28556559 2.98844384 -30.62391144 3.33408761 -23.5 3.3125 C-21.90478516 3.33666992 -21.90478516 3.33666992 -20.27734375 3.36132812 C-13.24835786 3.36564039 -6.57536176 0 0 0 Z " fill="#F26A3E" transform="translate(279,176)"/>
<path d="M0 0 C17.12633183 1.31741014 32.94092445 6.01546051 45 19 C53.96772223 29.60815922 61.58529111 41.66036774 61 56 C61.99 56.495 61.99 56.495 63 57 C62.45472656 57.21914062 61.90945313 57.43828125 61.34765625 57.6640625 C44.52019676 64.74022495 33.59481856 76.49805346 26.6484375 93.26171875 C24.14794592 100.57430742 23.58451525 107.2303669 23.6640625 114.8828125 C23 118 23 118 20.2734375 119.8671875 C13.05676707 122.36460328 8.11548629 122 0 122 C0 81.74 0 41.48 0 0 Z " fill="#FECABB" transform="translate(256,58)"/>
<path d="M0 0 C0.20753906 0.99257812 0.41507812 1.98515625 0.62890625 3.0078125 C4.50777525 20.53986579 11.94182038 35.47417185 27.1875 45.75 C28.44756437 46.51795517 29.71412156 47.27609807 31 48 C28.48431779 50.51568221 25.61020895 51.69245844 22.4375 53.1875 C16.33344726 56.16178754 11.12765551 59.51098751 6 64 C5.12085938 64.75925781 4.24171875 65.51851563 3.3359375 66.30078125 C-0.55268435 69.72433737 -3.8765317 72.8353756 -7 77 C-12.28 76.67 -17.56 76.34 -23 76 C-23 52.57 -23 29.14 -23 5 C-17.39 4.01 -11.78 3.02 -6 2 C-1 0 -1 0 0 0 Z " fill="#EB4C36" transform="translate(279,176)"/>
<path d="M0 0 C0 33.33 0 66.66 0 101 C-7.90212072 99.87112561 -7.90212072 99.87112561 -10.375 97.125 C-10.85710937 96.61195313 -11.33921875 96.09890625 -11.8359375 95.5703125 C-14.30995094 92.23288497 -14.11711853 89.00929849 -14.09765625 85.01953125 C-14.09443359 83.85615234 -14.09121094 82.69277344 -14.08789062 81.49414062 C-14.07532227 79.67172852 -14.07532227 79.67172852 -14.0625 77.8125 C-14.05798828 76.58595703 -14.05347656 75.35941406 -14.04882812 74.09570312 C-14.03703065 71.06375332 -14.02056921 68.03190094 -14 65 C-14.74572266 65.02618408 -15.49144531 65.05236816 -16.25976562 65.0793457 C-19.67295858 65.18395551 -23.08581328 65.24852969 -26.5 65.3125 C-27.67304688 65.35439453 -28.84609375 65.39628906 -30.0546875 65.43945312 C-37.20979768 65.53994625 -42.6499405 65.11559474 -48 60 C-51.08080567 54.8974156 -51.64390991 50.79518918 -51 45 C-48.72288576 40.44577152 -45.82454198 36.84457989 -41 35 C-36.36500542 34.50942119 -31.77911304 34.62395111 -27.125 34.75 C-25.86429688 34.76804687 -24.60359375 34.78609375 -23.3046875 34.8046875 C-20.20234386 34.85169271 -17.1015662 34.91739324 -14 35 C-14.02094727 34.24380371 -14.04189453 33.48760742 -14.06347656 32.70849609 C-14.14690585 29.264134 -14.19874624 25.81998493 -14.25 22.375 C-14.28351563 21.18519531 -14.31703125 19.99539063 -14.3515625 18.76953125 C-14.47350146 7.85599415 -14.47350146 7.85599415 -10 3 C-6.43042824 -0.56957176 -5.65557296 0 0 0 Z " fill="#EAF4FF" transform="translate(256,323)"/>
</svg>
