<?xml version="1.0" encoding="UTF-8"?>
<svg version="1.1" xmlns="http://www.w3.org/2000/svg" width="512" height="512">
<path d="M0 0 C1.08847567 -0.00384115 2.17695135 -0.00768229 3.29841113 -0.01163983 C4.49887364 -0.01077335 5.69933614 -0.00990687 6.9361763 -0.00901413 C8.20786895 -0.01198525 9.4795616 -0.01495637 10.78979039 -0.01801753 C14.32679311 -0.02609572 17.86377555 -0.02787756 21.4007864 -0.028615 C25.21276966 -0.03046414 29.02474235 -0.0380108 32.83671951 -0.04475021 C41.17558745 -0.05834008 49.51445058 -0.06435933 57.85332775 -0.06876087 C63.05909896 -0.0715223 68.26486832 -0.07575949 73.47063828 -0.08026505 C87.88067254 -0.09245878 102.29070531 -0.10275775 116.70074463 -0.10614014 C117.62327304 -0.1063597 118.54580146 -0.10657927 119.49628527 -0.10680549 C120.42103653 -0.10702377 121.34578779 -0.10724204 122.29856181 -0.10746694 C124.17249727 -0.1079104 126.04643273 -0.10835697 127.92036819 -0.10880661 C129.31467689 -0.10913875 129.31467689 -0.10913875 130.73715344 -0.10947761 C145.79926276 -0.11342568 160.86132369 -0.13087949 175.92341432 -0.15416613 C191.38324468 -0.17787498 206.84305076 -0.19034178 222.3028996 -0.19150805 C230.98470903 -0.1924251 239.66645544 -0.19818482 248.34824753 -0.21632767 C255.74111982 -0.23172238 263.13390961 -0.23685286 270.52679488 -0.22858956 C274.29879143 -0.22468076 278.07062182 -0.22562378 281.84259796 -0.23964691 C285.93234198 -0.25471235 290.02171099 -0.24652616 294.11146927 -0.23606491 C295.30300889 -0.24412132 296.49454851 -0.25217772 297.72219539 -0.26047826 C303.81739893 -0.22392698 308.46491787 0.00972925 313.77779007 3.13142776 C317.57722829 8.9907393 317.18589598 15.04068497 317.11836624 21.84993362 C317.11880432 23.01163071 317.1192424 24.17332779 317.11969376 25.37022781 C317.11760998 29.19574888 317.0942974 33.02082735 317.07075882 36.84627151 C317.06516141 39.50428382 317.06074436 42.16227187 317.05789566 44.8202858 C317.04859203 51.09229624 317.02400127 57.36414878 316.99384719 63.63608986 C316.96025056 70.77998752 316.94380399 77.92389293 316.92876089 85.06784999 C316.89745005 99.7557898 316.84472252 114.44360602 316.77779007 129.13142776 C317.72460648 128.64996292 318.67142288 128.16849808 319.64693069 127.67244339 C327.70658949 123.70546224 335.62258029 124.19667725 344.0231514 126.97761917 C348.6413078 128.6103438 353.20842279 130.36756457 357.77779007 132.13142776 C359.11913775 132.641134 360.46079013 133.15003888 361.80269241 133.65828323 C365.49420439 135.05792486 369.17996083 136.47189191 372.86220169 137.89574051 C374.33620684 138.46513329 375.81117172 139.03204838 377.28712845 139.59636307 C396.5818803 146.9984858 396.5818803 146.9984858 401.15279007 155.25642776 C401.87595413 156.52873245 401.87595413 156.52873245 402.61372757 157.82674026 C406.20186687 164.93077445 405.87572889 172.86001059 403.63716507 180.34627151 C401.86379818 185.6755162 399.81651598 190.8994116 397.77779007 196.13142776 C397.00468463 198.14215999 396.23410705 200.15385237 395.4634285 202.1655159 C392.26872201 210.50077508 389.03384036 218.81995209 385.77779007 227.13142776 C387.54485306 227.59198563 387.54485306 227.59198563 389.34761429 228.06184769 C393.80990445 229.22528563 398.27169635 230.39062508 402.73335648 231.55647659 C404.64728814 232.05632678 406.56134628 232.55569302 408.47554398 233.05452347 C413.11383278 234.26340031 417.74995731 235.47947113 422.38228226 236.71101761 C425.89065485 237.64281356 429.40525252 238.53638031 432.93111038 239.39949417 C434.52852035 239.80592113 436.12585513 240.21264378 437.72310257 240.61970901 C438.43755539 240.78544922 439.15200821 240.95118942 439.88811111 241.12195206 C445.18423322 242.50428913 449.15395004 244.98020507 452.77779007 249.13142776 C453.10779007 250.20392776 453.43779007 251.27642776 453.77779007 252.38142776 C454.10779007 253.28892776 454.43779007 254.19642776 454.77779007 255.13142776 C457.09626881 255.84804847 459.4309871 256.51384804 461.77779007 257.13142776 C465.91312788 261.68218764 465.11635505 267.17634411 464.96529007 272.94392776 C464.94498734 274.41249222 464.94498734 274.41249222 464.92427444 275.91072464 C464.88904319 278.31819402 464.83978272 280.72452341 464.77779007 283.13142776 C465.49845657 283.11571732 466.21912308 283.10000687 466.96162796 283.08382034 C470.25443422 283.0211229 473.54711445 282.98232681 476.84029007 282.94392776 C478.54088577 282.90622269 478.54088577 282.90622269 480.27583694 282.86775589 C486.53674651 282.81299575 491.33214753 282.89123269 496.77779007 286.13142776 C499.19747128 289.76094958 499.08031285 292.44807312 499.08418655 296.64461136 C499.09251007 297.40755005 499.10083359 298.17048874 499.10940933 298.95654678 C499.13352318 301.48103805 499.14228305 304.00527101 499.14888382 306.52986526 C499.15784913 308.28479974 499.16697096 310.03973341 499.17624283 311.79466629 C499.19273915 315.47497287 499.2004341 319.15518841 499.20332718 322.83552933 C499.2087116 327.54913397 499.24639079 332.26188185 499.29207134 336.97524452 C499.32182917 340.60068757 499.32905045 344.22592401 499.33005333 347.85147858 C499.33425822 349.58902409 499.34670338 351.32657007 499.36757088 353.06399536 C499.39446014 355.49645408 499.38966867 357.92692313 499.3771553 360.35945511 C499.39198959 361.07547394 499.40682388 361.79149277 499.4221077 362.52920914 C499.36628161 366.34441427 498.86845006 368.01556929 496.49032974 371.05467606 C492.82891939 373.85789412 489.99005271 374.25022647 485.46242142 374.28964615 C484.17942909 374.30432938 484.17942909 374.30432938 482.87051773 374.31930923 C481.94047424 374.3250647 481.01043076 374.33082016 480.05220413 374.33675003 C479.0665094 374.34664963 478.08081467 374.35654922 477.0652504 374.36674881 C473.80799637 374.39832991 470.55072776 374.42310793 467.29341507 374.44783401 C465.03468319 374.46840646 462.77595514 374.48940301 460.51723099 374.51080704 C454.57264173 374.56599765 448.62801791 374.61542026 442.68336868 374.66365433 C436.61715493 374.71389128 430.55099138 374.76956591 424.48482132 374.82478714 C412.58252045 374.93233192 400.680176 375.03378512 388.77779007 375.13142776 C386.82516188 380.59562019 384.87279684 386.05990655 382.92069817 391.52428818 C382.22916206 393.46004563 381.53759179 395.39579087 380.84598732 397.3315239 C377.11388295 407.77786074 373.3849006 418.22522035 369.67894363 428.68086624 C368.18258048 432.89982103 366.67975621 437.11645525 365.17549515 441.33259964 C364.42944801 443.42858088 363.68645204 445.52564986 362.94600296 447.62361526 C361.83117657 450.78004288 360.70597759 453.9326002 359.57857132 457.08455276 C359.25254425 458.01551773 358.92651718 458.9464827 358.5906105 459.90565872 C355.79482303 467.66554656 352.70793732 473.23955912 345.77779007 478.13142776 C338.77911437 480.8036494 332.57613422 480.98961121 325.69185257 478.09236526 C318.47317795 474.46829597 315.92809585 469.31022192 312.77779007 462.13142776 C311.78779007 462.79142776 310.79779007 463.45142776 309.77779007 464.13142776 C307.05902796 464.31563534 304.44434042 464.38370764 301.7262764 464.35847855 C300.90653839 464.3587706 300.08680038 464.35906265 299.24222183 464.35936356 C296.53131418 464.35796964 293.82068099 464.34240558 291.10982132 464.32674026 C289.23080979 464.32301035 287.35179631 464.32016328 285.47278214 464.31816483 C280.52599599 464.31052665 275.5793272 464.29087656 270.63258743 464.26875687 C265.58530134 464.24830242 260.53799629 464.23916397 255.49068069 464.22908401 C245.58633225 464.20763086 235.68207091 464.17349266 225.77779007 464.13142776 C225.48259476 465.06728714 225.18739944 466.00314651 224.88325882 466.96736526 C222.60498403 473.48822244 218.71014123 476.16525219 212.77779007 479.13142776 C207.1070438 481.25795761 201.24054153 480.43859487 195.76607132 478.17439651 C191.04165585 475.69616679 187.41118583 472.89826858 185.59029007 467.81892776 C184.99216507 466.93205276 184.39404007 466.04517776 183.77779007 465.13142776 C180.90409121 464.58335223 180.90409121 464.58335223 177.66450882 464.46345901 C176.5671138 464.394897 175.46971878 464.32633499 174.33906937 464.25569534 C173.4938472 464.21468704 172.64862503 464.17367874 171.77779007 464.13142776 C171.79873734 465.27619583 171.8196846 466.4209639 171.84126663 467.60042191 C171.91396808 471.8699874 171.95969886 476.13949876 171.99751663 480.40950394 C172.01756368 482.25334771 172.04480887 484.09712845 172.07954788 485.94075394 C172.12837215 488.59952267 172.15082779 491.25744692 172.16841507 493.91658401 C172.18906021 494.73353241 172.20970535 495.5504808 172.2309761 496.39218521 C172.2331944 502.12127746 171.07569619 505.41975214 167.77779007 510.13142776 C163.43060022 513.11235794 158.71021336 512.0075698 153.77779007 511.13142776 C148.52301273 509.82003233 143.33955596 508.2819042 138.14888382 506.74080276 C136.58652824 506.28302822 135.02397187 505.82593844 133.46123123 505.36948013 C129.25155883 504.13793125 125.04460491 502.89732816 120.83809662 501.65502167 C116.43698797 500.35691952 112.03345916 499.06708344 107.63008499 497.77669144 C102.17690733 496.17809647 96.72399495 494.57861695 91.27219009 492.97534561 C78.8402169 489.31946872 66.40144783 485.68765114 53.95747757 482.07283401 C52.2948945 481.58960515 50.63232217 481.1063393 48.96976089 480.62303543 C39.45974301 477.85854205 39.45974301 477.85854205 29.94890213 475.09688187 C26.28579796 474.03367731 22.62339125 472.96810082 18.96146393 471.9008503 C17.00718989 471.33191621 15.05221897 470.76537752 13.09721756 470.19894791 C9.6519565 469.1938283 6.21460591 468.16499201 2.77779007 467.13142776 C1.09403778 466.65024994 1.09403778 466.65024994 -0.62372971 466.15935135 C-1.69045914 465.83713608 -2.75718857 465.51492081 -3.85624313 465.18294144 C-4.79595459 464.90737915 -5.73566605 464.63181686 -6.70385361 464.34790421 C-9.98645418 462.76226431 -11.24185984 461.197295 -13.22220993 458.13142776 C-13.60739072 455.44429658 -13.7627167 453.17085412 -13.72836781 450.48951435 C-13.73448117 449.72408618 -13.74059452 448.958658 -13.74689314 448.17003503 C-13.76253812 445.59598815 -13.74960923 443.02287744 -13.73687363 440.44882584 C-13.74219688 438.58849614 -13.74926129 436.72817074 -13.75792068 434.86785358 C-13.77660422 429.74853227 -13.77022338 424.62949912 -13.75976765 419.51016557 C-13.75279182 413.99199717 -13.76876127 408.47388893 -13.78176498 402.95573807 C-13.80343739 392.14252998 -13.80326977 381.32942699 -13.79513944 370.5162043 C-13.78884646 361.72965505 -13.78997002 352.94313652 -13.79641151 344.1565876 C-13.79731317 342.90730947 -13.79821482 341.65803134 -13.7991438 340.37089629 C-13.80099495 337.83321134 -13.80285751 335.2955264 -13.80473136 332.75784146 C-13.81660672 315.71267426 -13.82100366 298.66751756 -13.80979633 281.62234974 C-13.80935836 280.95566115 -13.80892039 280.28897257 -13.80846915 279.60208129 C-13.80486223 274.18790208 -13.8010275 268.77372302 -13.79717822 263.35954397 C-13.7823299 242.23877957 -13.7911101 221.11814447 -13.81913376 199.99739456 C-13.85055075 176.27373994 -13.86546721 152.55015161 -13.85533375 128.82646984 C-13.85431117 126.29767447 -13.85331656 123.76887909 -13.85235023 121.24008369 C-13.85187385 119.99578918 -13.85139746 118.75149466 -13.85090663 117.46949424 C-13.84873987 108.69175269 -13.85856054 99.91407122 -13.87312126 91.136343 C-13.89061406 80.44159914 -13.89057112 69.74703106 -13.86776961 59.0522942 C-13.85659967 53.59331514 -13.8535272 48.13464611 -13.87207031 42.67568016 C-13.88881809 37.68106767 -13.88260151 32.68703696 -13.85785352 27.69246256 C-13.85295105 25.88296396 -13.85653783 24.07341894 -13.86934096 22.263959 C-13.88546605 19.80832752 -13.87093246 17.35472168 -13.84862232 14.89918232 C-13.860614 14.19281384 -13.87260568 13.48644537 -13.88496074 12.75867179 C-13.78134631 7.19256241 -12.06759813 4.87323956 -8.22220993 1.13142776 C-5.19225956 0.12144431 -3.16877165 0.00418929 0 0 Z M79.77779007 23.13142776 C82.79004328 25.13959657 85.0382241 25.92310632 88.49238968 26.91560745 C89.66889587 27.25646378 90.84540207 27.5973201 92.05755997 27.9485054 C93.34839758 28.31684245 94.63925612 28.68510621 95.93013382 29.05330276 C97.2681289 29.43914959 98.60598158 29.82549056 99.94369888 30.21229935 C103.48079114 31.23378379 107.01959977 32.24918742 110.55885696 33.26314163 C114.08258965 34.27345586 117.60499408 35.28837246 121.12739944 36.30330276 C121.81311838 36.50075844 122.49883732 36.69821411 123.20533562 36.90165329 C126.61366142 37.88338538 130.02138208 38.86714819 133.42802811 39.85469437 C139.30003721 41.55621721 145.17337496 43.24746557 151.06734085 44.87166214 C152.86799515 45.37999884 154.66861661 45.8884519 156.46919632 46.39705276 C157.25801697 46.60578018 158.04683762 46.8145076 158.85956192 47.02956009 C163.6912597 48.41627144 166.51475569 50.11238626 169.77779007 54.13142776 C170.87502974 57.42314677 170.91626174 59.87166799 170.93600845 63.33862686 C170.94579727 64.63853058 170.95558609 65.9384343 170.96567154 67.27772903 C170.97157576 68.72139322 170.9773862 70.16505779 170.98311234 71.60872269 C170.99269079 73.12638999 171.00270085 74.64405463 171.01311111 76.16171646 C171.04016979 80.28535718 171.06117415 84.40900935 171.0811131 88.53268981 C171.1029667 92.84087705 171.13035845 97.14902893 171.15716934 101.45718765 C171.20710469 109.61690728 171.2520404 117.77664651 171.29519171 125.93640453 C171.34455688 135.22531705 171.39947768 144.51419411 171.4548713 153.80307233 C171.56870427 172.91249122 171.67554046 192.02194357 171.77779007 211.13142776 C173.0428579 210.19507844 174.30618934 209.2563829 175.56880569 208.3167305 C176.27251297 207.79425232 176.97622025 207.27177414 177.70125198 206.73346329 C180.73146182 204.39567626 183.50282033 201.82494354 186.27779007 199.19392776 C187.40858324 198.13586903 188.54009058 197.07857302 189.67232132 196.02205276 C190.20808792 195.52125198 190.74385452 195.0204512 191.29585648 194.50447464 C193.75533396 192.22571 196.28558069 190.03205525 198.82075882 187.83845901 C201.16338157 185.79509346 203.47052429 183.71461917 205.77779007 181.63142776 C209.39530404 178.36684198 213.04162056 175.14053285 216.71919632 171.94392776 C219.07731538 169.86770908 221.39406447 167.74878609 223.71529007 165.63142776 C225.39796234 164.1260141 227.0853464 162.62584761 228.77779007 161.13142776 C229.90894241 160.1298262 229.90894241 160.1298262 231.06294632 159.10799026 C232.15929398 158.19146683 232.15929398 158.19146683 233.27779007 157.25642776 C233.90685257 156.72275589 234.53591507 156.18908401 235.18404007 155.63924026 C241.94716015 151.70766745 249.87774071 150.61889659 257.54732132 149.77986526 C258.43135132 149.67550156 259.31538132 149.57113785 260.2262001 149.4636116 C263.01332719 149.13612028 265.80165162 148.82076315 268.59029007 148.50642776 C271.39644369 148.18250176 274.20228389 147.85604054 277.00793839 147.52782059 C278.74384496 147.32555183 280.48009088 147.1261679 282.21670914 146.9301033 C283.0049054 146.83975815 283.79310165 146.74941299 284.60518265 146.65633011 C285.29227814 146.57877487 285.97937363 146.50121964 286.68729019 146.42131424 C289.06681175 146.09134956 291.42215045 145.60255569 293.77779007 145.13142776 C293.77779007 104.87142776 293.77779007 64.61142776 293.77779007 23.13142776 C223.15779007 23.13142776 152.53779007 23.13142776 79.77779007 23.13142776 Z M253.27827835 188.2920723 C249.3537398 190.95433816 246.63567754 194.35858574 243.77779007 198.13142776 C242.43703908 199.37765456 241.06414457 200.59076361 239.65279007 201.75642776 C236.66381549 204.34852605 233.71457472 206.98028783 230.77779007 209.63142776 C227.16102662 212.89533625 223.51389399 216.11933726 219.84029007 219.31892776 C217.46814578 221.40353941 215.12222942 223.51571421 212.77779007 225.63142776 C208.47864919 229.50588147 204.1653909 233.35731448 199.77779007 237.13142776 C198.79165726 237.98478714 197.80552444 238.83814651 196.78950882 239.71736526 C195.72368849 240.62690648 194.6572828 241.5357622 193.59029007 242.44392776 C192.11495804 243.70656448 192.11495804 243.70656448 190.60982132 244.99470901 C184.050156 249.9438634 180.53230496 249.13142776 171.77779007 249.13142776 C171.77779007 312.82142776 171.77779007 376.51142776 171.77779007 442.13142776 C177.38779007 442.13142776 182.99779007 442.13142776 188.77779007 442.13142776 C195.79404016 429.44468877 202.61316799 416.67003911 209.23186111 403.77223587 C213.93913293 394.60286736 218.7655008 385.50985747 223.83443069 376.53377151 C229.76807034 365.87883299 233.67583327 354.78119574 236.95103264 343.076931 C237.59790828 340.76545618 238.253992 338.45675319 238.91211319 336.14845657 C240.31301044 331.22841056 241.70196247 326.30503243 243.09029007 321.38142776 C251.44798138 291.77343999 260.52773069 262.8185688 271.71529007 234.13142776 C273.41401721 229.75724593 275.10970059 225.3818872 276.80513382 221.00642776 C277.4213913 219.4184639 277.4213913 219.4184639 278.05009842 217.79841995 C282.38406946 206.61039707 286.59232575 195.37571278 290.77779007 184.13142776 C280.82554034 181.34833684 262.70671583 183.91399144 253.27827835 188.2920723 Z M371.77779007 263.13142776 C368.68205643 269.96431478 365.7659631 276.86008962 362.96529007 283.81892776 C362.54570023 284.82504105 362.12611038 285.83115433 361.69380569 286.86775589 C358.70608713 293.86771974 358.70608713 293.86771974 359.77779007 301.13142776 C361.45213162 304.20453986 363.32488359 307.10412343 365.27779007 310.00642776 C365.78954788 310.79017776 366.30130569 311.57392776 366.82857132 312.38142776 C368.74260083 315.29916831 368.74260083 315.29916831 370.77779007 318.13142776 C371.10779007 318.13142776 371.43779007 318.13142776 371.77779007 318.13142776 C371.79237259 317.33970169 371.80695511 316.54797562 371.82197952 315.73225784 C371.89657363 312.13566233 371.9931984 308.53998334 372.09029007 304.94392776 C372.11284866 303.69804886 372.13540726 302.45216995 372.15864944 301.16853714 C372.19409866 299.96648636 372.22954788 298.76443558 372.26607132 297.52595901 C372.2922554 296.42099075 372.31843948 295.31602249 372.34541702 294.17757034 C372.8365861 290.7171996 373.59708916 288.85693013 375.77779007 286.13142776 C379.44950525 284.07881941 382.79443763 283.84029532 386.95357132 283.71736526 C388.68897171 283.65935745 388.68897171 283.65935745 390.45943069 283.60017776 C391.65761429 283.56924026 392.85579788 283.53830276 394.09029007 283.50642776 C395.3078096 283.46775589 396.52532913 283.42908401 397.77974319 283.38924026 C400.77894235 283.29514774 403.7781383 283.20950568 406.77779007 283.13142776 C406.77779007 279.50142776 406.77779007 275.87142776 406.77779007 272.13142776 C395.17985463 268.71832105 383.66153657 265.40831365 371.77779007 263.13142776 Z M423.77779007 276.13142776 C423.77779007 278.44142776 423.77779007 280.75142776 423.77779007 283.13142776 C431.69779007 283.13142776 439.61779007 283.13142776 447.77779007 283.13142776 C447.77779007 280.82142776 447.77779007 278.51142776 447.77779007 276.13142776 C446.99404007 276.46142776 446.21029007 276.79142776 445.40279007 277.13142776 C437.93996831 279.19013722 431.10522194 278.30251869 423.77779007 276.13142776 Z M292.77779007 304.13142776 C292.40980301 305.43116531 292.40980301 305.43116531 292.03438187 306.75716019 C289.69817232 314.99781436 287.34648033 323.23386523 284.97810745 331.46533585 C283.76157563 335.69546821 282.550704 339.92703838 281.35347366 344.16267776 C280.19379161 348.26463198 279.01832293 352.36177928 277.83263016 356.45628738 C277.38714068 358.00449182 276.94697769 359.55424113 276.5127449 361.10564041 C273.61050476 371.45657264 269.83747552 380.80680262 264.76065254 390.28612041 C263.3872465 392.86466659 262.06208321 395.46710942 260.73537159 398.06990623 C259.11627666 401.24273858 257.4763651 404.40482881 255.84029007 407.56892776 C255.14103867 408.92397276 254.44182025 410.27903479 253.74263382 411.63411331 C249.61745804 419.620945 245.46598149 427.59273285 241.16475296 435.48665237 C239.35532817 438.62945084 239.35532817 438.62945084 238.77779007 442.13142776 C256.92779007 442.13142776 275.07779007 442.13142776 293.77779007 442.13142776 C293.77779007 396.59142776 293.77779007 351.05142776 293.77779007 304.13142776 C293.44779007 304.13142776 293.11779007 304.13142776 292.77779007 304.13142776 Z M316.77779007 314.13142776 C316.77779007 357.03142776 316.77779007 399.93142776 316.77779007 444.13142776 C318.74340795 441.18300094 319.7547734 438.69664165 320.92915726 435.36922073 C321.35009659 434.18303146 321.77103592 432.99684219 322.20473099 431.77470779 C322.66146081 430.47437352 323.11810314 429.1740085 323.57466507 427.87361526 C324.05031701 426.52844556 324.52633647 425.18340577 325.00270462 423.83848953 C326.2600696 420.28545014 327.51242633 416.73066522 328.76375198 413.17549515 C330.26106973 408.92468208 331.76448622 404.67602213 333.26742172 400.42719269 C334.47304432 397.01749332 335.6756679 393.60679786 336.871418 390.19362259 C338.82671519 384.61699403 340.78941779 379.04730794 342.88911819 373.52302933 C343.18602554 372.73010483 343.48293289 371.93718033 343.78883743 371.12022781 C344.30939124 369.73870127 344.84286272 368.36192449 345.39320755 366.99199295 C346.47127525 364.10673995 346.86555595 362.45920829 346.05904007 359.44710159 C344.89741329 357.34762941 343.74324358 355.28109804 342.44966507 353.26033401 C341.98608597 352.5312886 341.52250687 351.80224319 341.04487991 351.0511055 C340.54424026 350.27323685 340.04360062 349.49536819 339.52779007 348.69392776 C339.00781448 347.87932083 338.4878389 347.0647139 337.95210648 346.22542191 C336.82873898 344.46561239 335.70384257 342.70677813 334.57759476 340.94881058 C332.68902288 337.99247315 330.81411084 335.02780821 328.94185257 332.06111526 C327.67889073 330.06368213 326.41587107 328.06628555 325.15279007 326.06892776 C324.54918655 325.11123489 323.94558304 324.15354202 323.32368851 323.16682816 C322.7594014 322.27729446 322.19511429 321.38776077 321.61372757 320.47127151 C320.86421829 319.2858577 320.86421829 319.2858577 320.09956741 318.07649612 C318.78998156 316.01867771 318.78998156 316.01867771 316.77779007 314.13142776 Z " fill="#632C15" transform="translate(13.222209930419922,-0.13142776489257813)"/>
<path d="M0 0 C10.14438649 -0.85326615 19.56489566 3.77879453 28.8203125 7.3515625 C30.16166018 7.86126873 31.50331256 8.37017361 32.84521484 8.87841797 C36.53672682 10.2780596 40.22248326 11.69202664 43.90472412 13.11587524 C45.37872927 13.68526803 46.85369415 14.25218312 48.32965088 14.8164978 C67.62440273 22.21862054 67.62440273 22.21862054 72.1953125 30.4765625 C72.67742187 31.32476562 73.15953125 32.17296875 73.65625 33.046875 C77.2443893 40.15090918 76.91825132 48.08014533 74.6796875 55.56640625 C72.90632061 60.89565094 70.85903841 66.11954634 68.8203125 71.3515625 C68.04720706 73.36229472 67.27662948 75.3739871 66.50595093 77.38565063 C63.31124444 85.72090981 60.07636279 94.04008682 56.8203125 102.3515625 C58.58737549 102.81212036 58.58737549 102.81212036 60.39013672 103.28198242 C64.85242688 104.44542037 69.31421878 105.61075981 73.77587891 106.77661133 C75.68981057 107.27646152 77.60386871 107.77582775 79.51806641 108.2746582 C84.15635521 109.48353505 88.79247974 110.69960586 93.42480469 111.93115234 C96.93317728 112.86294829 100.44777495 113.75651504 103.97363281 114.61962891 C105.57104278 115.02605587 107.16837756 115.43277851 108.765625 115.83984375 C109.48007782 116.00558395 110.19453064 116.17132416 110.93063354 116.34208679 C116.22675565 117.72442387 120.19647247 120.20033981 123.8203125 124.3515625 C124.1503125 125.4240625 124.4803125 126.4965625 124.8203125 127.6015625 C125.1503125 128.5090625 125.4803125 129.4165625 125.8203125 130.3515625 C128.13879124 131.0681832 130.47350953 131.73398277 132.8203125 132.3515625 C136.95565031 136.90232237 136.15887748 142.39647885 136.0078125 148.1640625 C135.99427734 149.14310547 135.98074219 150.12214844 135.96679688 151.13085938 C135.93156562 153.53832875 135.88230515 155.94465814 135.8203125 158.3515625 C136.90131226 158.32799683 136.90131226 158.32799683 138.00415039 158.30395508 C141.29695665 158.24125763 144.58963688 158.20246155 147.8828125 158.1640625 C149.01654297 158.13892578 150.15027344 158.11378906 151.31835938 158.08789062 C157.57926894 158.03313048 162.37466996 158.11136742 167.8203125 161.3515625 C170.23999371 164.98108431 170.12283528 167.66820785 170.12670898 171.86474609 C170.1350325 172.62768478 170.14335602 173.39062347 170.15193176 174.17668152 C170.17604561 176.70117279 170.18480548 179.22540574 170.19140625 181.75 C170.20037156 183.50493447 170.20949339 185.25986815 170.21876526 187.01480103 C170.23526158 190.69510761 170.24295653 194.37532315 170.24584961 198.05566406 C170.25123403 202.7692687 170.28891322 207.48201659 170.33459377 212.19537926 C170.36435161 215.82082231 170.37157288 219.44605874 170.37257576 223.07161331 C170.37678065 224.80915882 170.38922581 226.54670481 170.41009331 228.2841301 C170.43698257 230.71658882 170.4321911 233.14705787 170.41967773 235.57958984 C170.44192917 236.65361809 170.44192917 236.65361809 170.46463013 237.74934387 C170.40880404 241.564549 169.91097249 243.23570403 167.53285217 246.27481079 C163.87144182 249.07802885 161.03257514 249.47036121 156.50494385 249.50978088 C155.22195152 249.52446411 155.22195152 249.52446411 153.91304016 249.53944397 C152.98299667 249.54519943 152.05295319 249.5509549 151.09472656 249.55688477 C150.10903183 249.56678436 149.1233371 249.57668396 148.10777283 249.58688354 C144.8505188 249.61846464 141.59325019 249.64324267 138.3359375 249.66796875 C136.07720562 249.6885412 133.81847757 249.70953775 131.55975342 249.73094177 C125.61516416 249.78613239 119.67054034 249.835555 113.72589111 249.88378906 C107.65967736 249.93402602 101.59351381 249.98970064 95.52734375 250.04492188 C83.62504288 250.15246665 71.72269843 250.25391985 59.8203125 250.3515625 C57.86768431 255.81575493 55.91531927 261.28004129 53.9632206 266.74442291 C53.27168449 268.68018036 52.58011422 270.6159256 51.88850975 272.55165863 C48.15640538 282.99799548 44.42742303 293.44535509 40.72146606 303.90100098 C39.22510291 308.11995576 37.72227864 312.33658998 36.21801758 316.55273438 C35.47197045 318.64871561 34.72897447 320.7457846 33.98852539 322.84375 C32.873699 326.00017762 31.74850002 329.15273493 30.62109375 332.3046875 C30.29506668 333.23565247 29.96903961 334.16661743 29.63313293 335.12579346 C26.83734546 342.8856813 23.75045975 348.45969385 16.8203125 353.3515625 C9.8216368 356.02378413 3.61865665 356.20974594 -3.265625 353.3125 C-10.48429962 349.6884307 -13.02938172 344.53035665 -16.1796875 337.3515625 C-17.1696875 338.0115625 -18.1596875 338.6715625 -19.1796875 339.3515625 C-21.89844961 339.53577007 -24.51313715 339.60384238 -27.23120117 339.57861328 C-28.05093918 339.57890533 -28.87067719 339.57919739 -29.71525574 339.57949829 C-32.42616339 339.57810438 -35.13679658 339.56254031 -37.84765625 339.546875 C-39.72666778 339.54314509 -41.60568126 339.54029801 -43.48469543 339.53829956 C-48.43148158 339.53066139 -53.37815037 339.51101129 -58.32489014 339.4888916 C-63.37217623 339.46843716 -68.41948128 339.4592987 -73.46679688 339.44921875 C-83.37114532 339.4277656 -93.27540665 339.3936274 -103.1796875 339.3515625 C-103.47488281 340.28742188 -103.77007812 341.22328125 -104.07421875 342.1875 C-106.35249354 348.70835717 -110.24733634 351.38538692 -116.1796875 354.3515625 C-121.84861397 356.47740993 -127.72096838 355.66377782 -133.19140625 353.390625 C-138.31564916 350.71272988 -142.76946874 347.04762477 -144.74682617 341.44140625 C-146.68385858 332.08946184 -144.7699495 324.74664947 -140.4296875 316.4765625 C-139.93090088 315.48172852 -139.43211426 314.48689453 -138.91821289 313.46191406 C-135.16625567 306.05061159 -131.19694258 298.75329478 -127.16845703 291.48925781 C-122.19633671 282.49601245 -117.49509857 273.36876163 -112.8046875 264.2265625 C-112.22773636 263.10308411 -112.22773636 263.10308411 -111.63912964 261.95690918 C-110.51862925 259.77397224 -109.39951788 257.59033136 -108.28125 255.40625 C-107.95658249 254.77244415 -107.63191498 254.13863831 -107.29740906 253.48562622 C-106.63409481 252.18711914 -105.97434101 250.8867885 -105.31774902 249.58486938 C-104.46723364 247.91583672 -103.59839676 246.25611755 -102.72033691 244.60140991 C-99.10856638 237.6652681 -96.53721258 230.86803327 -94.4453125 223.34375 C-93.96642326 221.67681091 -93.96642326 221.67681091 -93.4778595 219.97619629 C-92.80096721 217.61473524 -92.12934115 215.25175905 -91.462677 212.88739014 C-90.41214642 209.16439841 -89.34568994 205.44628676 -88.27514648 201.72900391 C-85.51543791 192.13231042 -82.77662038 182.53003847 -80.10852051 172.90744019 C-73.88294687 150.48346895 -65.85501558 128.90041588 -57.44482422 107.20947266 C-55.11540477 101.19676047 -52.81797319 95.17211163 -50.52734375 89.14453125 C-50.15395874 88.162034 -49.78057373 87.17953674 -49.39587402 86.16726685 C-48.66123704 84.23385565 -47.92667745 82.30041505 -47.19219971 80.36694336 C-45.49242644 75.89559295 -43.78747485 71.42622138 -42.08203125 66.95703125 C-41.78603531 66.18127243 -41.49003937 65.40551361 -41.18507385 64.60624695 C-40.51669406 62.85465405 -39.848205 61.10310285 -39.1796875 59.3515625 C-43.70160501 59.79957934 -48.22196248 60.26180382 -52.7421875 60.7265625 C-54.01900391 60.85289062 -55.29582031 60.97921875 -56.61132812 61.109375 C-69.28055877 62.20282753 -69.28055877 62.20282753 -79.6171875 69.0390625 C-80.56335938 69.93882812 -81.50953125 70.83859375 -82.484375 71.765625 C-83.81855469 73.04566406 -83.81855469 73.04566406 -85.1796875 74.3515625 C-86.52502265 75.54905862 -87.87821268 76.7378413 -89.2421875 77.9140625 C-92.25042278 80.52858192 -95.22098999 83.18107906 -98.1796875 85.8515625 C-101.79645095 89.11547098 -105.44358358 92.33947199 -109.1171875 95.5390625 C-111.48933179 97.62367414 -113.83524815 99.73584894 -116.1796875 101.8515625 C-120.47882838 105.72601621 -124.79208667 109.57744922 -129.1796875 113.3515625 C-130.16582031 114.20492187 -131.15195313 115.05828125 -132.16796875 115.9375 C-133.23378908 116.84704121 -134.30019477 117.75589693 -135.3671875 118.6640625 C-136.35074219 119.50582031 -137.33429688 120.34757812 -138.34765625 121.21484375 C-143.25483498 124.91722549 -147.48557808 125.92866943 -153.546875 125.79296875 C-158.97051449 124.88366421 -162.96210764 121.75443879 -166.62890625 117.78125 C-170.0393321 112.82715771 -170.01692575 107.14388425 -169.1796875 101.3515625 C-167.36673854 95.91271563 -163.56219122 92.83967771 -159.1796875 89.3515625 C-157.97037868 87.88766235 -156.76176682 86.42301384 -155.57421875 84.94140625 C-153.40390854 82.46713103 -150.91818324 80.4024826 -148.41796875 78.26953125 C-145.96763337 76.16985468 -143.57251177 74.01649874 -141.1796875 71.8515625 C-137.56292405 68.58765402 -133.91579142 65.36365301 -130.2421875 62.1640625 C-127.87004321 60.07945086 -125.52412685 57.96727606 -123.1796875 55.8515625 C-119.56217353 52.58697672 -115.91585701 49.36066759 -112.23828125 46.1640625 C-109.88016219 44.08784382 -107.5634131 41.96892082 -105.2421875 39.8515625 C-103.55951523 38.34614884 -101.87213117 36.84598234 -100.1796875 35.3515625 C-99.42558594 34.68382812 -98.67148438 34.01609375 -97.89453125 33.328125 C-96.79818359 32.41160156 -96.79818359 32.41160156 -95.6796875 31.4765625 C-94.73609375 30.67605469 -94.73609375 30.67605469 -93.7734375 29.859375 C-84.7660139 24.62313176 -73.81871725 24.21446351 -63.67724609 23.04394531 C-60.94899136 22.72879238 -58.2225375 22.40073093 -55.49609375 22.0703125 C-46.60531001 21.00755219 -37.74841422 20.08069765 -28.80566406 19.58447266 C-26.07153544 19.44394352 -26.07153544 19.44394352 -23.1796875 18.3515625 C-21.78393819 16.49326364 -21.78393819 16.49326364 -20.4921875 14.2265625 C-16.67604568 8.30398596 -12.39549885 3.74710327 -5.8671875 0.9140625 C-3.91050097 0.61558489 -1.95406694 0.31517209 0 0 Z M42.8203125 138.3515625 C39.72457886 145.18444951 36.80848553 152.08022435 34.0078125 159.0390625 C33.58822266 160.04517578 33.16863281 161.05128906 32.73632812 162.08789062 C29.74860956 169.08785447 29.74860956 169.08785447 30.8203125 176.3515625 C32.49465405 179.4246746 34.36740602 182.32425816 36.3203125 185.2265625 C36.83207031 186.0103125 37.34382812 186.7940625 37.87109375 187.6015625 C39.78512326 190.51930304 39.78512326 190.51930304 41.8203125 193.3515625 C42.1503125 193.3515625 42.4803125 193.3515625 42.8203125 193.3515625 C42.83489502 192.55983643 42.84947754 191.76811035 42.86450195 190.95239258 C42.93909606 187.35579707 43.03572083 183.76011807 43.1328125 180.1640625 C43.15537109 178.91818359 43.17792969 177.67230469 43.20117188 176.38867188 C43.23662109 175.18662109 43.27207031 173.98457031 43.30859375 172.74609375 C43.33477783 171.64112549 43.36096191 170.53615723 43.38793945 169.39770508 C43.87910853 165.93733434 44.63961159 164.07706487 46.8203125 161.3515625 C50.49202768 159.29895414 53.83696006 159.06043006 57.99609375 158.9375 C59.73149414 158.87949219 59.73149414 158.87949219 61.50195312 158.8203125 C62.70013672 158.789375 63.89832031 158.7584375 65.1328125 158.7265625 C66.35033203 158.68789063 67.56785156 158.64921875 68.82226562 158.609375 C71.82146478 158.51528248 74.82066073 158.42964041 77.8203125 158.3515625 C77.8203125 154.7215625 77.8203125 151.0915625 77.8203125 147.3515625 C66.22237706 143.93845578 54.704059 140.62844838 42.8203125 138.3515625 Z M94.8203125 151.3515625 C94.8203125 153.6615625 94.8203125 155.9715625 94.8203125 158.3515625 C102.7403125 158.3515625 110.6603125 158.3515625 118.8203125 158.3515625 C118.8203125 156.0415625 118.8203125 153.7315625 118.8203125 151.3515625 C118.0365625 151.6815625 117.2528125 152.0115625 116.4453125 152.3515625 C108.98249074 154.41027195 102.14774437 153.52265343 94.8203125 151.3515625 Z M-36.1796875 179.3515625 C-36.54767456 180.65130005 -36.54767456 180.65130005 -36.9230957 181.97729492 C-39.25930525 190.21794909 -41.61099724 198.45399997 -43.97937012 206.68547058 C-45.19590194 210.91560295 -46.40677357 215.14717311 -47.60400391 219.3828125 C-48.76368596 223.48476671 -49.93915463 227.58191401 -51.12484741 231.67642212 C-51.57033689 233.22462655 -52.01049988 234.77437586 -52.44473267 236.32577515 C-55.34697281 246.67670737 -59.12000205 256.02693735 -64.19682503 265.50625515 C-65.57023107 268.08480133 -66.89539436 270.68724415 -68.22210598 273.29004097 C-69.84120091 276.46287332 -71.48111247 279.62496354 -73.1171875 282.7890625 C-73.8164389 284.1441075 -74.51565732 285.49916952 -75.21484375 286.85424805 C-79.34001953 294.84107974 -83.49149608 302.81286758 -87.79272461 310.70678711 C-89.6021494 313.84958557 -89.6021494 313.84958557 -90.1796875 317.3515625 C-72.0296875 317.3515625 -53.8796875 317.3515625 -35.1796875 317.3515625 C-35.1796875 271.8115625 -35.1796875 226.2715625 -35.1796875 179.3515625 C-35.5096875 179.3515625 -35.8396875 179.3515625 -36.1796875 179.3515625 Z M-12.1796875 189.3515625 C-12.1796875 232.2515625 -12.1796875 275.1515625 -12.1796875 319.3515625 C-10.21406962 316.40313568 -9.20270417 313.91677639 -8.02832031 310.58935547 C-7.60738098 309.4031662 -7.18644165 308.21697693 -6.75274658 306.99484253 C-6.29601676 305.69450825 -5.83937443 304.39414324 -5.3828125 303.09375 C-4.90716056 301.7485803 -4.4311411 300.4035405 -3.95477295 299.05862427 C-2.69740797 295.50558488 -1.44505124 291.95079996 -0.19372559 288.39562988 C1.30359216 284.14481682 2.80700865 279.89615686 4.30994415 275.64732742 C5.51556675 272.23762806 6.71819033 268.8269326 7.91394043 265.41375732 C9.86923762 259.83712877 11.83194022 254.26744267 13.93164062 248.74316406 C14.22854797 247.95023956 14.52545532 247.15731506 14.83135986 246.34036255 C15.35191367 244.95883601 15.88538515 243.58205922 16.43572998 242.21212769 C17.51379768 239.32687469 17.90807838 237.67934302 17.1015625 234.66723633 C15.93993572 232.56776415 14.78576601 230.50123278 13.4921875 228.48046875 C13.0286084 227.75142334 12.5650293 227.02237793 12.08740234 226.27124023 C11.5867627 225.49337158 11.08612305 224.71550293 10.5703125 223.9140625 C10.05033691 223.09945557 9.53036133 222.28484863 8.99462891 221.44555664 C7.87126141 219.68574713 6.746365 217.92691286 5.62011719 216.16894531 C3.73154531 213.21260789 1.85663327 210.24794294 -0.015625 207.28125 C-1.27858684 205.28381686 -2.5416065 203.28642029 -3.8046875 201.2890625 C-4.40829102 200.33136963 -5.01189453 199.37367676 -5.63378906 198.38696289 C-6.19807617 197.4974292 -6.76236328 196.60789551 -7.34375 195.69140625 C-8.09325928 194.50599243 -8.09325928 194.50599243 -8.85791016 193.29663086 C-10.16749601 191.23881245 -10.16749601 191.23881245 -12.1796875 189.3515625 Z " fill="#1B224A" transform="translate(342.1796875,124.6484375)"/>
<path d="M0 0 C13.95061728 2.79012346 13.95061728 2.79012346 19.375 8.5 C20.85123941 10.77113756 21.60693482 12.34681001 22 15 C23.093125 15.226875 24.18625 15.45375 25.3125 15.6875 C29 17 29 17 30.71875 18.90625 C32.62972809 23.52056295 32.31683064 27.87472251 32.1875 32.8125 C32.16719727 34.28106445 32.16719727 34.28106445 32.14648438 35.77929688 C32.11125312 38.18676625 32.06199265 40.59309564 32 43 C32.7206665 42.98428955 33.44133301 42.9685791 34.18383789 42.95239258 C37.47664415 42.88969513 40.76932438 42.85089905 44.0625 42.8125 C45.7630957 42.77479492 45.7630957 42.77479492 47.49804688 42.73632812 C53.75895644 42.68156798 58.55435746 42.75980492 64 46 C66.41968121 49.62952181 66.30252278 52.31664535 66.30639648 56.51318359 C66.31472 57.27612228 66.32304352 58.03906097 66.33161926 58.82511902 C66.35573311 61.34961029 66.36449298 63.87384324 66.37109375 66.3984375 C66.38005906 68.15337197 66.38918089 69.90830565 66.39845276 71.66323853 C66.41494908 75.34354511 66.42264403 79.02376065 66.42553711 82.70410156 C66.43092153 87.4177062 66.46860072 92.13045409 66.51428127 96.84381676 C66.54403911 100.46925981 66.55126038 104.09449624 66.55226326 107.72005081 C66.55646815 109.45759632 66.56891331 111.19514231 66.58978081 112.9325676 C66.61667007 115.36502632 66.6118786 117.79549537 66.59936523 120.22802734 C66.61419952 120.94404617 66.62903381 121.660065 66.64431763 122.39778137 C66.58849154 126.2129865 66.09065999 127.88414153 63.71253967 130.92324829 C60.06682695 133.71444807 57.26096615 134.12464887 52.75192261 134.12698364 C51.91104599 134.12980347 51.07016937 134.13262329 50.20381165 134.13552856 C49.28947861 134.13350433 48.37514557 134.1314801 47.43310547 134.12939453 C46.46347366 134.13114685 45.49384186 134.13289917 44.49482727 134.13470459 C41.28559586 134.13910941 38.07641949 134.13618852 34.8671875 134.1328125 C32.63241566 134.13348626 30.3976439 134.13445689 28.16287231 134.13571167 C23.47380884 134.13718706 18.78476439 134.13504037 14.09570312 134.13037109 C8.10390633 134.12469368 2.11215453 134.12794118 -3.87964058 134.13394356 C-8.49863011 134.13757034 -13.11760911 134.13640053 -17.73659897 134.13381577 C-19.94445679 134.13315132 -22.15231559 134.13395797 -24.36017227 134.13629532 C-27.45905302 134.13885443 -30.55786278 134.13493475 -33.65673828 134.12939453 C-34.55892593 134.13141876 -35.46111359 134.13344299 -36.39064026 134.13552856 C-52.14214496 134.08374877 -52.14214496 134.08374877 -57 131.25 C-60.95752074 126.79778917 -61.25353785 122.6352399 -61.2746582 116.81054688 C-61.27976913 116.10583755 -61.28488007 115.40112823 -61.29014587 114.67506409 C-61.30399433 112.35620525 -61.30308899 110.03764515 -61.30078125 107.71875 C-61.30467027 106.10119517 -61.30900536 104.48364136 -61.31376648 102.86608887 C-61.32121807 99.48019089 -61.32094474 96.09439721 -61.31567383 92.70849609 C-61.3098749 88.37404841 -61.32682532 84.04002745 -61.3500185 79.70565033 C-61.36476279 76.36673496 -61.3656267 73.02792226 -61.36250877 69.6889801 C-61.36302145 68.09102024 -61.36824915 66.49305455 -61.37832069 64.89512634 C-61.39068418 62.65962091 -61.38389516 60.42494568 -61.37231445 58.18945312 C-61.37294388 56.91880005 -61.3735733 55.64814697 -61.3742218 54.33898926 C-60.9700833 50.73306861 -60.16151467 48.87971744 -58 46 C-52.34382277 41.66860847 -45.39764553 42.66941594 -38.625 42.8125 C-36.80548828 42.83280273 -36.80548828 42.83280273 -34.94921875 42.85351562 C-31.96595432 42.88875103 -28.98291941 42.94255433 -26 43 C-26 39.37 -26 35.74 -26 32 C-19.97276728 32.56505307 -14.99979992 33.50005002 -9 35 C-6.03 23.45 -3.06 11.9 0 0 Z M-9 36 C-9 38.31 -9 40.62 -9 43 C-1.08 43 6.84 43 15 43 C15 40.69 15 38.38 15 36 C14.21625 36.33 13.4325 36.66 12.625 37 C5.16217824 39.05870945 -1.67256813 38.17109093 -9 36 Z " fill="#7F391B" transform="translate(446,240)"/>
<path d="M0 0 C4.0900769 1.49135824 8.17939431 2.98477646 12.26806641 4.47998047 C13.65458594 4.98671078 15.04129965 5.49291019 16.42822266 5.99853516 C24.33389289 8.88110806 32.21474246 11.8023592 40 15 C36.73105887 32.89315145 31.46473089 50.35504907 26.44726562 67.81738281 C25.64760394 70.60342172 24.85699446 73.39178783 24.07421875 76.18261719 C19.88428225 91.1078213 15.69623277 105.45053905 8 119 C6.66630745 121.54655554 5.37080885 124.11215379 4.0703125 126.67578125 C3.41922665 127.94067107 2.76688365 129.20491458 2.11328125 130.46850586 C1.7879541 131.09755829 1.46262695 131.72661072 1.12744141 132.37472534 C0.79663574 133.01419098 0.46583008 133.65365662 0.125 134.3125 C-0.57161783 135.660887 -1.26823237 137.00927569 -1.96484375 138.35766602 C-7.25919649 148.59854538 -12.60177828 158.8134518 -18 169 C-18.66 169 -19.32 169 -20 169 C-20.25136719 169.84046875 -20.50273437 170.6809375 -20.76171875 171.546875 C-22.1161432 175.32388199 -23.87925725 178.74906822 -25.8125 182.25 C-28.21803588 186.62922618 -30.44656234 190.9749898 -32.4375 195.5625 C-34.98194632 200.75524759 -38.86323248 203.50972451 -44 206 C-50.72371385 208.06396489 -56.85396616 207.21187623 -63 204 C-67.95918192 200.73347299 -71.75881003 196.99243436 -73 191 C-73.91297285 182.16169839 -72.33552703 175.90970606 -68.25 168.125 C-67.75121338 167.13016602 -67.25242676 166.13533203 -66.73852539 165.11035156 C-62.98656817 157.69904909 -59.01725508 150.40173228 -54.98876953 143.13769531 C-50.01664921 134.14444995 -45.31541107 125.01719913 -40.625 115.875 C-40.24036591 115.1260144 -39.85573181 114.37702881 -39.45944214 113.60534668 C-38.33894175 111.42240974 -37.21983038 109.23876886 -36.1015625 107.0546875 C-35.77689499 106.42088165 -35.45222748 105.78707581 -35.11772156 105.13406372 C-34.45434218 103.83542914 -33.79454397 102.53496035 -33.13792419 101.2328949 C-32.28801474 99.56515772 -31.41961884 97.90681793 -30.54188538 96.2535553 C-26.91149644 89.28406927 -24.33623627 82.44663952 -22.23046875 74.88671875 C-21.90774994 73.76522934 -21.58503113 72.64373993 -21.25253296 71.48826599 C-20.21999638 67.89101322 -19.2037034 64.28939684 -18.1875 60.6875 C-17.47961771 58.21238909 -16.77054685 55.73761781 -16.06030273 53.26318359 C-14.66606281 48.39995553 -13.27765382 43.53513601 -11.89550781 38.66845703 C-9.66105418 30.80119593 -7.40370012 22.94070066 -5.12857056 15.08511353 C-4.57381099 13.16416618 -4.0245187 11.2416426 -3.4753418 9.3190918 C-2.9944812 7.64907104 -2.9944812 7.64907104 -2.50390625 5.9453125 C-2.23392822 5.00187988 -1.9639502 4.05844727 -1.68579102 3.08642578 C-1 1 -1 1 0 0 Z " fill="#52608B" transform="translate(270,273)"/>
<path d="M0 0 C39.37300213 -0.06865559 78.74599646 -0.12152344 118.11904648 -0.15319599 C122.76662028 -0.15694814 127.41419396 -0.16083111 132.06176758 -0.16479492 C132.98702198 -0.16558185 133.91227639 -0.16636878 134.86556881 -0.16717956 C149.8502665 -0.18023609 164.83492969 -0.2038913 179.81960691 -0.23145839 C195.19345726 -0.2595057 210.56728954 -0.27617483 225.94116443 -0.28226548 C235.42887593 -0.28638332 244.91648991 -0.29939267 254.4041714 -0.3237494 C260.90883367 -0.33959826 267.41344546 -0.34440228 273.91812564 -0.34050413 C277.67187866 -0.33858126 281.42546119 -0.3415442 285.17918396 -0.35761642 C289.24937419 -0.37491637 293.31920095 -0.36896642 297.38941956 -0.36076355 C298.57522364 -0.36950207 299.76102772 -0.3782406 300.98276526 -0.38724393 C307.06720173 -0.35401705 311.69597499 -0.11437245 317 3 C320.76209022 8.83212576 320.45637429 14.89147601 320.4675293 21.66748047 C320.48081772 22.82447449 320.49410614 23.98146851 320.50779724 25.17352295 C320.54640572 28.988148 320.56207472 32.80239175 320.57421875 36.6171875 C320.58521964 38.60363944 320.59622348 40.5900914 320.60762817 42.57654107 C320.64235571 48.81877928 320.65864018 55.06089841 320.66577148 61.30322266 C320.67364184 67.72423967 320.72289101 74.14406221 320.79083699 80.5646981 C320.84729334 86.09448256 320.87268867 91.62387111 320.87471896 97.15394127 C320.87655285 100.44951307 320.89483509 103.74354205 320.93753624 107.03887558 C320.98157745 110.71822581 320.9747933 114.39423792 320.95581055 118.07373047 C320.97985962 119.15246429 321.00390869 120.23119812 321.02868652 121.34262085 C320.93896737 127.26402614 320.14231631 130.46939872 316.12776184 134.93289185 C315.42869123 135.60258059 314.72962061 136.27226933 314.00936604 136.96225166 C311.87568756 138.95785844 311.87568756 138.95785844 310.42951488 141.69169426 C309 144 309 144 306 145 C303.03 145 300.06 145 297 145 C297 104.74 297 64.48 297 23 C281.59699219 23.11601562 266.19398438 23.23203125 250.32421875 23.3515625 C240.5032381 23.40272259 230.68235551 23.45128331 220.86132812 23.48828125 C205.30963712 23.54734269 189.75849254 23.61631275 174.20727539 23.75439453 C162.87528363 23.85496401 151.54374024 23.91879157 140.2113145 23.94088495 C134.22646353 23.95377291 128.24289375 23.9834301 122.25845909 24.05730057 C95.51156549 24.37466508 71.6910258 23.28227712 46.36867905 14.19257164 C41.53438767 12.48114745 36.62709037 11.06511795 31.69921875 9.65234375 C30.15358413 9.19052984 28.60854117 8.7267245 27.06445312 8.25976562 C26.34394775 8.04231689 25.62344238 7.82486816 24.88110352 7.60083008 C23.36666616 7.14287501 21.85235076 6.68451652 20.33813477 6.22583008 C18.04275316 5.53155822 15.74607741 4.8417104 13.44921875 4.15234375 C12.44637093 3.84622414 12.44637093 3.84622414 11.42326355 3.53392029 C7.63712921 2.40005834 3.91158621 1.56407326 0 1 C0 0.67 0 0.34 0 0 Z " fill="#4F2410" transform="translate(10,0)"/>
<path d="M0 0 C10.28244289 0.65537171 20.44128174 1.91110677 30.63964844 3.34594727 C38.81265309 4.48925407 46.74258796 5.30146794 55 5 C55.474375 6.03125 55.94875 7.0625 56.4375 8.125 C57.7977526 10.97303847 59.19724738 13.24449608 61.18823242 15.71240234 C69.66044019 26.66012745 69.16044191 37.08842785 68.875 50.5 C68.84122628 53.62551653 68.82040689 56.75040466 68.81497192 59.87609863 C68.80828318 61.80618704 68.78375241 63.73632424 68.73849487 65.66589355 C68.68342235 70.87447218 68.99325343 74.53063028 72 79 C75.70102135 81.46734757 78.42284146 81.48749414 82.76293945 81.82568359 C83.87028442 81.91197021 83.87028442 81.91197021 85 82 C82.63716176 90.29340524 79.80857436 98.40435917 76.921875 106.52734375 C76.42709188 107.92478867 75.93248706 109.32229673 75.43804932 110.71986389 C74.40403179 113.64100105 73.3684208 116.56156638 72.33154297 119.48168945 C71.02366798 123.16516248 69.71894593 126.84974222 68.4152298 130.53468895 C65.71740326 138.15947338 63.00749313 145.77985049 60.28588867 153.3961792 C59.47778459 155.66096493 58.67222788 157.92666287 57.87036133 160.19366455 C56.92634539 162.86235959 55.97276896 165.52739785 55.015625 168.19140625 C54.76037048 168.92052719 54.50511597 169.64964813 54.24212646 170.40086365 C51.66128624 177.50741073 48.20322507 182.62125289 42 187 C35.00147564 189.67216385 28.80365102 189.85496571 21.91796875 186.96484375 C16.33322645 184.15541127 12.91174017 180.45757191 10.69848633 174.68334961 C8.4377837 165.99849027 11.66762989 156.73158551 14.5625 148.5625 C14.9438208 147.45213379 15.3251416 146.34176758 15.71801758 145.19775391 C17.12593591 141.12479914 18.5610502 137.06206405 20 133 C20.63194755 131.21048863 21.263777 129.42093555 21.89550781 127.63134766 C24.99618599 118.85494379 28.1082746 110.08266581 31.24320984 101.31843567 C31.89580763 99.49154313 32.54632715 97.66390672 33.19465637 95.835495 C34.71678523 91.54832841 36.26614342 87.27693224 37.89306641 83.02832031 C38.18409744 82.25223419 38.47512848 81.47614807 38.77497864 80.67654419 C39.31628279 79.23580552 39.87050045 77.7998226 40.44023132 76.37008667 C41.56722726 73.33418668 42.1171898 71.45249296 41.29467773 68.27661133 C40.86743408 67.52532959 40.44019043 66.77404785 40 66 C39.63487305 65.35232666 39.26974609 64.70465332 38.89355469 64.03735352 C38.49040039 63.40756592 38.08724609 62.77777832 37.671875 62.12890625 C37.2087793 61.40082764 36.74568359 60.67274902 36.26855469 59.92260742 C35.76743164 59.14377197 35.26630859 58.36493652 34.75 57.5625 C34.22567383 56.73919189 33.70134766 55.91588379 33.16113281 55.06762695 C30.84699633 51.43622849 28.52137212 47.81224585 26.1953125 44.18847656 C19.79918921 34.22026939 13.45202692 24.2824104 7.6875 13.93359375 C5.64460075 10.38216473 3.39495828 7.01627076 1.03125 3.671875 C0 2 0 2 0 0 Z " fill="#404A81" transform="translate(317,291)"/>
<path d="M0 0 C10.38919896 6.69526155 12.78573476 18.27847276 16.5625 29.4375 C17.00180879 30.7250953 17.44159427 32.01252805 17.88183594 33.29980469 C18.77031286 35.89827706 19.65719264 38.49728551 20.54296875 41.09667969 C21.69759982 44.476196 22.86080707 47.85249475 24.03125 51.2265625 C24.37124023 52.20761963 24.71123047 53.18867676 25.06152344 54.19946289 C25.72324907 56.09215961 26.39304431 57.98205634 27.07128906 59.86889648 C28.86517751 64.88648687 30.41157504 69.83720098 31.55566406 75.04467773 C33.13396379 80.18551657 33.13396379 80.18551657 35.8125 84.8125 C39.031824 86.39289851 39.031824 86.39289851 42.875 86.97265625 C44.32001046 87.27347488 45.76465913 87.57603542 47.20898438 87.88012695 C47.96332764 88.02906403 48.7176709 88.1780011 49.49487305 88.33145142 C53.37645656 89.13711613 57.19836372 90.16331766 61.03125 91.171875 C62.57401304 91.56980878 64.11698239 91.96694359 65.66015625 92.36328125 C67.21094069 92.76300846 68.7617219 93.16274818 70.3125 93.5625 C71.92576808 93.97791572 73.53904928 94.39328053 75.15234375 94.80859375 C79.03921305 95.80931224 82.92590718 96.81070825 86.8125 97.8125 C88.35342115 101.77567632 87.24645034 105.21699461 86.23046875 109.16796875 C85.96910881 110.22133171 85.96910881 110.22133171 85.70246887 111.29597473 C85.33284329 112.77553679 84.95852564 114.25393356 84.57983398 115.73120117 C84.00017387 117.99931966 83.43956047 120.27156097 82.88085938 122.54492188 C82.51935693 123.98205498 82.15676429 125.4189144 81.79296875 126.85546875 C81.62516403 127.53772018 81.45735931 128.21997162 81.2844696 128.92289734 C80.8560445 130.57021759 80.34170648 132.1947384 79.8125 133.8125 C77.08324804 135.17712598 76.01841638 134.44479737 73.125 133.5625 C68.79104265 132.31543872 64.4955099 131.32716498 60.0625 130.5 C52.10492906 128.97096261 44.31257978 126.91151143 36.49316406 124.79370117 C35.06568848 124.41048706 35.06568848 124.41048706 33.609375 124.01953125 C32.33078613 123.67112183 32.33078613 123.67112183 31.02636719 123.31567383 C28.70332272 122.7016848 28.70332272 122.7016848 25.8125 122.8125 C25.8125 122.1525 25.8125 121.4925 25.8125 120.8125 C25.17183594 120.71453125 24.53117187 120.6165625 23.87109375 120.515625 C11.76020728 118.42193971 11.76020728 118.42193971 7.57624817 113.29872131 C3.5771221 107.10055603 1.34185266 100.46092908 -0.98828125 93.49609375 C-1.43189044 92.19468331 -1.87642476 90.89358789 -2.32182312 89.5927887 C-3.48990395 86.17368307 -4.64598077 82.75064115 -5.79931641 79.32653809 C-7.17394994 75.25268948 -8.56271952 71.18364348 -9.94972038 67.11399269 C-11.08026065 63.79514953 -12.20695144 60.47510964 -13.32473755 57.15194702 C-15.35663298 51.12036363 -17.42484676 45.10939619 -19.63818359 39.14111328 C-20.01420212 38.11333267 -20.39022064 37.08555206 -20.77763367 36.02662659 C-21.46453331 34.16000644 -22.16616259 32.29869445 -22.88703918 30.44493103 C-25.27070133 23.92203224 -25.93733857 17.74131352 -25.1875 10.8125 C-22.64911885 5.54770947 -18.98283617 2.32349252 -13.875 -0.4375 C-8.87326132 -1.83333405 -4.79817839 -1.78755665 0 0 Z " fill="#252D5C" transform="translate(358.1875,141.1875)"/>
<path d="M0 0 C1 2 1 2 0.55079651 3.72109985 C0.28210251 4.40948944 0.01340851 5.09787903 -0.26342773 5.80712891 C-0.56381454 6.58778717 -0.86420135 7.36844543 -1.1736908 8.17276001 C-1.50695877 9.01551483 -1.84022675 9.85826965 -2.18359375 10.7265625 C-2.68512718 12.02078629 -2.68512718 12.02078629 -3.1967926 13.34115601 C-4.26985158 16.10529241 -5.35353682 18.86512383 -6.4375 21.625 C-7.16541547 23.49451852 -7.89263818 25.36430692 -8.61914062 27.234375 C-10.40472704 31.82609084 -12.19985648 36.41397267 -14 41 C-15.92577357 41.14853708 -17.8515569 41.29694766 -19.77734375 41.4453125 C-20.9669873 41.53844727 -22.15663086 41.63158203 -23.38232422 41.72753906 C-25.59909058 41.89449218 -27.81678474 42.05018687 -30.03564453 42.18652344 C-42.20532972 42.95979899 -51.31427926 43.78529947 -59.64453125 53.2265625 C-60.42183594 54.14179688 -61.19914062 55.05703125 -62 56 C-63.34863682 57.23768864 -64.72126819 58.45016748 -66.125 59.625 C-69.11397458 62.21709829 -72.06321535 64.84886006 -75 67.5 C-78.61676345 70.76390848 -82.26389608 73.98790949 -85.9375 77.1875 C-88.30964429 79.27211164 -90.65556065 81.38428644 -93 83.5 C-97.29914088 87.37445371 -101.61239917 91.22588672 -106 95 C-106.98613281 95.85335937 -107.97226563 96.70671875 -108.98828125 97.5859375 C-110.05410158 98.49547871 -111.12050727 99.40433443 -112.1875 100.3125 C-113.17105469 101.15425781 -114.15460938 101.99601562 -115.16796875 102.86328125 C-120.07514748 106.56566299 -124.30589058 107.57710693 -130.3671875 107.44140625 C-135.79082699 106.53210171 -139.78242014 103.40287629 -143.44921875 99.4296875 C-146.8596446 94.47559521 -146.83723825 88.79232175 -146 83 C-144.18705104 77.56115313 -140.38250372 74.48811521 -136 71 C-134.79069118 69.53609985 -133.58207932 68.07145134 -132.39453125 66.58984375 C-130.22422104 64.11556853 -127.73849574 62.0509201 -125.23828125 59.91796875 C-122.78794587 57.81829218 -120.39282427 55.66493624 -118 53.5 C-114.38323655 50.23609152 -110.73610392 47.01209051 -107.0625 43.8125 C-104.69035571 41.72788836 -102.34443935 39.61571356 -100 37.5 C-96.38248603 34.23541422 -92.73616951 31.00910509 -89.05859375 27.8125 C-86.70047469 25.73628132 -84.3837256 23.61735832 -82.0625 21.5 C-80.37982773 19.99458634 -78.69244367 18.49441984 -77 17 C-75.86884766 15.99839844 -75.86884766 15.99839844 -74.71484375 14.9765625 C-73.61849609 14.06003906 -73.61849609 14.06003906 -72.5 13.125 C-71.55640625 12.32449219 -71.55640625 12.32449219 -70.59375 11.5078125 C-61.5863264 6.27156926 -50.63902975 5.86290101 -40.49755859 4.69238281 C-37.76930386 4.37722988 -35.04285 4.04916843 -32.31640625 3.71875 C-23.42562251 2.65598969 -14.56872672 1.72913515 -5.62597656 1.23291016 C-2.89184794 1.09238102 -2.89184794 1.09238102 0 0 Z " fill="#252D5C" transform="translate(319,143)"/>
<path d="M0 0 C8.33924175 8.40595569 12.45536796 18.30962823 12.5625 30.0625 C12.36067864 41.6407992 9.08729075 50.54510512 1 59 C-7.57511225 67.04912953 -17.7432134 71.43810894 -29.6015625 71.2109375 C-43.32378153 70.00409739 -52.03698777 64.80701371 -61.0625 54.6875 C-67.4880344 45.77466197 -70.03554514 35.94719153 -69 25 C-67.13938025 14.08644888 -61.92432145 3.79710889 -53 -3 C-35.57831257 -13.94860763 -16.11074928 -13.02571218 0 0 Z " fill="#FFB69E" transform="translate(432,57)"/>
<path d="M0 0 C4.85644211 0.72468368 7.32064359 1.87363223 10.47900391 5.68713379 C21.09698845 20.49453925 21.82072388 34.51084763 21.41691589 52.16351891 C21.34550258 55.87804147 21.34791843 59.59263873 21.34082031 63.30773926 C21.31889905 69.5313446 21.24951728 75.75283301 21.14550781 81.97558594 C20.99962064 90.71306399 20.94709579 99.44937842 20.90988541 108.18789196 C20.88014402 114.29617602 20.8269336 120.40429226 20.77014923 126.51237679 C20.75675921 127.97860606 20.74413524 129.44484254 20.73229218 130.91108513 C20.69284176 135.73227953 20.62626075 140.55234042 20.546875 145.37304688 C20.53241837 147.16100174 20.53241837 147.16100174 20.51766968 148.9850769 C20.11362643 168.94552362 20.11362643 168.94552362 15.12213516 173.84219074 C11.82604517 175.64049444 8.49272535 175.39174073 4.83496094 175.34057617 C3.60513489 175.34123329 3.60513489 175.34123329 2.35046387 175.34190369 C-0.35514269 175.33981637 -3.0601269 175.3164882 -5.765625 175.29296875 C-7.64320538 175.28737259 -9.52079014 175.28310259 -11.39837646 175.28010559 C-16.33699668 175.26865841 -21.27535167 175.23919225 -26.21386719 175.20599365 C-31.25452079 175.17529009 -36.29521731 175.16159964 -41.3359375 175.14648438 C-51.22407478 175.11432248 -61.11201532 175.06312759 -71 175 C-67.33333333 167.66666667 -63.66666667 160.33333333 -60 153 C-41.19 153 -22.38 153 -3 153 C-3.01571045 148.68494385 -3.0314209 144.3698877 -3.04760742 139.92407227 C-3.09732946 125.66290529 -3.13061242 111.4017349 -3.15543652 97.14050388 C-3.17088739 88.49442175 -3.19194279 79.84842189 -3.22631836 71.20239258 C-3.25627531 63.66410847 -3.27558793 56.12588398 -3.28226548 48.587542 C-3.2861671 44.59821404 -3.29529911 40.60905657 -3.31719017 36.6197834 C-3.33765497 32.85971819 -3.34381377 29.09989261 -3.33932304 25.33977699 C-3.34053315 23.31255654 -3.35662272 21.28536177 -3.3732605 19.25820923 C-3.34936716 12.16661535 -2.69512503 6.57958254 0 0 Z " fill="#4E2410" transform="translate(310,289)"/>
<path d="M0 0 C2.75 1.3125 2.75 1.3125 5 3 C5.53274536 3.37484528 6.06549072 3.74969055 6.61437988 4.13589478 C8.757298 7.01880966 8.43398473 10.05785241 8.41992188 13.51318359 C8.42839142 14.27612228 8.43686096 15.03906097 8.44558716 15.82511902 C8.46900498 18.34972766 8.46997811 20.87372841 8.46875 23.3984375 C8.47584952 25.15337367 8.48354821 26.9083075 8.49182129 28.66323853 C8.50527765 32.3435918 8.50683008 36.02373055 8.50097656 39.70410156 C8.49508412 44.41775021 8.5256471 49.13036754 8.56609344 53.84381676 C8.59196156 57.4692844 8.5948486 61.0945036 8.59120178 64.72005081 C8.59289437 66.45758274 8.60255027 68.19512598 8.62034607 69.9325676 C8.64251592 72.3650858 8.63284564 74.79551547 8.61523438 77.22802734 C8.63512924 78.30205559 8.63512924 78.30205559 8.65542603 79.39778137 C8.58915084 83.3431202 8.11320682 84.86634166 5.52404785 87.92324829 C4.69111206 88.60857635 3.85817627 89.29390442 3 90 C2.67 90.33 2.34 90.66 2 91 C-2.49100115 91.56601461 -5.96879061 91.59239688 -9.9375 89.3125 C-13.90533356 84.86371691 -14.2530925 80.77020785 -14.2746582 74.93408203 C-14.27976913 74.24233887 -14.28488007 73.5505957 -14.29014587 72.83789062 C-14.30399579 70.56110881 -14.30308844 68.28463133 -14.30078125 66.0078125 C-14.30467108 64.41746916 -14.30900634 62.82712686 -14.31376648 61.23678589 C-14.32121906 57.90635814 -14.32094468 54.57603641 -14.31567383 51.24560547 C-14.30988434 46.98982155 -14.32680202 42.73447357 -14.3500185 38.47876167 C-14.364793 35.19466641 -14.36562244 31.91067519 -14.36250877 28.62655258 C-14.36302025 27.05815646 -14.36822521 25.48975425 -14.37832069 23.92139053 C-14.3907387 21.722213 -14.38386201 19.52387244 -14.37231445 17.32470703 C-14.37294388 16.07626007 -14.3735733 14.82781311 -14.3742218 13.54153442 C-13.86623784 8.7341109 -12.55644961 4.72321207 -9.25 1.0625 C-5.98872559 -0.47754625 -3.56385197 -0.37514231 0 0 Z " fill="#7F381A" transform="translate(152,232)"/>
<path d="M0 0 C13.85620915 2.77124183 13.85620915 2.77124183 19.3125 8.375 C22.60043918 13.48957206 24.10436424 18.93168926 23 25 C20.58002363 30.61891509 16.91619886 34.47316169 12 38 C9.17504653 38.94165116 7.25280965 39.19460955 4.3125 39.25 C3.10013672 39.28867187 3.10013672 39.28867187 1.86328125 39.328125 C-1 39 -1 39 -9 36 C-6.03 24.12 -3.06 12.24 0 0 Z " fill="#FBB6A0" transform="translate(446,240)"/>
<path d="M0 0 C2.98904212 1.32127239 4.85091724 2.66709834 6.953125 5.16015625 C7.48655518 5.785271 8.01998535 6.41038574 8.56958008 7.05444336 C9.12411865 7.71710205 9.67865723 8.37976074 10.25 9.0625 C11.40450831 10.41964493 12.55945564 11.7764165 13.71484375 13.1328125 C14.27413574 13.79313477 14.83342773 14.45345703 15.40966797 15.13378906 C18.54350677 18.81126278 21.77391588 22.40354973 25 26 C23.59127675 29.36487781 22.00344528 31.05709457 19.0625 33.1875 C18.37285156 33.69667969 17.68320313 34.20585937 16.97265625 34.73046875 C12.35858285 37.69992193 7.29555639 37.79586397 2 37 C-3.23670486 34.7231718 -7.89356169 31.28112294 -10.41015625 26.05078125 C-12.00506512 20.50556831 -12.10500402 14.39548403 -9.4375 9.1875 C-6.94349026 5.45999086 -3.53290006 2.70921831 0 0 Z " fill="#FBB59F" transform="translate(184,213)"/>
<path d="M0 0 C6.38058252 1.32427184 6.38058252 1.32427184 8.71875 3.875 C10.67205663 8.63916252 10.31453942 13.22115078 10.1875 18.3125 C10.16719727 19.85260742 10.16719727 19.85260742 10.14648438 21.42382812 C10.11124321 23.94944489 10.05743947 26.47479056 10 29 C4.39 29 -1.22 29 -7 29 C-7.6032535 21.03705377 -7.6032535 21.03705377 -5.95703125 18.20703125 C-4.68796792 16.75933144 -3.34520633 15.37723505 -2 14 C-0.011773 10.83630096 0.22250626 8.45523777 0.125 4.75 C0.10695313 3.85796875 0.08890625 2.9659375 0.0703125 2.046875 C0.04710937 1.37140625 0.02390625 0.6959375 0 0 Z " fill="#592510" transform="translate(468,255)"/>
<path d="M0 0 C5.75390625 0.86425781 5.75390625 0.86425781 7.96875 2.0859375 C9.69195845 5.28431681 8.40716993 8.30355146 7.5 11.625 C7.31147461 12.36613037 7.12294922 13.10726074 6.92871094 13.87084961 C4.83190625 21.9725279 2.44388731 29.99727064 0 38 C-6.15234375 37.4140625 -6.15234375 37.4140625 -8 37 C-9.63309363 33.73381275 -8.0329484 30.52814592 -7.12890625 27.1484375 C-6.9277269 26.37440582 -6.72654755 25.60037415 -6.51927185 24.80288696 C-5.87364321 22.32513649 -5.21819618 19.85010322 -4.5625 17.375 C-4.12370105 15.69808607 -3.68554171 14.02100463 -3.24804688 12.34375 C-2.17278345 8.22718452 -1.08870605 4.11302981 0 0 Z " fill="#FAF9FA" transform="translate(446,240)"/>
<path d="M0 0 C5.94 0 11.88 0 18 0 C16 6 16 6 14.8828125 7.984375 C13.65158418 10.79549806 13.80868324 13.19942882 13.875 16.25 C13.91625 18.1475 13.9575 20.045 14 22 C9.38 22 4.76 22 0 22 C0 14.74 0 7.48 0 0 Z " fill="#4F2410" transform="translate(184,442)"/>
<path d="M0 0 C2.98904212 1.32127239 4.85091724 2.66709834 6.953125 5.16015625 C7.75327026 6.09782837 7.75327026 6.09782837 8.56958008 7.05444336 C9.12411865 7.71710205 9.67865723 8.37976074 10.25 9.0625 C11.40450831 10.41964493 12.55945564 11.7764165 13.71484375 13.1328125 C14.27413574 13.79313477 14.83342773 14.45345703 15.40966797 15.13378906 C18.54350677 18.81126278 21.77391588 22.40354973 25 26 C23.95125002 28.62187494 23.35068687 29.79371361 20.875 31.25 C20.25625 31.4975 19.6375 31.745 19 32 C14.77054019 27.8862397 10.74650692 23.66661857 6.91015625 19.18359375 C5.49254805 17.56305595 4.03549173 15.97684962 2.55859375 14.41015625 C1.73488281 13.53230469 0.91117188 12.65445313 0.0625 11.75 C-0.70964844 10.94046875 -1.48179687 10.1309375 -2.27734375 9.296875 C-4 7 -4 7 -4 3 C-2 1.25 -2 1.25 0 0 Z " fill="#F9F8F8" transform="translate(184,213)"/>
<path d="M0 0 C6.26518562 0.48946763 11.20398736 1.57621289 17 4 C17 6.64 17 9.28 17 12 C11.39 12 5.78 12 0 12 C0 8.04 0 4.08 0 0 Z " fill="#582510" transform="translate(420,272)"/>
</svg>
