<?xml version="1.0" encoding="UTF-8"?>
<svg version="1.1" xmlns="http://www.w3.org/2000/svg" width="512" height="512">
<path d="M0 0 C97.02 0 194.04 0 294 0 C294 10.16071175 293.96372006 20.1072316 293.33010864 30.21192932 C293.25801583 31.42798054 293.18592302 32.64403176 293.11164558 33.89693302 C292.91395785 37.21414639 292.71178587 40.53102656 292.50754428 43.84783876 C292.28702349 47.44752035 292.07247789 51.04755921 291.8571167 54.64755249 C291.43565997 61.67672206 291.0087213 68.70554801 290.57973947 75.73426194 C290.23086921 81.45204928 289.88402936 87.16995652 289.53860092 92.8879528 C289.48922187 93.7053122 289.43984281 94.52267159 289.38896742 95.36479945 C289.28862833 97.0258304 289.18829381 98.68686162 289.0879638 100.34789311 C288.14951249 115.8806809 287.20479778 131.41308282 286.25789891 146.94535761 C285.44746794 160.24151679 284.64242205 173.53799309 283.84130859 186.8347168 C282.90846764 202.31778618 281.97226278 217.80064621 281.03077018 233.2831921 C280.93018606 234.93741546 280.82960618 236.59163908 280.72903061 238.24586296 C280.65482177 239.46637481 280.65482177 239.46637481 280.57911376 240.71154346 C280.23251392 246.41582888 279.88827999 252.12025418 279.54498672 257.82473946 C279.12598929 264.78611755 278.7032748 271.74725846 278.27594651 278.70813031 C278.05846197 282.25227358 277.84254668 285.79649217 277.63116837 289.34100533 C274.86247787 335.6975439 274.86247787 335.6975439 264.03027016 345.41827017 C257.91529673 350.18228437 251.53036166 351.59369176 243.93666077 351.5146637 C243.0703135 351.52160922 242.20396623 351.52855475 241.31136602 351.53571075 C238.43265079 351.55388463 235.55476867 351.54374342 232.67602539 351.53344727 C230.60227343 351.54051059 228.52852663 351.54925734 226.45478821 351.55955505 C220.83904149 351.58201203 215.2235771 351.57911788 209.60780263 351.57023358 C204.9134892 351.56511508 200.21922841 351.57242326 195.5249204 351.57970566 C184.44796306 351.59669291 173.37114352 351.59315052 162.29418945 351.57641602 C150.87935108 351.5594937 139.4648951 351.57533366 128.05009848 351.6076389 C118.23664974 351.63435652 108.42331988 351.64160496 98.60983843 351.63312382 C92.75438889 351.62820126 86.8991694 351.63037421 81.04374886 351.65091133 C75.53682062 351.6693025 70.03044137 351.66326729 64.5235424 351.63871193 C62.50720364 351.6337151 60.4908228 351.63716436 58.47451782 351.64986038 C46.73680966 351.71789979 37.92979445 351.54802274 28.4140625 343.9296875 C27.52847656 342.91261719 27.52847656 342.91261719 26.625 341.875 C26.01914063 341.21242188 25.41328125 340.54984375 24.7890625 339.8671875 C19.64686726 331.62620212 18.33754207 322.99382869 17.86346436 313.45466614 C17.79038323 312.25694859 17.7173021 311.05923105 17.6420064 309.82521904 C17.44654419 306.57351616 17.26562237 303.32140535 17.09107691 300.0685259 C16.90133243 296.60299034 16.69208139 293.13863195 16.48456955 289.67412281 C16.14230379 283.92710107 15.80990708 278.17959173 15.4841156 272.43161392 C15.04086918 264.62929115 14.56516401 256.82920631 14.07580566 249.02963257 C14.00072761 247.83200993 13.92564955 246.63438729 13.8482964 245.40047306 C13.69728764 242.99264664 13.54622366 240.58482368 13.39510393 238.17700422 C13.01139853 232.03586293 12.63548904 225.89424701 12.25982666 219.75260925 C12.18412091 218.51522399 12.10841516 217.27783872 12.0304153 216.00295693 C11.79618118 212.17255258 11.56214051 208.34213645 11.328125 204.51171875 C11.20598561 202.5137695 11.08384614 200.51582025 10.9616967 198.51787161 C10.24146174 186.73673244 9.52189785 174.95555244 8.80420303 163.17425823 C8.63265926 160.35844061 8.46111017 157.54262331 8.28955078 154.72680664 C8.24695357 154.02764516 8.20435635 153.32848369 8.16046831 152.6081355 C7.46255112 141.15496458 6.76028954 129.70206405 6.05637684 118.24926021 C5.32465344 106.34276952 4.59684628 94.43604439 3.87281299 82.52908355 C3.46968755 75.90114742 3.06480329 69.27332698 2.6556778 62.64575768 C2.27354394 56.45404041 1.89634995 50.2620413 1.52284813 44.06979752 C1.38596832 41.81435757 1.24735752 39.55902184 1.10679817 37.30380821 C0.91388679 34.20420931 0.72748919 31.1042791 0.5425415 28.00419617 C0.48690576 27.13494167 0.43127001 26.26568716 0.37394834 25.37009162 C-0.11995138 16.87775439 0 8.56109363 0 0 Z M46 46 C46.72996834 64.54032606 47.46045286 83.08063171 48.19147205 101.62091637 C48.53127268 110.23929355 48.87093074 118.8576763 49.21020508 127.47607422 C49.9353323 145.89432661 50.66241611 164.31249945 51.39402962 182.73049545 C51.46095153 184.41534159 51.52787085 186.10018784 51.5947876 187.78503418 C51.62799398 188.6211112 51.66120036 189.45718821 51.69541299 190.31860089 C51.9369651 196.40380646 52.17717297 202.48906434 52.41693115 208.57434082 C52.72337757 216.35132875 53.03177594 224.12823662 53.34244436 231.90505707 C53.50456387 235.96459187 53.66584403 240.02415542 53.82486916 244.08381271 C53.97239967 247.84925356 54.12241414 251.61458749 54.27428651 255.37985563 C54.35482418 257.39190237 54.43280684 259.40405089 54.51067924 261.41620255 C54.81808386 268.9654846 55.30192416 276.47658068 56 284 C58.97 284 61.94 284 65 284 C64.35114391 257.56746835 63.38992167 231.15282402 62.31610489 204.73444486 C62.14130956 200.42855599 61.96784619 196.12261379 61.7943182 191.8166737 C61.38553148 181.67481398 60.97429477 171.53305569 60.56152344 161.39135742 C60.13676105 150.95374229 59.71670645 140.51594464 59.29877377 130.07805401 C58.93725803 121.05385404 58.57268497 112.02978104 58.2056818 103.00580257 C57.98754889 97.64123858 57.7706156 92.2766329 57.55673218 86.91189766 C57.35668725 81.89713755 57.15283859 76.88254649 56.94602585 71.86806107 C56.87087552 70.03025925 56.79708534 68.19240125 56.72475052 66.35448647 C56.6259213 63.84879316 56.52220058 61.34334859 56.41723633 58.83790588 C56.3897037 58.11050959 56.36217108 57.38311329 56.33380413 56.63367468 C56.17599293 52.99630948 55.83611512 49.54636046 55 46 C52.03 46 49.06 46 46 46 Z M94 46 C94.50261567 71.56816155 95.00680695 97.13629164 95.51279354 122.70438671 C95.74778037 134.58033542 95.98228207 146.4562933 96.21557617 158.33227539 C96.41929358 168.70257107 96.6239879 179.07284697 96.82977968 189.4431017 C96.93836582 194.91659043 97.04651436 200.39008688 97.15348625 205.86360741 C97.66292345 231.91244811 98.24710777 257.95697717 99 284 C101.97 284 104.94 284 108 284 C108.14076695 257.86831476 107.76079377 231.75963326 107.2252152 205.6339097 C107.13685326 201.30321193 107.05071706 196.97247092 106.96453851 192.64172924 C106.76151098 182.44093746 106.55493808 172.240222 106.34594727 162.03955078 C106.13089128 151.53998194 105.92177918 141.04030616 105.71548563 130.5405618 C105.53699159 121.46547629 105.35502582 112.39046504 105.17022032 103.31550586 C105.06036195 97.91959332 104.95178219 92.52366306 104.84651375 87.12765884 C104.74793166 82.08260324 104.64501265 77.03765462 104.53871346 71.99275589 C104.50047513 70.14364243 104.46377073 68.29449652 104.42870712 66.44532013 C104.38066031 63.9243067 104.32708928 61.40346927 104.27210999 58.88259888 C104.25945903 58.15062951 104.24680808 57.41866015 104.23377377 56.66450989 C104.14772668 53.00055816 103.85824521 49.56689931 103 46 C100.03 46 97.06 46 94 46 Z M142 46 C142 124.54 142 203.08 142 284 C145.3 284 148.6 284 152 284 C152 205.46 152 126.92 152 46 C148.7 46 145.4 46 142 46 Z M191 46 C189.96773356 50.2901381 189.8037607 54.49280924 189.72789001 58.88259888 C189.71070138 59.67071957 189.69351275 60.45884025 189.67580324 61.27084339 C189.6193566 63.90982145 189.56932917 66.54888158 189.51928711 69.18798828 C189.48010668 71.08265958 189.4405411 72.97732294 189.40061951 74.87197876 C189.29320004 80.02668235 189.19145338 85.18148383 189.09088969 90.33632517 C188.98426672 95.76259364 188.87308926 101.18876909 188.7625885 106.61495972 C188.577088 115.75968408 188.39524927 124.90447581 188.21557617 134.04931641 C188.00959865 144.53081566 187.79802893 155.01219011 187.58328813 165.49351323 C187.3754793 175.64292735 187.17175766 185.79241985 186.96978951 195.94195175 C186.88454601 200.22248871 186.7979686 204.50299532 186.71021843 208.7834816 C186.19779118 233.85913905 185.86489195 258.91882134 186 284 C188.97 284 191.94 284 195 284 C195.2767575 272.64597255 195.54645447 261.29178308 195.8125 249.9375 C195.83368645 249.03343792 195.85487289 248.12937584 195.87670135 247.19791794 C196.89857131 203.48828374 197.76252054 159.77550511 198.625 116.0625 C198.64207268 115.19737714 198.65914536 114.33225429 198.6767354 113.44091558 C199.12031974 90.9606592 199.56143122 68.48035479 200 46 C197.03 46 194.06 46 191 46 Z M239 46 C237.87377604 50.63823763 237.71913043 55.20834184 237.53807068 59.95523071 C237.50046428 60.85829024 237.46285789 61.76134976 237.4241119 62.69177473 C237.2990546 65.71836535 237.17968955 68.74515344 237.06030273 71.77197266 C236.97182186 73.94204048 236.88299705 76.1120943 236.79385376 78.28213501 C236.55265789 84.17893969 236.31645109 90.07593475 236.08124423 95.97298098 C235.83426167 102.14724308 235.58312015 108.32133614 235.33253479 114.49545288 C234.91207285 124.8707205 234.49472794 135.24610987 234.0793457 145.62158203 C233.59963391 157.60322909 233.11559489 169.58469327 232.62908405 181.56606638 C232.16081562 193.09950408 231.69509032 204.63304298 231.23069954 216.16663742 C231.03326207 221.06988836 230.83503927 225.97310661 230.63619804 230.87630081 C230.40182387 236.65950567 230.16971439 242.44279725 229.93931961 248.22616196 C229.85462001 250.34370197 229.76917774 252.46121244 229.68292046 254.57868958 C229.08196315 269.28410328 229.08196315 269.28410328 229 284 C231.97 284 234.94 284 238 284 C239.11676799 272.79771631 239.49293918 261.56656882 239.93969727 250.32226562 C240.02829588 248.13981252 240.11711826 245.95736849 240.20614624 243.77493286 C240.44600853 237.87896102 240.68269803 231.98286572 240.91875577 226.08674049 C241.16657744 219.90927807 241.41719356 213.73192899 241.66746521 207.55456543 C242.08690863 197.19171897 242.5044356 186.82879677 242.9206543 176.46582031 C243.45516268 163.15791355 243.99280759 149.85013657 244.53144932 136.54239655 C244.99466973 125.09750816 245.45649944 113.65256372 245.918082 102.20760918 C246.06652615 98.52827821 246.21515364 94.84895468 246.36380196 91.16963196 C246.59689753 85.39779694 246.82912793 79.62592773 247.06068039 73.85403061 C247.14586801 71.73356397 247.23132895 69.61310829 247.31707954 67.49266434 C247.43382203 64.60455482 247.54957141 61.71640719 247.66505432 58.82824707 C247.69939074 57.98429335 247.73372715 57.14033963 247.76910406 56.27081156 C247.90523571 52.84302114 248 49.43114821 248 46 C245.03 46 242.06 46 239 46 Z " fill="#DB4336" transform="translate(109,130)"/>
<path d="M0 0 C1.89807488 -0.00573832 1.89807488 -0.00573832 3.83449471 -0.01159257 C7.34001285 -0.02187276 10.84542872 -0.01969071 14.35095525 -0.01541197 C18.13428045 -0.01294478 21.91758103 -0.02195885 25.70089722 -0.02944946 C33.11030596 -0.04219879 40.51967846 -0.04398985 47.92909633 -0.0416492 C53.95196315 -0.0398661 59.97481897 -0.04161552 65.99768448 -0.04587364 C66.85492374 -0.04646883 67.712163 -0.04706402 68.59537921 -0.04767724 C70.33687416 -0.048889 72.07836911 -0.05010313 73.81986405 -0.05131962 C90.15181727 -0.06219612 106.48374985 -0.06003218 122.81570424 -0.05393478 C137.75408695 -0.04876586 152.69240444 -0.0600202 167.63077424 -0.07903299 C182.97205735 -0.0984088 198.31330961 -0.10666782 213.65460503 -0.10290974 C222.26653255 -0.10099726 230.87840457 -0.10348978 239.49032211 -0.11762428 C246.82198106 -0.12953579 254.15355035 -0.13094558 261.48521052 -0.11883412 C265.22494369 -0.11294372 268.96451282 -0.11185033 272.70423508 -0.12383652 C276.76063578 -0.13668645 280.81664581 -0.12623469 284.87304688 -0.11352539 C286.0518454 -0.12089968 287.23064392 -0.12827396 288.44516361 -0.13587171 C296.38734275 -0.08346198 301.97700958 0.94002156 308.75100708 5.32319641 C320.8645588 17.97512821 316.56350708 29.10310296 316.56350708 47.26069641 C201.72350708 47.26069641 86.88350708 47.26069641 -31.43649292 47.26069641 C-31.43649292 18.26069641 -31.43649292 18.26069641 -26.43649292 8.26069641 C-18.00265295 0.76394977 -11.02328923 -0.03520831 0 0 Z " fill="#1765C0" transform="translate(113.43649291992188,73.73930358886719)"/>
<path d="M0 0 C0.6704837 -0.00832352 1.34096741 -0.01664703 2.0317688 -0.02522278 C4.24422045 -0.04927907 6.45637681 -0.05809058 8.66894531 -0.06469727 C10.2134815 -0.07366896 11.75801682 -0.0827909 13.30255127 -0.09205627 C16.54058948 -0.10853836 19.77852441 -0.11624459 23.01660156 -0.11914062 C27.15037642 -0.12451496 31.28316967 -0.16215764 35.41666794 -0.20788479 C38.60816925 -0.2377465 41.79943715 -0.24486619 44.99106598 -0.24586678 C46.51401501 -0.25005328 48.03696576 -0.26242425 49.55977631 -0.28338432 C58.99469769 -0.40287996 65.73448324 0.01640515 72.75067139 6.74928284 C80.23068673 14.90134771 78.24707031 23.26374764 78.24707031 34.30639648 C45.24707031 34.30639648 12.24707031 34.30639648 -21.75292969 34.30639648 C-21.75292969 12.57553802 -21.75292969 12.57553802 -16.06933594 6.50952148 C-10.89509654 1.83601493 -7.07311641 0.06216825 0 0 Z " fill="#1764C1" transform="translate(227.7529296875,30.693603515625)"/>
</svg>
