<?xml version="1.0" encoding="UTF-8"?>
<svg version="1.1" xmlns="http://www.w3.org/2000/svg" width="512" height="512">
<path d="M0 0 C7.88077344 5.91058008 11.74299425 13.9201259 13.84375 23.3828125 C16.70891429 55.82832811 2.42816186 87.2397887 -17.15625 112.3828125 C-17.81367188 113.26195312 -18.47109375 114.14109375 -19.1484375 115.046875 C-30.77645183 130.02303353 -46.22024748 146.78888946 -63.328125 155.48706055 C-66.44423607 157.10354316 -68.62308856 158.28538644 -70.18994141 161.51049805 C-70.94719876 164.18833947 -71.45790402 166.82381606 -71.90625 169.5703125 C-72.09469482 170.56393799 -72.28313965 171.55756348 -72.47729492 172.58129883 C-73.08002262 175.84250879 -73.62403595 179.10938968 -74.15625 182.3828125 C-74.35234863 183.55585938 -74.54844727 184.72890625 -74.75048828 185.9375 C-77.17611861 199.09134559 -77.17611861 199.09134559 -78.15625 212.3828125 C-77.30804688 211.64417969 -76.45984375 210.90554687 -75.5859375 210.14453125 C-69.03038421 204.4643738 -62.4030218 198.92352813 -55.55249023 193.60253906 C-51.01263497 190.07245042 -46.5453745 186.46086068 -42.09375 182.8203125 C-36.29496383 178.0846025 -30.42082011 173.47326227 -24.46484375 168.9375 C-19.99665493 165.51384054 -15.62851061 161.9625519 -11.26733398 158.40405273 C-2.80557356 151.55952574 -2.80557356 151.55952574 2.34375 151.0078125 C6.07320665 151.40739714 7.89817338 152.11051054 10.84375 154.3828125 C12.92742206 157.50832059 13.02135258 158.22240537 13.09375 161.7578125 C13.46545531 165.49314616 13.81035999 166.34086095 16.28125 169.4453125 C20.50061619 172.35243562 24.93771214 172.16569088 29.84375 171.3828125 C42.39666326 167.88623978 53.39841789 157.71614894 59.84423828 146.66796875 C62.92782472 141.0056925 65.53838307 135.13761158 68.03125 129.1953125 C70.45796409 123.75542841 70.45796409 123.75542841 73.84375 122.3828125 C78.61563164 121.6024484 81.75995394 121.6602818 85.84375 124.3828125 C89.43720125 129.77298937 88.96607021 134.6962536 88.36328125 140.87890625 C87.8107317 147.22308309 87.66020391 153.51702391 87.65625 159.8828125 C87.64400391 160.92050781 87.63175781 161.95820313 87.61914062 163.02734375 C87.43914449 175.78693481 87.43914449 175.78693481 91.84375 187.3828125 C95.98416431 183.63123709 98.4745533 179.95395409 100.90625 174.9453125 C101.25059082 174.24374023 101.59493164 173.54216797 101.94970703 172.81933594 C106.0743409 164.14803082 108.4929897 155.32558445 109.78125 145.8203125 C110.37249464 141.9643692 110.78156187 140.47091235 113.09375 137.1953125 C116.27664598 135.0974947 118.0260945 134.3828125 121.84375 134.3828125 C125.69671867 135.26155974 127.79090594 135.92627057 130.1171875 139.14453125 C131.51851264 141.83902557 132.68229181 144.57514185 133.84375 147.3828125 C134.52598864 148.97584144 135.20970488 150.56823803 135.89453125 152.16015625 C141.38144643 164.99590179 141.38144643 164.99590179 142.84375 169.3828125 C145.18318788 167.13002047 147.19259372 164.92083027 149.15625 162.3203125 C152.83960447 158.2943204 155.93604115 156.58852205 161.29736328 156.20922852 C169.14882161 156.18120224 176.83415401 156.89899072 184.60913086 157.92700195 C186.66960903 158.19706343 188.73187122 158.44770895 190.79492188 158.69726562 C192.13035755 158.86863282 193.4656502 159.04111912 194.80078125 159.21484375 C195.98647705 159.36671143 197.17217285 159.5185791 198.39379883 159.67504883 C202.97437215 160.61476166 207.19587993 161.94757083 210.78125 165.0703125 C212.3716287 168.53172497 212.59273664 171.70147251 211.84375 175.3828125 C210.47032903 178.11204648 209.21707015 179.26746193 206.84375 181.3828125 C201.77352776 182.7717023 197.26659847 182.13751887 192.1640625 181.38671875 C191.35129852 181.27432358 190.53853455 181.16192841 189.70114136 181.04612732 C187.12242119 180.68756936 184.54565919 180.31663963 181.96875 179.9453125 C180.21365665 179.69904894 178.45844914 179.4535975 176.703125 179.20898438 C172.41528821 178.60965298 168.12916319 177.99922491 163.84375 177.3828125 C163.54428467 178.17284668 163.24481934 178.96288086 162.9362793 179.77685547 C160.76495997 184.95599792 156.15632569 187.67964695 151.34375 190.2578125 C144.522632 192.45031471 139.11949383 191.48096452 132.84375 188.3828125 C129.10647558 185.83467085 126.62215471 182.92002522 123.84375 179.3828125 C123.44285156 180.19363281 123.04195313 181.00445312 122.62890625 181.83984375 C116.75241437 193.2863438 110.18209458 204.14351545 97.84375 209.3828125 C90.98839933 211.47086426 84.97017968 209.88349874 78.71875 206.8828125 C69.24605737 198.64568848 66.99413804 186.34684812 65.84375 174.3828125 C65.35648437 174.8675 64.86921875 175.3521875 64.3671875 175.8515625 C52.32544825 187.23647961 38.7826588 193.91792588 22.10473633 193.80517578 C12.68458488 193.48392689 5.33227072 190.32771235 -1.15625 183.3828125 C-1.48625 182.7228125 -1.81625 182.0628125 -2.15625 181.3828125 C-7.19190826 182.93893722 -10.6319773 185.99002961 -14.59375 189.3203125 C-16.02261338 190.50229904 -17.45231643 191.68327119 -18.8828125 192.86328125 C-19.59856445 193.45544434 -20.31431641 194.04760742 -21.05175781 194.65771484 C-24.15221173 197.19922382 -27.30631667 199.66916923 -30.46875 202.1328125 C-36.43701509 206.79646103 -42.30982293 211.56708887 -48.15625 216.3828125 C-49.94782706 217.84125591 -51.73949502 219.29958767 -53.53125 220.7578125 C-56.48964364 223.17678394 -59.4342277 225.60988082 -62.3515625 228.078125 C-62.89514404 228.53767578 -63.43872559 228.99722656 -63.9987793 229.47070312 C-65.10499656 230.41316308 -66.20544773 231.36243268 -67.30004883 232.31835938 C-69.89268516 234.56575001 -72.36487281 236.51355988 -75.28515625 238.34375 C-80.4020197 241.68231603 -83.20671667 244.43598235 -84.51342773 250.47705078 C-84.85021874 252.38237271 -85.16688634 254.29134541 -85.46484375 256.203125 C-85.63334839 257.181604 -85.80185303 258.16008301 -85.97546387 259.16821289 C-86.38662836 261.57070345 -86.77955137 263.97471942 -87.15625 266.3828125 C-86.4456089 266.38265015 -85.7349678 266.3824878 -85.00279212 266.38232052 C-42.86561699 266.37345442 -0.72855883 266.39581144 41.4085734 266.45860279 C46.47029862 266.46611866 51.53202418 266.47337418 56.59375 266.48046875 C58.1052701 266.48259388 58.1052701 266.48259388 59.64732596 266.48476194 C75.95428286 266.50706822 92.26117646 266.50829377 108.56814435 266.50170113 C125.30600365 266.49540457 142.04373001 266.51182621 158.78154922 266.54924858 C169.10613434 266.5716189 179.43041637 266.57636067 189.75501141 266.55840914 C196.83914844 266.54779096 203.92303695 266.55928008 211.0071229 266.58797403 C215.09174568 266.60387145 219.1757769 266.61019356 223.26039505 266.59020424 C227.00668293 266.57208674 230.75185609 266.58198814 234.49804685 266.61335133 C236.48145601 266.62290049 238.46494103 266.60319971 240.4482615 266.58215153 C249.75353073 266.70167184 257.68921773 268.89685084 264.84414124 275.12374222 C266.42511696 276.78058401 267.62858744 278.44338086 268.84375 280.3828125 C269.25367188 281.00414062 269.66359375 281.62546875 270.0859375 282.265625 C274.27186124 289.85802461 274.17446722 299.83946974 272.18359375 308.1328125 C268.71427265 316.78358719 262.6640617 322.50762295 254.37109375 326.47265625 C249.54667317 328.21004419 244.76416856 328.50864298 239.67061806 328.5214777 C238.44645011 328.52695214 237.22228215 328.53242659 235.9610182 328.53806692 C234.61094458 328.53914298 233.26087087 328.5401277 231.91079712 328.54103088 C230.47018687 328.54559927 229.02957793 328.5505997 227.58897054 328.55599445 C223.63478183 328.56955344 219.6806017 328.57698742 215.72639585 328.58342111 C211.46060257 328.5914349 207.19482709 328.60512931 202.92904663 328.61813354 C195.53976627 328.6398824 188.15048409 328.65803271 180.76118851 328.67373848 C170.07750907 328.69645159 159.39384935 328.72459243 148.71018665 328.75405776 C131.37662403 328.80171599 114.04305334 328.84498497 96.70947266 328.88549805 C79.87157565 328.92486197 63.0336858 328.96629035 46.19580078 329.01049805 C45.15790266 329.01322232 44.12000454 329.01594659 43.05065496 329.01875342 C37.84382188 329.03243304 32.63698891 329.04615329 27.43015599 329.05989373 C-15.76529772 329.17383072 -58.96076695 329.28064623 -102.15625 329.3828125 C-102.37568268 330.02521881 -102.59511536 330.66762512 -102.82119751 331.32949829 C-103.83796426 334.29909695 -104.86035808 337.26673007 -105.8828125 340.234375 C-106.22771729 341.24443604 -106.57262207 342.25449707 -106.92797852 343.29516602 C-115.77585668 368.91393521 -128.54381029 391.58973296 -147.15625 411.3828125 C-147.6821875 411.97320312 -148.208125 412.56359375 -148.75 413.171875 C-159.0263659 424.23469748 -176.95631972 437.45782267 -192.21875 439.68359375 C-192.858125 439.68746094 -193.4975 439.69132812 -194.15625 439.6953125 C-194.795625 439.71207031 -195.435 439.72882813 -196.09375 439.74609375 C-200.29461417 439.00616881 -202.71858103 436.89692365 -205.4375 433.703125 C-216.41972757 417.8871705 -220.60853104 401.32639053 -217.578125 382.1640625 C-214.25100886 364.96233874 -205.74148455 341.96804705 -193.15625 329.3828125 C-194.42339844 329.33382813 -195.69054687 329.28484375 -196.99609375 329.234375 C-198.69533096 329.15927059 -200.39454876 329.08372618 -202.09375 329.0078125 C-202.92455078 328.976875 -203.75535156 328.9459375 -204.61132812 328.9140625 C-215.6290864 328.39961464 -224.40771412 326.50363452 -232.20703125 318.19921875 C-238.93024206 309.94484192 -240.21735206 301.89993135 -239.44189453 291.3984375 C-238.48291669 284.63149646 -234.77695413 278.51633601 -229.84375 273.8828125 C-220.82797662 267.52204768 -212.93696115 266.88980898 -202.15674591 267.14147949 C-199.62333207 267.19636415 -197.09151431 267.21862087 -194.55755615 267.23144531 C-187.35994709 267.27037388 -180.16389397 267.34075101 -172.96777344 267.49560547 C-168.54769797 267.58839402 -164.13040431 267.62136392 -159.70940399 267.61776733 C-158.0396324 267.62766751 -156.3698244 267.65933034 -154.70093536 267.71450806 C-146.36837606 267.98321436 -140.02159729 267.87911527 -133.51082993 262.21295166 C-131.39564776 260.16610969 -129.39723083 258.04816062 -127.45600128 255.8361969 C-125.61549311 253.7781371 -123.6005324 251.93008099 -121.5625 250.0703125 C-119.58912432 248.20914838 -117.61754882 246.34614427 -115.6484375 244.48046875 C-115.00132813 243.87074219 -114.35421875 243.26101563 -113.6875 242.6328125 C-113.08164063 242.05789063 -112.47578125 241.48296875 -111.8515625 240.890625 C-110.15625 239.3828125 -110.15625 239.3828125 -107.3125 237.5078125 C-102.11737139 232.38797561 -102.24825285 220.92055177 -101.2109375 213.91015625 C-100.9488298 212.16467247 -100.9488298 212.16467247 -100.681427 210.38392639 C-100.12840093 206.69649207 -99.57975895 203.00842116 -99.03125 199.3203125 C-98.65523817 196.80789925 -98.27893906 194.29552898 -97.90234375 191.78320312 C-96.98365487 185.6502329 -96.06855679 179.51673516 -95.15625 173.3828125 C-95.92702881 173.69303345 -95.92702881 173.69303345 -96.71337891 174.00952148 C-99.06689581 174.9526763 -101.42399319 175.88654643 -103.78125 176.8203125 C-104.58949219 177.14580078 -105.39773437 177.47128906 -106.23046875 177.80664062 C-117.1733805 182.12152859 -117.1733805 182.12152859 -122.34375 180.1953125 C-126.69168307 177.39331119 -126.69168307 177.39331119 -128.15625 174.3828125 C-128.92012126 167.5079712 -128.92012126 167.5079712 -126.48535156 163.92163086 C-123.89255036 161.09536883 -121.93598044 160.07511087 -118.39453125 158.6640625 C-117.27498047 158.20644531 -116.15542969 157.74882812 -115.00195312 157.27734375 C-113.83599609 156.81714844 -112.67003906 156.35695312 -111.46875 155.8828125 C-108.050023 154.51070959 -104.64155278 153.12695573 -101.25317383 151.68139648 C-98.15625 150.3828125 -98.15625 150.3828125 -95.48706055 149.50805664 C-91.24330365 147.83029229 -89.57656951 146.3436041 -87.72143555 142.10302734 C-86.57217214 138.53363275 -85.70920397 134.90837762 -84.89038086 131.25085449 C-83.94793531 127.0603602 -82.87794476 122.90191545 -81.82421875 118.73828125 C-81.50286453 117.45003952 -81.50286453 117.45003952 -81.17501831 116.13577271 C-78.91094449 107.16464669 -76.11780284 98.39506063 -73.15625 89.6328125 C-72.90358368 88.88381683 -72.65091736 88.13482117 -72.39059448 87.36312866 C-66.11449651 68.85226272 -59.39597756 50.39940488 -50.11083984 33.15625 C-49.46987371 31.96546279 -48.83747601 30.77002687 -48.21337891 29.5703125 C-41.73684865 17.13323009 -33.41811894 4.28052268 -20.40625 -1.9296875 C-13.344915 -3.42343144 -6.38225474 -3.74041978 0 0 Z M-19.23828125 22.21484375 C-40.27549125 45.99417481 -48.35080968 83.31460237 -57.98632812 112.80957031 C-58.7419372 115.11739471 -59.52281811 117.41716679 -60.33398438 119.70605469 C-61.18799493 122.48615318 -61.18446546 123.70945231 -60.15625 126.3828125 C-34.96578521 105.34136544 -11.58624546 74.90032529 -7.15625 41.3828125 C-7.0157234 38.70199727 -6.92640265 36.06311543 -6.90625 33.3828125 C-6.885625 32.69703125 -6.865 32.01125 -6.84375 31.3046875 C-6.80778728 26.59357102 -7.50461071 23.30054983 -10.15625 19.3828125 C-14.15648214 17.35119854 -16.15264991 19.3397459 -19.23828125 22.21484375 Z M-176.15625 341.3828125 C-177.03332691 342.70783037 -177.91878753 344.02743111 -178.8203125 345.3359375 C-189.15607566 362.71319668 -200.9366242 383.17060435 -196.578125 404.16796875 C-195.32214426 408.70419704 -193.67105313 412.38871342 -191.15625 416.3828125 C-183.39499826 412.79766576 -176.63971997 408.95974419 -170.15625 403.3828125 C-169.35574219 402.71507812 -168.55523437 402.04734375 -167.73046875 401.359375 C-157.11000849 392.20893179 -149.03349176 381.5461689 -142.15625 369.3828125 C-141.7967627 368.75810059 -141.43727539 368.13338867 -141.06689453 367.48974609 C-129.97802437 348.87988772 -129.97802437 348.87988772 -125.15625 328.3828125 C-130.8116285 328.05917747 -136.4615333 327.82460674 -142.12402344 327.66870117 C-144.04522618 327.6036823 -145.96579433 327.51522172 -147.88476562 327.40209961 C-162.55809076 326.55937485 -169.09944273 328.18699082 -176.15625 341.3828125 Z " fill="#020288" transform="translate(239.15625,37.6171875)"/>
<path d="M0 0 C43.1096792 -0.13739185 86.2193331 -0.24308778 129.32918794 -0.30639198 C134.42095638 -0.31389604 139.51272439 -0.32166199 144.60449219 -0.32958984 C145.61815348 -0.33116371 146.63181478 -0.33273757 147.67619309 -0.33435912 C164.08019757 -0.36045307 180.48407563 -0.40775287 196.88800517 -0.46291678 C213.72523999 -0.51906477 230.5624087 -0.55236092 247.3997333 -0.56453097 C257.78579542 -0.57275565 268.17150019 -0.59871393 278.55745229 -0.6474988 C285.68357855 -0.67926256 292.8095206 -0.68878973 299.93571249 -0.68100826 C304.04468473 -0.67717262 308.15303342 -0.68297036 312.26189423 -0.71523285 C316.03031273 -0.74460486 319.7976932 -0.74579577 323.56616125 -0.72539337 C325.56155959 -0.72168982 327.55694717 -0.7474138 329.55216527 -0.77448785 C338.88895949 -0.68217225 346.8210049 1.4916961 354.00009465 7.74107802 C355.5814152 9.39779714 356.78476116 11.06044662 358 13 C358.40992188 13.62132812 358.81984375 14.24265625 359.2421875 14.8828125 C363.42811124 22.47521211 363.33071722 32.45665724 361.33984375 40.75 C357.87052265 49.40077469 351.8203117 55.12481045 343.52734375 59.08984375 C338.6992792 60.82854397 333.92415333 61.1248827 328.82686806 61.12304783 C327.60270011 61.12503888 326.37853215 61.12702993 325.1172682 61.12908131 C323.76719432 61.12622866 322.41712062 61.12328307 321.06704712 61.12025452 C319.62643807 61.12069074 318.18582909 61.12156659 316.74522054 61.12284368 C312.79101879 61.1250786 308.83684415 61.12108106 304.88264585 61.11606562 C300.61686279 61.11174693 296.35108126 61.11320856 292.08529663 61.1139679 C284.69600691 61.11449223 277.30672601 61.11135487 269.91743851 61.10573006 C259.23377072 61.09760282 248.55010719 61.09499858 237.86643665 61.09374207 C220.5328629 61.09155348 203.19929385 61.0848986 185.86572266 61.07543945 C169.02783227 61.06626036 152.18994316 61.05918195 135.35205078 61.05493164 C134.31415266 61.05466892 133.27625454 61.05440619 132.20690496 61.05413551 C127.00007198 61.05283047 121.79323899 61.05156676 116.58640599 61.05032361 C73.39093407 61.039957 30.19546728 61.02234391 -13 61 C-12.36426456 55.54194416 -11.40748279 50.51829534 -9.8125 45.25 C-7.42062944 37.01520798 -5.53858378 28.69726773 -3.75 20.3125 C-3.4919458 19.1069043 -3.2338916 17.90130859 -2.96801758 16.65917969 C-1.80033252 11.11491001 -0.78639851 5.61247529 0 0 Z " fill="#FEF49B" transform="translate(150,305)"/>
<path d="M0 0 C15.53840136 10.21094946 21.52157247 28.92558105 25.34765625 46.20703125 C26.81145633 53.35582236 27.7564422 60.33876782 27.8359375 67.640625 C27.84582199 68.38694183 27.85570648 69.13325867 27.8658905 69.90219116 C28.29486291 110.77709511 20.61688395 149.30438439 -8.15234375 179.95703125 C-19.684485 191.09088819 -35.66464484 199.99234101 -51.65234375 202.14453125 C-55.53085624 201.52749517 -57.49397213 200.35100545 -60.40234375 197.70703125 C-61.73810952 195.05804429 -62.32807291 192.67215152 -62.40234375 189.70703125 C-60.92945704 185.37019815 -59.2231589 183.12731112 -55.40234375 180.70703125 C-53.12903844 179.94181546 -50.83387715 179.24034417 -48.52734375 178.58203125 C-28.71894495 172.44181717 -16.24850857 157.99121507 -6.71484375 140.14453125 C-2.50430487 131.34245346 0.20237735 122.14624644 2.59765625 112.70703125 C2.77844727 112.01786621 2.95923828 111.32870117 3.14550781 110.61865234 C5.90281225 99.60313889 5.90411904 88.37094028 5.97265625 77.08203125 C5.98069275 76.3433078 5.98872925 75.60458435 5.99700928 74.84347534 C6.14399691 57.01120248 4.41798561 35.28351944 -8.40234375 21.70703125 C-13.2283208 16.8810542 -19.13437627 15.13065666 -25.77734375 14.26953125 C-39.99939707 15.98598596 -49.28367365 24.56966991 -57.9609375 35.37890625 C-63.23625969 42.3903309 -67.5424677 50.07390853 -71.56640625 57.85546875 C-71.91751465 58.53182373 -72.26862305 59.20817871 -72.63037109 59.9050293 C-73.29142504 61.19192099 -73.9410286 62.48478731 -74.57666016 63.78442383 C-76.59764462 67.76033681 -78.63267596 70.30123395 -82.40234375 72.70703125 C-85.15989442 73.41730945 -87.61857481 73.28065636 -90.40234375 72.70703125 C-93.21237835 70.91339214 -94.91174843 69.6882219 -96.40234375 66.70703125 C-97.40438334 59.51395504 -95.41236761 54.56402927 -91.90234375 48.39453125 C-91.44746582 47.56638916 -90.99258789 46.73824707 -90.52392578 45.88500977 C-84.71371107 35.44716342 -78.05427231 25.88622865 -70.40234375 16.70703125 C-69.86222656 16.01996094 -69.32210938 15.33289063 -68.765625 14.625 C-51.26777333 -6.85541356 -24.24280638 -14.01377415 0 0 Z " fill="#010188" transform="translate(484.40234375,85.29296875)"/>
<path d="M0 0 C1.73590947 0.00747145 3.47182745 0.01316011 5.20774841 0.01715088 C9.75021135 0.03233614 14.29215296 0.07155547 18.83441162 0.1159668 C23.48003083 0.15707397 28.12573525 0.17519471 32.77148438 0.1953125 C41.86741505 0.23805759 50.96296084 0.30622143 60.05859375 0.390625 C59.10302135 1.51320868 58.14634704 2.63485445 57.18920898 3.75610352 C56.39026466 4.69317894 56.39026466 4.69317894 55.57518005 5.64918518 C53.84243507 7.63883199 52.018241 9.49515186 50.12109375 11.328125 C46.92580131 14.48121547 43.94544773 17.7427385 41.0234375 21.1484375 C39.12692489 23.31264871 37.17481882 25.41661333 35.20776367 27.51660156 C30.73024364 32.31366542 26.48710582 37.22954159 22.43359375 42.390625 C21.73484131 43.26025879 21.73484131 43.26025879 21.02197266 44.14746094 C18.78016994 46.98112486 16.7981672 49.74897482 15.10546875 52.9453125 C12.99802543 56.58622067 11.46136245 58.88990259 8.05859375 61.390625 C-1.96588909 63.74631445 -15.15872519 62.49680777 -24.54296875 58.19921875 C-31.94151773 53.18591625 -37.62753771 47.19408762 -39.94140625 38.390625 C-41.12238882 27.73907066 -40.28780912 19.34860074 -33.94140625 10.390625 C-24.87959743 -0.26778824 -12.94209492 -0.1642598 0 0 Z " fill="#FEF49B" transform="translate(39.94140625,304.609375)"/>
<path d="M0 0 C4.41440063 2.48310035 8.16681978 5.71441695 12 9 C12.4846875 8.43410156 12.969375 7.86820313 13.46875 7.28515625 C19.63174146 0.54142137 19.63174146 0.54142137 24.1875 -0.1875 C28.25768311 0.01267294 29.93205252 0.37033073 33 3 C35.12738138 5.71424521 35.92909561 7.5239277 36.4375 10.9375 C35.63477291 16.55658964 32.04563277 20.243341 28 24 C29.16293865 26.74876408 30.64729453 28.86660742 32.5625 31.125 C35.8923284 35.05248991 35.8923284 35.05248991 36.3125 38.75 C35.90529874 42.98489309 34.86105168 44.85284315 32 48 C28.08167759 49.97583492 25.11463703 50.36396311 20.9375 49 C17.38151302 46.57890248 14.17229465 43.90011553 11 41 C10.41992188 41.56589844 9.83984375 42.13179688 9.2421875 42.71484375 C2.92111479 48.64997638 2.92111479 48.64997638 -1.125 50.1875 C-4.9466903 49.93825933 -7.6407289 48.80883828 -11 47 C-13.4609441 43.30858385 -13.6399492 41.00923434 -13.6015625 36.65234375 C-12.49736171 31.7838221 -8.77348116 29.01541575 -5 26 C-6.33149559 23.02029386 -7.80385601 21.08318434 -10.125 18.8125 C-12.57165401 16.01718276 -13.49524152 14.10233369 -13.6875 10.375 C-13.44739775 6.76730984 -12.99657431 5.99567281 -10.625 3 C-6.81003479 0.09335984 -4.81326348 -0.4628138 0 0 Z " fill="#010188" transform="translate(34,236)"/>
<path d="M0 0 C-0.68410133 8.12037167 -2.37850179 15.93971251 -4.1875 23.875 C-4.41835297 24.89681366 -4.41835297 24.89681366 -4.65386963 25.93927002 C-11.61280595 56.61280595 -11.61280595 56.61280595 -15 60 C-18.10251201 60.08874135 -21.1826812 60.11518455 -24.28515625 60.09765625 C-25.21597519 60.0962413 -26.14679413 60.09482635 -27.1058197 60.09336853 C-30.09141191 60.08775172 -33.07693029 60.0751964 -36.0625 60.0625 C-38.08137913 60.05748716 -40.10025943 60.05292388 -42.11914062 60.04882812 C-47.07945572 60.03777683 -52.03971532 60.02050095 -57 60 C-55.31894116 57.11289767 -53.65055331 54.40318271 -51.46875 51.87109375 C-50.74558594 51.02901367 -50.74558594 51.02901367 -50.0078125 50.16992188 C-49.26144531 49.31237305 -49.26144531 49.31237305 -48.5 48.4375 C-48.03335938 47.89287109 -47.56671875 47.34824219 -47.0859375 46.78710938 C-37.78042042 36.00781276 -27.95602084 25.76944632 -17.88989258 15.70458984 C-15.90353279 13.71599456 -13.92537406 11.71945585 -11.94726562 9.72265625 C-10.68277865 8.45524312 -9.41782294 7.18829743 -8.15234375 5.921875 C-7.56283432 5.32518005 -6.97332489 4.72848511 -6.36595154 4.1137085 C-2.22888621 0 -2.22888621 0 0 0 Z " fill="#FCF29A" transform="translate(130,306)"/>
</svg>
