<?xml version="1.0" encoding="UTF-8"?>
<svg version="1.1" xmlns="http://www.w3.org/2000/svg" width="512" height="512">
<path d="M0 0 C0.92892059 0.00215515 1.85784119 0.0043103 2.81491089 0.00653076 C16.2120786 0.05642496 29.18132964 0.45165011 42.3125 3.3125 C43.25125977 3.50054199 44.19001953 3.68858398 45.15722656 3.88232422 C87.94031682 12.52558112 125.92548641 33.26841336 157.3125 63.3125 C157.80991699 63.78268555 158.30733398 64.25287109 158.81982422 64.73730469 C166.82588763 72.33444934 173.71999721 80.47194153 180.3125 89.3125 C180.95034424 90.15119629 180.95034424 90.15119629 181.60107422 91.00683594 C202.04011585 117.92884925 214.4414644 149.43899081 221.3125 182.3125 C221.49329102 183.13250488 221.67408203 183.95250977 221.86035156 184.79736328 C227.28191117 210.18599879 226.84345766 240.99420406 221.3125 266.3125 C221.14089355 267.15361328 220.96928711 267.99472656 220.79248047 268.86132812 C211.71398931 312.96381066 190.10407866 350.83356047 159.3125 383.3125 C158.24515625 384.44365234 158.24515625 384.44365234 157.15625 385.59765625 C151.92896022 390.98562092 146.19435703 395.65957236 140.3125 400.3125 C138.79462891 401.53839844 138.79462891 401.53839844 137.24609375 402.7890625 C129.3609715 409.08494478 121.10798161 414.38163684 112.3125 419.3125 C111.59320313 419.72000488 110.87390625 420.12750977 110.1328125 420.54736328 C80.46420649 437.22312172 45.45265316 448.32330093 11.203125 448.515625 C9.94221039 448.52621445 9.94221039 448.52621445 8.65582275 448.53701782 C-25.82907032 448.76093537 -25.82907032 448.76093537 -41.6875 445.3125 C-42.63834473 445.11914062 -43.58918945 444.92578125 -44.56884766 444.7265625 C-82.27642337 436.96834403 -116.55460656 420.47580395 -145.6875 395.3125 C-146.59757812 394.53261719 -147.50765625 393.75273437 -148.4453125 392.94921875 C-150.90816132 390.78333724 -153.30745399 388.56905306 -155.6875 386.3125 C-156.18314453 385.84408691 -156.67878906 385.37567383 -157.18945312 384.89306641 C-165.53483145 376.95076073 -172.81956378 368.55144802 -179.6875 359.3125 C-180.1112793 358.75481934 -180.53505859 358.19713867 -180.97167969 357.62255859 C-200.31160504 332.15064308 -212.62750981 302.3289182 -219.6875 271.3125 C-219.90212891 270.3951709 -220.11675781 269.4778418 -220.33789062 268.53271484 C-223.61871709 253.92262177 -224.07639702 239.47234905 -224.125 224.5625 C-224.13126404 223.66591675 -224.13752808 222.7693335 -224.14398193 221.84558105 C-224.22212606 204.15423765 -222.21079621 186.874668 -217.9375 169.6875 C-217.67855957 168.63884766 -217.41961914 167.59019531 -217.15283203 166.50976562 C-208.82620285 133.84031318 -192.67389838 103.76732113 -170.6875 78.3125 C-169.90761719 77.40242188 -169.12773437 76.49234375 -168.32421875 75.5546875 C-166.15833724 73.09183868 -163.94405306 70.69254601 -161.6875 68.3125 C-161.21908691 67.81685547 -160.75067383 67.32121094 -160.26806641 66.81054688 C-152.32576073 58.46516855 -143.92644802 51.18043622 -134.6875 44.3125 C-134.12981934 43.8887207 -133.57213867 43.46494141 -132.99755859 43.02832031 C-123.43833113 35.7703367 -113.33407863 29.83500921 -102.6875 24.3125 C-101.93871582 23.92175293 -101.18993164 23.53100586 -100.41845703 23.12841797 C-69.10308985 6.99338662 -35.04663884 -0.14646006 0 0 Z " fill="#F5F3E5" transform="translate(255.6875,31.6875)"/>
<path d="M0 0 C0.92892059 0.00215515 1.85784119 0.0043103 2.81491089 0.00653076 C16.2120786 0.05642496 29.18132964 0.45165011 42.3125 3.3125 C43.25125977 3.50054199 44.19001953 3.68858398 45.15722656 3.88232422 C87.94031682 12.52558112 125.92548641 33.26841336 157.3125 63.3125 C157.80991699 63.78268555 158.30733398 64.25287109 158.81982422 64.73730469 C166.82588763 72.33444934 173.71999721 80.47194153 180.3125 89.3125 C180.95034424 90.15119629 180.95034424 90.15119629 181.60107422 91.00683594 C202.04011585 117.92884925 214.4414644 149.43899081 221.3125 182.3125 C221.49329102 183.13250488 221.67408203 183.95250977 221.86035156 184.79736328 C227.28191117 210.18599879 226.84345766 240.99420406 221.3125 266.3125 C221.14089355 267.15361328 220.96928711 267.99472656 220.79248047 268.86132812 C211.71398931 312.96381066 190.10407866 350.83356047 159.3125 383.3125 C158.24515625 384.44365234 158.24515625 384.44365234 157.15625 385.59765625 C151.92896022 390.98562092 146.19435703 395.65957236 140.3125 400.3125 C138.79462891 401.53839844 138.79462891 401.53839844 137.24609375 402.7890625 C129.3609715 409.08494478 121.10798161 414.38163684 112.3125 419.3125 C111.59320313 419.72000488 110.87390625 420.12750977 110.1328125 420.54736328 C80.46420649 437.22312172 45.45265316 448.32330093 11.203125 448.515625 C9.94221039 448.52621445 9.94221039 448.52621445 8.65582275 448.53701782 C-25.82907032 448.76093537 -25.82907032 448.76093537 -41.6875 445.3125 C-42.63834473 445.11914062 -43.58918945 444.92578125 -44.56884766 444.7265625 C-82.27642337 436.96834403 -116.55460656 420.47580395 -145.6875 395.3125 C-146.59757812 394.53261719 -147.50765625 393.75273437 -148.4453125 392.94921875 C-150.90816132 390.78333724 -153.30745399 388.56905306 -155.6875 386.3125 C-156.18314453 385.84408691 -156.67878906 385.37567383 -157.18945312 384.89306641 C-165.53483145 376.95076073 -172.81956378 368.55144802 -179.6875 359.3125 C-180.1112793 358.75481934 -180.53505859 358.19713867 -180.97167969 357.62255859 C-200.31160504 332.15064308 -212.62750981 302.3289182 -219.6875 271.3125 C-219.90212891 270.3951709 -220.11675781 269.4778418 -220.33789062 268.53271484 C-223.61871709 253.92262177 -224.07639702 239.47234905 -224.125 224.5625 C-224.13126404 223.66591675 -224.13752808 222.7693335 -224.14398193 221.84558105 C-224.22212606 204.15423765 -222.21079621 186.874668 -217.9375 169.6875 C-217.67855957 168.63884766 -217.41961914 167.59019531 -217.15283203 166.50976562 C-208.82620285 133.84031318 -192.67389838 103.76732113 -170.6875 78.3125 C-169.90761719 77.40242188 -169.12773437 76.49234375 -168.32421875 75.5546875 C-166.15833724 73.09183868 -163.94405306 70.69254601 -161.6875 68.3125 C-161.21908691 67.81685547 -160.75067383 67.32121094 -160.26806641 66.81054688 C-152.32576073 58.46516855 -143.92644802 51.18043622 -134.6875 44.3125 C-134.12981934 43.8887207 -133.57213867 43.46494141 -132.99755859 43.02832031 C-123.43833113 35.7703367 -113.33407863 29.83500921 -102.6875 24.3125 C-101.93871582 23.92175293 -101.18993164 23.53100586 -100.41845703 23.12841797 C-69.10308985 6.99338662 -35.04663884 -0.14646006 0 0 Z M-78.6875 62.3125 C-79.69425781 62.78171875 -80.70101562 63.2509375 -81.73828125 63.734375 C-98.68482041 71.72506101 -113.04474245 83.62987105 -126.6875 96.3125 C-127.40292969 96.9621875 -128.11835938 97.611875 -128.85546875 98.28125 C-140.6029005 109.40814346 -149.96377186 123.16032733 -157.6875 137.3125 C-158.03119629 137.93946777 -158.37489258 138.56643555 -158.72900391 139.21240234 C-168.1698518 156.67199012 -173.98280807 174.8475587 -177.6875 194.3125 C-177.82027344 194.99280273 -177.95304687 195.67310547 -178.08984375 196.37402344 C-181.83765469 216.51324346 -180.88957905 238.33984447 -176.6875 258.3125 C-176.49414062 259.36824219 -176.30078125 260.42398438 -176.1015625 261.51171875 C-168.96288038 296.97335398 -151.14129336 326.30255616 -126.6875 352.3125 C-126.10484375 352.94929688 -125.5221875 353.58609375 -124.921875 354.2421875 C-111.10150808 368.83035258 -92.85136377 380.041648 -74.6875 388.3125 C-74.00961426 388.62316406 -73.33172852 388.93382812 -72.63330078 389.25390625 C-61.62397877 394.2266971 -50.43697943 397.5695721 -38.6875 400.3125 C-37.95208984 400.49071289 -37.21667969 400.66892578 -36.45898438 400.85253906 C-11.66041724 406.67922942 14.59509973 405.64674447 39.3125 400.3125 C40.43398438 400.085625 41.55546875 399.85875 42.7109375 399.625 C75.47168125 392.28365686 103.00345439 374.90849206 127.3125 352.3125 C128.31023437 351.39597656 128.31023437 351.39597656 129.328125 350.4609375 C135.7238161 344.35123259 141.04952576 337.39475084 146.3125 330.3125 C146.73289551 329.75240234 147.15329102 329.19230469 147.58642578 328.61523438 C174.23139488 292.60909114 185.3959984 244.56582053 179.43261719 200.33886719 C178.84655588 196.63539271 178.10209064 192.9771195 177.3125 189.3125 C177.03118797 187.89193937 176.749938 186.47136644 176.46875 185.05078125 C171.75644971 162.36076835 162.05668837 139.98780939 148.3125 121.3125 C147.55453125 120.2709375 146.7965625 119.229375 146.015625 118.15625 C117.71407635 79.96228832 76.14339392 53.45163195 28.90234375 45.953125 C22.700656 45.05941547 16.57734997 44.46139299 10.3125 44.3125 C9.41499023 44.28140137 8.51748047 44.25030273 7.59277344 44.21826172 C-22.66081919 43.25065244 -51.61932138 48.47118524 -78.6875 62.3125 Z " fill="#373939" transform="translate(255.6875,31.6875)"/>
<path d="M0 0 C8.72619746 5.0190891 16.56764519 13.45921713 20 23 C22.77105743 33.50380554 22.47218566 46.56255459 17 56 C11.45608269 64.14533245 4.35336906 70.94372701 -2.58544922 77.87597656 C-3.85304722 79.1495691 -5.12023777 80.4235673 -6.38705444 81.69793701 C-9.8079155 85.13636372 -13.23514164 88.56837538 -16.66415548 91.99866962 C-18.80967696 94.14561778 -20.95376592 96.29398593 -23.09735489 98.44286346 C-30.5850861 105.94905849 -38.07792615 113.45010927 -45.57568359 120.94628906 C-52.55070601 127.92010869 -59.51448041 134.90502195 -66.47310627 141.89519906 C-72.4627874 147.91106288 -78.46018639 153.91915843 -84.46361172 159.92130637 C-88.04272134 163.49990727 -91.61869046 167.08151108 -95.18691635 170.6709671 C-98.54173863 174.04520703 -101.9061031 177.40963627 -105.27789688 180.76691437 C-106.50961385 181.99654708 -107.73796017 183.22956742 -108.96255493 184.46629333 C-118.99401887 194.59062659 -129.08303756 202.73238311 -143.9375 203.4375 C-161.08303992 202.8194006 -172.61605162 189.84926907 -183.88671875 178.546875 C-185.31643559 177.12172711 -186.74652126 175.69694913 -188.17695618 174.27252197 C-191.16313651 171.29524214 -194.14362052 168.31240013 -197.12036133 165.32568359 C-200.91782325 161.51673147 -204.73091297 157.72387136 -208.5486784 153.93528366 C-211.50273765 150.99965137 -214.44734329 148.0546754 -217.3893528 145.10697174 C-218.79077108 143.70540107 -220.19525734 142.30689052 -221.60297203 140.91164398 C-232.40077587 130.19607649 -243.23078542 119.1568085 -243.46850586 103.04833984 C-243.45315796 101.84878662 -243.45315796 101.84878662 -243.4375 100.625 C-243.42505249 99.36937256 -243.42505249 99.36937256 -243.41235352 98.08837891 C-243.12194337 87.46205467 -239.41034184 79.64449763 -232 72 C-223.11079577 64.10627448 -212.94330494 59.09390455 -200.85546875 59.6171875 C-187.15208146 61.45430372 -177.57965427 67.90327156 -168.12109375 77.5859375 C-167.42355484 78.28772125 -166.72601593 78.989505 -166.00733948 79.71255493 C-163.81016217 81.92634609 -161.62372772 84.15040047 -159.4375 86.375 C-157.93755093 87.89001823 -156.43690589 89.40434774 -154.93554688 90.91796875 C-151.28227973 94.60407535 -147.63859973 98.29941661 -144 102 C-140.64755043 100.54488197 -138.4756978 98.71125342 -135.91723633 96.11737061 C-135.11290665 95.30711929 -134.30857697 94.49686798 -133.47987366 93.6620636 C-132.60608566 92.77165878 -131.73229767 91.88125397 -130.83203125 90.96386719 C-129.40833408 89.52582305 -127.98463271 88.08778304 -126.5607748 86.64989805 C-125.03200875 85.1043344 -123.50567003 83.556407 -121.9798584 82.00792694 C-118.79100976 78.77284385 -115.59231757 75.54761666 -112.39160156 72.32427979 C-103.29126691 63.15717928 -94.19907611 53.98211734 -85.12841797 44.78564453 C-80.1177478 39.70564044 -75.09619614 34.63665545 -70.06257725 29.57938695 C-67.40347588 26.90681693 -64.75023823 24.22896654 -62.11050415 21.53725433 C-59.62165023 18.99939832 -57.1187671 16.47623191 -54.60505867 13.96299934 C-53.26124306 12.61213389 -51.93242821 11.2463958 -50.60435486 9.88005066 C-36.67296015 -3.96107821 -18.08917607 -8.69255317 0 0 Z " fill="#53E245" transform="translate(367,155)"/>
<path d="M0 0 C0.92892059 0.00215515 1.85784119 0.0043103 2.81491089 0.00653076 C16.2120786 0.05642496 29.18132964 0.45165011 42.3125 3.3125 C43.25125977 3.50054199 44.19001953 3.68858398 45.15722656 3.88232422 C87.94031682 12.52558112 125.92548641 33.26841336 157.3125 63.3125 C157.80991699 63.78268555 158.30733398 64.25287109 158.81982422 64.73730469 C166.82588763 72.33444934 173.71999721 80.47194153 180.3125 89.3125 C180.95034424 90.15119629 180.95034424 90.15119629 181.60107422 91.00683594 C202.04011585 117.92884925 214.4414644 149.43899081 221.3125 182.3125 C221.49329102 183.13250488 221.67408203 183.95250977 221.86035156 184.79736328 C227.28191117 210.18599879 226.84345766 240.99420406 221.3125 266.3125 C221.14089355 267.15361328 220.96928711 267.99472656 220.79248047 268.86132812 C211.71398931 312.96381066 190.10407866 350.83356047 159.3125 383.3125 C158.24515625 384.44365234 158.24515625 384.44365234 157.15625 385.59765625 C151.92896022 390.98562092 146.19435703 395.65957236 140.3125 400.3125 C138.79462891 401.53839844 138.79462891 401.53839844 137.24609375 402.7890625 C129.3609715 409.08494478 121.10798161 414.38163684 112.3125 419.3125 C111.59320313 419.72000488 110.87390625 420.12750977 110.1328125 420.54736328 C80.46420649 437.22312172 45.45265316 448.32330093 11.203125 448.515625 C9.94221039 448.52621445 9.94221039 448.52621445 8.65582275 448.53701782 C-25.82907032 448.76093537 -25.82907032 448.76093537 -41.6875 445.3125 C-42.63834473 445.11914062 -43.58918945 444.92578125 -44.56884766 444.7265625 C-82.27642337 436.96834403 -116.55460656 420.47580395 -145.6875 395.3125 C-146.59757812 394.53261719 -147.50765625 393.75273437 -148.4453125 392.94921875 C-150.90816132 390.78333724 -153.30745399 388.56905306 -155.6875 386.3125 C-156.18314453 385.84408691 -156.67878906 385.37567383 -157.18945312 384.89306641 C-165.53483145 376.95076073 -172.81956378 368.55144802 -179.6875 359.3125 C-180.1112793 358.75481934 -180.53505859 358.19713867 -180.97167969 357.62255859 C-200.31160504 332.15064308 -212.62750981 302.3289182 -219.6875 271.3125 C-219.90212891 270.3951709 -220.11675781 269.4778418 -220.33789062 268.53271484 C-223.61871709 253.92262177 -224.07639702 239.47234905 -224.125 224.5625 C-224.13126404 223.66591675 -224.13752808 222.7693335 -224.14398193 221.84558105 C-224.22212606 204.15423765 -222.21079621 186.874668 -217.9375 169.6875 C-217.67855957 168.63884766 -217.41961914 167.59019531 -217.15283203 166.50976562 C-208.82620285 133.84031318 -192.67389838 103.76732113 -170.6875 78.3125 C-169.90761719 77.40242188 -169.12773437 76.49234375 -168.32421875 75.5546875 C-166.15833724 73.09183868 -163.94405306 70.69254601 -161.6875 68.3125 C-161.21908691 67.81685547 -160.75067383 67.32121094 -160.26806641 66.81054688 C-152.32576073 58.46516855 -143.92644802 51.18043622 -134.6875 44.3125 C-134.12981934 43.8887207 -133.57213867 43.46494141 -132.99755859 43.02832031 C-123.43833113 35.7703367 -113.33407863 29.83500921 -102.6875 24.3125 C-101.93871582 23.92175293 -101.18993164 23.53100586 -100.41845703 23.12841797 C-69.10308985 6.99338662 -35.04663884 -0.14646006 0 0 Z M-37.6875 19.3125 C-39.21222345 19.6055527 -40.73696316 19.89852084 -42.26171875 20.19140625 C-81.1220023 27.96678755 -115.54294882 47.65278434 -144.4375 74.375 C-145.05165771 74.94057617 -145.66581543 75.50615234 -146.29858398 76.08886719 C-183.45596881 110.89667489 -206.04614014 163.29199321 -207.81347656 213.92138672 C-208.15475332 230.30483104 -207.81734242 246.17967786 -204.6875 262.3125 C-204.55359863 263.0564502 -204.41969727 263.80040039 -204.28173828 264.56689453 C-198.24216801 297.82479485 -182.94541876 330.8374703 -160.6875 356.3125 C-159.77460469 357.41570792 -158.86461263 358.52132258 -157.95703125 359.62890625 C-127.62047876 396.36040196 -83.56078542 421.32305068 -36.6875 429.3125 C-35.84622559 429.46203125 -35.00495117 429.6115625 -34.13818359 429.765625 C-12.21135397 433.54850247 12.38036399 434.60894921 34.3125 430.3125 C35.10640137 430.16184082 35.90030273 430.01118164 36.71826172 429.85595703 C82.91496204 420.89883931 128.33449315 397.33275414 158.3125 360.3125 C159.18691023 359.28465423 160.06197293 358.25736335 160.9375 357.23046875 C180.20634333 334.28465864 192.79089171 307.87730533 201.3125 279.3125 C201.53663574 278.56129883 201.76077148 277.81009766 201.99169922 277.03613281 C203.30836976 272.50248683 204.3851724 267.93909475 205.3125 263.3125 C205.46058105 262.60319336 205.60866211 261.89388672 205.76123047 261.16308594 C211.37293862 233.14682929 209.19282069 204.05921318 203.3125 176.3125 C203.12558594 175.42336914 202.93867188 174.53423828 202.74609375 173.61816406 C195.44458658 140.50447694 177.09828437 109.20181173 154.265625 84.453125 C152.68347392 82.71908742 151.20303119 80.96550618 149.75 79.125 C147.26555917 76.2583375 144.67595219 73.86695944 141.7890625 71.41796875 C139.90607264 69.81713036 138.0538253 68.19665531 136.2109375 66.55078125 C107.46793128 41.07825968 70.35555683 23.72976612 32.3125 18.3125 C31.12914062 18.11011719 29.94578125 17.90773438 28.7265625 17.69921875 C7.12149987 14.47818 -16.32783933 14.87971992 -37.6875 19.3125 Z " fill="#363838" transform="translate(255.6875,31.6875)"/>
<path d="M0 0 C0.71033386 0.00215515 1.42066772 0.0043103 2.15252686 0.00653076 C59.24292584 0.28194525 110.88180529 23.06633656 151 63.3125 C151.76699219 64.0446875 152.53398437 64.776875 153.32421875 65.53125 C179.89280758 91.17762335 198.64892703 128.33516844 206 164.3125 C206.19464844 165.26447266 206.38929688 166.21644531 206.58984375 167.19726562 C214.55725662 208.10185915 210.67227045 250.97626136 194 289.3125 C193.65630371 290.10398437 193.31260742 290.89546875 192.95849609 291.7109375 C170.67160419 342.21382127 129.68733768 381.97767237 78.28515625 402.390625 C64.48386588 407.67378192 50.5121055 411.55852828 36 414.3125 C34.11474609 414.68181641 34.11474609 414.68181641 32.19140625 415.05859375 C8.47508453 418.82515087 -16.5695215 416.75407201 -40 412.3125 C-40.95970703 412.13058105 -41.91941406 411.94866211 -42.90820312 411.76123047 C-78.57484227 404.70982248 -110.92989896 386.86907833 -137.62890625 362.4609375 C-139.73763367 360.55022896 -141.88780105 358.70949852 -144.0625 356.875 C-176.6159306 328.27726515 -196.22497057 284.16461027 -204 242.3125 C-204.13132324 241.61624512 -204.26264648 240.91999023 -204.39794922 240.20263672 C-213.45199902 189.31963875 -199.4214613 132.81143646 -170.19775391 90.64208984 C-159.80591185 76.07096377 -147.9649053 61.62090499 -134 50.3125 C-132.97215423 49.43808977 -131.94486335 48.56302707 -130.91796875 47.6875 C-94.64158603 17.22425063 -47.36661119 -0.26215871 0 0 Z M-129 62.3125 C-129.88300781 63.07304688 -130.76601562 63.83359375 -131.67578125 64.6171875 C-149.10618829 79.8518512 -162.59836373 98.71984503 -173 119.3125 C-173.33080566 119.96702148 -173.66161133 120.62154297 -174.00244141 121.29589844 C-181.37714769 136.09057775 -186.68836933 151.11981941 -190 167.3125 C-190.14566406 168.0147168 -190.29132813 168.71693359 -190.44140625 169.44042969 C-195.50223791 194.11768317 -196.26163265 220.59189834 -191 245.3125 C-190.86078125 245.98667969 -190.7215625 246.66085937 -190.578125 247.35546875 C-189.5784163 252.06705883 -188.35395749 256.69113226 -187 261.3125 C-186.7736084 262.09141602 -186.5472168 262.87033203 -186.31396484 263.67285156 C-180.43722696 283.46368766 -171.98763676 302.4481723 -160 319.3125 C-158.89011719 320.87677734 -158.89011719 320.87677734 -157.7578125 322.47265625 C-153.51119251 328.28420713 -148.99176052 333.72917999 -144.109375 339.015625 C-142.22100188 341.07185351 -140.42019417 343.17536408 -138.625 345.3125 C-108.76297341 379.23738735 -59.6947049 401.08206959 -15 404.3125 C7.64451944 405.28124949 29.06004759 403.84563293 51 398.3125 C51.77972168 398.1175293 52.55944336 397.92255859 53.36279297 397.72167969 C62.70089901 395.35319469 71.34701167 392.60381942 80 388.3125 C81.29227075 387.72733365 82.58672464 387.14697497 83.8828125 386.5703125 C102.46892192 378.22871761 118.84789424 367.17969404 133.78125 353.3203125 C135.33449287 351.91473709 136.9422066 350.56812832 138.5859375 349.26953125 C142.20369377 346.33669 144.9933808 342.85337668 148 339.3125 C148.81597656 338.39597656 149.63195312 337.47945313 150.47265625 336.53515625 C165.98844579 318.96309147 178.25124369 298.44762652 186 276.3125 C186.47566406 275.08917969 186.95132812 273.86585938 187.44140625 272.60546875 C204.35356615 227.52234562 201.9714507 174.47116023 182.47363281 130.66308594 C181.34002571 128.20042224 180.17939909 125.75353519 179 123.3125 C178.45472656 122.17844727 178.45472656 122.17844727 177.8984375 121.02148438 C169.00450922 102.80172842 157.11781052 86.96461872 143.4375 72.0625 C142.91945801 71.4957959 142.40141602 70.9290918 141.86767578 70.34521484 C127.97376733 55.43308698 110.91071625 43.82468785 93 34.3125 C92.32066406 33.94817871 91.64132812 33.58385742 90.94140625 33.20849609 C19.27736186 -4.59251346 -69.26112137 9.43925207 -129 62.3125 Z " fill="#51565C" transform="translate(254,47.6875)"/>
<path d="M0 0 C8.72619746 5.0190891 16.56764519 13.45921713 20 23 C22.77105743 33.50380554 22.47218566 46.56255459 17 56 C11.45608269 64.14533245 4.35336906 70.94372701 -2.58544922 77.87597656 C-3.85304722 79.1495691 -5.12023777 80.4235673 -6.38705444 81.69793701 C-9.8079155 85.13636372 -13.23514164 88.56837538 -16.66415548 91.99866962 C-18.80967696 94.14561778 -20.95376592 96.29398593 -23.09735489 98.44286346 C-30.5850861 105.94905849 -38.07792615 113.45010927 -45.57568359 120.94628906 C-52.55070601 127.92010869 -59.51448041 134.90502195 -66.47310627 141.89519906 C-72.4627874 147.91106288 -78.46018639 153.91915843 -84.46361172 159.92130637 C-88.04272134 163.49990727 -91.61869046 167.08151108 -95.18691635 170.6709671 C-98.54173863 174.04520703 -101.9061031 177.40963627 -105.27789688 180.76691437 C-106.50961385 181.99654708 -107.73796017 183.22956742 -108.96255493 184.46629333 C-118.99401887 194.59062659 -129.08303756 202.73238311 -143.9375 203.4375 C-161.08303992 202.8194006 -172.61605162 189.84926907 -183.88671875 178.546875 C-185.31643559 177.12172711 -186.74652126 175.69694913 -188.17695618 174.27252197 C-191.16313651 171.29524214 -194.14362052 168.31240013 -197.12036133 165.32568359 C-200.91782325 161.51673147 -204.73091297 157.72387136 -208.5486784 153.93528366 C-211.50273765 150.99965137 -214.44734329 148.0546754 -217.3893528 145.10697174 C-218.79077108 143.70540107 -220.19525734 142.30689052 -221.60297203 140.91164398 C-232.40077587 130.19607649 -243.23078542 119.1568085 -243.46850586 103.04833984 C-243.45315796 101.84878662 -243.45315796 101.84878662 -243.4375 100.625 C-243.42505249 99.36937256 -243.42505249 99.36937256 -243.41235352 98.08837891 C-243.12194337 87.46205467 -239.41034184 79.64449763 -232 72 C-223.11079577 64.10627448 -212.94330494 59.09390455 -200.85546875 59.6171875 C-187.15208146 61.45430372 -177.57965427 67.90327156 -168.12109375 77.5859375 C-167.42355484 78.28772125 -166.72601593 78.989505 -166.00733948 79.71255493 C-163.81016217 81.92634609 -161.62372772 84.15040047 -159.4375 86.375 C-157.93755093 87.89001823 -156.43690589 89.40434774 -154.93554688 90.91796875 C-151.28227973 94.60407535 -147.63859973 98.29941661 -144 102 C-140.64755043 100.54488197 -138.4756978 98.71125342 -135.91723633 96.11737061 C-135.11290665 95.30711929 -134.30857697 94.49686798 -133.47987366 93.6620636 C-132.60608566 92.77165878 -131.73229767 91.88125397 -130.83203125 90.96386719 C-129.40833408 89.52582305 -127.98463271 88.08778304 -126.5607748 86.64989805 C-125.03200875 85.1043344 -123.50567003 83.556407 -121.9798584 82.00792694 C-118.79100976 78.77284385 -115.59231757 75.54761666 -112.39160156 72.32427979 C-103.29126691 63.15717928 -94.19907611 53.98211734 -85.12841797 44.78564453 C-80.1177478 39.70564044 -75.09619614 34.63665545 -70.06257725 29.57938695 C-67.40347588 26.90681693 -64.75023823 24.22896654 -62.11050415 21.53725433 C-59.62165023 18.99939832 -57.1187671 16.47623191 -54.60505867 13.96299934 C-53.26124306 12.61213389 -51.93242821 11.2463958 -50.60435486 9.88005066 C-36.67296015 -3.96107821 -18.08917607 -8.69255317 0 0 Z M-51.91259766 33.92602539 C-52.85644818 34.88329892 -53.8006054 35.84027014 -54.74504089 36.79696655 C-56.75680641 38.83533879 -58.76722016 40.87503131 -60.77678299 42.91557503 C-63.95788202 46.14409332 -67.14695314 49.36465821 -70.33798218 52.58335876 C-70.87921018 53.12932601 -71.42043819 53.67529325 -71.97806704 54.23780495 C-73.08341397 55.35274999 -74.18879109 56.46766511 -75.2941978 57.58255088 C-82.70875578 65.06078613 -90.11906197 72.54295791 -97.50292969 80.05151367 C-102.5062675 85.13922435 -107.52362557 90.21262849 -112.55779874 95.26983637 C-115.21459013 97.93989065 -117.86371492 100.61665945 -120.49580765 103.31108284 C-123.42443424 106.30876655 -126.38353205 109.27447226 -129.34619141 112.23852539 C-130.20874039 113.13140762 -131.07128937 114.02428986 -131.9599762 114.94422913 C-138.61673297 121.52274681 -138.61673297 121.52274681 -143.33651733 121.76065063 C-147.16877382 120.96495741 -148.60377736 120.36970754 -151.26953125 117.59106445 C-152.00389404 116.84641434 -152.73825684 116.10176422 -153.49487305 115.33454895 C-154.25968994 114.51903061 -155.02450684 113.70351227 -155.8125 112.86328125 C-156.62565674 112.03168991 -157.43881348 111.20009857 -158.27661133 110.3433075 C-160.87073635 107.68464991 -163.43637494 105.00055185 -166 102.3125 C-168.56768441 99.64670749 -171.14109476 96.98689481 -173.72338867 94.33525085 C-175.32678989 92.68606739 -176.9212361 91.02811397 -178.50512695 89.36018372 C-185.91449187 81.68800582 -192.2117141 76.9262762 -203.125 76.5625 C-209.14563676 76.51631508 -213.35533291 77.34552486 -218.12890625 81.14453125 C-223.99075636 86.95743063 -227.12418892 91.74020157 -227.3125 100.125 C-227.34988281 101.20007813 -227.38726562 102.27515625 -227.42578125 103.3828125 C-226.45052066 111.66805381 -222.308951 117.43363774 -216.47485352 123.12451172 C-215.82881165 123.77449631 -215.18276978 124.4244809 -214.51715088 125.09416199 C-212.3996491 127.21832283 -210.26486794 129.32410347 -208.12890625 131.4296875 C-206.64349577 132.9108429 -205.15904909 134.39296543 -203.67552185 135.87600708 C-200.57374569 138.97163629 -197.46391665 142.05884858 -194.34741211 145.13964844 C-190.35636262 149.08532887 -186.38082991 153.04619803 -182.41055393 157.0127697 C-179.34955905 160.06933363 -176.28316062 163.1204255 -173.21482658 166.16962051 C-171.74698671 167.62859504 -170.2802068 169.0886368 -168.81451607 170.54977036 C-166.76624809 172.58898047 -164.71145472 174.62137108 -162.65454102 176.65185547 C-162.05230209 177.25342972 -161.45006317 177.85500397 -160.82957458 178.47480774 C-155.53035414 183.68044361 -151.76138526 186.4251556 -144.0625 186.375 C-142.87785156 186.38273438 -141.69320312 186.39046875 -140.47265625 186.3984375 C-133.89707433 185.64398378 -129.76639608 182.20804921 -125.24946594 177.63041687 C-124.70334363 177.08897453 -124.15722131 176.54753218 -123.59454983 175.9896825 C-121.77500851 174.18206227 -119.96632632 172.36396273 -118.1574707 170.5456543 C-116.85174551 169.24399607 -115.54538337 167.94297651 -114.23843384 166.64254761 C-110.69653321 163.11431137 -107.1641735 159.57666571 -103.63386178 156.03683829 C-99.93619619 152.33157164 -96.23120999 148.63363677 -92.52738953 144.93452454 C-86.30899359 138.72158483 -80.09694595 132.50235031 -73.88842773 126.27954102 C-66.71288182 119.08766891 -59.52659237 111.90666806 -52.3346265 104.73121899 C-46.15742566 98.56763673 -39.98609626 92.39822144 -33.81962651 86.223903 C-30.13779794 82.53739999 -26.45397871 78.85294764 -22.76485634 75.17374229 C-19.29674196 71.7143006 -15.83606158 68.24758941 -12.38095474 64.77515793 C-11.11251637 63.50275639 -9.84152476 62.23289422 -8.56779671 60.96578789 C-6.82801972 59.23422282 -5.09776866 57.49365721 -3.36958313 55.75053406 C-2.86491825 55.25256134 -2.36025337 54.75458863 -1.84029561 54.24152583 C3.44366644 48.86877327 5.43768869 44.18822368 5.5 36.6875 C5.34156834 29.95415435 4.47264211 25.1392378 0 20 C-6.48121233 13.96306432 -12.383638 11.52897428 -21.234375 11.765625 C-34.40828359 12.88205793 -43.20003967 25.04942952 -51.91259766 33.92602539 Z " fill="#373A39" transform="translate(367,155)"/>
</svg>
