<?xml version="1.0" encoding="UTF-8"?>
<svg version="1.1" xmlns="http://www.w3.org/2000/svg" width="512" height="512">
<path d="M0 0 C4.74172771 3.30300536 9.52978083 6.53779037 14.31536865 9.7767334 C16.09680158 10.98268526 17.87738837 12.18987632 19.65771484 13.39746094 C29.85508674 20.31412974 40.05758873 27.22323408 50.25976562 34.1328125 C58.78596251 39.90756983 67.30877549 45.68728785 75.82910156 51.47070312 C85.59665073 58.10055585 95.36760762 64.72535503 105.14160156 71.34570312 C105.78529694 71.78170837 106.42899231 72.21771362 107.0921936 72.66693115 C111.6710538 75.76834961 116.25006101 78.86955096 120.82910156 81.97070312 C123.45150939 83.74672708 126.07390611 85.52276745 128.69628906 87.29882812 C129.34388184 87.73741653 129.99147461 88.17600494 130.65869141 88.62788391 C133.89838214 90.82208077 137.13786828 93.01657873 140.37695312 95.21166992 C141.65527324 96.07796254 142.93359355 96.94425485 144.21191406 97.81054688 C145.15562866 98.45010567 145.15562866 98.45010567 146.1184082 99.10258484 C149.94507261 101.69549361 153.77354767 104.28570482 157.60325623 106.87411499 C180.1778655 122.13282343 180.1778655 122.13282343 188.32910156 127.84570312 C189.32941406 128.544375 190.32972656 129.24304688 191.36035156 129.96289062 C195.74754735 133.53095808 198.50834842 136.87772638 199.10253906 142.60742188 C199.33953402 149.72638576 198.77352844 154.62711679 193.82910156 159.97070312 C189.40800218 163.41916064 185.96986425 165.10587603 180.37988281 165.06835938 C179.53232422 165.06513672 178.68476563 165.06191406 177.81152344 165.05859375 C176.93044922 165.05021484 176.049375 165.04183594 175.14160156 165.03320312 C174.24892578 165.02869141 173.35625 165.02417969 172.43652344 165.01953125 C170.2339817 165.00775295 168.03157557 164.99130477 165.82910156 164.97070312 C165.85004883 165.53990479 165.87099609 166.10910645 165.89257812 166.69555664 C165.9764115 169.30792129 166.02796974 171.92000196 166.07910156 174.53320312 C166.11261719 175.42845703 166.14613281 176.32371094 166.18066406 177.24609375 C166.27096246 183.4089591 165.50316714 186.96881736 161.82910156 191.97070312 C159.89941406 193.74804687 159.89941406 193.74804687 157.95410156 194.90820312 C157.31730469 195.30910156 156.68050781 195.71 156.02441406 196.12304688 C153.82910156 196.97070312 153.82910156 196.97070312 147.82910156 196.97070312 C147.82910156 258.02070313 147.82910156 319.07070313 147.82910156 381.97070312 C150.46910156 382.30070312 153.10910156 382.63070313 155.82910156 382.97070312 C158.29003906 384.45898438 158.29003906 384.45898438 160.20410156 386.28320312 C160.85121094 386.87746094 161.49832031 387.47171875 162.16503906 388.08398438 C165.16916723 391.49007335 166.08238809 394.2143537 166.02441406 398.73632812 C166.01796875 399.62578125 166.01152344 400.51523437 166.00488281 401.43164062 C165.988125 402.35203125 165.97136719 403.27242188 165.95410156 404.22070312 C165.94507813 405.1565625 165.93605469 406.09242188 165.92675781 407.05664062 C165.90323792 409.36158969 165.87037009 411.66601472 165.82910156 413.97070312 C166.663125 413.92429687 167.49714844 413.87789063 168.35644531 413.83007812 C177.72824087 413.52949362 183.32350143 415.02473381 191.07910156 420.09570312 C199.3982822 428.79302834 199.62362368 437.98463168 199.48095703 449.41113281 C199.45414722 451.96635184 199.48079355 454.51718015 199.51269531 457.07226562 C199.53391557 466.90941471 199.11898999 475.27910689 192.07373047 482.859375 C186.1067075 488.56555434 179.70932366 490.42465142 171.59306622 490.35381317 C170.78769614 490.35877269 169.98232607 490.3637322 169.15255085 490.36884201 C166.45478551 490.38179185 163.75751561 490.37341539 161.05973816 490.3651123 C159.10566476 490.3700015 157.15159425 490.37619143 155.19752866 490.38357019 C149.82826086 490.39998928 144.4591397 490.39764774 139.08985555 490.39219522 C133.29898545 490.38952746 127.50815466 490.40405209 121.71730042 490.41629028 C110.37230991 490.43735731 99.0273705 490.4418844 87.68236276 490.4401024 C78.4615938 490.43879539 69.2408408 490.4425958 60.02007484 490.45002747 C57.36523813 490.45212664 54.71040142 490.45422424 52.0555647 490.45632029 C51.39555269 490.45684428 50.73554068 490.45736827 50.05552831 490.45790814 C31.49252771 490.4724911 12.92953281 490.4807741 -5.6334734 490.47615814 C-6.33323486 490.47598619 -7.03299633 490.47581423 -7.75396269 490.47563707 C-11.30059165 490.47474818 -14.84722059 490.47380337 -18.39384953 490.47283906 C-19.09821458 490.47264802 -19.80257963 490.47245699 -20.52828907 490.47226017 C-21.95268649 490.47187308 -23.3770839 490.47148275 -24.80148131 490.47108919 C-46.96315586 490.4651197 -69.12472596 490.48055532 -91.28637695 490.51269531 C-116.18862581 490.54877928 -141.09080844 490.56810397 -165.99308509 490.5631566 C-179.17699388 490.56091096 -192.36079915 490.56616909 -205.54468727 490.59104919 C-216.76882879 490.6120504 -227.99281001 490.61566593 -239.21695808 490.5967496 C-244.9437815 490.58758454 -250.67030595 490.5864727 -256.39710617 490.60710526 C-261.64102027 490.62578912 -266.88439002 490.62134036 -272.12828322 490.59855944 C-274.02393329 490.59436719 -275.91962487 490.59859463 -277.81523106 490.61215538 C-297.95855394 490.74642696 -297.95855394 490.74642696 -306.05898315 483.2153182 C-311.91806893 477.09077319 -313.63747741 470.55800878 -313.63964844 462.32617188 C-313.64726196 461.51634354 -313.65487549 460.7065152 -313.66271973 459.87214661 C-313.673471 458.16699283 -313.67639418 456.46177348 -313.671875 454.7565918 C-313.6709048 452.17512684 -313.71253477 449.59666025 -313.75683594 447.015625 C-313.83373975 436.61669542 -313.29287651 428.52916281 -305.92480469 420.53320312 C-304.84005859 419.75976562 -304.84005859 419.75976562 -303.73339844 418.97070312 C-302.65251953 418.16632813 -302.65251953 418.16632813 -301.54980469 417.34570312 C-296.48544388 414.41851921 -292.09950185 413.72726224 -286.29589844 413.84570312 C-285.14347656 413.86375 -283.99105469 413.88179688 -282.80371094 413.90039062 C-281.50046875 413.93519531 -281.50046875 413.93519531 -280.17089844 413.97070312 C-280.1918457 413.39626465 -280.21279297 412.82182617 -280.234375 412.22998047 C-280.31803608 409.60206938 -280.36971303 406.97443923 -280.42089844 404.34570312 C-280.47117187 402.99025391 -280.47117187 402.99025391 -280.52246094 401.60742188 C-280.60675723 395.8331259 -280.06509646 392.53509827 -276.17089844 387.97070312 C-271.1904807 382.87709407 -269.88827099 382.93537469 -262.17089844 381.97070312 C-262.17089844 320.92070312 -262.17089844 259.87070312 -262.17089844 196.97070312 C-264.15089844 196.97070312 -266.13089844 196.97070312 -268.17089844 196.97070312 C-270.36621094 196.12304688 -270.36621094 196.12304688 -272.29589844 194.90820312 C-272.93785156 194.52535156 -273.57980469 194.1425 -274.24121094 193.74804688 C-277.73319613 190.53174473 -279.87955289 187.22896989 -280.48583984 182.52954102 C-280.56324349 179.85262347 -280.52107991 177.20920445 -280.42089844 174.53320312 C-280.40285156 173.61087891 -280.38480469 172.68855469 -280.36621094 171.73828125 C-280.31943445 169.4813158 -280.25391715 167.226577 -280.17089844 164.97070312 C-281.44964844 165.01710937 -282.72839844 165.06351563 -284.04589844 165.11132812 C-285.75420823 165.1488734 -287.46254352 165.18527058 -289.17089844 165.22070312 C-290.01007813 165.25421875 -290.84925781 165.28773438 -291.71386719 165.32226562 C-297.72301543 165.41543071 -302.16143109 164.38236193 -307.17089844 160.97070312 C-312.60007791 155.25577736 -313.65021768 150.68236375 -313.47167969 142.93945312 C-312.9574254 137.86369649 -311.33125812 134.88555286 -307.52099609 131.50830078 C-299.97592086 125.61492049 -291.97385257 120.41920481 -283.98339844 115.15820312 C-275.21323922 109.37744119 -266.49702633 103.55847262 -257.97569275 97.41506958 C-253.23975478 94.00315497 -248.42162745 90.74070667 -243.54589844 87.53320312 C-235.26014515 82.04375784 -227.01612051 76.49514072 -218.79589844 70.90820312 C-217.60864269 70.10148095 -216.42138683 69.29475895 -215.23413086 68.48803711 C-213.41120608 67.24929565 -211.58832256 66.01049367 -209.76554871 64.77153015 C-202.80165085 60.03864874 -195.83008148 55.31710561 -188.85839844 50.59570312 C-187.5580173 49.71493516 -186.25764297 48.83415713 -184.95727539 47.95336914 C-180.37238349 44.84790114 -175.78732632 41.74267717 -171.20227051 38.63745117 C-167.27824793 35.97989404 -163.35428957 33.32224214 -159.43041992 30.66445923 C-158.13535858 29.78728861 -156.84027405 28.91015222 -155.54516602 28.03305054 C-147.95428027 22.89211861 -140.3663858 17.74683812 -132.78379822 12.59367371 C-127.59901553 9.07043689 -122.40964353 5.55400962 -117.21923828 2.0390625 C-114.42397971 0.14242382 -111.63471136 -1.76268495 -108.84667969 -3.66992188 C-70.66077584 -29.67617322 -36.93867499 -25.91566206 0 0 Z " fill="#CCDEF9" transform="translate(313.1708984375,22.029296875)"/>
<path d="M0 0 C4.74172771 3.30300536 9.52978083 6.53779037 14.31536865 9.7767334 C16.09680158 10.98268526 17.87738837 12.18987632 19.65771484 13.39746094 C29.85508674 20.31412974 40.05758873 27.22323408 50.25976562 34.1328125 C58.78596251 39.90756983 67.30877549 45.68728785 75.82910156 51.47070312 C85.59665073 58.10055585 95.36760762 64.72535503 105.14160156 71.34570312 C105.78529694 71.78170837 106.42899231 72.21771362 107.0921936 72.66693115 C111.6710538 75.76834961 116.25006101 78.86955096 120.82910156 81.97070312 C123.45150939 83.74672708 126.07390611 85.52276745 128.69628906 87.29882812 C129.34388184 87.73741653 129.99147461 88.17600494 130.65869141 88.62788391 C133.89838214 90.82208077 137.13786828 93.01657873 140.37695312 95.21166992 C141.65527324 96.07796254 142.93359355 96.94425485 144.21191406 97.81054688 C145.15562866 98.45010567 145.15562866 98.45010567 146.1184082 99.10258484 C149.94507261 101.69549361 153.77354767 104.28570482 157.60325623 106.87411499 C180.1778655 122.13282343 180.1778655 122.13282343 188.32910156 127.84570312 C189.32941406 128.544375 190.32972656 129.24304688 191.36035156 129.96289062 C195.74754735 133.53095808 198.50834842 136.87772638 199.10253906 142.60742188 C199.33974961 149.73286189 198.76851608 154.61859601 193.82910156 159.97070312 C187.68292848 164.86255517 182.82873103 165.11922318 175.19262695 165.07177734 C174.32225296 165.07020126 173.45187897 165.06862518 172.55513 165.06700134 C169.67894022 165.05951506 166.80289944 165.0435063 163.92675781 165.02539062 C162.94373625 165.01968174 161.96071468 165.01397285 160.94790459 165.00809097 C155.74848707 164.97657579 150.5491787 164.93764669 145.34985352 164.89355469 C139.97856899 164.84973527 134.60757695 164.83397517 129.23613834 164.82432365 C125.10527196 164.81146412 120.97479291 164.77677281 116.8441143 164.73620987 C114.86383231 164.72071292 112.88346593 164.71362725 110.90312386 164.71511459 C108.13297955 164.71529387 105.36481193 164.68439348 102.5949707 164.64599609 C101.36901184 164.65657799 101.36901184 164.65657799 100.11828613 164.66737366 C95.89918282 164.57428316 94.32716467 164.38604616 90.97264099 161.58865356 C90.26527298 160.72472992 89.55790497 159.86080627 88.82910156 158.97070312 C86.83244559 157.3000318 84.83259122 155.63317327 82.82910156 153.97070312 C82.12785156 153.24882812 81.42660156 152.52695313 80.70410156 151.78320312 C77.59151165 148.77436621 74.76726175 147.6713726 70.45410156 147.59570312 C69.72449219 147.56734375 68.99488281 147.53898438 68.24316406 147.50976562 C61.94338566 148.71263593 57.26656238 154.25091452 52.93457031 158.63476562 C52.30174637 159.26804779 51.66892242 159.90132996 51.016922 160.55380249 C49.68932087 161.88440902 48.36413506 163.21742938 47.04125977 164.55273438 C45.01081825 166.60153874 42.97238124 168.64212159 40.93261719 170.68164062 C39.64112684 171.97804287 38.35009475 173.27490184 37.05957031 174.57226562 C36.44921432 175.18373444 35.83885834 175.79520325 35.21000671 176.42520142 C32.1494294 179.41780262 32.1494294 179.41780262 29.82910156 182.97070312 C29.16910156 182.97070312 28.50910156 182.97070312 27.82910156 182.97070312 C27.82910156 177.03070313 27.82910156 171.09070313 27.82910156 164.97070312 C-28.27089844 164.97070312 -84.37089844 164.97070312 -142.17089844 164.97070312 C-142.17089844 170.91070312 -142.17089844 176.85070312 -142.17089844 182.97070312 C-142.83089844 182.97070312 -143.49089844 182.97070312 -144.17089844 182.97070312 C-145.54589844 181.57226562 -145.54589844 181.57226562 -147.17089844 179.59570312 C-150.03135199 176.22275165 -153.01959505 173.07396836 -156.17089844 169.97070312 C-159.18131746 167.00121125 -162.06281067 164.00924507 -164.79589844 160.78320312 C-171.93206446 152.4163978 -171.93206446 152.4163978 -181.84277344 148.66210938 C-189.15467135 148.33000251 -189.15467135 148.33000251 -195.35839844 151.78320312 C-198.86341022 155.23704685 -199.35697715 158.47254034 -199.48339844 163.28320312 C-199.52078125 164.20746094 -199.55816406 165.13171875 -199.59667969 166.08398438 C-198.74208612 171.87797194 -194.47157393 175.91052019 -190.40527344 179.86132812 C-189.51582031 180.7353125 -188.62636719 181.60929688 -187.70996094 182.50976562 C-186.78957031 183.404375 -185.86917969 184.29898438 -184.92089844 185.22070312 C-183.07786181 187.01296739 -181.23906943 188.8096102 -179.40527344 190.61132812 C-178.5928418 191.40055664 -177.78041016 192.18978516 -176.94335938 193.00292969 C-175.17089844 194.97070312 -175.17089844 194.97070312 -175.17089844 196.97070312 C-199.92089844 196.97070312 -224.67089844 196.97070312 -250.17089844 196.97070312 C-250.83089844 194.99070313 -251.49089844 193.01070312 -252.17089844 190.97070312 C-252.83089844 190.97070312 -253.49089844 190.97070312 -254.17089844 190.97070312 C-254.17089844 190.31070313 -254.17089844 189.65070313 -254.17089844 188.97070312 C-254.74259766 188.73875244 -255.31429687 188.50680176 -255.90332031 188.26782227 C-258.73242033 186.64949664 -260.34515279 184.70226277 -262.45214844 182.21679688 C-272.79747795 169.68202493 -272.79747795 169.68202493 -287.40136719 164.33618164 C-289.87154472 164.40508315 -292.29452917 164.598582 -294.75292969 164.84179688 C-299.66229925 165.29210901 -303.15686499 163.72647443 -307.17089844 160.97070312 C-312.60007791 155.25577736 -313.65021768 150.68236375 -313.47167969 142.93945312 C-312.9574254 137.86369649 -311.33125812 134.88555286 -307.52099609 131.50830078 C-299.97592086 125.61492049 -291.97385257 120.41920481 -283.98339844 115.15820312 C-275.21323922 109.37744119 -266.49702633 103.55847262 -257.97569275 97.41506958 C-253.23975478 94.00315497 -248.42162745 90.74070667 -243.54589844 87.53320312 C-235.26014515 82.04375784 -227.01612051 76.49514072 -218.79589844 70.90820312 C-217.60864269 70.10148095 -216.42138683 69.29475895 -215.23413086 68.48803711 C-213.41120608 67.24929565 -211.58832256 66.01049367 -209.76554871 64.77153015 C-202.80165085 60.03864874 -195.83008148 55.31710561 -188.85839844 50.59570312 C-187.5580173 49.71493516 -186.25764297 48.83415713 -184.95727539 47.95336914 C-180.37238349 44.84790114 -175.78732632 41.74267717 -171.20227051 38.63745117 C-167.27824793 35.97989404 -163.35428957 33.32224214 -159.43041992 30.66445923 C-158.13535858 29.78728861 -156.84027405 28.91015222 -155.54516602 28.03305054 C-147.95428027 22.89211861 -140.3663858 17.74683812 -132.78379822 12.59367371 C-127.59901553 9.07043689 -122.40964353 5.55400962 -117.21923828 2.0390625 C-114.42397971 0.14242382 -111.63471136 -1.76268495 -108.84667969 -3.66992188 C-70.66077584 -29.67617322 -36.93867499 -25.91566206 0 0 Z " fill="#D3E3F8" transform="translate(313.1708984375,22.029296875)"/>
<path d="M0 0 C56.1 0 112.2 0 170 0 C171 20 171 20 171 29 C172.55731171 33.7635417 174.97520933 36.13890401 178.890625 39.01953125 C181.68491588 40.44192266 181.68491588 40.44192266 188 41 C188 97.1 188 153.2 188 211 C183.545 211.99 183.545 211.99 179 213 C174.91942041 215.81930954 173.23126343 217.53747314 171 222 C170.67 230.91 170.34 239.82 170 249 C113.9 249 57.8 249 0 249 C-0.495 236.625 -0.495 236.625 -1 224 C-3.69971134 216.97697213 -3.69971134 216.97697213 -9 213 C-11.97 212.34 -14.94 211.68 -18 211 C-18 154.9 -18 98.8 -18 41 C-14.7 40.01 -11.4 39.02 -8 38 C-4.70969338 35.32662587 -2.60912831 32.89766636 -1 29 C-0.79520775 26.78795699 -0.79520775 26.78795699 -0.9375 24.375 C-1.01721193 16.24438334 -0.45102714 8.11848852 0 0 Z " fill="#494949" transform="translate(171,187)"/>
<path d="M0 0 C4.43035103 2.10669141 7.82751559 5.36364668 11.375 8.6875 C11.9522583 9.2242334 12.5295166 9.7609668 13.12426758 10.31396484 C16.72827732 13.7019678 20.08259077 17.18943108 23.2421875 21 C26.2230602 24.39157071 29.56559993 27.42728324 32.86328125 30.5078125 C36.01021228 34.17827319 36.82507634 37.65058887 37.4375 42.375 C36.85408702 47.20899329 35.25752371 50.39009993 32 54 C27.55200239 57.20148215 24.54433828 58 19 58 C19 114.1 19 170.2 19 228 C21.31 228 23.62 228 26 228 C30.76264789 230.52140182 34.64691515 233.73004496 36.75 238.8125 C37.55818792 245.8841443 37.35661835 249.29842902 33 255 C30.80777121 257.46350018 28.49124443 259.7895029 26.15234375 262.11328125 C25.49923721 262.76830124 24.84613068 263.42332123 24.17323303 264.09819031 C22.79982987 265.4729479 21.42392408 266.8452094 20.0456543 268.21508789 C17.93367442 270.31630609 15.83264061 272.42804898 13.73242188 274.54101562 C12.39387042 275.87824636 11.05469918 277.21485705 9.71484375 278.55078125 C9.08666245 279.18301102 8.45848114 279.81524078 7.81126404 280.46662903 C6.93003624 281.33840034 6.93003624 281.33840034 6.03100586 282.2277832 C5.51678574 282.74041214 5.00256561 283.25304108 4.47276306 283.78120422 C0.30132888 287.2333049 -5.9199693 286.41028148 -11 286 C-16.29299219 283.86027975 -18.91354572 279.62968141 -22 275 C-22 272.36 -22 269.72 -22 267 C-48.07 267 -74.14 267 -101 267 C-101 244.09090909 -101 244.09090909 -94.25 237.1875 C-91 235 -91 235 -83 234 C-83 172.95 -83 111.9 -83 49 C-84.98 49 -86.96 49 -89 49 C-91.1953125 48.15234375 -91.1953125 48.15234375 -93.125 46.9375 C-94.08792969 46.36322266 -94.08792969 46.36322266 -95.0703125 45.77734375 C-98.56229769 42.5610416 -100.70865445 39.25826676 -101.31494141 34.55883789 C-101.39234505 31.88192034 -101.35018148 29.23850133 -101.25 26.5625 C-101.23195312 25.64017578 -101.21390625 24.71785156 -101.1953125 23.76757812 C-101.14853601 21.51061267 -101.08301871 19.25587388 -101 17 C-95.40531783 21.64617976 -90.28332528 26.62828226 -85.1875 31.8125 C-83.68330553 33.34212464 -82.17690551 34.86958455 -80.66796875 36.39453125 C-80.01078857 37.06331299 -79.3536084 37.73209473 -78.67651367 38.42114258 C-77.07199422 40.0838526 -77.07199422 40.0838526 -75 41 C-75 41.66 -75 42.32 -75 43 C-74.34 43 -73.68 43 -73 43 C-72.61087936 43.81139938 -72.22175873 44.62279877 -71.82084656 45.45878601 C-70.19682904 48.33513163 -70.19682904 48.33513163 -66.82991028 48.63923645 C-64.86799995 48.6492292 -64.86799995 48.6492292 -62.86645508 48.65942383 C-61.78315163 48.67514938 -61.78315163 48.67514938 -60.67796326 48.69119263 C-58.29138467 48.71998912 -55.90625275 48.71364648 -53.51953125 48.70703125 C-51.86470212 48.72014365 -50.20988901 48.73544647 -48.55509949 48.75285339 C-44.20011994 48.79277056 -39.8455584 48.80289809 -35.49041748 48.80688477 C-31.04621648 48.81620366 -26.60226239 48.85360928 -22.15820312 48.88867188 C-13.43879765 48.953316 -4.7196339 48.98649997 4 49 C-1.38047162 42.76632202 -1.38047162 42.76632202 -7.11328125 36.859375 C-7.80357422 36.18132812 -8.49386719 35.50328125 -9.20507812 34.8046875 C-10.62785016 33.41751773 -12.05237365 32.03214242 -13.47851562 30.6484375 C-14.16236328 29.97554687 -14.84621094 29.30265625 -15.55078125 28.609375 C-16.16606689 28.01092773 -16.78135254 27.41248047 -17.4152832 26.79589844 C-21.33394509 22.35503002 -21.37540726 18.34892162 -21.24609375 12.62109375 C-20.93167468 9.27228117 -20.23073268 7.52816371 -18 5 C-17.195625 4.071875 -16.39125 3.14375 -15.5625 2.1875 C-11.15324562 -1.32439357 -5.31804074 -0.85890295 0 0 Z " fill="#D7E5F9" transform="translate(134,170)"/>
<path d="M0 0 C4.54054054 2.08108108 4.54054054 2.08108108 6 5 C6.06950541 6.54023996 6.08452357 8.08334988 6.0625 9.625 C6.05347656 10.44226563 6.04445313 11.25953125 6.03515625 12.1015625 C6.02355469 12.72804687 6.01195312 13.35453125 6 14 C7.72476563 13.96132812 7.72476563 13.96132812 9.484375 13.921875 C13.84440066 13.92570968 17.96843956 14.46428811 22.25 15.25 C23.35698242 15.4524231 23.35698242 15.4524231 24.48632812 15.65893555 C35.25897432 17.72384872 47.95171028 20.5592418 54.5625 30.1875 C57.34654339 36.0922618 56.99189612 42.18736304 54.859375 48.234375 C52.26947812 53.82309985 50.00098886 58.69192736 44 61 C36.09928577 62.77059321 30.00265593 59.45830557 23.19921875 55.82421875 C17.70403783 53.28559336 17.70403783 53.28559336 6 51 C6 64.53 6 78.06 6 92 C7.65 92.33 9.3 92.66 11 93 C30.5556512 100.5823664 48.57473294 110.26028975 58 130 C60.78250235 137.14451613 61.48755993 143.74890597 61.375 151.375 C61.36267334 152.39013672 61.35034668 153.40527344 61.33764648 154.45117188 C60.98812572 170.05558291 55.90404669 183.03198331 45.125 194.5 C34.03753224 204.60142814 20.78549855 210.24356666 6 212 C6.05800781 212.66386719 6.11601562 213.32773437 6.17578125 214.01171875 C6.54389122 221.21615677 6.54389122 221.21615677 3.875 225.0625 C0.6247666 227.25287468 -1.08281834 228 -5 228 C-8.63655436 226.72720597 -11.26735971 225.73264029 -14 223 C-14.1953125 220.6171875 -14.1953125 220.6171875 -14.125 217.875 C-14.10695312 216.96492187 -14.08890625 216.05484375 -14.0703125 215.1171875 C-14.04710937 214.41851562 -14.02390625 213.71984375 -14 213 C-15.175625 213.061875 -16.35125 213.12375 -17.5625 213.1875 C-34.69072008 213.10721147 -54.52288186 206.51493382 -67.296875 194.9140625 C-69 193 -69 193 -69 191 C-69.66 191 -70.32 191 -71 191 C-75.09103078 184.35207498 -76.14121029 178.76823848 -75 171 C-72.78464155 164.02064064 -69.02483885 159.11267337 -63 155 C-59.72233578 153.36116789 -56.54134707 153.4898562 -53 154 C-47.23484266 156.03924574 -42.46359026 159.3240638 -37.625 163 C-30.71139383 168.19502509 -23.46367727 171.30726455 -15 173 C-15.33 158.48 -15.66 143.96 -16 129 C-20.82625 126.9890625 -20.82625 126.9890625 -25.75 124.9375 C-42.08035272 117.96812891 -59.61665557 109.32527356 -67 92 C-69.58456728 85.05373046 -70.44814788 78.8221705 -70.3125 71.4375 C-70.31572266 70.55642578 -70.31894531 69.67535156 -70.32226562 68.76757812 C-70.2084681 54.74979174 -65.56993339 43.39004553 -55.8125 33.125 C-44.79374882 22.81084924 -30.20025512 15.93062786 -15 15 C-15.04640625 14.40832031 -15.0928125 13.81664062 -15.140625 13.20703125 C-15.33369653 8.98014382 -15.4219755 6.6751608 -13.125 3 C-9.14129418 -0.74937019 -5.25826381 -0.52673454 0 0 Z " fill="#E5A255" transform="translate(263,199)"/>
<path d="M0 0 C2.94965056 1.31149752 5.59371064 2.83630657 8 5 C8 5.66 8 6.32 8 7 C8.556875 7.20625 9.11375 7.4125 9.6875 7.625 C11.94696811 8.96846753 12.9998656 10.05157702 14.625 12.0625 C16.67119397 15.00824713 16.67119397 15.00824713 19 16 C21.83684446 16.12272611 24.65071994 16.18574561 27.48876953 16.20532227 C28.36688293 16.21522186 29.24499634 16.22512146 30.14971924 16.23532104 C33.06072262 16.26698274 35.97174235 16.29171191 38.8828125 16.31640625 C40.89778067 16.33697175 42.91274449 16.35796811 44.92770386 16.37937927 C50.23773681 16.43464171 55.54780897 16.48403257 60.85791016 16.53222656 C66.27379862 16.58241115 71.68962997 16.63811308 77.10546875 16.69335938 C87.73693041 16.80099197 98.3684416 16.9024256 109 17 C109 17.33 109 17.66 109 18 C103.06 18 97.12 18 91 18 C91.04640625 19.36253906 91.0928125 20.72507813 91.140625 22.12890625 C91.17816232 23.94008213 91.21456037 25.75128186 91.25 27.5625 C91.28351563 28.45775391 91.31703125 29.35300781 91.3515625 30.27539062 C91.44186089 36.43825598 90.67406557 39.99811423 87 45 C85.0703125 46.77734375 85.0703125 46.77734375 83.125 47.9375 C82.48820313 48.33839844 81.85140625 48.73929688 81.1953125 49.15234375 C79 50 79 50 73 50 C73 82.34 73 114.68 73 148 C71.35 146.35 69.7 144.7 68 143 C66.515 142.01 66.515 142.01 65 141 C65.103125 141.99 65.20625 142.98 65.3125 144 C65.30272659 148.81829121 63.14588088 152.45173901 60 156 C54.63463792 160.61300156 50.02946869 160.5871465 43.125 160.53125 C42.08230957 160.5350769 41.03961914 160.53890381 39.96533203 160.54284668 C37.76659171 160.54556178 35.56781886 160.53822885 33.36914062 160.52148438 C30.01098353 160.50007004 26.65496585 160.52130079 23.296875 160.546875 C21.1562453 160.54423165 19.01561692 160.53910654 16.875 160.53125 C15.87484863 160.53934692 14.87469727 160.54744385 13.84423828 160.55578613 C8.05212085 160.478191 4.5568456 159.93939663 0 156 C-4.44937408 150.94935915 -5.2725847 148.08900688 -5.234375 141.48828125 C-4.94182835 138.38241098 -3.93937784 136.4242223 -2 134 C-2.33 133.67 -2.66 133.34 -3 133 C-3.08871273 129.97022196 -3.1151935 126.96332978 -3.09765625 123.93359375 C-3.0962413 123.02497086 -3.09482635 122.11634796 -3.09336853 121.18019104 C-3.08775193 118.26592779 -3.07519665 115.35174019 -3.0625 112.4375 C-3.05748714 110.46679798 -3.05292386 108.49609476 -3.04882812 106.52539062 C-3.03777711 101.68356441 -3.02050138 96.84179505 -3 92 C-4.32 91.34 -5.64 90.68 -7 90 C-13.6 83.4 -20.2 76.8 -27 70 C-27.33 122.47 -27.66 174.94 -28 229 C-26.02 229.66 -24.04 230.32 -22 231 C-20.0770874 232.42170715 -20.0770874 232.42170715 -18.41308594 234.08520508 C-17.77933044 234.70957962 -17.14557495 235.33395416 -16.49261475 235.97724915 C-15.82989563 236.65120224 -15.16717651 237.32515533 -14.484375 238.01953125 C-13.78733459 238.71511642 -13.09029419 239.4107016 -12.37213135 240.12736511 C-10.90503013 241.59612203 -9.44285866 243.06981768 -7.98535156 244.5480957 C-5.75587751 246.8065461 -3.50831508 249.0457277 -1.2578125 251.28320312 C0.16778272 252.7150355 1.59229929 254.14794282 3.015625 255.58203125 C4.02184906 256.58385185 4.02184906 256.58385185 5.04840088 257.60591125 C9.3518115 261.99719998 11.74102217 265.15124386 12.3125 271.4375 C11.74560422 277.9001119 8.85515292 281.83844035 4 286 C0.01745216 288.26036499 -4.51170647 288.95771905 -9 288 C-14.0303184 285.00525246 -17.96548576 281.32703848 -22.078125 277.1875 C-22.73077332 276.53676514 -23.38342163 275.88603027 -24.05584717 275.21557617 C-25.42640867 273.84636926 -26.79447345 272.47465904 -28.16015625 271.10058594 C-30.25039752 268.99960044 -32.35113949 266.90954086 -34.453125 264.8203125 C-35.78710037 263.48501609 -37.1204555 262.14909971 -38.453125 260.8125 C-39.08019348 260.18947998 -39.70726196 259.56645996 -40.35333252 258.92456055 C-41.22499054 258.04344604 -41.22499054 258.04344604 -42.11425781 257.14453125 C-42.62466614 256.63253174 -43.13507446 256.12053223 -43.66094971 255.59301758 C-47.13727813 251.4573609 -47.43207265 247.7122935 -47.31640625 242.46875 C-46.6851283 237.54322326 -43.96946378 234.85405143 -40.375 231.6875 C-35.81562633 228.44794502 -35.67243446 229 -29 229 C-29 172.9 -29 116.8 -29 59 C-31.31 59 -33.62 59 -36 59 C-40.23037622 56.99837904 -43.3074858 53.9738481 -46 50.1875 C-47.2874532 46.08374294 -47.89828969 42.24388829 -47 38 C-44.01192368 32.96639797 -40.32624913 29.03373002 -36.1875 24.921875 C-35.53676514 24.26922668 -34.88603027 23.61657837 -34.21557617 22.94415283 C-32.84636926 21.57359133 -31.47465904 20.20552655 -30.10058594 18.83984375 C-27.99960044 16.74960248 -25.90954086 14.64886051 -23.8203125 12.546875 C-22.48501609 11.21289963 -21.14909971 9.8795445 -19.8125 8.546875 C-19.18947998 7.91980652 -18.56645996 7.29273804 -17.92456055 6.64666748 C-17.33715088 6.06556213 -16.74974121 5.48445679 -16.14453125 4.88574219 C-15.63253174 4.37533386 -15.12053223 3.86492554 -14.59301758 3.33905029 C-10.1576017 -0.38924813 -5.59712709 -0.92220202 0 0 Z " fill="#BDD3EF" transform="translate(388,169)"/>
<path d="M0 0 C4.43035103 2.10669141 7.82751559 5.36364668 11.375 8.6875 C11.9522583 9.2242334 12.5295166 9.7609668 13.12426758 10.31396484 C16.72827732 13.7019678 20.08259077 17.18943108 23.2421875 21 C26.2230602 24.39157071 29.56559993 27.42728324 32.86328125 30.5078125 C36.01021228 34.17827319 36.82507634 37.65058887 37.4375 42.375 C36.85408702 47.20899329 35.25752371 50.39009993 32 54 C27.55200239 57.20148215 24.54433828 58 19 58 C19 114.1 19 170.2 19 228 C21.31 228 23.62 228 26 228 C30.76264789 230.52140182 34.64691515 233.73004496 36.75 238.8125 C37.55818792 245.8841443 37.35661835 249.29842902 33 255 C30.80777121 257.46350018 28.49124443 259.7895029 26.15234375 262.11328125 C25.49923721 262.76830124 24.84613068 263.42332123 24.17323303 264.09819031 C22.79982987 265.4729479 21.42392408 266.8452094 20.0456543 268.21508789 C17.93367442 270.31630609 15.83264061 272.42804898 13.73242188 274.54101562 C12.39387042 275.87824636 11.05469918 277.21485705 9.71484375 278.55078125 C9.08666245 279.18301102 8.45848114 279.81524078 7.81126404 280.46662903 C6.93003624 281.33840034 6.93003624 281.33840034 6.03100586 282.2277832 C5.51678574 282.74041214 5.00256561 283.25304108 4.47276306 283.78120422 C0.30132888 287.2333049 -5.9199693 286.41028148 -11 286 C-15.7344316 284.08608084 -18.72684393 280.54631214 -21 276 C-21.84612933 270.95515343 -22.34582802 266.00263477 -19.39868164 261.6171875 C-18.32154907 260.50730469 -18.32154907 260.50730469 -17.22265625 259.375 C-15.99627441 258.09206055 -15.99627441 258.09206055 -14.74511719 256.78320312 C-13.83922852 255.86474609 -12.93333984 254.94628906 -12 254 C-11.03412809 252.99544042 -10.06964411 251.98954479 -9.10644531 250.98242188 C-6.56063988 248.33116766 -3.98591058 245.71042347 -1.39672852 243.1015625 C-0.33074974 242.02392022 0.73070981 240.9417908 1.7878418 239.85546875 C3.34234066 238.25832539 4.90965701 236.6748328 6.48046875 235.09375 C7.39723389 234.16240234 8.31399902 233.23105469 9.25854492 232.27148438 C12.15682212 229.87006207 14.44013399 229.07983313 18 228 C18.33645726 219.47889572 18.55863057 210.96489119 18.64509201 202.43794632 C18.688651 198.47535503 18.76778082 194.52093634 18.93603516 190.56152344 C20.26861729 170.7947316 20.26861729 170.7947316 12.49804688 153.36914062 C7.43963263 147.92964219 1.70949689 142.35474844 -5 139 C-4.95359375 139.65226563 -4.9071875 140.30453125 -4.859375 140.9765625 C-4.6152748 146.8872745 -4.85665071 150.42050868 -9 155 C-14.404157 159.6603579 -19.03608092 159.58650452 -25.83984375 159.53125 C-26.88016251 159.5350769 -27.92048126 159.53890381 -28.99232483 159.54284668 C-31.186869 159.545562 -33.38144575 159.53822754 -35.57592773 159.52148438 C-38.92310283 159.50009201 -42.26812621 159.52128887 -45.61523438 159.546875 C-47.75260888 159.54423123 -49.88998205 159.53910525 -52.02734375 159.53125 C-53.02233383 159.53934692 -54.01732391 159.54744385 -55.04246521 159.55578613 C-62.56104991 159.45505399 -67.05644265 158.01903318 -72.4375 152.5 C-74.75589772 147.3067891 -74.85471908 142.59316167 -74 137 C-72.26383524 132.62117736 -69.70248294 130.06446423 -65.4375 128.125 C-62.95261075 127.31176352 -60.53459896 126.61007852 -58 126 C-57.82191902 118.88368311 -57.69967869 111.76794447 -57.61547852 104.64990234 C-57.58036423 102.23073861 -57.53266035 99.81172249 -57.47192383 97.39306641 C-57.38661292 93.90750655 -57.34721943 90.42391654 -57.31640625 86.9375 C-57.26221275 85.32609131 -57.26221275 85.32609131 -57.20692444 83.68212891 C-57.20405477 78.14350275 -57.6062032 74.77478209 -61.29931641 70.50561523 C-62.51050806 69.31390637 -63.74183614 68.14200655 -65 67 C-65.70616455 66.25113525 -66.4123291 65.50227051 -67.13989258 64.73071289 C-67.71892334 64.1505542 -68.2979541 63.57039551 -68.89453125 62.97265625 C-69.53970703 62.32619141 -70.18488281 61.67972656 -70.84960938 61.01367188 C-71.49736328 60.36978516 -72.14511719 59.72589844 -72.8125 59.0625 C-73.47958984 58.39154297 -74.14667969 57.72058594 -74.83398438 57.02929688 C-75.47271484 56.39185547 -76.11144531 55.75441406 -76.76953125 55.09765625 C-77.34292236 54.52539307 -77.91631348 53.95312988 -78.50708008 53.36352539 C-79.97377378 51.89937424 -79.97377378 51.89937424 -82 51 C-82 50.34 -82 49.68 -82 49 C-53.62 49 -25.24 49 4 49 C-1.41676439 42.74731278 -1.41676439 42.74731278 -7.11328125 36.859375 C-7.80357422 36.18132812 -8.49386719 35.50328125 -9.20507812 34.8046875 C-10.62785016 33.41751773 -12.05237365 32.03214242 -13.47851562 30.6484375 C-14.16236328 29.97554687 -14.84621094 29.30265625 -15.55078125 28.609375 C-16.16606689 28.01092773 -16.78135254 27.41248047 -17.4152832 26.79589844 C-21.33394509 22.35503002 -21.37540726 18.34892162 -21.24609375 12.62109375 C-20.93167468 9.27228117 -20.23073268 7.52816371 -18 5 C-17.195625 4.071875 -16.39125 3.14375 -15.5625 2.1875 C-11.15324562 -1.32439357 -5.31804074 -0.85890295 0 0 Z " fill="#C7DBF5" transform="translate(134,170)"/>
<path d="M0 0 C7.87467524 6.74972164 7.87467524 6.74972164 11.078125 9.98046875 C11.76390625 10.66947266 12.4496875 11.35847656 13.15625 12.06835938 C13.8471875 12.76767578 14.538125 13.46699219 15.25 14.1875 C15.95640625 14.89841797 16.6628125 15.60933594 17.390625 16.34179688 C18.69550858 17.65533026 19.99935392 18.96989657 21.30175781 20.28588867 C22.94018331 21.98636016 22.94018331 21.98636016 24.59059143 23.36209106 C27.09617617 26.27389373 26.23694625 30.17571412 26.07421875 33.82421875 C26.04777786 34.68561966 26.02133698 35.54702057 25.99409485 36.43452454 C25.90631244 39.18621996 25.79717129 41.93659844 25.6875 44.6875 C25.62424315 46.55268716 25.56237703 48.41792204 25.50195312 50.28320312 C25.35076858 54.85617892 25.18042447 59.42808826 25 64 C25.66 64.33 26.32 64.66 27 65 C26.505 65.61875 26.01 66.2375 25.5 66.875 C23.37794169 71.29595481 23.31092121 75.17644844 24 80 C26.36838494 84.91895334 29.20913791 87.45956708 34 90 C37.61517394 90.58901839 41.18285195 90.58459877 44.83984375 90.56640625 C46.40032188 90.57570412 46.40032188 90.57570412 47.99232483 90.58518982 C50.18684964 90.59227633 52.38142834 90.58913448 54.57592773 90.57641602 C57.9233757 90.56255847 61.26802256 90.59663128 64.61523438 90.63476562 C66.75260485 90.63571698 68.8899788 90.63385713 71.02734375 90.62890625 C72.02233383 90.64216446 73.01732391 90.65542267 74.04246521 90.66908264 C80.67201995 90.58079357 84.04173761 89.4660288 89 85 C91.74735894 80.78738295 92.5027964 76.97203597 93 72 C96.85975636 73.51633285 98.77381272 75.51807798 101 79 C101.36723766 81.98064317 101.5078495 84.58071151 101.45410156 87.55395508 C101.45468567 88.40324585 101.45526978 89.25253662 101.45587158 90.12756348 C101.45309236 92.92530673 101.42200842 95.7219749 101.390625 98.51953125 C101.38316203 100.46294065 101.37746936 102.4063576 101.37347412 104.34977722 C101.35822226 109.45780314 101.31894415 114.56537206 101.2746582 119.67321777 C101.23369593 124.88820209 101.21546105 130.10326045 101.1953125 135.31835938 C101.1524496 145.54577339 101.08420355 155.77284865 101 166 C102.26924316 166.1343042 103.53848633 166.2686084 104.84619141 166.40698242 C108.60588304 166.80481192 110.58113667 167.6497772 113.375 170.3125 C114.02210938 170.90675781 114.66921875 171.50101563 115.3359375 172.11328125 C122.22361217 179.92254619 119 185.96829326 119 198 C94.58 198 70.16 198 45 198 C44.67 198.66 44.34 199.32 44 200 C36.61296387 193.20562006 29.29698507 186.35983061 22.25 179.2109375 C21.76302643 178.71806244 21.27605286 178.22518738 20.77432251 177.71737671 C18.35258855 175.26407648 15.94044419 172.80228027 13.54052734 170.32763672 C12.6480127 169.42029785 11.75549805 168.51295898 10.8359375 167.578125 C10.04751465 166.76762695 9.2590918 165.95712891 8.44677734 165.12207031 C5.63818892 162.50887062 5.63818892 162.50887062 0 160 C0 107.2 0 54.4 0 0 Z " fill="#D7E7FA" transform="translate(360,238)"/>
<path d="M0 0 C0.62171129 0.55397886 0.62171129 0.55397886 1.2559824 1.11914921 C4.33063066 3.81261125 7.41927566 6.35618056 10.79124451 8.67002869 C24.16633098 17.91010804 38.3421263 29.34264317 41.7678833 45.98126221 C44.26631162 63.11515061 43.26271195 80.70907934 42.37688482 97.94041288 C42.00146391 105.37709957 41.82499765 112.81503136 41.66067898 120.25889695 C41.31964247 135.51647373 40.7429861 150.75628236 40 166 C39.08528931 166.17523193 39.08528931 166.17523193 38.15209961 166.35400391 C37.34780518 166.51819824 36.54351074 166.68239258 35.71484375 166.8515625 C34.91941162 167.00963379 34.12397949 167.16770508 33.30444336 167.33056641 C29.1195007 168.54627917 26.22882681 171.08190873 23.86572266 174.77050781 C22.73784446 177.67512815 22.67404089 180.18388846 22.5859375 183.296875 C22.52792969 185.10478516 22.52792969 185.10478516 22.46875 186.94921875 C22.42234375 188.83060547 22.42234375 188.83060547 22.375 190.75 C22.31699219 192.65458984 22.31699219 192.65458984 22.2578125 194.59765625 C22.16355778 197.7316257 22.07794834 200.86558949 22 204 C9.17985111 204.82165768 -3.63379117 205.43783877 -16.47517109 205.81342602 C-22.44416933 205.99402492 -28.39484417 206.23709706 -34.35327148 206.64038086 C-76.54477393 209.42305351 -76.54477393 209.42305351 -92.16552734 196.05322266 C-101.09026784 187.91611629 -108.80994677 178.67898036 -116 169 C-115.34 168.67 -114.68 168.34 -114 168 C-111.3043253 169.01498272 -108.69615934 170.09256786 -106.0625 171.25 C-94.1145137 176.30649843 -82.84343067 178.63024893 -70 180 C-69.97421875 180.68707031 -69.9484375 181.37414062 -69.921875 182.08203125 C-69.86515625 182.98308594 -69.8084375 183.88414062 -69.75 184.8125 C-69.70359375 185.70582031 -69.6571875 186.59914063 -69.609375 187.51953125 C-69.20689443 190.12431762 -69.20689443 190.12431762 -67.12890625 191.76953125 C-64.2895907 193.41060354 -62.28936855 193.87100516 -59 194 C-56.40988478 193.26224177 -54.41273387 192.2773297 -52 191 C-50.78306124 188.56612247 -50.68040104 186.58161154 -50.4375 183.875 C-50.31181641 182.50988281 -50.31181641 182.50988281 -50.18359375 181.1171875 C-50.12300781 180.41851562 -50.06242187 179.71984375 -50 179 C-49.1028125 178.8040625 -48.205625 178.608125 -47.28125 178.40625 C-28.95327139 174.01359397 -13.18755898 166.15736904 -3 149.625 C5.07818267 135.5256924 6.11667886 119.14570488 3.34375 103.234375 C-1.47208027 87.37534773 -12.67101464 76.66106368 -26.97265625 68.99609375 C-34.43237983 65.18918049 -42.2473905 62.14598646 -50 59 C-50 45.47 -50 31.94 -50 18 C-39.84840056 19.12795549 -39.84840056 19.12795549 -34.3125 21.375 C-33.25675781 21.79523438 -32.20101562 22.21546875 -31.11328125 22.6484375 C-28 24 -28 24 -24.921875 25.640625 C-21.97440888 27.01190603 -20.15272099 27.40557262 -16.9375 27.375 C-16.12152344 27.38273437 -15.30554688 27.39046875 -14.46484375 27.3984375 C-11.31759183 26.88968996 -9.54107643 25.92757021 -7 24 C-1.73509508 16.55691539 -0.03188415 8.99132985 0 0 Z " fill="#3D3C3C" transform="translate(319,232)"/>
<path d="M0 0 C0.33 0 0.66 0 1 0 C1.02578125 0.65226563 1.0515625 1.30453125 1.078125 1.9765625 C1.13484375 2.85054687 1.1915625 3.72453125 1.25 4.625 C1.29640625 5.48351562 1.3428125 6.34203125 1.390625 7.2265625 C2.63934373 12.90983364 6.69691944 16.93748031 10.765625 20.890625 C11.65507813 21.76460937 12.54453125 22.63859375 13.4609375 23.5390625 C14.38132812 24.43367188 15.30171875 25.32828125 16.25 26.25 C18.09303663 28.04226427 19.93182901 29.83890707 21.765625 31.640625 C22.57805664 32.42985352 23.39048828 33.21908203 24.22753906 34.03222656 C26 36 26 36 26 38 C1.25 38 -23.5 38 -49 38 C-49.66 36.02 -50.32 34.04 -51 32 C-51.66 32 -52.32 32 -53 32 C-53 31.34 -53 30.68 -53 30 C-53.57097412 29.76804932 -54.14194824 29.53609863 -54.73022461 29.29711914 C-57.5630224 27.67824696 -59.1964686 25.72525656 -61.31640625 23.24609375 C-71.69629952 10.73890578 -71.69629952 10.73890578 -86.26342773 5.17016602 C-89.91767601 5.19501532 -93.38440033 5.45042885 -97 6 C-97 5.67 -97 5.34 -97 5 C-64.99 5 -32.98 5 0 5 C0 3.35 0 1.7 0 0 Z " fill="#B9D0EE" transform="translate(112,181)"/>
<path d="M0 0 C0.84046875 -0.03738281 1.6809375 -0.07476562 2.546875 -0.11328125 C9.07182669 0.91449293 13.8509779 6.60610426 18.328125 11.08984375 C19.30709747 12.06238853 19.30709747 12.06238853 20.30584717 13.05458069 C21.67648751 14.41950472 23.04455094 15.78702086 24.41015625 17.15698242 C26.49874864 19.24874674 28.60035076 21.32680108 30.703125 23.40429688 C32.03726841 24.7361682 33.37062914 26.0688241 34.703125 27.40234375 C35.33019348 28.02020248 35.95726196 28.63806122 36.60333252 29.27464294 C40.8015898 33.51790078 43.00779285 36.64822137 43.5625 42.75 C42.99560422 49.2126119 40.10515292 53.15094035 35.25 57.3125 C31.26745216 59.57286499 26.73829353 60.27021905 22.25 59.3125 C17.2196816 56.31775246 13.28451424 52.63953848 9.171875 48.5 C8.19290253 47.52389771 8.19290253 47.52389771 7.19415283 46.52807617 C5.82359133 45.15886926 4.45552655 43.78715904 3.08984375 42.41308594 C0.99960248 40.31210044 -1.10113949 38.22204086 -3.203125 36.1328125 C-4.53710037 34.79751609 -5.8704555 33.46159971 -7.203125 32.125 C-7.83019348 31.50197998 -8.45726196 30.87895996 -9.10333252 30.23706055 C-9.68443787 29.64965088 -10.26554321 29.06224121 -10.86425781 28.45703125 C-11.37466614 27.94503174 -11.88507446 27.43303223 -12.41094971 26.90551758 C-15.88727813 22.7698609 -16.18207265 19.0247935 -16.06640625 13.78125 C-15.4351283 8.85572326 -12.71946378 6.16655143 -9.125 3 C-5.84248631 0.66768764 -3.99046723 0.11487709 0 0 Z " fill="#EDB95F" transform="translate(356.75,397.6875)"/>
<path d="M0 0 C0.89813416 -0.01283524 1.79626831 -0.02567047 2.72161865 -0.03889465 C4.17474457 -0.04997505 4.17474457 -0.04997505 5.65722656 -0.0612793 C6.65739807 -0.06935104 7.65756958 -0.07742279 8.68804932 -0.08573914 C10.8063382 -0.0995729 12.9246493 -0.11029822 15.04296875 -0.11816406 C18.2715925 -0.1353582 21.49918721 -0.17924912 24.72753906 -0.22338867 C26.78742738 -0.23351759 28.84732439 -0.24203307 30.90722656 -0.2487793 C31.86788025 -0.26628738 32.82853394 -0.28379547 33.81829834 -0.30183411 C39.95239394 -0.28212963 43.52877075 0.59235442 48.54785156 4.17700195 C52.05307772 7.8619833 52.82427212 10.73052077 52.98535156 15.67700195 C52.78844169 20.21823585 52.30890032 23.43622621 49.54785156 27.17700195 C43.67324214 32.43009402 39.30514429 32.90890951 31.57519531 32.8059082 C30.53391983 32.80832016 29.49264435 32.81073212 28.41981506 32.81321716 C26.22702206 32.81224114 24.03420366 32.79890637 21.84155273 32.77392578 C18.49214774 32.73957166 15.14537676 32.7532928 11.79589844 32.77270508 C9.65981954 32.7658073 7.52374743 32.75613554 5.38769531 32.7434082 C4.390681 32.74836807 3.39366669 32.75332794 2.36643982 32.75843811 C-3.41132441 32.66088633 -6.90480906 32.10062907 -11.45214844 28.17700195 C-15.85107947 23.18362078 -16.80891181 20.26684968 -16.73339844 13.71606445 C-16.18496842 8.76496015 -13.4516906 6.07902781 -9.88964844 2.86450195 C-6.53814696 0.5442317 -3.9765364 0.04958876 0 0 Z " fill="#EDB95F" transform="translate(399.4521484375,296.822998046875)"/>
<path d="M0 0 C0.97468735 -0.00287018 1.94937469 -0.00574036 2.95359802 -0.00869751 C5.00512272 -0.01073079 7.05666714 -0.00525269 9.1081543 0.00732422 C12.23986276 0.0234055 15.37028415 0.0074412 18.50195312 -0.01171875 C20.50130492 -0.00973653 22.50065591 -0.00589329 24.5 0 C25.89708946 -0.00910904 25.89708946 -0.00910904 27.32240295 -0.0184021 C33.24847154 0.04543274 37.7654645 0.73677091 42.328125 4.8984375 C46.77624506 10.61107329 47.46838117 15.31324404 46.68359375 22.3984375 C44.31552057 27.31674334 41.47537842 29.86049884 36.68359375 32.3984375 C33.06724987 32.97704498 29.5001041 32.95938138 25.84375 32.9296875 C24.80343124 32.9335144 23.76311249 32.93734131 22.69126892 32.94128418 C20.49672475 32.9439995 18.302148 32.93666504 16.10766602 32.91992188 C12.76049092 32.89852951 9.41546754 32.91972637 6.06835938 32.9453125 C3.93098487 32.94266873 1.7936117 32.93754275 -0.34375 32.9296875 C-1.83623512 32.94183289 -1.83623512 32.94183289 -3.35887146 32.95422363 C-10.87745616 32.85349149 -15.3728489 31.41747068 -20.75390625 25.8984375 C-23.07230397 20.7052266 -23.17112533 15.99159917 -22.31640625 10.3984375 C-20.58799217 6.03916305 -18.48512748 4.0141564 -14.35009766 1.83569336 C-9.63295814 -0.13034643 -5.04652425 -0.03297506 0 0 Z " fill="#EDB95F" transform="translate(82.31640625,296.6015625)"/>
<path d="M0 0 C5.2081315 2.18056717 8.52913942 4.85733536 11 10 C11.3984375 12.9375 11.3984375 12.9375 11.375 16 C11.38660156 17.5159375 11.38660156 17.5159375 11.3984375 19.0625 C10.51944598 25.54290805 5.71987359 29.57433199 1.28515625 33.98046875 C0.30693153 34.96156364 0.30693153 34.96156364 -0.6910553 35.96247864 C-2.06623743 37.33901763 -3.44393196 38.71305073 -4.82397461 40.0847168 C-6.93382019 42.18383889 -9.03276894 44.29343268 -11.13085938 46.40429688 C-12.47071323 47.74282938 -13.81118721 49.08074149 -15.15234375 50.41796875 C-15.77850082 51.04817429 -16.4046579 51.67837982 -17.04978943 52.3276825 C-17.64042679 52.91201553 -18.23106415 53.49634857 -18.83959961 54.09838867 C-19.35461533 54.6118132 -19.86963104 55.12523773 -20.4002533 55.65422058 C-24.4507375 59.06167144 -28.23422823 59.55202482 -33.39453125 59.4453125 C-39.11337091 58.46787963 -42.74177948 54.76937261 -46 50.1875 C-47.2874532 46.08374294 -47.89828969 42.24388829 -47 38 C-44.01192368 32.96639797 -40.32624913 29.03373002 -36.1875 24.921875 C-35.53676514 24.26922668 -34.88603027 23.61657837 -34.21557617 22.94415283 C-32.84636926 21.57359133 -31.47465904 20.20552655 -30.10058594 18.83984375 C-27.99960044 16.74960248 -25.90954086 14.64886051 -23.8203125 12.546875 C-22.48501609 11.21289963 -21.14909971 9.8795445 -19.8125 8.546875 C-19.18947998 7.91980652 -18.56645996 7.29273804 -17.92456055 6.64666748 C-17.33715088 6.06556213 -16.74974121 5.48445679 -16.14453125 4.88574219 C-15.63253174 4.37533386 -15.12053223 3.86492554 -14.59301758 3.33905029 C-10.1464591 -0.39861432 -5.60859146 -0.9010524 0 0 Z " fill="#EDB95F" transform="translate(388,169)"/>
<path d="M0 0 C4.43035103 2.10669141 7.82751559 5.36364668 11.375 8.6875 C11.9522583 9.2242334 12.5295166 9.7609668 13.12426758 10.31396484 C16.72827732 13.7019678 20.08259077 17.18943108 23.2421875 21 C26.2230602 24.39157071 29.56559993 27.42728324 32.86328125 30.5078125 C36.01021228 34.17827319 36.82507634 37.65058887 37.4375 42.375 C36.85289791 47.2188459 35.2485341 50.3739123 32 54 C26.98140262 57.82012636 22.17906646 58.7972989 16 58 C11.01445606 55.13084628 7.15961425 51.45248894 3.140625 47.40625 C2.51017273 46.77771118 1.87972046 46.14917236 1.23016357 45.50158691 C-0.09331933 44.17945823 -1.41430713 42.85482763 -2.73291016 41.52783203 C-4.75072472 39.49927142 -6.7790352 37.48164704 -8.80859375 35.46484375 C-10.09699622 34.17512025 -11.38477847 32.88477679 -12.671875 31.59375 C-13.57966705 30.69203064 -13.57966705 30.69203064 -14.50579834 29.77209473 C-15.06688293 29.20470581 -15.62796753 28.63731689 -16.20605469 28.05273438 C-16.69869812 27.55849976 -17.19134155 27.06426514 -17.69891357 26.55505371 C-21.36075456 22.17843483 -21.37063175 18.13739471 -21.24609375 12.62109375 C-20.93167468 9.27228117 -20.23073268 7.52816371 -18 5 C-17.195625 4.071875 -16.39125 3.14375 -15.5625 2.1875 C-11.15324562 -1.32439357 -5.31804074 -0.85890295 0 0 Z " fill="#EDB95F" transform="translate(134,170)"/>
<path d="M0 0 C4.8046547 2.40232735 8.65631038 5.75275009 10.75 10.8125 C11.55818792 17.8841443 11.35661835 21.29842902 7 27 C4.80777121 29.46350018 2.49124443 31.7895029 0.15234375 34.11328125 C-0.82731606 35.09581123 -0.82731606 35.09581123 -1.82676697 36.09819031 C-3.20017013 37.4729479 -4.57607592 38.8452094 -5.9543457 40.21508789 C-8.06632558 42.31630609 -10.16735939 44.42804898 -12.26757812 46.54101562 C-13.60612958 47.87824636 -14.94530082 49.21485705 -16.28515625 50.55078125 C-16.91333755 51.18301102 -17.54151886 51.81524078 -18.18873596 52.46662903 C-18.77622116 53.04780991 -19.36370636 53.62899078 -19.96899414 54.2277832 C-20.74032433 54.99672661 -20.74032433 54.99672661 -21.52723694 55.78120422 C-25.69867112 59.2333049 -31.9199693 58.41028148 -37 58 C-41.7344316 56.08608084 -44.72684393 52.54631214 -47 48 C-47.84591599 42.95642543 -48.34351879 38.00470011 -45.40307617 33.6171875 C-44.68611572 32.87726563 -43.96915527 32.13734375 -43.23046875 31.375 C-42.00457031 30.09206055 -42.00457031 30.09206055 -40.75390625 28.78320312 C-39.84511719 27.86474609 -38.93632813 26.94628906 -38 26 C-37.02395442 24.9949025 -36.04871508 23.98902153 -35.07421875 22.98242188 C-32.49896051 20.33467948 -29.89879885 17.71309409 -27.28686523 15.1015625 C-25.66686184 13.47933349 -24.05508314 11.8492006 -22.44335938 10.21875 C-21.40413393 9.17659638 -20.36443793 8.13491173 -19.32421875 7.09375 C-18.39697998 6.16240234 -17.46974121 5.23105469 -16.5144043 4.27148438 C-11.37158094 -0.37448402 -6.75925757 -0.86629725 0 0 Z " fill="#EDB95E" transform="translate(160,398)"/>
<path d="M0 0 C1.1055189 0.93590504 2.20935453 1.87379858 3.3125 2.8125 C3.92738281 3.33457031 4.54226563 3.85664063 5.17578125 4.39453125 C7 6 7 6 8.3779192 7.57542133 C11.21753324 10.06928821 14.99509821 9.43860411 18.60229492 9.43237305 C19.48055435 9.4425647 20.35881378 9.45275635 21.26368713 9.46325684 C24.16934516 9.4934736 27.07467401 9.50266601 29.98046875 9.51171875 C31.99401452 9.528559 34.00754973 9.54670835 36.02107239 9.56611633 C41.32287295 9.61369344 46.62463072 9.64345293 51.92657471 9.66955566 C57.33590141 9.6993223 62.74508057 9.74586597 68.15429688 9.79101562 C78.7694542 9.87713647 89.38464181 9.94444268 100 10 C100 10.33 100 10.66 100 11 C94.06 11 88.12 11 82 11 C82.04640625 12.36253906 82.0928125 13.72507813 82.140625 15.12890625 C82.17816232 16.94008213 82.21456037 18.75128186 82.25 20.5625 C82.28351563 21.45775391 82.31703125 22.35300781 82.3515625 23.27539062 C82.44186089 29.43825598 81.67406557 32.99811423 78 38 C74.5346788 41.19174321 71.1947065 42.89332978 66.5 43.3125 C65.675 43.209375 64.85 43.10625 64 43 C63.67 44.32 63.34 45.64 63 47 C63 45.68 63 44.36 63 43 C62.13048706 43.03927612 62.13048706 43.03927612 61.2434082 43.0793457 C58.60005125 43.18370612 55.95712801 43.24844327 53.3125 43.3125 C52.40048828 43.35439453 51.48847656 43.39628906 50.54882812 43.43945312 C43.70084585 43.56396189 43.70084585 43.56396189 40 40.5859375 C39.01 39.30589844 39.01 39.30589844 38 38 C37.236875 37.443125 36.47375 36.88625 35.6875 36.3125 C35.130625 35.879375 34.57375 35.44625 34 35 C34 34.34 34 33.68 34 33 C33.42870361 32.75975098 32.85740723 32.51950195 32.26879883 32.27197266 C29.54471194 30.74474865 27.82546751 28.93485257 25.69921875 26.6484375 C24.88646484 25.79765625 24.07371094 24.946875 23.23632812 24.0703125 C21.53871471 22.2751351 19.85114246 20.47040816 18.17382812 18.65625 C13.47411774 13.32319536 13.47411774 13.32319536 7.01953125 11.2890625 C3.90672787 11.7424508 3.90672787 11.7424508 2 14 C1.93941406 13.24074219 1.87882812 12.48148438 1.81640625 11.69921875 C1.73261719 10.70535156 1.64882813 9.71148437 1.5625 8.6875 C1.48128906 7.70136719 1.40007812 6.71523437 1.31640625 5.69921875 C1.08187441 2.90624401 1.08187441 2.90624401 0 0 Z " fill="#AFCAED" transform="translate(397,176)"/>
<path d="M0 0 C5.59468217 4.64617976 10.71667472 9.62828226 15.8125 14.8125 C17.31669447 16.34212464 18.82309449 17.86958455 20.33203125 19.39453125 C21.31780151 20.39770386 21.31780151 20.39770386 22.32348633 21.42114258 C23.92800578 23.0838526 23.92800578 23.0838526 26 24 C26 24.66 26 25.32 26 26 C26.66 26 27.32 26 28 26 C29.625 28.5 29.625 28.5 31 31 C25.40451746 33.79774127 15.14808132 32.99295917 9.23828125 31.12890625 C4.72482964 28.50680579 1.85320416 24.91403138 0 20 C-0.45541431 16.49985577 -0.3818435 13.08424273 -0.25 9.5625 C-0.23195312 8.64017578 -0.21390625 7.71785156 -0.1953125 6.76757812 C-0.14853601 4.51061267 -0.08301871 2.25587388 0 0 Z " fill="#ECF3FE" transform="translate(33,187)"/>
<path d="M0 0 C6.20498623 2.48199449 11.75819233 5.58660215 15.5 11.3125 C17.31348977 15.77066236 17.85675149 19.25757758 17 24 C14.303981 29.29218544 10.72800361 32.70095066 5.375 35.25 C3 36 3 36 0 36 C0 24.12 0 12.24 0 0 Z " fill="#3A3836" transform="translate(267,336)"/>
<path d="M0 0 C0 10.89 0 21.78 0 33 C-13.5 26.25 -13.5 26.25 -17 21 C-17.65602115 16.07221322 -17.78210559 11.53162344 -15.5 7.0625 C-11.3582363 3.64554495 -5.52698113 0 0 0 Z " fill="#222220" transform="translate(251,251)"/>
<path d="M0 0 C4.36246551 3.73925615 8.45953442 7.33186638 12.49609375 11.36328125 C13.21370628 12.07945869 13.21370628 12.07945869 13.94581604 12.81010437 C14.94093423 13.80454985 15.9348223 14.80022778 16.92749023 15.79711914 C18.45507121 17.33013372 19.98802081 18.85763767 21.52148438 20.38476562 C22.49250893 21.35644973 23.46322392 22.32844331 24.43359375 23.30078125 C25.31072021 24.17903564 26.18784668 25.05729004 27.09155273 25.9621582 C29 28 29 28 29 29 C19.76 29 10.52 29 1 29 C0.67 19.43 0.34 9.86 0 0 Z " fill="#383737" transform="translate(170,407)"/>
<path d="M0 0 C62.37 0 124.74 0 189 0 C189 0.33 189 0.66 189 1 C132.9 1 76.8 1 19 1 C19 6.94 19 12.88 19 19 C18.34 19 17.68 19 17 19 C15.625 17.6015625 15.625 17.6015625 14 15.625 C10.2214788 11.15947494 6.12529059 7.08802584 1.94140625 3.00390625 C0 1 0 1 0 0 Z " fill="#93A9C7" transform="translate(152,186)"/>
<path d="M0 0 C4.88217456 1.84570014 9.54662835 4.12268118 14.25 6.375 C20.46059137 9.34657482 26.69731561 12.22833759 33 15 C33 20.94 33 26.88 33 33 C28.34914694 29.08640141 23.91754811 25.06666061 19.62890625 20.76171875 C19.06171371 20.19548294 18.49452118 19.62924713 17.91014099 19.04585266 C16.72670827 17.86309421 15.54451227 16.67909712 14.36352539 15.49389648 C12.54622764 13.67117911 10.72356975 11.85394191 8.90039062 10.03710938 C7.74707453 8.88313353 6.59406809 7.7288481 5.44140625 6.57421875 C4.89464737 6.0294841 4.34788849 5.48474945 3.78456116 4.92350769 C0 1.11498901 0 1.11498901 0 0 Z " fill="#282726" transform="translate(215,313)"/>
<path d="M0 0 C6.27 0 12.54 0 19 0 C15.27011522 4.35153224 11.74869911 8.3499036 7.6875 12.3125 C4.42613581 15.3504529 4.42613581 15.3504529 2 19 C1.34 19 0.68 19 0 19 C0 12.73 0 6.46 0 0 Z " fill="#AFC2DF" transform="translate(341,186)"/>
<path d="M0 0 C2.31 0.66 4.62 1.32 7 2 C7 58.1 7 114.2 7 172 C6.67 172 6.34 172 6 172 C5.99945523 171.1500112 5.99891047 170.30002239 5.99834919 169.42427635 C5.98338224 148.74265088 5.94093887 128.06124101 5.86790943 107.37973595 C5.83325554 97.37829525 5.80790338 87.37699243 5.80444336 77.37548828 C5.80140402 68.65821257 5.78091766 59.94118239 5.73947543 51.22400153 C5.71814095 46.60820241 5.7055471 41.99275241 5.71384621 37.37690353 C5.72138355 33.03141852 5.70557688 28.68664106 5.67193985 24.34128571 C5.6637027 22.74739543 5.66396129 21.15343484 5.67340279 19.55955124 C5.68503408 17.38004547 5.66589801 15.20285514 5.63923645 13.02352905 C5.63647107 11.80491873 5.63370569 10.5863084 5.63085651 9.33077049 C4.79579993 4.92187282 3.07736019 3.20368177 0 0 Z " fill="#8F9BA8" transform="translate(146,226)"/>
<path d="M0 0 C1.32 1.65 2.64 3.3 4 5 C5.89883792 6.94127005 7.80538746 8.85642715 9.75 10.75 C11.52490641 12.47974339 13.27105491 14.22335987 15 16 C15 16.33 15 16.66 15 17 C10.05 17 5.1 17 0 17 C0 11.39 0 5.78 0 0 Z " fill="#CCD8EB" transform="translate(341,419)"/>
<path d="M0 0 C0.33 0 0.66 0 1 0 C1 5.61 1 11.22 1 17 C-3.95 17 -8.9 17 -14 17 C-10.18044514 12.52832602 -6.32774713 8.09232515 -2.41796875 3.69921875 C-0.92618088 2.04377778 -0.92618088 2.04377778 0 0 Z " fill="#91ADD8" transform="translate(170,419)"/>
<path d="M0 0 C5.46875 4.296875 5.46875 4.296875 7 6 C7 10.33838264 6.79141434 10.74498374 4.0625 13.75 C3.24458984 14.67039063 3.24458984 14.67039063 2.41015625 15.609375 C1 17 1 17 0 17 C0 11.39 0 5.78 0 0 Z " fill="#EDF2F9" transform="translate(342,188)"/>
<path d="M0 0 C2.31 0.66 4.62 1.32 7 2 C7 16.52 7 31.04 7 46 C6.67 46 6.34 46 6 46 C5.99589111 44.81970215 5.99178223 43.6394043 5.98754883 42.42333984 C5.96571472 38.02836933 5.9113809 33.63428865 5.84741211 29.23974609 C5.82426934 27.34074455 5.80984514 25.44161534 5.80444336 23.54248047 C5.7951264 20.8061603 5.75407769 18.07183785 5.70703125 15.3359375 C5.7109639 14.49195404 5.71489655 13.64797058 5.71894836 12.77841187 C5.5728922 6.82721279 4.25224992 4.18419025 0 0 Z " fill="#91A4BD" transform="translate(146,226)"/>
<path d="M0 0 C1.1055189 0.93590504 2.20935453 1.87379858 3.3125 2.8125 C3.92738281 3.33457031 4.54226563 3.85664063 5.17578125 4.39453125 C7 6 7 6 8.60546875 7.63671875 C9.9757745 9.1151615 9.9757745 9.1151615 12 10 C11.67 10.66 11.34 11.32 11 12 C9.88625 11.95875 8.7725 11.9175 7.625 11.875 C3.95633975 11.58878141 3.95633975 11.58878141 2 14 C1.93941406 13.24074219 1.87882812 12.48148438 1.81640625 11.69921875 C1.73261719 10.70535156 1.64882813 9.71148437 1.5625 8.6875 C1.48128906 7.70136719 1.40007812 6.71523437 1.31640625 5.69921875 C1.08187441 2.90624401 1.08187441 2.90624401 0 0 Z " fill="#97ADD1" transform="translate(397,176)"/>
<path d="M0 0 C2.97 0.33 5.94 0.66 9 1 C9 3.64 9 6.28 9 9 C7.87105124 8.06725891 6.74699124 7.12859878 5.625 6.1875 C4.99851562 5.66542969 4.37203125 5.14335937 3.7265625 4.60546875 C2 3 2 3 0 0 Z " fill="#333333" transform="translate(350,227)"/>
<path d="M0 0 C1.12894876 0.93274109 2.25300876 1.87140122 3.375 2.8125 C4.00148438 3.33457031 4.62796875 3.85664063 5.2734375 4.39453125 C7 6 7 6 9 9 C6.03 8.67 3.06 8.34 0 8 C0 5.36 0 2.72 0 0 Z " fill="#232322" transform="translate(270,205)"/>
</svg>
