<?xml version="1.0" encoding="UTF-8"?>
<svg version="1.1" xmlns="http://www.w3.org/2000/svg" width="512" height="512">
<path d="M0 0 C1.44278607 -0.00302782 2.88557053 -0.00692044 4.32835221 -0.01159257 C8.25673924 -0.02180021 12.18503427 -0.01970938 16.11342859 -0.01541197 C20.36442687 -0.01293147 24.61540375 -0.0219753 28.86639404 -0.02944946 C37.18091096 -0.04216222 45.49539552 -0.04399441 53.80992052 -0.0416492 C60.57291219 -0.03986191 67.33589408 -0.04162448 74.09888458 -0.04587364 C75.06359136 -0.04646883 76.02829813 -0.04706402 77.02223845 -0.04767724 C78.98243108 -0.04888907 80.9426237 -0.05010321 82.90281633 -0.05131962 C101.26282153 -0.06218214 119.62280835 -0.06003888 137.98281458 -0.05393478 C154.75116286 -0.04876774 171.51945301 -0.06001775 188.28778979 -0.07903299 C205.5356682 -0.09844097 222.78351915 -0.10666215 240.03140855 -0.10290974 C249.70265762 -0.10100206 259.37385723 -0.10344282 269.04509735 -0.11762428 C277.2791938 -0.1295769 285.51321036 -0.13089971 293.74730799 -0.11883412 C297.94185824 -0.11297234 302.13626264 -0.11177045 306.33080292 -0.12383652 C336.10731633 -0.20353947 367.42548245 1.19422066 390.18927002 23.06538391 C391.56783076 24.44370928 392.91648052 25.851753 394.26373291 27.26069641 C395.00236572 28.02897766 395.74099854 28.79725891 396.50201416 29.58882141 C412.24424843 47.56247918 416.59089367 72.91723922 416.52442932 95.9969635 C416.52745715 97.43974957 416.53134976 98.88253403 416.53602189 100.32531571 C416.54622954 104.25370274 416.54413871 108.18199777 416.53984129 112.11039209 C416.53736079 116.36139037 416.54640462 120.61236725 416.55387878 124.86335754 C416.56659154 133.17787446 416.56842373 141.49235902 416.56607852 149.80688402 C416.56429123 156.56987569 416.5660538 163.33285758 416.57030296 170.09584808 C416.57089815 171.06055486 416.57149334 172.02526163 416.57210657 173.01920195 C416.57331839 174.97939458 416.57453253 176.9395872 416.57574894 178.89977983 C416.58661146 197.25978503 416.5844682 215.61977185 416.5783641 233.97977808 C416.57319706 250.74812636 416.58444707 267.51641651 416.60346232 284.28475329 C416.6228703 301.5326317 416.63109147 318.78048266 416.62733907 336.02837205 C416.62543139 345.69962112 416.62787214 355.37082073 416.6420536 365.04206085 C416.65400622 373.2761573 416.65532904 381.51017386 416.64326344 389.74427149 C416.63740166 393.93882174 416.63619977 398.13322615 416.64826584 402.32776642 C416.72796879 432.10427983 415.33020866 463.42244595 393.45904541 486.18623352 C392.08072004 487.56479426 390.67267632 488.91344402 389.26373291 490.26069641 C388.49545166 490.99932922 387.72717041 491.73796204 386.93560791 492.49897766 C368.96195015 508.24121193 343.6071901 512.58785717 320.52746582 512.52139282 C319.08467975 512.52442065 317.64189529 512.52831326 316.19911361 512.53298539 C312.27072658 512.54319304 308.34243155 512.54110221 304.41403723 512.5368048 C300.16303895 512.53432429 295.91206207 512.54336813 291.66107178 512.55084229 C283.34655486 512.56355504 275.0320703 512.56538723 266.7175453 512.56304202 C259.95455363 512.56125473 253.19157174 512.5630173 246.42858124 512.56726646 C245.46387446 512.56786165 244.49916769 512.56845684 243.50522737 512.56907007 C241.54503474 512.5702819 239.58484212 512.57149603 237.62464949 512.57271244 C219.26464429 512.58357496 200.90465747 512.5814317 182.54465124 512.5753276 C165.77630296 512.57016056 149.00801281 512.58141057 132.23967603 512.60042582 C114.99179762 512.6198338 97.74394667 512.62805497 80.49605727 512.62430257 C70.8248082 512.62239489 61.15360859 512.62483564 51.48236847 512.63901711 C43.24827202 512.65096973 35.01425546 512.65229254 26.78015783 512.64022694 C22.58560758 512.63436516 18.39120318 512.63316327 14.1966629 512.64522934 C-15.57985051 512.7249323 -46.89801663 511.32717216 -69.6618042 489.45600891 C-71.04036494 488.07768354 -72.3890147 486.66963982 -73.73626709 485.26069641 C-74.4748999 484.49241516 -75.21353271 483.72413391 -75.97454834 482.93257141 C-91.71678261 464.95891365 -96.06342785 439.6041536 -95.9969635 416.52442932 C-95.99999132 415.08164325 -96.00388394 413.63885879 -96.00855607 412.19607711 C-96.01876372 408.26769008 -96.01667289 404.33939505 -96.01237547 400.41100073 C-96.00989497 396.16000245 -96.0189388 391.90902557 -96.02641296 387.65803528 C-96.03912572 379.34351836 -96.04095791 371.0290338 -96.0386127 362.7145088 C-96.03682541 355.95151713 -96.03858798 349.18853524 -96.04283714 342.42554474 C-96.04343233 341.46083796 -96.04402752 340.49613119 -96.04464075 339.50219087 C-96.04585257 337.54199825 -96.04706671 335.58180562 -96.04828312 333.621613 C-96.05914564 315.26160779 -96.05700238 296.90162098 -96.05089828 278.54161474 C-96.04573124 261.77326646 -96.05698125 245.00497631 -96.0759965 228.23663953 C-96.09540448 210.98876112 -96.10362565 193.74091017 -96.09987324 176.49302077 C-96.09796557 166.82177171 -96.10040632 157.15057209 -96.11458778 147.47933197 C-96.1265404 139.24523552 -96.12786322 131.01121896 -96.11579762 122.77712134 C-96.10993584 118.58257108 -96.10873395 114.38816668 -96.12080002 110.1936264 C-96.20050297 80.41711299 -94.80274284 49.09894687 -72.93157959 26.3351593 C-71.55325422 24.95659856 -70.1452105 23.6079488 -68.73626709 22.26069641 C-67.58384521 21.15274719 -67.58384521 21.15274719 -66.40814209 20.02241516 C-48.43448432 4.28018089 -23.07972428 -0.06646435 0 0 Z " fill="#00BA19" transform="translate(95.73626708984375,-0.2606964111328125)"/>
<path d="M0 0 C1.44278607 -0.00302782 2.88557053 -0.00692044 4.32835221 -0.01159257 C8.25673924 -0.02180021 12.18503427 -0.01970938 16.11342859 -0.01541197 C20.36442687 -0.01293147 24.61540375 -0.0219753 28.86639404 -0.02944946 C37.18091096 -0.04216222 45.49539552 -0.04399441 53.80992052 -0.0416492 C60.57291219 -0.03986191 67.33589408 -0.04162448 74.09888458 -0.04587364 C75.06359136 -0.04646883 76.02829813 -0.04706402 77.02223845 -0.04767724 C78.98243108 -0.04888907 80.9426237 -0.05010321 82.90281633 -0.05131962 C101.26282153 -0.06218214 119.62280835 -0.06003888 137.98281458 -0.05393478 C154.75116286 -0.04876774 171.51945301 -0.06001775 188.28778979 -0.07903299 C205.5356682 -0.09844097 222.78351915 -0.10666215 240.03140855 -0.10290974 C249.70265762 -0.10100206 259.37385723 -0.10344282 269.04509735 -0.11762428 C277.2791938 -0.1295769 285.51321036 -0.13089971 293.74730799 -0.11883412 C297.94185824 -0.11297234 302.13626264 -0.11177045 306.33080292 -0.12383652 C336.10731633 -0.20353947 367.42548245 1.19422066 390.18927002 23.06538391 C391.56783076 24.44370928 392.91648052 25.851753 394.26373291 27.26069641 C395.00236572 28.02897766 395.74099854 28.79725891 396.50201416 29.58882141 C412.24424843 47.56247918 416.59089367 72.91723922 416.52442932 95.9969635 C416.52745715 97.43974957 416.53134976 98.88253403 416.53602189 100.32531571 C416.54622954 104.25370274 416.54413871 108.18199777 416.53984129 112.11039209 C416.53736079 116.36139037 416.54640462 120.61236725 416.55387878 124.86335754 C416.56659154 133.17787446 416.56842373 141.49235902 416.56607852 149.80688402 C416.56429123 156.56987569 416.5660538 163.33285758 416.57030296 170.09584808 C416.57089815 171.06055486 416.57149334 172.02526163 416.57210657 173.01920195 C416.57331839 174.97939458 416.57453253 176.9395872 416.57574894 178.89977983 C416.58661146 197.25978503 416.5844682 215.61977185 416.5783641 233.97977808 C416.57319706 250.74812636 416.58444707 267.51641651 416.60346232 284.28475329 C416.6228703 301.5326317 416.63109147 318.78048266 416.62733907 336.02837205 C416.62543139 345.69962112 416.62787214 355.37082073 416.6420536 365.04206085 C416.65400622 373.2761573 416.65532904 381.51017386 416.64326344 389.74427149 C416.63740166 393.93882174 416.63619977 398.13322615 416.64826584 402.32776642 C416.72796879 432.10427983 415.33020866 463.42244595 393.45904541 486.18623352 C392.08072004 487.56479426 390.67267632 488.91344402 389.26373291 490.26069641 C388.49545166 490.99932922 387.72717041 491.73796204 386.93560791 492.49897766 C368.96195015 508.24121193 343.6071901 512.58785717 320.52746582 512.52139282 C319.08467975 512.52442065 317.64189529 512.52831326 316.19911361 512.53298539 C312.27072658 512.54319304 308.34243155 512.54110221 304.41403723 512.5368048 C300.16303895 512.53432429 295.91206207 512.54336813 291.66107178 512.55084229 C283.34655486 512.56355504 275.0320703 512.56538723 266.7175453 512.56304202 C259.95455363 512.56125473 253.19157174 512.5630173 246.42858124 512.56726646 C245.46387446 512.56786165 244.49916769 512.56845684 243.50522737 512.56907007 C241.54503474 512.5702819 239.58484212 512.57149603 237.62464949 512.57271244 C219.26464429 512.58357496 200.90465747 512.5814317 182.54465124 512.5753276 C165.77630296 512.57016056 149.00801281 512.58141057 132.23967603 512.60042582 C114.99179762 512.6198338 97.74394667 512.62805497 80.49605727 512.62430257 C70.8248082 512.62239489 61.15360859 512.62483564 51.48236847 512.63901711 C43.24827202 512.65096973 35.01425546 512.65229254 26.78015783 512.64022694 C22.58560758 512.63436516 18.39120318 512.63316327 14.1966629 512.64522934 C-15.57985051 512.7249323 -46.89801663 511.32717216 -69.6618042 489.45600891 C-71.04036494 488.07768354 -72.3890147 486.66963982 -73.73626709 485.26069641 C-74.4748999 484.49241516 -75.21353271 483.72413391 -75.97454834 482.93257141 C-91.71678261 464.95891365 -96.06342785 439.6041536 -95.9969635 416.52442932 C-95.99999132 415.08164325 -96.00388394 413.63885879 -96.00855607 412.19607711 C-96.01876372 408.26769008 -96.01667289 404.33939505 -96.01237547 400.41100073 C-96.00989497 396.16000245 -96.0189388 391.90902557 -96.02641296 387.65803528 C-96.03912572 379.34351836 -96.04095791 371.0290338 -96.0386127 362.7145088 C-96.03682541 355.95151713 -96.03858798 349.18853524 -96.04283714 342.42554474 C-96.04343233 341.46083796 -96.04402752 340.49613119 -96.04464075 339.50219087 C-96.04585257 337.54199825 -96.04706671 335.58180562 -96.04828312 333.621613 C-96.05914564 315.26160779 -96.05700238 296.90162098 -96.05089828 278.54161474 C-96.04573124 261.77326646 -96.05698125 245.00497631 -96.0759965 228.23663953 C-96.09540448 210.98876112 -96.10362565 193.74091017 -96.09987324 176.49302077 C-96.09796557 166.82177171 -96.10040632 157.15057209 -96.11458778 147.47933197 C-96.1265404 139.24523552 -96.12786322 131.01121896 -96.11579762 122.77712134 C-96.10993584 118.58257108 -96.10873395 114.38816668 -96.12080002 110.1936264 C-96.20050297 80.41711299 -94.80274284 49.09894687 -72.93157959 26.3351593 C-71.55325422 24.95659856 -70.1452105 23.6079488 -68.73626709 22.26069641 C-67.58384521 21.15274719 -67.58384521 21.15274719 -66.40814209 20.02241516 C-48.43448432 4.28018089 -23.07972428 -0.06646435 0 0 Z M116.26373291 39.26069641 C115.37766357 39.42166809 114.49159424 39.58263977 113.57867432 39.74848938 C77.43064477 46.54951934 42.87755614 61.46795983 13.26373291 83.26069641 C12.72554932 83.65611633 12.18736572 84.05153625 11.63287354 84.4589386 C4.66481388 89.60942115 -1.88986624 95.04913055 -8.24407959 100.95210266 C-10.43335873 102.98010262 -12.65926704 104.94280824 -14.92376709 106.88569641 C-22.70933316 113.69015456 -29.32836147 121.1546958 -35.73626709 129.26069641 C-36.53032959 130.24940735 -37.32439209 131.23811829 -38.14251709 132.25679016 C-61.13566152 161.39841783 -76.39080432 194.43293795 -85.73626709 230.26069641 C-86.0623999 231.50464172 -86.38853271 232.74858704 -86.72454834 234.03022766 C-87.5260842 237.42956179 -88.15971233 240.81587236 -88.73626709 244.26069641 C-88.93711914 245.38363098 -88.93711914 245.38363098 -89.14202881 246.5292511 C-93.8994498 273.98208541 -93.74828071 303.86651369 -88.73626709 331.26069641 C-88.53130615 332.53686829 -88.32634521 333.81304016 -88.11517334 335.12788391 C-85.28941542 351.16976427 -80.55419839 367.47223224 -73.73626709 382.26069641 C-73.14352368 383.63053909 -72.55394473 385.00175339 -71.96673584 386.37397766 C-60.41029113 413.21006094 -45.26285223 437.25109429 -25.22845459 458.57710266 C-23.11080431 460.8573938 -21.10206187 463.18332526 -19.11126709 465.57319641 C-13.64952128 471.69923696 -8.99251152 476.5324494 -0.44336128 477.14717102 C2.02140389 477.18806396 4.48698664 477.19079013 6.95193481 477.16304016 C8.32956949 477.17255072 9.70718594 477.18510059 11.08476841 477.20040703 C14.85170568 477.23338419 18.6174398 477.22297628 22.38443255 477.20508718 C26.454161 477.19333688 30.52364057 477.22189239 34.59329224 477.24510193 C42.55887515 477.28389491 50.52402368 477.28465165 58.489673 477.27126348 C64.96585706 477.26091205 71.44191394 477.2635122 77.91809464 477.27528381 C78.84066993 477.27693389 79.76324522 477.27858397 80.71377734 477.28028405 C82.58813852 477.28366681 84.46249967 477.28706772 86.33686079 477.29048657 C103.9051035 477.32077799 121.4731016 477.30664289 139.04133345 477.27831578 C155.10287479 477.25369056 171.16382013 477.28125077 187.22527801 477.33402014 C203.72951087 477.38783696 220.23346771 477.40837639 236.73778546 477.39218521 C238.60577014 477.39045871 240.47375488 477.38878386 242.34173965 477.38716125 C243.26074976 477.38636275 244.17975987 477.38556425 245.12661877 477.38474154 C251.59130644 477.38128082 258.05572519 477.39940098 264.52035141 477.42622375 C272.40434724 477.45850324 280.28757425 477.45894199 288.1715468 477.41880119 C292.19157659 477.39917349 296.21024458 477.39377237 300.23020935 477.42775345 C303.91613066 477.45851584 307.59951873 477.44715988 311.28528537 477.40329742 C313.23821775 477.39063149 315.19128566 477.42187176 317.14397705 477.45506287 C326.6978028 477.27499757 331.6059304 473.93322442 338.26373291 467.26069641 C338.84403664 466.70370119 339.42434038 466.14670597 340.02222908 465.57283211 C352.72375628 452.96889234 363.81398468 438.4163877 373.26373291 423.26069641 C373.67188232 422.61052551 374.08003174 421.96035461 374.50054932 421.29048157 C384.5160429 405.20238672 392.75395424 388.25716285 398.61676025 370.22651672 C399.25129584 368.29848633 399.9177625 366.38476258 400.59576416 364.47163391 C403.82960871 355.19020695 406.38861206 345.89739342 408.26373291 336.26069641 C408.54096191 334.85352356 408.54096191 334.85352356 408.8237915 333.41792297 C414.28013507 304.50530822 414.6691151 273.22001807 409.26373291 244.26069641 C409.10276123 243.37462708 408.94178955 242.48855774 408.77593994 241.57563782 C400.16787061 195.82304646 378.6751776 153.84892834 347.36138916 119.58100891 C345.5466585 117.57365321 343.80981604 115.52502032 342.07623291 113.44819641 C310.30909839 77.14289982 264.11971271 54.3770812 218.26373291 42.26069641 C217.55362061 42.07039856 216.8435083 41.88010071 216.11187744 41.68403625 C212.18894035 40.65813485 208.264878 39.91093668 204.26373291 39.26069641 C203.51946045 39.12824524 202.77518799 38.99579407 202.00836182 38.85932922 C174.34973334 34.0636582 143.86109879 34.10952914 116.26373291 39.26069641 Z " fill="#00BA18" transform="translate(95.73626708984375,-0.2606964111328125)"/>
<path d="M0 0 C0.90202148 0.16628906 1.80404297 0.33257812 2.73339844 0.50390625 C48.39877609 9.2328634 90.4328704 30.60783847 124.6796875 61.90234375 C126.6870432 63.71707441 128.73567609 65.45391687 130.8125 67.1875 C167.07319669 98.91560961 190.03231907 145.11942753 202 191 C202.32613281 192.24394531 202.65226562 193.48789063 202.98828125 194.76953125 C203.78981711 198.16886538 204.42344524 201.55517595 205 205 C205.20085205 206.12293457 205.20085205 206.12293457 205.40576172 207.26855469 C216.62267567 271.99607839 200.10584445 340.34405967 162.50537109 393.89697266 C156.08859958 402.86130445 149.10784872 411.21508613 141.5625 419.24609375 C138.65518407 422.370572 135.88400656 425.59521465 133.14453125 428.8671875 C132.43683594 429.57101562 131.72914063 430.27484375 131 431 C130.51079852 431.49278476 130.02159704 431.98556952 129.51757127 432.49328715 C123.28883543 437.98824438 117.46496011 437.85387279 109.43205261 437.78208923 C108.05528555 437.79116028 106.67853359 437.80283202 105.30180818 437.81686693 C101.53273145 437.84765317 97.76451248 437.84117669 93.99536598 437.82832515 C89.92495347 437.82091315 85.85474571 437.84797851 81.78440857 437.87043762 C73.81539339 437.90865799 65.84668155 437.91406234 57.87759014 437.90703683 C51.39853095 437.90168415 44.91956372 437.90694293 38.44051552 437.91971016 C37.05644934 437.92238851 37.05644934 437.92238851 35.64442224 437.92512097 C33.76981954 437.92875629 31.89521685 437.9323987 30.02061418 437.9360481 C12.44573021 437.9686672 -5.12898103 437.96219097 -22.70387473 437.94389356 C-38.7719376 437.92838919 -54.83945467 437.96214458 -70.90740959 438.01918822 C-87.4161188 438.07734607 -103.92456991 438.10208738 -120.43338221 438.09081846 C-129.69778859 438.08508532 -138.96173054 438.09251531 -148.22605324 438.13496208 C-156.11371561 438.17073626 -164.0006278 438.17488374 -171.88830069 438.13859158 C-175.91036096 438.12094531 -179.93104995 438.11756286 -183.95301819 438.15359879 C-187.64080971 438.18625558 -191.32608999 438.1767864 -195.01376518 438.13481373 C-196.96775506 438.12316239 -198.92185755 438.15545771 -200.87558204 438.18970436 C-210.43303727 438.01465795 -215.34042185 434.67572054 -222 428 C-222.58029506 427.44299611 -223.16059012 426.88599221 -223.75846988 426.31210941 C-236.46016391 413.70845242 -247.55030543 399.15560524 -257 384 C-257.40814941 383.3498291 -257.81629883 382.6996582 -258.23681641 382.02978516 C-268.03436912 366.29177325 -276.29368869 349.65903748 -282 332 C-282.28230469 331.175 -282.56460937 330.35 -282.85546875 329.5 C-287.22840561 316.71415417 -290.88665214 303.76909986 -293.125 290.4375 C-293.37830078 288.99213867 -293.37830078 288.99213867 -293.63671875 287.51757812 C-295.79386836 274.92288178 -296.24132443 262.62868109 -296.25 249.875 C-296.25067474 248.98427795 -296.25134949 248.09355591 -296.25204468 247.17584229 C-296.23492794 232.9267175 -295.62067359 219.04025224 -293 205 C-292.83902832 204.11393066 -292.67805664 203.22786133 -292.51220703 202.31494141 C-284.59701245 160.24503591 -265.73327741 120.5666574 -238 88 C-237.11455101 86.93079116 -236.23049753 85.86042552 -235.34765625 84.7890625 C-215.92350205 61.33406211 -192.10257575 43.40271513 -166 28 C-165.0704248 27.44844238 -165.0704248 27.44844238 -164.12207031 26.88574219 C-144.91244535 15.63608535 -123.44282603 8.59323667 -102 3 C-100.75605469 2.67386719 -99.51210937 2.34773438 -98.23046875 2.01171875 C-94.83113462 1.21018289 -91.44482405 0.57655476 -88 0 C-87.25137695 -0.13390137 -86.50275391 -0.26780273 -85.73144531 -0.40576172 C-58.08919538 -5.19600737 -27.57926127 -5.1679324 0 0 Z M-82.40136719 24.34375 C-84.36384018 24.74770288 -86.33038041 25.13172765 -88.296875 25.515625 C-109.16026198 29.6799737 -128.15467119 36.1262506 -147 46 C-144.28055516 51.86827571 -141.36337378 57.4898626 -137.9296875 62.96875 C-137.38731445 63.83918945 -136.84494141 64.70962891 -136.28613281 65.60644531 C-135.19391998 67.34461118 -134.0868375 69.07353732 -132.96386719 70.79199219 C-129.57992348 76.19308192 -128.23751894 79.61334671 -129 86 C-130.30724225 89.09610007 -131.61799902 90.66294032 -134.125 92.875 C-138.15979528 94.45383294 -141.93888257 94.62027459 -146 93 C-149.60932007 89.02249467 -152.34013582 84.98252351 -154.98828125 80.2890625 C-155.51037422 79.36956314 -155.51037422 79.36956314 -156.04301453 78.43148804 C-157.13851592 76.49913567 -158.22562312 74.56221382 -159.3125 72.625 C-160.05999352 71.30307237 -160.80803559 69.98145476 -161.55664062 68.66015625 C-163.37744085 65.44365898 -165.19075136 62.22301225 -167 59 C-171.05832574 59 -173.22631703 61.00084121 -176.375 63.3125 C-177.00003418 63.76834473 -177.62506836 64.22418945 -178.26904297 64.69384766 C-200.62389248 81.19049626 -220.53130948 101.19882712 -235 125 C-233.94683594 125.61746094 -232.89367187 126.23492187 -231.80859375 126.87109375 C-228.79140284 128.64100546 -225.77776195 130.41681525 -222.765625 132.1953125 C-219.7441581 133.97849341 -216.71360483 135.74382478 -213.671875 137.4921875 C-212.34364128 138.26543827 -211.01551128 139.03886725 -209.6875 139.8125 C-209.07253662 140.16046631 -208.45757324 140.50843262 -207.82397461 140.86694336 C-204.03912432 143.08969135 -201.40054296 145.31220937 -199 149 C-198.08790252 155.38468233 -198.08790252 155.38468233 -200.0234375 158.8125 C-202.16228517 161.50874434 -203.71415629 162.90471876 -207 164 C-212.48774023 164.43548321 -215.63607456 163.56009214 -220.37890625 160.82421875 C-220.95406479 160.4983931 -221.52922333 160.17256744 -222.12181091 159.83686829 C-223.94372144 158.80092057 -225.75305596 157.7450426 -227.5625 156.6875 C-229.37797464 155.64549345 -231.19580055 154.60768373 -233.01390076 153.57026672 C-234.6635334 152.62595174 -236.30764601 151.67201283 -237.95141602 150.7175293 C-240.92395921 149.04284031 -243.93570738 147.49903509 -247 146 C-257.44513314 165.93588864 -264.02409578 185.95147857 -268.25 208.0625 C-268.49484131 209.2992749 -268.49484131 209.2992749 -268.74462891 210.56103516 C-270.32501794 219.30450805 -270.60793633 228.1402134 -271 237 C-269.8447583 237.01981934 -268.6895166 237.03963867 -267.49926758 237.06005859 C-263.20331439 237.13626941 -258.90769308 237.22496289 -254.61206055 237.31738281 C-252.75470544 237.35560866 -250.89727792 237.39047263 -249.03979492 237.421875 C-246.36611088 237.46766461 -243.69292258 237.52563579 -241.01953125 237.5859375 C-240.19226028 237.59748871 -239.36498932 237.60903992 -238.51264954 237.62094116 C-234.29067055 237.7284322 -230.79126346 237.92069814 -227 240 C-224.58363109 243.91221633 -224.11526642 248.51501393 -225 253 C-226.75065388 256.01971525 -228.83132381 258.41566191 -232 260 C-234.9148537 260.15720097 -237.80939636 260.25855654 -240.7265625 260.31640625 C-241.58937836 260.33718735 -242.45219421 260.35796844 -243.34115601 260.37937927 C-246.10235493 260.44486034 -248.86365038 260.50375298 -251.625 260.5625 C-253.49480172 260.6056866 -255.36459362 260.64930093 -257.234375 260.69335938 C-261.82281728 260.80054024 -266.41135683 260.90181175 -271 261 C-271.30547468 269.61147661 -270.4809931 277.55877442 -268.8125 286 C-268.58691406 287.17119385 -268.36132812 288.3423877 -268.12890625 289.54907227 C-265.25663277 304.17273411 -262.2650966 318.41389164 -256 332 C-255.40763446 333.37857151 -254.81937889 334.75891346 -254.234375 336.140625 C-253.61485005 337.59386373 -252.99506 339.04698948 -252.375 340.5 C-252.0857666 341.18352539 -251.7965332 341.86705078 -251.49853516 342.57128906 C-249.98113291 346.06976846 -248.34494365 349.00673394 -246 352 C-245.35039307 351.63237549 -244.70078613 351.26475098 -244.03149414 350.88598633 C-241.04203251 349.19446501 -238.05226822 347.50347934 -235.0625 345.8125 C-234.04091797 345.23435547 -233.01933594 344.65621094 -231.96679688 344.06054688 C-229.94102131 342.9149805 -227.91425753 341.77115975 -225.88647461 340.62915039 C-224.03721801 339.58541451 -222.19133698 338.5356613 -220.34985352 337.47827148 C-219.15960571 336.80066772 -219.15960571 336.80066772 -217.9453125 336.109375 C-216.91108154 335.51527832 -216.91108154 335.51527832 -215.85595703 334.90917969 C-213.01645275 333.51818864 -211.08556139 333.38288772 -208 334 C-204.3421782 336.03993908 -202.33053826 337.50419262 -200 341 C-199.6640625 343.0859375 -199.6640625 343.0859375 -199.625 345.375 C-199.59664063 346.12523437 -199.56828125 346.87546875 -199.5390625 347.6484375 C-200.35127973 351.79212203 -203.05708109 354.34784491 -206.4543457 356.69750977 C-207.8014563 357.43698853 -207.8014563 357.43698853 -209.17578125 358.19140625 C-210.66561523 359.01995117 -210.66561523 359.01995117 -212.18554688 359.86523438 C-213.21744141 360.42533203 -214.24933594 360.98542969 -215.3125 361.5625 C-216.33279297 362.12646484 -217.35308594 362.69042969 -218.40429688 363.27148438 C-220.37759399 364.36209138 -222.35293491 365.4490108 -224.33056641 366.53173828 C-227.57619689 368.3169241 -230.79148487 370.14910763 -234 372 C-233.41055904 376.15657507 -231.03571061 379.13508177 -228.625 382.4375 C-227.95887695 383.35740723 -227.95887695 383.35740723 -227.27929688 384.29589844 C-222.99910282 390.12953356 -218.52194176 395.85761682 -213.63447785 401.19811964 C-212.37557568 402.58595802 -211.1652776 404.01799258 -209.97719932 405.46692324 C-205.68723575 410.32784011 -202.48801229 413.57205074 -195.87353897 414.26958466 C-193.54813449 414.32927458 -191.22093668 414.33499191 -188.89508057 414.29675293 C-187.60601169 414.3151751 -186.31694282 414.33359727 -184.98881125 414.35257769 C-181.43473444 414.4018102 -177.88322635 414.38927173 -174.32898569 414.36588287 C-170.48674942 414.35143362 -166.64508039 414.39458398 -162.80303955 414.42999268 C-155.2849829 414.48976911 -147.76784152 414.49514655 -140.24959877 414.47996634 C-134.13525228 414.46829744 -128.02117832 414.47473086 -121.90685272 414.49391174 C-121.03523559 414.49659897 -120.16361846 414.49928619 -119.26558869 414.50205484 C-117.49463221 414.50754156 -115.72367579 414.51304652 -113.95271942 414.51856953 C-97.35811072 414.56773714 -80.76402011 414.55259173 -64.16940734 414.51742941 C-49.00846132 414.48724028 -33.8489699 414.53559274 -18.68827513 414.62149423 C-3.10035436 414.70914176 12.48688523 414.74473733 28.07505059 414.72394228 C36.81832746 414.71315238 45.56043711 414.72242345 54.3035202 414.78587341 C61.74825314 414.83928823 69.19104279 414.84306194 76.63576671 414.78415126 C80.43010605 414.75544427 84.22094572 414.74858227 88.01507568 414.80345917 C105.66656729 415.63193321 105.66656729 415.63193321 120.86326432 408.10602236 C123.53592628 405.2451436 125.79000431 402.22310817 128 399 C129.33463661 397.37809167 130.67677573 395.76223111 132.03515625 394.16015625 C133.05550803 392.80264475 134.0653264 391.43712723 135.0625 390.0625 C135.57748047 389.37349609 136.09246094 388.68449219 136.62304688 387.97460938 C137.62144435 386.63368672 138.61231277 385.2871132 139.59423828 383.93408203 C140.54310859 382.62860259 141.50543474 381.3328128 142.47998047 380.04638672 C145.31245122 376.42611742 145.31245122 376.42611742 146 372 C145.35039307 371.6376123 144.70078613 371.27522461 144.03149414 370.90185547 C141.03969594 369.230023 138.05109481 367.55255169 135.0625 365.875 C134.04091797 365.30523437 133.01933594 364.73546875 131.96679688 364.1484375 C115.11517781 354.67276672 115.11517781 354.67276672 112 350 C111.32422265 346.26544094 111.30147142 342.63781215 112.8046875 339.11328125 C114.97327155 336.02491845 117.2980508 334.57839099 120.90625 333.92578125 C127.73602093 333.34090563 132.9357143 337.2617706 138.5625 340.6875 C140.72967153 341.96359446 142.89762312 343.23836521 145.06640625 344.51171875 C146.58838623 345.41736572 146.58838623 345.41736572 148.14111328 346.34130859 C151.69025495 348.40047755 155.30015567 350.22855938 159 352 C169.42498564 331.87803052 176.59456543 310.69736605 180.625 288.4375 C180.7515094 287.74930176 180.8780188 287.06110352 181.00836182 286.35205078 C182.53856896 277.86735109 183.34619265 269.63355876 183 261 C181.8447583 260.98018066 180.6895166 260.96036133 179.49926758 260.93994141 C175.20331439 260.86373059 170.90769308 260.77503711 166.61206055 260.68261719 C164.75470544 260.64439134 162.89727792 260.60952737 161.03979492 260.578125 C158.36611088 260.53233539 155.69292258 260.47436421 153.01953125 260.4140625 C152.19226028 260.40251129 151.36498932 260.39096008 150.51264954 260.37905884 C146.29067055 260.2715678 142.79126346 260.07930186 139 258 C136.50431345 253.95936463 136.5617609 249.60617263 137 245 C137.6875 242.125 137.6875 242.125 139 240 C143.50715512 237.52807048 148.01290705 237.65584514 153.01953125 237.5859375 C153.87810226 237.56657135 154.73667328 237.5472052 155.6212616 237.5272522 C158.35157474 237.46768444 161.08193057 237.42116266 163.8125 237.375 C165.66863773 237.33679921 167.52475812 237.29774625 169.38085938 237.2578125 C173.92043144 237.16200173 178.46008646 237.07788679 183 237 C183.20257073 228.87385899 182.85782452 221.28014737 181.25 213.3125 C181.06518066 212.36463623 180.88036133 211.41677246 180.68994141 210.44018555 C180.31189647 208.52014914 179.92806051 206.60124273 179.53808594 204.68359375 C179.06086795 202.30356647 178.62140203 199.92082078 178.1953125 197.53125 C176.40933444 188.04829674 173.4422474 179.11830292 170.125 170.0625 C169.71427246 168.93690674 169.30354492 167.81131348 168.88037109 166.65161133 C166.14613228 159.41042661 162.89068993 152.69000694 159 146 C153.12060167 148.81553379 147.41242732 151.71358251 141.84375 155.10546875 C140.93326904 155.65235352 140.02278809 156.19923828 139.0847168 156.76269531 C137.26192801 157.86391338 135.45035128 158.98394677 133.65161133 160.12402344 C128.46565743 163.23374591 124.94918128 164.63338224 118.90527344 163.65844727 C116.21991029 162.73040723 114.42661349 161.20479896 112.8125 158.87890625 C111.27772516 155.32973944 111.05782027 151.73622995 112 148 C114.75049694 144.03171665 117.42254251 141.87711889 121.6484375 139.58984375 C122.73640625 138.99236328 123.824375 138.39488281 124.9453125 137.77929688 C126.07710938 137.17150391 127.20890625 136.56371094 128.375 135.9375 C130.6131544 134.7196052 132.85017057 133.49961586 135.0859375 132.27734375 C136.64006348 131.42825439 136.64006348 131.42825439 138.22558594 130.56201172 C141.27239325 128.84664097 144.14883296 127.01999644 147 125 C140.4402667 114.09523436 132.61867477 104.6562433 124.0546875 95.27734375 C122.29434202 93.3262384 120.60815677 91.33986456 118.9375 89.3125 C115.63838007 85.45011569 111.86878043 82.27643127 108 79 C106.9426244 78.07058489 105.88674829 77.13946225 104.83203125 76.20703125 C97.23632423 69.5332165 89.45128808 63.55931907 81 58 C78.10921198 60.55314573 76.47114075 63.45189322 74.6015625 66.8046875 C73.95703125 67.94550781 73.3125 69.08632812 72.6484375 70.26171875 C71.63636195 72.06591732 70.62693719 73.87151853 69.62109375 75.67919922 C68.64255957 77.43336565 67.65340165 79.18159224 66.6640625 80.9296875 C65.78935303 82.49565674 65.78935303 82.49565674 64.89697266 84.09326172 C62.52581579 87.72659424 59.93715729 91.03142136 56 93 C48.9494324 93.57791538 48.9494324 93.57791538 45.125 91.25 C42.25594236 88.21217426 41.12713839 86.4428729 40.75854492 82.25976562 C41.04948518 78.3319251 42.21990896 76.12620382 44.17578125 72.71875 C44.5016069 72.14217651 44.82743256 71.56560303 45.16313171 70.97155762 C46.20104597 69.14062761 47.25608526 67.32030613 48.3125 65.5 C49.35417417 63.67761387 50.39225126 61.85321768 51.42973328 60.02844238 C52.37490496 58.37049336 53.32845444 56.71732863 54.2824707 55.06445312 C55.95244893 52.08484166 57.49823224 49.06729388 59 46 C30.97807859 30.90509678 -0.1016686 22.11215587 -32 22 C-32.00410889 23.15000488 -32.00821777 24.30000977 -32.01245117 25.48486328 C-32.03428932 29.76802863 -32.08862706 34.05028145 -32.15258789 38.33300781 C-32.17572719 40.18350451 -32.19015405 42.03413215 -32.19555664 43.88476562 C-32.20487625 46.55160734 -32.24592991 49.21640132 -32.29296875 51.8828125 C-32.2890361 52.70492218 -32.28510345 53.52703186 -32.28105164 54.37405396 C-32.42923862 60.26103927 -33.74950022 62.89465493 -38 67 C-41.95941061 68.97970531 -46.68752586 68.31385251 -50.875 67.3125 C-53.76903253 65.52500932 -54.0225177 64.2635296 -55 61 C-55.32154845 57.99527089 -55.37189303 55.0005491 -55.4140625 51.98046875 C-55.44311172 50.69261223 -55.44311172 50.69261223 -55.4727478 49.3787384 C-55.53231556 46.64842526 -55.57883734 43.91806943 -55.625 41.1875 C-55.66320079 39.33136227 -55.70225375 37.47524188 -55.7421875 35.61914062 C-55.83799827 31.07956856 -55.92211321 26.53991354 -56 22 C-65.09685842 21.6181518 -73.49163661 22.50796599 -82.40136719 24.34375 Z " fill="#FCFEF5" transform="translate(300,39)"/>
<path d="M0 0 C3.3258409 2.062783 6.23502468 4.47004936 8 8 C8.53599414 12.78271693 8.12605029 17.11622778 6.65625 21.69140625 C5.07547725 26.74633303 3.63846315 31.82671294 2.25 36.9375 C1.99468506 37.8756958 1.73937012 38.8138916 1.47631836 39.78051758 C-2.10434189 53.00333027 -5.49716312 66.27553361 -8.91162109 79.54199219 C-10.92617957 87.36524816 -12.95111007 95.18565875 -15 103 C-15.22929199 103.87543457 -15.45858398 104.75086914 -15.69482422 105.65283203 C-27.35467015 149.84726698 -27.35467015 149.84726698 -43.75 160.25 C-55.38211738 166.64242487 -66.17994517 168.85722077 -79.3046875 166.375 C-90.55218142 163.10300177 -99.86842682 155.96380642 -106 146 C-112.15099205 134.21059857 -114.36295485 121.8964202 -110.625 108.875 C-104.91907822 94.25603489 -92.78010566 82.96850993 -82 72 C-81.25637207 71.24122559 -80.51274414 70.48245117 -79.74658203 69.70068359 C-77.50425561 67.41887451 -75.25465861 65.14462151 -73 62.875 C-72.3186499 62.18881592 -71.6372998 61.50263184 -70.93530273 60.7956543 C-70.27602783 60.13863525 -69.61675293 59.48161621 -68.9375 58.8046875 C-68.36902344 58.23733887 -67.80054688 57.66999023 -67.21484375 57.08544922 C-65.32975745 55.31049252 -63.40642561 53.62901953 -61.44091797 51.9453125 C-56.57997673 47.7112981 -52.04741789 43.16115419 -47.5110817 38.58624649 C-45.97490979 37.03713259 -44.43547898 35.4913213 -42.89523315 33.94625854 C-39.63563594 30.67533853 -36.3800425 27.4004518 -33.125 24.125 C-29.32942736 20.30579625 -25.53221523 16.48825167 -21.73080063 12.67486191 C-20.21423759 11.15181846 -18.70071408 9.625798 -17.18728638 8.09963989 C-16.27228363 7.18133392 -15.35728088 6.26302795 -14.41455078 5.31689453 C-13.60817169 4.50527863 -12.8017926 3.69366272 -11.97097778 2.85745239 C-8.43005188 -0.47952144 -4.7044195 -0.92226929 0 0 Z " fill="#FBFFF5" transform="translate(324,181)"/>
<path d="M0 0 C1.00385742 -0.01007584 2.00771484 -0.02015167 3.04199219 -0.03053284 C6.35769818 -0.05900986 9.67294889 -0.06488928 12.98876953 -0.06811523 C15.29656155 -0.0777563 17.60435173 -0.08784877 19.91213989 -0.09837341 C24.74908702 -0.11633403 29.58587344 -0.12189447 34.42285156 -0.12011719 C40.6159847 -0.11981231 46.80808607 -0.16077359 53.00097466 -0.21243382 C57.76743285 -0.24581591 62.53364211 -0.25187419 67.30020523 -0.25028801 C69.583147 -0.25382488 71.86609543 -0.26707638 74.14892197 -0.29028511 C77.34480483 -0.31973548 80.53845492 -0.31103662 83.734375 -0.29296875 C84.67382965 -0.30982727 85.6132843 -0.32668579 86.58120728 -0.34405518 C92.42485375 -0.26025354 95.50086394 0.86852847 99.7284565 4.95359898 C102.18944396 7.83001454 102.4428963 10.51321771 102.42236328 14.26391602 C101.6480997 18.21337061 98.92523579 20.81821188 95.99658203 23.43579102 C93.7068866 24.58063873 92.40124945 24.57327728 89.85493469 24.59642029 C88.55337685 24.61148872 88.55337685 24.61148872 87.2255249 24.62686157 C85.79409149 24.63560806 85.79409149 24.63560806 84.33374023 24.64453125 C83.33032089 24.65431503 82.32690155 24.66409882 81.29307556 24.67417908 C77.96118504 24.70417521 74.62933483 24.72553148 71.29736328 24.74438477 C69.59214036 24.75424251 69.59214036 24.75424251 67.85246849 24.76429939 C61.8338686 24.7969132 55.81528657 24.82135785 49.79663086 24.84082031 C44.81362142 24.85863043 39.83117818 24.89344407 34.84838867 24.94335938 C28.83543785 25.00352869 22.82301195 25.0342922 16.8097744 25.043993 C14.51843349 25.05255537 12.22710688 25.07139252 9.93593788 25.10073662 C6.725469 25.13963685 3.517045 25.14068686 0.30639648 25.1328125 C-1.10985519 25.16281342 -1.10985519 25.16281342 -2.55471802 25.19342041 C-8.41622922 25.12898834 -11.49799576 24.02061916 -15.73696613 19.91909885 C-18.27606905 16.94522243 -18.28102696 14.31664273 -18.21826172 10.46704102 C-17.79911922 6.5042392 -16.0391288 4.27427242 -13.01535034 1.8263092 C-8.67534024 -0.17734235 -4.72788807 -0.00681274 0 0 Z " fill="#FDFFF7" transform="translate(214.00341796875,387.564208984375)"/>
<path d="M0 0 C1.55187652 3.10375303 0.33384294 5.35299485 -0.51171875 8.66796875 C-0.76596367 9.67577141 -0.76596367 9.67577141 -1.02534485 10.70393372 C-1.5728219 12.8668544 -2.13011327 15.02711433 -2.6875 17.1875 C-3.0442445 18.59294054 -3.40037076 19.99853815 -3.75585938 21.40429688 C-18.68427685 80.24422494 -18.68427685 80.24422494 -29.125 86.875 C-34.81243476 89.76074276 -40.17926632 90.23631313 -46.26953125 88.265625 C-50.605583 86.30273701 -53.39107697 84.05832472 -56 80 C-56.86625 78.6696875 -56.86625 78.6696875 -57.75 77.3125 C-59.8851776 71.65427936 -60.08427735 65.76447612 -57.6875 60.125 C-54.84409603 55.108423 -50.67547494 51.02282932 -46.72265625 46.87109375 C-44.61346225 44.64690783 -42.59961737 42.40333713 -40.625 40.0625 C-37.41997513 36.37092919 -34.00974581 32.9009832 -30.5625 29.4375 C-29.77383545 28.64194702 -29.77383545 28.64194702 -28.96923828 27.83032227 C-26.10861819 24.98068091 -23.18018267 22.26099142 -20.12109375 19.625 C-15.70736483 15.80421535 -11.60148715 11.7133569 -7.5 7.5625 C-6.77296875 6.83095703 -6.0459375 6.09941406 -5.296875 5.34570312 C-3.52890501 3.56610176 -1.76333622 1.78419082 0 0 Z " fill="#02BB1A" transform="translate(295,235)"/>
</svg>
