<?xml version="1.0" encoding="UTF-8"?>
<svg version="1.1" xmlns="http://www.w3.org/2000/svg" width="512" height="512">
<path d="M0 0 C1.44278607 -0.00302782 2.88557053 -0.00692044 4.32835221 -0.01159257 C8.25673924 -0.02180021 12.18503427 -0.01970938 16.11342859 -0.01541197 C20.36442687 -0.01293147 24.61540375 -0.0219753 28.86639404 -0.02944946 C37.18091096 -0.04216222 45.49539552 -0.04399441 53.80992052 -0.0416492 C60.57291219 -0.03986191 67.33589408 -0.04162448 74.09888458 -0.04587364 C75.06359136 -0.04646883 76.02829813 -0.04706402 77.02223845 -0.04767724 C78.98243108 -0.04888907 80.9426237 -0.05010321 82.90281633 -0.05131962 C101.26282153 -0.06218214 119.62280835 -0.06003888 137.98281458 -0.05393478 C154.75116286 -0.04876774 171.51945301 -0.06001775 188.28778979 -0.07903299 C205.5356682 -0.09844097 222.78351915 -0.10666215 240.03140855 -0.10290974 C249.70265762 -0.10100206 259.37385723 -0.10344282 269.04509735 -0.11762428 C277.2791938 -0.1295769 285.51321036 -0.13089971 293.74730799 -0.11883412 C297.94185824 -0.11297234 302.13626264 -0.11177045 306.33080292 -0.12383652 C336.10731633 -0.20353947 367.42548245 1.19422066 390.18927002 23.06538391 C391.56783076 24.44370928 392.91648052 25.851753 394.26373291 27.26069641 C395.00236572 28.02897766 395.74099854 28.79725891 396.50201416 29.58882141 C412.24424843 47.56247918 416.59089367 72.91723922 416.52442932 95.9969635 C416.52745715 97.43974957 416.53134976 98.88253403 416.53602189 100.32531571 C416.54622954 104.25370274 416.54413871 108.18199777 416.53984129 112.11039209 C416.53736079 116.36139037 416.54640462 120.61236725 416.55387878 124.86335754 C416.56659154 133.17787446 416.56842373 141.49235902 416.56607852 149.80688402 C416.56429123 156.56987569 416.5660538 163.33285758 416.57030296 170.09584808 C416.57089815 171.06055486 416.57149334 172.02526163 416.57210657 173.01920195 C416.57331839 174.97939458 416.57453253 176.9395872 416.57574894 178.89977983 C416.58661146 197.25978503 416.5844682 215.61977185 416.5783641 233.97977808 C416.57319706 250.74812636 416.58444707 267.51641651 416.60346232 284.28475329 C416.6228703 301.5326317 416.63109147 318.78048266 416.62733907 336.02837205 C416.62543139 345.69962112 416.62787214 355.37082073 416.6420536 365.04206085 C416.65400622 373.2761573 416.65532904 381.51017386 416.64326344 389.74427149 C416.63740166 393.93882174 416.63619977 398.13322615 416.64826584 402.32776642 C416.72796879 432.10427983 415.33020866 463.42244595 393.45904541 486.18623352 C392.08072004 487.56479426 390.67267632 488.91344402 389.26373291 490.26069641 C388.49545166 490.99932922 387.72717041 491.73796204 386.93560791 492.49897766 C368.96195015 508.24121193 343.6071901 512.58785717 320.52746582 512.52139282 C319.08467975 512.52442065 317.64189529 512.52831326 316.19911361 512.53298539 C312.27072658 512.54319304 308.34243155 512.54110221 304.41403723 512.5368048 C300.16303895 512.53432429 295.91206207 512.54336813 291.66107178 512.55084229 C283.34655486 512.56355504 275.0320703 512.56538723 266.7175453 512.56304202 C259.95455363 512.56125473 253.19157174 512.5630173 246.42858124 512.56726646 C245.46387446 512.56786165 244.49916769 512.56845684 243.50522737 512.56907007 C241.54503474 512.5702819 239.58484212 512.57149603 237.62464949 512.57271244 C219.26464429 512.58357496 200.90465747 512.5814317 182.54465124 512.5753276 C165.77630296 512.57016056 149.00801281 512.58141057 132.23967603 512.60042582 C114.99179762 512.6198338 97.74394667 512.62805497 80.49605727 512.62430257 C70.8248082 512.62239489 61.15360859 512.62483564 51.48236847 512.63901711 C43.24827202 512.65096973 35.01425546 512.65229254 26.78015783 512.64022694 C22.58560758 512.63436516 18.39120318 512.63316327 14.1966629 512.64522934 C-15.57985051 512.7249323 -46.89801663 511.32717216 -69.6618042 489.45600891 C-71.04036494 488.07768354 -72.3890147 486.66963982 -73.73626709 485.26069641 C-74.4748999 484.49241516 -75.21353271 483.72413391 -75.97454834 482.93257141 C-91.71678261 464.95891365 -96.06342785 439.6041536 -95.9969635 416.52442932 C-95.99999132 415.08164325 -96.00388394 413.63885879 -96.00855607 412.19607711 C-96.01876372 408.26769008 -96.01667289 404.33939505 -96.01237547 400.41100073 C-96.00989497 396.16000245 -96.0189388 391.90902557 -96.02641296 387.65803528 C-96.03912572 379.34351836 -96.04095791 371.0290338 -96.0386127 362.7145088 C-96.03682541 355.95151713 -96.03858798 349.18853524 -96.04283714 342.42554474 C-96.04343233 341.46083796 -96.04402752 340.49613119 -96.04464075 339.50219087 C-96.04585257 337.54199825 -96.04706671 335.58180562 -96.04828312 333.621613 C-96.05914564 315.26160779 -96.05700238 296.90162098 -96.05089828 278.54161474 C-96.04573124 261.77326646 -96.05698125 245.00497631 -96.0759965 228.23663953 C-96.09540448 210.98876112 -96.10362565 193.74091017 -96.09987324 176.49302077 C-96.09796557 166.82177171 -96.10040632 157.15057209 -96.11458778 147.47933197 C-96.1265404 139.24523552 -96.12786322 131.01121896 -96.11579762 122.77712134 C-96.10993584 118.58257108 -96.10873395 114.38816668 -96.12080002 110.1936264 C-96.20050297 80.41711299 -94.80274284 49.09894687 -72.93157959 26.3351593 C-71.55325422 24.95659856 -70.1452105 23.6079488 -68.73626709 22.26069641 C-67.58384521 21.15274719 -67.58384521 21.15274719 -66.40814209 20.02241516 C-48.43448432 4.28018089 -23.07972428 -0.06646435 0 0 Z " fill="#00BA19" transform="translate(95.73626708984375,-0.2606964111328125)"/>
<path d="M0 0 C1.62789881 -0.00379335 3.25579438 -0.00930169 4.88368225 -0.01637268 C9.26175869 -0.0302101 13.63943697 -0.01924188 18.01749086 -0.00266147 C22.62294015 0.0113008 27.22836891 0.00471652 31.83383179 0.00120544 C39.56197443 -0.00148737 47.28996093 0.01190049 55.01806641 0.03515625 C63.92615775 0.06177895 72.83398856 0.06350358 81.74210608 0.05176789 C90.34917541 0.04095427 98.9561514 0.04720401 107.56321335 0.06132317 C111.2096416 0.06705006 114.85600079 0.06702649 118.50242996 0.06225777 C122.80198854 0.05745261 127.10126514 0.06773464 131.40077019 0.08921242 C132.96958783 0.09473191 134.53843284 0.09529065 136.10725212 0.09025955 C153.54144044 0.04139883 169.02140721 3.46974893 181.95068359 15.90014648 C196.76701477 32.51239659 196.87206755 50.72399098 196.76708984 71.85717773 C196.76724508 74.41156556 196.76873812 76.96595363 196.77149963 79.52033997 C196.7728781 84.85172949 196.7608591 90.1828407 196.73754883 95.51416016 C196.71090778 101.64914892 196.70921085 107.78375936 196.72093719 113.91878623 C196.731769 119.86259148 196.72538316 125.80628291 196.71138191 131.75008583 C196.70688693 134.26134154 196.70651341 136.77260832 196.71044731 139.28386497 C196.71337721 142.79835742 196.69676843 146.31224449 196.67504883 149.82666016 C196.6818013 151.36137466 196.6818013 151.36137466 196.68869019 152.92709351 C196.53656653 167.83946506 191.10073272 181.44781298 180.75146484 192.24780273 C170.61443779 201.45892811 157.96812623 206.90272389 144.24365234 206.3737793 C142.81603627 206.32438093 141.3883807 206.27611473 139.96069336 206.2288208 C138.83161057 206.19018291 138.83161057 206.19018291 137.67971802 206.15076447 C132.78880941 206.00290356 127.89580762 205.94977978 123.00318909 205.88693619 C118.73064288 205.82695842 114.46589263 205.72974465 110.19677734 205.54516602 C88.09386788 204.06092078 88.09386788 204.06092078 68.99189758 213.40034103 C65.01356355 217.27107959 61.59735375 221.57271607 58.26913452 226.00201416 C55.80863741 229.08012517 53.06673712 231.51984532 50.04376221 234.0289917 C47.7239316 235.9561803 45.63989383 238.06940734 43.54443359 240.23608398 C42.74005859 241.0572168 41.93568359 241.87834961 41.10693359 242.72436523 C39.45469246 244.42119066 37.80629999 246.12177146 36.16162109 247.82592773 C30.3807143 253.70906921 26.1047457 257.80324598 17.45996094 258.02099609 C16.77885254 258.01463135 16.09774414 258.0082666 15.39599609 258.00170898 C14.68781738 257.99598877 13.97963867 257.99026855 13.25 257.984375 C7.30773689 257.78109786 3.53058479 256.60583824 -0.72900391 252.50170898 C-1.57011719 251.70506836 -1.57011719 251.70506836 -2.42822266 250.89233398 C-10.59535216 242.27037644 -10.11715594 232.62464606 -9.91650391 221.50170898 C-9.90143131 220.04469155 -9.88774746 218.58765906 -9.87548828 217.13061523 C-9.84268294 213.58732974 -9.79104298 210.04461727 -9.72900391 206.50170898 C-10.92009766 206.53393555 -12.11119141 206.56616211 -13.33837891 206.59936523 C-25.38259445 206.58082752 -37.81897031 200.35259208 -46.54150391 192.25170898 C-57.84261932 179.98350545 -62.03388322 166.36854773 -62.01953125 150.05371094 C-62.02960709 148.38835045 -62.02960709 148.38835045 -62.03988647 146.68934631 C-62.05879589 143.0395147 -62.06278731 139.38986771 -62.06494141 135.73999023 C-62.0713748 133.18564277 -62.07810356 130.63129602 -62.08511353 128.07695007 C-62.0970691 122.728363 -62.10088225 117.37984387 -62.09960938 112.03125 C-62.09841024 105.8833267 -62.1194783 99.73575572 -62.1510967 93.58792144 C-62.18059596 87.63615712 -62.18758015 81.68449832 -62.18638992 75.73265648 C-62.18873667 73.21827953 -62.19750742 70.70389945 -62.21305466 68.18956947 C-62.329193 47.46559517 -60.89484613 30.52284439 -46.10791016 14.66967773 C-32.79302402 2.53542189 -17.3611681 -0.11690954 0 0 Z " fill="#02BA1B" transform="translate(188.72900390625,126.498291015625)"/>
<path d="M0 0 C9.5631019 8.24296951 18.01133827 17.0651872 25.8125 27 C26.64701688 28.0430636 27.48165546 29.08602983 28.31640625 30.12890625 C34.0951255 37.41718201 39.11280258 44.96055697 43.8125 53 C44.51467279 54.14251285 45.21782014 55.28442724 45.921875 56.42578125 C62.35714993 83.62924839 71.88133646 115.94376267 73.55859375 147.640625 C73.71087996 152.40786624 73.71087996 152.40786624 74.8125 157 C77.05012512 158.84366026 77.05012512 158.84366026 79.875 160.3125 C92.81828012 168.0918808 99.85948655 179.46993033 104.35003662 193.70385742 C104.9765355 196.81444046 104.95632329 199.79153309 104.97363281 202.96484375 C104.97859772 203.65816299 104.98356262 204.35148224 104.98867798 205.06581116 C105.00326228 207.35638432 105.01009823 209.64688805 105.015625 211.9375 C105.01845238 212.72423096 105.02127975 213.51096191 105.02419281 214.3215332 C105.03917687 218.49153986 105.048409 222.66151205 105.05273438 226.83154297 C105.05819271 231.11037557 105.08216664 235.3888857 105.11070633 239.6676178 C105.12947231 242.98106761 105.13454585 246.29444225 105.13607025 249.60794067 C105.13907006 251.18337755 105.14700657 252.75881397 105.16025543 254.334198 C105.29435938 271.51814355 102.27968493 286.55927697 90 299.4375 C87.55448721 301.85775792 85.51349769 303.72436565 82.29101562 304.99145508 C79.12922403 306.3495985 77.15448403 307.45561893 74.8125 310 C73.46489472 315.93190842 73.72593612 321.76212973 73.9375 327.8125 C74.49824408 352.69301506 69.49602102 372.58559644 51.80078125 391.10546875 C37.72534743 404.55648406 19.08419979 411.18281855 -0.12890625 411.4140625 C-1.13718979 411.43342865 -2.14547333 411.4527948 -3.18431091 411.4727478 C-6.37279062 411.53204433 -9.56130741 411.57872769 -12.75 411.625 C-14.92514507 411.6632258 -17.10027575 411.70228014 -19.27539062 411.7421875 C-24.57929836 411.83770413 -29.88329435 411.92289436 -35.1875 412 C-35.58255737 412.81186768 -35.58255737 412.81186768 -35.9855957 413.64013672 C-36.51286255 414.71158936 -36.51286255 414.71158936 -37.05078125 415.8046875 C-37.39665283 416.51093262 -37.74252441 417.21717773 -38.09887695 417.94482422 C-42.26983827 425.81904544 -49.26312344 430.82662779 -57.62866211 433.55786133 C-63.41942064 435.25354039 -68.89477099 435.46757176 -74.8984375 435.46875 C-75.98782623 435.47636353 -77.07721497 435.48397705 -78.19961548 435.49182129 C-80.4904757 435.50256505 -82.78138467 435.50549889 -85.07226562 435.50097656 C-88.54641671 435.5000045 -92.01835439 435.54169111 -95.4921875 435.5859375 C-109.73707456 435.66299125 -121.56966529 435.37442805 -132.4375 425.02734375 C-141.26968584 414.79541417 -143.03043172 405.15502105 -142.36962891 392.11572266 C-141.56059663 382.71750058 -135.8719683 376.2299688 -129.1875 370 C-120.86367608 363.24396428 -111.0716977 361.53278282 -100.60546875 361.56640625 C-99.62943192 361.5611644 -98.65339508 361.55592255 -97.64778137 361.55052185 C-95.59649601 361.54414093 -93.54517387 361.54538721 -91.49389648 361.55395508 C-88.39303852 361.56245058 -85.29403547 361.53367045 -82.19335938 361.50195312 C-68.22180042 361.45206247 -54.87823942 361.77301412 -44.1875 372 C-35.1875 381.10273973 -35.1875 381.10273973 -35.1875 387 C-29.42537537 386.93052594 -23.66393563 386.84227896 -17.90234375 386.73754883 C-15.94734374 386.70454693 -13.9922541 386.6764403 -12.03710938 386.65356445 C6.02851388 386.43651837 22.09791309 384.96800624 35.96875 372.03515625 C47.24680641 359.58628466 49.41776278 346.38338069 49.5625 330.3125 C49.59071964 328.72457772 49.62065522 327.13668497 49.65234375 325.54882812 C49.72549128 321.69927287 49.77549548 317.85006535 49.8125 314 C49.14500732 313.8860791 48.47751465 313.7721582 47.78979492 313.65478516 C37.99307376 311.86384295 32.0382082 307.82282918 25.41796875 300.41796875 C20.56396945 293.10744426 19.21953609 286.67135646 19.26318359 277.97924805 C19.25296173 276.91456299 19.24273987 275.84987793 19.23220825 274.75292969 C19.20455349 271.25562653 19.20631938 267.75911783 19.2109375 264.26171875 C19.20315548 261.81467907 19.19448447 259.36764207 19.18496704 256.92060852 C19.17007173 251.79895256 19.17060343 246.6775724 19.18115234 241.5559082 C19.19273197 235.01585665 19.158891 228.47693972 19.112463 221.93707561 C19.08289365 216.88474507 19.08125776 211.83268473 19.08748245 206.78028297 C19.08646057 204.37030607 19.07607079 201.96031313 19.05585861 199.55042076 C18.94655485 184.69499974 18.95559179 173.73802588 29.0625 162.0625 C34.73480475 156.91843649 41.27481317 154.02836366 48.8125 153 C47.82662382 141.47104794 46.63525056 130.25161503 43.8125 119 C43.38130859 117.20369141 43.38130859 117.20369141 42.94140625 115.37109375 C30.75387961 66.87384044 -0.86475693 24.20804476 -43.625 -1.6875 C-88.98822792 -28.42942111 -143.33266657 -37.94722969 -194.71557617 -24.69189453 C-206.65154758 -21.43408071 -217.9884454 -17.23773513 -229.1875 -12 C-229.88665527 -11.67918457 -230.58581055 -11.35836914 -231.30615234 -11.02783203 C-276.77014835 9.9809941 -311.9883961 49.846841 -329.54296875 96.453125 C-331.6601188 102.24390696 -333.59692051 108.04072482 -335.1875 114 C-335.52394531 115.25296875 -335.86039063 116.5059375 -336.20703125 117.796875 C-339.18080716 129.38960777 -340.75011135 141.13160781 -342.1875 153 C-341.18626099 153.17088135 -341.18626099 153.17088135 -340.16479492 153.34521484 C-330.36807376 155.13615705 -324.4132082 159.17717082 -317.79296875 166.58203125 C-312.93896945 173.89255574 -311.59453609 180.32864354 -311.63818359 189.02075195 C-311.62796173 190.08543701 -311.61773987 191.15012207 -311.60720825 192.24707031 C-311.57955349 195.74437347 -311.58131938 199.24088217 -311.5859375 202.73828125 C-311.57815548 205.18532093 -311.56948447 207.63235793 -311.55996704 210.07939148 C-311.54507173 215.20104744 -311.54560343 220.3224276 -311.55615234 225.4440918 C-311.56773197 231.98414335 -311.533891 238.52306028 -311.487463 245.06292439 C-311.45789365 250.11525493 -311.45625776 255.16731527 -311.46248245 260.21971703 C-311.46146057 262.62969393 -311.45107079 265.03968687 -311.43085861 267.44957924 C-311.24381338 292.87080591 -311.24381338 292.87080591 -320.75 304 C-321.554375 304.66 -322.35875 305.32 -323.1875 306 C-323.909375 306.680625 -324.63125 307.36125 -325.375 308.0625 C-334.86323729 314.59884124 -344.96484666 315.39433728 -356.1875 314 C-364.94068003 311.91106791 -372.26404073 307.66248558 -379.1875 302 C-379.89648438 301.42765625 -380.60546875 300.8553125 -381.3359375 300.265625 C-387.61005005 294.64055858 -390.83137211 287.59210551 -394.1875 280 C-394.56132812 279.15824219 -394.93515625 278.31648438 -395.3203125 277.44921875 C-397.13672295 272.31908654 -397.32186467 267.21049949 -397.36450195 261.80810547 C-397.37107315 261.11449417 -397.37764435 260.42088287 -397.38441467 259.70625305 C-397.40401082 257.42656312 -397.41578132 255.14693874 -397.42578125 252.8671875 C-397.42985678 252.08229069 -397.4339323 251.29739388 -397.43813133 250.48871231 C-397.45893683 246.33167033 -397.47326063 242.17466078 -397.48266602 238.01757812 C-397.49370134 233.75440095 -397.5280835 229.49174985 -397.56783772 225.22875786 C-397.59415898 221.92389042 -397.60237162 218.61914529 -397.60594749 215.31418228 C-397.6107758 213.74430933 -397.62228056 212.17444042 -397.64098549 210.60467148 C-397.82307882 194.30636587 -393.96477369 179.77487633 -382.4375 167.6875 C-379.0139353 164.34174359 -376.05026627 162.39767723 -371.6875 160.5 C-369.08855978 159.22109671 -369.08855978 159.22109671 -367.1875 157 C-365.85048863 151.82517058 -365.59635904 146.75232982 -365.34277344 141.43017578 C-365.10056522 137.63938871 -364.51721971 133.92856546 -363.875 130.1875 C-363.74907471 129.45297607 -363.62314941 128.71845215 -363.4934082 127.96166992 C-356.74499373 90.06358673 -341.40349315 54.39436581 -316.1875 25 C-315.31249244 23.93206129 -314.43890623 22.86295712 -313.56640625 21.79296875 C-277.46069573 -22.00900735 -223.15707122 -49.03664768 -167.03320312 -54.69091797 C-105.05214013 -59.67238228 -47.1418099 -40.02030638 0 0 Z " fill="#FCFEFC" transform="translate(402.1875,66)"/>
<path d="M0 0 C1.62789881 -0.00379335 3.25579438 -0.00930169 4.88368225 -0.01637268 C9.26175869 -0.0302101 13.63943697 -0.01924188 18.01749086 -0.00266147 C22.62294015 0.0113008 27.22836891 0.00471652 31.83383179 0.00120544 C39.56197443 -0.00148737 47.28996093 0.01190049 55.01806641 0.03515625 C63.92615775 0.06177895 72.83398856 0.06350358 81.74210608 0.05176789 C90.34917541 0.04095427 98.9561514 0.04720401 107.56321335 0.06132317 C111.2096416 0.06705006 114.85600079 0.06702649 118.50242996 0.06225777 C122.80198854 0.05745261 127.10126514 0.06773464 131.40077019 0.08921242 C132.96958783 0.09473191 134.53843284 0.09529065 136.10725212 0.09025955 C153.54144044 0.04139883 169.02140721 3.46974893 181.95068359 15.90014648 C196.76701477 32.51239659 196.87206755 50.72399098 196.76708984 71.85717773 C196.76724508 74.41156556 196.76873812 76.96595363 196.77149963 79.52033997 C196.7728781 84.85172949 196.7608591 90.1828407 196.73754883 95.51416016 C196.71090778 101.64914892 196.70921085 107.78375936 196.72093719 113.91878623 C196.731769 119.86259148 196.72538316 125.80628291 196.71138191 131.75008583 C196.70688693 134.26134154 196.70651341 136.77260832 196.71044731 139.28386497 C196.71337721 142.79835742 196.69676843 146.31224449 196.67504883 149.82666016 C196.6818013 151.36137466 196.6818013 151.36137466 196.68869019 152.92709351 C196.53656653 167.83946506 191.10073272 181.44781298 180.75146484 192.24780273 C170.61443779 201.45892811 157.96812623 206.90272389 144.24365234 206.3737793 C142.81603627 206.32438093 141.3883807 206.27611473 139.96069336 206.2288208 C138.83161057 206.19018291 138.83161057 206.19018291 137.67971802 206.15076447 C132.78880941 206.00290356 127.89580762 205.94977978 123.00318909 205.88693619 C118.73064288 205.82695842 114.46589263 205.72974465 110.19677734 205.54516602 C88.09386788 204.06092078 88.09386788 204.06092078 68.99189758 213.40034103 C65.01356355 217.27107959 61.59735375 221.57271607 58.26913452 226.00201416 C55.80863741 229.08012517 53.06673712 231.51984532 50.04376221 234.0289917 C47.7239316 235.9561803 45.63989383 238.06940734 43.54443359 240.23608398 C42.74005859 241.0572168 41.93568359 241.87834961 41.10693359 242.72436523 C39.45469246 244.42119066 37.80629999 246.12177146 36.16162109 247.82592773 C30.3807143 253.70906921 26.1047457 257.80324598 17.45996094 258.02099609 C16.77885254 258.01463135 16.09774414 258.0082666 15.39599609 258.00170898 C14.68781738 257.99598877 13.97963867 257.99026855 13.25 257.984375 C7.30773689 257.78109786 3.53058479 256.60583824 -0.72900391 252.50170898 C-1.57011719 251.70506836 -1.57011719 251.70506836 -2.42822266 250.89233398 C-10.59535216 242.27037644 -10.11715594 232.62464606 -9.91650391 221.50170898 C-9.90143131 220.04469155 -9.88774746 218.58765906 -9.87548828 217.13061523 C-9.84268294 213.58732974 -9.79104298 210.04461727 -9.72900391 206.50170898 C-10.92009766 206.53393555 -12.11119141 206.56616211 -13.33837891 206.59936523 C-25.38259445 206.58082752 -37.81897031 200.35259208 -46.54150391 192.25170898 C-57.84261932 179.98350545 -62.03388322 166.36854773 -62.01953125 150.05371094 C-62.02960709 148.38835045 -62.02960709 148.38835045 -62.03988647 146.68934631 C-62.05879589 143.0395147 -62.06278731 139.38986771 -62.06494141 135.73999023 C-62.0713748 133.18564277 -62.07810356 130.63129602 -62.08511353 128.07695007 C-62.0970691 122.728363 -62.10088225 117.37984387 -62.09960938 112.03125 C-62.09841024 105.8833267 -62.1194783 99.73575572 -62.1510967 93.58792144 C-62.18059596 87.63615712 -62.18758015 81.68449832 -62.18638992 75.73265648 C-62.18873667 73.21827953 -62.19750742 70.70389945 -62.21305466 68.18956947 C-62.329193 47.46559517 -60.89484613 30.52284439 -46.10791016 14.66967773 C-32.79302402 2.53542189 -17.3611681 -0.11690954 0 0 Z M-31.72900391 34.50170898 C-35.55037948 40.20895822 -37.8438456 45.22395577 -37.8694458 52.13615417 C-37.87515594 53.06261749 -37.88086609 53.98908081 -37.88674927 54.94361877 C-37.88786713 55.95303024 -37.88898499 56.96244171 -37.89013672 58.00244141 C-37.89510162 59.07121521 -37.90006653 60.13998901 -37.90518188 61.2411499 C-37.91979596 64.77983239 -37.92660487 68.31847002 -37.93212891 71.85717773 C-37.93788169 74.31854758 -37.94363941 76.77991741 -37.94940186 79.24128723 C-37.95991019 84.40532642 -37.96575373 89.56935006 -37.96923828 94.73339844 C-37.97471764 101.33967831 -37.99873469 107.94575153 -38.02721024 114.55196667 C-38.04586669 119.63843886 -38.05104386 124.72486162 -38.05257416 129.81136513 C-38.05559523 132.24613892 -38.06360526 134.68091195 -38.07675934 137.11565208 C-38.0938796 140.52859416 -38.09192453 143.9410359 -38.08544922 147.35400391 C-38.094664 148.35329422 -38.10387878 149.35258453 -38.1133728 150.38215637 C-38.05460749 160.30690536 -35.56734711 168.18404266 -28.72900391 175.50170898 C-20.57692594 182.73576016 -12.14795067 182.83591485 -1.69580078 182.98022461 C7.43197219 183.23429025 7.43197219 183.23429025 11.27099609 186.50170898 C13.33980251 189.60491861 13.52915188 190.35110376 13.58984375 193.88134766 C13.60971344 194.76203415 13.62958313 195.64272064 13.65005493 196.5500946 C13.66160614 197.49705704 13.67315735 198.44401947 13.68505859 199.41967773 C13.70442474 200.39205887 13.72379089 201.36444 13.7437439 202.36628723 C13.80355159 205.47383842 13.84992999 208.58142664 13.89599609 211.68920898 C13.93417476 213.79534498 13.97322643 215.90146535 14.01318359 218.00756836 C14.1092542 223.17215503 14.19328101 228.3368148 14.27099609 233.50170898 C17.48729751 231.97567484 19.55868908 230.40370127 22.02099609 227.81420898 C24.54859415 225.16447909 27.16120284 222.71357652 29.93847656 220.33203125 C34.13354356 216.67392974 38.07251957 212.81241239 41.98193359 208.85327148 C42.6761441 208.15527435 43.37035461 207.45727722 44.08560181 206.73812866 C46.27487478 204.5367635 48.46083346 202.33215379 50.64599609 200.12670898 C53.54678888 197.19937878 56.45084524 194.27534348 59.35693359 191.35327148 C60.35374649 190.34401108 60.35374649 190.34401108 61.37069702 189.31436157 C61.98538849 188.69636688 62.60007996 188.07837219 63.23339844 187.44165039 C63.77330414 186.89650787 64.31320984 186.35136536 64.86947632 185.78970337 C68.08512139 182.8345308 71.54928339 183.35685434 75.66723633 183.35986328 C76.81159904 183.35465164 76.81159904 183.35465164 77.9790802 183.34933472 C79.64001674 183.34197198 81.30096316 183.33662936 82.96191216 183.33304405 C85.5989615 183.32587507 88.23582513 183.31020152 90.87281799 183.29170227 C98.37229736 183.23928024 105.87167961 183.19134172 113.37133789 183.17578125 C117.95799416 183.16564082 122.54418956 183.1361555 127.13066292 183.09446144 C128.87154703 183.08222327 130.61249649 183.07701693 132.35342216 183.07925987 C144.14509862 183.09070413 155.66773239 182.89698759 164.77099609 174.27514648 C169.96673143 168.13227189 172.37542112 161.76538499 172.41816711 153.7537384 C172.42532242 152.82734558 172.43247772 151.90095276 172.43984985 150.94648743 C172.44253876 149.94224228 172.44522766 148.93799713 172.44799805 147.90332031 C172.45785484 146.30235001 172.45785484 146.30235001 172.46791077 144.66903687 C172.48760385 141.14060389 172.49929761 137.61221341 172.50927734 134.08374023 C172.51335287 132.87619268 172.5174284 131.66864513 172.52162743 130.42450523 C172.54247126 124.03284248 172.55678024 117.64120109 172.56616211 111.24951172 C172.57722223 104.66011216 172.61162296 98.07105066 172.65133381 91.48177052 C172.67752218 86.40383796 172.68585596 81.3259857 172.68944359 76.24799156 C172.69430382 73.81961471 172.70590162 71.39124131 172.72448158 68.96293068 C172.74891908 65.55737384 172.74789909 62.15268862 172.7409668 58.74707031 C172.75377686 57.75294632 172.76658691 56.75882233 172.77978516 55.73457336 C172.71344499 46.74925722 170.26304502 38.71319172 164.04443359 32.03686523 C157.21212866 26.12255722 150.42595996 24.38656706 141.54890442 24.35453796 C140.55465117 24.34902293 140.55465117 24.34902293 139.54031199 24.34339648 C137.32659 24.33241266 135.11291502 24.32852487 132.89916992 24.32470703 C131.30876519 24.31843837 129.7183619 24.31179121 128.12796021 24.30479431 C122.9113262 24.28379932 117.69469206 24.27339616 112.47802734 24.26342773 C110.67879407 24.25937847 108.87956095 24.2552615 107.08032799 24.25107765 C98.6259851 24.23203597 90.17165089 24.21780282 81.7172907 24.20946568 C71.97332097 24.1996969 62.22957862 24.17338246 52.48568898 24.13296479 C44.9440911 24.10276064 37.40255824 24.08799273 29.86090106 24.08468467 C25.36129985 24.08233911 20.86194185 24.07344314 16.36240578 24.0482235 C12.12616624 24.0248623 7.89032867 24.02074165 3.65404129 24.03098488 C2.10533113 24.0314784 0.55660063 24.02521252 -0.99204826 24.01142883 C-12.76892041 23.9125328 -23.59885236 25.08893811 -31.72900391 34.50170898 Z " fill="#FBFDFB" transform="translate(188.72900390625,126.498291015625)"/>
<path d="M0 0 C8.29991367 1.34985155 13.75709061 5.73425285 19.21484375 11.8984375 C24.64146012 20.15742177 24.36510644 28.50265787 24.33984375 38.03125 C24.34441298 39.54525485 24.34972075 41.05925762 24.35572815 42.57325745 C24.36462893 45.73618023 24.36227101 48.89885011 24.35229492 52.06176758 C24.34080869 56.09434964 24.36102605 60.12605554 24.39021206 64.15852261 C24.40864901 67.28230742 24.40826681 70.40588514 24.40257454 73.52971077 C24.40242224 75.01551607 24.40839026 76.50133623 24.42086601 77.98708916 C24.5055991 89.73039529 22.90657081 97.98464972 14.7734375 106.74609375 C9.58100939 111.54746033 3.962314 113.56748265 -3.03125 113.84765625 C-3.86527344 113.89664063 -4.69929688 113.945625 -5.55859375 113.99609375 C-9.42115628 113.19858469 -10.6966501 111.58099642 -13.09375 108.47265625 C-13.83156227 105.15995175 -13.77725224 101.91220905 -13.74072266 98.52929688 C-13.74948425 97.53198044 -13.75824585 96.534664 -13.76727295 95.50712585 C-13.78926052 92.21394205 -13.77471563 88.92210346 -13.7578125 85.62890625 C-13.76118079 83.3387425 -13.76603352 81.04858049 -13.77230835 78.75842285 C-13.77967885 73.96003185 -13.76896785 69.1621064 -13.74560547 64.36376953 C-13.71711831 58.21308587 -13.73352123 52.06349306 -13.76346779 45.91284943 C-13.78153553 41.18418153 -13.77578497 36.45577225 -13.76282883 31.72709656 C-13.7594934 29.45928315 -13.76358663 27.19144626 -13.77522659 24.92366028 C-13.78792601 21.75381274 -13.76856916 18.58573158 -13.74072266 15.41601562 C-13.75084381 14.47872116 -13.76096497 13.5414267 -13.77139282 12.57572937 C-13.69747182 8.03373231 -13.56998348 6.08856137 -10.71224976 2.3927002 C-6.96037114 -0.35840635 -4.51968026 -0.23691872 0 0 Z " fill="#01BA1A" transform="translate(459.09375,242.52734375)"/>
<path d="M0 0 C5.58581271 3.44900754 5.58581271 3.44900754 6.55812645 7.08999634 C6.77549301 9.72415693 6.79917579 12.30036587 6.76049805 14.94335938 C6.76940567 15.94067581 6.77831329 16.93799225 6.78749084 17.9655304 C6.80878385 21.25893771 6.78646001 24.55039059 6.76171875 27.84375 C6.76322103 30.13391317 6.76665072 32.42407582 6.77192688 34.7142334 C6.77625957 39.51271146 6.75941 44.31051777 6.72729492 49.10888672 C6.68751444 55.25960002 6.69681281 61.40905358 6.72152996 67.55980682 C6.73571227 72.28849615 6.72562673 77.0168912 6.70801735 81.74555969 C6.70216707 84.01336464 6.70347057 86.28119968 6.71204185 88.54899597 C6.72003256 91.71889163 6.69579332 94.88694124 6.6628418 98.05664062 C6.67139191 98.99393509 6.67994202 99.93122955 6.68875122 100.89692688 C6.60709897 105.44752532 6.47765215 107.38560249 3.60383606 111.08215332 C0.02987441 113.71454273 -2.01340347 113.65716617 -6.3125 113.4140625 C-14.58092179 112.14014868 -20.92925541 108.68906733 -26 102 C-29.49974206 96.19554976 -31.12216829 91.27167225 -31.16113281 84.45239258 C-31.16609772 83.79180847 -31.17106262 83.13122437 -31.17617798 82.45062256 C-31.19078061 80.26524815 -31.19759995 78.07994644 -31.203125 75.89453125 C-31.20887994 74.37098693 -31.21463763 72.84744262 -31.22039795 71.32389832 C-31.23090387 68.12698022 -31.23674857 64.93008723 -31.24023438 61.7331543 C-31.24570495 57.65231021 -31.26970358 53.57180216 -31.29820633 49.49106312 C-31.3169083 46.34161946 -31.32204241 43.19225533 -31.32357025 40.04276085 C-31.3265825 38.53937642 -31.33456243 37.03599291 -31.34775543 35.53266335 C-31.44837651 23.18086535 -30.23827754 15.43195541 -21.45703125 6.2109375 C-15.61572449 0.95469008 -7.87114689 -2.01471327 0 0 Z " fill="#01BA1A" transform="translate(60,243)"/>
<path d="M0 0 C1.38218719 -0.02409439 1.38218719 -0.02409439 2.79229736 -0.04867554 C7.01337971 -0.09314606 11.23430448 -0.13420037 15.45556641 -0.15722656 C17.68060778 -0.17377565 19.90559622 -0.20105164 22.13037109 -0.23925781 C25.33947312 -0.29408573 28.54732829 -0.31591126 31.75683594 -0.33056641 C32.74766174 -0.35323578 33.73848755 -0.37590515 34.75933838 -0.39926147 C39.31079817 -0.385374 42.53666908 -0.33221799 46.16601562 2.60058594 C49.70505264 6.44286559 49.90022981 8.80215586 49.83496094 13.86865234 C49.39766879 17.48238607 47.95992849 19.52652191 45.55371094 22.19287109 C40.84671587 24.83995305 35.90168527 24.51607692 30.65136719 24.52880859 C29.21838539 24.53879379 29.21838539 24.53879379 27.75645447 24.54898071 C25.74008097 24.55908609 23.72367418 24.56379839 21.70727539 24.56347656 C18.63013444 24.5678513 15.55442663 24.60419775 12.47753906 24.64208984 C10.51465332 24.6479582 8.5517608 24.65192747 6.58886719 24.65380859 C5.67307388 24.66817963 4.75728058 24.68255066 3.81373596 24.69735718 C-1.91515111 24.6565722 -5.04919423 23.94158668 -9.44628906 20.19287109 C-12.1566574 16.2176642 -12.2585084 11.84101738 -11.44628906 7.19287109 C-8.6608281 2.20182208 -5.61488288 0.08888317 0 0 Z " fill="#01BA1A" transform="translate(295.4462890625,452.80712890625)"/>
<path d="M0 0 C5.50085352 2.5040596 8.75699084 4.65460668 11.47265625 10.0859375 C13.31069617 15.60005725 12.8392487 19.9147807 10.59765625 25.2109375 C7.558568 30.87469287 3.51256633 33.21148265 -2.52734375 35.0859375 C-7.80916537 35.79018038 -11.03690115 34.9168687 -15.52734375 32.0859375 C-20.70534897 27.75086336 -23.19247162 23.26722272 -23.90234375 16.5234375 C-23.2051359 10.13236557 -20.33199125 6.22016907 -15.52734375 2.0859375 C-10.26864102 -1.22933161 -5.96005058 -2.15556698 0 0 Z " fill="#F9FDF9" transform="translate(261.52734375,214.9140625)"/>
<path d="M0 0 C4.75178615 2.833308 8.32785808 6.03462241 10.83984375 11.05859375 C11.36763642 17.27030745 11.58388018 22.81694275 7.83984375 28.05859375 C3.31215324 32.38942815 -0.25307722 34.72949046 -6.47265625 35.43359375 C-12.27371072 34.84365601 -16.46589371 32.79744214 -20.53515625 28.62109375 C-23.96087635 23.21899666 -25.18947436 18.42550992 -24.16015625 12.05859375 C-21.85364605 6.43585644 -18.52263959 2.97298687 -13.16015625 0.05859375 C-8.60269471 -1.4605601 -4.44239501 -1.93601663 0 0 Z " fill="#FAFDFA" transform="translate(204.16015625,214.94140625)"/>
<path d="M0 0 C5.24380269 2.523803 7.99698919 6.03665258 10.3125 11.3125 C11.35096051 17.736465 10.00846338 23.00331482 6.3125 28.3125 C2.06525023 32.55974977 -2.1803009 33.98749271 -8.0625 34.75 C-14.0598084 34.02618692 -18.06998621 31.05443793 -22.125 26.6875 C-25.45918098 21.61954491 -25.293482 16.18715888 -24.6875 10.3125 C-19.70714192 0.16732614 -10.59092676 -4.302564 0 0 Z " fill="#FAFDFB" transform="translate(321.6875,215.6875)"/>
</svg>
