<?xml version="1.0" encoding="UTF-8"?>
<svg version="1.1" xmlns="http://www.w3.org/2000/svg" width="512" height="512">
<path d="M0 0 C1.44278607 -0.00302782 2.88557053 -0.00692044 4.32835221 -0.01159257 C8.25673924 -0.02180021 12.18503427 -0.01970938 16.11342859 -0.01541197 C20.36442687 -0.01293147 24.61540375 -0.0219753 28.86639404 -0.02944946 C37.18091096 -0.04216222 45.49539552 -0.04399441 53.80992052 -0.0416492 C60.57291219 -0.03986191 67.33589408 -0.04162448 74.09888458 -0.04587364 C75.06359136 -0.04646883 76.02829813 -0.04706402 77.02223845 -0.04767724 C78.98243108 -0.04888907 80.9426237 -0.05010321 82.90281633 -0.05131962 C101.26282153 -0.06218214 119.62280835 -0.06003888 137.98281458 -0.05393478 C154.75116286 -0.04876774 171.51945301 -0.06001775 188.28778979 -0.07903299 C205.5356682 -0.09844097 222.78351915 -0.10666215 240.03140855 -0.10290974 C249.70265762 -0.10100206 259.37385723 -0.10344282 269.04509735 -0.11762428 C277.2791938 -0.1295769 285.51321036 -0.13089971 293.74730799 -0.11883412 C297.94185824 -0.11297234 302.13626264 -0.11177045 306.33080292 -0.12383652 C336.10731633 -0.20353947 367.42548245 1.19422066 390.18927002 23.06538391 C391.56783076 24.44370928 392.91648052 25.851753 394.26373291 27.26069641 C395.00236572 28.02897766 395.74099854 28.79725891 396.50201416 29.58882141 C412.24424843 47.56247918 416.59089367 72.91723922 416.52442932 95.9969635 C416.52745715 97.43974957 416.53134976 98.88253403 416.53602189 100.32531571 C416.54622954 104.25370274 416.54413871 108.18199777 416.53984129 112.11039209 C416.53736079 116.36139037 416.54640462 120.61236725 416.55387878 124.86335754 C416.56659154 133.17787446 416.56842373 141.49235902 416.56607852 149.80688402 C416.56429123 156.56987569 416.5660538 163.33285758 416.57030296 170.09584808 C416.57089815 171.06055486 416.57149334 172.02526163 416.57210657 173.01920195 C416.57331839 174.97939458 416.57453253 176.9395872 416.57574894 178.89977983 C416.58661146 197.25978503 416.5844682 215.61977185 416.5783641 233.97977808 C416.57319706 250.74812636 416.58444707 267.51641651 416.60346232 284.28475329 C416.6228703 301.5326317 416.63109147 318.78048266 416.62733907 336.02837205 C416.62543139 345.69962112 416.62787214 355.37082073 416.6420536 365.04206085 C416.65400622 373.2761573 416.65532904 381.51017386 416.64326344 389.74427149 C416.63740166 393.93882174 416.63619977 398.13322615 416.64826584 402.32776642 C416.72796879 432.10427983 415.33020866 463.42244595 393.45904541 486.18623352 C392.08072004 487.56479426 390.67267632 488.91344402 389.26373291 490.26069641 C388.49545166 490.99932922 387.72717041 491.73796204 386.93560791 492.49897766 C368.96195015 508.24121193 343.6071901 512.58785717 320.52746582 512.52139282 C319.08467975 512.52442065 317.64189529 512.52831326 316.19911361 512.53298539 C312.27072658 512.54319304 308.34243155 512.54110221 304.41403723 512.5368048 C300.16303895 512.53432429 295.91206207 512.54336813 291.66107178 512.55084229 C283.34655486 512.56355504 275.0320703 512.56538723 266.7175453 512.56304202 C259.95455363 512.56125473 253.19157174 512.5630173 246.42858124 512.56726646 C245.46387446 512.56786165 244.49916769 512.56845684 243.50522737 512.56907007 C241.54503474 512.5702819 239.58484212 512.57149603 237.62464949 512.57271244 C219.26464429 512.58357496 200.90465747 512.5814317 182.54465124 512.5753276 C165.77630296 512.57016056 149.00801281 512.58141057 132.23967603 512.60042582 C114.99179762 512.6198338 97.74394667 512.62805497 80.49605727 512.62430257 C70.8248082 512.62239489 61.15360859 512.62483564 51.48236847 512.63901711 C43.24827202 512.65096973 35.01425546 512.65229254 26.78015783 512.64022694 C22.58560758 512.63436516 18.39120318 512.63316327 14.1966629 512.64522934 C-15.57985051 512.7249323 -46.89801663 511.32717216 -69.6618042 489.45600891 C-71.04036494 488.07768354 -72.3890147 486.66963982 -73.73626709 485.26069641 C-74.4748999 484.49241516 -75.21353271 483.72413391 -75.97454834 482.93257141 C-91.71678261 464.95891365 -96.06342785 439.6041536 -95.9969635 416.52442932 C-95.99999132 415.08164325 -96.00388394 413.63885879 -96.00855607 412.19607711 C-96.01876372 408.26769008 -96.01667289 404.33939505 -96.01237547 400.41100073 C-96.00989497 396.16000245 -96.0189388 391.90902557 -96.02641296 387.65803528 C-96.03912572 379.34351836 -96.04095791 371.0290338 -96.0386127 362.7145088 C-96.03682541 355.95151713 -96.03858798 349.18853524 -96.04283714 342.42554474 C-96.04343233 341.46083796 -96.04402752 340.49613119 -96.04464075 339.50219087 C-96.04585257 337.54199825 -96.04706671 335.58180562 -96.04828312 333.621613 C-96.05914564 315.26160779 -96.05700238 296.90162098 -96.05089828 278.54161474 C-96.04573124 261.77326646 -96.05698125 245.00497631 -96.0759965 228.23663953 C-96.09540448 210.98876112 -96.10362565 193.74091017 -96.09987324 176.49302077 C-96.09796557 166.82177171 -96.10040632 157.15057209 -96.11458778 147.47933197 C-96.1265404 139.24523552 -96.12786322 131.01121896 -96.11579762 122.77712134 C-96.10993584 118.58257108 -96.10873395 114.38816668 -96.12080002 110.1936264 C-96.20050297 80.41711299 -94.80274284 49.09894687 -72.93157959 26.3351593 C-71.55325422 24.95659856 -70.1452105 23.6079488 -68.73626709 22.26069641 C-67.58384521 21.15274719 -67.58384521 21.15274719 -66.40814209 20.02241516 C-48.43448432 4.28018089 -23.07972428 -0.06646435 0 0 Z " fill="#00BA19" transform="translate(95.73626708984375,-0.2606964111328125)"/>
<path d="M0 0 C1.22557365 -0.0098568 1.22557365 -0.0098568 2.47590637 -0.01991272 C5.17347318 -0.03958014 7.8709843 -0.0512977 10.56860352 -0.0612793 C11.49534441 -0.06535482 12.4220853 -0.06943035 13.37690926 -0.07362938 C18.28837991 -0.09446869 23.19982287 -0.10877602 28.11132812 -0.11816406 C33.15115616 -0.12918505 38.1905374 -0.16354105 43.2302084 -0.20333576 C47.13306928 -0.22965917 51.03582657 -0.23787006 54.93876839 -0.24144554 C56.7944647 -0.24627607 58.6501575 -0.25778734 60.50576591 -0.27648354 C81.38692615 -0.47368684 100.11571204 4.42593493 115.76000977 19.17700195 C124.87962183 28.41622609 124.87962183 28.41622609 126.76000977 32.17700195 C128.34495995 32.16367828 128.34495995 32.16367828 129.96192932 32.15008545 C139.97889018 32.06857054 149.99578267 32.00883228 160.01300144 31.96975327 C165.16147886 31.9489861 170.30968593 31.92086999 175.45800781 31.87524414 C180.43770395 31.83139498 185.41714204 31.80778338 190.39701653 31.79749298 C192.28539014 31.79017106 194.17375158 31.77587577 196.06201363 31.75408173 C217.85086791 31.51287765 235.01484767 36.36511789 251.76000977 51.17700195 C252.37231445 51.69520508 252.98461914 52.2134082 253.61547852 52.74731445 C265.92007082 63.95378525 273.72326167 81.41693923 274.96244812 97.86383057 C275.05428892 100.70416585 275.08946875 103.53831702 275.09594727 106.38012695 C275.10260406 107.42038025 275.10926086 108.46063354 275.11611938 109.53240967 C275.12618424 111.720726 275.13093833 113.90907265 275.13061523 116.09741211 C275.13497996 119.40441726 275.17134409 122.71007655 275.20922852 126.0168457 C275.31339281 145.39606107 272.60130495 161.60729093 258.44750977 176.05200195 C253.62488986 180.64308318 248.70446802 184.19455898 242.76000977 187.17700195 C242.13352539 187.4915332 241.50704102 187.80606445 240.86157227 188.13012695 C233.55443993 191.50264957 226.60152148 192.47492996 218.68188477 192.40405273 C217.81264877 192.40434479 216.94341278 192.40463684 216.0478363 192.40493774 C213.2017892 192.40355494 210.3560106 192.38804357 207.51000977 192.37231445 C205.52604312 192.36858059 203.54207462 192.36573538 201.55810547 192.36373901 C196.3565759 192.35613198 191.15515944 192.33650882 185.95367432 192.31433105 C180.63783294 192.29380932 175.32197315 192.2847238 170.00610352 192.2746582 C159.59068946 192.25326003 149.17535905 192.21915968 138.76000977 192.17700195 C138.76000977 186.89700195 138.76000977 181.61700195 138.76000977 176.17700195 C162.52000977 176.17700195 186.28000977 176.17700195 210.76000977 176.17700195 C210.76000977 147.13700195 210.76000977 118.09700195 210.76000977 88.17700195 C216.04000977 88.17700195 221.32000977 88.17700195 226.76000977 88.17700195 C226.76000977 116.88700195 226.76000977 145.59700195 226.76000977 175.17700195 C239.06928617 170.04813678 247.64759146 165.96944884 253.76000977 154.17700195 C254.95349993 151.21901848 255.90313325 148.24696242 256.76000977 145.17700195 C257.09000977 144.18700195 257.42000977 143.19700195 257.76000977 142.17700195 C257.87035957 140.74336254 257.92862535 139.30535123 257.95288086 137.86767578 C257.96894379 136.99859085 257.98500671 136.12950592 258.0015564 135.23408508 C258.04653022 131.2148237 258.08717629 127.19572532 258.11010742 123.17626953 C258.126528 121.0749188 258.15362935 118.9736206 258.19213867 116.87255859 C258.56288607 96.50885481 255.98039093 79.79447455 241.44750977 64.36450195 C230.90209336 54.37222922 217.67997971 49.09186211 203.21582031 48.97167969 C202.47381882 48.96178009 201.73181732 48.95188049 200.96733093 48.94168091 C198.52716202 48.91022161 196.08697368 48.88537042 193.64672852 48.8605957 C191.94993091 48.84001271 190.25313829 48.81901589 188.55635071 48.79762268 C184.09959959 48.74254092 179.64280326 48.6930706 175.18597412 48.64477539 C170.63444007 48.59445866 166.08297133 48.53882578 161.53149414 48.48364258 C152.60772186 48.37623106 143.68389278 48.27474861 134.76000977 48.17700195 C134.9649707 48.75708008 135.16993164 49.3371582 135.38110352 49.93481445 C135.65051758 50.71598633 135.91993164 51.4971582 136.19750977 52.30200195 C136.59776367 53.45055664 136.59776367 53.45055664 137.00610352 54.62231445 C138.76083565 60.56840159 138.92228515 66.31874086 138.95288086 72.46435547 C138.96105835 73.3806926 138.96923584 74.29702972 138.97766113 75.24113464 C139.00239689 78.2627194 139.01900312 81.28425745 139.03344727 84.3059082 C139.03877094 85.3433058 139.04409462 86.38070339 139.04957962 87.44953728 C139.07626318 92.94340143 139.09565116 98.43724326 139.11010742 103.93115234 C139.12342589 108.45772601 139.1512475 112.9838467 139.19213867 117.51025391 C139.24168456 122.99615316 139.26625528 128.48164288 139.2733345 133.96775627 C139.28001019 136.04758112 139.29513498 138.12739815 139.31922531 140.20709419 C139.49187494 156.01674057 138.38033651 169.21774902 126.76000977 181.17700195 C111.82977939 195.04967435 94.85173612 192.17700195 74.76000977 192.17700195 C74.76000977 149.93700195 74.76000977 107.69700195 74.76000977 64.17700195 C80.04000977 64.17700195 85.32000977 64.17700195 90.76000977 64.17700195 C90.76000977 101.13700195 90.76000977 138.09700195 90.76000977 176.17700195 C105.56768981 174.83571962 105.56768981 174.83571962 116.57250977 167.36450195 C121.05982747 160.82583901 122.20649892 155.8195141 122.1640625 148.05151367 C122.17092575 147.16429123 122.177789 146.27706879 122.18486023 145.36296082 C122.20308645 142.4440385 122.19929455 139.52565622 122.19360352 136.60668945 C122.19816931 134.56275255 122.20347607 132.51881719 122.20948792 130.47488403 C122.21841238 126.19290937 122.21600575 121.91112125 122.20605469 117.62915039 C122.19460227 112.17222407 122.21472283 106.71594846 122.24397182 101.25910759 C122.2624275 97.03628519 122.26202216 92.81361575 122.2563343 88.59076309 C122.25618204 86.58075171 122.26214712 84.57072933 122.27462578 82.56075668 C122.33421276 71.3839312 122.07570612 61.64874859 117.76000977 51.17700195 C117.19297585 49.79773026 117.19297585 49.79773026 116.61448669 48.39059448 C111.90916075 37.54781797 102.30514482 27.62830461 91.54907227 22.70825195 C88.30747393 21.43238258 85.07308576 20.25314708 81.76000977 19.17700195 C80.70303894 18.83115555 79.64606812 18.48530914 78.55706787 18.12898254 C74.56360479 17.12776022 70.88039003 16.88800385 66.79614258 16.90234375 C66.03250397 16.89723282 65.26886536 16.89212189 64.48208618 16.88685608 C61.97568766 16.87303918 59.46956669 16.87391136 56.96313477 16.8762207 C55.20587056 16.87232843 53.44860729 16.86799268 51.69134521 16.86323547 C48.01303048 16.85578948 44.33481174 16.85605203 40.65649414 16.86132812 C35.96847003 16.8671098 31.28084268 16.85021544 26.59288406 16.82698345 C22.96378321 16.81216821 19.33477608 16.81138514 15.70565033 16.81449318 C13.97867805 16.81398352 12.25170002 16.8088133 10.52475739 16.79868126 C-7.72883035 16.70474891 -24.3937072 20.36888402 -37.98999023 33.5402832 C-51.09426124 48.89685079 -52.85978016 65.58806178 -52.77124023 84.9465332 C-52.77394023 87.03871338 -52.77782685 89.13089232 -52.78283691 91.22306824 C-52.78870156 95.58438188 -52.78026303 99.94536561 -52.76147461 104.30664062 C-52.73861592 109.88273323 -52.75187138 115.45805848 -52.77576447 121.03412342 C-52.79024416 125.34510546 -52.78560766 129.65590655 -52.7752533 133.96689415 C-52.7725957 136.02289612 -52.77582151 138.07891481 -52.78517151 140.13489723 C-52.79538086 143.00850421 -52.77977788 145.88087889 -52.75756836 148.75439453 C-52.76566528 149.5935289 -52.77376221 150.43266327 -52.78210449 151.29722595 C-52.68081988 158.40514479 -50.47335108 163.4473387 -45.98999023 168.92700195 C-37.86810527 175.57218056 -32.759737 175.3541629 -21.23999023 176.17700195 C-21.23999023 139.21700195 -21.23999023 102.25700195 -21.23999023 64.17700195 C-15.95999023 64.17700195 -10.67999023 64.17700195 -5.23999023 64.17700195 C-5.23999023 106.41700195 -5.23999023 148.65700195 -5.23999023 192.17700195 C-45.77933764 192.17700195 -45.77933764 192.17700195 -58.36889648 180.1418457 C-64.90935927 173.31230169 -69.35001138 164.80164462 -69.373703 155.17016602 C-69.38010048 153.98891396 -69.38010048 153.98891396 -69.3866272 152.78379822 C-69.38617401 151.9287117 -69.38572083 151.07362518 -69.38525391 150.19262695 C-69.38861252 149.28472916 -69.39197113 148.37683136 -69.39543152 147.44142151 C-69.40493719 144.43660109 -69.40688492 141.43183648 -69.40795898 138.42700195 C-69.41117353 136.33154274 -69.41453775 134.23608375 -69.41804504 132.140625 C-69.42403656 127.74242636 -69.42588509 123.34424736 -69.42529297 118.94604492 C-69.42519173 113.3355492 -69.43880367 107.72518114 -69.45606518 102.11471558 C-69.46724017 97.78215976 -69.46921044 93.44963417 -69.46868324 89.11706543 C-69.46985663 87.05041059 -69.47424205 84.98375481 -69.48201561 82.91711426 C-69.57349347 56.06821705 -69.57349347 56.06821705 -65.23999023 48.17700195 C-74.95937396 48.23846128 -84.67847022 48.31574378 -94.39756489 48.41271687 C-98.91150915 48.45726884 -103.4253663 48.49655755 -107.93945312 48.5234375 C-112.30332105 48.54962294 -116.66685099 48.59013064 -121.03050804 48.64018822 C-122.68765211 48.65675461 -124.34485451 48.66833209 -126.00206947 48.67461586 C-143.58492784 48.74797291 -160.17967807 52.31686777 -173.28295898 64.95825195 C-181.56020908 74.34243969 -188.32296491 87.0957838 -188.38525391 99.82446289 C-188.39163376 100.7159906 -188.39801361 101.60751831 -188.40458679 102.52606201 C-188.40569962 103.47821594 -188.40681244 104.43036987 -188.40795898 105.41137695 C-188.41128738 106.40397522 -188.41461578 107.39657349 -188.41804504 108.41925049 C-188.42310019 110.51720721 -188.42545381 112.61517195 -188.42529297 114.71313477 C-188.42747297 117.90174841 -188.445626 121.09001226 -188.46459961 124.27856445 C-188.46753522 126.32283411 -188.46951889 128.3671054 -188.47045898 130.41137695 C-188.4776445 131.35543396 -188.48483002 132.29949097 -188.49223328 133.27215576 C-188.45341187 144.68069476 -185.9725501 154.84045704 -178.12670898 163.51293945 C-171.72342315 169.46279745 -165.46747931 172.43450559 -157.23999023 175.17700195 C-157.23999023 146.46700195 -157.23999023 117.75700195 -157.23999023 88.17700195 C-151.95999023 88.17700195 -146.67999023 88.17700195 -141.23999023 88.17700195 C-141.23999023 117.21700195 -141.23999023 146.25700195 -141.23999023 176.17700195 C-117.47999023 176.17700195 -93.71999023 176.17700195 -69.23999023 176.17700195 C-69.23999023 181.45700195 -69.23999023 186.73700195 -69.23999023 192.17700195 C-80.71536228 192.29344288 -92.19059112 192.38199285 -103.6664362 192.43606281 C-108.99658816 192.46202886 -114.32633253 192.49718651 -119.65625 192.55419922 C-124.81102374 192.60898615 -129.96540828 192.63851988 -135.12045097 192.65138817 C-137.07583165 192.66054499 -139.0311938 192.67842334 -140.98640633 192.70565224 C-160.17513878 192.96197239 -175.18116375 189.50198538 -189.61499023 175.9465332 C-204.56701231 159.94673685 -205.91513463 142.538267 -205.76147461 121.59765625 C-205.74000896 118.11753841 -205.76137571 114.6394796 -205.78686523 111.15942383 C-205.81531209 88.5805931 -200.75752272 70.24402565 -185.23999023 53.17700195 C-170.03050423 38.1066271 -151.0345834 31.64881058 -129.98847961 31.69816589 C-128.24548777 31.71526938 -126.50250167 31.73296796 -124.75952148 31.7512207 C-122.92966572 31.75615798 -121.09980484 31.75944812 -119.26994324 31.76118469 C-115.46869302 31.76876007 -111.66782812 31.78913314 -107.86669922 31.8203125 C-102.99673262 31.86019496 -98.12701324 31.8779794 -93.25690174 31.88762188 C-88.59107512 31.89758108 -83.92530819 31.91743415 -79.25952148 31.9387207 C-78.37385813 31.94211645 -77.48819477 31.9455122 -76.57569313 31.94901085 C-74.07545452 31.96058517 -71.57537128 31.97909873 -69.07519531 32 C-68.33703079 32.0026889 -67.59886627 32.00537781 -66.83833313 32.00814819 C-63.50180316 32.04314383 -60.43095338 32.14397442 -57.23999023 33.17700195 C-56.84360352 32.30495117 -56.84360352 32.30495117 -56.43920898 31.4152832 C-54.33970107 27.49665769 -51.22956256 24.43667938 -48.23999023 21.17700195 C-47.7256543 20.58532227 -47.21131836 19.99364258 -46.68139648 19.3840332 C-34.9500493 6.59949774 -17.06827601 0.06005679 0 0 Z " fill="#FBFEFB" transform="translate(206.239990234375,287.822998046875)"/>
<path d="M0 0 C1.17519699 -0.01283524 2.35039398 -0.02567047 3.561203 -0.03889465 C5.4689727 -0.04997505 5.4689727 -0.04997505 7.4152832 -0.0612793 C8.72382767 -0.06935104 10.03237213 -0.07742279 11.38056946 -0.08573914 C14.15377675 -0.10075598 16.92695854 -0.11059761 19.70019531 -0.11816406 C23.23637081 -0.12919974 26.77191205 -0.16356989 30.30786419 -0.20333576 C33.6978106 -0.23592465 37.08769233 -0.24029169 40.4777832 -0.2487793 C41.73950851 -0.26628738 43.00123383 -0.28379547 44.30119324 -0.30183411 C52.72351155 -0.28114482 58.23311925 0.64526408 64.73950195 6.32543945 C65.68696289 7.42758789 65.68696289 7.42758789 66.65356445 8.55200195 C67.62422852 9.64641602 67.62422852 9.64641602 68.61450195 10.76293945 C72.23466999 16.01473252 72.59770806 21.42170343 72.69262695 27.63793945 C72.72167618 28.82379135 72.72167618 28.82379135 72.75131226 30.03359985 C72.81072498 32.53962678 72.85733872 35.0457006 72.90356445 37.55200195 C72.94177958 39.25905238 72.98083334 40.96608426 73.02075195 42.6730957 C73.11639456 46.84091239 73.2005656 51.00881926 73.27856445 55.17700195 C74.46071533 55.5764502 75.64286621 55.97589844 76.86083984 56.38745117 C84.94147502 59.12663009 92.44317914 62.00233735 99.8605957 66.27075195 C102.18363822 67.43803704 102.18363822 67.43803704 104.15161133 66.50830078 C106.74491665 64.88510359 108.61423893 62.99598748 110.7277832 60.7824707 C111.57663086 59.90913086 112.42547852 59.03579102 113.30004883 58.13598633 C115.06215551 56.30416993 116.82005279 54.46829397 118.57348633 52.62817383 C124.60594748 46.44115075 130.16437815 41.06426919 138.90356445 39.5480957 C140.01731445 39.57000977 141.13106445 39.59192383 142.27856445 39.61450195 C143.39231445 39.61321289 144.50606445 39.61192383 145.65356445 39.6105957 C155.07115258 41.08209385 160.86297335 46.03903117 167.36450195 52.7043457 C168.18810211 53.53027725 169.01170227 54.3562088 169.86026001 55.20716858 C171.58878873 56.94539314 173.31131316 58.68960716 175.02807617 60.43945312 C177.6540859 63.11503324 180.2984539 65.77132696 182.9465332 68.42504883 C184.62862508 70.12122202 186.30965225 71.81845189 187.98950195 73.5168457 C188.77698822 74.30969467 189.56447449 75.10254364 190.37582397 75.91941833 C191.10733673 76.66691849 191.83884949 77.41441864 192.5925293 78.18457031 C193.55441666 79.16241737 193.55441666 79.16241737 194.53573608 80.16001892 C199.43052112 85.82477544 200.44564205 90.60173569 200.65356445 97.92700195 C200.70254883 99.0974707 200.7515332 100.26793945 200.80200195 101.47387695 C199.30530348 112.06246017 189.74046011 118.89930821 182.32788086 125.83984375 C180.81135741 127.26600195 179.31386701 128.71008997 177.81762695 130.1574707 C176.47498779 131.42433716 176.47498779 131.42433716 175.10522461 132.71679688 C173.00122065 135.01161227 173.00122065 135.01161227 173.38598633 137.75195312 C174.17876997 139.90586995 174.98735155 141.94926378 176.02075195 143.99731445 C176.36493164 144.69856445 176.70911133 145.39981445 177.0637207 146.12231445 C177.77934741 147.55356786 178.49800407 148.98331109 179.2199707 150.41137695 C182.03182201 156.16051531 183.76259752 161.96689481 185.27856445 168.17700195 C186.35750977 168.15605469 187.43645508 168.13510742 188.5480957 168.11352539 C192.58099913 168.04069772 196.61384535 167.99504811 200.6472168 167.95727539 C202.38722535 167.93725674 204.12716745 167.91003309 205.86694336 167.87524414 C208.37931791 167.82629243 210.89079721 167.80393608 213.40356445 167.78637695 C214.171604 167.76573181 214.93964355 167.74508667 215.73095703 167.72381592 C222.52570782 167.7210424 227.62435459 169.85983461 232.73950195 174.32543945 C233.68696289 175.42758789 233.68696289 175.42758789 234.65356445 176.55200195 C235.30067383 177.28161133 235.9477832 178.0112207 236.61450195 178.76293945 C239.69295246 183.22886062 240.52725955 187.67168026 240.58496094 193.02368164 C240.60094833 194.15215515 240.61693573 195.28062866 240.63340759 196.44329834 C240.64145164 198.25280975 240.64145164 198.25280975 240.6496582 200.09887695 C240.65868668 201.35404114 240.66771515 202.60920532 240.67701721 203.90240479 C240.69150643 206.55528105 240.70119768 209.20772716 240.70410156 211.8605957 C240.70947188 215.23417128 240.74711435 218.6065418 240.79284573 221.97977829 C240.83002781 225.22773744 240.83114332 228.47573382 240.8371582 231.72387695 C240.85669052 232.92212097 240.87622284 234.12036499 240.89634705 235.35491943 C240.84935987 244.17667407 238.97332224 250.81047002 233.21606445 257.61450195 C227.43433804 262.27718454 223.83489846 264.27016224 216.27856445 264.17700195 C216.14362199 261.57111306 216.04454146 258.97218084 215.96606445 256.36450195 C215.92416992 255.62651367 215.88227539 254.88852539 215.83911133 254.12817383 C215.7902832 251.9699707 215.7902832 251.9699707 216.27856445 248.17700195 C218.6730957 246.3527832 218.6730957 246.3527832 221.27856445 245.17700195 C223.47370507 241.88429102 223.53746496 240.86299829 223.5690918 237.03466797 C223.5818515 235.98670547 223.59461121 234.93874298 223.60775757 233.85902405 C223.60998322 232.72774582 223.61220886 231.59646759 223.61450195 230.4309082 C223.62115875 229.26824936 223.62781555 228.10559052 223.63467407 226.90769958 C223.64480553 224.44727157 223.64949094 221.98681604 223.64916992 219.52636719 C223.65354327 215.75776012 223.68986034 211.99032361 223.7277832 208.22192383 C223.73365111 205.83325597 223.73762068 203.44458253 223.73950195 201.0559082 C223.7610585 199.36202721 223.7610585 199.36202721 223.78305054 197.63392639 C223.77689728 196.58281174 223.77074402 195.53169708 223.7644043 194.44873047 C223.76725433 193.52512222 223.77010437 192.60151398 223.77304077 191.6499176 C223.11352907 188.3516468 221.94492809 187.1813408 219.27856445 185.17700195 C216.9938635 184.5690117 216.9938635 184.5690117 214.51000977 184.63110352 C213.56933655 184.61138489 212.62866333 184.59166626 211.65948486 184.5713501 C210.65206238 184.57012146 209.64463989 184.56889282 208.60668945 184.56762695 C207.56913513 184.5510907 206.53158081 184.53455444 205.46258545 184.51751709 C202.15118535 184.46896211 198.84024475 184.44764894 195.52856445 184.42700195 C193.28244749 184.39884864 191.03635201 184.36892212 188.7902832 184.3371582 C183.28646058 184.26320133 177.78276758 184.21160275 172.27856445 184.17700195 C171.89112061 182.79484497 171.89112061 182.79484497 171.49584961 181.38476562 C167.48535917 167.19186867 162.77607596 154.26792898 155.35424805 141.47119141 C154.92708496 140.70895264 154.49992187 139.94671387 154.05981445 139.16137695 C153.47296875 138.15155762 153.47296875 138.15155762 152.87426758 137.12133789 C152.27856445 135.17700195 152.27856445 135.17700195 152.91943359 133.21630859 C157.19471844 126.80146141 162.99119879 121.38153505 168.5324707 116.0715332 C169.40581055 115.23299805 170.27915039 114.39446289 171.17895508 113.53051758 C172.97797987 111.81332664 174.78823583 110.10783714 176.60864258 108.41333008 C181.57005135 103.68758565 181.57005135 103.68758565 184.3059082 97.5637207 C182.78131549 92.53778197 179.94066208 89.86308235 176.27856445 86.17700195 C175.22025968 85.06216152 174.16464793 83.94476122 173.11108398 82.82543945 C170.04220789 79.57653846 166.93052976 76.37261127 163.79980469 73.18334961 C162.48766847 71.83932176 161.18366341 70.48731012 159.88769531 69.12768555 C157.99662069 67.14542604 156.08061984 65.19059712 154.1574707 63.23950195 C153.3008358 62.32563721 153.3008358 62.32563721 152.42689514 61.39331055 C149.43962673 58.42010184 147.3878112 56.79403194 143.08105469 56.62792969 C139.39898772 57.15961306 138.10460891 57.35219064 135.55981445 59.8996582 C134.90110352 60.53919434 134.24239258 61.17873047 133.5637207 61.83764648 C132.43256836 62.99562744 132.43256836 62.99562744 131.27856445 64.17700195 C130.32077023 65.12141845 129.36100424 66.06383791 128.3996582 67.00463867 C125.16624098 70.18192899 121.97139798 73.39651679 118.77856445 76.61450195 C117.65900813 77.73908525 116.53921816 78.863436 115.41918945 79.98754883 C112.70294912 82.71469539 109.98988154 85.44496102 107.27856445 88.17700195 C103.18212597 86.87756118 99.61336021 85.33746869 95.87329102 83.20629883 C83.72873964 76.30824033 70.05995579 70.71842557 56.27856445 68.17700195 C56.27309601 67.30709625 56.27309601 67.30709625 56.26751709 66.4196167 C56.22571377 60.38472386 56.15638386 54.3505931 56.07104492 48.31616211 C56.04281534 46.06396099 56.02161075 43.81166043 56.00756836 41.55932617 C55.98616685 38.32199113 55.9395295 35.08585422 55.88793945 31.84887695 C55.8860965 30.33774323 55.8860965 30.33774323 55.88421631 28.79608154 C55.86449768 27.85540833 55.84477905 26.91473511 55.82446289 25.94555664 C55.81558044 25.11948914 55.806698 24.29342163 55.79754639 23.44232178 C55.07588184 20.29230654 53.83907596 19.10766228 51.27856445 17.17700195 C48.73580712 16.57630152 48.73580712 16.57630152 45.9309082 16.65942383 C44.32904663 16.64051086 44.32904663 16.64051086 42.69482422 16.62121582 C40.97283813 16.63336121 40.97283813 16.63336121 39.21606445 16.64575195 C38.03262451 16.64192505 36.84918457 16.63809814 35.62988281 16.63415527 C33.12832793 16.63143386 30.62674471 16.63881092 28.12524414 16.65551758 C24.29289397 16.67692192 20.46241871 16.6557215 16.63012695 16.63012695 C14.20043531 16.63277019 11.77074483 16.63789507 9.34106445 16.64575195 C8.19307373 16.63765503 7.04508301 16.62955811 5.86230469 16.62121582 C4.79439697 16.63382446 3.72648926 16.64643311 2.6262207 16.65942383 C1.68786377 16.6626062 0.74950684 16.66578857 -0.21728516 16.66906738 C-3.53090832 17.34119305 -4.70823356 18.49372053 -6.72143555 21.17700195 C-7.3294258 23.4617029 -7.3294258 23.4617029 -7.26733398 25.94555664 C-7.28705261 26.88622986 -7.30677124 27.82690308 -7.3270874 28.79608154 C-7.32831604 29.80350403 -7.32954468 30.81092651 -7.33081055 31.84887695 C-7.3473468 32.88643127 -7.36388306 33.9239856 -7.38092041 34.99298096 C-7.42947539 38.30438106 -7.45078856 41.61532166 -7.47143555 44.92700195 C-7.49958886 47.17311891 -7.52951538 49.4192144 -7.5612793 51.6652832 C-7.63523617 57.16910583 -7.68683475 62.67279882 -7.72143555 68.17700195 C-8.77782227 68.42877197 -9.83420898 68.68054199 -10.92260742 68.93994141 C-21.7629654 71.54610346 -21.7629654 71.54610346 -32.22143555 75.36450195 C-32.91011719 75.65059326 -33.59879883 75.93668457 -34.30834961 76.23144531 C-40.31423671 78.81037159 -45.95111796 81.99170821 -51.45776367 85.5078125 C-53.33081055 86.6496582 -53.33081055 86.6496582 -56.72143555 88.17700195 C-59.67456055 87.4230957 -59.67456055 87.4230957 -61.72143555 86.17700195 C-61.72143555 85.51700195 -61.72143555 84.85700195 -61.72143555 84.17700195 C-62.71143555 83.84700195 -63.70143555 83.51700195 -64.72143555 83.17700195 C-64.72143555 82.51700195 -64.72143555 81.85700195 -64.72143555 81.17700195 C-65.27992188 80.95028809 -65.8384082 80.72357422 -66.41381836 80.48999023 C-69.38568536 78.79905702 -71.31137882 76.66958268 -73.64331055 74.16918945 C-74.59551225 73.17221305 -75.54866756 72.17614672 -76.50268555 71.1809082 C-77.99120849 69.61825367 -79.4726136 68.05072861 -80.93823242 66.46655273 C-82.36321599 64.93206539 -83.81281628 63.42469262 -85.26831055 61.91918945 C-86.12263672 61.01023926 -86.97696289 60.10128906 -87.85717773 59.16479492 C-90.84112812 57.09393539 -92.91567426 56.28136512 -96.58209229 56.52682495 C-101.21614287 57.93517917 -104.30332487 61.67036828 -107.59643555 65.05981445 C-108.40636963 65.86683807 -109.21630371 66.67386169 -110.05078125 67.50534058 C-111.75456978 69.21244299 -113.44849204 70.92944222 -115.13305664 72.65551758 C-117.71611751 75.29656453 -120.3345407 77.89819835 -122.9597168 80.49731445 C-124.61169324 82.161764 -126.26150953 83.82836089 -127.90893555 85.49731445 C-128.69316895 86.27567657 -129.47740234 87.0540387 -130.28540039 87.85598755 C-134.4426366 92.06020859 -134.4426366 92.06020859 -136.37792969 97.49682617 C-135.67381132 100.37143065 -135.06187439 101.62134567 -133.0300293 103.73950195 C-132.39049316 104.41625977 -131.75095703 105.09301758 -131.09204102 105.7902832 C-130.30974121 106.57790039 -129.52744141 107.36551758 -128.72143555 108.17700195 C-127.74753052 109.17038424 -126.77374273 110.16388147 -125.80004883 111.1574707 C-122.48524442 114.52149511 -119.13592934 117.85010432 -115.78393555 121.17700195 C-114.61117546 122.3447357 -113.43864757 123.51270269 -112.26635742 124.6809082 C-109.42071866 127.5156343 -106.57196102 130.3471902 -103.72143555 133.17700195 C-104.87566039 136.16720179 -106.09105518 139.00009125 -107.67456055 141.78637695 C-114.70598516 154.42820933 -119.68754642 167.22244207 -123.1784668 181.27075195 C-123.72143555 183.17700195 -123.72143555 183.17700195 -124.72143555 184.17700195 C-126.14283947 184.2784508 -127.56913436 184.31267222 -128.99414062 184.31884766 C-129.90210892 184.32588211 -130.81007721 184.33291656 -131.74555969 184.34016418 C-132.73404404 184.34432846 -133.72252838 184.34849274 -134.7409668 184.3527832 C-136.81584672 184.37598303 -138.89071654 184.40010044 -140.96557617 184.42504883 C-144.25088223 184.46017922 -147.53581799 184.48950964 -150.82128906 184.50292969 C-153.98247624 184.51838491 -157.14256807 184.55858439 -160.3034668 184.6027832 C-161.77708427 184.59992058 -161.77708427 184.59992058 -163.2804718 184.59700012 C-164.65660896 184.62173653 -164.65660896 184.62173653 -166.06054688 184.64697266 C-166.86583328 184.6528389 -167.67111969 184.65870514 -168.50080872 184.66474915 C-171.62158648 185.38464821 -172.80481131 186.64383819 -174.72143555 189.17700195 C-175.32213598 191.71975929 -175.32213598 191.71975929 -175.23901367 194.5246582 C-175.25162231 195.59256592 -175.26423096 196.66047363 -175.27722168 197.76074219 C-175.26912476 198.90873291 -175.26102783 200.05672363 -175.25268555 201.23950195 C-175.2584259 203.01466187 -175.2584259 203.01466187 -175.26428223 204.82568359 C-175.26700364 207.32723847 -175.25962658 209.8288217 -175.24291992 212.33032227 C-175.22151558 216.16267244 -175.242716 219.9931477 -175.26831055 223.82543945 C-175.26566731 226.2551311 -175.26054243 228.68482157 -175.25268555 231.11450195 C-175.26078247 232.26249268 -175.26887939 233.4104834 -175.27722168 234.59326172 C-175.26461304 235.66116943 -175.25200439 236.72907715 -175.23901367 237.8293457 C-175.2358313 238.76770264 -175.23264893 239.70605957 -175.22937012 240.67285156 C-174.56685966 243.93907111 -173.29029232 245.11696943 -170.72143555 247.17700195 C-169.73143555 247.50700195 -168.74143555 247.83700195 -167.72143555 248.17700195 C-167.72143555 253.45700195 -167.72143555 258.73700195 -167.72143555 264.17700195 C-175.2097165 263.93927875 -180.10312976 262.24001007 -185.72143555 257.17700195 C-190.29522819 251.50332108 -191.81828706 246.61038546 -191.93017578 239.3737793 C-191.9494664 238.20511322 -191.96875702 237.03644714 -191.9886322 235.83236694 C-192.04659146 230.48486122 -192.09595521 225.13751546 -192.12646484 219.78979492 C-192.14422741 216.97487403 -192.17896965 214.16096454 -192.22900391 211.34643555 C-192.30124152 207.27677751 -192.32349299 203.20819974 -192.3425293 199.13793945 C-192.37035995 197.88967377 -192.39819061 196.64140808 -192.42686462 195.35531616 C-192.40766267 187.13625259 -190.89029873 181.65323798 -185.72143555 175.17700195 C-183.2722168 172.9230957 -183.2722168 172.9230957 -181.03393555 171.61450195 C-180.28756836 171.15946289 -179.54120117 170.70442383 -178.7722168 170.2355957 C-174.31041109 167.93245409 -170.22812538 168.04753062 -165.3347168 168.0793457 C-164.51770798 168.08076065 -163.70069916 168.0821756 -162.8589325 168.08363342 C-160.25056287 168.08922901 -157.64227921 168.10178067 -155.03393555 168.11450195 C-153.26505658 168.11951753 -151.49617626 168.12408033 -149.72729492 168.12817383 C-145.39197536 168.13919699 -141.05672003 168.15645858 -136.72143555 168.17700195 C-136.61694092 167.62157715 -136.51244629 167.06615234 -136.40478516 166.49389648 C-135.28857761 160.9925463 -133.63658503 156.13692165 -131.28393555 151.05200195 C-130.68086093 149.71615925 -130.07799466 148.38022248 -129.4753418 147.04418945 C-129.1841748 146.40578125 -128.89300781 145.76737305 -128.59301758 145.10961914 C-127.2585032 142.15051107 -125.99027507 139.1647892 -124.72143555 136.17700195 C-125.36169678 135.55245117 -126.00195801 134.92790039 -126.66162109 134.28442383 C-129.06272911 131.934838 -131.45663028 129.57834783 -133.84619141 127.21704102 C-134.87632251 126.20187667 -135.90914488 125.18943501 -136.94482422 124.17993164 C-152.75988731 108.75432689 -152.75988731 108.75432689 -153.03393555 97.48950195 C-153.09000977 95.99870117 -153.09000977 95.99870117 -153.1472168 94.4777832 C-151.98258564 85.4492206 -145.98548933 79.86168046 -139.79174805 73.7512207 C-138.92379608 72.88181351 -138.05584412 72.01240631 -137.16159058 71.11665344 C-135.33235806 69.28907459 -133.49819825 67.46641568 -131.65942383 65.6484375 C-128.85029264 62.86831921 -126.06035576 60.0699527 -123.2722168 57.26879883 C-121.4881719 55.49099017 -119.7030516 53.7142599 -117.91674805 51.9387207 C-117.08531281 51.10434982 -116.25387756 50.26997894 -115.39724731 49.4103241 C-108.97037673 43.08697485 -104.11582721 39.64168998 -94.84643555 39.67700195 C-94.17741211 39.64864258 -93.50838867 39.6202832 -92.8190918 39.59106445 C-84.19087022 39.55781504 -79.00698214 44.68732029 -73.12768555 50.4777832 C-71.14462912 52.46788512 -69.18241249 54.47767776 -67.22143555 56.48950195 C-66.19870616 57.52730963 -65.17527369 58.56442492 -64.15112305 59.60083008 C-61.66640674 62.11829274 -59.19132598 64.64498193 -56.72143555 67.17700195 C-52.9717273 65.96828609 -49.35208642 64.64842598 -45.75268555 63.0480957 C-44.85163086 62.65299805 -43.95057617 62.25790039 -43.0222168 61.85083008 C-41.15358333 61.02597304 -39.28639236 60.19784045 -37.4206543 59.36645508 C-36.51959961 58.97264648 -35.61854492 58.57883789 -34.69018555 58.1730957 C-33.88000977 57.81401123 -33.06983398 57.45492676 -32.23510742 57.08496094 C-29.41473959 56.06622085 -26.68607804 55.59064171 -23.72143555 55.17700195 C-23.75285645 54.0782373 -23.78427734 52.97947266 -23.81665039 51.84741211 C-23.92613347 47.72890119 -23.99444854 43.61051585 -24.05102539 39.4909668 C-24.08100021 37.71600641 -24.12179572 35.94119163 -24.17407227 34.16674805 C-24.72933437 14.81967422 -24.72933437 14.81967422 -17.72143555 7.17700195 C-15.2722168 4.9230957 -15.2722168 4.9230957 -13.03393555 3.61450195 C-12.28756836 3.15946289 -11.54120117 2.70442383 -10.7722168 2.2355957 C-7.06254774 0.32069987 -4.11586043 0.03914337 0 0 Z " fill="#FAFFFA" transform="translate(216.721435546875,-0.177001953125)"/>
<path d="M0 0 C11.78165258 7.458621 19.74902581 18.42602532 23.06640625 31.9609375 C25.2909428 45.97971497 22.30318565 58.48945563 14.32421875 70.13671875 C6.62227276 80.30263474 -3.95617189 87.00282919 -16.51953125 89.5703125 C-30.88715116 91.20530905 -42.89083462 88.36391367 -54.51953125 79.5703125 C-55.40640625 78.9515625 -56.29328125 78.3328125 -57.20703125 77.6953125 C-65.73238433 69.86120427 -72.27091528 58.44219533 -72.98828125 46.7734375 C-73.02255793 45.12271881 -73.03239095 43.47133695 -73.01953125 41.8203125 C-73.00986328 40.51042358 -73.00986328 40.51042358 -73 39.17407227 C-72.62864629 25.93115927 -66.93956465 14.64211329 -57.35546875 5.5078125 C-40.37777464 -8.41029716 -19.36902164 -10.28498128 0 0 Z " fill="#F9FFF9" transform="translate(401.51953125,222.4296875)"/>
<path d="M0 0 C11.78165258 7.458621 19.74902581 18.42602532 23.06640625 31.9609375 C25.2909428 45.97971497 22.30318565 58.48945563 14.32421875 70.13671875 C6.62227276 80.30263474 -3.95617189 87.00282919 -16.51953125 89.5703125 C-30.88715116 91.20530905 -42.89083462 88.36391367 -54.51953125 79.5703125 C-55.40640625 78.9515625 -56.29328125 78.3328125 -57.20703125 77.6953125 C-65.73238433 69.86120427 -72.27091528 58.44219533 -72.98828125 46.7734375 C-73.02255793 45.12271881 -73.03239095 43.47133695 -73.01953125 41.8203125 C-73.00986328 40.51042358 -73.00986328 40.51042358 -73 39.17407227 C-72.62864629 25.93115927 -66.93956465 14.64211329 -57.35546875 5.5078125 C-40.37777464 -8.41029716 -19.36902164 -10.28498128 0 0 Z " fill="#F9FFF9" transform="translate(129.51953125,222.4296875)"/>
<path d="M0 0 C11.13982653 6.97000076 17.68885091 17.92651409 21.1640625 30.3671875 C23.80348331 43.35669663 21.37886168 55.38512953 14.546875 66.6640625 C6.62499502 78.22799323 -4.24929646 85.95019169 -18.140625 88.7890625 C-32.50824491 90.42405905 -44.51192837 87.58266367 -56.140625 78.7890625 C-57.0275 78.1703125 -57.914375 77.5515625 -58.828125 76.9140625 C-67.35347808 69.07995427 -73.89200903 57.66094533 -74.609375 45.9921875 C-74.64365168 44.34146881 -74.6534847 42.69008695 -74.640625 41.0390625 C-74.63095703 39.72917358 -74.63095703 39.72917358 -74.62109375 38.39282227 C-74.24974004 25.14990927 -68.5606584 13.86086329 -58.9765625 4.7265625 C-41.13044391 -9.90347112 -20.07017703 -10.55504129 0 0 Z " fill="#F9FFF9" transform="translate(267.140625,191.2109375)"/>
<path d="M0 0 C1.13759766 -0.00773437 2.27519531 -0.01546875 3.44726562 -0.0234375 C33.4796253 0.04509042 60.0615112 13.50621402 81.42578125 33.99609375 C101.68689507 55.20251614 112.89106607 83.00761995 112.5625 112.25 C107.2825 112.25 102.0025 112.25 96.5625 112.25 C96.315 109.754375 96.0675 107.25875 95.8125 104.6875 C93.59859764 85.27198699 87.11956063 67.40425154 74.5625 52.25 C73.49708984 50.95835937 73.49708984 50.95835937 72.41015625 49.640625 C54.04989486 28.34401249 29.71341906 19.07435 2.3046875 17.00390625 C-22.4930699 16.37470942 -46.40097506 25.4240626 -64.6640625 42.13671875 C-85.02192038 61.4941905 -92.67890087 85.04551704 -95.4375 112.25 C-100.7175 112.25 -105.9975 112.25 -111.4375 112.25 C-112.52104248 84.61966667 -102.15318816 57.66711436 -83.4375 37.25 C-82.60605469 36.33734375 -81.77460938 35.4246875 -80.91796875 34.484375 C-59.64785618 12.18657032 -30.79590376 -0.2086679 0 0 Z " fill="#F9FEF9" transform="translate(240.4375,103.75)"/>
<path d="M0 0 C7.06193282 5.90839001 12.35811935 13.299155 13.2578125 22.69140625 C13.64294769 32.74343478 11.30521219 39.62794379 4.8125 47.3125 C-1.16164307 53.55150656 -7.20952975 57.53734367 -16 58 C-16.77214844 58.061875 -17.54429687 58.12375 -18.33984375 58.1875 C-27.45605811 58.63698977 -34.1506469 55.1999392 -41.2109375 49.64453125 C-47.5307638 43.8352586 -50.65881702 37.16197134 -51.12890625 28.671875 C-51.35529025 18.8317172 -49.45956671 11.63652166 -43 4 C-31.20148302 -6.92609143 -13.5075647 -10.44010977 0 0 Z " fill="#01BB1A" transform="translate(396,238)"/>
<path d="M0 0 C7.06193282 5.90839001 12.35811935 13.299155 13.2578125 22.69140625 C13.64294769 32.74343478 11.30521219 39.62794379 4.8125 47.3125 C-1.16164307 53.55150656 -7.20952975 57.53734367 -16 58 C-16.77214844 58.061875 -17.54429688 58.12375 -18.33984375 58.1875 C-27.45605811 58.63698977 -34.1506469 55.1999392 -41.2109375 49.64453125 C-47.5307638 43.8352586 -50.65881702 37.16197134 -51.12890625 28.671875 C-51.35529025 18.8317172 -49.45956671 11.63652166 -43 4 C-31.20148302 -6.92609143 -13.5075647 -10.44010977 0 0 Z " fill="#01BB1A" transform="translate(124,238)"/>
<path d="M0 0 C7.06193282 5.90839001 12.35811935 13.299155 13.2578125 22.69140625 C13.64294769 32.74343478 11.30521219 39.62794379 4.8125 47.3125 C-1.16164307 53.55150656 -7.20952975 57.53734367 -16 58 C-16.77214844 58.061875 -17.54429687 58.12375 -18.33984375 58.1875 C-27.45605811 58.63698977 -34.1506469 55.1999392 -41.2109375 49.64453125 C-47.5307638 43.8352586 -50.65881702 37.16197134 -51.12890625 28.671875 C-51.35529025 18.8317172 -49.45956671 11.63652166 -43 4 C-31.20148302 -6.92609143 -13.5075647 -10.44010977 0 0 Z " fill="#01BB1A" transform="translate(260,206)"/>
<path d="M0 0 C21.12 0 42.24 0 64 0 C64 5.28 64 10.56 64 16 C42.88 16 21.76 16 0 16 C0 10.72 0 5.44 0 0 Z " fill="#FEFFFE" transform="translate(209,464)"/>
</svg>
