<?xml version="1.0" encoding="UTF-8"?>
<svg version="1.1" xmlns="http://www.w3.org/2000/svg" width="153" height="137">
<path d="M0 0 C11.22 0 22.44 0 34 0 C34.495 2.475 34.495 2.475 35 5 C38.63 5 42.26 5 46 5 C46.928125 7.35125 46.928125 7.35125 47.875 9.75 C50.01280423 14.13064509 51.66384769 15.77518405 56.25 17.4375 C57.12140625 17.68371094 57.9928125 17.92992188 58.890625 18.18359375 C59.93476562 18.58771484 59.93476562 18.58771484 61 19 C62.00496852 22.01490557 62.10335303 24.04181692 62.0625 27.1875 C62.05347656 28.08855469 62.04445312 28.98960938 62.03515625 29.91796875 C62.02355469 30.60503906 62.01195312 31.29210937 62 32 C60.68 32 59.36 32 58 32 C56.39092892 34.37612865 56.39092892 34.37612865 55 37 C52 39 52 39 48.5625 39 C44.00661667 37.72115556 43.52725298 35.83164162 41 32 C37.83073436 31.49830585 37.83073436 31.49830585 35 32 C35 32.66 35 33.32 35 34 C32.03 34 29.06 34 26 34 C25.5875 32.72125 25.175 31.4425 24.75 30.125 C23.54747877 26.91301309 23.54747877 26.91301309 21.1875 24.5 C18.20883941 23.81916329 16.05239162 23.56394405 13 24 C10.19259115 26.24592708 8.38835844 27.89467213 7.1875 31.3125 C7.125625 31.869375 7.06375 32.42625 7 33 C4.69 33 2.38 33 0 33 C0 22.11 0 11.22 0 0 Z M38 9 C38 10.98 38 12.96 38 15 C40.31 15 42.62 15 45 15 C43.515 12.03 43.515 12.03 42 9 C40.68 9 39.36 9 38 9 Z M47 23 C47 23.33 47 23.66 47 24 C48.65 24 50.3 24 52 24 C52 23.67 52 23.34 52 23 C50.35 23 48.7 23 47 23 Z M42 27 C43 29 43 29 43 29 Z M48 30 C47.67 30.66 47.34 31.32 47 32 C47.33 32.66 47.66 33.32 48 34 C49.32 33.67 50.64 33.34 52 33 C51.67 32.01 51.34 31.02 51 30 C50.01 30 49.02 30 48 30 Z " fill="#0098FF" transform="translate(0,89)"/>
<path d="M0 0 C2.64 0 5.28 0 8 0 C8.495 6.435 8.495 6.435 9 13 C11.083125 13.144375 13.16625 13.28875 15.3125 13.4375 C18.79589889 13.67892369 21.68455701 13.89485234 25 15 C25 19.95 25 24.9 25 30 C8.83 30 -7.34 30 -24 30 C-24 22.74 -24 15.48 -24 8 C-22.68 8 -21.36 8 -20 8 C-19.67 5.69 -19.34 3.38 -19 1 C-15.04 1 -11.08 1 -7 1 C-6.67 4.3 -6.34 7.6 -6 11 C-4.35 11 -2.7 11 -1 11 C-1.020625 9.9275 -1.04125 8.855 -1.0625 7.75 C-1.0142016 4.85209576 -0.86844115 2.71387859 0 0 Z " fill="#0098FF" transform="translate(80,15)"/>
<path d="M0 0 C5.15640843 0.21046565 8.77344792 1.21907792 12.6015625 4.8046875 C15.70213566 9.67206771 15.56644516 15.41646917 15 21 C13.75554301 24.37134711 12.1789921 27.14996881 10 30 C13.74105104 31.63670983 17.46813102 33.18499302 21.3125 34.5625 C25 36 25 36 27 38 C27.32752234 40.71454956 27.1308425 43.25230759 27 46 C25.41318011 47.58681989 23.78751654 47.12728536 21.58789062 47.12939453 C20.65021851 47.13254669 19.71254639 47.13569885 18.74645996 47.13894653 C17.72669067 47.1369223 16.70692139 47.13489807 15.65625 47.1328125 C14.09710876 47.13424759 14.09710876 47.13424759 12.50646973 47.13571167 C10.30395446 47.13639363 8.10143721 47.13453827 5.89892578 47.13037109 C2.51460281 47.12502308 -0.86958744 47.13031559 -4.25390625 47.13671875 C-6.38802113 47.13605797 -8.52213592 47.13477681 -10.65625 47.1328125 C-11.67601929 47.13483673 -12.69578857 47.13686096 -13.74645996 47.13894653 C-15.15296814 47.13421829 -15.15296814 47.13421829 -16.58789062 47.12939453 C-17.41760376 47.12859894 -18.24731689 47.12780334 -19.10217285 47.12698364 C-21 47 -21 47 -22 46 C-22.40826129 42.40730068 -22.33826279 40.5417167 -20.40234375 37.44140625 C-17.48479464 34.47641732 -15.239976 33.76479352 -11.25 32.6875 C-9.49429688 32.19830078 -9.49429688 32.19830078 -7.703125 31.69921875 C-6.81109375 31.46847656 -5.9190625 31.23773438 -5 31 C-5.42316169 28.03786818 -5.91822826 26.12561445 -7.56640625 23.59375 C-9.39330774 20.28840234 -9.24744253 18.23677195 -8.9375 14.5 C-8.86402344 13.3965625 -8.79054688 12.293125 -8.71484375 11.15625 C-7.8837218 7.48659679 -6.60244162 5.6805637 -4 3 C-1.75 2.1875 -1.75 2.1875 0 2 C0 1.34 0 0.68 0 0 Z M-5 13 C-5 14.65 -5 16.3 -5 18 C-5.66 18 -6.32 18 -7 18 C-5.5407024 22.51055622 -3.30806487 25.61500339 0 29 C2.41743146 30.40127511 2.41743146 30.40127511 5 30 C8.51599561 27.15371784 10.93792823 24.01561344 13 20 C13 19.34 13 18.68 13 18 C12.34 18 11.68 18 11 18 C11 16.68 11 15.36 11 14 C8.8973294 13.63705686 6.79278943 13.28493028 4.6875 12.9375 C3.51574219 12.74027344 2.34398437 12.54304688 1.13671875 12.33984375 C-2.02511876 11.77694302 -2.02511876 11.77694302 -5 13 Z M-3 31 C-2.67 32.32 -2.34 33.64 -2 35 C0.77100394 36.38550197 2.9334706 36.1877467 6 36 C6.99 35.34 7.98 34.68 9 34 C8.67 33.01 8.34 32.02 8 31 C4.37 31 0.74 31 -3 31 Z " fill="#0098FF" transform="translate(126,81)"/>
<path d="M0 0 C2 1.625 2 1.625 3 4 C2.93439072 7.739729 2.76345433 10.0603639 0.375 13 C-3.08383253 14.45635054 -5.41298371 13.91305869 -9 13 C-10.9375 11.875 -10.9375 11.875 -12 10 C-12.5 6.5625 -12.5 6.5625 -12 3 C-8.33340589 -1.4443565 -5.38867153 -1.59664341 0 0 Z M-6 5 C-6 6.32 -6 7.64 -6 9 C-5.01 9 -4.02 9 -3 9 C-2.67 8.01 -2.34 7.02 -2 6 C-3.32 5.67 -4.64 5.34 -6 5 Z " fill="#0099FF" transform="translate(21,114)"/>
<path d="M0 0 C17.49 0 34.98 0 53 0 C53 0.99 53 1.98 53 3 C35.51 3 18.02 3 0 3 C0 2.01 0 1.02 0 0 Z " fill="#0099FF" transform="translate(54,46)"/>
<path d="M0 0 C2.97 0 5.94 0 9 0 C10.4783226 2.95664519 10.06032783 5.74229737 10 9 C6.7 9 3.4 9 0 9 C0 6.03 0 3.06 0 0 Z " fill="#0098FF" transform="translate(62,0)"/>
<path d="M0 0 C1.67542976 0.28604898 3.34385343 0.61781233 5 1 C4.56179109 5.55737263 4.14958831 8.57653445 1 12 C-0.32 11.67 -1.64 11.34 -3 11 C-3.6875 9.375 -3.6875 9.375 -4 7 C-1.72413793 1.72413793 -1.72413793 1.72413793 0 0 Z " fill="#0098FF" transform="translate(29,51)"/>
<path d="M0 0 C1.66611905 -0.042721 3.33382885 -0.04063832 5 0 C5.33 0.33 5.66 0.66 6 1 C5.91036938 2.69141656 5.75422324 4.37959602 5.5625 6.0625 C5.46066406 6.98160156 5.35882812 7.90070313 5.25390625 8.84765625 C5.12822266 9.91306641 5.12822266 9.91306641 5 11 C3.34385343 11.38218767 1.67542976 11.71395102 0 12 C-1 11 -1 11 -1.1328125 9.00390625 C-1.13023438 8.19824219 -1.12765625 7.39257812 -1.125 6.5625 C-1.12757812 5.75941406 -1.13015625 4.95632812 -1.1328125 4.12890625 C-1 2 -1 2 0 0 Z " fill="#0099FF" transform="translate(23,69)"/>
<path d="M0 0 C0.3125 2.1875 0.3125 2.1875 0 5 C-2.25 7.875 -2.25 7.875 -5 10 C-7.3125 9.8125 -7.3125 9.8125 -9 9 C-9.75 7.3125 -9.75 7.3125 -10 5 C-6.95765202 0.48893231 -5.35638951 -1.60691685 0 0 Z " fill="#0098FF" transform="translate(45,38)"/>
<path d="M0 0 C3.33388318 0.16951948 4.94441987 0.43192871 7.6875 2.1875 C7.3575 3.8375 7.0275 5.4875 6.6875 7.1875 C3.3875 6.8575 0.0875 6.5275 -3.3125 6.1875 C-3.69468767 4.53135343 -4.02645102 2.86292976 -4.3125 1.1875 C-3.3125 0.1875 -3.3125 0.1875 0 0 Z " fill="#0098FF" transform="translate(69.3125,129.8125)"/>
<path d="M0 0 C1.65 0 3.3 0 5 0 C5.52992692 1.45505358 6.0486789 2.91418127 6.5625 4.375 C6.85253906 5.18710938 7.14257812 5.99921875 7.44140625 6.8359375 C8 9 8 9 7 11 C5.35 11 3.7 11 2 11 C1.47007308 9.54494642 0.9513211 8.08581873 0.4375 6.625 C0.14746094 5.81289062 -0.14257812 5.00078125 -0.44140625 4.1640625 C-1 2 -1 2 0 0 Z " fill="#0098FF" transform="translate(127,63)"/>
<path d="M0 0 C3.11396946 0.21475651 4.06926877 1.06926877 6.3125 3.3125 C8 6 8 6 7.75 8.3125 C7.5025 8.869375 7.255 9.42625 7 10 C5.68 10.33 4.36 10.66 3 11 C-0.5822015 7.1556862 -0.5822015 7.1556862 -2 5 C-1.8726702 2.64439872 -1.65621618 1.65621618 0 0 Z " fill="#0099FF" transform="translate(118,46)"/>
<path d="M0 0 C0.90492187 0.02320313 1.80984375 0.04640625 2.7421875 0.0703125 C4.10730469 0.09738281 4.10730469 0.09738281 5.5 0.125 C6.19867188 0.14820313 6.89734375 0.17140625 7.6171875 0.1953125 C7.6599085 1.86143155 7.65782582 3.52914135 7.6171875 5.1953125 C6.6171875 6.1953125 6.6171875 6.1953125 4.33203125 6.29296875 C2.95724609 6.27556641 2.95724609 6.27556641 1.5546875 6.2578125 C0.63558594 6.24878906 -0.28351563 6.23976562 -1.23046875 6.23046875 C-1.94074219 6.21886719 -2.65101562 6.20726562 -3.3828125 6.1953125 C-4.0078125 4.3203125 -4.0078125 4.3203125 -4.3828125 2.1953125 C-2.3828125 0.1953125 -2.3828125 0.1953125 0 0 Z " fill="#0098FF" transform="translate(89.3828125,130.8046875)"/>
<path d="M0 0 C3.63 0 7.26 0 11 0 C11.33 1.65 11.66 3.3 12 5 C8.04 5 4.08 5 0 5 C0 3.35 0 1.7 0 0 Z " fill="#009AFF" transform="translate(61,10)"/>
<path d="M0 0 C1.4540625 0.0309375 1.4540625 0.0309375 2.9375 0.0625 C3.2675 2.0425 3.5975 4.0225 3.9375 6.0625 C1.2975 6.0625 -1.3425 6.0625 -4.0625 6.0625 C-4.105221 4.39638095 -4.10313832 2.72867115 -4.0625 1.0625 C-3.0625 0.0625 -3.0625 0.0625 0 0 Z " fill="#0099FF" transform="translate(84.0625,7.9375)"/>
</svg>
