<?xml version="1.0" encoding="UTF-8"?>
<svg version="1.1" xmlns="http://www.w3.org/2000/svg" width="1491" height="748">
<path d="M0 0 C492.03 0 984.06 0 1491 0 C1491 246.84 1491 493.68 1491 748 C998.97 748 506.94 748 0 748 C0 501.16 0 254.32 0 0 Z " fill="#373942" transform="translate(0,0)"/>
<path d="M0 0 C1.30066406 -0.00128906 2.60132813 -0.00257813 3.94140625 -0.00390625 C4.96258545 -0.00076416 4.96258545 -0.00076416 6.00439453 0.00244141 C8.08503515 0.0077901 10.16545989 0.0024957 12.24609375 -0.00390625 C14.19708984 -0.00197266 14.19708984 -0.00197266 16.1875 0 C17.39083984 0.00112793 18.59417969 0.00225586 19.83398438 0.00341797 C22.59375 0.1328125 22.59375 0.1328125 23.59375 1.1328125 C26.24290206 1.32097099 28.87871401 1.46026852 31.53125 1.5703125 C38.06594535 1.89687754 44.2165888 2.63102369 50.59375 4.1328125 C52.44713825 4.4910304 54.30130881 4.84522501 56.15625 5.1953125 C60.47067308 6.00973558 60.47067308 6.00973558 61.59375 7.1328125 C63.07875 7.3184375 63.07875 7.3184375 64.59375 7.5078125 C80.31206098 9.60782976 95.92185761 18.19258299 109.9230957 25.31567383 C112.75086278 26.74803612 115.52767466 28.10657934 118.4765625 29.27734375 C120.79712044 30.21498616 121.88501287 31.3464055 123.59375 33.1328125 C124.58375 33.4628125 125.57375 33.7928125 126.59375 34.1328125 C126.92375 34.7928125 127.25375 35.4528125 127.59375 36.1328125 C128.356875 36.4215625 129.12 36.7103125 129.90625 37.0078125 C132.91230859 38.26616261 134.38479835 39.7765974 136.59375 42.1328125 C137.58375 42.7928125 138.57375 43.4528125 139.59375 44.1328125 C139.59375 44.7928125 139.59375 45.4528125 139.59375 46.1328125 C140.315625 46.1946875 141.0375 46.2565625 141.78125 46.3203125 C145.47774074 47.3881876 147.12513868 49.24101066 149.59375 52.1328125 C149.59375 52.7928125 149.59375 53.4528125 149.59375 54.1328125 C150.3775 54.3803125 151.16125 54.6278125 151.96875 54.8828125 C154.91692108 56.28670349 155.4962277 57.13956987 156.59375 60.1328125 C157.25375 60.1328125 157.91375 60.1328125 158.59375 60.1328125 C158.59375 60.7928125 158.59375 61.4528125 158.59375 62.1328125 C159.315625 62.3596875 160.0375 62.5865625 160.78125 62.8203125 C164.15807417 64.39616378 166.15142039 66.34157866 168.59375 69.1328125 C168.59375 69.7928125 168.59375 70.4528125 168.59375 71.1328125 C169.91375 71.4628125 171.23375 71.7928125 172.59375 72.1328125 C172.59375 73.7828125 172.59375 75.4328125 172.59375 77.1328125 C173.17898438 77.40480469 173.76421875 77.67679687 174.3671875 77.95703125 C176.56028554 79.11514091 178.3180617 80.35861456 180.21875 81.9453125 C181.10433594 82.66654297 181.10433594 82.66654297 182.0078125 83.40234375 C183.59375 85.1328125 183.59375 85.1328125 184.5234375 87.53515625 C185.84208248 90.73551723 187.61482182 92.484369 190.09375 94.8828125 C191.28484375 96.05070312 191.28484375 96.05070312 192.5 97.2421875 C194.44981302 99.17230905 194.44981302 99.17230905 196.59375 100.1328125 C197.68337646 104.09806968 198.04472136 107.87009269 196.65625 111.7578125 C191.21668267 118.02155669 184.37821627 122.96747168 177.9140625 128.1171875 C175.42423933 130.10067779 175.42423933 130.10067779 173.59375 133.1328125 C172.93375 133.1328125 172.27375 133.1328125 171.59375 133.1328125 C171.34625 133.7515625 171.09875 134.3703125 170.84375 135.0078125 C169.35634631 137.53639877 168.15696991 137.85120254 165.59375 139.1328125 C165.23796875 139.97005859 165.23796875 139.97005859 164.875 140.82421875 C162.61700266 144.89274445 158.78503927 147.61198824 155.29296875 150.62304688 C151.90059803 153.63636037 150.1321108 155.78621761 148.59375 160.1328125 C146.859375 161.9765625 146.859375 161.9765625 144.84375 163.6328125 C144.13605469 164.22578125 143.42835938 164.81875 142.69921875 165.4296875 C141.39298152 166.48630982 140.08365546 167.53914048 138.76953125 168.5859375 C135.39748596 171.2649237 135.39748596 171.2649237 133.59375 175.1328125 C131.03204057 177.10335821 129.54730406 177.13138508 126.2890625 177.03125 C121.8226825 175.94534366 119.89361768 173.93261847 117.09375 170.5078125 C116.14827489 169.41437826 115.20166163 168.32192711 114.25390625 167.23046875 C113.80160645 166.69953613 113.34930664 166.16860352 112.88330078 165.62158203 C111.17587331 163.65037932 109.37491098 161.78897348 107.53125 159.9453125 C107.00402344 159.41550781 106.47679687 158.88570312 105.93359375 158.33984375 C104.58569005 157.01778478 104.58569005 157.01778478 102.59375 156.1328125 C102.59375 155.4728125 102.59375 154.8128125 102.59375 154.1328125 C101.7275 153.7615625 101.7275 153.7615625 100.84375 153.3828125 C98.26435021 151.94981262 96.53253408 150.34856574 94.59375 148.1328125 C94.59375 147.4728125 94.59375 146.8128125 94.59375 146.1328125 C93.93375 146.1328125 93.27375 146.1328125 92.59375 146.1328125 C92.18125 145.4315625 91.76875 144.7303125 91.34375 144.0078125 C89.81448684 141.49545159 88.49478071 139.94538779 86.40625 137.9453125 C85.478125 137.0171875 84.55 136.0890625 83.59375 135.1328125 C83.59375 134.4728125 83.59375 133.8128125 83.59375 133.1328125 C82.60375 132.8028125 81.61375 132.4728125 80.59375 132.1328125 C79.44918246 130.98824496 78.30790663 129.84010387 77.1875 128.671875 C73.22959655 124.84978196 68.84370512 120.88279754 63.59375 119.1328125 C63.17222656 118.68808594 62.75070312 118.24335938 62.31640625 117.78515625 C47.183896 103.27029948 20.42315096 100.85954257 0.60546875 100.96484375 C-2.45554393 101.00318298 -2.45554393 101.00318298 -5.40625 102.1328125 C-6.8846742 102.21092885 -8.3640985 102.27059621 -9.84375 102.3203125 C-15.72635855 102.80197575 -21.15134017 104.32367756 -26.78125 106.0078125 C-27.64935303 106.26457764 -28.51745605 106.52134277 -29.41186523 106.78588867 C-33.82121942 108.14593479 -37.4751073 109.67400789 -41.40625 112.1328125 C-42.39625 112.1328125 -43.38625 112.1328125 -44.40625 112.1328125 C-44.40625 113.1228125 -44.40625 114.1128125 -44.40625 115.1328125 C-45.375625 115.5040625 -46.345 115.8753125 -47.34375 116.2578125 C-54.25416344 119.23547032 -59.87982115 123.09757404 -64.40625 129.1328125 C-65.01726562 129.40996094 -65.62828125 129.68710937 -66.2578125 129.97265625 C-69.07603005 131.49449373 -70.50760635 133.42492172 -72.46875 135.9453125 C-73.14035156 136.79738281 -73.81195313 137.64945313 -74.50390625 138.52734375 C-78.02831773 142.92219388 -78.02831773 142.92219388 -79.40625 148.1328125 C-79.839375 148.5246875 -80.2725 148.9165625 -80.71875 149.3203125 C-83.16275099 151.9453506 -84.0879606 154.80570116 -85.40625 158.1328125 C-86.06625 158.1328125 -86.72625 158.1328125 -87.40625 158.1328125 C-87.509375 158.7928125 -87.6125 159.4528125 -87.71875 160.1328125 C-88.40625 163.1328125 -88.40625 163.1328125 -89.84375 166.81640625 C-96.71656446 184.93583229 -96.61260743 206.96389111 -89.21875 224.8828125 C-88.87457031 225.62015625 -88.53039062 226.3575 -88.17578125 227.1171875 C-87.40625 229.1328125 -87.40625 229.1328125 -87.40625 233.1328125 C-86.74625 233.1328125 -86.08625 233.1328125 -85.40625 233.1328125 C-84.90009702 234.40120776 -84.40155901 235.67264352 -83.90625 236.9453125 C-83.6278125 237.65300781 -83.349375 238.36070312 -83.0625 239.08984375 C-82.40625 241.1328125 -82.40625 241.1328125 -82.40625 244.1328125 C-81.74625 244.1328125 -81.08625 244.1328125 -80.40625 244.1328125 C-80.40625 244.7928125 -80.40625 245.4528125 -80.40625 246.1328125 C-79.41625 246.4628125 -78.42625 246.7928125 -77.40625 247.1328125 C-76.72492549 248.79354099 -76.05882873 250.4605795 -75.40625 252.1328125 C-73.92125 253.1228125 -73.92125 253.1228125 -72.40625 254.1328125 C-72.40625 254.7928125 -72.40625 255.4528125 -72.40625 256.1328125 C-71.74625 256.1328125 -71.08625 256.1328125 -70.40625 256.1328125 C-66.85867102 259.3847599 -63.79579687 262.96871868 -60.73828125 266.6796875 C-59.4482809 268.26060433 -59.4482809 268.26060433 -57.40625 269.1328125 C-57.40625 269.7928125 -57.40625 270.4528125 -57.40625 271.1328125 C-56.849375 271.2565625 -56.2925 271.3803125 -55.71875 271.5078125 C-53.1641459 272.19824604 -50.81164865 273.02762934 -48.40625 274.1328125 C-48.07625 274.7928125 -47.74625 275.4528125 -47.40625 276.1328125 C-45.24111702 277.45609995 -45.24111702 277.45609995 -42.65625 278.6953125 C-41.79515625 279.12972656 -40.9340625 279.56414062 -40.046875 280.01171875 C-37.49297803 281.20641754 -37.49297803 281.20641754 -34.953125 281.59765625 C-32.40625 282.1328125 -32.40625 282.1328125 -29.53515625 283.59375 C-26.13109228 285.26815849 -23.05867099 286.02210454 -19.34375 286.7578125 C-18.15652344 286.99757813 -16.96929687 287.23734375 -15.74609375 287.484375 C-14.64394531 287.69835937 -13.54179687 287.91234375 -12.40625 288.1328125 C-11.63104004 288.30772217 -10.85583008 288.48263184 -10.05712891 288.6628418 C-5.03363314 289.5534505 0.06799096 289.31744588 5.15625 289.3203125 C6.27322266 289.33255859 7.39019531 289.34480469 8.54101562 289.35742188 C26.43483497 289.38854156 42.46115827 284.50329018 58.38671875 276.68359375 C61.59375 275.1328125 61.59375 275.1328125 64.45703125 274.11328125 C65.16214844 273.78972656 65.86726563 273.46617187 66.59375 273.1328125 C66.92375 272.1428125 67.25375 271.1528125 67.59375 270.1328125 C68.3775 270.0503125 69.16125 269.9678125 69.96875 269.8828125 C72.70596696 269.41559117 72.70596696 269.41559117 73.78125 267.2578125 C74.049375 266.5565625 74.3175 265.8553125 74.59375 265.1328125 C76.59375 262.1328125 76.59375 262.1328125 78.78125 261.3203125 C83.05503914 259.51582375 87.48015946 256.35999357 89.59375 252.1328125 C90.25375 252.1328125 90.91375 252.1328125 91.59375 252.1328125 C91.59375 251.4728125 91.59375 250.8128125 91.59375 250.1328125 C92.25375 250.1328125 92.91375 250.1328125 93.59375 250.1328125 C93.84125 249.5140625 94.08875 248.8953125 94.34375 248.2578125 C95.83115369 245.72922623 97.03053009 245.41442246 99.59375 244.1328125 C100.86179566 242.0992177 100.86179566 242.0992177 101.59375 240.1328125 C102.25375 240.1328125 102.91375 240.1328125 103.59375 240.1328125 C103.82964844 239.565625 104.06554687 238.9984375 104.30859375 238.4140625 C106.37775876 234.74113738 109.53946112 232.20914003 112.59765625 229.3515625 C114.712218 227.37240085 114.712218 227.37240085 115.0090332 225.18383789 C115.75886662 222.5536289 116.81859439 221.79046714 118.9453125 220.09765625 C122.51950452 217.11118835 125.85264316 213.95490453 129.1171875 210.63671875 C129.59375793 210.15439789 130.07032837 209.67207703 130.56134033 209.17514038 C132.53954175 207.1702356 134.51318648 205.16093926 136.48291016 203.14770508 C137.94003443 201.66056868 139.40316757 200.17956245 140.8671875 198.69921875 C141.72747559 197.82209229 142.58776367 196.94496582 143.47412109 196.04125977 C145.59375 194.1328125 145.59375 194.1328125 147.59375 194.1328125 C147.59375 193.4728125 147.59375 192.8128125 147.59375 192.1328125 C148.25375 192.1328125 148.91375 192.1328125 149.59375 192.1328125 C149.59375 191.4728125 149.59375 190.8128125 149.59375 190.1328125 C150.25375 190.1328125 150.91375 190.1328125 151.59375 190.1328125 C151.59375 189.4728125 151.59375 188.8128125 151.59375 188.1328125 C153.57635426 186.44548973 155.5769842 184.77915193 157.59375 183.1328125 C157.92375 182.4728125 158.25375 181.8128125 158.59375 181.1328125 C159.25375 181.1328125 159.91375 181.1328125 160.59375 181.1328125 C160.59375 180.4728125 160.59375 179.8128125 160.59375 179.1328125 C161.25375 179.1328125 161.91375 179.1328125 162.59375 179.1328125 C162.59375 178.4728125 162.59375 177.8128125 162.59375 177.1328125 C163.25375 177.1328125 163.91375 177.1328125 164.59375 177.1328125 C164.59375 176.4728125 164.59375 175.8128125 164.59375 175.1328125 C165.25375 175.1328125 165.91375 175.1328125 166.59375 175.1328125 C166.59375 174.4728125 166.59375 173.8128125 166.59375 173.1328125 C167.25375 173.1328125 167.91375 173.1328125 168.59375 173.1328125 C169.026875 171.7096875 169.026875 171.7096875 169.46875 170.2578125 C170.84310121 166.44017024 172.01786605 165.50393771 175.40625 163.3203125 C180.96614841 159.71909964 180.96614841 159.71909964 184.015625 154.171875 C184.76684264 151.52231006 185.89529029 150.71829935 188.03125 149.0078125 C192.48949213 145.30739091 196.47619663 141.24562722 200.4921875 137.07421875 C202.59375 135.1328125 202.59375 135.1328125 204.59375 135.1328125 C204.59375 134.4728125 204.59375 133.8128125 204.59375 133.1328125 C206.46875 131.0078125 206.46875 131.0078125 208.59375 129.1328125 C209.25375 129.1328125 209.91375 129.1328125 210.59375 129.1328125 C210.59375 128.4728125 210.59375 127.8128125 210.59375 127.1328125 C211.25375 127.1328125 211.91375 127.1328125 212.59375 127.1328125 C212.59375 126.4728125 212.59375 125.8128125 212.59375 125.1328125 C213.25375 125.1328125 213.91375 125.1328125 214.59375 125.1328125 C215.25375 123.8128125 215.91375 122.4928125 216.59375 121.1328125 C217.25375 121.1328125 217.91375 121.1328125 218.59375 121.1328125 C218.59375 120.4728125 218.59375 119.8128125 218.59375 119.1328125 C219.25375 119.1328125 219.91375 119.1328125 220.59375 119.1328125 C220.59375 118.4728125 220.59375 117.8128125 220.59375 117.1328125 C222.20880762 115.41608758 223.88632373 113.75769745 225.59375 112.1328125 C227.34744938 110.44915733 229.09748634 108.76167865 230.84375 107.0703125 C231.71515625 106.23371094 232.5865625 105.39710938 233.484375 104.53515625 C235.5602544 102.17096027 235.99217183 101.09442812 236.59375 98.1328125 C237.398125 97.8234375 238.2025 97.5140625 239.03125 97.1953125 C239.876875 96.8446875 240.7225 96.4940625 241.59375 96.1328125 C241.861875 95.4109375 242.13 94.6890625 242.40625 93.9453125 C243.95082897 90.28709915 246.20571729 88.68046045 249.2265625 86.1796875 C252.86900772 83.03011441 256.15444581 79.54113001 259.4921875 76.07421875 C261.59375 74.1328125 261.59375 74.1328125 263.59375 74.1328125 C264.25375 72.8128125 264.91375 71.4928125 265.59375 70.1328125 C266.25375 70.1328125 266.91375 70.1328125 267.59375 70.1328125 C267.59375 69.4728125 267.59375 68.8128125 267.59375 68.1328125 C269.09765625 66.65234375 269.09765625 66.65234375 271.15625 64.9453125 C278.2516039 59.28185394 278.2516039 59.28185394 283.59375 52.1328125 C284.25375 52.1328125 284.91375 52.1328125 285.59375 52.1328125 C285.59375 51.4728125 285.59375 50.8128125 285.59375 50.1328125 C286.25375 50.1328125 286.91375 50.1328125 287.59375 50.1328125 C287.95412354 49.28021851 287.95412354 49.28021851 288.32177734 48.41040039 C289.85251481 45.66946952 291.68346504 43.86811545 293.9453125 41.69140625 C294.79609375 40.86060547 295.646875 40.02980469 296.5234375 39.17382812 C298.32630699 37.43236071 300.13100849 35.69278799 301.9375 33.95507812 C302.78570313 33.12556641 303.63390625 32.29605469 304.5078125 31.44140625 C305.6827124 30.30916626 305.6827124 30.30916626 306.88134766 29.15405273 C308.91695448 27.1928337 308.91695448 27.1928337 308.59375 24.1328125 C310.23828125 22.34375 310.23828125 22.34375 312.40625 20.5078125 C313.11394531 19.89679688 313.82164062 19.28578125 314.55078125 18.65625 C316.59375 17.1328125 316.59375 17.1328125 319.59375 16.1328125 C319.59375 15.4728125 319.59375 14.8128125 319.59375 14.1328125 C321.2334221 12.76641908 322.90485128 11.4378706 324.59375 10.1328125 C325.25375 9.3903125 325.91375 8.6478125 326.59375 7.8828125 C328.59375 6.1328125 328.59375 6.1328125 331.28125 5.8203125 C333.59375 6.1328125 333.59375 6.1328125 334.59375 7.1328125 C335.99723735 7.23141381 337.40555477 7.26360187 338.8125 7.265625 C339.66199219 7.26691406 340.51148438 7.26820313 341.38671875 7.26953125 C342.28003906 7.26566406 343.17335938 7.26179687 344.09375 7.2578125 C344.98707031 7.26167969 345.88039063 7.26554688 346.80078125 7.26953125 C348.07501953 7.26759766 348.07501953 7.26759766 349.375 7.265625 C350.5515918 7.26393311 350.5515918 7.26393311 351.75195312 7.26220703 C353.61127988 7.33388692 353.61127988 7.33388692 354.59375 6.1328125 C357.17564446 6.03189775 359.730215 5.99309751 362.3125 6 C363.08557495 5.99904327 363.8586499 5.99808655 364.65515137 5.99710083 C366.29272544 5.99641909 367.93030219 5.99827293 369.56787109 6.00244141 C372.08306921 6.00778979 374.59808873 6.00249624 377.11328125 5.99609375 C378.70052123 5.99675453 380.2877611 5.9980357 381.875 6 C383.0109259 5.99696365 383.0109259 5.99696365 384.1697998 5.99386597 C389.47879868 6.01786118 389.47879868 6.01786118 390.59375 7.1328125 C393.41631491 7.23288258 396.2089819 7.27156848 399.03125 7.2578125 C399.82080078 7.26167969 400.61035156 7.26554688 401.42382812 7.26953125 C405.64245745 7.37413719 405.64245745 7.37413719 409.59375 6.1328125 C412.28388339 5.94576846 414.89061177 6.04699859 417.59375 6.1328125 C419.26941884 7.80848134 418.72121515 9.85669791 418.72314453 12.15576172 C418.72787277 13.76280472 418.72787277 13.76280472 418.73269653 15.40231323 C418.7306723 16.56892487 418.72864807 17.7355365 418.7265625 18.9375 C418.72751923 20.12755646 418.72847595 21.31761292 418.72946167 22.54373169 C418.73014382 25.06740369 418.72828715 27.59107744 418.72412109 30.11474609 C418.71878273 33.98408957 418.72406011 37.85331646 418.73046875 41.72265625 C418.72980779 44.16927109 418.72852626 46.61588586 418.7265625 49.0625 C418.72858673 50.22506317 418.73061096 51.38762634 418.73269653 52.5854187 C418.72954437 53.66308502 418.72639221 54.74075134 418.72314453 55.85107422 C418.72195114 57.27551346 418.72195114 57.27551346 418.72073364 58.72872925 C418.5636985 61.70175437 418.18185334 63.55350871 416.02734375 65.67578125 C415.03927734 66.48982422 415.03927734 66.48982422 414.03125 67.3203125 C410.19989476 70.55107692 406.71303602 74.00160984 403.2578125 77.62890625 C401.59375 79.1328125 401.59375 79.1328125 399.59375 79.1328125 C399.59375 79.7928125 399.59375 80.4528125 399.59375 81.1328125 C398.93375 81.1328125 398.27375 81.1328125 397.59375 81.1328125 C397.59375 81.7928125 397.59375 82.4528125 397.59375 83.1328125 C396.93375 83.1328125 396.27375 83.1328125 395.59375 83.1328125 C395.59375 83.7928125 395.59375 84.4528125 395.59375 85.1328125 C394.93375 85.1328125 394.27375 85.1328125 393.59375 85.1328125 C393.59375 85.7928125 393.59375 86.4528125 393.59375 87.1328125 C392.93375 87.1328125 392.27375 87.1328125 391.59375 87.1328125 C391.59375 87.7928125 391.59375 88.4528125 391.59375 89.1328125 C390.93375 89.1328125 390.27375 89.1328125 389.59375 89.1328125 C389.59375 89.7928125 389.59375 90.4528125 389.59375 91.1328125 C388.93375 91.1328125 388.27375 91.1328125 387.59375 91.1328125 C387.59375 91.7928125 387.59375 92.4528125 387.59375 93.1328125 C386.93375 93.1328125 386.27375 93.1328125 385.59375 93.1328125 C385.334729 93.71853027 385.07570801 94.30424805 384.80883789 94.90771484 C383.50372874 97.29766156 382.10035672 98.8399959 380.15234375 100.734375 C379.15364258 101.71664062 379.15364258 101.71664062 378.13476562 102.71875 C377.44060547 103.39164062 376.74644531 104.06453125 376.03125 104.7578125 C374.65276463 106.10193119 373.27635599 107.44818403 371.90234375 108.796875 C371.29189209 109.38936035 370.68144043 109.9818457 370.05249023 110.59228516 C368.49564218 112.08715298 368.49564218 112.08715298 367.59375 114.1328125 C366.93375 114.1328125 366.27375 114.1328125 365.59375 114.1328125 C365.53960938 114.67421875 365.48546875 115.215625 365.4296875 115.7734375 C364.20810958 119.22125556 361.78049535 121.38018435 359.21875 123.8828125 C358.72375 124.38941406 358.22875 124.89601563 357.71875 125.41796875 C353.97386708 129.1328125 353.97386708 129.1328125 350.59375 129.1328125 C350.43507446 130.02274902 350.43507446 130.02274902 350.27319336 130.93066406 C349.49653797 133.44788705 348.57812498 134.52222088 346.72265625 136.3671875 C346.14837891 136.94082031 345.57410156 137.51445312 344.98242188 138.10546875 C344.37978516 138.69199219 343.77714844 139.27851563 343.15625 139.8828125 C342.2580957 140.78580078 342.2580957 140.78580078 341.34179688 141.70703125 C336.86081881 146.1328125 336.86081881 146.1328125 334.59375 146.1328125 C334.59375 146.7928125 334.59375 147.4528125 334.59375 148.1328125 C333.93375 148.1328125 333.27375 148.1328125 332.59375 148.1328125 C332.34625 148.7515625 332.09875 149.3703125 331.84375 150.0078125 C330.38746361 152.48349937 329.21562494 153.08406252 326.59375 154.1328125 C326.59375 154.7928125 326.59375 155.4528125 326.59375 156.1328125 C325.93375 156.1328125 325.27375 156.1328125 324.59375 156.1328125 C324.59375 156.7928125 324.59375 157.4528125 324.59375 158.1328125 C323.93375 158.1328125 323.27375 158.1328125 322.59375 158.1328125 C322.59375 158.7928125 322.59375 159.4528125 322.59375 160.1328125 C321.93375 160.1328125 321.27375 160.1328125 320.59375 160.1328125 C320.59375 160.7928125 320.59375 161.4528125 320.59375 162.1328125 C319.93375 162.1328125 319.27375 162.1328125 318.59375 162.1328125 C318.59375 162.7928125 318.59375 163.4528125 318.59375 164.1328125 C317.93375 164.1328125 317.27375 164.1328125 316.59375 164.1328125 C316.59375 164.7928125 316.59375 165.4528125 316.59375 166.1328125 C315.93375 166.1328125 315.27375 166.1328125 314.59375 166.1328125 C314.59375 166.7928125 314.59375 167.4528125 314.59375 168.1328125 C312.87890625 169.7890625 312.87890625 169.7890625 310.65625 171.6328125 C307.67329821 174.02208249 307.67329821 174.02208249 305.59375 177.1328125 C304.93375 177.1328125 304.27375 177.1328125 303.59375 177.1328125 C303.59375 177.7928125 303.59375 178.4528125 303.59375 179.1328125 C302.93375 179.1328125 302.27375 179.1328125 301.59375 179.1328125 C301.59375 179.7928125 301.59375 180.4528125 301.59375 181.1328125 C300.93375 181.1328125 300.27375 181.1328125 299.59375 181.1328125 C299.59375 181.7928125 299.59375 182.4528125 299.59375 183.1328125 C298.93375 183.1328125 298.27375 183.1328125 297.59375 183.1328125 C297.59375 183.7928125 297.59375 184.4528125 297.59375 185.1328125 C296.93375 185.1328125 296.27375 185.1328125 295.59375 185.1328125 C295.59375 185.7928125 295.59375 186.4528125 295.59375 187.1328125 C294.93375 187.1328125 294.27375 187.1328125 293.59375 187.1328125 C293.37589844 187.68066406 293.15804688 188.22851562 292.93359375 188.79296875 C290.83701928 192.45433349 287.70603778 195.10198531 284.66992188 197.97851562 C282.56846128 200.01191272 280.74579254 201.86438748 279.29882812 204.41894531 C277.16654155 207.81277372 274.51128736 210.50183002 271.68359375 213.30859375 C271.11548477 213.87861618 270.54737579 214.44863861 269.96205139 215.03593445 C268.76678973 216.23255127 267.56902199 217.42666954 266.36889648 218.6184082 C264.52675952 220.44977673 262.69560654 222.2916468 260.86523438 224.13476562 C259.7011621 225.29751735 258.53647014 226.45964909 257.37109375 227.62109375 C256.82210922 228.17412674 256.27312469 228.72715973 255.70750427 229.29695129 C251.82370007 233.1328125 251.82370007 233.1328125 249.59375 233.1328125 C249.59375 233.7928125 249.59375 234.4528125 249.59375 235.1328125 C248.93375 235.1328125 248.27375 235.1328125 247.59375 235.1328125 C247.59375 235.7928125 247.59375 236.4528125 247.59375 237.1328125 C246.08984375 238.578125 246.08984375 238.578125 244.03125 240.2578125 C240.27618387 243.42594112 237.14109343 246.82711486 234.0390625 250.62890625 C233.56210937 251.12519531 233.08515625 251.62148438 232.59375 252.1328125 C231.93375 252.1328125 231.27375 252.1328125 230.59375 252.1328125 C230.59375 252.7928125 230.59375 253.4528125 230.59375 254.1328125 C229.93375 254.1328125 229.27375 254.1328125 228.59375 254.1328125 C228.59375 254.7928125 228.59375 255.4528125 228.59375 256.1328125 C227.93375 256.1328125 227.27375 256.1328125 226.59375 256.1328125 C226.59375 256.7928125 226.59375 257.4528125 226.59375 258.1328125 C225.93375 258.1328125 225.27375 258.1328125 224.59375 258.1328125 C224.59375 258.7928125 224.59375 259.4528125 224.59375 260.1328125 C223.93375 260.1328125 223.27375 260.1328125 222.59375 260.1328125 C222.59375 260.7928125 222.59375 261.4528125 222.59375 262.1328125 C221.93375 262.1328125 221.27375 262.1328125 220.59375 262.1328125 C220.59375 262.7928125 220.59375 263.4528125 220.59375 264.1328125 C219.93375 264.1328125 219.27375 264.1328125 218.59375 264.1328125 C218.26375 265.1228125 217.93375 266.1128125 217.59375 267.1328125 C215.65625 269.3203125 215.65625 269.3203125 213.59375 271.1328125 C212.93375 271.1328125 212.27375 271.1328125 211.59375 271.1328125 C211.2225 271.9990625 211.2225 271.9990625 210.84375 272.8828125 C209.59375 275.1328125 209.59375 275.1328125 207.53125 277.1328125 C205.51767778 279.21133866 204.99550906 280.32049908 204.59375 283.1328125 C203.60375 283.1328125 202.61375 283.1328125 201.59375 283.1328125 C201.59375 284.1228125 201.59375 285.1128125 201.59375 286.1328125 C197.25089286 290.1328125 197.25089286 290.1328125 194.59375 290.1328125 C193.93375 291.4528125 193.27375 292.7728125 192.59375 294.1328125 C191.93375 294.1328125 191.27375 294.1328125 190.59375 294.1328125 C190.59375 294.7928125 190.59375 295.4528125 190.59375 296.1328125 C188.71875 298.2578125 188.71875 298.2578125 186.59375 300.1328125 C185.93375 300.1328125 185.27375 300.1328125 184.59375 300.1328125 C184.59375 300.7928125 184.59375 301.4528125 184.59375 302.1328125 C182.71875 304.2578125 182.71875 304.2578125 180.59375 306.1328125 C179.93375 306.1328125 179.27375 306.1328125 178.59375 306.1328125 C178.59375 306.7928125 178.59375 307.4528125 178.59375 308.1328125 C177.93375 308.1328125 177.27375 308.1328125 176.59375 308.1328125 C176.59375 308.7928125 176.59375 309.4528125 176.59375 310.1328125 C174.93159732 311.47176882 173.26411393 312.80411392 171.59375 314.1328125 C168.68166255 317.22634815 168.68166255 317.22634815 167.20703125 321.08203125 C166.40515316 323.76347073 165.18238491 324.68146607 163.03125 326.4453125 C162.31453125 327.04472656 161.5978125 327.64414062 160.859375 328.26171875 C160.11171875 328.87917969 159.3640625 329.49664062 158.59375 330.1328125 C157.1519108 331.37780486 155.71422741 332.62763044 154.28125 333.8828125 C153.64574219 334.43453125 153.01023437 334.98625 152.35546875 335.5546875 C151.2558473 336.53971426 150.18219363 337.55552216 149.15234375 338.61328125 C146.5109485 341.18847612 143.49854317 343.29668171 140.5546875 345.51171875 C138.49615243 346.99099292 138.49615243 346.99099292 137.59375 349.1328125 C135.59375 350.1328125 133.59375 351.1328125 131.59375 352.1328125 C129.92338607 353.46151108 128.25590268 354.79385618 126.59375 356.1328125 C125.93375 356.1328125 125.27375 356.1328125 124.59375 356.1328125 C124.26375 357.1228125 123.93375 358.1128125 123.59375 359.1328125 C120.38090662 361.01861187 118.34741417 362.1328125 114.59375 362.1328125 C114.26375 363.1228125 113.93375 364.1128125 113.59375 365.1328125 C112.830625 365.2359375 112.0675 365.3390625 111.28125 365.4453125 C108.59492748 365.88296706 108.59492748 365.88296706 107.2109375 367.55859375 C105.26643959 369.45142626 103.57519008 370.08497067 101.03125 371.0078125 C97.39065605 372.39092025 93.9316793 373.91300113 90.46875 375.6953125 C83.07349372 379.44453545 75.98690555 381.60091788 67.87890625 383.37890625 C64.94951895 384.05116754 62.09890335 384.84113885 59.21875 385.6953125 C53.48427973 387.32769121 47.6949234 387.92613971 41.78125 388.5078125 C38.62152929 388.79167319 38.62152929 388.79167319 37.25708008 390.64761353 C34.83238224 392.81264306 33.00471186 392.51369668 29.79296875 392.52099609 C28.6016333 392.53045258 27.41029785 392.53990906 26.18286133 392.5496521 C24.25156372 392.54054306 24.25156372 392.54054306 22.28125 392.53125 C20.94750815 392.53327105 19.61376737 392.53618276 18.2800293 392.53994751 C15.48573274 392.54436946 12.69172402 392.5379444 9.89746094 392.52392578 C6.31600535 392.50683344 2.73522418 392.51667539 -0.84620667 392.53464317 C-3.60002726 392.54548481 -6.35368801 392.54203304 -9.10751343 392.5342598 C-11.07013385 392.53128579 -13.03276048 392.54039542 -14.99536133 392.5496521 C-16.18669678 392.54019562 -17.37803223 392.53073914 -18.60546875 392.52099609 C-19.65565186 392.51860931 -20.70583496 392.51622253 -21.7878418 392.51376343 C-24.81445534 392.0734229 -25.43927312 391.35422175 -27.40625 389.1328125 C-30.74278466 388.47195454 -30.74278466 388.47195454 -34.59375 388.1953125 C-46.15391687 387.00737921 -57.52973304 384.25567994 -68.40625 380.1328125 C-69.66308594 379.66488281 -69.66308594 379.66488281 -70.9453125 379.1875 C-80.10270076 375.58004402 -88.67862359 370.87748661 -97.33642578 366.22924805 C-99.13205515 365.27806009 -100.94729974 364.36407955 -102.765625 363.45703125 C-105.84742357 361.91157309 -108.63256296 360.1800577 -111.40625 358.1328125 C-111.40625 357.4728125 -111.40625 356.8128125 -111.40625 356.1328125 C-113.05625 355.8028125 -114.70625 355.4728125 -116.40625 355.1328125 C-116.90125 353.6478125 -116.90125 353.6478125 -117.40625 352.1328125 C-118.086875 351.8853125 -118.7675 351.6378125 -119.46875 351.3828125 C-123.15939808 349.81232395 -125.5349874 347.4878169 -128.48046875 344.80859375 C-130.63908183 342.93020631 -132.92656549 341.54977508 -135.40625 340.1328125 C-137.21875 338.5703125 -137.21875 338.5703125 -138.40625 337.1328125 C-138.40625 336.4728125 -138.40625 335.8128125 -138.40625 335.1328125 C-139.06625 335.1328125 -139.72625 335.1328125 -140.40625 335.1328125 C-140.40625 334.4728125 -140.40625 333.8128125 -140.40625 333.1328125 C-141.06625 333.1328125 -141.72625 333.1328125 -142.40625 333.1328125 C-142.40625 332.4728125 -142.40625 331.8128125 -142.40625 331.1328125 C-143.06625 331.1328125 -143.72625 331.1328125 -144.40625 331.1328125 C-144.40625 330.4728125 -144.40625 329.8128125 -144.40625 329.1328125 C-145.2725 328.8234375 -145.2725 328.8234375 -146.15625 328.5078125 C-149.22680545 326.63136195 -150.4798013 324.14288859 -152.40625 321.1328125 C-153.52 320.0190625 -153.52 320.0190625 -154.65625 318.8828125 C-155.23375 318.3053125 -155.81125 317.7278125 -156.40625 317.1328125 C-156.40625 316.4728125 -156.40625 315.8128125 -156.40625 315.1328125 C-157.6128125 314.7615625 -157.6128125 314.7615625 -158.84375 314.3828125 C-159.689375 313.9703125 -160.535 313.5578125 -161.40625 313.1328125 C-162.03125 311.2578125 -162.03125 311.2578125 -162.40625 309.1328125 C-162.921875 308.4521875 -163.4375 307.7715625 -163.96875 307.0703125 C-165.40625 305.1328125 -165.40625 305.1328125 -165.40625 302.1328125 C-166.39625 301.8028125 -167.38625 301.4728125 -168.40625 301.1328125 C-169.79296875 299.35546875 -169.79296875 299.35546875 -171.09375 297.1953125 C-171.74923828 296.12990234 -171.74923828 296.12990234 -172.41796875 295.04296875 C-173.40625 293.1328125 -173.40625 293.1328125 -173.40625 291.1328125 C-174.39625 290.8028125 -175.38625 290.4728125 -176.40625 290.1328125 C-178.04890807 287.42093336 -179.08748977 284.46353071 -180.21875 281.5078125 C-181.58764037 278.0117988 -183.11678155 274.74344051 -184.90625 271.4453125 C-187.66051911 266.08885048 -189.05789444 260.49348179 -190.49609375 254.6875 C-191.23987172 251.78261609 -192.08422209 249.01418755 -193.09375 246.1953125 C-194.49713745 242.18345491 -195.02187721 238.36091316 -195.40625 234.1328125 C-196.06625 234.1328125 -196.72625 234.1328125 -197.40625 234.1328125 C-197.40625 209.7128125 -197.40625 185.2928125 -197.40625 160.1328125 C-196.74625 160.1328125 -196.08625 160.1328125 -195.40625 160.1328125 C-195.468125 159.0190625 -195.53 157.9053125 -195.59375 156.7578125 C-195.59375 151.53696401 -194.07364947 147.03512061 -192.40625 142.1328125 C-192.17808594 141.41351563 -191.94992188 140.69421875 -191.71484375 139.953125 C-189.87049444 134.19875517 -187.68760287 128.58137168 -185.4921875 122.953125 C-184.75164006 121.02983273 -184.05797568 119.08798955 -183.40625 117.1328125 C-182.74625 117.1328125 -182.08625 117.1328125 -181.40625 117.1328125 C-181.28378906 116.59140625 -181.16132813 116.05 -181.03515625 115.4921875 C-180.29620118 112.71995853 -179.33698846 110.07416833 -178.34375 107.3828125 C-177.80041016 105.90554688 -177.80041016 105.90554688 -177.24609375 104.3984375 C-176.96894531 103.65078125 -176.69179687 102.903125 -176.40625 102.1328125 C-175.41625 102.1328125 -174.42625 102.1328125 -173.40625 102.1328125 C-172.74625 100.1528125 -172.08625 98.1728125 -171.40625 96.1328125 C-170.74625 96.1328125 -170.08625 96.1328125 -169.40625 96.1328125 C-169.2825 95.3284375 -169.15875 94.5240625 -169.03125 93.6953125 C-168.721875 92.426875 -168.721875 92.426875 -168.40625 91.1328125 C-167.41625 90.6378125 -167.41625 90.6378125 -166.40625 90.1328125 C-165.973125 88.9571875 -165.973125 88.9571875 -165.53125 87.7578125 C-164.24031016 84.74561953 -162.97007829 84.05568371 -160.40625 82.1328125 C-159.70413106 80.48076794 -159.03653587 78.81357481 -158.40625 77.1328125 C-157.40625 76.1328125 -156.40625 75.1328125 -155.40625 74.1328125 C-155.40625 73.1428125 -155.40625 72.1528125 -155.40625 71.1328125 C-154.08625 71.1328125 -152.76625 71.1328125 -151.40625 71.1328125 C-151.40625 70.1428125 -151.40625 69.1528125 -151.40625 68.1328125 C-150.0078125 66.66015625 -150.0078125 66.66015625 -148.03125 65.0703125 C-142.23953806 60.22840003 -136.99460506 54.84841419 -131.75390625 49.421875 C-129.85558615 47.60609056 -127.66683436 46.46861235 -125.40625 45.1328125 C-124.16735224 44.31401614 -122.9385368 43.47981622 -121.71875 42.6328125 C-121.13738281 42.230625 -120.55601562 41.8284375 -119.95703125 41.4140625 C-118.1289568 40.02902259 -118.1289568 40.02902259 -116.40625 37.1328125 C-115.07548011 36.78938801 -113.74193021 36.45661376 -112.40625 36.1328125 C-111.38605427 35.1534246 -110.38475195 34.15385801 -109.40625 33.1328125 C-108.41625 32.8028125 -107.42625 32.4728125 -106.40625 32.1328125 C-106.07625 31.4728125 -105.74625 30.8128125 -105.40625 30.1328125 C-102.79792637 28.81379691 -100.19484784 27.57989065 -97.53125 26.3828125 C-92.32572025 23.99819293 -87.21530555 21.56362378 -82.21875 18.7578125 C-78.65575224 16.77065333 -75.33755511 15.27944316 -71.40625 14.1328125 C-69.7493078 13.51968566 -68.09463308 12.90041919 -66.44140625 12.27734375 C-60.6506773 10.16261793 -54.80918047 8.48775087 -48.84375 6.9453125 C-47.88017578 6.68556641 -46.91660156 6.42582031 -45.92382812 6.15820312 C-40.40233896 4.71732901 -35.08296288 3.74701831 -29.38696289 3.3503418 C-27.33284191 3.2406495 -27.33284191 3.2406495 -25.40625 2.1328125 C-24.04417182 1.99433842 -22.6765385 1.90776917 -21.30859375 1.8515625 C-20.50744141 1.81417969 -19.70628906 1.77679688 -18.88085938 1.73828125 C-17.18555361 1.66780665 -15.49024106 1.59749489 -13.79492188 1.52734375 C-8.74534223 1.29134406 -5.07608054 0.00475798 0 0 Z " fill="#FFFFFF" transform="translate(279.40625,154.8671875)"/>
<path d="M0 0 C1.3227594 -0.00299103 1.3227594 -0.00299103 2.67224121 -0.00604248 C19.08523123 -0.00183618 35.16881664 1.18814542 51.1875 4.9375 C52.28239746 5.19362061 53.37729492 5.44974121 54.50537109 5.71362305 C81.25527347 12.31311826 104.46082485 25.52283968 124.4375 44.375 C125.17484375 45.04789062 125.9121875 45.72078125 126.671875 46.4140625 C156.07931313 74.2572752 168.40738566 115.8740042 169.7109375 155.265625 C170.18608454 179.84489826 168.28279918 205.22269583 159.4375 228.375 C159.00088135 229.66129978 158.56874527 230.94912804 158.140625 232.23828125 C151.34242872 252.18696688 139.86615662 269.13413423 125.4375 284.375 C124.61765625 285.25929688 123.7978125 286.14359375 122.953125 287.0546875 C92.66833006 318.68348222 48.53862194 331.58758285 5.80131531 332.54391479 C-25.83888951 333.14673032 -56.35371192 330.7220621 -85.5625 317.375 C-86.20735352 317.08399414 -86.85220703 316.79298828 -87.51660156 316.49316406 C-120.18027737 301.58868621 -147.59546152 273.99138309 -160.72900391 240.390625 C-164.76492517 229.32702337 -168.55179278 217.99688773 -170.5625 206.375 C-170.69495117 205.66424316 -170.82740234 204.95348633 -170.96386719 204.22119141 C-179.45205052 157.55525765 -172.60093882 106.35007512 -145.83203125 66.609375 C-120.55781841 30.59035911 -82.14300892 10.46747798 -39.53100586 2.53857422 C-26.3631154 0.3351026 -13.31993971 0.00793168 0 0 Z " fill="#00CBFE" transform="translate(1232.5625,212.625)"/>
<path d="M0 0 C3.33908023 -0.00217687 6.677824 -0.02036428 10.0168457 -0.03930664 C28.41016355 -0.08891413 46.39816352 1.13471336 64.49536133 4.49780273 C65.67807617 4.71364014 66.86079102 4.92947754 68.0793457 5.15185547 C77.66496649 6.95470962 87.01208165 9.2412769 96.30786133 12.18530273 C97.53633789 12.57073242 98.76481445 12.95616211 100.03051758 13.35327148 C108.08543486 15.96287626 108.08543486 15.96287626 109.30786133 17.18530273 C109.40308551 20.04622092 109.43339458 22.88293894 109.42138672 25.74414062 C109.42153275 26.64161514 109.42167877 27.53908966 109.42182922 28.46376038 C109.42112975 31.44518408 109.41333574 34.42654613 109.40551758 37.40795898 C109.40365352 39.46919216 109.40222956 41.53042577 109.40122986 43.59165955 C109.3974037 49.02834283 109.38757259 54.46499959 109.37652588 59.90167236 C109.36631385 65.44477988 109.36173269 70.98789166 109.35668945 76.53100586 C109.34595041 87.41578317 109.32887282 98.30054075 109.30786133 109.18530273 C108.30698486 108.6491333 107.3061084 108.11296387 106.27490234 107.56054688 C104.93304729 106.84297419 103.59116772 106.12544735 102.24926758 105.40795898 C101.59301392 105.05624634 100.93676025 104.70453369 100.26062012 104.34216309 C61.31779601 83.5334782 11.74702353 71.99825927 -31.69213867 84.18530273 C-45.54172027 88.41947952 -57.97656341 94.92194745 -65.39526367 107.68530273 C-69.80292499 116.18199926 -70.00522968 125.83592597 -68.07495117 135.16967773 C-62.29516234 151.23032988 -46.79133069 161.09852479 -32.69213867 169.18530273 C-31.6325293 169.79760742 -30.57291992 170.40991211 -29.48120117 171.04077148 C-14.96130496 179.09815096 0.48517237 185.40501684 15.72973633 191.94311523 C58.83375932 210.5069006 103.02472839 234.09288382 121.62036133 279.81030273 C134.1023868 312.03124977 132.34291682 351.33062096 118.50805664 382.78320312 C112.98714701 394.85653275 105.39345298 404.55102527 96.30786133 414.18530273 C95.69555664 414.86206055 95.08325195 415.53881836 94.45239258 416.23608398 C70.58475866 441.63043222 34.64061673 450.88940411 1.55786133 456.43530273 C0.60169922 456.59869141 -0.35446289 456.76208008 -1.33959961 456.93041992 C-49.31692224 464.50918864 -102.45263405 460.23199649 -148.50463867 445.24780273 C-149.89030029 444.79872559 -149.89030029 444.79872559 -151.30395508 444.34057617 C-159.28450191 441.60447054 -165.95962813 438.051558 -173.69213867 434.18530273 C-173.69213867 401.51530273 -173.69213867 368.84530273 -173.69213867 335.18530273 C-164.11149351 341.57239951 -164.11149351 341.57239951 -159.94213867 344.81030273 C-141.4442234 358.27740423 -120.78002792 367.48114931 -98.69213867 373.18530273 C-97.87656494 373.42015381 -97.06099121 373.65500488 -96.22070312 373.89697266 C-89.84820823 375.7151918 -83.57560694 377.02456103 -77.00463867 377.87280273 C-75.53728271 378.06277832 -75.53728271 378.06277832 -74.0402832 378.2565918 C-62.92357604 379.56818294 -51.86509825 379.53028026 -40.69213867 379.18530273 C-38.79334961 379.13889648 -38.79334961 379.13889648 -36.85620117 379.09155273 C-18.87440507 378.2035628 2.2557969 372.35249421 14.68286133 358.74780273 C22.13635369 349.39398655 23.06268847 339.74485856 22.30786133 328.18530273 C20.3923957 315.02306645 10.4111101 304.5977278 0.20629883 296.82202148 C-19.95635671 282.49546907 -43.19523559 273.3262761 -65.85864258 263.79907227 C-89.42042937 253.89042156 -112.11969698 242.89589161 -131.69213867 226.18530273 C-132.51069336 225.48920898 -133.32924805 224.79311523 -134.17260742 224.07592773 C-158.54241067 202.76651838 -172.71974959 175.49464443 -175.69213867 143.18530273 C-177.85867266 110.76566879 -170.63677325 78.94849869 -149.18823242 53.93139648 C-117.00667632 18.52664854 -71.2058419 2.82248315 -24.03549194 0.28106689 C-16.03004967 -0.04608585 -8.01067471 -0.00058238 0 0 Z " fill="#00CBFE" transform="translate(898.692138671875,85.814697265625)"/>
<path d="M0 0 C11.01627355 9.14875289 16.88136239 21.53457664 21 35 C21.22300781 35.69222656 21.44601562 36.38445312 21.67578125 37.09765625 C25.26601287 49.56754469 25.41340526 63.17664506 25.375 76.0625 C25.3737915 76.82080109 25.37258301 77.57910217 25.37133789 78.36038208 C25.25607038 105.18362353 20.64672133 131.56009238 1.6875 151.75 C-13.03205454 165.77803184 -32.4960257 168.63125742 -52.12890625 168.34375 C-71.29746573 167.58821473 -86.86755085 159.80714303 -99.93359375 145.94921875 C-115.46970016 127.57578333 -118.3967424 102.13998055 -118.26074219 78.98071289 C-118.24995104 76.8026177 -118.2607587 74.62533736 -118.2734375 72.44726562 C-118.28184372 63.80920099 -117.59981859 55.50456599 -116 47 C-115.80857422 45.91468994 -115.61714844 44.82937988 -115.41992188 43.71118164 C-112.54687574 28.09864735 -104.61290572 13.76318092 -93 3 C-92.48566406 2.46890625 -91.97132812 1.9378125 -91.44140625 1.390625 C-68.39614496 -21.01036017 -24.26377304 -19.11967106 0 0 Z " fill="#363942" transform="translate(1277,302)"/>
<path d="M0 0 C2.4375 2.0625 2.4375 2.0625 5 5 C5.88945313 5.95712891 5.88945313 5.95712891 6.796875 6.93359375 C12.70316142 13.38901836 12.70316142 13.38901836 14 18 C14.66 18 15.32 18 16 18 C16 18.66 16 19.32 16 20 C16.66 20 17.32 20 18 20 C19.68732277 21.98260426 21.35366057 23.9832342 23 26 C23.66 26.33 24.32 26.66 25 27 C25 27.66 25 28.32 25 29 C25.66 29 26.32 29 27 29 C27 29.66 27 30.32 27 31 C27.66 31 28.32 31 29 31 C29 31.66 29 32.32 29 33 C29.8353125 33.37125 29.8353125 33.37125 30.6875 33.75 C33.46269757 35.25010679 35.7035771 36.83115615 38 39 C38 40.32 38 41.64 38 43 C38.66 43 39.32 43 40 43 C41.5078125 44.4609375 41.5078125 44.4609375 43.125 46.375 C43.66382813 47.00148438 44.20265625 47.62796875 44.7578125 48.2734375 C46 50 46 50 46 52 C46.56332031 52.2371875 47.12664062 52.474375 47.70703125 52.71875 C50.51272916 54.28649943 52.43755408 56.20914597 54.6875 58.5 C55.47511719 59.2940625 56.26273438 60.088125 57.07421875 60.90625 C59 63 59 63 60 65 C60.99 65.33 61.98 65.66 63 66 C63 66.66 63 67.32 63 68 C63.66 68 64.32 68 65 68 C65.24492188 68.73863281 65.48984375 69.47726562 65.7421875 70.23828125 C67.13626968 73.29920083 68.67085655 74.91367892 71.125 77.1875 C72.45149136 78.42193947 73.75250533 79.68577887 75 81 C75 81.66 75 82.32 75 83 C75.87857666 83.38853149 75.87857666 83.38853149 76.77490234 83.78491211 C79.16484906 85.09002126 80.7071834 86.49339328 82.6015625 88.44140625 C83.58382812 89.44010742 83.58382812 89.44010742 84.5859375 90.45898438 C85.25882813 91.15314453 85.93171875 91.84730469 86.625 92.5625 C87.96911869 93.94098537 89.31537153 95.31739401 90.6640625 96.69140625 C91.25654785 97.30185791 91.8490332 97.91230957 92.45947266 98.54125977 C93.95434048 100.09810782 93.95434048 100.09810782 96 101 C96.4021875 102.1446875 96.4021875 102.1446875 96.8125 103.3125 C98.27724085 106.62743981 100.13730337 107.83552206 103 110 C106.04562806 113.25891577 106.37817379 115.52252504 106.38818359 119.93017578 C106.39764008 121.12466339 106.40709656 122.319151 106.4168396 123.54983521 C106.40773056 125.47809647 106.40773056 125.47809647 106.3984375 127.4453125 C106.400459 128.78002074 106.40337107 130.11472791 106.40713501 131.44943237 C106.41155181 134.24194897 106.40514644 137.03417714 106.39111328 139.82666016 C106.37398802 143.40930585 106.38388693 146.99127897 106.40183067 150.57390022 C106.41525978 153.98942538 106.4058673 157.40476822 106.3984375 160.8203125 C106.40451019 162.10986847 106.41058289 163.39942444 106.4168396 164.72805786 C106.40265488 166.51033279 106.40265488 166.51033279 106.38818359 168.32861328 C106.38579681 169.37800079 106.38341003 170.42738831 106.38095093 171.50857544 C106.25523712 172.33074554 106.12952332 173.15291565 106 174 C102.34457823 176.43694785 99.62114204 176.28901193 95.39501953 176.2746582 C94.23598114 176.2823246 94.23598114 176.2823246 93.05352783 176.29014587 C90.49654414 176.30405751 87.93982956 176.30308374 85.3828125 176.30078125 C83.60545756 176.30466774 81.82810354 176.30900232 80.05075073 176.31376648 C76.323354 176.32123237 72.59605197 176.32093506 68.86865234 176.31567383 C64.09472889 176.30988319 59.32119391 176.3267985 54.54733467 176.3500185 C50.87557716 176.36476049 47.20391306 176.36562683 43.5321312 176.36250877 C41.77228909 176.3630219 40.01244174 176.36825805 38.25262833 176.37832069 C35.78941992 176.39067488 33.32696611 176.38389954 30.86376953 176.37231445 C30.13839996 176.37995819 29.4130304 176.38760193 28.66567993 176.39547729 C23.04435831 176.33712085 20.00764011 174.77144716 15.875 171.125 C14 169 14 169 12.60546875 166.62890625 C7.48331604 158.24153696 -0.54510612 151.35849585 -7.4375 144.4375 C-8.24324463 143.62708252 -9.04898926 142.81666504 -9.87915039 141.98168945 C-10.6396167 141.22331787 -11.40008301 140.46494629 -12.18359375 139.68359375 C-12.86993896 138.99837646 -13.55628418 138.31315918 -14.26342773 137.60717773 C-15.92079009 135.923227 -15.92079009 135.923227 -18 135 C-18 134.34 -18 133.68 -18 133 C-18.8971875 132.6596875 -18.8971875 132.6596875 -19.8125 132.3125 C-23.63717431 130.01769541 -25.11501063 125.91497793 -27 122 C-27.66 122 -28.32 122 -29 122 C-30.48046875 120.4609375 -30.48046875 120.4609375 -32.1875 118.375 C-34.53440883 115.59782455 -36.86313503 113.16370954 -39.6875 110.875 C-42.85670329 108.26547941 -44.71531248 105.42703128 -47 102 C-50.62081288 98.14363238 -54.43097081 94.4776816 -58.28125 90.8515625 C-60 89 -60 89 -60 87 C-60.5775 86.79375 -61.155 86.5875 -61.75 86.375 C-64.81938843 84.49926262 -66.09314738 82.01405737 -68 79 C-68.86625 78.13375 -68.86625 78.13375 -69.75 77.25 C-70.1625 76.8375 -70.575 76.425 -71 76 C-71 75.34 -71 74.68 -71 74 C-71.99 74 -72.98 74 -74 74 C-74.23770547 71.14753441 -74.42742785 68.79721771 -74 66 C-71.875 63.9375 -71.875 63.9375 -69 62 C-67.37646131 60.17798469 -65.85192576 58.29951626 -64.33203125 56.390625 C-63.89246094 55.93171875 -63.45289063 55.4728125 -63 55 C-62.34 55 -61.68 55 -61 55 C-61 54.34 -61 53.68 -61 53 C-59.34997172 51.64613064 -57.6825613 50.31321858 -56 49 C-55.67 48.34 -55.34 47.68 -55 47 C-54.34 47 -53.68 47 -53 47 C-53 46.34 -53 45.68 -53 45 C-51.515 44.505 -51.515 44.505 -50 44 C-49.67 43.01 -49.34 42.02 -49 41 C-47.58520508 39.59985352 -47.58520508 39.59985352 -45.70703125 38.06640625 C-40.31550617 33.48787938 -35.31440014 28.53635235 -30.30737305 23.54760742 C-28.68002785 21.9300729 -27.04230393 20.32352466 -25.40429688 18.71679688 C-24.35611538 17.67513831 -23.30856651 16.63284269 -22.26171875 15.58984375 C-21.77732834 15.11780014 -21.29293793 14.64575653 -20.79386902 14.15940857 C-17.6951165 11.04019249 -15.84849543 7.96517363 -14 4 C-9.83608897 0.10243723 -5.57760087 -2.23104035 0 0 Z " fill="#FFFFFF" transform="translate(592,364)"/>
<path d="M0 0 C0.639375 0.495 1.27875 0.99 1.9375 1.5 C2.2675 0.84 2.5975 0.18 2.9375 -0.5 C7.2275 -0.5 11.5175 -0.5 15.9375 -0.5 C16.06185721 5.7255133 16.15219608 11.95029064 16.2121582 18.17675781 C16.23717575 20.29114389 16.27120092 22.40544459 16.31469727 24.51953125 C16.37591332 27.57313192 16.40383792 30.62558139 16.42578125 33.6796875 C16.45158768 34.61239471 16.4773941 35.54510193 16.50398254 36.506073 C16.506885 43.42437737 14.81579084 48.73295156 10.9375 54.5 C4.67361278 60.51947809 -2.25357158 61.82660125 -10.6875 61.6875 C-11.43773437 61.68685547 -12.18796875 61.68621094 -12.9609375 61.68554688 C-16.55310203 61.65688599 -19.55626937 61.37655766 -23.0625 60.5 C-23.0625 57.2 -23.0625 53.9 -23.0625 50.5 C-21.97710938 50.60699219 -20.89171875 50.71398437 -19.7734375 50.82421875 C-18.32820125 50.94621921 -16.88288397 51.06726228 -15.4375 51.1875 C-14.72464844 51.26033203 -14.01179687 51.33316406 -13.27734375 51.40820312 C-8.37260168 51.79068301 -5.33191839 51.24554466 -1.0625 48.5 C1.60450027 45.12179966 2.30393342 42.77505653 1.9375 38.5 C1.174375 39.16 0.41125 39.82 -0.375 40.5 C-4.8917354 43.52191106 -9.8400139 43.14781221 -15.0625 42.5 C-19.64877026 40.70537251 -22.19911881 37.44682272 -25.0625 33.5 C-27.91076314 26.46369837 -28.35065997 18.39037976 -26.41015625 11.0234375 C-24.20568445 6.12250878 -20.59033384 2.36961399 -16.0625 -0.5 C-10.76854434 -2.25755067 -5.01433881 -2.45600268 0 0 Z " fill="#FAFAFA" transform="translate(599.0625,612.5)"/>
<path d="M0 0 C3.60175097 3.09918107 6.17345612 5.77036837 7.6875 10.3125 C7.86310807 13.22298781 7.96468869 16.08799369 8 19 C8.02900391 19.77794922 8.05800781 20.55589844 8.08789062 21.35742188 C8.1571907 27.74902124 6.6922436 33.14258452 2.20410156 37.87744141 C-2.47325107 41.94300673 -6.14380439 42.54033475 -12.08984375 42.47265625 C-16.05504659 42.18693865 -18.52684281 41.09815719 -21.3125 38.3125 C-21.6425 45.5725 -21.9725 52.8325 -22.3125 60.3125 C-26.6025 60.3125 -30.8925 60.3125 -35.3125 60.3125 C-35.3125 40.1825 -35.3125 20.0525 -35.3125 -0.6875 C-31.0225 -0.6875 -26.7325 -0.6875 -22.3125 -0.6875 C-21.9825 0.6325 -21.6525 1.9525 -21.3125 3.3125 C-20.57 2.673125 -19.8275 2.03375 -19.0625 1.375 C-13.51109455 -2.78855409 -6.13094241 -3.12331029 0 0 Z " fill="#F9FAFA" transform="translate(299.3125,612.6875)"/>
<path d="M0 0 C1.9375 1.625 1.9375 1.625 2.9375 3.625 C5.16183284 2.55402493 7.05149909 1.53518254 9 0 C13.59056353 -2.14877442 17.9707719 -2.27610638 22.9375 -1.375 C26.42238515 0.61723329 29.13290905 3.0158181 30.9375 6.625 C31.02417255 9.25127133 31.05310135 11.85062483 31.03515625 14.4765625 C31.0337413 15.25059418 31.03232635 16.02462585 31.03086853 16.82211304 C31.02526403 19.29811442 31.01271083 21.77402588 31 24.25 C30.99498558 25.92708203 30.99042257 27.60416547 30.98632812 29.28125 C30.97529315 33.39586806 30.95802554 37.51041878 30.9375 41.625 C26.6475 41.625 22.3575 41.625 17.9375 41.625 C17.92291748 40.6963916 17.90833496 39.7677832 17.89331055 38.81103516 C17.83230828 35.37033504 17.7581695 31.93044348 17.67504883 28.49023438 C17.64176537 27.00043428 17.61374403 25.51050705 17.59106445 24.02050781 C17.55757929 21.88030748 17.50527211 19.74127581 17.44921875 17.6015625 C17.42303467 16.31330566 17.39685059 15.02504883 17.36987305 13.69775391 C17.15584839 12.17674072 17.15584839 12.17674072 16.9375 10.625 C14.11181454 8.30461905 14.11181454 8.30461905 10.875 8.8125 C7.64009047 9.36254498 7.64009047 9.36254498 5.9375 12.625 C5.5678565 15.72708984 5.5678565 15.72708984 5.5234375 19.26171875 C5.48476562 20.56044922 5.44609375 21.85917969 5.40625 23.19726562 C5.37479483 24.56900573 5.34354749 25.94075061 5.3125 27.3125 C5.27430803 28.69598785 5.23525558 30.07945223 5.1953125 31.46289062 C5.10089733 34.85003472 5.01810428 38.23749911 4.9375 41.625 C0.6475 41.625 -3.6425 41.625 -8.0625 41.625 C-8.12308594 39.66175781 -8.18367188 37.69851563 -8.24609375 35.67578125 C-8.3305116 33.09634704 -8.41515898 30.51692033 -8.5 27.9375 C-8.53931641 26.64392578 -8.57863281 25.35035156 -8.61914062 24.01757812 C-8.66103516 22.77041016 -8.70292969 21.52324219 -8.74609375 20.23828125 C-8.78275146 19.09141846 -8.81940918 17.94455566 -8.85717773 16.76293945 C-9.04090298 13.95506722 -9.4324382 11.36274186 -10.0625 8.625 C-14.78730523 8.17055932 -14.78730523 8.17055932 -18.9375 10 C-21.26950713 13.36845474 -21.25039118 15.86954876 -21.37890625 19.9453125 C-21.42080078 21.20214844 -21.46269531 22.45898438 -21.50585938 23.75390625 C-21.54517578 25.07261719 -21.58449219 26.39132812 -21.625 27.75 C-21.66819512 29.08985751 -21.71180973 30.42970156 -21.75585938 31.76953125 C-21.8622091 35.0545562 -21.96288317 38.33976398 -22.0625 41.625 C-26.3525 41.625 -30.6425 41.625 -35.0625 41.625 C-35.0625 27.765 -35.0625 13.905 -35.0625 -0.375 C-30.7725 -0.375 -26.4825 -0.375 -22.0625 -0.375 C-21.7325 0.945 -21.4025 2.265 -21.0625 3.625 C-20.299375 2.985625 -19.53625 2.34625 -18.75 1.6875 C-13.37407377 -2.43821083 -6.12560332 -2.75027088 0 0 Z " fill="#F9FAFA" transform="translate(224.0625,612.375)"/>
<path d="M0 0 C4.29 0 8.58 0 13 0 C15.21062815 8.6319766 17.18073694 17.27785936 19 26 C21.2222778 20.4062093 22.84447643 14.93754215 24.125 9.0625 C25.87378641 1.12621359 25.87378641 1.12621359 27 0 C29.18639453 -0.07258946 31.37500389 -0.08373783 33.5625 -0.0625 C35.35880859 -0.04896484 35.35880859 -0.04896484 37.19140625 -0.03515625 C38.11824219 -0.02355469 39.04507813 -0.01195312 40 0 C40.26478149 1.12027588 40.26478149 1.12027588 40.53491211 2.26318359 C41.33321994 5.63440004 42.13531106 9.00470507 42.9375 12.375 C43.35418945 14.1384375 43.35418945 14.1384375 43.77929688 15.9375 C44.18051758 17.61972656 44.18051758 17.61972656 44.58984375 19.3359375 C44.83597412 20.37282715 45.08210449 21.4097168 45.33569336 22.47802734 C45.90053956 24.97160798 45.90053956 24.97160798 47 27 C47.17390259 25.98631348 47.17390259 25.98631348 47.35131836 24.95214844 C47.87848884 21.88449574 48.40796945 18.81724615 48.9375 15.75 C49.11990234 14.68652344 49.30230469 13.62304688 49.49023438 12.52734375 C49.75610352 10.99013672 49.75610352 10.99013672 50.02734375 9.421875 C50.18968506 8.47924805 50.35202637 7.53662109 50.51928711 6.56542969 C50.93247476 4.36036326 51.45588485 2.17646058 52 0 C55.96 0 59.92 0 64 0 C62.52763585 7.86242457 60.60496133 15.53474425 58.5 23.25 C58.19191406 24.3946875 57.88382812 25.539375 57.56640625 26.71875 C56.16893305 31.87680558 54.69180594 36.92458218 53 42 C48.38 42 43.76 42 39 42 C36.07391272 33.80695561 34.04161327 25.4462681 32 17 C31.823479 17.68626465 31.64695801 18.3725293 31.46508789 19.07958984 C30.66655465 22.17866558 29.86457151 25.27683821 29.0625 28.375 C28.78470703 29.45523438 28.50691406 30.53546875 28.22070312 31.6484375 C27.95322266 32.6796875 27.68574219 33.7109375 27.41015625 34.7734375 C27.16402588 35.72653809 26.91789551 36.67963867 26.66430664 37.66162109 C26 40 26 40 25 42 C20.38 42 15.76 42 11 42 C8.26408559 33.35451047 5.72463955 24.66102699 3.25 15.9375 C2.93216553 14.83092041 2.61433105 13.72434082 2.28686523 12.58422852 C1.99110596 11.53420654 1.69534668 10.48418457 1.390625 9.40234375 C1.12282227 8.45866943 0.85501953 7.51499512 0.57910156 6.54272461 C0 4 0 4 0 0 Z " fill="#F8F8F8" transform="translate(359,612)"/>
<path d="M0 0 C5.04885564 3.02931338 8.65629405 7.96888215 10.5 13.5 C11.02937729 20.37172442 11.37819867 27.52860139 7.5 33.5 C2.82073009 38.61478637 -1.73134647 42.11277873 -8.76953125 42.8359375 C-22.14720547 42.98343115 -22.14720547 42.98343115 -27.5 38.5 C-33.79398836 31.62502809 -34.86316031 26.2725557 -34.77734375 17.0234375 C-34.29199291 10.857431 -32.16304921 6.76895547 -27.625 2.625 C-19.93911919 -2.60139895 -8.63610169 -3.76787448 0 0 Z " fill="#F8F8F8" transform="translate(1211.5,612.5)"/>
<path d="M0 0 C5.04885564 3.02931338 8.65629405 7.96888215 10.5 13.5 C11.02937729 20.37172442 11.37819867 27.52860139 7.5 33.5 C2.82073009 38.61478637 -1.73134647 42.11277873 -8.76953125 42.8359375 C-22.14720547 42.98343115 -22.14720547 42.98343115 -27.5 38.5 C-33.79398836 31.62502809 -34.86316031 26.2725557 -34.77734375 17.0234375 C-34.29199291 10.857431 -32.16304921 6.76895547 -27.625 2.625 C-19.93911919 -2.60139895 -8.63610169 -3.76787448 0 0 Z " fill="#F8F8F8" transform="translate(720.5,612.5)"/>
<path d="M0 0 C5.04885564 3.02931338 8.65629405 7.96888215 10.5 13.5 C11.02937729 20.37172442 11.37819867 27.52860139 7.5 33.5 C2.82073009 38.61478637 -1.73134647 42.11277873 -8.76953125 42.8359375 C-22.14720547 42.98343115 -22.14720547 42.98343115 -27.5 38.5 C-33.79398836 31.62502809 -34.86316031 26.2725557 -34.77734375 17.0234375 C-34.29199291 10.857431 -32.16304921 6.76895547 -27.625 2.625 C-19.93911919 -2.60139895 -8.63610169 -3.76787448 0 0 Z " fill="#F8F8F8" transform="translate(346.5,612.5)"/>
<path d="M0 0 C11.22 0 22.44 0 34 0 C34 3.63 34 7.26 34 11 C27.4 11 20.8 11 14 11 C14 14.96 14 18.92 14 23 C20.27 23 26.54 23 33 23 C33 26.63 33 30.26 33 34 C26.73 34 20.46 34 14 34 C14 38.29 14 42.58 14 47 C21.26 47 28.52 47 36 47 C36 50.63 36 54.26 36 58 C24.12 58 12.24 58 0 58 C0 38.86 0 19.72 0 0 Z " fill="#F9F9F9" transform="translate(147,596)"/>
<path d="M0 0 C5.85979628 -0.29258345 9.71914066 0.35140197 14.66015625 3.5546875 C17.91580325 6.85640497 19.22563406 10.26991238 19.65698242 14.85302734 C19.63341675 16.8168335 19.63341675 16.8168335 19.609375 18.8203125 C19.60513016 19.52209625 19.60088531 20.22388 19.59651184 20.94692993 C19.57984224 23.1681506 19.54221497 25.38843288 19.50390625 27.609375 C19.48884413 29.12368473 19.47515841 30.63800881 19.46289062 32.15234375 C19.42997808 35.84665432 19.37827884 39.54042293 19.31640625 43.234375 C15.35640625 43.234375 11.39640625 43.234375 7.31640625 43.234375 C6.98640625 41.914375 6.65640625 40.594375 6.31640625 39.234375 C5.14078125 40.1934375 5.14078125 40.1934375 3.94140625 41.171875 C-0.16236416 44.39626604 -2.93023193 44.68602492 -8.06640625 44.65625 C-12.34066552 43.96726492 -15.03402695 41.56456446 -17.68359375 38.234375 C-18.92643156 34.50586158 -19.21166635 31.10690739 -18.68359375 27.234375 C-16.4315015 22.81360132 -14.2558636 20.18002174 -9.68359375 18.234375 C-4.05364211 16.86562529 1.50480337 15.9202343 7.31640625 16.234375 C6.53510554 13.73885016 6.53510554 13.73885016 5.31640625 11.234375 C1.83933334 10.0753507 -0.48039955 10.30357322 -4.12109375 10.609375 C-5.25417969 10.69960938 -6.38726563 10.78984375 -7.5546875 10.8828125 C-10.85738329 11.18382949 -10.85738329 11.18382949 -14.68359375 12.234375 C-14.68359375 9.264375 -14.68359375 6.294375 -14.68359375 3.234375 C-9.7187505 0.75195337 -5.40429066 0.47199045 0 0 Z " fill="#F9F9F9" transform="translate(1059.68359375,610.765625)"/>
<path d="M0 0 C5.85979628 -0.29258345 9.71914066 0.35140197 14.66015625 3.5546875 C17.91580325 6.85640497 19.22563406 10.26991238 19.65698242 14.85302734 C19.63341675 16.8168335 19.63341675 16.8168335 19.609375 18.8203125 C19.60513016 19.52209625 19.60088531 20.22388 19.59651184 20.94692993 C19.57984224 23.1681506 19.54221497 25.38843288 19.50390625 27.609375 C19.48884413 29.12368473 19.47515841 30.63800881 19.46289062 32.15234375 C19.42997808 35.84665432 19.37827884 39.54042293 19.31640625 43.234375 C15.35640625 43.234375 11.39640625 43.234375 7.31640625 43.234375 C6.98640625 41.914375 6.65640625 40.594375 6.31640625 39.234375 C5.14078125 40.1934375 5.14078125 40.1934375 3.94140625 41.171875 C-0.16236416 44.39626604 -2.93023193 44.68602492 -8.06640625 44.65625 C-12.34066552 43.96726492 -15.03402695 41.56456446 -17.68359375 38.234375 C-18.92643156 34.50586158 -19.21166635 31.10690739 -18.68359375 27.234375 C-16.4315015 22.81360132 -14.2558636 20.18002174 -9.68359375 18.234375 C-4.05364211 16.86562529 1.50480337 15.9202343 7.31640625 16.234375 C6.53510554 13.73885016 6.53510554 13.73885016 5.31640625 11.234375 C1.83933334 10.0753507 -0.48039955 10.30357322 -4.12109375 10.609375 C-5.25417969 10.69960938 -6.38726563 10.78984375 -7.5546875 10.8828125 C-10.85738329 11.18382949 -10.85738329 11.18382949 -14.68359375 12.234375 C-14.68359375 9.264375 -14.68359375 6.294375 -14.68359375 3.234375 C-9.7187505 0.75195337 -5.40429066 0.47199045 0 0 Z " fill="#F9F9F9" transform="translate(932.68359375,610.765625)"/>
<path d="M0 0 C4.63350715 2.80766418 7.44290123 5.65803687 9.7265625 10.5859375 C10.5390625 14.0234375 10.5390625 14.0234375 10.5390625 25.0234375 C1.6290625 25.0234375 -7.2809375 25.0234375 -16.4609375 25.0234375 C-14.12245608 30.94074768 -14.12245608 30.94074768 -10.4609375 33.0234375 C-4.55635893 33.81537309 0.88910106 32.66706265 6.5390625 31.0234375 C6.5390625 33.9934375 6.5390625 36.9634375 6.5390625 40.0234375 C-0.26034819 44.00358034 -7.76317482 43.87044051 -15.4609375 43.0234375 C-22.44421081 40.10270826 -26.53136878 35.99978336 -29.4609375 29.0234375 C-30.32355964 21.88931924 -30.72614289 14.00023523 -26.87109375 7.671875 C-20.12846288 -0.21009238 -10.04742513 -3.98707346 0 0 Z " fill="#F9F9F9" transform="translate(455.4609375,611.9765625)"/>
<path d="M0 0 C4.62 0 9.24 0 14 0 C16.31618851 5.14180264 18.11464265 10.27516007 19.6875 15.6875 C19.91244141 16.43322266 20.13738281 17.17894531 20.36914062 17.94726562 C21.40191688 21.46623881 22 24.30414312 22 28 C22.66 28 23.32 28 24 28 C24.20625 26.72125 24.4125 25.4425 24.625 24.125 C26.24957825 15.85876361 29.24816715 7.9439703 32 0 C36.29 0 40.58 0 45 0 C41.10881569 11.32091434 37.09891145 22.58039176 32.77368164 33.74365234 C31.03519898 38.23561656 29.41928093 42.72784448 27.9375 47.3125 C25.88028333 53.05442031 22.29559304 57.83572995 17.16796875 61.203125 C14.30429334 62.25571921 11.85571933 62.22827395 8.8125 62.1875 C7.74644531 62.18105469 6.68039062 62.17460938 5.58203125 62.16796875 C3 62 3 62 2 61 C1.92820036 59.48071962 1.91607993 57.95832518 1.9375 56.4375 C1.94652344 55.61121094 1.95554687 54.78492188 1.96484375 53.93359375 C1.97644531 53.29550781 1.98804688 52.65742187 2 52 C2.92232422 52.08701172 2.92232422 52.08701172 3.86328125 52.17578125 C6.31632153 52.31271332 8.56491235 52.33736561 11 52 C14.32276361 48.57340002 14.67042012 44.64716566 15 40 C14.23254395 37.20244125 13.41740497 34.748095 12.32421875 32.08984375 C12.03899857 31.3593129 11.75377838 30.62878204 11.45991516 29.87611389 C10.55080264 27.5569746 9.61988974 25.24736592 8.6875 22.9375 C7.77100428 20.62225667 6.85900085 18.3052778 5.94721985 15.98817444 C5.38009035 14.55194795 4.8093192 13.1171522 4.23429871 11.68406677 C2.68450694 7.81375083 1.32123113 3.9636934 0 0 Z " fill="#FAFAFA" transform="translate(640,612)"/>
<path d="M0 0 C4.04180688 3.2385189 5.5351573 5.82794202 6.9296875 10.87109375 C7.15673828 14.39794922 7.15673828 14.39794922 7.125 18.23828125 C7.1221701 18.91786896 7.11934021 19.59745667 7.11642456 20.29763794 C7.10531714 22.44730983 7.08023141 24.59654989 7.0546875 26.74609375 C7.04464545 28.21223352 7.03552175 29.67837989 7.02734375 31.14453125 C7.00540909 34.72019006 6.97094564 38.29559969 6.9296875 41.87109375 C2.6396875 41.87109375 -1.6503125 41.87109375 -6.0703125 41.87109375 C-6.11929687 39.89625 -6.16828125 37.92140625 -6.21875 35.88671875 C-6.29378061 33.29816283 -6.36932831 30.70962186 -6.4453125 28.12109375 C-6.47625 26.81914063 -6.5071875 25.5171875 -6.5390625 24.17578125 C-6.57773438 22.92539062 -6.61640625 21.675 -6.65625 20.38671875 C-6.70338135 18.65856934 -6.70338135 18.65856934 -6.75146484 16.89550781 C-7.05808645 13.98706332 -7.41424668 12.26061037 -9.0703125 9.87109375 C-11.87888998 8.61099032 -11.87888998 8.61099032 -15.0703125 8.87109375 C-18.2942782 11.40965175 -19.87594687 12.94618394 -20.72973633 17.0090332 C-20.74544678 18.155896 -20.76115723 19.30275879 -20.77734375 20.484375 C-20.80634766 21.73154297 -20.83535156 22.97871094 -20.86523438 24.26367188 C-20.87103516 25.55724609 -20.87683594 26.85082031 -20.8828125 28.18359375 C-20.90794922 29.49650391 -20.93308594 30.80941406 -20.95898438 32.16210938 C-21.01782085 35.39811542 -21.04693691 38.63463729 -21.0703125 41.87109375 C-25.3603125 41.87109375 -29.6503125 41.87109375 -34.0703125 41.87109375 C-34.0703125 28.01109375 -34.0703125 14.15109375 -34.0703125 -0.12890625 C-29.7803125 -0.12890625 -25.4903125 -0.12890625 -21.0703125 -0.12890625 C-20.7403125 1.52109375 -20.4103125 3.17109375 -20.0703125 4.87109375 C-19.3278125 4.06671875 -18.5853125 3.26234375 -17.8203125 2.43359375 C-13.24501105 -1.82975533 -5.68555066 -3.10023423 0 0 Z " fill="#F9F9F9" transform="translate(1262.0703125,612.12890625)"/>
<path d="M0 0 C4.04180688 3.2385189 5.5351573 5.82794202 6.9296875 10.87109375 C7.15673828 14.39794922 7.15673828 14.39794922 7.125 18.23828125 C7.1221701 18.91786896 7.11934021 19.59745667 7.11642456 20.29763794 C7.10531714 22.44730983 7.08023141 24.59654989 7.0546875 26.74609375 C7.04464545 28.21223352 7.03552175 29.67837989 7.02734375 31.14453125 C7.00540909 34.72019006 6.97094564 38.29559969 6.9296875 41.87109375 C2.6396875 41.87109375 -1.6503125 41.87109375 -6.0703125 41.87109375 C-6.11929688 39.89625 -6.16828125 37.92140625 -6.21875 35.88671875 C-6.29378061 33.29816283 -6.36932831 30.70962186 -6.4453125 28.12109375 C-6.47625 26.81914063 -6.5071875 25.5171875 -6.5390625 24.17578125 C-6.57773437 22.92539062 -6.61640625 21.675 -6.65625 20.38671875 C-6.70338135 18.65856934 -6.70338135 18.65856934 -6.75146484 16.89550781 C-7.05808645 13.98706332 -7.41424668 12.26061037 -9.0703125 9.87109375 C-11.87888998 8.61099032 -11.87888998 8.61099032 -15.0703125 8.87109375 C-18.2942782 11.40965175 -19.87594687 12.94618394 -20.72973633 17.0090332 C-20.74544678 18.155896 -20.76115723 19.30275879 -20.77734375 20.484375 C-20.80634766 21.73154297 -20.83535156 22.97871094 -20.86523438 24.26367188 C-20.87103516 25.55724609 -20.87683594 26.85082031 -20.8828125 28.18359375 C-20.90794922 29.49650391 -20.93308594 30.80941406 -20.95898438 32.16210938 C-21.01782085 35.39811542 -21.04693691 38.63463729 -21.0703125 41.87109375 C-25.3603125 41.87109375 -29.6503125 41.87109375 -34.0703125 41.87109375 C-34.0703125 28.01109375 -34.0703125 14.15109375 -34.0703125 -0.12890625 C-29.7803125 -0.12890625 -25.4903125 -0.12890625 -21.0703125 -0.12890625 C-20.7403125 1.52109375 -20.4103125 3.17109375 -20.0703125 4.87109375 C-19.3278125 4.06671875 -18.5853125 3.26234375 -17.8203125 2.43359375 C-13.24501105 -1.82975533 -5.68555066 -3.10023423 0 0 Z " fill="#F9F9F9" transform="translate(995.0703125,612.12890625)"/>
<path d="M0 0 C4.04180688 3.2385189 5.5351573 5.82794202 6.9296875 10.87109375 C7.15673828 14.39794922 7.15673828 14.39794922 7.125 18.23828125 C7.1221701 18.91786896 7.11934021 19.59745667 7.11642456 20.29763794 C7.10531714 22.44730983 7.08023141 24.59654989 7.0546875 26.74609375 C7.04464545 28.21223352 7.03552175 29.67837989 7.02734375 31.14453125 C7.00540909 34.72019006 6.97094564 38.29559969 6.9296875 41.87109375 C2.6396875 41.87109375 -1.6503125 41.87109375 -6.0703125 41.87109375 C-6.11929688 39.89625 -6.16828125 37.92140625 -6.21875 35.88671875 C-6.29378061 33.29816283 -6.36932831 30.70962186 -6.4453125 28.12109375 C-6.47625 26.81914063 -6.5071875 25.5171875 -6.5390625 24.17578125 C-6.57773437 22.92539062 -6.61640625 21.675 -6.65625 20.38671875 C-6.70338135 18.65856934 -6.70338135 18.65856934 -6.75146484 16.89550781 C-7.05808645 13.98706332 -7.41424668 12.26061037 -9.0703125 9.87109375 C-11.87888998 8.61099032 -11.87888998 8.61099032 -15.0703125 8.87109375 C-18.2942782 11.40965175 -19.87594687 12.94618394 -20.72973633 17.0090332 C-20.74544678 18.155896 -20.76115723 19.30275879 -20.77734375 20.484375 C-20.80634766 21.73154297 -20.83535156 22.97871094 -20.86523438 24.26367188 C-20.87103516 25.55724609 -20.87683594 26.85082031 -20.8828125 28.18359375 C-20.90794922 29.49650391 -20.93308594 30.80941406 -20.95898438 32.16210938 C-21.01782085 35.39811542 -21.04693691 38.63463729 -21.0703125 41.87109375 C-25.3603125 41.87109375 -29.6503125 41.87109375 -34.0703125 41.87109375 C-34.0703125 28.01109375 -34.0703125 14.15109375 -34.0703125 -0.12890625 C-29.7803125 -0.12890625 -25.4903125 -0.12890625 -21.0703125 -0.12890625 C-20.7403125 1.52109375 -20.4103125 3.17109375 -20.0703125 4.87109375 C-19.3278125 4.06671875 -18.5853125 3.26234375 -17.8203125 2.43359375 C-13.24501105 -1.82975533 -5.68555066 -3.10023423 0 0 Z " fill="#F9F9F9" transform="translate(559.0703125,612.12890625)"/>
<path d="M0 0 C4.29 0 8.58 0 13 0 C13.01981934 0.9286084 13.03963867 1.8572168 13.06005859 2.81396484 C13.13808613 6.2545052 13.22477462 9.69459891 13.31738281 13.13476562 C13.35569998 14.62458889 13.39054808 16.11450554 13.421875 17.60449219 C13.46746729 19.74448048 13.52546874 21.88382436 13.5859375 24.0234375 C13.6173584 25.31169434 13.6487793 26.59995117 13.68115234 27.92724609 C13.68458268 31.10481505 13.68458268 31.10481505 16 33 C19.45786015 33.50007794 19.45786015 33.50007794 23 33 C25.43865327 30.68847364 25.96821348 29.22909265 26.43237305 25.88378906 C26.45855713 24.68979492 26.48474121 23.49580078 26.51171875 22.265625 C26.54716797 20.97011719 26.58261719 19.67460938 26.61914062 18.33984375 C26.64223867 16.97656774 26.66502114 15.61328636 26.6875 14.25 C26.72068648 12.87106138 26.75517738 11.4921535 26.79101562 10.11328125 C26.87351782 6.74247731 26.93843433 3.37125132 27 0 C31.29 0 35.58 0 40 0 C40 13.86 40 27.72 40 42 C35.71 42 31.42 42 27 42 C26.67 40.68 26.34 39.36 26 38 C24.824375 38.9590625 24.824375 38.9590625 23.625 39.9375 C18.91511242 43.63812596 14.86051441 43.64816749 9 43 C4.47018951 40.77627485 2.15464705 38.52270603 0 34 C-0.25164884 31.27443562 -0.35155913 28.79073546 -0.29296875 26.07421875 C-0.28872391 25.32662796 -0.28447906 24.57903717 -0.28010559 23.80879211 C-0.26339056 21.43465268 -0.22575347 19.06138033 -0.1875 16.6875 C-0.17244381 15.07227794 -0.15875703 13.45704249 -0.14648438 11.84179688 C-0.1135108 7.89420012 -0.06177969 3.94724678 0 0 Z " fill="#FBFBFB" transform="translate(737,612)"/>
<path d="M0 0 C15.51 0 31.02 0 47 0 C47 3.63 47 7.26 47 11 C41.39 11 35.78 11 30 11 C30 26.51 30 42.02 30 58 C25.71 58 21.42 58 17 58 C17 42.49 17 26.98 17 11 C11.39 11 5.78 11 0 11 C0 7.37 0 3.74 0 0 Z " fill="#FCFCFD" transform="translate(835,596)"/>
<path d="M0 0 C1.19882813 0.00386719 2.39765625 0.00773438 3.6328125 0.01171875 C6.875 0.3125 6.875 0.3125 10.875 2.3125 C10.875 5.2825 10.875 8.2525 10.875 11.3125 C9.97136719 11.2403125 9.06773438 11.168125 8.13671875 11.09375 C6.95722656 11.0009375 5.77773437 10.908125 4.5625 10.8125 C3.39074219 10.7196875 2.21898437 10.626875 1.01171875 10.53125 C-1.030194 10.38885011 -3.0781279 10.3125 -5.125 10.3125 C-5.07696558 12.74838957 -5.07696558 12.74838957 -4.125 15.3125 C-1.54315475 16.83473554 -1.54315475 16.83473554 1.625 17.8125 C10.37737192 21.20925386 10.37737192 21.20925386 12.875 25.3125 C13.55260489 29.11397829 13.58432164 32.51419703 12.875 36.3125 C9.94276008 40.45213283 6.50304259 42.37100622 1.875 44.3125 C-0.908456 44.5711028 -3.41924251 44.68961852 -6.1875 44.625 C-6.88166016 44.62822266 -7.57582031 44.63144531 -8.29101562 44.63476562 C-12.33050861 44.59256769 -15.49060791 44.09073083 -19.125 42.3125 C-19.125 39.3425 -19.125 36.3725 -19.125 33.3125 C-18.00480469 33.39628906 -16.88460938 33.48007812 -15.73046875 33.56640625 C-14.25783444 33.66958445 -12.78517692 33.77243179 -11.3125 33.875 C-10.57451172 33.93107422 -9.83652344 33.98714844 -9.07617188 34.04492188 C-5.75711484 34.27019724 -3.31267436 34.37505812 -0.125 33.3125 C-0.17989232 31.36373596 -0.17989232 31.36373596 -1.125 29.3125 C-3.7280312 27.94093017 -3.7280312 27.94093017 -6.875 26.9375 C-12.33439352 24.78623898 -15.35319595 23.55912909 -18.125 18.3125 C-18.78593954 14.82856446 -18.84602966 11.78972369 -18.125 8.3125 C-13.5571901 1.99817454 -7.59601926 -0.10663958 0 0 Z " fill="#F8F8F8" transform="translate(1293.125,610.6875)"/>
<path d="M0 0 C1.19882813 0.00386719 2.39765625 0.00773438 3.6328125 0.01171875 C6.875 0.3125 6.875 0.3125 10.875 2.3125 C10.875 5.2825 10.875 8.2525 10.875 11.3125 C9.97136719 11.2403125 9.06773438 11.168125 8.13671875 11.09375 C6.95722656 11.0009375 5.77773437 10.908125 4.5625 10.8125 C3.39074219 10.7196875 2.21898437 10.626875 1.01171875 10.53125 C-1.030194 10.38885011 -3.0781279 10.3125 -5.125 10.3125 C-5.07696558 12.74838957 -5.07696558 12.74838957 -4.125 15.3125 C-1.54315475 16.83473554 -1.54315475 16.83473554 1.625 17.8125 C10.37737192 21.20925386 10.37737192 21.20925386 12.875 25.3125 C13.55260489 29.11397829 13.58432164 32.51419703 12.875 36.3125 C9.94276008 40.45213283 6.50304259 42.37100622 1.875 44.3125 C-0.908456 44.5711028 -3.41924251 44.68961852 -6.1875 44.625 C-6.88166016 44.62822266 -7.57582031 44.63144531 -8.29101562 44.63476562 C-12.33050861 44.59256769 -15.49060791 44.09073083 -19.125 42.3125 C-19.125 39.3425 -19.125 36.3725 -19.125 33.3125 C-18.00480469 33.39628906 -16.88460937 33.48007812 -15.73046875 33.56640625 C-14.25783444 33.66958445 -12.78517692 33.77243179 -11.3125 33.875 C-10.57451172 33.93107422 -9.83652344 33.98714844 -9.07617188 34.04492188 C-5.75711484 34.27019724 -3.31267436 34.37505812 -0.125 33.3125 C-0.17989232 31.36373596 -0.17989232 31.36373596 -1.125 29.3125 C-3.7280312 27.94093017 -3.7280312 27.94093017 -6.875 26.9375 C-12.33439352 24.78623898 -15.35319595 23.55912909 -18.125 18.3125 C-18.78593954 14.82856446 -18.84602966 11.78972369 -18.125 8.3125 C-13.5571901 1.99817454 -7.59601926 -0.10663958 0 0 Z " fill="#F8F8F8" transform="translate(1025.125,610.6875)"/>
<path d="M0 0 C0 4.29 0 8.58 0 13 C3.3 13 6.6 13 10 13 C10 15.97 10 18.94 10 22 C6.7 22 3.4 22 0 22 C0.11348983 25.62570152 0.24024465 29.25008101 0.375 32.875 C0.4059375 33.90753906 0.436875 34.94007813 0.46875 36.00390625 C0.50742188 36.99003906 0.54609375 37.97617187 0.5859375 38.9921875 C0.63306885 40.35899658 0.63306885 40.35899658 0.68115234 41.75341797 C0.79882511 44.19931186 0.79882511 44.19931186 3 46 C6.58343976 46.16677282 6.58343976 46.16677282 10 46 C10 48.97 10 51.94 10 55 C7.44080818 56.27959591 5.54515972 56.16816536 2.6875 56.1875 C1.27017578 56.20876953 1.27017578 56.20876953 -0.17578125 56.23046875 C-4.66197071 55.86437583 -7.23102933 54.85441185 -10.25 51.5 C-12.86866544 47.75904937 -13.1206058 45.87994896 -13.09765625 41.3359375 C-13.09443359 40.21445312 -13.09121094 39.09296875 -13.08789062 37.9375 C-13.07951172 36.761875 -13.07113281 35.58625 -13.0625 34.375 C-13.05798828 33.19164062 -13.05347656 32.00828125 -13.04882812 30.7890625 C-13.03701467 27.85932493 -13.02054258 24.92968728 -13 22 C-15.31 22 -17.62 22 -20 22 C-20 19.03 -20 16.06 -20 13 C-17.69 13 -15.38 13 -13 13 C-13 9.7 -13 6.4 -13 3 C-11.02119196 2.49858258 -9.0419435 1.99890291 -7.0625 1.5 C-5.96035156 1.2215625 -4.85820313 0.943125 -3.72265625 0.65625 C-1 0 -1 0 0 0 Z " fill="#F8F8F8" transform="translate(1142,599)"/>
<path d="M0 0 C1.31226563 0.00644531 2.62453125 0.01289062 3.9765625 0.01953125 C7.375 0.1875 7.375 0.1875 10.375 1.1875 C10.375 4.8175 10.375 8.4475 10.375 12.1875 C8.725 11.5275 7.075 10.8675 5.375 10.1875 C0.15759145 9.71319013 -3.21135725 10.31350007 -7.625 13.1875 C-10.4244644 17.57713635 -10.14714913 22.15365604 -9.625 27.1875 C-8.3367905 30.44192401 -7.40972736 31.67973523 -4.5 33.5625 C0.56269723 34.66308635 5.50045337 33.81234888 10.375 32.1875 C10.375 35.4875 10.375 38.7875 10.375 42.1875 C3.80176945 45.28224132 -4.15803 45.40828683 -11.140625 43.5 C-16.97920321 40.82584204 -21.25739618 36.18405115 -23.625 30.1875 C-24.45220673 22.62944272 -24.94943431 15.04481577 -20.1171875 8.765625 C-13.99862571 2.2946853 -9.02188596 -0.09787056 0 0 Z " fill="#F9F9F9" transform="translate(1109.625,610.8125)"/>
<path d="M0 0 C0 3.96 0 7.92 0 12 C-1.85625 11.938125 -1.85625 11.938125 -3.75 11.875 C-7.00644202 11.88650686 -9.33396004 11.94920003 -12 14 C-14.0624979 17.28239566 -14.29663019 20.023253 -14.4140625 23.859375 C-14.47207031 25.53193359 -14.47207031 25.53193359 -14.53125 27.23828125 C-14.57765625 28.97658203 -14.57765625 28.97658203 -14.625 30.75 C-14.68300781 32.51150391 -14.68300781 32.51150391 -14.7421875 34.30859375 C-14.83639492 37.20547204 -14.91928383 40.10271441 -15 43 C-19.29 43 -23.58 43 -28 43 C-28 29.14 -28 15.28 -28 1 C-23.71 1 -19.42 1 -15 1 C-14.67 2.65 -14.34 4.3 -14 6 C-13.071875 4.7934375 -13.071875 4.7934375 -12.125 3.5625 C-8.42321033 -0.90142284 -5.49707283 -0.08866246 0 0 Z " fill="#F8F8F9" transform="translate(914,611)"/>
<path d="M0 0 C0 3.96 0 7.92 0 12 C-1.85625 11.938125 -1.85625 11.938125 -3.75 11.875 C-7.00644202 11.88650686 -9.33396004 11.94920003 -12 14 C-14.0624979 17.28239566 -14.29663019 20.023253 -14.4140625 23.859375 C-14.47207031 25.53193359 -14.47207031 25.53193359 -14.53125 27.23828125 C-14.57765625 28.97658203 -14.57765625 28.97658203 -14.625 30.75 C-14.68300781 32.51150391 -14.68300781 32.51150391 -14.7421875 34.30859375 C-14.83639492 37.20547204 -14.91928383 40.10271441 -15 43 C-19.29 43 -23.58 43 -28 43 C-28 29.14 -28 15.28 -28 1 C-23.71 1 -19.42 1 -15 1 C-14.67 2.65 -14.34 4.3 -14 6 C-13.071875 4.7934375 -13.071875 4.7934375 -12.125 3.5625 C-8.42321033 -0.90142284 -5.49707283 -0.08866246 0 0 Z " fill="#F8F8F9" transform="translate(814,611)"/>
<path d="M0 0 C0 3.96 0 7.92 0 12 C-1.85625 11.938125 -1.85625 11.938125 -3.75 11.875 C-7.00644202 11.88650686 -9.33396004 11.94920003 -12 14 C-14.0624979 17.28239566 -14.29663019 20.023253 -14.4140625 23.859375 C-14.47207031 25.53193359 -14.47207031 25.53193359 -14.53125 27.23828125 C-14.57765625 28.97658203 -14.57765625 28.97658203 -14.625 30.75 C-14.68300781 32.51150391 -14.68300781 32.51150391 -14.7421875 34.30859375 C-14.83639492 37.20547204 -14.91928383 40.10271441 -15 43 C-19.29 43 -23.58 43 -28 43 C-28 29.14 -28 15.28 -28 1 C-23.71 1 -19.42 1 -15 1 C-14.67 2.65 -14.34 4.3 -14 6 C-13.071875 4.7934375 -13.071875 4.7934375 -12.125 3.5625 C-8.42321033 -0.90142284 -5.49707283 -0.08866246 0 0 Z " fill="#F8F8F9" transform="translate(499,611)"/>
<path d="M0 0 C4.29 0 8.58 0 13 0 C13 13.86 13 27.72 13 42 C8.71 42 4.42 42 0 42 C0 28.14 0 14.28 0 0 Z " fill="#FAFAFA" transform="translate(1157,612)"/>
<path d="M0 0 C4.29 0 8.58 0 13 0 C13 13.86 13 27.72 13 42 C8.71 42 4.42 42 0 42 C0 28.14 0 14.28 0 0 Z " fill="#FAFAFA" transform="translate(503,612)"/>
<path d="M0 0 C2.64025416 2.43669715 2.9876262 3.89142598 3.3984375 7.49609375 C3.39070313 8.79675781 3.38296875 10.09742188 3.375 11.4375 C3.38273437 12.73558594 3.39046875 14.03367187 3.3984375 15.37109375 C2.98320048 19.15300737 2.4040932 21.07684123 0 24 C-3.71916518 25.6183815 -7.16515355 25.32667905 -10.875 23.875 C-13.95121459 21.16069301 -14.79110776 18.98447627 -15.21875 14.921875 C-15.43896316 9.52665265 -14.68634988 5.70111229 -12 1 C-8.74922317 -1.88957941 -3.93240405 -1.40500679 0 0 Z " fill="#393B44" transform="translate(1205,621)"/>
<path d="M0 0 C2.64025416 2.43669715 2.9876262 3.89142598 3.3984375 7.49609375 C3.39070312 8.79675781 3.38296875 10.09742188 3.375 11.4375 C3.38273438 12.73558594 3.39046875 14.03367187 3.3984375 15.37109375 C2.98320048 19.15300737 2.4040932 21.07684123 0 24 C-3.71916518 25.6183815 -7.16515355 25.32667905 -10.875 23.875 C-13.95121459 21.16069301 -14.79110776 18.98447627 -15.21875 14.921875 C-15.43896316 9.52665265 -14.68634988 5.70111229 -12 1 C-8.74922317 -1.88957941 -3.93240405 -1.40500679 0 0 Z " fill="#393B44" transform="translate(714,621)"/>
<path d="M0 0 C2.64025416 2.43669715 2.9876262 3.89142598 3.3984375 7.49609375 C3.39070313 8.79675781 3.38296875 10.09742188 3.375 11.4375 C3.38273437 12.73558594 3.39046875 14.03367187 3.3984375 15.37109375 C2.98320048 19.15300737 2.4040932 21.07684123 0 24 C-3.71916518 25.6183815 -7.16515355 25.32667905 -10.875 23.875 C-13.95121459 21.16069301 -14.79110776 18.98447627 -15.21875 14.921875 C-15.43896316 9.52665265 -14.68634988 5.70111229 -12 1 C-8.74922317 -1.88957941 -3.93240405 -1.40500679 0 0 Z " fill="#393B44" transform="translate(340,621)"/>
<path d="M0 0 C2.38033606 2.32000496 2.96123714 3.70585833 3.3984375 7.0234375 C3.31736829 18.61633476 3.31736829 18.61633476 0 23 C-2.89753434 25.12485852 -5.4593329 25.53110007 -9 25 C-12.11067849 22.5805834 -13.28867118 20.80730282 -14 17 C-14.94767243 6.71542382 -14.94767243 6.71542382 -12.1875 2.375 C-8.39154805 -1.74631926 -5.20201461 -1.20761053 0 0 Z " fill="#3A3C45" transform="translate(291,621)"/>
<path d="M0 0 C2.71180788 2.70200025 3.89677714 4.34327501 4.49609375 8.15625 C4.47675781 9.2596875 4.45742188 10.363125 4.4375 11.5 C4.43621094 12.6034375 4.43492187 13.706875 4.43359375 14.84375 C3.8261561 19.26545828 2.11881586 21.88118414 -1 25 C-4.375 25.4375 -4.375 25.4375 -8 25 C-11.71632123 21.28367877 -13.15500504 18.48180927 -13.25 13.3125 C-13.19337572 8.42157798 -12.4672208 5.22952137 -10 1 C-6.75233979 -1.6877188 -3.89953709 -1.21860534 0 0 Z " fill="#3A3C45" transform="translate(598,621)"/>
<path d="M0 0 C2 1.0625 2 1.0625 3 3 C3.36248449 6.38318857 3.58433618 8.86784865 2 11.9375 C-1.23936601 13.65841319 -4.47363655 13.63857688 -8 13 C-10.91523942 11.03221339 -11.81144448 9.94277758 -12.5 6.5 C-11.08566473 -0.57167636 -6.10897447 -0.67877494 0 0 Z " fill="#F4F4F4" transform="translate(1168,592)"/>
<path d="M0 0 C2 1.0625 2 1.0625 3 3 C3.36248449 6.38318857 3.58433618 8.86784865 2 11.9375 C-1.23936601 13.65841319 -4.47363655 13.63857688 -8 13 C-10.91523942 11.03221339 -11.81144448 9.94277758 -12.5 6.5 C-11.08566473 -0.57167636 -6.10897447 -0.67877494 0 0 Z " fill="#F4F4F4" transform="translate(514,592)"/>
<path d="M0 0 C-0.36267071 7.25341426 -0.36267071 7.25341426 -3.1875 10.5625 C-6.67817324 12.34662188 -8.30011974 12.15107386 -12 11 C-14 9 -14 9 -14.4375 6.5625 C-14 4 -14 4 -11.9375 2.25 C-8.02785078 0.58631948 -4.24277823 0 0 0 Z " fill="#3D3F47" transform="translate(1067,634)"/>
<path d="M0 0 C-0.36267071 7.25341426 -0.36267071 7.25341426 -3.1875 10.5625 C-6.67817324 12.34662188 -8.30011974 12.15107386 -12 11 C-14 9 -14 9 -14.4375 6.5625 C-14 4 -14 4 -11.9375 2.25 C-8.02785078 0.58631948 -4.24277823 0 0 0 Z " fill="#3D3F47" transform="translate(940,634)"/>
<path d="M0 0 C1.875 1.8125 1.875 1.8125 3 4 C3 5.32 3 6.64 3 8 C-1.95 8 -6.9 8 -12 8 C-10.85714286 2.28571429 -10.85714286 2.28571429 -8 0 C-5.03475663 -1.48262169 -3.14877613 -0.83538959 0 0 Z " fill="#3C3E47" transform="translate(451,621)"/>
</svg>
