<?xml version="1.0" encoding="UTF-8"?>
<svg version="1.1" xmlns="http://www.w3.org/2000/svg" width="512" height="512">
<path d="M0 0 C0.98221527 -0.0123468 1.96443054 -0.0246936 2.97640991 -0.03741455 C6.14446087 -0.06957307 9.31228337 -0.08845908 12.48046875 -0.1015625 C13.55511383 -0.10645691 14.62975891 -0.11135132 15.73696899 -0.11639404 C34.08032605 -0.15101482 52.40664616 0.36201772 69.66796875 7.2734375 C71.64458226 7.7670892 73.62145407 8.25988493 75.60205078 8.73730469 C90.84314178 12.69256773 105.73934962 20.17339967 119.23046875 28.1484375 C120.20512085 28.7204187 120.20512085 28.7204187 121.19946289 29.30395508 C122.72703491 30.23395413 124.20395651 31.24628481 125.66796875 32.2734375 C125.66796875 32.9334375 125.66796875 33.5934375 125.66796875 34.2734375 C126.38339844 34.53125 127.09882813 34.7890625 127.8359375 35.0546875 C130.83956986 36.34728515 133.30302247 37.9012084 135.98046875 39.7734375 C136.86347656 40.381875 137.74648438 40.9903125 138.65625 41.6171875 C139.65205078 42.43703125 139.65205078 42.43703125 140.66796875 43.2734375 C140.66796875 43.9334375 140.66796875 44.5934375 140.66796875 45.2734375 C141.51875 45.64855469 141.51875 45.64855469 142.38671875 46.03125 C149.52703442 49.9192986 155.29888207 56.81653511 161.04296875 62.5234375 C161.54248047 63.01827637 162.04199219 63.51311523 162.55664062 64.02294922 C170.66796875 72.16985334 170.66796875 72.16985334 170.66796875 75.2734375 C171.65796875 75.6034375 172.64796875 75.9334375 173.66796875 76.2734375 C175.7109375 78.92578125 175.7109375 78.92578125 177.85546875 82.2109375 C178.57089844 83.29246094 179.28632813 84.37398438 180.0234375 85.48828125 C181.66796875 88.2734375 181.66796875 88.2734375 181.66796875 90.2734375 C182.32796875 90.2734375 182.98796875 90.2734375 183.66796875 90.2734375 C185.10469204 92.24380086 186.36338425 94.18190475 187.60546875 96.2734375 C188.18784302 97.24941895 188.18784302 97.24941895 188.78198242 98.24511719 C192.39767166 104.49072283 195.47168792 110.96806707 198.48046875 117.5234375 C198.93607178 118.51601562 199.3916748 119.50859375 199.86108398 120.53125 C203.92987651 129.5660214 207.46618093 138.60129813 209.66796875 148.2734375 C210.00111416 149.65889937 210.33445308 151.04431472 210.66796875 152.4296875 C211.00244457 153.87734067 211.33577033 155.32526003 211.66796875 156.7734375 C211.83296875 157.46179688 211.99796875 158.15015625 212.16796875 158.859375 C215.5397002 173.66338341 216.10319328 188.46888254 216.10546875 203.5859375 C216.1078656 204.5458963 216.11026245 205.5058551 216.11273193 206.49490356 C216.11309679 224.03990208 215.29038321 241.79333133 208.66796875 258.2734375 C208.17431705 260.25005101 207.68152132 262.22692282 207.20410156 264.20751953 C203.24883852 279.44861053 195.76800658 294.34481837 187.79296875 307.8359375 C187.41164795 308.48570557 187.03032715 309.13547363 186.63745117 309.80493164 C185.70745212 311.33250366 184.69512144 312.80942526 183.66796875 314.2734375 C183.00796875 314.2734375 182.34796875 314.2734375 181.66796875 314.2734375 C181.41015625 314.98886719 181.15234375 315.70429688 180.88671875 316.44140625 C179.5941211 319.44503861 178.04019785 321.90849122 176.16796875 324.5859375 C175.55953125 325.46894531 174.95109375 326.35195313 174.32421875 327.26171875 C173.504375 328.25751953 173.504375 328.25751953 172.66796875 329.2734375 C172.00796875 329.2734375 171.34796875 329.2734375 170.66796875 329.2734375 C170.41789062 329.840625 170.1678125 330.4078125 169.91015625 330.9921875 C166.02210765 338.13250317 159.12487114 343.90435082 153.41796875 349.6484375 C152.92312988 350.14794922 152.42829102 350.64746094 151.91845703 351.16210938 C143.77155291 359.2734375 143.77155291 359.2734375 140.66796875 359.2734375 C140.33796875 360.2634375 140.00796875 361.2534375 139.66796875 362.2734375 C137.015625 364.31640625 137.015625 364.31640625 133.73046875 366.4609375 C132.64894531 367.17636719 131.56742187 367.89179688 130.453125 368.62890625 C127.66796875 370.2734375 127.66796875 370.2734375 125.66796875 370.2734375 C125.66796875 370.9334375 125.66796875 371.5934375 125.66796875 372.2734375 C112.17351829 380.02556862 98.67940784 387.4596175 84.16796875 393.1484375 C83.43852051 393.43477051 82.70907227 393.72110352 81.95751953 394.01611328 C77.25732305 395.80517869 72.5666865 397.15111222 67.66796875 398.2734375 C66.98927734 398.4369873 66.31058594 398.60053711 65.61132812 398.76904297 C63.4665388 399.2842912 61.31793059 399.78025629 59.16796875 400.2734375 C58.47960937 400.4384375 57.79125 400.6034375 57.08203125 400.7734375 C42.27802284 404.14516895 27.47252371 404.70866203 12.35546875 404.7109375 C10.91553055 404.71453278 10.91553055 404.71453278 9.44650269 404.71820068 C-8.09849583 404.71856554 -25.85192508 403.89585196 -42.33203125 397.2734375 C-44.30864476 396.7797858 -46.28551657 396.28699007 -48.26611328 395.80957031 C-63.50720428 391.85430727 -78.40341212 384.37347533 -91.89453125 376.3984375 C-92.54429932 376.0171167 -93.19406738 375.6357959 -93.86352539 375.24291992 C-95.39109741 374.31292087 -96.86801901 373.30059019 -98.33203125 372.2734375 C-98.33203125 371.6134375 -98.33203125 370.9534375 -98.33203125 370.2734375 C-99.04746094 370.015625 -99.76289063 369.7578125 -100.5 369.4921875 C-103.50363236 368.19958985 -105.96708497 366.6456666 -108.64453125 364.7734375 C-109.52753906 364.165 -110.41054687 363.5565625 -111.3203125 362.9296875 C-111.98417969 362.383125 -112.64804688 361.8365625 -113.33203125 361.2734375 C-113.33203125 360.6134375 -113.33203125 359.9534375 -113.33203125 359.2734375 C-113.89921875 359.02335937 -114.46640625 358.77328125 -115.05078125 358.515625 C-122.19109692 354.6275764 -127.96294457 347.73033989 -133.70703125 342.0234375 C-134.20654297 341.52859863 -134.70605469 341.03375977 -135.22070312 340.52392578 C-143.33203125 332.37702166 -143.33203125 332.37702166 -143.33203125 329.2734375 C-144.32203125 328.9434375 -145.31203125 328.6134375 -146.33203125 328.2734375 C-148.375 325.62109375 -148.375 325.62109375 -150.51953125 322.3359375 C-151.23496094 321.25441406 -151.95039063 320.17289062 -152.6875 319.05859375 C-154.33203125 316.2734375 -154.33203125 316.2734375 -154.33203125 314.2734375 C-154.99203125 314.2734375 -155.65203125 314.2734375 -156.33203125 314.2734375 C-157.81780057 312.15575384 -159.15055684 310.06224276 -160.45703125 307.8359375 C-161.05427002 306.82527222 -161.05427002 306.82527222 -161.66357422 305.79418945 C-167.80479958 295.20599587 -172.72750436 284.08921918 -177.20703125 272.7109375 C-177.49336426 271.98543701 -177.77969727 271.25993652 -178.07470703 270.51245117 C-179.87036155 265.8289566 -181.21382325 261.15952026 -182.33203125 256.2734375 C-182.49558105 255.59466553 -182.65913086 254.91589355 -182.82763672 254.21655273 C-183.34292339 252.07185278 -183.83886747 249.92332334 -184.33203125 247.7734375 C-184.57953125 246.74089844 -184.57953125 246.74089844 -184.83203125 245.6875 C-188.2037627 230.88349159 -188.76725578 216.07799246 -188.76953125 200.9609375 C-188.7719281 200.0009787 -188.77432495 199.0410199 -188.77679443 198.05197144 C-188.77715929 180.50697292 -187.95444571 162.75354367 -181.33203125 146.2734375 C-180.83837955 144.29682399 -180.34558382 142.31995218 -179.86816406 140.33935547 C-175.91290102 125.09826447 -168.43206908 110.20205663 -160.45703125 96.7109375 C-160.07571045 96.06116943 -159.69438965 95.41140137 -159.30151367 94.74194336 C-158.37151462 93.21437134 -157.35918394 91.73744974 -156.33203125 90.2734375 C-155.67203125 90.2734375 -155.01203125 90.2734375 -154.33203125 90.2734375 C-154.07421875 89.55800781 -153.81640625 88.84257812 -153.55078125 88.10546875 C-152.2581836 85.10183639 -150.70426035 82.63838378 -148.83203125 79.9609375 C-147.919375 78.63642578 -147.919375 78.63642578 -146.98828125 77.28515625 C-146.44171875 76.62128906 -145.89515625 75.95742187 -145.33203125 75.2734375 C-144.67203125 75.2734375 -144.01203125 75.2734375 -143.33203125 75.2734375 C-142.95691406 74.42265625 -142.95691406 74.42265625 -142.57421875 73.5546875 C-138.68617015 66.41437183 -131.78893364 60.64252418 -126.08203125 54.8984375 C-125.58719238 54.39892578 -125.09235352 53.89941406 -124.58251953 53.38476562 C-116.43561541 45.2734375 -116.43561541 45.2734375 -113.33203125 45.2734375 C-113.00203125 44.2834375 -112.67203125 43.2934375 -112.33203125 42.2734375 C-109.6796875 40.23046875 -109.6796875 40.23046875 -106.39453125 38.0859375 C-105.31300781 37.37050781 -104.23148437 36.65507813 -103.1171875 35.91796875 C-100.33203125 34.2734375 -100.33203125 34.2734375 -98.33203125 34.2734375 C-98.33203125 33.6134375 -98.33203125 32.9534375 -98.33203125 32.2734375 C-96.21434759 30.78766818 -94.12083651 29.45491191 -91.89453125 28.1484375 C-91.22075439 27.75027832 -90.54697754 27.35211914 -89.8527832 26.94189453 C-79.26458962 20.80066917 -68.14781293 15.87796439 -56.76953125 11.3984375 C-55.68128052 10.96893799 -55.68128052 10.96893799 -54.57104492 10.53076172 C-49.90077029 8.74017573 -45.20901126 7.38729873 -40.33203125 6.2734375 C-39.48697021 6.07363281 -38.64190918 5.87382813 -37.77124023 5.66796875 C-34.96040398 5.00559797 -32.14664113 4.35707069 -29.33203125 3.7109375 C-27.91277344 3.37932617 -27.91277344 3.37932617 -26.46484375 3.04101562 C-25.53414062 2.82767578 -24.6034375 2.61433594 -23.64453125 2.39453125 C-22.81566406 2.2030249 -21.98679688 2.01151855 -21.1328125 1.81420898 C-14.07235698 0.4509847 -7.17206855 0.08341161 0 0 Z " fill="#FD2146" transform="translate(242.33203125,53.7265625)"/>
<path d="M0 0 C4.00425076 2.36243366 6.56697555 4.75399642 8.54296875 9.0546875 C9.03796875 10.0446875 9.03796875 10.0446875 9.54296875 11.0546875 C10.07292924 17.29191477 10.30002082 22.81758462 6.54296875 28.0546875 C4.38697168 30.26765198 2.17573042 32.4163639 -0.04296875 34.56640625 C-12.34236492 47.2439392 -18.07102336 62.3863721 -17.89453125 79.9296875 C-17.88768311 80.980354 -17.88083496 82.03102051 -17.8737793 83.11352539 C-17.63245148 94.79758794 -14.72266975 104.13916249 -8.45703125 114.0546875 C-7.85890625 115.0446875 -7.26078125 116.0346875 -6.64453125 117.0546875 C2.87679542 130.11250693 16.50605348 140.75868071 32.78125 143.625 C53.26616147 145.9649172 71.55356652 142.78305001 88.10546875 130.0546875 C98.28973388 121.26926615 104.87456193 111.02832136 108.54296875 98.0546875 C108.89101563 97.04148437 109.2390625 96.02828125 109.59765625 94.984375 C110.99890699 90.03505164 110.92631355 85.04046198 110.91796875 79.9296875 C110.91555176 78.3981604 110.91555176 78.3981604 110.91308594 76.83569336 C110.78459396 68.90509289 109.74319587 62.37742943 106.54296875 55.0546875 C106.10984375 53.98154297 106.10984375 53.98154297 105.66796875 52.88671875 C101.54793983 43.67183264 94.79859082 35.881268 87.42578125 29.125 C83.21453237 24.49437363 83.16827596 19.70194997 83.2890625 13.7109375 C83.72810975 9.11782779 85.52402534 6.2774196 88.41796875 2.8046875 C93.09504672 -1.04702377 97.90402849 -1.45778224 103.77734375 -1.30859375 C112.47032822 -0.16671867 119.09106332 7.74254289 124.54296875 14.0546875 C124.54296875 14.7146875 124.54296875 15.3746875 124.54296875 16.0546875 C125.20296875 16.0546875 125.86296875 16.0546875 126.54296875 16.0546875 C128.09375 18.1796875 128.09375 18.1796875 129.85546875 21.0546875 C130.42910156 21.9828125 131.00273437 22.9109375 131.59375 23.8671875 C132.55861328 25.445 132.55861328 25.445 133.54296875 27.0546875 C133.94483398 27.663125 134.34669922 28.2715625 134.76074219 28.8984375 C137.93156213 33.75217554 140.20597105 38.60538435 142.16796875 44.0546875 C142.46646729 44.88210449 142.76496582 45.70952148 143.07250977 46.56201172 C151.75364353 71.4531768 150.62697683 99.20320334 139.23046875 123.1171875 C132.83834974 135.27969966 124.78491625 146.81195439 114.54296875 156.0546875 C113.88296875 156.0546875 113.22296875 156.0546875 112.54296875 156.0546875 C112.21296875 157.0446875 111.88296875 158.0346875 111.54296875 159.0546875 C109.28226291 160.79596224 107.05342411 162.37815771 104.66796875 163.9296875 C103.98831055 164.37586426 103.30865234 164.82204102 102.60839844 165.28173828 C97.14070657 168.80367357 91.60702258 171.68377924 85.54296875 174.0546875 C84.67542969 174.41046875 83.80789063 174.76625 82.9140625 175.1328125 C80.1485053 176.2116616 77.37254839 177.15750371 74.54296875 178.0546875 C73.14691406 178.50714844 73.14691406 178.50714844 71.72265625 178.96875 C46.76559327 185.66149621 19.02970806 181.45089896 -3.34863281 169.00244141 C-26.09425823 155.78474542 -42.04283525 135.76079991 -50.45703125 111.0546875 C-50.75867188 110.24644531 -51.0603125 109.43820312 -51.37109375 108.60546875 C-60.13662834 84.65519495 -55.55524397 57.77566612 -45.45703125 35.0546875 C-43.67337178 31.54553136 -41.68030297 28.30033965 -39.45703125 25.0546875 C-38.61591797 23.77078125 -38.61591797 23.77078125 -37.7578125 22.4609375 C-33.88061065 16.80363669 -29.52638808 11.8465795 -24.70703125 6.9921875 C-24.15200928 6.43168701 -23.5969873 5.87118652 -23.02514648 5.29370117 C-16.446673 -1.16941284 -9.03451778 -3.4759194 0 0 Z " fill="#FFFDFD" transform="translate(209.45703125,184.9453125)"/>
<path d="M0 0 C5.60156215 2.90080897 10.46112068 8.50471498 12.8125 14.34375 C13.09338379 17.60476685 13.09338379 17.60476685 13.13476562 21.52392578 C13.14469543 22.23996475 13.15462524 22.95600372 13.16485596 23.69374084 C13.19402308 26.05888755 13.20769318 28.42376559 13.21875 30.7890625 C13.23026346 32.44090781 13.24177878 34.09275311 13.2532959 35.74459839 C13.27429716 39.20962768 13.28599323 42.67456448 13.29296875 46.13964844 C13.30390573 50.55808526 13.35189412 54.97527919 13.40891266 59.39332771 C13.44636075 62.80794715 13.456587 66.2222738 13.4596405 69.63708115 C13.46565581 71.26446161 13.48158456 72.89183926 13.50801086 74.51901627 C13.65095672 84.00138276 13.367258 91.8149107 6.8125 99.34375 C2.18024686 103.58491184 -2.50836896 104.48883231 -8.625 104.53125 C-9.55183594 104.54542969 -10.47867188 104.55960937 -11.43359375 104.57421875 C-16.68459515 104.13477324 -20.45114035 101.98670066 -24.1875 98.34375 C-30.50621762 90.60374265 -29.92001141 81.81870104 -29.8515625 72.375 C-29.85493718 70.72790164 -29.8597952 69.08080573 -29.86605835 67.43371582 C-29.8733991 63.99414182 -29.86281563 60.55522034 -29.83935547 57.11572266 C-29.81086852 52.72761332 -29.82728771 48.34103339 -29.85721779 43.95298004 C-29.87536727 40.5554878 -29.86949802 37.15835255 -29.85657883 33.760849 C-29.85326587 32.14387324 -29.85725687 30.52686405 -29.86897659 28.90992737 C-29.91887662 20.09231242 -29.86711535 12.62466873 -24.1875 5.34375 C-23.5275 5.34375 -22.8675 5.34375 -22.1875 5.34375 C-21.8575 4.35375 -21.5275 3.36375 -21.1875 2.34375 C-15.40537885 -1.99284086 -6.76783163 -2.03034949 0 0 Z " fill="#FFFAFB" transform="translate(264.1875,146.65625)"/>
</svg>
