<?xml version="1.0" encoding="UTF-8"?>
<svg version="1.1" xmlns="http://www.w3.org/2000/svg" width="512" height="512">
<path d="M0 0 C1.96357513 -0.00407729 3.92714796 -0.00942558 5.89071655 -0.01593018 C11.16760893 -0.02947213 16.44432308 -0.02436001 21.72121811 -0.01479292 C27.27809839 -0.0071276 32.83496474 -0.01426082 38.3918457 -0.01895142 C47.71861473 -0.02438914 57.04531218 -0.01726969 66.37207031 -0.00292969 C77.11145801 0.01339294 87.85067476 0.00810302 98.59005833 -0.0084089 C107.85773194 -0.02208057 117.12535448 -0.02391581 126.39303493 -0.0160929 C131.90761041 -0.01144746 137.42210589 -0.01070437 142.93667603 -0.02070236 C148.12435419 -0.02945297 153.31181477 -0.02320442 158.49946976 -0.00601959 C160.38828803 -0.00209754 162.27712504 -0.00311393 164.16593552 -0.00980759 C176.319034 -0.04886178 187.77446592 1.0112125 199.69921875 3.38818359 C199.69921875 4.04818359 199.69921875 4.70818359 199.69921875 5.38818359 C200.95734375 5.53255859 202.21546875 5.67693359 203.51171875 5.82568359 C206.12588998 6.12567046 208.17361767 6.54631657 210.69921875 7.38818359 C210.69921875 8.04818359 210.69921875 8.70818359 210.69921875 9.38818359 C211.95605469 9.51 211.95605469 9.51 213.23828125 9.63427734 C217.41633488 10.54439512 220.44728447 12.25862206 224.07421875 14.45068359 C224.71488281 14.82773438 225.35554688 15.20478516 226.015625 15.59326172 C227.58175941 16.51657976 229.14119909 17.45123753 230.69921875 18.38818359 C230.69921875 19.04818359 230.69921875 19.70818359 230.69921875 20.38818359 C231.41464844 20.63568359 232.13007813 20.88318359 232.8671875 21.13818359 C236.01331581 22.52681954 238.33732838 24.23282305 241.01171875 26.38818359 C242.33623047 27.44005859 242.33623047 27.44005859 243.6875 28.51318359 C244.68330078 29.44130859 244.68330078 29.44130859 245.69921875 30.38818359 C245.69921875 31.04818359 245.69921875 31.70818359 245.69921875 32.38818359 C246.33859375 32.65630859 246.97796875 32.92443359 247.63671875 33.20068359 C249.69921875 34.38818359 249.69921875 34.38818359 250.69921875 37.38818359 C251.35921875 37.38818359 252.01921875 37.38818359 252.69921875 37.38818359 C254.49461431 39.47790629 256.16983317 41.56660442 257.82421875 43.76318359 C258.29214844 44.36646484 258.76007813 44.96974609 259.2421875 45.59130859 C262.69921875 50.12677233 262.69921875 50.12677233 262.69921875 52.38818359 C263.35921875 52.38818359 264.01921875 52.38818359 264.69921875 52.38818359 C266.02343839 54.59018892 267.33348604 56.79880185 268.63671875 59.01318359 C269.00990234 59.63064453 269.38308594 60.24810547 269.76757812 60.88427734 C272.00971046 64.72216151 273.26230052 67.8802971 273.69921875 72.38818359 C274.35921875 72.38818359 275.01921875 72.38818359 275.69921875 72.38818359 C276.89209286 76.26502447 277.69921875 79.30440283 277.69921875 83.38818359 C278.35921875 83.38818359 279.01921875 83.38818359 279.69921875 83.38818359 C282.26528863 96.26160435 283.133853 108.58155134 283.08740234 121.68896484 C283.09147963 123.65253997 283.09682793 125.61611281 283.10333252 127.5796814 C283.11687448 132.85657378 283.11176235 138.13328792 283.10219526 143.41018295 C283.09452994 148.96706323 283.10166316 154.52392958 283.10635376 160.08081055 C283.11179148 169.40757957 283.10467203 178.73427703 283.09033203 188.06103516 C283.07400941 198.80042286 283.07929932 209.53963961 283.09581125 220.27902317 C283.10948291 229.54669678 283.11131815 238.81431933 283.10349524 248.08199978 C283.0988498 253.59657525 283.09810671 259.11107073 283.10810471 264.62564087 C283.11685532 269.81331903 283.11060676 275.00077962 283.09342194 280.1884346 C283.08949988 282.07725287 283.09051628 283.96608988 283.09720993 285.85490036 C283.13626412 298.00799885 282.07618985 309.46343077 279.69921875 321.38818359 C279.03921875 321.38818359 278.37921875 321.38818359 277.69921875 321.38818359 C277.55484375 322.64630859 277.41046875 323.90443359 277.26171875 325.20068359 C276.96173189 327.81485482 276.54108578 329.86258252 275.69921875 332.38818359 C275.03921875 332.38818359 274.37921875 332.38818359 273.69921875 332.38818359 C273.61800781 333.22607422 273.53679687 334.06396484 273.453125 334.92724609 C272.54300722 339.10529973 270.82878028 342.13624931 268.63671875 345.76318359 C268.25966797 346.40384766 267.88261719 347.04451172 267.49414062 347.70458984 C266.57082258 349.27072425 265.63616482 350.83016394 264.69921875 352.38818359 C264.03921875 352.38818359 263.37921875 352.38818359 262.69921875 352.38818359 C262.45171875 353.10361328 262.20421875 353.81904297 261.94921875 354.55615234 C260.5605828 357.70228066 258.85457929 360.02629322 256.69921875 362.70068359 C255.99796875 363.58369141 255.29671875 364.46669922 254.57421875 365.37646484 C253.95546875 366.04033203 253.33671875 366.70419922 252.69921875 367.38818359 C252.03921875 367.38818359 251.37921875 367.38818359 250.69921875 367.38818359 C250.43109375 368.02755859 250.16296875 368.66693359 249.88671875 369.32568359 C248.69921875 371.38818359 248.69921875 371.38818359 245.69921875 372.38818359 C245.69921875 373.04818359 245.69921875 373.70818359 245.69921875 374.38818359 C243.60949605 376.18357915 241.52079793 377.85879801 239.32421875 379.51318359 C238.7209375 379.98111328 238.11765625 380.44904297 237.49609375 380.93115234 C232.96063001 384.38818359 232.96063001 384.38818359 230.69921875 384.38818359 C230.69921875 385.04818359 230.69921875 385.70818359 230.69921875 386.38818359 C228.49721343 387.71240323 226.28860049 389.02245088 224.07421875 390.32568359 C223.45675781 390.69886719 222.83929688 391.07205078 222.203125 391.45654297 C218.36524083 393.6986753 215.20710524 394.95126536 210.69921875 395.38818359 C210.69921875 396.04818359 210.69921875 396.70818359 210.69921875 397.38818359 C206.82237788 398.58105771 203.78299952 399.38818359 199.69921875 399.38818359 C199.69921875 400.04818359 199.69921875 400.70818359 199.69921875 401.38818359 C186.825798 403.95425347 174.505851 404.82281784 161.3984375 404.77636719 C159.43486237 404.78044447 157.47128954 404.78579277 155.50772095 404.79229736 C150.23082857 404.80583932 144.95411442 404.8007272 139.67721939 404.79116011 C134.12033911 404.78349478 128.56347276 404.790628 123.0065918 404.7953186 C113.67982277 404.80075633 104.35312532 404.79363687 95.02636719 404.77929688 C84.28697949 404.76297425 73.54776274 404.76826416 62.80837917 404.78477609 C53.54070556 404.79844776 44.27308302 404.800283 35.00540257 404.79246008 C29.49082709 404.78781465 23.97633161 404.78707155 18.46176147 404.79706955 C13.27408331 404.80582016 8.08662273 404.79957161 2.89896774 404.78238678 C1.01014947 404.77846472 -0.87868754 404.77948112 -2.76749802 404.78617477 C-14.9205965 404.82522896 -26.37602842 403.76515469 -38.30078125 401.38818359 C-38.30078125 400.72818359 -38.30078125 400.06818359 -38.30078125 399.38818359 C-39.55890625 399.24380859 -40.81703125 399.09943359 -42.11328125 398.95068359 C-44.72745248 398.65069673 -46.77518017 398.23005062 -49.30078125 397.38818359 C-49.30078125 396.72818359 -49.30078125 396.06818359 -49.30078125 395.38818359 C-50.13867188 395.30697266 -50.9765625 395.22576172 -51.83984375 395.14208984 C-56.01789738 394.23197207 -59.04884697 392.51774513 -62.67578125 390.32568359 C-63.31644531 389.94863281 -63.95710938 389.57158203 -64.6171875 389.18310547 C-66.18332191 388.25978742 -67.74276159 387.32512966 -69.30078125 386.38818359 C-69.30078125 385.72818359 -69.30078125 385.06818359 -69.30078125 384.38818359 C-70.37392578 384.01693359 -70.37392578 384.01693359 -71.46875 383.63818359 C-74.61487831 382.24954765 -76.93889088 380.54354413 -79.61328125 378.38818359 C-80.49628906 377.68693359 -81.37929687 376.98568359 -82.2890625 376.26318359 C-82.95292969 375.64443359 -83.61679688 375.02568359 -84.30078125 374.38818359 C-84.30078125 373.72818359 -84.30078125 373.06818359 -84.30078125 372.38818359 C-84.94015625 372.12005859 -85.57953125 371.85193359 -86.23828125 371.57568359 C-88.30078125 370.38818359 -88.30078125 370.38818359 -89.30078125 367.38818359 C-89.96078125 367.38818359 -90.62078125 367.38818359 -91.30078125 367.38818359 C-93.09617681 365.2984609 -94.77139567 363.20976277 -96.42578125 361.01318359 C-97.12767578 360.10826172 -97.12767578 360.10826172 -97.84375 359.18505859 C-101.30078125 354.64959485 -101.30078125 354.64959485 -101.30078125 352.38818359 C-101.96078125 352.38818359 -102.62078125 352.38818359 -103.30078125 352.38818359 C-104.62500089 350.18617827 -105.93504854 347.97756533 -107.23828125 345.76318359 C-107.61146484 345.14572266 -107.98464844 344.52826172 -108.36914062 343.89208984 C-110.61127296 340.05420568 -111.86386302 336.89607009 -112.30078125 332.38818359 C-112.96078125 332.38818359 -113.62078125 332.38818359 -114.30078125 332.38818359 C-115.49365536 328.51134272 -116.30078125 325.47196436 -116.30078125 321.38818359 C-116.96078125 321.38818359 -117.62078125 321.38818359 -118.30078125 321.38818359 C-120.86685113 308.51476284 -121.7354155 296.19481585 -121.68896484 283.08740234 C-121.69304213 281.12382721 -121.69839043 279.16025438 -121.70489502 277.19668579 C-121.71843698 271.91979341 -121.71332485 266.64307927 -121.70375776 261.36618423 C-121.69609244 255.80930395 -121.70322566 250.2524376 -121.70791626 244.69555664 C-121.71335398 235.36878761 -121.70623453 226.04209016 -121.69189453 216.71533203 C-121.67557191 205.97594433 -121.68086182 195.23672758 -121.69737375 184.49734402 C-121.71104541 175.22967041 -121.71288065 165.96204786 -121.70505774 156.69436741 C-121.7004123 151.17979193 -121.69966921 145.66529646 -121.70966721 140.15072632 C-121.71841782 134.96304816 -121.71216926 129.77558757 -121.69498444 124.58793259 C-121.69106238 122.69911432 -121.69207878 120.81027731 -121.69877243 118.92146683 C-121.73782662 106.76836834 -120.67775235 95.31293642 -118.30078125 83.38818359 C-117.64078125 83.38818359 -116.98078125 83.38818359 -116.30078125 83.38818359 C-116.15640625 82.13005859 -116.01203125 80.87193359 -115.86328125 79.57568359 C-115.56329439 76.96151237 -115.14264828 74.91378467 -114.30078125 72.38818359 C-113.64078125 72.38818359 -112.98078125 72.38818359 -112.30078125 72.38818359 C-112.21957031 71.55029297 -112.13835937 70.71240234 -112.0546875 69.84912109 C-111.14456972 65.67106746 -109.43034278 62.64011788 -107.23828125 59.01318359 C-106.86123047 58.37251953 -106.48417969 57.73185547 -106.09570312 57.07177734 C-105.17238508 55.50564294 -104.23772732 53.94620325 -103.30078125 52.38818359 C-102.64078125 52.38818359 -101.98078125 52.38818359 -101.30078125 52.38818359 C-101.05328125 51.67275391 -100.80578125 50.95732422 -100.55078125 50.22021484 C-99.1621453 47.07408653 -97.45614179 44.75007397 -95.30078125 42.07568359 C-94.59953125 41.19267578 -93.89828125 40.30966797 -93.17578125 39.39990234 C-92.55703125 38.73603516 -91.93828125 38.07216797 -91.30078125 37.38818359 C-90.64078125 37.38818359 -89.98078125 37.38818359 -89.30078125 37.38818359 C-89.03265625 36.74880859 -88.76453125 36.10943359 -88.48828125 35.45068359 C-87.30078125 33.38818359 -87.30078125 33.38818359 -84.30078125 32.38818359 C-84.30078125 31.72818359 -84.30078125 31.06818359 -84.30078125 30.38818359 C-82.21105855 28.59278804 -80.12236043 26.91756918 -77.92578125 25.26318359 C-77.3225 24.79525391 -76.71921875 24.32732422 -76.09765625 23.84521484 C-71.56219251 20.38818359 -71.56219251 20.38818359 -69.30078125 20.38818359 C-69.30078125 19.72818359 -69.30078125 19.06818359 -69.30078125 18.38818359 C-67.09877593 17.06396395 -64.89016299 15.75391631 -62.67578125 14.45068359 C-61.74958984 13.8909082 -61.74958984 13.8909082 -60.8046875 13.31982422 C-56.96680333 11.07769189 -53.80866774 9.82510182 -49.30078125 9.38818359 C-49.30078125 8.72818359 -49.30078125 8.06818359 -49.30078125 7.38818359 C-45.42394038 6.19530948 -42.38456202 5.38818359 -38.30078125 5.38818359 C-38.30078125 4.72818359 -38.30078125 4.06818359 -38.30078125 3.38818359 C-25.4273605 0.82211371 -13.1074135 -0.04645065 0 0 Z " fill="#3CCA51" transform="translate(175.30078125,53.61181640625)"/>
<path d="M0 0 C1.04155746 -0.0065712 2.08311493 -0.0131424 3.15623474 -0.01991272 C6.58600955 -0.03954498 10.01574087 -0.05128288 13.44555664 -0.0612793 C14.62066866 -0.06535482 15.79578068 -0.06943035 17.00650215 -0.07362938 C23.22080431 -0.09444238 29.43508466 -0.10876737 35.64941406 -0.11816406 C42.05959617 -0.12924713 48.46943296 -0.16368297 54.87949276 -0.20333576 C59.81837098 -0.2294897 64.75716648 -0.23785461 69.69610786 -0.24144554 C72.0591523 -0.24631085 74.42219305 -0.25792318 76.7851696 -0.27648354 C80.09273606 -0.30085877 83.39940227 -0.29991302 86.70703125 -0.29296875 C87.67715149 -0.30577881 88.64727173 -0.31858887 89.64678955 -0.33178711 C96.40707291 -0.28018018 101.81062828 0.9925151 106.9776907 5.5535841 C112.49364697 11.55146091 111.57070172 19.12717129 111.5793457 26.76879883 C111.58431061 27.82317642 111.58927551 28.87755402 111.59439087 29.96388245 C111.60896026 33.44117898 111.61580436 36.91842995 111.62133789 40.39575195 C111.62709186 42.81660971 111.63284956 45.23746746 111.63861084 47.6583252 C111.64910471 52.7288433 111.65495853 57.79934562 111.65844727 62.86987305 C111.66394093 69.36653376 111.68799455 75.86298583 111.71641922 82.35958099 C111.73503806 87.35757052 111.74025072 92.3555096 111.74178314 97.35353088 C111.74480984 99.74891811 111.75283889 102.14430444 111.76596832 104.53965759 C111.78301916 107.88833576 111.78115113 111.23650114 111.7746582 114.58520508 C111.78387299 115.57343765 111.79308777 116.56167023 111.80258179 117.57984924 C111.75624922 125.20649922 109.8453545 130.59910641 104.41821289 136.17700195 C97.86441753 139.97820326 91.43720386 140.01113215 84.10571289 138.48950195 C78.46737113 135.73589319 74.82141119 130.90003972 72.41821289 125.17700195 C71.89683022 122.26540131 71.90962292 119.43932492 71.96411133 116.48779297 C71.96352722 115.64796371 71.96294312 114.80813446 71.96234131 113.94285583 C71.96511073 111.18844135 71.99614778 108.4351318 72.02758789 105.6809082 C72.03505436 103.76277762 72.04074537 101.84463937 72.04473877 99.92649841 C72.05996312 94.89412126 72.0992173 89.86221072 72.14355469 84.83001709 C72.18457651 79.68858145 72.20276453 74.54706993 72.22290039 69.40551758 C72.26571471 59.32914143 72.33392718 49.2531106 72.41821289 39.17700195 C71.41533737 39.18366379 70.41246185 39.19032562 69.37919617 39.19718933 C59.89074469 39.25821766 50.40233347 39.30307837 40.91372967 39.33243847 C36.03647822 39.34804062 31.15938625 39.36917845 26.28222656 39.40332031 C21.56839765 39.43610926 16.85472135 39.45389588 12.14078712 39.46163368 C10.3496034 39.46714233 8.55842727 39.47789863 6.76730919 39.49419212 C-13.57053606 39.6717086 -13.57053606 39.6717086 -20.58178711 36.17700195 C-25.33617452 31.42982707 -27.73074302 27.20051336 -27.83178711 20.48950195 C-27.75069309 14.3189846 -27.27442584 10.2384 -23.07006836 5.45825195 C-16.50079426 -0.80101146 -8.62318389 0.0238513 0 0 Z " fill="#FCFEFD" transform="translate(247.581787109375,152.822998046875)"/>
<path d="M0 0 C5.38633863 4.12985096 6.88780484 8.84769701 7.9375 15.4375 C8.02515897 18.14502863 8.06402221 20.82563701 8.05102539 23.5324707 C8.05117142 24.33299362 8.05131744 25.13351654 8.0514679 25.95829773 C8.05077355 28.5933202 8.04300356 31.22827119 8.03515625 33.86328125 C8.03329037 35.69459494 8.03186727 37.52590914 8.03086853 39.35722351 C8.02705672 44.16913235 8.01723785 48.98101084 8.00616455 53.79290771 C7.99592169 58.70633534 7.99136475 63.61976789 7.98632812 68.53320312 C7.97561437 78.16798206 7.95855401 87.8027385 7.9375 97.4375 C9.52031265 97.4175145 9.52031265 97.4175145 11.13510132 97.39712524 C21.1093927 97.27516971 31.0835316 97.18539647 41.05840111 97.12662697 C46.18589883 97.09539622 51.31279172 97.05307506 56.43994141 96.98486328 C61.39371253 96.91937521 66.34690417 96.88373194 71.30107498 96.86823654 C73.1852594 96.85720283 75.06941429 96.83565657 76.95335007 96.80311966 C96.5553723 96.47823241 96.5553723 96.47823241 103.9375 103.4375 C108.09626843 108.48485278 108.30599867 113.48688935 108.2109375 119.875 C107.68497904 124.80398214 105.89176197 128.6520152 102.21875 132.0078125 C98.08721851 135.07144814 94.69996967 136.56017511 89.49250793 136.57121277 C88.58280243 136.57547775 87.67309692 136.57974274 86.73582458 136.58413696 C85.24201012 136.58345718 85.24201012 136.58345718 83.71801758 136.58276367 C82.14192719 136.58780159 82.14192719 136.58780159 80.53399658 136.59294128 C77.0499962 136.60246288 73.56604385 136.60439522 70.08203125 136.60546875 C67.66167684 136.60868126 65.24132263 136.61204533 62.82096863 136.61555481 C57.74091136 136.62154965 52.66087111 136.62339442 47.58081055 136.62280273 C41.07870194 136.62270127 34.57670292 136.63633582 28.07462025 136.65357494 C23.07225547 136.66470902 18.06991702 136.66672148 13.06754112 136.66619301 C10.67102367 136.66737168 8.27450551 136.6717871 5.87800026 136.67952538 C2.51990794 136.68935037 -0.8379486 136.68643681 -4.19604492 136.68041992 C-5.18180008 136.68603943 -6.16755524 136.69165894 -7.18318176 136.69744873 C-20.19081207 136.63838824 -20.19081207 136.63838824 -25.0859375 132.88671875 C-25.75496094 132.01466797 -25.75496094 132.01466797 -26.4375 131.125 C-26.89898437 130.55136719 -27.36046875 129.97773438 -27.8359375 129.38671875 C-31.4431334 123.65426412 -31.35353439 118.49637528 -31.3371582 111.89916992 C-31.34226913 110.83839737 -31.34738007 109.77762482 -31.35264587 108.68470764 C-31.36654218 105.17907056 -31.36558481 101.6736301 -31.36328125 98.16796875 C-31.36716861 95.72805203 -31.37150336 93.28813599 -31.37626648 90.84822083 C-31.38372912 85.73302009 -31.38343739 80.61788838 -31.37817383 75.50268555 C-31.37238411 68.95572941 -31.38929826 62.40905663 -31.4125185 55.86214733 C-31.42727014 50.82203018 -31.42812549 45.781981 -31.42500877 40.74184608 C-31.42552142 38.32858024 -31.43074859 35.91531054 -31.44082069 33.50206566 C-31.45319291 30.12252938 -31.4463878 26.74354155 -31.43481445 23.36401367 C-31.44245819 22.37204987 -31.45010193 21.38008606 -31.45797729 20.35806274 C-31.40780433 13.71063053 -30.74626423 7.71904003 -26.37890625 2.37890625 C-25.51072266 1.69634766 -25.51072266 1.69634766 -24.625 1 C-24.04878906 0.52691406 -23.47257813 0.05382812 -22.87890625 -0.43359375 C-16.29233772 -4.52718151 -6.40995406 -3.95105365 0 0 Z " fill="#FCFEFD" transform="translate(184.0625,222.5625)"/>
<path d="" fill="#000000" transform="translate(0,0)"/>
<path d="" fill="#000000" transform="translate(0,0)"/>
<path d="" fill="#000000" transform="translate(0,0)"/>
<path d="" fill="#000000" transform="translate(0,0)"/>
<path d="" fill="#000000" transform="translate(0,0)"/>
<path d="" fill="#000000" transform="translate(0,0)"/>
<path d="" fill="#000000" transform="translate(0,0)"/>
<path d="" fill="#000000" transform="translate(0,0)"/>
<path d="" fill="#000000" transform="translate(0,0)"/>
<path d="" fill="#000000" transform="translate(0,0)"/>
<path d="" fill="#000000" transform="translate(0,0)"/>
<path d="" fill="#000000" transform="translate(0,0)"/>
<path d="" fill="#000000" transform="translate(0,0)"/>
<path d="" fill="#000000" transform="translate(0,0)"/>
<path d="" fill="#000000" transform="translate(0,0)"/>
<path d="" fill="#000000" transform="translate(0,0)"/>
<path d="" fill="#000000" transform="translate(0,0)"/>
<path d="" fill="#000000" transform="translate(0,0)"/>
<path d="" fill="#000000" transform="translate(0,0)"/>
<path d="" fill="#000000" transform="translate(0,0)"/>
<path d="" fill="#000000" transform="translate(0,0)"/>
<path d="" fill="#000000" transform="translate(0,0)"/>
<path d="" fill="#000000" transform="translate(0,0)"/>
<path d="" fill="#000000" transform="translate(0,0)"/>
</svg>
