<?xml version="1.0" encoding="UTF-8"?>
<svg version="1.1" xmlns="http://www.w3.org/2000/svg" width="512" height="512">
<path d="M0 0 C1.23769154 -0.00694553 2.47538308 -0.01389106 3.75058043 -0.02104706 C7.15142544 -0.03607177 10.55138524 -0.03342342 13.95218849 -0.02289402 C17.63329886 -0.01585798 21.31432278 -0.03193316 24.9954071 -0.04489136 C32.19348279 -0.0664639 39.39139996 -0.06642178 46.58949731 -0.05826581 C52.44389286 -0.05194959 58.2982424 -0.05311768 64.15263748 -0.05953789 C64.98790394 -0.06043954 65.82317039 -0.0613412 66.68374795 -0.06227018 C68.38094032 -0.0641215 70.07813267 -0.06598406 71.77532502 -0.06785773 C87.66829303 -0.08441293 103.56117212 -0.07573669 119.45413478 -0.05887216 C133.97104356 -0.04417975 148.48774527 -0.05880115 163.00462739 -0.08764232 C177.93708131 -0.1170865 192.86943983 -0.12799383 207.80192149 -0.11846012 C209.49325917 -0.11743764 211.18459688 -0.11644303 212.8759346 -0.11547661 C214.12395798 -0.11476202 214.12395798 -0.11476202 215.39719396 -0.114033 C221.2382662 -0.11187536 227.07924745 -0.12163829 232.92029953 -0.13624763 C240.04785351 -0.15382714 247.17514375 -0.15357363 254.30268763 -0.13089598 C257.93394471 -0.11980398 261.56473809 -0.11647514 265.19597435 -0.13519669 C293.1895198 -0.2690374 293.1895198 -0.2690374 304.14810181 5.5146637 C304.84865377 5.87370505 305.54920574 6.23274641 306.27098656 6.60266781 C308.06997681 7.61231995 308.06997681 7.61231995 310.89810181 9.5771637 C312.34442993 10.55362854 312.34442993 10.55362854 313.81997681 11.54981995 C316.15175441 13.51774635 316.84134884 14.85132396 318.14810181 17.5146637 C318.75653931 17.79567932 319.36497681 18.07669495 319.99185181 18.3662262 C323.21489082 20.0828448 324.74636376 22.88452815 326.64810181 25.8896637 C327.21464478 26.72690979 327.21464478 26.72690979 327.79263306 27.58106995 C333.94820377 37.16345323 335.74428076 47.14487863 335.6627655 58.36656189 C335.66971103 59.60425343 335.67665656 60.84194497 335.68381256 62.11714232 C335.69883727 65.51798733 335.69618893 68.91794713 335.68565953 72.31875038 C335.67862348 75.99986075 335.69469867 79.68088467 335.70765686 83.36196899 C335.7292294 90.56004468 335.72918728 97.75796185 335.72103132 104.9560592 C335.71471509 110.81045475 335.71588318 116.66480429 335.72230339 122.51919937 C335.72320505 123.35446583 335.7241067 124.18973228 335.72503568 125.05030984 C335.726887 126.74750221 335.72874957 128.44469456 335.73062324 130.1418869 C335.74717843 146.03485492 335.73850219 161.92773401 335.72163766 177.82069667 C335.70694525 192.33760545 335.72156666 206.85430716 335.75040782 221.37118928 C335.779852 236.3036432 335.79075933 251.23600172 335.78122562 266.16848338 C335.78020315 267.85982106 335.77920853 269.55115877 335.77824211 271.24249649 C335.77776572 272.07451208 335.77728933 272.90652767 335.77679851 273.76375585 C335.77464086 279.60482809 335.78440379 285.44580934 335.79901314 291.28686142 C335.81659264 298.4144154 335.81633913 305.54170564 335.79366148 312.66924952 C335.78256948 316.3005066 335.77924065 319.93129998 335.79796219 323.56253624 C335.93180291 351.55608169 335.93180291 351.55608169 330.14810181 362.5146637 C329.78906045 363.21521566 329.43001909 363.91576763 329.06009769 364.63754845 C328.05044556 366.4365387 328.05044556 366.4365387 326.08560181 369.2646637 C325.43462524 370.22888245 324.78364868 371.1931012 324.11294556 372.1865387 C322.14501916 374.5183163 320.81144155 375.20791073 318.14810181 376.5146637 C317.86708618 377.1231012 317.58607056 377.7315387 317.29653931 378.3584137 C315.5799207 381.58145271 312.77823736 383.11292565 309.77310181 385.0146637 C309.21493774 385.39235901 308.65677368 385.77005432 308.08169556 386.15919495 C298.49931228 392.31476566 288.51788688 394.11084265 277.29620361 394.02932739 C276.05851207 394.03627292 274.82082053 394.04321845 273.54562318 394.05037445 C270.14477817 394.06539916 266.74481837 394.06275082 263.34401512 394.05222142 C259.66290475 394.04518537 255.98188083 394.06126056 252.30079651 394.07421875 C245.10272082 394.09579129 237.90480365 394.09574917 230.7067063 394.08759321 C224.85231076 394.08127698 218.99796121 394.08244507 213.14356613 394.08886528 C212.30829968 394.08976694 211.47303322 394.09066859 210.61245566 394.09159757 C208.91526329 394.09344889 207.21807094 394.09531146 205.5208786 394.09718513 C189.62791058 394.11374032 173.73503149 394.10506408 157.84206884 394.08819955 C143.32516006 394.07350714 128.80845834 394.08812855 114.29157622 394.11696971 C99.35912231 394.14641389 84.42676378 394.15732122 69.49428213 394.14778751 C67.80294444 394.14676504 66.11160673 394.14577042 64.42026901 394.144804 C63.58825342 394.14432761 62.75623783 394.14385122 61.89900965 394.14336039 C56.05793741 394.14120275 50.21695616 394.15096568 44.37590408 394.16557503 C37.2483501 394.18315453 30.12105986 394.18290102 22.99351598 394.16022337 C19.36225891 394.14913137 15.73146552 394.14580254 12.10022926 394.16452408 C-15.89331619 394.2983648 -15.89331619 394.2983648 -26.85189819 388.5146637 C-27.55245016 388.15562234 -28.25300213 387.79658098 -28.97478294 387.42665958 C-30.77377319 386.41700745 -30.77377319 386.41700745 -33.60189819 384.4521637 C-34.56611694 383.80118713 -35.53033569 383.15021057 -36.52377319 382.47950745 C-38.8555508 380.51158105 -39.54514522 379.17800344 -40.85189819 376.5146637 C-41.76455444 376.09314026 -41.76455444 376.09314026 -42.69564819 375.6631012 C-45.9186872 373.94648259 -47.45016015 371.14479925 -49.35189819 368.1396637 C-49.72959351 367.58149963 -50.10728882 367.02333557 -50.49642944 366.44825745 C-56.65200016 356.86587417 -58.44807715 346.88444877 -58.36656189 335.6627655 C-58.37350742 334.42507396 -58.38045295 333.18738242 -58.38760895 331.91218507 C-58.40263366 328.51134006 -58.39998531 325.11138026 -58.38945591 321.71057701 C-58.38241987 318.02946664 -58.39849505 314.34844272 -58.41145325 310.6673584 C-58.43302579 303.46928271 -58.43298367 296.27136554 -58.4248277 289.07326819 C-58.41851148 283.21887265 -58.41967957 277.3645231 -58.42609978 271.51012802 C-58.42700143 270.67486157 -58.42790309 269.83959511 -58.42883207 268.97901755 C-58.43068339 267.28182518 -58.43254595 265.58463283 -58.43441962 263.88744049 C-58.45097482 247.99447247 -58.44229858 232.10159338 -58.42543405 216.20863073 C-58.41074164 201.69172195 -58.42536304 187.17502023 -58.45420421 172.65813811 C-58.48364839 157.7256842 -58.49455572 142.79332567 -58.48502201 127.86084402 C-58.48399953 126.16950633 -58.48300492 124.47816862 -58.4820385 122.7868309 C-58.48156211 121.95481531 -58.48108572 121.12279972 -58.48059489 120.26557154 C-58.47843725 114.4244993 -58.48820018 108.58351805 -58.50280952 102.74246597 C-58.52038903 95.61491199 -58.52013552 88.48762175 -58.49745787 81.36007787 C-58.48636587 77.7288208 -58.48303703 74.09802741 -58.50175858 70.46679115 C-58.63559929 42.4732457 -58.63559929 42.4732457 -52.85189819 31.5146637 C-52.49285684 30.81411173 -52.13381548 30.11355976 -51.76389408 29.39177895 C-50.75424194 27.5927887 -50.75424194 27.5927887 -48.78939819 24.7646637 C-48.13842163 23.80044495 -47.48744507 22.8362262 -46.81674194 21.8427887 C-44.84881554 19.51101109 -43.51523793 18.82141667 -40.85189819 17.5146637 C-40.57088257 16.9062262 -40.28986694 16.2977887 -40.00033569 15.6709137 C-38.28371709 12.44787469 -35.48203374 10.91640174 -32.47689819 9.0146637 C-31.91873413 8.63696838 -31.36057007 8.25927307 -30.78549194 7.87013245 C-21.20310866 1.71456173 -11.22168326 -0.08151526 0 0 Z " fill="#FEBA33" transform="translate(117.85189819335938,59.48533630371094)"/>
<path d="M0 0 C1.53879719 -0.0163799 1.53879719 -0.0163799 3.1086812 -0.03309071 C6.54546067 -0.0610076 9.98007465 -0.03889907 13.41687012 -0.01687622 C15.88090787 -0.02636158 18.3449357 -0.03882524 20.8089447 -0.05404663 C26.80624403 -0.08266581 32.80269383 -0.07845926 38.79996002 -0.05815814 C43.67443553 -0.04234163 48.54873921 -0.04020872 53.42323303 -0.04782486 C54.46433862 -0.04943381 54.46433862 -0.04943381 55.52647665 -0.05107526 C56.93652011 -0.05331336 58.34656352 -0.05558286 59.75660688 -0.0578834 C72.97499049 -0.07783865 86.19303414 -0.05490267 99.41136199 -0.01728083 C110.75044509 0.01399331 122.08902654 0.00856097 133.42810059 -0.02371216 C146.59952982 -0.06118302 159.77066119 -0.0759161 172.94213629 -0.05442631 C174.3469578 -0.0521965 175.75177935 -0.0499959 177.15660095 -0.04782486 C177.84777843 -0.04674493 178.53895591 -0.045665 179.25107816 -0.04455235 C184.11904211 -0.03851134 188.98681693 -0.04870348 193.85475159 -0.06518173 C200.40820461 -0.08687818 206.96085683 -0.07140558 213.51426888 -0.03092194 C215.9208983 -0.02165757 218.32760739 -0.02433921 220.73420525 -0.03976059 C224.01716251 -0.05885979 227.29707163 -0.03494374 230.57983398 0 C231.53489224 -0.01561505 232.48995049 -0.0312301 233.47394991 -0.04731834 C239.76039296 0.08270318 239.76039296 0.08270318 242.72527981 2.40439677 C245.92516795 5.99533673 247.54819139 8.66148604 247.51647949 13.61154175 C247.5145459 15.16131714 247.5145459 15.16131714 247.51257324 16.74240112 C247.48034668 17.80136597 247.44812012 18.86033081 247.41491699 19.9513855 C247.4213623 21.01421753 247.42780762 22.07704956 247.43444824 23.17208862 C247.32987298 30.78231588 246.19622295 34.48257954 240.78991699 39.8888855 C238.93785399 40.1441865 238.93785399 40.1441865 236.63782787 40.15174103 C235.76259698 40.15942332 234.88736609 40.16710561 233.98561305 40.17502069 C233.01822131 40.17328773 232.05082957 40.17155477 231.05412292 40.16976929 C230.03097026 40.17571153 229.0078176 40.18165378 227.95366031 40.18777609 C224.50280642 40.20520993 221.05209081 40.20817157 217.60119629 40.21115112 C215.13613587 40.22040324 212.67107834 40.23045198 210.20602417 40.24124146 C203.49320579 40.26753409 196.78044186 40.28046081 190.06758475 40.28926277 C185.8774418 40.2947844 181.6873081 40.30325854 177.4971714 40.31227112 C165.90002236 40.3366596 154.30288074 40.35725731 142.7057066 40.3640213 C141.96316422 40.36446043 141.22062185 40.36489957 140.4555782 40.365352 C139.33907052 40.36600684 139.33907052 40.36600684 138.20000714 40.3666749 C136.69164701 40.36756184 135.18328688 40.36845496 133.67492676 40.36935425 C132.55262413 40.37001854 132.55262413 40.37001854 131.40764872 40.37069625 C119.28307225 40.37859289 107.15873615 40.41350131 95.03425255 40.46007329 C82.59158893 40.50748234 70.14904596 40.53242418 57.70629054 40.53475714 C50.71793174 40.53659176 43.72988604 40.54812335 36.74161339 40.58439636 C30.16948887 40.6183886 23.59785441 40.62171749 17.02563095 40.60411835 C14.61048989 40.60257227 12.19531747 40.6113331 9.78025627 40.63103485 C6.48834136 40.65631945 3.19855971 40.64480945 -0.09333801 40.62387085 C-1.05403759 40.63998366 -2.01473716 40.65609647 -3.00454885 40.67269754 C-9.31969751 40.5784432 -9.31969751 40.5784432 -11.90744436 38.57436657 C-16.91906107 32.70833406 -16.52180917 27.57867141 -16.64758301 20.2013855 C-16.69334473 19.12437378 -16.73910645 18.04736206 -16.78625488 16.93771362 C-16.8010791 15.88648315 -16.81590332 14.83525269 -16.83117676 13.75216675 C-16.85623291 12.79608521 -16.88128906 11.84000366 -16.90710449 10.85494995 C-14.74386806 1.64964018 -8.58005808 -0.1402826 0 0 Z " fill="#FFFEFE" transform="translate(141.2100830078125,236.11111450195313)"/>
</svg>
