<?xml version="1.0" encoding="UTF-8"?>
<svg version="1.1" xmlns="http://www.w3.org/2000/svg" width="512" height="512">
<path d="M0 0 C1.44278607 -0.00302782 2.88557053 -0.00692044 4.32835221 -0.01159257 C8.25673924 -0.02180021 12.18503427 -0.01970938 16.11342859 -0.01541197 C20.36442687 -0.01293147 24.61540375 -0.0219753 28.86639404 -0.02944946 C37.18091096 -0.04216222 45.49539552 -0.04399441 53.80992052 -0.0416492 C60.57291219 -0.03986191 67.33589408 -0.04162448 74.09888458 -0.04587364 C75.06359136 -0.04646883 76.02829813 -0.04706402 77.02223845 -0.04767724 C78.98243108 -0.04888907 80.9426237 -0.05010321 82.90281633 -0.05131962 C101.26282153 -0.06218214 119.62280835 -0.06003888 137.98281458 -0.05393478 C154.75116286 -0.04876774 171.51945301 -0.06001775 188.28778979 -0.07903299 C205.5356682 -0.09844097 222.78351915 -0.10666215 240.03140855 -0.10290974 C249.70265762 -0.10100206 259.37385723 -0.10344282 269.04509735 -0.11762428 C277.2791938 -0.1295769 285.51321036 -0.13089971 293.74730799 -0.11883412 C297.94185824 -0.11297234 302.13626264 -0.11177045 306.33080292 -0.12383652 C336.10731633 -0.20353947 367.42548245 1.19422066 390.18927002 23.06538391 C391.56783076 24.44370928 392.91648052 25.851753 394.26373291 27.26069641 C395.00236572 28.02897766 395.74099854 28.79725891 396.50201416 29.58882141 C412.24424843 47.56247918 416.59089367 72.91723922 416.52442932 95.9969635 C416.52745715 97.43974957 416.53134976 98.88253403 416.53602189 100.32531571 C416.54622954 104.25370274 416.54413871 108.18199777 416.53984129 112.11039209 C416.53736079 116.36139037 416.54640462 120.61236725 416.55387878 124.86335754 C416.56659154 133.17787446 416.56842373 141.49235902 416.56607852 149.80688402 C416.56429123 156.56987569 416.5660538 163.33285758 416.57030296 170.09584808 C416.57089815 171.06055486 416.57149334 172.02526163 416.57210657 173.01920195 C416.57331839 174.97939458 416.57453253 176.9395872 416.57574894 178.89977983 C416.58661146 197.25978503 416.5844682 215.61977185 416.5783641 233.97977808 C416.57319706 250.74812636 416.58444707 267.51641651 416.60346232 284.28475329 C416.6228703 301.5326317 416.63109147 318.78048266 416.62733907 336.02837205 C416.62543139 345.69962112 416.62787214 355.37082073 416.6420536 365.04206085 C416.65400622 373.2761573 416.65532904 381.51017386 416.64326344 389.74427149 C416.63740166 393.93882174 416.63619977 398.13322615 416.64826584 402.32776642 C416.72796879 432.10427983 415.33020866 463.42244595 393.45904541 486.18623352 C392.08072004 487.56479426 390.67267632 488.91344402 389.26373291 490.26069641 C388.49545166 490.99932922 387.72717041 491.73796204 386.93560791 492.49897766 C368.96195015 508.24121193 343.6071901 512.58785717 320.52746582 512.52139282 C319.08467975 512.52442065 317.64189529 512.52831326 316.19911361 512.53298539 C312.27072658 512.54319304 308.34243155 512.54110221 304.41403723 512.5368048 C300.16303895 512.53432429 295.91206207 512.54336813 291.66107178 512.55084229 C283.34655486 512.56355504 275.0320703 512.56538723 266.7175453 512.56304202 C259.95455363 512.56125473 253.19157174 512.5630173 246.42858124 512.56726646 C245.46387446 512.56786165 244.49916769 512.56845684 243.50522737 512.56907007 C241.54503474 512.5702819 239.58484212 512.57149603 237.62464949 512.57271244 C219.26464429 512.58357496 200.90465747 512.5814317 182.54465124 512.5753276 C165.77630296 512.57016056 149.00801281 512.58141057 132.23967603 512.60042582 C114.99179762 512.6198338 97.74394667 512.62805497 80.49605727 512.62430257 C70.8248082 512.62239489 61.15360859 512.62483564 51.48236847 512.63901711 C43.24827202 512.65096973 35.01425546 512.65229254 26.78015783 512.64022694 C22.58560758 512.63436516 18.39120318 512.63316327 14.1966629 512.64522934 C-15.57985051 512.7249323 -46.89801663 511.32717216 -69.6618042 489.45600891 C-71.04036494 488.07768354 -72.3890147 486.66963982 -73.73626709 485.26069641 C-74.4748999 484.49241516 -75.21353271 483.72413391 -75.97454834 482.93257141 C-91.71678261 464.95891365 -96.06342785 439.6041536 -95.9969635 416.52442932 C-95.99999132 415.08164325 -96.00388394 413.63885879 -96.00855607 412.19607711 C-96.01876372 408.26769008 -96.01667289 404.33939505 -96.01237547 400.41100073 C-96.00989497 396.16000245 -96.0189388 391.90902557 -96.02641296 387.65803528 C-96.03912572 379.34351836 -96.04095791 371.0290338 -96.0386127 362.7145088 C-96.03682541 355.95151713 -96.03858798 349.18853524 -96.04283714 342.42554474 C-96.04343233 341.46083796 -96.04402752 340.49613119 -96.04464075 339.50219087 C-96.04585257 337.54199825 -96.04706671 335.58180562 -96.04828312 333.621613 C-96.05914564 315.26160779 -96.05700238 296.90162098 -96.05089828 278.54161474 C-96.04573124 261.77326646 -96.05698125 245.00497631 -96.0759965 228.23663953 C-96.09540448 210.98876112 -96.10362565 193.74091017 -96.09987324 176.49302077 C-96.09796557 166.82177171 -96.10040632 157.15057209 -96.11458778 147.47933197 C-96.1265404 139.24523552 -96.12786322 131.01121896 -96.11579762 122.77712134 C-96.10993584 118.58257108 -96.10873395 114.38816668 -96.12080002 110.1936264 C-96.20050297 80.41711299 -94.80274284 49.09894687 -72.93157959 26.3351593 C-71.55325422 24.95659856 -70.1452105 23.6079488 -68.73626709 22.26069641 C-67.58384521 21.15274719 -67.58384521 21.15274719 -66.40814209 20.02241516 C-48.43448432 4.28018089 -23.07972428 -0.06646435 0 0 Z " fill="#00BA19" transform="translate(95.73626708984375,-0.2606964111328125)"/>
<path d="M0 0 C25.41 0 50.82 0 77 0 C77 4.95 77 9.9 77 15 C85.78992244 14.65864379 92.31093582 14.16294426 100 10 C101.98946408 8.97594842 103.98471443 7.96418409 105.98291016 6.95727539 C107.37750763 6.25266511 108.7680732 5.53999833 110.15380859 4.81811523 C110.80687988 4.48368408 111.45995117 4.14925293 112.1328125 3.8046875 C112.99737061 3.35585205 112.99737061 3.35585205 113.87939453 2.89794922 C120.63533697 0.03721283 126.64846865 -0.29707103 133.91381836 -0.29052734 C134.99129333 -0.29724457 136.06876831 -0.30396179 137.17889404 -0.31088257 C140.73259125 -0.32984009 144.28609915 -0.33378647 147.83984375 -0.3359375 C150.32499772 -0.34236978 152.81015094 -0.34909846 155.29530334 -0.35610962 C160.50621289 -0.36807882 165.71705619 -0.37179108 170.92797852 -0.37060547 C177.56829658 -0.36927739 184.20823461 -0.39763766 190.84847164 -0.43214989 C195.98498946 -0.45452093 201.12140547 -0.45843979 206.257967 -0.45738602 C208.70370524 -0.45972923 211.14944684 -0.4684796 213.59513664 -0.48405075 C240.902442 -0.64155256 259.93521276 4.77124556 280 24 C281.35156675 25.65191491 282.68962066 27.31522656 284 29 C285.2375 29.99 285.2375 29.99 286.5 31 C289.12899543 33.10319635 290.90319635 35.37899543 293 38 C294.65002828 39.35386936 296.3174387 40.68678142 298 42 C301.03045221 44.87095473 303.78657664 47.89683941 306.5 51.0625 C309.11115529 54.09646818 311.85224775 56.51995277 315 59 C315 59.66 315 60.32 315 61 C362.85 61 410.7 61 460 61 C460 127 460 193 460 261 C353.74 261 247.48 261 138 261 C138 228.66 138 196.32 138 163 C133.38 162.67 128.76 162.34 124 162 C120.8298445 161.25635151 118.02286749 160.52397064 115 159.4375 C114.25306885 159.18009033 113.5061377 158.92268066 112.73657227 158.6574707 C105.54805622 156.05993969 96.46430931 152.46430931 91 147 C88.65012738 146.76472227 86.29443961 146.58613583 83.9375 146.4375 C81.648125 146.293125 79.35875 146.14875 77 146 C77 153.59 77 161.18 77 169 C51.59 169 26.18 169 0 169 C0 113.23 0 57.46 0 0 Z " fill="#F9FEF9" transform="translate(26,26)"/>
<path d="M0 0 C25.08 0 50.16 0 76 0 C76 50.49 76 100.98 76 153 C50.59 153 25.18 153 -1 153 C-1 149.37 -1 145.74 -1 142 C-1.92039062 142.37511719 -2.84078125 142.75023437 -3.7890625 143.13671875 C-5.06764844 143.65379395 -6.34629784 144.17071227 -7.625 144.6875 C-8.223125 144.93177734 -8.82125 145.17605469 -9.4375 145.42773438 C-10.7680194 145.96401515 -12.10577807 146.48253868 -13.44868469 146.98699951 C-16.02726821 147.97188628 -16.02726821 147.97188628 -18.53605652 149.24749756 C-31.07646552 154.76803512 -44.43700945 153.70357591 -57.88671875 153.62890625 C-60.59805467 153.62736903 -63.30937369 153.63214596 -66.02070618 153.63621521 C-71.68166431 153.64071226 -77.34228942 153.62501159 -83.00317383 153.59692383 C-89.51995545 153.56483585 -96.03613861 153.56491335 -102.55296296 153.5821386 C-108.86308485 153.59807321 -115.17299023 153.59122886 -121.4831028 153.57420158 C-124.15079834 153.5673829 -126.81803575 153.5694765 -129.48578453 153.57574654 C-133.21835145 153.58122878 -136.94992007 153.56072671 -140.68237305 153.53344727 C-141.77097122 153.53997314 -142.8595694 153.54649902 -143.9811554 153.55322266 C-153.8074877 153.43180967 -162.01024604 150.68184787 -170.25 145.3125 C-171.34054688 144.61640625 -172.43109375 143.9203125 -173.5546875 143.203125 C-174.11639648 142.84154297 -174.67810547 142.47996094 -175.25683594 142.10742188 C-178.26023743 140.19937858 -181.31881516 138.38433454 -184.375 136.5625 C-185.65894124 135.79441637 -186.94279524 135.02618688 -188.2265625 134.2578125 C-188.85981445 133.87915039 -189.49306641 133.50048828 -190.14550781 133.11035156 C-191.87719054 132.07353047 -193.60665056 131.03299955 -195.3359375 129.9921875 C-201.37490162 126.35775372 -207.4258789 122.74491751 -213.4921875 119.15625 C-214.36586975 118.63932335 -214.36586975 118.63932335 -215.25720215 118.11195374 C-218.17671075 116.38479722 -221.09700949 114.6590144 -224.01855469 112.93530273 C-230.70259701 108.98372746 -237.33518785 104.95868912 -243.94091797 100.87768555 C-248.34459238 98.17467997 -252.7935533 95.55224972 -257.25 92.9375 C-268.64367707 86.2270584 -279.99180893 79.44237091 -291.31591797 72.61523438 C-293.61449986 71.23198735 -295.9174023 69.85645484 -298.22265625 68.484375 C-307.99417099 62.60575993 -315.85035271 57.4290074 -319.6171875 46.15234375 C-321.01872425 38.27227491 -321.0776876 29.99032161 -317 23 C-316.1646875 21.515 -316.1646875 21.515 -315.3125 20 C-310.54821561 13.81930674 -304.8835745 8.42753143 -297 7 C-284.03573852 5.91069519 -275.96537969 8.58652081 -265.02734375 15.1796875 C-260.43431474 17.9414314 -255.7212955 20.46586633 -251 23 C-250.4234668 23.3108252 -249.84693359 23.62165039 -249.25292969 23.94189453 C-243.04679565 27.28680142 -236.84512864 30.61191363 -230.5 33.6875 C-223.15933297 37.30245125 -216.09881425 41.42892575 -209.0078125 45.5065918 C-208.04746094 46.05613525 -207.08710938 46.60567871 -206.09765625 47.171875 C-205.23664307 47.6678418 -204.37562988 48.16380859 -203.48852539 48.67480469 C-201.04268886 49.97726723 -198.59065566 51.02230656 -196 52 C-195.773125 51.113125 -195.54625 50.22625 -195.3125 49.3125 C-193.78639173 45.46089342 -192.08587862 43.73521059 -189 41 C-187.6696875 39.7315625 -187.6696875 39.7315625 -186.3125 38.4375 C-178.62110434 32.20883328 -167.72503532 30.41828793 -158.375 28 C-157.02559083 27.64590363 -155.67630772 27.29132655 -154.32714844 26.9362793 C-146.4405621 24.86664155 -138.53766613 22.86941662 -130.62109375 20.91796875 C-126.50240159 19.87385585 -122.40619148 18.76260413 -118.3125 17.625 C-117.5712085 17.41939453 -116.82991699 17.21378906 -116.06616211 17.00195312 C-111.9375104 15.84792461 -107.82393036 14.65296379 -103.71875 13.41796875 C-102.81858154 13.15097168 -101.91841309 12.88397461 -100.9909668 12.60888672 C-99.2812301 12.10053186 -97.57403422 11.58349662 -95.87036133 11.05517578 C-83.19232708 7.3048175 -70.32750106 6.64699757 -57.20166016 6.68432617 C-54.86964969 6.6875073 -52.53888836 6.66383229 -50.20703125 6.63867188 C-37.43998347 6.58087379 -26.07864686 7.8492266 -15.125 14.9375 C-13.73193446 15.80104527 -12.33870713 16.66432959 -10.9453125 17.52734375 C-10.35250488 17.90624756 -9.75969727 18.28515137 -9.14892578 18.67553711 C-6.14512814 20.52688933 -3.06359508 22.24937424 0 24 C0 16.08 0 8.16 0 0 Z " fill="#FAFEF9" transform="translate(410,333)"/>
<path d="M0 0 C4.48282681 1.80080654 8.62480194 4.17123293 12.8125 6.5625 C14.04202683 7.24588778 15.27268289 7.92724738 16.50439453 8.60668945 C19.06314319 10.02011883 21.61682899 11.44213204 24.16748047 12.87011719 C30.18934318 16.23049164 36.28728603 19.44859156 42.375 22.6875 C50.97105169 27.28899697 59.55784779 31.90740051 68.125 36.5625 C68.98270996 37.0268042 69.84041992 37.4911084 70.72412109 37.96948242 C73.15892808 39.29657491 75.58034981 40.64550207 78 42 C78.9087085 42.4935498 79.81741699 42.98709961 80.75366211 43.49560547 C81.65093018 44.0010791 82.54819824 44.50655273 83.47265625 45.02734375 C84.28484619 45.477146 85.09703613 45.92694824 85.93383789 46.39038086 C89.0616898 48.82709688 89.95353932 51.70525165 90.98828125 55.4375 C94.02652623 63.13282319 100.24712578 66.35997336 107.44140625 69.640625 C114.28144063 72.25350312 119.52918771 71.45544002 126.484375 69.671875 C128.06726318 69.26799561 128.06726318 69.26799561 129.68212891 68.85595703 C130.77702637 68.57349121 131.87192383 68.29102539 133 68 C134.06009277 67.72913574 135.12018555 67.45827148 136.21240234 67.17919922 C139.51795703 66.33296524 142.82177686 65.48028821 146.125 64.625 C147.30715088 64.31900879 148.48930176 64.01301758 149.70727539 63.69775391 C157.00744763 61.80001729 164.28254577 59.83203001 171.54077148 57.78051758 C178.0576389 55.95221842 184.61767283 54.31021287 191.19116211 52.69873047 C194.76820873 51.81995188 198.30084336 50.91014566 201.83203125 49.85546875 C205 49 205 49 209 49 C208.7834375 48.09636719 208.566875 47.19273437 208.34375 46.26171875 C208.0653125 45.08222656 207.786875 43.90273438 207.5 42.6875 C207.08234375 40.92986328 207.08234375 40.92986328 206.65625 39.13671875 C206 36 206 36 206 33 C205.46415283 33.18828369 204.92830566 33.37656738 204.3762207 33.57055664 C198.7064169 35.5175828 193.016585 37.05137024 187.1875 38.4375 C180.64862591 40.02789123 174.29838659 41.82377255 167.94140625 44.04296875 C163.24318177 45.57160752 158.44674836 46.69083569 153.6484375 47.85546875 C147.01044882 49.47158518 140.41045603 51.23696424 133.80541992 52.98193359 C132.86545166 53.2289502 131.9254834 53.4759668 130.95703125 53.73046875 C130.12147705 53.95114014 129.28592285 54.17181152 128.42504883 54.39916992 C122.05290021 55.97793341 116.15061435 57.05020478 109.8125 54.9375 C106.20786504 52.45430703 103.86883035 49.97623479 102 46 C101.20614205 40.44299435 102.12113292 36.86056267 104.5390625 31.859375 C108.02051129 27.42844018 112.76128253 25.48798227 118.0625 24.0625 C119.88974609 23.56943359 119.88974609 23.56943359 121.75390625 23.06640625 C127.56428835 21.58489122 133.40446264 20.22469853 139.24267578 18.85791016 C146.57140351 17.13280164 153.78211525 15.14538813 161 13 C170.14447837 10.3227991 179.30681217 7.8404462 188.57641602 5.63818359 C190.4164997 5.15364861 192.23760607 4.59635734 194.04663086 4.00634766 C204.60144934 0.74896628 214.69209467 0.31979536 225.69848633 0.36865234 C228.69432647 0.3750145 231.68627983 0.32774352 234.68164062 0.27734375 C245.6640245 0.20462895 253.69961923 0.68906242 263 7 C264.24227119 7.72439187 265.48670509 8.44510304 266.734375 9.16015625 C267.72953125 9.78792969 268.7246875 10.41570312 269.75 11.0625 C270.75546875 11.69285156 271.7609375 12.32320313 272.796875 12.97265625 C273.85390625 13.64167969 274.9109375 14.31070312 276 15 C277.00749298 15.31494919 277.00749298 15.31494919 278.03533936 15.63626099 C280.81574733 16.72050702 282.13952859 17.63378074 284 20 C285.18965676 26.19898398 284.92923429 32.35628689 284.78125 38.64453125 C284.7663234 40.49824075 284.75493835 42.35198188 284.74694824 44.20573425 C284.71644658 49.07770391 284.63790206 53.94775615 284.54931641 58.81896973 C284.46738147 63.79246073 284.43092053 68.76626256 284.390625 73.74023438 C284.30490473 83.49433066 284.16842258 93.24700571 284 103 C281.75176891 103.96718378 279.50318655 104.93353608 277.25439453 105.89941406 C276.30395012 106.30844467 276.30395012 106.30844467 275.33430481 106.72573853 C271.21086145 108.49582985 267.0781044 110.18055437 262.875 111.75 C258.91225201 113.20029536 258.91225201 113.20029536 255.13445473 115.05024815 C252.63136904 116.16402688 250.84068827 116.25925691 248.10653687 116.27415466 C246.63066101 116.28911736 246.63066101 116.28911736 245.12496948 116.30438232 C244.05167389 116.305047 242.9783783 116.30571167 241.87255859 116.30639648 C240.16939484 116.31888176 240.16939484 116.31888176 238.43182373 116.33161926 C234.67066026 116.35575226 230.90967024 116.3644968 227.1484375 116.37109375 C224.53252103 116.38005959 221.9166051 116.38918142 219.3006897 116.39845276 C213.81129308 116.41581825 208.32194059 116.42267787 202.83251953 116.42553711 C196.50676038 116.42916494 190.18148865 116.45900573 183.85587823 116.50094169 C177.75404516 116.53996281 171.65244704 116.55113262 165.55049515 116.55226326 C162.96302275 116.55646104 160.37554978 116.56887736 157.78815842 116.58978081 C154.15961609 116.61675462 150.53240131 116.61184958 146.90380859 116.59936523 C145.84265839 116.61419952 144.78150818 116.62903381 143.6882019 116.64431763 C136.32470264 116.57248313 131.29306356 114.75142287 125 111 C123.85273438 110.37738281 122.70546875 109.75476563 121.5234375 109.11328125 C114.68485837 105.20188549 107.97482581 101.1353078 101.31616211 96.92529297 C95.30028005 93.14190927 89.16718757 89.58078767 83.00610352 86.0402832 C76.22580864 82.14228596 69.51279855 78.14196817 62.81933594 74.09716797 C60.94715027 72.96812846 59.07175801 71.84460034 57.1953125 70.72265625 C50.09598777 66.4769994 43.02701518 62.18865396 36 57.82421875 C33.32894887 56.2000249 30.62945771 54.63972099 27.91113281 53.09643555 C21.48267751 49.408368 15.1633316 45.53005986 8.82275391 41.69384766 C5.96041262 39.97624483 3.08136421 38.28958772 0.19921875 36.60546875 C-1.68004425 35.48757867 -3.55896046 34.36910537 -5.4375 33.25 C-6.75935303 32.4911853 -6.75935303 32.4911853 -8.10791016 31.71704102 C-13.6237434 28.39435965 -17.46310548 25.03579651 -20 19 C-20.90602147 14.72976709 -20.34341573 11.66139325 -18.3125 7.75 C-13.02352613 1.46040946 -8.3041442 -1.33467431 0 0 Z " fill="#01BA19" transform="translate(125,355)"/>
<path d="M0 0 C1.5546698 -0.0076664 1.5546698 -0.0076664 3.14074707 -0.01548767 C6.56703471 -0.02938594 9.99312111 -0.02842601 13.41943359 -0.02612305 C15.80732294 -0.03001121 18.1952116 -0.03434613 20.58309937 -0.03910828 C25.59155517 -0.04657201 30.59994049 -0.04627906 35.60839844 -0.04101562 C42.0070894 -0.03523551 48.40548953 -0.0521162 54.80413246 -0.0753603 C59.73885773 -0.09014258 64.6735138 -0.09096296 69.60825729 -0.08785057 C71.96601307 -0.08836201 74.3237729 -0.09356617 76.68150711 -0.10366249 C79.99098418 -0.1160899 83.29990586 -0.1091961 86.609375 -0.09765625 C87.5718515 -0.10529999 88.534328 -0.11294373 89.52597046 -0.12081909 C102.52205155 -0.02136876 117.35546586 4.52023206 126.75537109 13.8996582 C127.74898812 15.01191607 128.72998059 16.13569629 129.69287109 17.2746582 C132.59130886 20.24741489 135.55811162 23.05591354 138.69287109 25.7746582 C143.87475645 30.27853987 148.48162365 35.10218717 152.94677734 40.30981445 C154.78752481 42.3811701 156.72674549 44.32274862 158.69287109 46.2746582 C150.56513688 46.39062669 142.43774961 46.47940997 134.30939198 46.53371906 C130.53482099 46.55978803 126.76081696 46.59513449 122.98657227 46.65185547 C119.34256629 46.70627501 115.69910478 46.73609906 112.05472374 46.74904442 C110.66601682 46.75826677 109.27733895 46.77627673 107.88886452 46.80330849 C105.94077365 46.83971891 103.99213218 46.84170159 102.04370117 46.84228516 C100.38157341 46.85893974 100.38157341 46.85893974 98.68586731 46.87593079 C94.73242196 46.0817105 93.29033757 44.27389918 90.69287109 41.2746582 C89.35033491 40.0946264 87.9970266 38.92667 86.63037109 37.7746582 C83.61042933 35.16574821 81.05082451 32.51684415 78.69287109 29.2746582 C75.47762804 30.68310538 73.37103242 32.37810606 70.94287109 34.8996582 C70.02248047 35.84711914 70.02248047 35.84711914 69.08349609 36.8137207 C68.62458984 37.29583008 68.16568359 37.77793945 67.69287109 38.2746582 C72.44654626 44.04064399 77.60450025 49.30639454 82.90919876 54.56615067 C84.4506476 56.09467295 85.98880779 57.62643997 87.5262146 59.1590271 C90.78727747 62.40874669 94.05227775 65.65449209 97.31787109 68.8996582 C101.11257658 72.67068248 104.90560653 76.44336149 108.69443893 80.22028732 C110.20347285 81.72288142 111.71550544 83.22241165 113.22769165 84.72183228 C114.14899872 85.63983612 115.07030579 86.55783997 116.01953125 87.50366211 C116.82750153 88.30639557 117.6354718 89.10912903 118.46792603 89.93618774 C122.85266696 94.5446553 125.26306476 97.18023505 125.25537109 103.7121582 C125.01635559 110.76311567 125.01635559 110.76311567 122.63037109 113.8996582 C118.37881473 117.33708676 114.70159 118.93987172 109.31787109 119.8371582 C99.9300065 118.38042059 92.99180591 109.9795573 86.62646484 103.5012207 C85.70696548 102.5774765 84.78746613 101.6537323 83.84010315 100.70199585 C81.42174747 98.27230661 79.01254715 95.83374119 76.60528564 93.39306641 C74.13680247 90.89363143 71.6595677 88.40290196 69.18310547 85.91137695 C64.3445371 81.04084787 59.5156066 76.16086402 54.69287109 71.2746582 C51.84645772 72.34147317 49.76023057 73.22004241 47.38037109 75.1496582 C44.05089478 77.78226738 40.54955748 79.5362276 36.69287109 81.2746582 C35.58492187 81.81799805 35.58492187 81.81799805 34.45458984 82.37231445 C25.63220667 85.25487529 13.02497614 84.24758246 4.69287109 80.2746582 C0.86898384 78.15681296 -2.87105801 75.98562669 -6.30712891 73.2746582 C-6.30712891 72.6146582 -6.30712891 71.9546582 -6.30712891 71.2746582 C-9.89944161 74.7643334 -13.3258084 78.24110693 -16.30712891 82.2746582 C-14.9794632 86.25765533 -12.49857337 87.30768494 -9.05712891 89.3371582 C-8.48349609 89.68842773 -7.90986328 90.03969727 -7.31884766 90.40161133 C-4.01737757 92.39076586 -0.91750405 93.83050815 2.69287109 95.2746582 C2.69287109 107.4846582 2.69287109 119.6946582 2.69287109 132.2746582 C-14.0047497 132.2746582 -26.91813035 125.8382286 -40.30712891 116.2746582 C-46.24712891 115.9446582 -52.18712891 115.6146582 -58.30712891 115.2746582 C-58.30712891 82.2746582 -58.30712891 49.2746582 -58.30712891 15.2746582 C-52.36712891 14.9446582 -46.42712891 14.6146582 -40.30712891 14.2746582 C-35.47892893 12.45839904 -31.44551838 10.76107714 -26.99462891 8.3371582 C-24.87382081 7.24415584 -22.75273771 6.15168688 -20.63134766 5.05981445 C-19.72473389 4.57391846 -18.81812012 4.08802246 -17.8840332 3.58740234 C-17.03365479 3.15419678 -16.18327637 2.72099121 -15.30712891 2.2746582 C-14.64156479 1.92324768 -13.97600067 1.57183716 -13.29026794 1.20977783 C-8.8707692 -0.17559508 -4.60558098 -0.01170705 0 0 Z " fill="#01BA19" transform="translate(161.30712890625,40.725341796875)"/>
<path d="M0 0 C64.68 0 129.36 0 196 0 C196.84082912 4.20414562 197.12351772 7.55048806 197.12025452 11.78938293 C197.12111053 12.45766617 197.12196655 13.1259494 197.12284851 13.81448364 C197.12449921 16.05318904 197.11898739 18.29181906 197.11352539 20.53051758 C197.11321897 22.16313264 197.1133527 23.79574784 197.11389065 25.42836285 C197.11411627 29.7976486 197.1083233 34.16690693 197.10128021 38.53618622 C197.09558237 42.63720282 197.09531693 46.73821277 197.09460449 50.8392334 C197.08935861 62.83032589 197.07539745 74.82141329 197.0625 86.8125 C197.041875 113.604375 197.02125 140.39625 197 168 C100.64 168 4.28 168 -95 168 C-95 124.44 -95 80.88 -95 36 C-90.05 35.67 -85.1 35.34 -80 35 C-72.96105864 33.44402349 -67.33671536 31.34117719 -61 28 C-60.34 28 -59.68 28 -59 28 C-57.76875576 29.43090547 -56.54396003 30.86852221 -55.37109375 32.34765625 C-53.85424259 34.24052111 -53.85424259 34.24052111 -51.25 36.625 C-48.98754361 39.01314841 -48.59816752 39.9181369 -48 43 C-58.92724557 52.23251073 -63.54097034 53 -79 53 C-79 73.46 -79 93.92 -79 115 C-74.38 115 -69.76 115 -65 115 C-61.42347082 116.19217639 -59.08087015 117.09307844 -56 119 C-55.30261719 119.4125 -54.60523438 119.825 -53.88671875 120.25 C-47.4392081 124.52405603 -43.43320348 130.70038957 -41 138 C-41 142.95 -41 147.9 -41 153 C19.72 153 80.44 153 143 153 C143 148.71 143 144.42 143 140 C145.6573033 130.11483173 149.69630896 123.25313825 158.6875 118.0625 C166.35265584 114.04612172 171.50581904 115 181 115 C181 94.54 181 74.08 181 53 C176.05 53 171.1 53 166 53 C157.08371566 50.45249019 150.4612468 44.42766208 145.48046875 36.6171875 C143.14719023 31.62083844 142.84342612 27.15582669 142.9140625 21.671875 C142.92646973 20.41987305 142.93887695 19.16787109 142.95166016 17.87792969 C142.9676123 16.92821289 142.98356445 15.97849609 143 15 C142.34162108 15.00645255 141.68324217 15.0129051 141.00491238 15.01955318 C124.97142573 15.17426805 108.93819936 15.29003942 92.90415096 15.3626852 C85.15010172 15.3987518 77.39655129 15.44790628 69.64282227 15.52807617 C62.88316829 15.59793437 56.12387562 15.64302804 49.36387068 15.65861946 C45.78558683 15.66773121 42.20833641 15.68908153 38.63038445 15.7401104 C34.63195199 15.79667151 30.63530597 15.7979238 26.63647461 15.79467773 C25.45539627 15.81984467 24.27431793 15.8450116 23.05744934 15.87094116 C17.47617397 15.82189616 13.96213137 15.66360853 9.88600159 11.62220764 C8.90440252 10.43068374 7.94068925 9.22407911 7 8 C6.071875 7.0925 5.14375 6.185 4.1875 5.25 C2 3 2 3 0 0 Z " fill="#02BB1A" transform="translate(274,103)"/>
<path d="M0 0 C33.66 0 67.32 0 102 0 C102.99 2.64 103.98 5.28 105 8 C105.94287036 10.07934343 106.91969509 12.14379093 107.9375 14.1875 C108.42089844 15.17105469 108.90429688 16.15460938 109.40234375 17.16796875 C116.10389426 29.04724533 127.41101535 34.22330461 140 38 C140 48.56 140 59.12 140 70 C135.38 71.65 130.76 73.3 126 75 C123.04263865 76.98507817 120.61784234 78.71012001 118 81 C117.18015625 81.6084375 116.3603125 82.216875 115.515625 82.84375 C112.8031428 85.16873475 111.18408532 87.4051112 109.3125 90.4375 C108.44044922 91.82775391 108.44044922 91.82775391 107.55078125 93.24609375 C104.82652185 98.08388436 103.54658663 102.58694681 102 108 C51.18 108 0.36 108 -52 108 C-56 98 -56 98 -57.3125 94.4375 C-64.39314605 80.01396175 -74.94655099 75.37623179 -90 70 C-90 59.44 -90 48.88 -90 38 C-86.04 36.68 -82.08 35.36 -78 34 C-74.64255271 32.37614372 -74.64255271 32.37614372 -72 30.5625 C-71.13375 30.00691406 -70.2675 29.45132813 -69.375 28.87890625 C-66.79482548 26.83768266 -64.9535125 24.63633747 -63 22 C-59.98807714 23.31651212 -58.29696383 24.58326368 -56.3125 27.1875 C-50.05018814 34.74328686 -42.63751199 40.36407071 -32.73828125 41.3125 C-25.75920606 41.55393828 -20.29585526 40.92807784 -13.98828125 37.875 C-12 37 -12 37 -9 37 C-9.495 38.134375 -9.99 39.26875 -10.5 40.4375 C-13.5892976 49.77929945 -13.66448008 61.81429264 -9.3203125 70.73046875 C-8.88460937 71.47941406 -8.44890625 72.22835937 -8 73 C-7.50242187 73.86238281 -7.00484375 74.72476563 -6.4921875 75.61328125 C-1.46330912 83.5074508 5.23944908 88.87946672 14.29296875 91.52734375 C26.44592847 93.6492891 38.0571212 92.39137249 48.3125 85.1875 C56.03909787 78.83276747 61.89991368 71.1832354 63.27490234 60.95507812 C64.29989603 48.26468014 61.85755754 38.19965326 53.54296875 28.2578125 C48.41418305 22.66058969 40.84416436 17.53707937 33.07397461 16.82299805 C18.79296657 16.42001513 9.26063122 17.56371686 -2 27 C-1.505 25.783125 -1.01 24.56625 -0.5 23.3125 C2.06318656 15.68339283 1.55879696 7.79398481 0 0 Z " fill="#02BB1A" transform="translate(300,133)"/>
<path d="M0 0 C15.18 0 30.36 0 46 0 C46 45.54 46 91.08 46 138 C31.15 138 16.3 138 1 138 C0.22780383 134.13901916 -0.12389502 131.2048284 -0.12025452 127.34953308 C-0.12162918 126.22357727 -0.12300385 125.09762146 -0.12442017 123.93754578 C-0.12082489 122.71187393 -0.11722961 121.48620209 -0.11352539 120.22338867 C-0.11367142 118.92543365 -0.11381744 117.62747864 -0.1139679 116.29019165 C-0.11425441 112.73893419 -0.10838115 109.18771062 -0.10139394 105.63646102 C-0.09513623 101.92221865 -0.09455469 98.20797547 -0.09336853 94.49372864 C-0.09026235 87.46381816 -0.08205856 80.43392327 -0.07201904 73.40401965 C-0.06083578 65.3992214 -0.05534187 57.3944224 -0.05032361 49.38961828 C-0.03987535 32.92640163 -0.02153872 16.46320644 0 0 Z " fill="#01BB19" transform="translate(41,41)"/>
<path d="M0 0 C15.18 0 30.36 0 46 0 C46 40.59 46 81.18 46 123 C30.82 123 15.64 123 0 123 C0 82.41 0 41.82 0 0 Z " fill="#01BB19" transform="translate(425,348)"/>
<path d="M0 0 C4.9289877 4.54549667 7.37318105 10.90941549 7.6875 17.5625 C6.83052382 25.15286045 4.24305746 31.46426954 -1.75 36.4375 C-7.64275857 39.83485571 -13.97760088 41.76203384 -20.75 40.4375 C-28.93536109 37.55791938 -33.36246962 33.71858896 -37.5625 26.1875 C-39.69930392 19.43969814 -39.68234775 13.78411702 -36.8125 7.25 C-33.92024576 2.02581428 -29.95134506 -1.65010302 -24.75 -4.5625 C-15.59299819 -6.96779541 -7.55106286 -5.68342258 0 0 Z " fill="#02BB1A" transform="translate(340.75,169.5625)"/>
<path d="M0 0 C0.66 0.33 1.32 0.66 2 1 C-1.96 4.96 -5.92 8.92 -10 13 C-10 8.97698923 -8.67577112 7.95743123 -6 5 C-4.05056443 3.25501743 -2.04941287 1.63021478 0 0 Z " fill="#DDFFDA" transform="translate(421,210)"/>
<path d="M0 0 C0.66 0.33 1.32 0.66 2 1 C-1.3 4.3 -4.6 7.6 -8 11 C-8 8 -8 8 -5.6875 5.5 C-4.800625 4.675 -3.91375 3.85 -3 3 C-2.401875 2.401875 -1.80375 1.80375 -1.1875 1.1875 C-0.795625 0.795625 -0.40375 0.40375 0 0 Z " fill="#DAFFD7" transform="translate(225,370)"/>
</svg>
