<?xml version="1.0" encoding="UTF-8"?>
<svg version="1.1" xmlns="http://www.w3.org/2000/svg" width="512" height="512">
<path d="M0 0 C1.44278607 -0.00302782 2.88557053 -0.00692044 4.32835221 -0.01159257 C8.25673924 -0.02180021 12.18503427 -0.01970938 16.11342859 -0.01541197 C20.36442687 -0.01293147 24.61540375 -0.0219753 28.86639404 -0.02944946 C37.18091096 -0.04216222 45.49539552 -0.04399441 53.80992052 -0.0416492 C60.57291219 -0.03986191 67.33589408 -0.04162448 74.09888458 -0.04587364 C75.06359136 -0.04646883 76.02829813 -0.04706402 77.02223845 -0.04767724 C78.98243108 -0.04888907 80.9426237 -0.05010321 82.90281633 -0.05131962 C101.26282153 -0.06218214 119.62280835 -0.06003888 137.98281458 -0.05393478 C154.75116286 -0.04876774 171.51945301 -0.06001775 188.28778979 -0.07903299 C205.5356682 -0.09844097 222.78351915 -0.10666215 240.03140855 -0.10290974 C249.70265762 -0.10100206 259.37385723 -0.10344282 269.04509735 -0.11762428 C277.2791938 -0.1295769 285.51321036 -0.13089971 293.74730799 -0.11883412 C297.94185824 -0.11297234 302.13626264 -0.11177045 306.33080292 -0.12383652 C336.10731633 -0.20353947 367.42548245 1.19422066 390.18927002 23.06538391 C391.56783076 24.44370928 392.91648052 25.851753 394.26373291 27.26069641 C395.00236572 28.02897766 395.74099854 28.79725891 396.50201416 29.58882141 C412.24424843 47.56247918 416.59089367 72.91723922 416.52442932 95.9969635 C416.52745715 97.43974957 416.53134976 98.88253403 416.53602189 100.32531571 C416.54622954 104.25370274 416.54413871 108.18199777 416.53984129 112.11039209 C416.53736079 116.36139037 416.54640462 120.61236725 416.55387878 124.86335754 C416.56659154 133.17787446 416.56842373 141.49235902 416.56607852 149.80688402 C416.56429123 156.56987569 416.5660538 163.33285758 416.57030296 170.09584808 C416.57089815 171.06055486 416.57149334 172.02526163 416.57210657 173.01920195 C416.57331839 174.97939458 416.57453253 176.9395872 416.57574894 178.89977983 C416.58661146 197.25978503 416.5844682 215.61977185 416.5783641 233.97977808 C416.57319706 250.74812636 416.58444707 267.51641651 416.60346232 284.28475329 C416.6228703 301.5326317 416.63109147 318.78048266 416.62733907 336.02837205 C416.62543139 345.69962112 416.62787214 355.37082073 416.6420536 365.04206085 C416.65400622 373.2761573 416.65532904 381.51017386 416.64326344 389.74427149 C416.63740166 393.93882174 416.63619977 398.13322615 416.64826584 402.32776642 C416.72796879 432.10427983 415.33020866 463.42244595 393.45904541 486.18623352 C392.08072004 487.56479426 390.67267632 488.91344402 389.26373291 490.26069641 C388.49545166 490.99932922 387.72717041 491.73796204 386.93560791 492.49897766 C368.96195015 508.24121193 343.6071901 512.58785717 320.52746582 512.52139282 C319.08467975 512.52442065 317.64189529 512.52831326 316.19911361 512.53298539 C312.27072658 512.54319304 308.34243155 512.54110221 304.41403723 512.5368048 C300.16303895 512.53432429 295.91206207 512.54336813 291.66107178 512.55084229 C283.34655486 512.56355504 275.0320703 512.56538723 266.7175453 512.56304202 C259.95455363 512.56125473 253.19157174 512.5630173 246.42858124 512.56726646 C245.46387446 512.56786165 244.49916769 512.56845684 243.50522737 512.56907007 C241.54503474 512.5702819 239.58484212 512.57149603 237.62464949 512.57271244 C219.26464429 512.58357496 200.90465747 512.5814317 182.54465124 512.5753276 C165.77630296 512.57016056 149.00801281 512.58141057 132.23967603 512.60042582 C114.99179762 512.6198338 97.74394667 512.62805497 80.49605727 512.62430257 C70.8248082 512.62239489 61.15360859 512.62483564 51.48236847 512.63901711 C43.24827202 512.65096973 35.01425546 512.65229254 26.78015783 512.64022694 C22.58560758 512.63436516 18.39120318 512.63316327 14.1966629 512.64522934 C-15.57985051 512.7249323 -46.89801663 511.32717216 -69.6618042 489.45600891 C-71.04036494 488.07768354 -72.3890147 486.66963982 -73.73626709 485.26069641 C-74.4748999 484.49241516 -75.21353271 483.72413391 -75.97454834 482.93257141 C-91.71678261 464.95891365 -96.06342785 439.6041536 -95.9969635 416.52442932 C-95.99999132 415.08164325 -96.00388394 413.63885879 -96.00855607 412.19607711 C-96.01876372 408.26769008 -96.01667289 404.33939505 -96.01237547 400.41100073 C-96.00989497 396.16000245 -96.0189388 391.90902557 -96.02641296 387.65803528 C-96.03912572 379.34351836 -96.04095791 371.0290338 -96.0386127 362.7145088 C-96.03682541 355.95151713 -96.03858798 349.18853524 -96.04283714 342.42554474 C-96.04343233 341.46083796 -96.04402752 340.49613119 -96.04464075 339.50219087 C-96.04585257 337.54199825 -96.04706671 335.58180562 -96.04828312 333.621613 C-96.05914564 315.26160779 -96.05700238 296.90162098 -96.05089828 278.54161474 C-96.04573124 261.77326646 -96.05698125 245.00497631 -96.0759965 228.23663953 C-96.09540448 210.98876112 -96.10362565 193.74091017 -96.09987324 176.49302077 C-96.09796557 166.82177171 -96.10040632 157.15057209 -96.11458778 147.47933197 C-96.1265404 139.24523552 -96.12786322 131.01121896 -96.11579762 122.77712134 C-96.10993584 118.58257108 -96.10873395 114.38816668 -96.12080002 110.1936264 C-96.20050297 80.41711299 -94.80274284 49.09894687 -72.93157959 26.3351593 C-71.55325422 24.95659856 -70.1452105 23.6079488 -68.73626709 22.26069641 C-67.58384521 21.15274719 -67.58384521 21.15274719 -66.40814209 20.02241516 C-48.43448432 4.28018089 -23.07972428 -0.06646435 0 0 Z " fill="#00BA18" transform="translate(95.73626708984375,-0.2606964111328125)"/>
<path d="M0 0 C0.95302671 -0.00367669 1.90605341 -0.00735338 2.88795972 -0.01114148 C6.10152033 -0.02220994 9.31504864 -0.0260275 12.52862549 -0.02983093 C14.82457584 -0.03609317 17.12052518 -0.04273976 19.41647339 -0.04974365 C25.66862101 -0.06717519 31.92076098 -0.07771119 38.1729269 -0.08594918 C42.07629722 -0.09109454 45.97966513 -0.09717047 49.88303375 -0.10346031 C60.68840139 -0.12033291 71.49376607 -0.13496796 82.29914474 -0.14220905 C85.10382844 -0.14411898 87.90851213 -0.14603931 90.7131958 -0.147995 C91.41029479 -0.14847874 92.10739378 -0.14896248 92.82561699 -0.14946087 C104.11850889 -0.15776141 115.41129487 -0.18309815 126.70414051 -0.21557567 C138.29590407 -0.24864129 149.88760831 -0.26632455 161.47941899 -0.26985329 C167.98875832 -0.27220759 174.49793029 -0.28121742 181.00722504 -0.30631447 C187.1303398 -0.3295406 193.25317636 -0.33385029 199.3763237 -0.32355309 C201.62494454 -0.32305629 203.87357883 -0.32941871 206.12215805 -0.34310913 C209.19001025 -0.36074395 212.25685495 -0.35376288 215.32470703 -0.34057617 C216.21634764 -0.35154542 217.10798826 -0.36251466 218.02664828 -0.37381631 C223.48369828 -0.31711396 226.58599682 0.51696112 230.9163208 4.14717102 C234.97809011 8.75782808 236.04034344 11.0944137 236.06349182 17.19374084 C236.07422478 19.12852798 236.07422478 19.12852798 236.08517456 21.10240173 C236.08801497 22.54017615 236.09072669 23.97795083 236.09332275 25.41572571 C236.09958633 26.92350929 236.10623304 28.43129132 236.11323547 29.93907166 C236.13065592 34.04252563 236.14120026 38.14596793 236.149441 42.24944973 C236.15458939 44.81274303 236.16066522 47.37603269 236.16695213 49.93932343 C236.1860079 57.95797642 236.20023771 65.97662018 236.2085641 73.99529147 C236.21833625 83.25372229 236.24465348 92.51191401 236.285065 101.77026057 C236.31522125 108.92447766 236.33003254 116.07862621 236.33334512 123.23290563 C236.33569634 127.50662793 236.34466586 131.78009492 236.36980629 136.05374908 C236.39308334 140.07572038 236.39732191 144.09726821 236.38704491 148.1192894 C236.38654933 149.59388767 236.39287641 151.06850675 236.40660095 152.54304123 C236.42431636 154.55950539 236.41482958 156.57615337 236.40406799 158.59266663 C236.40645635 159.72018719 236.4088447 160.84770775 236.41130543 162.0093956 C235.61597439 167.05110813 233.05357755 170.14530198 229.2913208 173.45967102 C226.17348939 175.67497228 224.60037141 176.2720892 220.84146118 176.26742554 C219.56259285 176.26948753 219.56259285 176.26948753 218.25788879 176.27159119 C217.32065475 176.26799591 216.38342072 176.26440063 215.41778564 176.26069641 C214.43238297 176.26084244 213.44698029 176.26098846 212.43171692 176.26113892 C209.16354191 176.26044035 205.89542339 176.25265057 202.6272583 176.24482727 C200.36567211 176.24296289 198.10408552 176.24153908 195.84249878 176.24053955 C189.88139741 176.23671595 183.92032029 176.22688698 177.95922852 176.21583557 C171.87982511 176.20561809 165.80041781 176.20104121 159.7210083 176.19599915 C147.7861018 176.18526459 135.85121331 176.16819004 123.9163208 176.14717102 C123.9163208 181.42717102 123.9163208 186.70717102 123.9163208 192.14717102 C166.1563208 192.14717102 208.3963208 192.14717102 251.9163208 192.14717102 C251.9163208 179.93717102 251.9163208 167.72717102 251.9163208 155.14717102 C255.28154975 150.0993276 257.57566602 146.81749841 262.9163208 144.14717102 C264.51079544 144.06316573 266.10872625 144.03989635 267.7053833 144.04951477 C268.64639893 144.05273743 269.58741455 144.05596008 270.5569458 144.0592804 C271.54178955 144.0676593 272.5266333 144.07603821 273.5413208 144.08467102 C274.53389893 144.08918274 275.52647705 144.09369446 276.5491333 144.0983429 C279.0049224 144.11014957 281.46059184 144.12661702 283.9163208 144.14717102 C283.90743835 143.29605743 283.89855591 142.44494385 283.8894043 141.56803894 C283.80915311 133.53494911 283.748303 125.50199453 283.70907211 117.4685955 C283.68822475 113.33881867 283.6599599 109.20937393 283.61456299 105.07978821 C283.57100247 101.09215673 283.54716225 97.10484406 283.53681183 93.11699295 C283.52943867 91.59796762 283.51504038 90.07895912 283.49340057 88.56007004 C283.46422905 86.42710341 283.46037026 84.29544275 283.46221924 82.16230774 C283.45333679 80.94985382 283.44445435 79.7373999 283.43530273 78.48820496 C284.18219302 73.30048755 286.67679208 70.2391368 290.5413208 66.83467102 C294.54570487 63.98945076 296.91498083 64.00770127 301.84112549 63.97016907 C302.55354401 63.96359787 303.26596252 63.95702667 303.99996948 63.95025635 C306.36271263 63.93051206 308.72539213 63.91885718 311.0881958 63.90888977 C311.89528236 63.90481424 312.70236893 63.90073872 313.53391266 63.89653969 C317.80721278 63.87567231 322.08048074 63.86137454 326.3538208 63.852005 C330.76342578 63.84095006 335.17252481 63.80656305 339.58195114 63.76683331 C342.97579878 63.74065767 346.36952618 63.73231226 349.76346588 63.72872353 C351.38853617 63.72385855 353.01360113 63.71224702 354.63857269 63.69368553 C356.91743222 63.66927687 359.19498713 63.67026173 361.47393799 63.67720032 C362.76918396 63.67133408 364.06442993 63.66546783 365.39892578 63.65942383 C370.70653338 64.39541472 373.74600893 66.8187089 377.2288208 70.77217102 C380.01426759 74.69242947 380.03859969 76.89377958 380.02984619 81.70820618 C380.02999222 82.3814946 380.03013824 83.05478302 380.0302887 83.74847412 C380.02959107 85.97775983 380.02180569 88.20696237 380.01397705 90.43623352 C380.01211234 91.98037165 380.01068869 93.52451036 380.00968933 95.06864929 C380.00586834 99.13587574 379.99604162 103.20306657 379.98498535 107.27027893 C379.97476224 111.41934222 379.97018978 115.56841127 379.96514893 119.71748352 C379.95441899 127.86072905 379.93734757 136.0039456 379.9163208 144.14717102 C380.52105225 144.12622375 381.12578369 144.10527649 381.74884033 144.08369446 C384.51282852 144.00008157 387.27654993 143.94837048 390.0413208 143.89717102 C390.99264893 143.8636554 391.94397705 143.83013977 392.9241333 143.79560852 C398.80447432 143.71393712 402.29551948 144.1195312 406.9163208 148.14717102 C411.55181083 153.40907862 412.05830662 156.57366979 412.01397705 163.43623352 C412.01185463 164.66386917 412.01185463 164.66386917 412.00968933 165.91630554 C412.0040837 168.53496427 411.99153028 171.15353806 411.9788208 173.77217102 C411.97380652 175.54560729 411.96924349 177.31904489 411.96514893 179.09248352 C411.95411244 183.44407884 411.93684405 187.79561052 411.9163208 192.14717102 C413.02708984 192.28598694 414.13785889 192.42480286 415.2822876 192.56782532 C418.86705258 193.13931657 420.14355936 193.56815283 422.7288208 195.95967102 C423.29214111 196.46111633 423.85546143 196.96256165 424.43585205 197.47920227 C428.01727299 201.51420687 428.17532659 204.97504843 428.20684814 210.29902649 C428.21356537 211.01173706 428.22028259 211.72444763 428.22720337 212.45875549 C428.24617342 214.81069444 428.25010704 217.16234787 428.2522583 219.51435852 C428.25868701 221.15336727 428.26541543 222.79237488 428.27243042 224.43138123 C428.28440074 227.86613118 428.28811151 231.30078058 428.28692627 234.73554993 C428.28672311 239.12944195 428.31402256 243.52268696 428.34847069 247.9164257 C428.37074609 251.30171144 428.37476362 254.68684163 428.37370682 258.07219315 C428.37606192 259.69166925 428.38488038 261.31114971 428.40037155 262.93055344 C428.42004518 265.1996674 428.41418946 267.46738842 428.40216064 269.73652649 C428.40501068 271.02574005 428.40786072 272.31495361 428.41079712 273.64323425 C427.66355682 278.93829621 425.2373917 281.98337047 421.2913208 285.45967102 C417.28532466 288.3060367 414.96257004 288.27455907 410.03398514 288.2813921 C409.31422784 288.28374433 408.59447054 288.28609656 407.85290241 288.28852007 C405.41644645 288.29523107 402.98004355 288.29475122 400.5435791 288.29434204 C398.78896336 288.29763936 397.03434838 288.30136464 395.27973437 288.30548352 C390.43876517 288.31552665 385.59780836 288.31922402 380.75683022 288.32187283 C375.54333593 288.32576903 370.32985152 288.33534781 365.11636353 288.34408569 C352.51639341 288.36386925 339.91642247 288.3739186 327.3164407 288.38281348 C321.38784744 288.38719319 315.45925508 288.39256081 309.53066254 288.39780235 C289.83125112 288.41481634 270.13184027 288.4293116 250.43242264 288.43655109 C245.31768035 288.43846109 240.20293807 288.44038141 235.0881958 288.44233704 C233.18125026 288.44306265 233.18125026 288.44306265 231.23578057 288.44380292 C210.63111352 288.45210724 190.02650446 288.47745021 169.42186275 288.50991771 C148.28375732 288.54295519 127.14568139 288.56099685 106.00755 288.56419533 C94.1326747 288.56636348 82.25788395 288.57515657 70.38303375 288.60065651 C60.27198487 288.62231828 50.16104107 288.63043626 40.04997161 288.62068973 C34.88875312 288.61613191 29.72775165 288.61811703 24.56656265 288.63745117 C19.8439248 288.65499011 15.12166377 288.65416092 10.39902243 288.63855388 C8.68834966 288.63616365 6.97765143 288.64057411 5.26701775 288.65238253 C2.94489117 288.66742221 0.62411352 288.65788536 -1.69797897 288.64215565 C-2.98870339 288.64313246 -4.27942781 288.64410926 -5.60926509 288.64511567 C-10.88378531 287.88918415 -13.93245134 285.45397021 -17.3961792 281.52217102 C-20.24139946 277.51778695 -20.22314895 275.14851099 -20.26068115 270.22236633 C-20.26725235 269.50994781 -20.27382355 268.7975293 -20.28059387 268.06352234 C-20.30033816 265.70077919 -20.31199304 263.33809969 -20.32196045 260.97529602 C-20.32603598 260.16820946 -20.3301115 259.36112289 -20.33431053 258.52957916 C-20.35517791 254.25627904 -20.36947568 249.98301109 -20.37884521 245.70967102 C-20.38990016 241.30006604 -20.42428717 236.89096701 -20.46401691 232.48154068 C-20.49019255 229.08769304 -20.49853796 225.69396564 -20.50212669 222.30002594 C-20.50699167 220.67495565 -20.5186032 219.04989069 -20.53716469 217.42491913 C-20.56157335 215.1460596 -20.56058849 212.86850469 -20.5536499 210.58955383 C-20.55951614 209.29430786 -20.56538239 207.99906189 -20.57142639 206.66456604 C-19.8354355 201.35695845 -17.41214132 198.31748289 -13.4586792 194.83467102 C-10.34084779 192.61936976 -8.76772981 192.02225284 -5.00881958 192.0269165 C-4.15624069 192.02554184 -3.3036618 192.02416718 -2.42524719 192.02275085 C-1.48801315 192.02634613 -0.55077911 192.02994141 0.41485596 192.03364563 C1.40025864 192.0334996 2.38566132 192.03335358 3.40092468 192.03320312 C6.66909969 192.03390169 9.93721821 192.04169147 13.2053833 192.04951477 C15.46696949 192.05137915 17.72855608 192.05280296 19.99014282 192.05380249 C25.95124419 192.05762609 31.91232132 192.06745506 37.87341309 192.07850647 C43.95281649 192.08872395 50.03222379 192.09330084 56.1116333 192.0983429 C68.04653981 192.10907745 79.98142829 192.126152 91.9163208 192.14717102 C91.9163208 186.86717102 91.9163208 181.58717102 91.9163208 176.14717102 C90.66430878 176.15605347 89.41229675 176.16493591 88.12234497 176.17408752 C76.32191614 176.25518285 64.52154387 176.31514116 52.72089958 176.35441971 C46.65408588 176.37529211 40.58749719 176.40360403 34.52081299 176.44892883 C28.66584182 176.49239804 22.81108704 176.51631074 16.95596695 176.52667999 C14.72243976 176.53406935 12.48892439 176.54849901 10.25548935 176.57009125 C7.12638528 176.59913877 3.99817478 176.60312636 0.86895752 176.60127258 C-0.05389542 176.61565369 -0.97674835 176.63003479 -1.92756653 176.64485168 C-7.49021455 176.60920561 -10.6801997 175.87540096 -15.0836792 172.14717102 C-19.14544851 167.53651396 -20.20770184 165.19992834 -20.23085022 159.1006012 C-20.24158318 157.16581406 -20.24158318 157.16581406 -20.25253296 155.19194031 C-20.25537337 153.75416589 -20.25808508 152.31639121 -20.26068115 150.87861633 C-20.26694473 149.37083275 -20.27359144 147.86305072 -20.28059387 146.35527039 C-20.29801432 142.25181642 -20.30855866 138.14837411 -20.3167994 134.04489231 C-20.32194779 131.48159902 -20.32802362 128.91830935 -20.33431053 126.35501862 C-20.3533663 118.33636562 -20.36759611 110.31772186 -20.3759225 102.29905057 C-20.38569465 93.04061975 -20.41201188 83.78242803 -20.45242339 74.52408147 C-20.48257965 67.36986438 -20.49739094 60.21571583 -20.50070351 53.06143641 C-20.50305474 48.78771411 -20.51202426 44.51424712 -20.53716469 40.24059296 C-20.56044173 36.21862166 -20.5646803 32.19707383 -20.55440331 28.17505264 C-20.55390772 26.70045437 -20.56023481 25.22583529 -20.57395935 23.75130081 C-20.59167476 21.73483665 -20.58218798 19.71818868 -20.57142639 17.70167542 C-20.57381474 16.57415485 -20.5762031 15.44663429 -20.57866383 14.28494644 C-19.78333278 9.24323391 -17.22093595 6.14904006 -13.4586792 2.83467102 C-9.02620493 -0.31471859 -5.28592747 -0.00108213 0 0 Z " fill="#FEFFFE" transform="translate(52.08367919921875,191.8528289794922)"/>
<path d="M0 0 C63.36 0 126.72 0 192 0 C192 36.96 192 73.92 192 112 C128.64 112 65.28 112 0 112 C0 75.04 0 38.08 0 0 Z " fill="#00BA19" transform="translate(64,224)"/>
<path d="M0 0 C126.72 0 253.44 0 384 0 C384 10.56 384 21.12 384 32 C257.28 32 130.56 32 0 32 C0 21.44 0 10.88 0 0 Z " fill="#00BA19" transform="translate(64,416)"/>
<path d="M0 0 C4.98669007 2.49334503 8.49675474 5.99350949 11 11 C11.13415472 13.6723621 11.04318541 16.32250488 11 19 C11.804375 19.20625 12.60875 19.4125 13.4375 19.625 C26.97964332 24.85179216 34.44029288 34.72640025 40.43359375 47.390625 C43.5125704 54.48532432 43.64347811 61.31401142 43 69 C40.64941816 74.04939802 37.00068156 77.49965922 32 80 C27.04517906 80.54360446 23.12874148 80.56437074 18.625 78.3125 C12.85572529 73.23004371 11.38931486 69.33610184 10 62 C8.5908345 56.36333801 6.14644755 52.98084706 1.17578125 49.8515625 C-3.08041236 48.1857632 -7.61799192 49.08979061 -12 50 C-15.87880337 52.37477757 -18.48092784 54.87214788 -19.58984375 59.41796875 C-20.3688378 65.6236629 -20.0653042 69.28702552 -16.421875 74.44140625 C-12.75561325 78.46019316 -8.58003247 78.66067709 -3.5 79.375 C11.73860307 81.74376545 23.86758917 86.98646649 34 99 C42.42465337 110.62678406 44.6742104 122.88609041 43 137 C39.68669451 150.53641045 31.64997232 162.05697379 19.8125 169.375 C16.88729731 171.09787529 14.3372784 172.34021622 11 173 C11.0825 174.19625 11.165 175.3925 11.25 176.625 C11.24203716 181.13196864 9.93235061 183.51288035 7 187 C2.00661882 191.39893104 -0.91015227 192.35676337 -7.4609375 192.28125 C-12.43602713 191.73016315 -15.12519403 188.99302299 -18.3125 185.375 C-21.42235106 180.99817258 -21.08525354 178.28571974 -21 173 C-21.804375 172.79375 -22.60875 172.5875 -23.4375 172.375 C-36.97964332 167.14820784 -44.44029288 157.27359975 -50.43359375 144.609375 C-53.5125704 137.51467568 -53.64347811 130.68598858 -53 123 C-50.64941816 117.95060198 -47.00068156 114.50034078 -42 112 C-37.04517906 111.45639554 -33.12874148 111.43562926 -28.625 113.6875 C-21.20748731 120.22197547 -21.20748731 120.22197547 -20.859375 124.8828125 C-20.80523437 125.99269531 -20.80523437 125.99269531 -20.75 127.125 C-20.10594864 133.36424754 -17.40665748 137.86074891 -12.75 142 C-7.95921454 143.7421038 -3.53048041 144.02622603 1.25390625 142.0859375 C5.75062229 139.51875155 8.43547411 137.08470914 10 132 C10.78346639 127.13004413 10.62384637 123.31920753 7.875 119.125 C4.50499907 115.10334144 1.40774537 113.23819941 -3.921875 112.7109375 C-6.17953256 112.56784653 -8.43735287 112.42730493 -10.6953125 112.2890625 C-23.09997126 111.20402143 -33.4498651 104.55433827 -41.92578125 95.65234375 C-51.36055331 83.5879177 -54.26953949 70.09165074 -53 55 C-50.22501467 42.65446867 -42.80414367 31.39473184 -32.40625 24.20703125 C-28.67266314 21.89550174 -25.34135354 19.86627926 -21 19 C-21.0825 17.80375 -21.165 16.6075 -21.25 15.375 C-21.24203716 10.86803136 -19.93235061 8.48711965 -17 5 C-11.37343316 0.04326255 -7.41017624 -0.82081952 0 0 Z " fill="#FCFEFC" transform="translate(389,32)"/>
<path d="M0 0 C5.50120269 3.17212338 9.71484589 7.42444661 14.171875 11.90625 C14.93550354 12.66796509 15.69913208 13.42968018 16.48590088 14.21447754 C18.09185526 15.81907579 19.6953062 17.42618308 21.29638672 19.03564453 C23.74876297 21.49875756 26.21165968 23.95098711 28.67578125 26.40234375 C30.23762109 27.96550471 31.79884068 29.5292857 33.359375 31.09375 C34.09581238 31.82613892 34.83224976 32.55852783 35.59100342 33.31311035 C36.27221252 34.00062378 36.95342163 34.68813721 37.65527344 35.39648438 C38.25450623 35.99730835 38.85373901 36.59813232 39.47113037 37.21716309 C42.36778267 40.59499109 43.30619558 43.45775614 43.375 47.875 C43.40335938 48.69742188 43.43171875 49.51984375 43.4609375 50.3671875 C42.24231182 57.32781213 35.88362199 62.40848021 31.09375 67.171875 C30.33203491 67.93550354 29.57031982 68.69913208 28.78552246 69.48590088 C27.18092421 71.09185526 25.57381692 72.6953062 23.96435547 74.29638672 C21.50124244 76.74876297 19.04901289 79.21165968 16.59765625 81.67578125 C15.03449529 83.23762109 13.4707143 84.79884068 11.90625 86.359375 C11.17386108 87.09581238 10.44147217 87.83224976 9.68688965 88.59100342 C8.99937622 89.27221252 8.31186279 89.95342163 7.60351562 90.65527344 C7.00269165 91.25450623 6.40186768 91.85373901 5.78283691 92.47113037 C1.71936743 95.95575369 -1.63490209 96.32797736 -6.82421875 96.18359375 C-12.4811998 95.70625424 -15.27424785 93.12853616 -19 89 C-21.97733467 84.533998 -21.61525974 80.23721092 -21 75 C-18.92161229 70.91745272 -16.22506415 68.19118743 -13 65 C-13.55622606 64.99853344 -14.11245213 64.99706688 -14.68553352 64.99555588 C-28.23205136 64.95847245 -41.77831619 64.89918569 -55.32463264 64.81609726 C-61.87561166 64.7765853 -68.4264555 64.74441486 -74.97753906 64.72900391 C-81.29950424 64.71386214 -87.62109789 64.67945988 -93.9428978 64.63169098 C-96.35498704 64.61685172 -98.76712932 64.60895753 -101.17926407 64.60811615 C-104.55757528 64.60575251 -107.93485473 64.57871944 -111.31298828 64.54589844 C-112.31064713 64.5509288 -113.30830597 64.55595917 -114.3361969 64.56114197 C-120.06629591 64.47499265 -123.48429808 63.88363831 -128 60 C-132.39893104 55.00661882 -133.35676337 52.08984773 -133.28125 45.5390625 C-132.73016315 40.56397287 -129.99302299 37.87480597 -126.375 34.6875 C-123.154589 32.39931323 -121.51238457 31.87308815 -117.62142944 31.84178162 C-116.70153732 31.8319928 -115.7816452 31.82220398 -114.83387756 31.81211853 C-113.31581764 31.80348534 -113.31581764 31.80348534 -111.76708984 31.79467773 C-110.7036586 31.78477814 -109.64022736 31.77487854 -108.54457092 31.76467896 C-105.01671605 31.7329992 -101.48884768 31.70828093 -97.9609375 31.68359375 C-95.51998538 31.66302982 -93.07903686 31.6420335 -90.63809204 31.62062073 C-84.20356155 31.56534217 -77.76899862 31.51595842 -71.33441162 31.46777344 C-64.77239077 31.4176006 -58.21041721 31.36189255 -51.6484375 31.30664062 C-38.76566565 31.19898832 -25.88285345 31.09737125 -13 31 C-13.74056641 30.16855469 -13.74056641 30.16855469 -14.49609375 29.3203125 C-15.13675781 28.59585938 -15.77742188 27.87140625 -16.4375 27.125 C-17.07558594 26.40570313 -17.71367187 25.68640625 -18.37109375 24.9453125 C-21.58557354 21.10643736 -21.39233734 17.70227015 -21.34765625 12.83203125 C-20.68577669 7.44031577 -17.74359518 4.58974854 -13.875 1.0625 C-9.35190035 -0.60908031 -4.74451349 -0.83571874 0 0 Z " fill="#FDFFFD" transform="translate(245,32)"/>
<path d="M0 0 C3.98174566 1.99087283 6.72044197 4.16074436 9 8 C10.69726341 13.66551308 11.04264023 19.026431 8.25 24.3125 C6.26587044 26.68243253 4.19895527 28.83338231 2 31 C2.55622606 31.00146656 3.11245213 31.00293312 3.68553352 31.00444412 C17.23205136 31.04152755 30.77831619 31.10081431 44.32463264 31.18390274 C50.87561166 31.2234147 57.4264555 31.25558514 63.97753906 31.27099609 C70.29950424 31.28613786 76.62109789 31.32054012 82.9428978 31.36830902 C85.35498704 31.38314828 87.76712932 31.39104247 90.17926407 31.39188385 C93.55757528 31.39424749 96.93485473 31.42128056 100.31298828 31.45410156 C101.80947655 31.44655602 101.80947655 31.44655602 103.3361969 31.43885803 C109.06629591 31.52500735 112.48429808 32.11636169 117 36 C121.39893104 40.99338118 122.35676337 43.91015227 122.28125 50.4609375 C121.73016315 55.43602713 118.99302299 58.12519403 115.375 61.3125 C112.154589 63.60068677 110.51238457 64.12691185 106.62142944 64.15821838 C105.70153732 64.1680072 104.7816452 64.17779602 103.83387756 64.18788147 C102.82183762 64.19363693 101.80979767 64.1993924 100.76708984 64.20532227 C99.7036586 64.21522186 98.64022736 64.22512146 97.54457092 64.23532104 C94.01671605 64.2670008 90.48884768 64.29171907 86.9609375 64.31640625 C84.51998538 64.33697018 82.07903686 64.3579665 79.63809204 64.37937927 C73.20356155 64.43465783 66.76899862 64.48404158 60.33441162 64.53222656 C53.77239077 64.5823994 47.21041721 64.63810745 40.6484375 64.69335938 C27.76566565 64.80101168 14.88285345 64.90262875 2 65 C2.49371094 65.55429688 2.98742187 66.10859375 3.49609375 66.6796875 C4.13675781 67.40414062 4.77742188 68.12859375 5.4375 68.875 C6.07558594 69.59429687 6.71367188 70.31359375 7.37109375 71.0546875 C10.45833844 74.74161281 10.33513952 77.78602135 10.28125 82.4609375 C9.73016315 87.43602713 6.99302299 90.12519403 3.375 93.3125 C0.09248631 95.64481236 -1.75953277 96.19762291 -5.75 96.3125 C-6.59046875 96.34988281 -7.4309375 96.38726562 -8.296875 96.42578125 C-15.29626448 95.32327626 -20.40470559 88.8874176 -25.171875 84.09375 C-26.31731781 82.95117737 -26.31731781 82.95117737 -27.48590088 81.78552246 C-29.09185526 80.18092421 -30.6953062 78.57381692 -32.29638672 76.96435547 C-34.74876297 74.50124244 -37.21165968 72.04901289 -39.67578125 69.59765625 C-41.23762109 68.03449529 -42.79884068 66.4707143 -44.359375 64.90625 C-45.09581238 64.17386108 -45.83224976 63.44147217 -46.59100342 62.68688965 C-47.27221252 61.99937622 -47.95342163 61.31186279 -48.65527344 60.60351562 C-49.55412262 59.70227966 -49.55412262 59.70227966 -50.47113037 58.78283691 C-53.36778267 55.40500891 -54.30619558 52.54224386 -54.375 48.125 C-54.40335938 47.30257812 -54.43171875 46.48015625 -54.4609375 45.6328125 C-53.24231182 38.67218787 -46.88362199 33.59151979 -42.09375 28.828125 C-41.33203491 28.06449646 -40.57031982 27.30086792 -39.78552246 26.51409912 C-38.18092421 24.90814474 -36.57381692 23.3046938 -34.96435547 21.70361328 C-32.50124244 19.25123703 -30.04901289 16.78834032 -27.59765625 14.32421875 C-26.03449529 12.76237891 -24.4707143 11.20115932 -22.90625 9.640625 C-21.80766663 8.53596893 -21.80766663 8.53596893 -20.68688965 7.40899658 C-19.65561951 6.38718292 -19.65561951 6.38718292 -18.60351562 5.34472656 C-17.70227966 4.44587738 -17.70227966 4.44587738 -16.78283691 3.52886963 C-11.74339665 -0.79269624 -6.37877702 -0.75805756 0 0 Z " fill="#FDFFFD" transform="translate(86,80)"/>
<path d="M0 0 C31.68 0 63.36 0 96 0 C96 5.28 96 10.56 96 16 C64.32 16 32.64 16 0 16 C0 10.72 0 5.44 0 0 Z " fill="#00BA19" transform="translate(336,368)"/>
<path d="M0 0 C10.56 0 21.12 0 32 0 C32 15.84 32 31.68 32 48 C21.44 48 10.88 48 0 48 C0 32.16 0 16.32 0 0 Z " fill="#00BA19" transform="translate(368,288)"/>
</svg>
