<?xml version="1.0" encoding="UTF-8"?>
<svg version="1.1" xmlns="http://www.w3.org/2000/svg" width="512" height="512">
<path d="M0 0 C0.95777344 0.68449219 1.91554688 1.36898437 2.90234375 2.07421875 C21.54350478 15.71827485 38.24374069 31.41768112 52 50 C52.71671875 50.94488281 53.4334375 51.88976562 54.171875 52.86328125 C90.15190289 101.04583798 104.21777519 162.34717882 96.04296875 221.640625 C87.72943327 275.34358254 61.44587721 320.30469306 23 358 C20.35694683 355.67731156 19.20364033 353.53986518 17.93457031 350.27587891 C17.55697571 349.31702789 17.1793811 348.35817688 16.79034424 347.37026978 C16.39031189 346.33284637 15.99027954 345.29542297 15.578125 344.2265625 C15.15505066 343.15183685 14.73197632 342.07711121 14.29608154 340.96981812 C12.48835731 336.37719107 10.69869237 331.77759078 8.90820312 327.17822266 C-4.03499423 294.00771578 -20.74227764 266.55131707 -54.23852539 251.34130859 C-72.5039912 243.49805564 -91.14071752 241.67210698 -110.8125 241.734375 C-112.36173564 241.73302083 -113.91097086 241.73107413 -115.46020508 241.72857666 C-118.67696251 241.72566064 -121.89360742 241.72980749 -125.11035156 241.73925781 C-129.18088243 241.75065017 -133.25114929 241.74407149 -137.32167053 241.73211288 C-140.51177875 241.72479778 -143.70182698 241.7272258 -146.89193726 241.73236847 C-148.39065586 241.73367849 -149.88938038 241.73215331 -151.38809204 241.72740936 C-165.29493178 241.69302176 -179.51619563 242.31570127 -192.875 246.5 C-193.69597168 246.75281738 -194.51694336 247.00563477 -195.36279297 247.26611328 C-208.82285256 251.66034376 -221.48402817 258.48923136 -232 268 C-232.763125 268.63421875 -233.52625 269.2684375 -234.3125 269.921875 C-254.58157354 287.04102495 -263.56660134 312.44839862 -272.9375 336.4375 C-273.72417235 338.44092687 -274.51127892 340.44418329 -275.29882812 342.44726562 C-277.20421878 347.2962312 -279.10375883 352.14744953 -281 357 C-284.77972039 357 -285.22309545 356.16207451 -287.84375 353.5546875 C-288.96330078 352.44432129 -288.96330078 352.44432129 -290.10546875 351.31152344 C-290.89566406 350.5074707 -291.68585938 349.70341797 -292.5 348.875 C-293.71623047 347.64571777 -293.71623047 347.64571777 -294.95703125 346.39160156 C-301.05158645 340.14881356 -306.64217842 333.71376095 -311.78076172 326.66796875 C-313.01303898 324.98216213 -314.27206555 323.31905295 -315.53515625 321.65625 C-322.30179996 312.61972504 -327.79926913 303.00593691 -333 293 C-333.38542969 292.26716797 -333.77085937 291.53433594 -334.16796875 290.77929688 C-345.4146936 269.14950351 -352.050894 245.97921684 -356 222 C-356.12987305 221.2786084 -356.25974609 220.5572168 -356.39355469 219.81396484 C-366.16649433 164.91303921 -349.9561494 103.44438694 -318.54443359 58.14355469 C-314.00400445 51.84178929 -309.07350205 45.87629303 -304 40 C-303.23171875 39.10152344 -302.4634375 38.20304687 -301.671875 37.27734375 C-299.49665343 34.80000807 -297.27002088 32.39084458 -295 30 C-294.49919922 29.47196777 -293.99839844 28.94393555 -293.48242188 28.39990234 C-285.22667225 19.75670756 -276.59762634 12.11165717 -267 5 C-265.88019089 4.14976255 -264.7603991 3.2995023 -263.640625 2.44921875 C-254.60734254 -4.30579846 -245.00250572 -9.8115792 -235 -15 C-234.25121582 -15.39074707 -233.50243164 -15.78149414 -232.73095703 -16.18408203 C-160.48482869 -53.40841151 -66.24936556 -47.77870319 0 0 Z M-190 52 C-190.67546875 52.54269531 -191.3509375 53.08539063 -192.046875 53.64453125 C-209.91155558 68.42790065 -220.8404469 92.16890377 -223 115 C-224.29450418 140.09346571 -217.53577504 163.58843799 -201 183 C-200.40703125 183.73734375 -199.8140625 184.4746875 -199.203125 185.234375 C-184.29331235 203.10150586 -160.92929739 213.92946144 -138 216 C-112.10285352 217.65027688 -87.86891982 209.96183792 -68.07373047 192.98486328 C-61.79245461 187.33272975 -56.72873549 180.97512081 -52 174 C-51.44699219 173.20207031 -50.89398438 172.40414062 -50.32421875 171.58203125 C-37.01177386 151.04577905 -34.11242982 125.59651821 -39.02734375 102 C-42.34271709 87.62766802 -49.46771727 74.19007103 -59 63 C-59.59296875 62.26265625 -60.1859375 61.5253125 -60.796875 60.765625 C-72.76500074 46.42365614 -90.89499719 36.22839421 -109 32 C-110.42119141 31.66548828 -110.42119141 31.66548828 -111.87109375 31.32421875 C-139.60147052 25.7931938 -168.53101048 33.76774745 -190 52 Z " fill="#42D685" transform="translate(386,68)"/>
<path d="M0 0 C1.82403623 -0.00015561 3.64807278 -0.00165474 5.47210693 -0.00440979 C9.26052805 -0.00578053 13.04856446 0.00654358 16.83691406 0.02954102 C21.65328288 0.05800342 26.46901842 0.0551481 31.28543472 0.0424509 C35.0399095 0.03544615 38.79424186 0.04333599 42.54869843 0.05570793 C44.32341717 0.06017023 46.09815147 0.06060589 47.8728714 0.05664253 C74.33862145 0.02516852 97.37363999 7.74959445 116.578125 26.68359375 C130.36932481 41.53565508 137.15251194 61.05543639 144.52294922 79.57910156 C145.7470923 82.65302796 146.98056211 85.72310126 148.21484375 88.79296875 C149.00055384 90.75889332 149.78573006 92.72503137 150.5703125 94.69140625 C150.93691986 95.60286407 151.30352722 96.5143219 151.6812439 97.45339966 C152.01894806 98.30554047 152.35665222 99.15768127 152.70458984 100.03564453 C153.00102386 100.77871857 153.29745789 101.5217926 153.60287476 102.28738403 C154.41865406 104.66916738 154.91729707 107.02001511 155.359375 109.49609375 C104.40261869 144.02380412 43.53894784 159.38497077 -17.640625 148.49609375 C-50.35403829 142.12060403 -79.97779128 130.14870162 -107.640625 111.49609375 C-108.630625 110.83609375 -109.620625 110.17609375 -110.640625 109.49609375 C-110.02545831 105.99528879 -109.11461963 102.86151219 -107.80224609 99.56079102 C-107.42450043 98.60531876 -107.04675476 97.6498465 -106.65756226 96.66542053 C-106.04202988 95.12947487 -106.04202988 95.12947487 -105.4140625 93.5625 C-104.98815826 92.49297592 -104.56225403 91.42345184 -104.1234436 90.32151794 C-103.21940926 88.05535062 -102.31313245 85.79007678 -101.40478516 83.52563477 C-100.03436424 80.10536282 -98.67494355 76.68086582 -97.31640625 73.25585938 C-85.57116838 43.79704143 -72.26143719 19.33537527 -41.83514404 6.11109924 C-28.32371528 0.6828873 -14.38493601 -0.10212636 0 0 Z " fill="#06292F" transform="translate(233.640625,332.50390625)"/>
<path d="M0 0 C2.51839295 2.20028016 4.91464435 4.4739304 7.28515625 6.83203125 C7.91035156 7.42242187 8.53554688 8.0128125 9.1796875 8.62109375 C21.72845998 21.48146103 26.48608826 40.36804667 26.28515625 57.83203125 C25.15062829 77.07775095 16.9971247 94.38579395 3.01953125 107.58203125 C-12.10942076 120.03099747 -30.39767958 126.07770546 -49.92773438 124.67285156 C-65.6093261 122.9499861 -78.66000793 117.05931179 -90.71484375 106.83203125 C-91.45476562 106.20554687 -92.1946875 105.5790625 -92.95703125 104.93359375 C-105.60171581 93.27293133 -112.62505925 75.80972667 -113.71484375 58.83203125 C-114.24579103 39.92466961 -108.78556379 22.82356844 -96.21484375 8.45703125 C-70.77981272 -18.34593423 -29.48952244 -23.54918698 0 0 Z " fill="#06292F" transform="translate(299.71484375,136.16796875)"/>
</svg>
