<?xml version="1.0" encoding="UTF-8"?>
<svg version="1.1" xmlns="http://www.w3.org/2000/svg" width="512" height="512">
<path d="M0 0 C5.20288669 2.50637029 10.14034062 5.46102783 15.07617188 8.45166016 C18.81773217 10.7129702 22.60101684 12.89958628 26.38305664 15.09228516 C29.4062034 16.84807893 32.4218985 18.61619401 35.43701172 20.38574219 C42.20978777 24.35016608 49.02423162 28.24002505 55.84326172 32.12402344 C64.90941488 37.29055259 73.95508331 42.49039362 82.96826172 47.74902344 C83.92087891 48.30460937 84.87349609 48.86019531 85.85498047 49.43261719 C87.65017955 50.48215747 89.44363456 51.53468814 91.23510742 52.59057617 C93.01729727 53.63840304 94.80519695 54.67656286 96.59790039 55.70629883 C104.7860775 60.47132247 104.7860775 60.47132247 107.90576172 64.31152344 C108.45361328 64.96507813 109.00146484 65.61863281 109.56591797 66.29199219 C112.21886055 70.09697712 111.71129879 73.00474374 111.34326172 77.43652344 C111.17775512 82.24713144 111.17775512 82.24713144 113.66748047 86.10058594 C116.01720786 87.5922715 116.01720786 87.5922715 118.51123047 88.85839844 C122.76014227 91.16434052 125.31317193 94.53375408 126.84326172 99.12402344 C127.7954164 111.81331559 127.7954164 111.81331559 123.84326172 117.12402344 C118.22284353 123.62415925 110.49655262 127.25589514 103.06201172 131.27246094 C97.41670297 134.32997739 91.87952862 137.56175919 86.34326172 140.81152344 C75.74618029 147.01869995 65.1189557 153.17152882 54.47607422 159.29980469 C50.49644087 161.59173702 46.52046858 163.88973049 42.54977417 166.19709778 C40.78599135 167.22191427 39.02151278 168.2455227 37.25683594 169.26879883 C35.05137355 170.54819415 32.8471797 171.82977985 30.64453125 173.11401367 C10.69243307 184.67371466 10.69243307 184.67371466 1.84326172 183.12402344 C-4.08908323 181.26432161 -7.65130495 178.17597148 -11.15673828 173.12402344 C-13.26409914 168.93857063 -13.36870475 165.46422933 -13.28173828 160.81152344 C-13.26369141 159.55726563 -13.24564453 158.30300781 -13.22705078 157.01074219 C-13.20384766 156.058125 -13.18064453 155.10550781 -13.15673828 154.12402344 C-14.30916016 153.96160156 -14.30916016 153.96160156 -15.48486328 153.79589844 C-18.15673828 153.12402344 -18.15673828 153.12402344 -20.90673828 150.37402344 C-23.75707714 147.93648281 -23.75707714 147.93648281 -26.04736328 148.14746094 C-47.22356415 154.18659971 -64.95838052 174.18937674 -75.38696289 192.60498047 C-81.85749852 204.68752861 -85.51790658 217.71464469 -86.57080078 231.33496094 C-86.64782227 232.29378174 -86.72484375 233.25260254 -86.80419922 234.24047852 C-86.95192526 236.15315031 -87.08372494 238.06714365 -87.19677734 239.98217773 C-87.98333645 250.64157351 -91.68439235 259.4153978 -99.15673828 267.12402344 C-107.30961998 274.06458072 -116.44316148 276.79531784 -127.07470703 276.46777344 C-137.43880562 275.31182835 -146.34256203 271.08895673 -152.93798828 262.91699219 C-157.53701728 256.30025194 -160.44314942 250.16369879 -160.65283203 242.04199219 C-160.81912109 241.4090625 -160.98541016 240.77613281 -161.15673828 240.12402344 C-163.00645525 239.07381241 -163.00645525 239.07381241 -165.15673828 238.12402344 C-175.55426335 227.14513138 -176.59375598 216.01531373 -176.24560547 201.51855469 C-174.5323104 155.353725 -152.40405848 112.91762965 -118.97705078 81.7578125 C-96.06525898 61.19374185 -60.11394816 40.12402344 -28.15673828 40.12402344 C-28.1960144 38.91456055 -28.1960144 38.91456055 -28.23608398 37.68066406 C-28.34060089 33.99531872 -28.40524067 30.31028606 -28.46923828 26.62402344 C-28.53208008 24.72136719 -28.53208008 24.72136719 -28.59619141 22.78027344 C-28.6936791 15.29321825 -28.40451533 9.77201656 -23.15673828 4.12402344 C-16.5847368 -1.88856324 -8.38716727 -3.4065153 0 0 Z " fill="#4EEC9A" transform="translate(246.15673828125,41.8759765625)"/>
<path d="M0 0 C7.67543525 5.52837045 14.20208721 14.17168057 15.83203125 23.6796875 C15.95578125 24.4428125 16.07953125 25.2059375 16.20703125 25.9921875 C17.13463834 30.59157265 19.15924196 32.42203891 22.57421875 35.47265625 C31.37833459 44.91607511 31.98096393 56.72314309 31.59326172 68.8984375 C29.10885245 116.20016528 7.31205359 158.84979942 -27.54296875 190.4921875 C-35.89650363 197.69594517 -45.09455047 203.82884398 -54.54296875 209.4921875 C-55.11176758 209.83491699 -55.68056641 210.17764648 -56.26660156 210.53076172 C-74.34180484 221.23952509 -95.62587997 228.49540751 -116.54296875 230.4921875 C-116.51678467 231.29849609 -116.49060059 232.10480469 -116.46362305 232.93554688 C-116.35910614 236.62089222 -116.29446636 240.30592488 -116.23046875 243.9921875 C-116.16762695 245.89484375 -116.16762695 245.89484375 -116.10351562 247.8359375 C-116.00602793 255.32299268 -116.2951917 260.84419438 -121.54296875 266.4921875 C-126.63692576 271.15254221 -131.79524402 272.64478628 -138.6953125 272.34375 C-146.45534698 270.62630074 -153.0306582 266.25082271 -159.76708984 262.16894531 C-162.57726229 260.47147264 -165.4085281 258.81635459 -168.25 257.171875 C-172.26631723 254.84670907 -176.27513227 252.50952204 -180.27734375 250.16015625 C-186.64067981 246.42892738 -193.02650936 242.73748617 -199.41796875 239.0546875 C-200.48611816 238.43891846 -201.55426758 237.82314941 -202.65478516 237.1887207 C-207.12234818 234.61385781 -211.590668 232.04031105 -216.05957031 229.46777344 C-218.41643166 228.11103492 -220.77303799 226.75385529 -223.12939453 225.39624023 C-225.33303744 224.12672631 -227.5371083 222.85795482 -229.74169922 221.59008789 C-232.6793868 219.89747401 -235.61156583 218.19565578 -238.54296875 216.4921875 C-239.4755249 215.95827393 -240.40808105 215.42436035 -241.36889648 214.87426758 C-249.47715858 210.15550665 -249.47715858 210.15550665 -252.60546875 206.3046875 C-253.15332031 205.65113281 -253.70117188 204.99757813 -254.265625 204.32421875 C-256.91856758 200.51923382 -256.41100582 197.6114672 -256.04296875 193.1796875 C-255.87746215 188.3690795 -255.87746215 188.3690795 -258.3671875 184.515625 C-260.7169149 183.02393944 -260.7169149 183.02393944 -263.2109375 181.7578125 C-267.45984931 179.45187041 -270.01287896 176.08245686 -271.54296875 171.4921875 C-272.49512343 158.80289535 -272.49512343 158.80289535 -268.54296875 153.4921875 C-262.92255056 146.99205168 -255.19625965 143.3603158 -247.76171875 139.34375 C-242.11641 136.28623355 -236.57923565 133.05445175 -231.04296875 129.8046875 C-220.44588732 123.59751099 -209.81866274 117.44468211 -199.17578125 111.31640625 C-195.1961479 109.02447392 -191.22017561 106.72648044 -187.2494812 104.41911316 C-185.48569839 103.39429667 -183.72121981 102.37068824 -181.95654297 101.34741211 C-179.75108058 100.06801679 -177.54688673 98.78643109 -175.34423828 97.50219727 C-155.3921401 85.94249628 -155.3921401 85.94249628 -146.54296875 87.4921875 C-140.6106238 89.35188933 -137.04840208 92.44023946 -133.54296875 97.4921875 C-131.7119443 101.2814906 -131.30466089 104.25717143 -131.34765625 108.44921875 C-131.35732422 110.11694336 -131.35732422 110.11694336 -131.3671875 111.81835938 C-131.39232422 113.5440918 -131.39232422 113.5440918 -131.41796875 115.3046875 C-131.42699219 116.47451172 -131.43601562 117.64433594 -131.4453125 118.84960938 C-131.46883143 121.73067803 -131.50170023 124.61132739 -131.54296875 127.4921875 C-117.26191011 121.99046819 -104.6064124 116.13941509 -92.54296875 106.4921875 C-91.90875 106.02425781 -91.27453125 105.55632812 -90.62109375 105.07421875 C-73.7739948 92.03777314 -62.15082776 68.51653413 -58.89453125 47.765625 C-58.59079113 44.937467 -58.3481061 42.11683532 -58.12890625 39.28125 C-58.01337402 37.8430188 -58.01337402 37.8430188 -57.89550781 36.37573242 C-57.74778177 34.46306062 -57.61598209 32.54906729 -57.50292969 30.6340332 C-56.71637058 19.97463742 -53.01531468 11.20081314 -45.54296875 3.4921875 C-32.46507994 -7.64103383 -14.73494386 -8.73684843 0 0 Z " fill="#4EEC99" transform="translate(410.54296875,199.5078125)"/>
<path d="M0 0 C8.29849928 6.81151802 14.26815351 14.10379918 16 25 C19.28352392 67.09295248 2.3120885 109.63888947 -24.3125 141.5625 C-37.59610003 157.09383988 -52.49108444 169.50522716 -70 180 C-70.56879883 180.34272949 -71.13759766 180.68545898 -71.72363281 181.03857422 C-89.79883609 191.74733759 -111.08291122 199.00322001 -132 201 C-131.97381592 201.80630859 -131.94763184 202.61261719 -131.9206543 203.44335938 C-131.81613739 207.12870472 -131.75149761 210.81373738 -131.6875 214.5 C-131.6246582 216.40265625 -131.6246582 216.40265625 -131.56054688 218.34375 C-131.46305918 225.83080518 -131.75222295 231.35200688 -137 237 C-142.09395701 241.66035471 -147.25227527 243.15259878 -154.15234375 242.8515625 C-161.91237823 241.13411324 -168.48768945 236.75863521 -175.22412109 232.67675781 C-178.03429354 230.97928514 -180.86555935 229.32416709 -183.70703125 227.6796875 C-187.72334848 225.35452157 -191.73216352 223.01733454 -195.734375 220.66796875 C-202.09771106 216.93673988 -208.48354061 213.24529867 -214.875 209.5625 C-215.94314941 208.94673096 -217.01129883 208.33096191 -218.11181641 207.6965332 C-222.57937943 205.12167031 -227.04769925 202.54812355 -231.51660156 199.97558594 C-233.87346291 198.61884742 -236.23006924 197.26166779 -238.58642578 195.90405273 C-240.79006869 194.63453881 -242.99413955 193.36576732 -245.19873047 192.09790039 C-248.13641805 190.40528651 -251.06859708 188.70346828 -254 187 C-254.93255615 186.46608643 -255.8651123 185.93217285 -256.82592773 185.38208008 C-264.93418983 180.66331915 -264.93418983 180.66331915 -268.0625 176.8125 C-268.61035156 176.15894531 -269.15820312 175.50539063 -269.72265625 174.83203125 C-272.09117739 171.434978 -272.13569141 168.45212469 -272.125 164.4375 C-272.12757813 163.46683594 -272.13015625 162.49617187 -272.1328125 161.49609375 C-272 159 -272 159 -271 157 C-267.45565573 158.34455698 -264.19200807 159.91228344 -260.88671875 161.765625 C-259.89873291 162.31855225 -258.91074707 162.87147949 -257.89282227 163.44116211 C-256.83506592 164.03807861 -255.77730957 164.63499512 -254.6875 165.25 C-253.57882568 165.87334229 -252.47015137 166.49668457 -251.32788086 167.13891602 C-241.87226073 172.47215112 -232.48995703 177.92737395 -223.125 183.41796875 C-215.52530773 187.87122107 -207.89699899 192.27533244 -200.24755859 196.64257812 C-195.44553899 199.39157617 -190.68503869 202.16135572 -186.0390625 205.16796875 C-177.6942945 210.52322635 -171.29866058 214.02966303 -161 212 C-155.76164435 210.31624283 -153.18864818 207.42867803 -150 203 C-148.16374276 199.19597957 -147.71025203 196.03019374 -147.5859375 191.82421875 C-147.54726563 190.66728516 -147.50859375 189.51035156 -147.46875 188.31835938 C-147.4378125 187.12017578 -147.406875 185.92199219 -147.375 184.6875 C-147.33632813 183.46998047 -147.29765625 182.25246094 -147.2578125 180.99804688 C-147.16371998 177.99884772 -147.07807791 174.99965177 -147 172 C-146.45811035 171.87995605 -145.9162207 171.75991211 -145.35791016 171.63623047 C-119.77275914 165.90933733 -94.18384704 158.0829207 -73 142 C-72.44022461 141.5771875 -71.88044922 141.154375 -71.30371094 140.71875 C-61.05223157 132.9375732 -51.20303596 124.97796187 -43 115 C-42.56284668 114.48050781 -42.12569336 113.96101563 -41.67529297 113.42578125 C-34.12769927 104.44235311 -27.65757296 95.27649281 -22 85 C-21.66548828 84.4126709 -21.33097656 83.8253418 -20.98632812 83.22021484 C-6.27129651 57.21075107 -2.07615252 29.27486878 0 0 Z " fill="#00B889" transform="translate(426,229)"/>
<path d="M0 0 C0.02187378 1.12643921 0.02187378 1.12643921 0.04418945 2.27563477 C0.11903598 5.70508662 0.21557654 9.13360395 0.3125 12.5625 C0.33505859 13.74392578 0.35761719 14.92535156 0.38085938 16.14257812 C0.57592308 22.47328197 0.93626336 27.40642185 4 33 C2.98421875 33.47308594 1.9684375 33.94617188 0.921875 34.43359375 C-8.23649036 38.79498604 -16.13213093 43.53795138 -24 50 C-24.71414062 50.55042969 -25.42828125 51.10085937 -26.1640625 51.66796875 C-43.5557711 65.69912808 -55.63336374 89.96398685 -58 112 C-58.14223374 113.73663927 -58.27976587 115.47366642 -58.4140625 117.2109375 C-58.49108398 118.1697583 -58.56810547 119.1285791 -58.64746094 120.11645508 C-58.79518698 122.02912688 -58.92698666 123.94312021 -59.04003906 125.8581543 C-59.82659817 136.51755008 -63.52765407 145.29137436 -71 153 C-79.1528817 159.94055728 -88.2864232 162.67129441 -98.91796875 162.34375 C-109.28206734 161.18780491 -118.18582375 156.96493329 -124.78125 148.79296875 C-129.58962325 141.87503959 -132.26492103 135.37990028 -133 127 C-129.72394745 128.06471708 -126.63005724 129.17175914 -123.5 130.625 C-115.66288149 133.57332098 -105.82985505 133.11935684 -98.0859375 130.0390625 C-87.5766964 124.80412217 -81.500997 118.70550583 -77.76171875 107.55078125 C-76.60572781 103.67969363 -75.85882103 100.14795624 -75.60546875 96.10546875 C-73.55469055 66.60735594 -63.86786207 41.41363693 -41.56201172 21.34326172 C-31.79937159 12.94781846 -13.59095298 0 0 0 Z " fill="#00B889" transform="translate(218,156)"/>
<path d="M0 0 C6.29597173 1.29148138 10.79212394 5.32925757 15 10 C18.22660337 16.19022339 17.98350107 23.74215269 16 30.3125 C10.0165628 38.35274374 1.85786233 42.48109307 -6.78125 47.1484375 C-12.42655875 50.20595395 -17.9637331 53.43773575 -23.5 56.6875 C-34.09708143 62.89467651 -44.72430601 69.04750539 -55.3671875 75.17578125 C-59.34682085 77.46771358 -63.32279314 79.76570706 -67.29348755 82.07307434 C-69.05727036 83.09789083 -70.82174894 84.12149926 -72.58642578 85.14477539 C-74.79188817 86.42417071 -76.99608202 87.70575641 -79.19873047 88.98999023 C-99.15082865 100.54969122 -99.15082865 100.54969122 -108 99 C-113.93234495 97.14029817 -117.49456667 94.05194804 -121 89 C-123.10736085 84.81454719 -123.21196647 81.3402059 -123.125 76.6875 C-123.10695312 75.43324219 -123.08890625 74.17898437 -123.0703125 72.88671875 C-123.03550781 71.45779297 -123.03550781 71.45779297 -123 70 C-122.36578125 69.98324219 -121.7315625 69.96648437 -121.078125 69.94921875 C-109.6590737 68.89248334 -100.67937642 62.70403954 -91 57 C-89.12044224 55.90643316 -87.24022385 54.81400102 -85.359375 53.72265625 C-81.36719883 51.40200646 -77.38142176 49.07076065 -73.3984375 46.734375 C-67.25358513 43.13766674 -61.07761517 39.59657636 -54.89227295 36.07012939 C-53.12912537 35.06485213 -51.36648627 34.05868911 -49.60400391 33.05224609 C-44.86682519 30.34738439 -40.12964785 27.64253821 -35.38867188 24.94433594 C-31.88096001 22.94754836 -28.37793101 20.94266248 -24.875 18.9375 C-23.82715332 18.34267822 -22.77930664 17.74785645 -21.69970703 17.13500977 C-9.07841751 10.46904954 -9.07841751 10.46904954 0 0 Z " fill="#00B889" transform="translate(356,126)"/>
</svg>
