<?xml version="1.0" encoding="UTF-8"?>
<svg version="1.1" xmlns="http://www.w3.org/2000/svg" width="512" height="512">
<path d="M0 0 C1.44278607 -0.00302782 2.88557053 -0.00692044 4.32835221 -0.01159257 C8.25673924 -0.02180021 12.18503427 -0.01970938 16.11342859 -0.01541197 C20.36442687 -0.01293147 24.61540375 -0.0219753 28.86639404 -0.02944946 C37.18091096 -0.04216222 45.49539552 -0.04399441 53.80992052 -0.0416492 C60.57291219 -0.03986191 67.33589408 -0.04162448 74.09888458 -0.04587364 C75.06359136 -0.04646883 76.02829813 -0.04706402 77.02223845 -0.04767724 C78.98243108 -0.04888907 80.9426237 -0.05010321 82.90281633 -0.05131962 C101.26282153 -0.06218214 119.62280835 -0.06003888 137.98281458 -0.05393478 C154.75116286 -0.04876774 171.51945301 -0.06001775 188.28778979 -0.07903299 C205.5356682 -0.09844097 222.78351915 -0.10666215 240.03140855 -0.10290974 C249.70265762 -0.10100206 259.37385723 -0.10344282 269.04509735 -0.11762428 C277.2791938 -0.1295769 285.51321036 -0.13089971 293.74730799 -0.11883412 C297.94185824 -0.11297234 302.13626264 -0.11177045 306.33080292 -0.12383652 C336.10731633 -0.20353947 367.42548245 1.19422066 390.18927002 23.06538391 C391.56783076 24.44370928 392.91648052 25.851753 394.26373291 27.26069641 C395.00236572 28.02897766 395.74099854 28.79725891 396.50201416 29.58882141 C412.24424843 47.56247918 416.59089367 72.91723922 416.52442932 95.9969635 C416.52745715 97.43974957 416.53134976 98.88253403 416.53602189 100.32531571 C416.54622954 104.25370274 416.54413871 108.18199777 416.53984129 112.11039209 C416.53736079 116.36139037 416.54640462 120.61236725 416.55387878 124.86335754 C416.56659154 133.17787446 416.56842373 141.49235902 416.56607852 149.80688402 C416.56429123 156.56987569 416.5660538 163.33285758 416.57030296 170.09584808 C416.57089815 171.06055486 416.57149334 172.02526163 416.57210657 173.01920195 C416.57331839 174.97939458 416.57453253 176.9395872 416.57574894 178.89977983 C416.58661146 197.25978503 416.5844682 215.61977185 416.5783641 233.97977808 C416.57319706 250.74812636 416.58444707 267.51641651 416.60346232 284.28475329 C416.6228703 301.5326317 416.63109147 318.78048266 416.62733907 336.02837205 C416.62543139 345.69962112 416.62787214 355.37082073 416.6420536 365.04206085 C416.65400622 373.2761573 416.65532904 381.51017386 416.64326344 389.74427149 C416.63740166 393.93882174 416.63619977 398.13322615 416.64826584 402.32776642 C416.72796879 432.10427983 415.33020866 463.42244595 393.45904541 486.18623352 C392.08072004 487.56479426 390.67267632 488.91344402 389.26373291 490.26069641 C388.49545166 490.99932922 387.72717041 491.73796204 386.93560791 492.49897766 C368.96195015 508.24121193 343.6071901 512.58785717 320.52746582 512.52139282 C319.08467975 512.52442065 317.64189529 512.52831326 316.19911361 512.53298539 C312.27072658 512.54319304 308.34243155 512.54110221 304.41403723 512.5368048 C300.16303895 512.53432429 295.91206207 512.54336813 291.66107178 512.55084229 C283.34655486 512.56355504 275.0320703 512.56538723 266.7175453 512.56304202 C259.95455363 512.56125473 253.19157174 512.5630173 246.42858124 512.56726646 C245.46387446 512.56786165 244.49916769 512.56845684 243.50522737 512.56907007 C241.54503474 512.5702819 239.58484212 512.57149603 237.62464949 512.57271244 C219.26464429 512.58357496 200.90465747 512.5814317 182.54465124 512.5753276 C165.77630296 512.57016056 149.00801281 512.58141057 132.23967603 512.60042582 C114.99179762 512.6198338 97.74394667 512.62805497 80.49605727 512.62430257 C70.8248082 512.62239489 61.15360859 512.62483564 51.48236847 512.63901711 C43.24827202 512.65096973 35.01425546 512.65229254 26.78015783 512.64022694 C22.58560758 512.63436516 18.39120318 512.63316327 14.1966629 512.64522934 C-15.57985051 512.7249323 -46.89801663 511.32717216 -69.6618042 489.45600891 C-71.04036494 488.07768354 -72.3890147 486.66963982 -73.73626709 485.26069641 C-74.4748999 484.49241516 -75.21353271 483.72413391 -75.97454834 482.93257141 C-91.71678261 464.95891365 -96.06342785 439.6041536 -95.9969635 416.52442932 C-95.99999132 415.08164325 -96.00388394 413.63885879 -96.00855607 412.19607711 C-96.01876372 408.26769008 -96.01667289 404.33939505 -96.01237547 400.41100073 C-96.00989497 396.16000245 -96.0189388 391.90902557 -96.02641296 387.65803528 C-96.03912572 379.34351836 -96.04095791 371.0290338 -96.0386127 362.7145088 C-96.03682541 355.95151713 -96.03858798 349.18853524 -96.04283714 342.42554474 C-96.04343233 341.46083796 -96.04402752 340.49613119 -96.04464075 339.50219087 C-96.04585257 337.54199825 -96.04706671 335.58180562 -96.04828312 333.621613 C-96.05914564 315.26160779 -96.05700238 296.90162098 -96.05089828 278.54161474 C-96.04573124 261.77326646 -96.05698125 245.00497631 -96.0759965 228.23663953 C-96.09540448 210.98876112 -96.10362565 193.74091017 -96.09987324 176.49302077 C-96.09796557 166.82177171 -96.10040632 157.15057209 -96.11458778 147.47933197 C-96.1265404 139.24523552 -96.12786322 131.01121896 -96.11579762 122.77712134 C-96.10993584 118.58257108 -96.10873395 114.38816668 -96.12080002 110.1936264 C-96.20050297 80.41711299 -94.80274284 49.09894687 -72.93157959 26.3351593 C-71.55325422 24.95659856 -70.1452105 23.6079488 -68.73626709 22.26069641 C-67.58384521 21.15274719 -67.58384521 21.15274719 -66.40814209 20.02241516 C-48.43448432 4.28018089 -23.07972428 -0.06646435 0 0 Z " fill="#01BA1A" transform="translate(95.73626708984375,-0.2606964111328125)"/>
<path d="M0 0 C1.44278607 -0.00302782 2.88557053 -0.00692044 4.32835221 -0.01159257 C8.25673924 -0.02180021 12.18503427 -0.01970938 16.11342859 -0.01541197 C20.36442687 -0.01293147 24.61540375 -0.0219753 28.86639404 -0.02944946 C37.18091096 -0.04216222 45.49539552 -0.04399441 53.80992052 -0.0416492 C60.57291219 -0.03986191 67.33589408 -0.04162448 74.09888458 -0.04587364 C75.06359136 -0.04646883 76.02829813 -0.04706402 77.02223845 -0.04767724 C78.98243108 -0.04888907 80.9426237 -0.05010321 82.90281633 -0.05131962 C101.26282153 -0.06218214 119.62280835 -0.06003888 137.98281458 -0.05393478 C154.75116286 -0.04876774 171.51945301 -0.06001775 188.28778979 -0.07903299 C205.5356682 -0.09844097 222.78351915 -0.10666215 240.03140855 -0.10290974 C249.70265762 -0.10100206 259.37385723 -0.10344282 269.04509735 -0.11762428 C277.2791938 -0.1295769 285.51321036 -0.13089971 293.74730799 -0.11883412 C297.94185824 -0.11297234 302.13626264 -0.11177045 306.33080292 -0.12383652 C336.10731633 -0.20353947 367.42548245 1.19422066 390.18927002 23.06538391 C391.56783076 24.44370928 392.91648052 25.851753 394.26373291 27.26069641 C395.00236572 28.02897766 395.74099854 28.79725891 396.50201416 29.58882141 C412.24424843 47.56247918 416.59089367 72.91723922 416.52442932 95.9969635 C416.52745715 97.43974957 416.53134976 98.88253403 416.53602189 100.32531571 C416.54622954 104.25370274 416.54413871 108.18199777 416.53984129 112.11039209 C416.53736079 116.36139037 416.54640462 120.61236725 416.55387878 124.86335754 C416.56659154 133.17787446 416.56842373 141.49235902 416.56607852 149.80688402 C416.56429123 156.56987569 416.5660538 163.33285758 416.57030296 170.09584808 C416.57089815 171.06055486 416.57149334 172.02526163 416.57210657 173.01920195 C416.57331839 174.97939458 416.57453253 176.9395872 416.57574894 178.89977983 C416.58661146 197.25978503 416.5844682 215.61977185 416.5783641 233.97977808 C416.57319706 250.74812636 416.58444707 267.51641651 416.60346232 284.28475329 C416.6228703 301.5326317 416.63109147 318.78048266 416.62733907 336.02837205 C416.62543139 345.69962112 416.62787214 355.37082073 416.6420536 365.04206085 C416.65400622 373.2761573 416.65532904 381.51017386 416.64326344 389.74427149 C416.63740166 393.93882174 416.63619977 398.13322615 416.64826584 402.32776642 C416.72796879 432.10427983 415.33020866 463.42244595 393.45904541 486.18623352 C392.08072004 487.56479426 390.67267632 488.91344402 389.26373291 490.26069641 C388.49545166 490.99932922 387.72717041 491.73796204 386.93560791 492.49897766 C368.96195015 508.24121193 343.6071901 512.58785717 320.52746582 512.52139282 C319.08467975 512.52442065 317.64189529 512.52831326 316.19911361 512.53298539 C312.27072658 512.54319304 308.34243155 512.54110221 304.41403723 512.5368048 C300.16303895 512.53432429 295.91206207 512.54336813 291.66107178 512.55084229 C283.34655486 512.56355504 275.0320703 512.56538723 266.7175453 512.56304202 C259.95455363 512.56125473 253.19157174 512.5630173 246.42858124 512.56726646 C245.46387446 512.56786165 244.49916769 512.56845684 243.50522737 512.56907007 C241.54503474 512.5702819 239.58484212 512.57149603 237.62464949 512.57271244 C219.26464429 512.58357496 200.90465747 512.5814317 182.54465124 512.5753276 C165.77630296 512.57016056 149.00801281 512.58141057 132.23967603 512.60042582 C114.99179762 512.6198338 97.74394667 512.62805497 80.49605727 512.62430257 C70.8248082 512.62239489 61.15360859 512.62483564 51.48236847 512.63901711 C43.24827202 512.65096973 35.01425546 512.65229254 26.78015783 512.64022694 C22.58560758 512.63436516 18.39120318 512.63316327 14.1966629 512.64522934 C-15.57985051 512.7249323 -46.89801663 511.32717216 -69.6618042 489.45600891 C-71.04036494 488.07768354 -72.3890147 486.66963982 -73.73626709 485.26069641 C-74.4748999 484.49241516 -75.21353271 483.72413391 -75.97454834 482.93257141 C-91.71678261 464.95891365 -96.06342785 439.6041536 -95.9969635 416.52442932 C-95.99999132 415.08164325 -96.00388394 413.63885879 -96.00855607 412.19607711 C-96.01876372 408.26769008 -96.01667289 404.33939505 -96.01237547 400.41100073 C-96.00989497 396.16000245 -96.0189388 391.90902557 -96.02641296 387.65803528 C-96.03912572 379.34351836 -96.04095791 371.0290338 -96.0386127 362.7145088 C-96.03682541 355.95151713 -96.03858798 349.18853524 -96.04283714 342.42554474 C-96.04343233 341.46083796 -96.04402752 340.49613119 -96.04464075 339.50219087 C-96.04585257 337.54199825 -96.04706671 335.58180562 -96.04828312 333.621613 C-96.05914564 315.26160779 -96.05700238 296.90162098 -96.05089828 278.54161474 C-96.04573124 261.77326646 -96.05698125 245.00497631 -96.0759965 228.23663953 C-96.09540448 210.98876112 -96.10362565 193.74091017 -96.09987324 176.49302077 C-96.09796557 166.82177171 -96.10040632 157.15057209 -96.11458778 147.47933197 C-96.1265404 139.24523552 -96.12786322 131.01121896 -96.11579762 122.77712134 C-96.10993584 118.58257108 -96.10873395 114.38816668 -96.12080002 110.1936264 C-96.20050297 80.41711299 -94.80274284 49.09894687 -72.93157959 26.3351593 C-71.55325422 24.95659856 -70.1452105 23.6079488 -68.73626709 22.26069641 C-67.58384521 21.15274719 -67.58384521 21.15274719 -66.40814209 20.02241516 C-48.43448432 4.28018089 -23.07972428 -0.06646435 0 0 Z M-66.04876709 31.07319641 C-69.54488345 35.6051991 -69.98694352 40.39355432 -69.99632931 45.9737072 C-70.00013498 46.62656899 -70.00394065 47.27943078 -70.00786164 47.95207626 C-70.01815774 50.13697044 -70.01427501 52.32160386 -70.01042175 54.5065155 C-70.01487522 56.08991821 -70.02018962 57.67331868 -70.02629048 59.25671589 C-70.04046751 63.60593643 -70.04213383 67.95508549 -70.04169357 72.30432582 C-70.043342 76.99563878 -70.05640885 81.68692231 -70.06788635 86.3782196 C-70.09073167 96.6342723 -70.09865617 106.8903043 -70.1037128 117.14637899 C-70.10696976 123.54970324 -70.11349216 129.95302147 -70.12071419 136.35634232 C-70.14027796 154.08460484 -70.15668399 171.81286178 -70.15959072 189.54113579 C-70.15977829 190.67547529 -70.15996586 191.80981479 -70.16015911 192.97852821 C-70.16052537 195.27810295 -70.16088906 197.5776777 -70.16125023 199.87725244 C-70.16143304 201.01876454 -70.16161585 202.16027663 -70.1618042 203.33638 C-70.16198475 204.47928458 -70.1621653 205.62218916 -70.16235132 206.79972722 C-70.16589447 225.3270582 -70.1929267 243.85427307 -70.23030209 262.38156377 C-70.26836579 281.40216731 -70.28774805 300.42271319 -70.28805023 319.44335568 C-70.28863517 330.12329958 -70.29715077 340.80310489 -70.3260479 351.48301315 C-70.35053562 360.57505194 -70.35786216 369.66690157 -70.34280037 378.7589644 C-70.33562131 383.39799605 -70.33653185 388.03665396 -70.35921097 392.67564392 C-70.37977855 396.9233835 -70.3772217 401.17046148 -70.35633612 405.41819371 C-70.352837 406.9538177 -70.35776925 408.48948921 -70.37204056 410.02505086 C-70.49875477 421.57677566 -70.49875477 421.57677566 -64.73626709 431.26069641 C-58.6166787 436.3603534 -52.43704502 435.67758063 -44.73626709 435.26069641 C-44.77107178 436.12952454 -44.80587646 436.99835266 -44.84173584 437.89350891 C-45.16381111 446.57289594 -45.16381111 446.57289594 -41.73626709 454.26069641 C-41.07626709 454.26069641 -40.41626709 454.26069641 -39.73626709 454.26069641 C-39.48876709 454.87944641 -39.24126709 455.49819641 -38.98626709 456.13569641 C-37.42865129 458.78364327 -36.61768716 459.21290729 -33.73626709 460.26069641 C-31.11200204 460.40028498 -28.60333962 460.4500101 -25.98626709 460.38569641 C-24.94019287 460.37216125 -24.94019287 460.37216125 -23.87298584 460.35835266 C-22.16059751 460.33489529 -20.44838705 460.29902746 -18.73626709 460.26069641 C-18.78267334 461.11792297 -18.82907959 461.97514954 -18.87689209 462.85835266 C-19.21304456 472.31538076 -19.21304456 472.31538076 -14.73626709 480.26069641 C-9.27096681 484.06355952 -5.35184825 484.84090898 1.22064209 484.76863098 C2.53915075 484.77799093 2.53915075 484.77799093 3.88429594 484.78753996 C6.81769173 484.80344277 9.75025343 484.79087629 12.68365479 484.77827454 C14.79153425 484.78369685 16.89940993 484.79082012 19.00727844 484.79951477 C24.72418842 484.81773788 30.4408094 484.81068462 36.15772438 484.79799843 C42.14289753 484.78786561 48.12804608 484.7972649 54.11322021 484.80354309 C64.16392455 484.81081865 74.21451128 484.80123411 84.26519775 484.78218079 C95.88222983 484.76041231 107.4989811 484.76746374 119.11600637 484.78948641 C129.09326883 484.80764293 139.07044679 484.81019746 149.04772043 484.79973173 C155.00534575 484.79349823 160.96283911 484.79265736 166.92045593 484.80587769 C172.52167838 484.81743911 178.12253906 484.80940472 183.72372246 484.78630066 C185.77840512 484.78101519 187.83311827 484.78252455 189.88778877 484.79135132 C192.69454368 484.8022966 195.50014232 484.7885553 198.30682373 484.76863098 C199.11821289 484.77755387 199.92960204 484.78647676 200.76557875 484.79567003 C207.24495115 484.7065708 211.54784158 482.87773346 216.30279541 478.29585266 C217.08783447 477.31938782 217.08783447 477.31938782 217.88873291 476.32319641 C218.46623291 475.62839172 219.04373291 474.93358704 219.63873291 474.21772766 C220.17498291 473.57190735 220.71123291 472.92608704 221.26373291 472.26069641 C223.63268206 469.77894016 225.91290969 467.52842992 228.63873291 465.44819641 C231.63764481 462.94910316 234.03332405 460.17534009 236.56842041 457.21772766 C239.36324692 453.99144176 242.24356267 451.03924738 245.63873291 448.44819641 C248.63764481 445.94910316 251.03332405 443.17534009 253.56842041 440.21772766 C256.36324692 436.99144176 259.24356267 434.03924738 262.63873291 431.44819641 C267.17862046 427.66495679 270.9894996 423.17204638 274.26373291 418.26069641 C274.5555851 415.16502536 274.5555851 415.16502536 274.49078369 411.58613586 C274.49122177 410.57598419 274.49122177 410.57598419 274.4916687 409.54542542 C274.49027635 407.32147802 274.47471994 405.09786646 274.45904541 402.87397766 C274.45531494 401.33127017 274.45246813 399.78856031 274.45046997 398.24584961 C274.4428362 394.18680777 274.42318997 390.12790921 274.40106201 386.06892395 C274.38059803 381.92648761 274.37146708 377.78402811 274.36138916 373.64155579 C274.33994379 365.51453693 274.30581099 357.3876345 274.26373291 349.26069641 C275.3295459 349.27519836 276.39535889 349.28970032 277.49346924 349.30464172 C278.92339811 349.31637688 280.35332999 349.32775075 281.78326416 349.33882141 C282.48197632 349.34929504 283.18068848 349.35976868 283.90057373 349.37055969 C298.32218017 349.45389749 313.39209188 345.21222943 326.04498291 338.40913391 C328.26373291 337.26069641 328.26373291 337.26069641 330.98248291 336.23725891 C333.4213796 335.48395116 333.4213796 335.48395116 334.26373291 333.26069641 C334.2032061 331.07630019 334.2032061 331.07630019 333.88873291 328.69819641 C333.79849854 327.89253235 333.70826416 327.08686829 333.61529541 326.25679016 C333.46171171 324.26742965 333.46171171 324.26742965 332.26373291 323.26069641 C327.66944765 322.85768893 324.57735772 322.84172185 320.51373291 325.08491516 C316.39327336 327.2451235 312.21706004 328.86440158 307.82623291 330.38569641 C307.1269165 330.6370636 306.4276001 330.88843079 305.70709229 331.14741516 C296.49933343 334.37731771 288.0354022 335.65069399 278.26373291 335.63569641 C277.16811035 335.63408508 276.07248779 335.63247375 274.94366455 335.6308136 C262.35748347 335.44269865 251.40157163 333.22739572 240.26373291 327.26069641 C237.2906361 326.42333687 234.30476732 325.79569321 231.26373291 325.26069641 C231.26373291 324.60069641 231.26373291 323.94069641 231.26373291 323.26069641 C229.39359295 322.04040068 227.46522544 320.90865577 225.51373291 319.82319641 C215.60415844 314.28197301 215.60415844 314.28197301 214.26373291 310.26069641 C214.85702393 309.99192688 215.45031494 309.72315735 216.06158447 309.44624329 C218.26913324 308.25778909 219.72916173 307.05327252 221.49810791 305.29194641 C222.07174072 304.72089172 222.64537354 304.14983704 223.23638916 303.56147766 C223.8229126 302.96721985 224.40943604 302.37296204 225.01373291 301.76069641 C225.6157251 301.1664386 226.21771729 300.57218079 226.83795166 299.95991516 C227.40642822 299.38886047 227.97490479 298.81780579 228.56060791 298.22944641 C229.33936279 297.44730774 229.33936279 297.44730774 230.1338501 296.64936829 C231.47410838 295.30051373 231.47410838 295.30051373 231.26373291 293.26069641 C231.85702393 292.99192688 232.45031494 292.72315735 233.06158447 292.44624329 C235.26913324 291.25778909 236.72916173 290.05327252 238.49810791 288.29194641 C239.07174072 287.72089172 239.64537354 287.14983704 240.23638916 286.56147766 C240.8229126 285.96721985 241.40943604 285.37296204 242.01373291 284.76069641 C242.6157251 284.1664386 243.21771729 283.57218079 243.83795166 282.95991516 C244.40642822 282.38886047 244.97490479 281.81780579 245.56060791 281.22944641 C246.33936279 280.44730774 246.33936279 280.44730774 247.1338501 279.64936829 C248.47410838 278.30051373 248.47410838 278.30051373 248.26373291 276.26069641 C248.85702393 275.99192688 249.45031494 275.72315735 250.06158447 275.44624329 C252.26913324 274.25778909 253.72916173 273.05327252 255.49810791 271.29194641 C256.07174072 270.72089172 256.64537354 270.14983704 257.23638916 269.56147766 C257.8229126 268.96721985 258.40943604 268.37296204 259.01373291 267.76069641 C259.6157251 267.1664386 260.21771729 266.57218079 260.83795166 265.95991516 C261.40642822 265.38886047 261.97490479 264.81780579 262.56060791 264.22944641 C263.33936279 263.44730774 263.33936279 263.44730774 264.1338501 262.64936829 C265.47410838 261.30051373 265.47410838 261.30051373 265.26373291 259.26069641 C265.84123291 259.01319641 266.41873291 258.76569641 267.01373291 258.51069641 C269.5931327 257.07769653 271.32494883 255.47644965 273.26373291 253.26069641 C273.26373291 252.60069641 273.26373291 251.94069641 273.26373291 251.26069641 C273.88248291 250.97194641 274.50123291 250.68319641 275.13873291 250.38569641 C277.39699056 249.32349599 277.39699056 249.32349599 279.26373291 247.26069641 C282.335195 247.80140172 285.25063003 248.47756206 288.26373291 249.26069641 C290.49266721 249.8020187 292.72185145 250.34231245 294.95123291 250.88179016 C297.38905041 251.48597927 299.82654427 252.09147556 302.26373291 252.69819641 C303.48318604 252.99790344 304.70263916 253.29761047 305.95904541 253.60639954 C311.03859009 254.87080024 316.06993822 256.13041387 321.01373291 257.85835266 C324.83939343 259.19189128 328.64893833 259.98455574 332.62652588 260.72895813 C337.41907135 261.69527585 342.11499434 263.02452501 346.82623291 264.32319641 C347.82203369 264.59196594 348.81783447 264.86073547 349.84381104 265.13764954 C350.78804932 265.39610657 351.7322876 265.6545636 352.70513916 265.92085266 C353.55793457 266.15425354 354.41072998 266.38765442 355.28936768 266.62812805 C357.26373291 267.26069641 357.26373291 267.26069641 358.26373291 268.26069641 C360.11265237 268.49433522 361.96861323 268.67373276 363.82623291 268.82319641 C364.83814697 268.90698547 365.85006104 268.99077454 366.89263916 269.07710266 C367.6751001 269.1376886 368.45756104 269.19827454 369.26373291 269.26069641 C365.34338995 280.77670386 360.11924297 290.81109375 352.20123291 300.13569641 C349.62233323 303.31829306 349.26966411 303.88703067 349.20123291 308.19819641 C350.03622309 311.3240356 350.03622309 311.3240356 352.26373291 313.26069641 C355.35088882 313.92222982 357.35917446 313.78438814 360.11920166 312.18647766 C377.24483742 298.61586409 385.50669704 272.02821269 388.26373291 251.26069641 C389.40050538 238.25664108 388.22774715 225.92636836 385.26373291 213.26069641 C385.04717041 212.12245422 384.83060791 210.98421204 384.60748291 209.81147766 C383.23344321 202.90038511 381.01390812 197.11852733 377.66607666 190.91694641 C376.26373291 188.26069641 376.26373291 188.26069641 375.44342041 185.94819641 C373.64701784 181.85572963 371.04146945 178.38765398 368.45123291 174.76069641 C367.92980713 174.01432922 367.40838135 173.26796204 366.87115479 172.49897766 C363.15597797 167.25784183 359.21633423 162.88786418 354.26373291 158.76069641 C351.26373291 156.26069641 351.26373291 156.26069641 349.01373291 153.88569641 C345.11055885 150.15993936 340.72176117 147.28088412 336.26373291 144.26069641 C335.27373291 143.53882141 334.28373291 142.81694641 333.26373291 142.07319641 C329.900725 140.04137913 326.53432752 138.64605367 322.86529541 137.26069641 C321.2572386 136.64258448 319.66353773 135.9833499 318.09967041 135.26069641 C312.45704433 132.70855458 306.67171896 131.29357934 300.63873291 130.01069641 C299.8583667 129.83538391 299.07800049 129.66007141 298.27398682 129.47944641 C290.29642687 127.88554118 282.35848595 128.10185217 274.26373291 128.26069641 C274.27420654 127.08563538 274.28468018 125.91057434 274.29547119 124.6999054 C274.33181508 120.31842627 274.35468559 115.93696033 274.37359619 111.55537415 C274.38362106 109.66309871 274.39724446 107.77083863 274.41461182 105.87861633 C274.43901513 103.15046891 274.45025136 100.42252726 274.45904541 97.69429016 C274.46936798 96.85546799 274.47969055 96.01664581 274.49032593 95.15240479 C274.49139254 89.50168331 274.37846796 83.78553194 270.59185791 79.26460266 C263.69941181 74.48393986 257.45613836 74.6314078 249.26373291 75.26069641 C249.2985376 74.17401672 249.2985376 74.17401672 249.33404541 73.06538391 C249.6487382 64.27727186 249.6487382 64.27727186 245.88873291 56.57319641 C245.08435791 55.92350891 245.08435791 55.92350891 244.26373291 55.26069641 C243.62435791 54.72444641 242.98498291 54.18819641 242.32623291 53.63569641 C238.25967743 50.92465943 234.30934874 51.15024025 229.51373291 51.19819641 C227.75802979 51.21173157 227.75802979 51.21173157 225.96685791 51.22554016 C225.07482666 51.23714172 224.18279541 51.24874329 223.26373291 51.26069641 C223.32174072 50.09151672 223.37974854 48.92233704 223.43951416 47.71772766 C223.4864274 46.16959061 223.53192589 44.62141024 223.57623291 43.07319641 C223.61812744 42.30427063 223.66002197 41.53534485 223.70318604 40.74311829 C223.79207647 36.60082411 223.67452261 34.80916426 221.11920166 31.39741516 C214.46037031 26.41467816 209.47027991 25.82687486 201.37702942 25.87974548 C199.72903466 25.87272553 199.72903466 25.87272553 198.04774708 25.86556375 C194.36514377 25.8535948 190.68291127 25.86307877 187.00030518 25.87251282 C184.36055413 25.86844794 181.72082865 25.86321507 179.08108521 25.85658264 C172.654579 25.84324731 166.22817795 25.84612226 159.80166764 25.85482056 C154.57779608 25.86159809 149.35395397 25.86251353 144.13007927 25.85924911 C143.01447201 25.85855957 143.01447201 25.85855957 141.87632723 25.85785609 C140.36538354 25.8568969 138.85443986 25.85592426 137.3434962 25.85493831 C123.1771283 25.84638485 109.01081865 25.85621755 94.8444603 25.87233941 C82.69341717 25.8857398 70.54246003 25.88341674 58.39141846 25.86958313 C44.27699634 25.85352177 30.16262528 25.84721173 16.0481953 25.85641992 C14.54253098 25.85737555 13.03686665 25.85831867 11.53120232 25.85924911 C10.79041157 25.85971194 10.04962081 25.86017477 9.28638186 25.86065162 C4.07029375 25.86324005 -1.14576193 25.85887363 -6.36184502 25.85181046 C-12.72077476 25.84338895 -19.07959342 25.8456891 -25.43851047 25.86165269 C-28.68194392 25.86952718 -31.92515443 25.87102133 -35.16859245 25.86270523 C-38.68677327 25.854516 -42.20443243 25.86478049 -45.72257996 25.87974548 C-46.74476244 25.87305332 -47.76694492 25.86636115 -48.82010263 25.8594662 C-55.64195184 25.91580594 -60.54448514 26.75902948 -66.04876709 31.07319641 Z " fill="#00BA19" transform="translate(95.73626708984375,-0.2606964111328125)"/>
<path d="M0 0 C1.64587806 -0.00785502 1.64587806 -0.00785502 3.32500619 -0.01586872 C7.00285571 -0.03087419 10.68056617 -0.03157401 14.35844421 -0.03224182 C16.99494509 -0.03986289 19.63143429 -0.04824156 22.26792908 -0.0574646 C29.43117219 -0.08028473 36.59438562 -0.08823178 43.75766015 -0.09329104 C48.23262169 -0.09655112 52.70757467 -0.10307542 57.18253136 -0.11029243 C69.57934065 -0.12985339 81.976142 -0.14626091 94.37296772 -0.14916897 C95.16578036 -0.14935654 95.95859301 -0.14954411 96.77543027 -0.14973736 C98.38255258 -0.15010361 99.98967489 -0.1504673 101.59679721 -0.15082847 C102.39454209 -0.15101128 103.19228697 -0.1511941 104.01420593 -0.15138245 C104.8129275 -0.151563 105.61164907 -0.15174354 106.43457433 -0.15192956 C119.3774067 -0.15547141 132.32007272 -0.18249666 145.2628474 -0.21988034 C158.55994564 -0.2579793 171.85696135 -0.27732655 185.15411538 -0.27762848 C192.61645102 -0.27821264 200.07858811 -0.28667825 207.54087257 -0.31562614 C213.89465897 -0.34016121 220.2481744 -0.34740866 226.60199539 -0.33237862 C229.84178111 -0.32521848 233.08092177 -0.32875956 236.32066917 -0.34878922 C239.83843186 -0.36921033 243.35481349 -0.35871907 246.87255859 -0.34057617 C247.88891539 -0.35377614 248.90527219 -0.36697611 249.95242769 -0.38057607 C256.68954659 -0.30133404 261.72960003 1.10786622 267.12675476 5.27415466 C269.15796183 8.32096527 269.37335351 8.8753379 269.32206726 12.28587341 C269.31562195 13.04319763 269.30917664 13.80052185 269.30253601 14.58079529 C269.2857782 15.36647888 269.26902039 16.15216248 269.25175476 16.96165466 C269.24273132 17.75893982 269.23370789 18.55622498 269.22441101 19.37767029 C269.20087061 21.34329367 269.16500023 23.30876241 269.12675476 25.27415466 C270.44739929 25.23934998 270.44739929 25.23934998 271.79472351 25.20384216 C272.95616882 25.18579529 274.11761414 25.16774841 275.31425476 25.14915466 C276.46280945 25.12595154 277.61136414 25.10274841 278.79472351 25.07884216 C283.97522597 25.38250585 287.8644432 27.39421442 292.12675476 30.27415466 C295.13778741 34.79070364 295.25357857 38.74777848 295.18925476 44.08665466 C295.18023132 45.06247498 295.17120789 46.03829529 295.16191101 47.04368591 C295.14450867 48.14776794 295.14450867 48.14776794 295.12675476 49.27415466 C296.0329657 49.20454529 296.93917664 49.13493591 297.87284851 49.06321716 C305.26941586 48.73448084 310.30891613 49.01516508 316.45487976 53.27806091 C320.78428242 58.44704399 320.40067005 65.32040899 320.32206726 71.70774841 C320.31782242 73.02465416 320.31782242 73.02465416 320.31349182 74.36816406 C320.30237074 77.14947111 320.27728148 79.9304463 320.25175476 82.71165466 C320.24171451 84.60683228 320.2325905 86.50201498 320.22441101 88.39720154 C320.20245791 93.02297884 320.16798436 97.64851064 320.12675476 102.27415466 C321.65368958 102.23608704 321.65368958 102.23608704 323.21147156 102.19725037 C331.73307289 102.04899613 339.60416549 102.47540508 347.93925476 104.46165466 C348.92554871 104.6865155 349.91184265 104.91137634 350.92802429 105.14305115 C357.77455576 106.77379936 363.91166487 108.95210661 370.12675476 112.27415466 C371.68565292 112.92863422 373.2481249 113.57467412 374.81425476 114.21165466 C378.71094097 115.92647543 381.89672134 118.14440552 385.20487976 120.80931091 C387.14988428 122.35405749 387.14988428 122.35405749 389.54472351 123.68431091 C392.38606226 125.43381904 394.71723689 127.41020185 397.18925476 129.64915466 C398.02585632 130.39938904 398.86245789 131.14962341 399.72441101 131.92259216 C402.09405143 134.24214263 404.06683995 136.68018786 406.12675476 139.27415466 C406.92855164 140.06048279 407.73034851 140.84681091 408.55644226 141.65696716 C411.4734128 144.62713473 413.84878386 147.76148009 416.25175476 151.14915466 C416.89564148 152.02893982 416.89564148 152.02893982 417.55253601 152.92649841 C420.38675519 156.89440526 422.30843172 160.75206432 424.12675476 165.27415466 C424.5379657 166.07337341 424.94917664 166.87259216 425.37284851 167.69602966 C437.46432756 191.32396905 436.86372453 222.54879415 429.12675476 247.27415466 C424.41933772 261.31897239 417.11441018 279.03198873 404.12675476 287.27415466 C400.87675476 287.89915466 400.87675476 287.89915466 398.12675476 287.27415466 C396.18925476 285.71165466 396.18925476 285.71165466 395.12675476 283.27415466 C394.99349221 279.80932833 395.24423641 277.3890521 397.44706726 274.60618591 C398.00136414 274.0222406 398.55566101 273.43829529 399.12675476 272.83665466 C406.6959723 264.82954851 412.2889957 253.86845516 415.12675476 243.27415466 C414.42550476 243.23677185 413.72425476 243.19938904 413.00175476 243.16087341 C411.57862976 243.06226013 411.57862976 243.06226013 410.12675476 242.96165466 C409.19862976 242.90364685 408.27050476 242.84563904 407.31425476 242.78587341 C404.02181938 242.25730842 401.30369819 241.29798067 398.2195282 240.07859802 C394.7892294 238.7600219 391.27709722 237.74258968 387.75175476 236.71165466 C387.06081726 236.50347107 386.36987976 236.29528748 385.65800476 236.08079529 C381.87790504 234.96838587 378.11831838 234.04416598 374.24784851 233.30149841 C368.93476758 232.27900599 363.76884632 230.86797806 358.56425476 229.39915466 C349.13599914 226.78148566 339.67926521 224.39331227 330.12675476 222.27415466 C329.19347351 222.03438904 328.26019226 221.79462341 327.29862976 221.54759216 C326.22355164 221.4122406 326.22355164 221.4122406 325.12675476 221.27415466 C322.91817816 223.14923628 322.91817816 223.14923628 321.12675476 225.27415466 C320.46675476 225.27415466 319.80675476 225.27415466 319.12675476 225.27415466 C318.87925476 225.85165466 318.63175476 226.42915466 318.37675476 227.02415466 C316.94375488 229.60355446 315.342508 231.33537058 313.12675476 233.27415466 C312.46675476 233.27415466 311.80675476 233.27415466 311.12675476 233.27415466 C310.85798523 233.86744568 310.5892157 234.46073669 310.31230164 235.07200623 C309.12384744 237.279555 307.91933087 238.73958348 306.15800476 240.50852966 C305.30142273 241.36897888 305.30142273 241.36897888 304.42753601 242.24681091 C303.8332782 242.83333435 303.23902039 243.41985779 302.62675476 244.02415466 C302.03249695 244.62614685 301.43823914 245.22813904 300.82597351 245.84837341 C299.96939148 246.70108826 299.96939148 246.70108826 299.09550476 247.57102966 C298.57407898 248.09019958 298.0526532 248.60936951 297.51542664 249.14427185 C296.12675476 250.27415466 296.12675476 250.27415466 294.12675476 250.27415466 C293.85798523 250.86744568 293.5892157 251.46073669 293.31230164 252.07200623 C292.12384744 254.279555 290.91933087 255.73958348 289.15800476 257.50852966 C288.58695007 258.08216248 288.01589539 258.65579529 287.42753601 259.24681091 C286.8332782 259.83333435 286.23902039 260.41985779 285.62675476 261.02415466 C285.03249695 261.62614685 284.43823914 262.22813904 283.82597351 262.84837341 C282.96939148 263.70108826 282.96939148 263.70108826 282.09550476 264.57102966 C281.57407898 265.09019958 281.0526532 265.60936951 280.51542664 266.14427185 C279.12675476 267.27415466 279.12675476 267.27415466 277.12675476 267.27415466 C276.85798523 267.86744568 276.5892157 268.46073669 276.31230164 269.07200623 C275.12384744 271.279555 273.91933087 272.73958348 272.15800476 274.50852966 C271.58695007 275.08216248 271.01589539 275.65579529 270.42753601 276.24681091 C269.8332782 276.83333435 269.23902039 277.41985779 268.62675476 278.02415466 C268.03249695 278.62614685 267.43823914 279.22813904 266.82597351 279.84837341 C265.96939148 280.70108826 265.96939148 280.70108826 265.09550476 281.57102966 C264.57407898 282.09019958 264.0526532 282.60936951 263.51542664 283.14427185 C262.12675476 284.27415466 262.12675476 284.27415466 260.12675476 284.27415466 C261.61244463 288.62370725 264.84568274 290.27585056 268.62675476 292.46165466 C269.22101257 292.81679138 269.81527039 293.1719281 270.42753601 293.53782654 C272.63093807 294.84842799 274.83312057 296.12733757 277.12675476 297.27415466 C277.12675476 297.93415466 277.12675476 298.59415466 277.12675476 299.27415466 C277.96206726 299.42110779 277.96206726 299.42110779 278.81425476 299.57102966 C282.83228211 300.35834583 285.98194347 301.19657718 289.62675476 303.14915466 C305.40459844 311.33025879 327.10360802 311.91993543 344.06425476 307.71165466 C346.43727409 306.95598528 348.79111325 306.13846692 351.12675476 305.27415466 C351.90260925 304.99023865 352.67846375 304.70632263 353.47782898 304.4138031 C362.40444149 301.78983427 362.40444149 301.78983427 370.12675476 297.27415466 C372.79734327 297.13300305 375.45107714 297.23168359 378.12675476 297.27415466 C380.22104937 300.6773834 380.46381684 303.3136752 380.12675476 307.27415466 C377.9148203 310.59205636 377.15815638 310.90120227 373.56425476 312.21165466 C370.28852583 313.42236408 367.13405402 314.74178791 363.97831726 316.23118591 C358.81116225 318.54135336 353.58267285 319.83280575 348.06425476 321.02415466 C347.14193054 321.24458435 346.21960632 321.46501404 345.26933289 321.69212341 C339.354314 322.99044385 333.76161475 323.40146905 327.73442078 323.33372498 C326.63221569 323.32727463 326.63221569 323.32727463 325.50774384 323.32069397 C323.7140482 323.30957254 321.92039124 323.2924822 320.12675476 323.27415466 C320.14229904 324.12082703 320.15784332 324.96749939 320.17385864 325.83982849 C320.31447303 333.84274233 320.42087085 341.84523777 320.48943996 349.84910583 C320.5258789 353.96349545 320.57525262 358.07685928 320.65483093 362.19065857 C320.73123273 366.16540002 320.77281522 370.13915885 320.79089546 374.11457825 C320.80376918 375.62647461 320.82890998 377.13832083 320.86686516 378.64979553 C321.18771853 391.96394547 321.18771853 391.96394547 316.74809265 397.10227966 C315.571741 398.19369314 314.36686853 399.25577143 313.12675476 400.27415466 C312.26050476 401.14040466 311.39425476 402.00665466 310.50175476 402.89915466 C309.71800476 403.68290466 308.93425476 404.46665466 308.12675476 405.27415466 C307.36362976 406.22290466 306.60050476 407.17165466 305.81425476 408.14915466 C303.20564516 411.35025603 300.17990668 413.93593263 297.04862976 416.61399841 C293.8310089 419.39344732 290.8949536 422.26754928 288.31425476 425.64915466 C285.81516151 428.64806657 283.04139844 431.0437458 280.08378601 433.57884216 C276.85750011 436.37366868 273.90530573 439.25398443 271.31425476 442.64915466 C268.81720524 445.64561409 266.05158964 448.04004802 263.08769226 450.56321716 C261.40575443 452.03072468 259.85318972 453.53560468 258.31425476 455.14915466 C254.31403674 459.03508074 249.90739234 458.42487721 244.65759277 458.42805481 C243.78271027 458.43243706 242.90782776 458.43681932 242.00643367 458.44133437 C239.06322149 458.45473112 236.12003926 458.46090321 233.17680359 458.46702576 C231.07114018 458.47492603 228.96547813 458.48319494 226.8598175 458.49180603 C219.93448684 458.51803483 213.00915011 458.53333458 206.08378601 458.54759216 C203.70069055 458.5529515 201.31759512 458.55832901 198.93449974 458.56372452 C189.02210546 458.58535453 179.10971282 458.60409156 169.19730091 458.61534691 C154.98698334 458.631588 140.77693912 458.66476857 126.5667246 458.72174776 C116.57766203 458.76043695 106.58867261 458.77997841 96.59953707 458.78526747 C90.63224148 458.7889223 84.66523739 458.80095807 78.69802284 458.83337021 C73.08289574 458.86343249 67.46823681 458.86976897 61.85304642 458.85798645 C59.79392566 458.85776556 57.7347833 458.86608298 55.67573738 458.88364029 C52.86020747 458.90633816 50.04637429 458.89803398 47.23083496 458.88215637 C46.41963017 458.89603846 45.60842538 458.90992055 44.77263862 458.9242233 C38.79828594 458.84144504 34.76836731 457.03404746 30.12675476 453.27415466 C25.77125623 447.8297815 26.86137161 440.8989045 27.12675476 434.27415466 C26.11355164 434.32056091 25.10034851 434.36696716 24.05644226 434.41477966 C22.70490944 434.45232224 21.35334448 434.48871973 20.00175476 434.52415466 C19.33659851 434.55767029 18.67144226 434.59118591 17.98612976 434.62571716 C12.87786783 434.72587916 10.01524653 433.54484868 6.12675476 430.27415466 C6.12675476 429.61415466 6.12675476 428.95415466 6.12675476 428.27415466 C5.46675476 428.27415466 4.80675476 428.27415466 4.12675476 428.27415466 C0.08175656 422.37519895 0.849265 416.20112138 1.12675476 409.27415466 C0.2695282 409.32056091 -0.58769836 409.36696716 -1.47090149 409.41477966 C-13.45069473 409.79294676 -13.45069473 409.79294676 -18.87324524 405.27415466 C-25.2184577 398.53567706 -24.57130708 390.4522884 -24.4947052 381.78109741 C-24.49903702 380.19525126 -24.50555557 378.60940984 -24.51406527 377.02358061 C-24.53103536 372.67676284 -24.51689067 368.33052228 -24.49755049 363.98373497 C-24.48211171 359.29178721 -24.49552837 354.59990964 -24.5052948 349.90795898 C-24.51981766 340.72106541 -24.50759124 331.53439291 -24.48618156 322.34752028 C-24.46216565 311.64952588 -24.46388628 300.95158207 -24.46648747 290.25356669 C-24.47017731 271.16655206 -24.44935447 252.07964157 -24.41523743 232.99266052 C-24.38214166 214.47017281 -24.36797997 195.94779439 -24.3742218 177.42527771 C-24.3809853 157.25552304 -24.37852708 137.08581414 -24.3588624 116.91606623 C-24.35782291 115.84958855 -24.35678343 114.78311088 -24.35571244 113.6843157 C-24.35362155 111.54234198 -24.35151057 109.40036829 -24.34937927 107.25839461 C-24.34248301 99.80058499 -24.34181447 92.34278948 -24.34326172 84.88497734 C-24.34470118 75.79773162 -24.33501493 66.71057504 -24.31131536 57.6233589 C-24.29945278 52.98656439 -24.29233198 48.34989414 -24.29815292 43.71308517 C-24.30332384 39.46868226 -24.29463976 35.2245419 -24.27487832 30.98018391 C-24.27013783 29.44464967 -24.2704395 27.90908988 -24.27628869 26.37355947 C-24.28347424 24.28546588 -24.27218917 22.19824129 -24.25635529 20.11021328 C-24.25399848 18.37095393 -24.25399848 18.37095393 -24.25159407 16.59655803 C-23.69719885 11.72823444 -22.11477527 7.85817573 -19.06074524 3.96165466 C-13.34894435 -0.44459174 -6.87176694 -0.016222 0 0 Z M40.12675476 64.27415466 C40.02890895 66.29662666 40.0030424 68.32258333 40.00370693 70.34742069 C40.00255309 70.99184491 40.00139924 71.63626913 40.00021043 72.30022135 C39.9975375 74.48638692 40.00207144 76.67248065 40.00650024 78.85864258 C40.00606468 80.43105475 40.00519005 82.00346685 40.00391108 83.57587856 C40.0016632 87.91762801 40.00569137 92.25935304 40.01068914 96.60109937 C40.01498929 101.27529043 40.01354753 105.94948 40.01278687 110.62367249 C40.01226135 118.72896211 40.015411 126.83424372 40.0210247 134.93953133 C40.02913602 146.65855903 40.03175454 158.37758284 40.0330127 170.09661304 C40.0352038 189.10786284 40.04186545 208.11910836 40.05131531 227.13035583 C40.06048792 245.60301187 40.06755803 264.07566674 40.07182312 282.54832458 C40.07209112 283.69772524 40.07235911 284.84712589 40.07263523 286.03135687 C40.07471454 295.01981463 40.0766715 304.00827241 40.0785898 312.99673021 C40.08803127 357.08920895 40.10814772 401.18167699 40.12675476 445.27415466 C107.77675476 445.27415466 175.42675476 445.27415466 245.12675476 445.27415466 C245.62175476 420.02915466 245.62175476 420.02915466 246.12675476 394.27415466 C249.24553845 388.03658727 250.85131578 385.75511062 257.12675476 383.27415466 C261.04320238 382.5894272 264.87630194 382.5518833 268.84550476 382.56712341 C269.82035828 382.55250061 270.79521179 382.53787781 271.79960632 382.52281189 C275.4084069 382.47577842 279.01766024 382.47116555 282.62675476 382.46165466 C290.71175476 382.39977966 298.79675476 382.33790466 307.12675476 382.27415466 C307.12675476 362.47415466 307.12675476 342.67415466 307.12675476 322.27415466 C298.11652742 319.62638718 298.11652742 319.62638718 289.00175476 317.39915466 C284.32679511 316.28319655 280.20726033 313.93049866 275.96659851 311.72727966 C273.70661307 310.57086345 271.47685728 309.53680364 269.12675476 308.58665466 C266.41184018 307.39887954 264.44550509 306.07762715 262.12675476 304.27415466 C261.46675476 304.27415466 260.80675476 304.27415466 260.12675476 304.27415466 C260.12675476 303.61415466 260.12675476 302.95415466 260.12675476 302.27415466 C259.07487976 301.71727966 258.02300476 301.16040466 256.93925476 300.58665466 C253.43590163 298.58473859 250.88032305 296.24510993 248.12675476 293.27415466 C247.30175476 292.44915466 246.47675476 291.62415466 245.62675476 290.77415466 C244.80175476 289.94915466 243.97675476 289.12415466 243.12675476 288.27415466 C242.28112976 287.49040466 241.43550476 286.70665466 240.56425476 285.89915466 C237.74699932 282.86518727 236.05886676 279.92369956 234.12675476 276.27415466 C233.46675476 276.27415466 232.80675476 276.27415466 232.12675476 276.27415466 C231.87925476 275.59352966 231.63175476 274.91290466 231.37675476 274.21165466 C230.19564337 271.4360429 228.79354624 268.90521988 227.27128601 266.30540466 C225.05962251 262.38026807 223.11664361 258.31484733 221.12675476 254.27415466 C220.76839539 253.61415466 220.41003601 252.95415466 220.04081726 252.27415466 C219.00293726 250.00323774 218.56006477 247.91836766 218.12675476 245.46165466 C217.56476189 242.43928356 216.93140538 239.60766854 216.06425476 236.64915466 C213.84701066 228.66707591 213.943956 220.62633043 213.93925476 212.39915466 C213.92700867 211.27895935 213.91476257 210.15876404 213.90214539 209.00462341 C213.89014578 202.14884867 214.56997814 195.93754573 216.12675476 189.27415466 C216.42646179 187.51845154 216.42646179 187.51845154 216.73222351 185.72727966 C218.19712536 177.66540369 220.77777664 171.33421031 224.70097351 164.23509216 C226.415989 161.22122099 226.415989 161.22122099 226.12675476 157.27415466 C226.78675476 157.27415466 227.44675476 157.27415466 228.12675476 157.27415466 C229.54702147 155.49312314 229.54702147 155.49312314 230.93925476 153.21165466 C231.46905945 152.39181091 231.99886414 151.57196716 232.54472351 150.72727966 C233.32782898 149.51298279 233.32782898 149.51298279 234.12675476 148.27415466 C236.83850075 144.26481102 239.64158044 140.64690401 243.12675476 137.27415466 C244.08581726 136.00571716 244.08581726 136.00571716 245.06425476 134.71165466 C247.24867184 132.13007085 249.23119402 130.96911705 252.12675476 129.27415466 C252.99300476 128.40790466 253.85925476 127.54165466 254.75175476 126.64915466 C257.12675476 124.27415466 257.12675476 124.27415466 260.12675476 123.27415466 C260.12675476 122.61415466 260.12675476 121.95415466 260.12675476 121.27415466 C260.84862976 121.02665466 261.57050476 120.77915466 262.31425476 120.52415466 C265.20727255 119.3943991 265.20727255 119.3943991 267.50175476 117.27415466 C270.71357238 114.82705553 273.22476523 114.19226985 277.12675476 113.27415466 C277.12675476 112.61415466 277.12675476 111.95415466 277.12675476 111.27415466 C277.80737976 111.17102966 278.48800476 111.06790466 279.18925476 110.96165466 C282.22050037 110.35314816 282.22050037 110.35314816 285.22050476 108.86790466 C289.53855899 106.98099044 293.9647553 106.03916986 298.56425476 105.08665466 C299.39118835 104.90940857 300.21812195 104.73216248 301.07011414 104.54954529 C303.08764363 104.11805054 305.10701872 103.69520017 307.12675476 103.27415466 C307.15140251 97.73826933 307.16958972 92.20241566 307.1816864 86.66648865 C307.1867272 84.78171737 307.19355974 82.89695002 307.20219421 81.01219177 C307.21427093 78.30913831 307.21998545 75.60613635 307.22441101 72.90306091 C307.2295723 72.05514481 307.23473358 71.2072287 307.24005127 70.33361816 C307.24024671 68.31344398 307.18881687 66.29337532 307.12675476 64.27415466 C305.56205329 62.7094532 304.04369001 63.14875284 301.86789703 63.14831352 C300.48118577 63.1444019 300.48118577 63.1444019 299.06646013 63.14041126 C298.0389538 63.14264198 297.01144746 63.1448727 295.95280457 63.14717102 C294.87051433 63.14561103 293.7882241 63.14405104 292.67313719 63.14244378 C289.01638682 63.13842867 285.35967737 63.14162539 281.70292664 63.14476013 C279.09359716 63.14340632 276.48426788 63.1416265 273.87493896 63.13945007 C267.50527042 63.13499172 261.13561362 63.13596913 254.7659446 63.13886271 C249.59149016 63.14111649 244.41703902 63.14142938 239.24258423 63.1403389 C238.14001445 63.14010905 238.14001445 63.14010905 237.01517054 63.13987456 C235.52217281 63.13955485 234.02917507 63.13923063 232.53617734 63.13890196 C218.5197778 63.13604698 204.5033848 63.13933448 190.48698634 63.14470233 C178.44714676 63.14917039 166.40731682 63.14839446 154.36747742 63.14378357 C140.40295201 63.13843813 126.43843233 63.13632167 112.47390604 63.13939583 C110.98624579 63.1397144 109.49858554 63.14002877 108.01092529 63.1403389 C106.91284501 63.14057031 106.91284501 63.14057031 105.79258129 63.1408064 C100.6213325 63.14167165 95.45008734 63.14020852 90.27883911 63.13785934 C83.32520314 63.13477007 76.37158575 63.13695362 69.41795158 63.1427536 C66.85763009 63.14408199 64.29730706 63.14368576 61.73698616 63.14149094 C58.25820458 63.13878251 54.77948267 63.14215678 51.30070496 63.14717102 C50.27319862 63.1449403 49.24569228 63.14270958 48.18704939 63.14041126 C47.26257521 63.14301901 46.33810103 63.14562675 45.38561249 63.14831352 C44.17948453 63.14855705 44.17948453 63.14855705 42.94899035 63.1488055 C41.1068682 63.07507007 41.1068682 63.07507007 40.12675476 64.27415466 Z " fill="#FCFEFC" transform="translate(49.87324523925781,25.725845336914063)"/>
<path d="M0 0 C0.92447418 -0.00260775 1.84894835 -0.00521549 2.8014369 -0.00790226 C3.82894324 -0.00567154 4.85644958 -0.00344082 5.91509247 -0.0011425 C6.9973827 -0.00270249 8.07967294 -0.00426248 9.19475985 -0.00586975 C12.85151021 -0.00988486 16.50821966 -0.00668813 20.1649704 -0.00355339 C22.77429987 -0.00490721 25.38362915 -0.00668702 27.99295807 -0.00886345 C34.36262662 -0.0133218 40.73228342 -0.01234439 47.10195243 -0.00945081 C52.27640688 -0.00719703 57.45085801 -0.00688414 62.62531281 -0.00797462 C63.36035932 -0.00812786 64.09540584 -0.00828109 64.85272649 -0.00843897 C66.34572423 -0.00875868 67.83872196 -0.00908289 69.3317197 -0.00941156 C83.34811923 -0.01226654 97.36451223 -0.00897904 111.38091069 -0.00361119 C123.42075027 0.00085686 135.46058021 0.00008094 147.50041962 -0.00452995 C161.46494503 -0.00987539 175.4294647 -0.01199185 189.39399099 -0.00891769 C190.88165124 -0.00859912 192.36931149 -0.00828475 193.85697174 -0.00797462 C194.58902526 -0.00782035 195.32107878 -0.00766607 196.07531574 -0.00750712 C201.24656453 -0.00664188 206.4178097 -0.00810501 211.58905792 -0.01045418 C218.5426939 -0.01354345 225.49631129 -0.0113599 232.44994545 -0.00555992 C235.01026695 -0.00423153 237.57058997 -0.00462776 240.13091087 -0.00682259 C243.60969246 -0.00953102 247.08841436 -0.00615674 250.56719208 -0.0011425 C251.59469841 -0.00337322 252.62220475 -0.00560395 253.68084764 -0.00790226 C255.06755891 -0.00399064 255.06755891 -0.00399064 256.48228455 0 C257.28636985 0.00016235 258.09045516 0.0003247 258.91890669 0.00049198 C260.74114227 0.12584114 260.74114227 0.12584114 261.74114227 1.12584114 C261.81340729 2.97871616 261.82495447 4.83417992 261.80364227 6.68834114 C261.79461884 7.7002552 261.7855954 8.71216927 261.77629852 9.75474739 C261.75889618 10.9284388 261.75889618 10.9284388 261.74114227 12.12584114 C260.93477168 12.12822949 260.12840109 12.13061785 259.29759502 12.13307858 C239.69357772 12.19216691 220.08968699 12.26767721 200.48580456 12.36155605 C191.00558011 12.40655716 181.5253936 12.44596179 172.04509735 12.47227669 C163.78385401 12.49522191 155.52273027 12.52858077 147.26158172 12.5745427 C142.88573374 12.598522 138.51000456 12.61721984 134.13409233 12.62345505 C130.01775336 12.62948473 125.90171853 12.64940722 121.78549194 12.68011665 C120.2725822 12.688931 118.75963277 12.69261247 117.24669838 12.6908493 C115.18485514 12.68920471 113.12394812 12.70582389 111.06223297 12.72711372 C109.90722636 12.73172269 108.75221975 12.73633165 107.56221294 12.74108028 C104.74759901 12.90314962 104.74759901 12.90314962 102.8616991 14.45935535 C101.15268558 17.0009906 101.487591 19.14661369 101.74114227 22.12584114 C102.23614227 23.11584114 102.23614227 23.11584114 102.74114227 24.12584114 C103.68850722 24.13007308 104.63587217 24.13430502 105.61194515 24.1386652 C128.62839025 24.24170795 151.64480308 24.35043666 174.66119289 24.4651804 C185.7915916 24.52053622 196.92199351 24.57402203 208.05242157 24.62315559 C217.74996459 24.6659686 227.44748378 24.71223919 237.14499003 24.76271969 C242.28310659 24.78934394 247.42121835 24.8141975 252.55936241 24.83491516 C257.38965991 24.85444606 262.21991195 24.87857898 267.05016899 24.90633202 C268.82839129 24.91572132 270.60662359 24.92338978 272.38486099 24.92926025 C274.80180312 24.93748966 277.21863397 24.95175708 279.63553619 24.96762276 C280.34855784 24.96860086 281.06157948 24.96957897 281.79620785 24.97058672 C286.62702106 25.01171993 286.62702106 25.01171993 287.74114227 26.12584114 C287.81319739 27.8119308 287.82500295 29.50084773 287.80364227 31.18834114 C287.79461884 32.1074427 287.7855954 33.02654427 287.77629852 33.97349739 C287.75889618 35.03890755 287.75889618 35.03890755 287.74114227 36.12584114 C285.8617897 36.12942367 285.8617897 36.12942367 283.94447041 36.13307858 C254.21092228 36.19042393 224.47745519 36.26314411 194.74399497 36.35482742 C191.08524819 36.36609574 187.42650102 36.37723417 183.7677536 36.38829231 C183.03935515 36.390496 182.3109567 36.39269968 181.56048556 36.39497014 C169.76246372 36.43035381 157.96444195 36.4552119 146.1663867 36.47618816 C134.06275722 36.49794171 121.95919667 36.53098785 109.85562581 36.5745427 C102.38554917 36.60106717 94.91555844 36.61875666 87.44543704 36.62518718 C81.71976574 36.63105897 75.99423725 36.65263334 70.26863289 36.68011665 C67.91802578 36.68892885 65.56739314 36.69261292 63.21677017 36.6908493 C60.01281826 36.68920408 56.80946803 36.70583218 53.60559845 36.72711372 C52.67077127 36.72226615 51.7359441 36.71741857 50.77278882 36.7124241 C45.84951899 36.76656632 42.83768822 37.11721935 38.74114227 40.12584114 C38.08114227 40.12584114 37.42114227 40.12584114 36.74114227 40.12584114 C36.43176727 40.74459114 36.12239227 41.36334114 35.80364227 42.00084114 C35.11614227 43.37584114 34.42864227 44.75084114 33.74114227 46.12584114 C33.6413005 48.08516568 33.60723557 50.04794664 33.60247707 52.00980759 C33.59700263 53.27129549 33.59152819 54.53278339 33.58588785 55.83249819 C33.58481151 57.24543414 33.58382684 58.65837016 33.58292389 60.07130623 C33.57836102 61.56208663 33.57336141 63.05286575 33.56796032 64.54364336 C33.55433844 68.65508999 33.54694918 72.76652833 33.54053366 76.87799168 C33.53254745 81.30609235 33.51884359 85.73417566 33.50582123 90.16226387 C33.48403316 97.8391802 33.46589722 105.51609827 33.45021629 113.1930294 C33.42753884 124.29269068 33.3993931 135.39233274 33.36989702 146.49197774 C33.322195 164.49882998 33.27893791 182.50569007 33.23845673 200.51255989 C33.19911506 218.00833433 33.15769204 235.5041018 33.11345673 252.99986458 C33.11073245 254.07764453 33.10800818 255.15542449 33.10520136 256.26586445 C33.0915221 261.67257299 33.07780178 267.07928142 33.06406105 272.48598981 C32.95005529 317.36592575 32.84332875 362.24587685 32.74114227 407.12584114 C28.45114227 407.12584114 24.16114227 407.12584114 19.74114227 407.12584114 C19.71835395 358.6057158 19.70064516 310.08559113 19.69007694 261.56546149 C19.68882616 255.84364467 19.68753185 250.12182786 19.68621063 244.40001106 C19.68594832 243.26084914 19.68568601 242.12168723 19.68541575 240.94800525 C19.68105858 222.47704635 19.67317077 204.00609055 19.66398948 185.53513349 C19.65465425 166.59725104 19.64908694 147.65937021 19.64705378 128.72148556 C19.64567828 117.02578477 19.64132623 105.33009273 19.63322581 93.63439464 C19.62795997 85.6258128 19.62633761 77.61723551 19.6276409 69.60865206 C19.62828453 64.98078822 19.62726391 60.35293973 19.6219368 55.72507858 C19.61710348 51.49556812 19.61680317 47.26608345 19.62024338 43.03657185 C19.62066914 41.49955159 19.61937284 39.96252978 19.61625909 38.42551262 C19.61229608 36.35001175 19.61437825 34.2746063 19.61809444 32.19910717 C19.61771472 31.04209932 19.617335 29.88509148 19.61694378 28.69302279 C19.74114227 26.12584114 19.74114227 26.12584114 20.74114227 25.12584114 C22.39758594 25.00293396 24.0591322 24.94800206 25.71990204 24.92051888 C26.78092636 24.90057365 27.84195068 24.88062843 28.93512726 24.86007881 C30.08927628 24.84336632 31.24342529 24.82665382 32.43254852 24.80943489 C34.19501167 24.77826324 34.19501167 24.77826324 35.99308014 24.74646187 C39.76320551 24.6808399 43.53340309 24.62202284 47.30364227 24.56334114 C49.852478 24.52016794 52.40130631 24.47655406 54.95012665 24.43248177 C61.21372119 24.32514569 67.47738828 24.22340324 73.74114227 24.12584114 C75.15556101 21.29700367 75.06014559 19.25207369 74.74114227 16.12584114 C71.8404331 13.2936839 69.72244317 12.74648309 65.73235321 12.72178841 C64.73741852 12.70910423 63.74248383 12.69642006 62.7173996 12.68335152 C61.64757843 12.68628716 60.57775726 12.68922279 59.47551727 12.69224739 C57.8144696 12.68438461 57.8144696 12.68438461 56.11986542 12.67636299 C53.77634774 12.66994016 51.43279783 12.67128312 49.0892868 12.67979622 C45.51822006 12.68827684 41.94876855 12.65959373 38.37786102 12.62779427 C36.09791358 12.62618133 33.81796333 12.62676155 31.53801727 12.62974739 C30.47629303 12.61851341 29.41456879 12.60727943 28.32067108 12.59570503 C21.98407527 12.65470328 16.83676829 13.12641203 11.74114227 17.12584114 C6.90686575 24.30311068 7.1721904 31.2170411 7.22216034 39.64097786 C7.21628013 41.12044375 7.20865049 42.59990354 7.19942927 44.07935238 C7.17920638 48.13174724 7.18371307 52.18379128 7.1923368 56.23621345 C7.1972867 60.61106847 7.17919044 64.98583595 7.16391754 69.36065865 C7.14061417 76.93600161 7.13185661 84.51124886 7.13302612 92.08662605 C7.13469593 103.039277 7.11435482 113.99180043 7.08867082 124.94441736 C7.04759503 142.71500944 7.02427822 160.48557856 7.01213837 178.25621223 C7.00030877 195.51697686 6.98010989 212.77769828 6.9486618 230.0384388 C6.9467257 231.10269443 6.9447896 232.16695006 6.94279483 233.26345587 C6.9330302 238.60260449 6.9231011 243.94175279 6.91309023 249.28090096 C6.83027517 293.56252661 6.77628497 337.84415372 6.74114227 382.12584114 C4.92872176 382.15271393 3.11618994 382.1721783 1.30364227 382.18834114 C0.29430634 382.1999427 -0.7150296 382.21154427 -1.75495148 382.22349739 C-4.25885773 382.12584114 -4.25885773 382.12584114 -5.25885773 381.12584114 C-5.35759981 379.10953651 -5.38441472 377.08970675 -5.38469887 375.07098579 C-5.38615231 374.42854955 -5.38760575 373.7861133 -5.38910323 373.12420928 C-5.39278856 370.94479853 -5.38926519 368.76545661 -5.38584137 366.58604622 C-5.38699219 365.01847135 -5.38857945 363.45089675 -5.39056861 361.88332272 C-5.39476731 357.55490738 -5.39266883 353.22651391 -5.3895824 348.89809847 C-5.3873307 344.23820181 -5.39080675 339.57830906 -5.39356232 334.91841316 C-5.39802149 325.78144694 -5.3970429 316.6444889 -5.39414968 307.50752234 C-5.39189622 300.08526082 -5.39158287 292.66300159 -5.39267349 285.24073982 C-5.39290334 283.65942023 -5.39290334 283.65942023 -5.39313783 282.0461548 C-5.39345754 279.90490206 -5.39378176 277.76364932 -5.39411043 275.62239659 C-5.39696565 255.51845863 -5.39367753 235.41452522 -5.38831006 215.310588 C-5.38384198 198.04034458 -5.3846179 180.77010788 -5.38922882 163.49986458 C-5.39457384 143.47050268 -5.39669095 123.44114478 -5.39361656 103.41178226 C-5.39329799 101.278169 -5.39298362 99.14455573 -5.39267349 97.01094246 C-5.39251922 95.96101626 -5.39236494 94.91109006 -5.39220599 93.82934791 C-5.39134062 86.41138317 -5.39280415 78.99342096 -5.39515305 71.57545662 C-5.39795044 62.54207073 -5.39721407 53.50869354 -5.3918723 44.47530866 C-5.38923446 39.86161587 -5.3882316 35.24793761 -5.39152145 30.63424492 C-5.39448274 26.41772531 -5.39289443 22.2012338 -5.3875439 17.98471677 C-5.38641899 16.45243781 -5.38701251 14.9201565 -5.38941969 13.38787901 C-5.39242298 11.31878352 -5.38937995 9.24978666 -5.38469887 7.18069649 C-5.38453652 6.02726848 -5.38437416 4.87384047 -5.38420689 3.68546009 C-5.17894789 -0.50591076 -3.77452283 0.00076211 0 0 Z " fill="#05BB1E" transform="translate(44.25885772705078,38.87415885925293)"/>
<path d="M0 0 C-1.69428698 6.85782824 -4.32856903 13.1083582 -7.37670898 19.45581055 C-9.10156929 23.05272532 -10.70283097 26.64833667 -12.125 30.375 C-13.37369334 33.61731532 -14.8192469 36.55706959 -16.5625 39.5625 C-18.66736141 43.20282262 -19.961504 46.73373311 -21.18359375 50.7421875 C-22.34420016 53.95190285 -24.03284176 56.76368659 -25.81640625 59.6640625 C-27.14619933 62.0983845 -27.14619933 62.0983845 -27.93359375 65.36328125 C-29.041619 69.14193146 -30.55895311 72.14510601 -32.5 75.5625 C-35.07020952 80.08549319 -35.07020952 80.08549319 -36.79296875 84.9609375 C-38.51963679 89.30834117 -41.45546404 91.88450595 -44.8125 95.0625 C-45.42931641 95.66126953 -46.04613281 96.26003906 -46.68164062 96.87695312 C-47.89424304 98.05347385 -49.11048597 99.2262555 -50.33056641 100.39501953 C-52.5867949 102.56414005 -54.79406319 104.77985425 -57 107 C-57.97883214 107.97950108 -58.95801635 108.95865042 -59.9375 109.9375 C-60.44023437 110.44023437 -60.94296875 110.94296875 -61.4609375 111.4609375 C-83.0625 133.0625 -83.0625 133.0625 -84.56738281 134.56713867 C-85.87362748 135.87360595 -87.17904563 137.18089947 -88.484375 138.48828125 C-90.34404461 140.34506318 -92.20869489 142.19606885 -94.078125 144.04296875 C-95.13543923 145.09112308 -96.19273067 146.13930038 -97.25 147.1875 C-98.06210937 147.98704102 -98.06210937 147.98704102 -98.890625 148.80273438 C-101.80757101 151.62507537 -101.80757101 151.62507537 -104 155 C-106.7895751 154.65282581 -107.81834185 154.2052986 -109.7109375 152.06640625 C-111.49102364 149.38791982 -113.26087002 146.7053133 -115 144 C-115.51949219 143.24460937 -116.03898437 142.48921875 -116.57421875 141.7109375 C-121.1902902 134.65961576 -123.8453411 126.99624032 -126.36572266 119.00878906 C-126.90256766 117.30857325 -127.46949205 115.61789982 -128.04296875 113.9296875 C-133.11727722 96.44357286 -132.14053038 72.93857656 -123.9375 56.4375 C-122.9784375 54.7359375 -122.9784375 54.7359375 -122 53 C-121.38125 51.14375 -121.38125 51.14375 -120.75 49.25 C-117.8200522 41.10410117 -111.92235671 33.27073064 -106 27 C-105.34 27 -104.68 27 -104 27 C-103.9175 26.4225 -103.835 25.845 -103.75 25.25 C-102.774018 22.32205399 -101.36488777 20.94755463 -99 19 C-98.01 19 -97.02 19 -96 19 C-95.773125 18.40960938 -95.54625 17.81921875 -95.3125 17.2109375 C-93.62809743 14.37352126 -91.81531004 13.3285825 -89 11.625 C-88.00613281 11.02171875 -87.01226562 10.4184375 -85.98828125 9.796875 C-85.00214844 9.20390625 -84.01601563 8.6109375 -83 8 C-82.18917969 7.46890625 -81.37835938 6.9378125 -80.54296875 6.390625 C-58.08006088 -8.06312003 -24.43527707 -11.18383835 0 0 Z " fill="#01BA1A" transform="translate(406,147)"/>
<path d="M0 0 C0.87648193 -0.0066568 1.75296387 -0.0133136 2.65600586 -0.02017212 C4.50860495 -0.03029437 6.36124047 -0.03498927 8.21386719 -0.03466797 C11.05204006 -0.03904636 13.88866429 -0.07538355 16.7265625 -0.11328125 C18.52603634 -0.1191484 20.32551758 -0.12311847 22.125 -0.125 C22.97505615 -0.13937103 23.8251123 -0.15374207 24.70092773 -0.16854858 C30.4892461 -0.12351621 30.4892461 -0.12351621 33.1027832 1.97119141 C34.33278076 5.0019104 34.40176717 7.36105769 34.35546875 10.6328125 C34.34580078 11.83808594 34.33613281 13.04335938 34.32617188 14.28515625 C34.30103516 15.53941406 34.27589844 16.79367187 34.25 18.0859375 C34.22969727 19.99052734 34.22969727 19.99052734 34.20898438 21.93359375 C34.1736324 25.06813594 34.12428248 28.20182295 34.0625 31.3359375 C34.98587158 31.31499023 35.90924316 31.29404297 36.8605957 31.27246094 C40.28794323 31.20427219 43.7145698 31.15413288 47.14233398 31.11621094 C48.62552261 31.09609991 50.10863199 31.06880676 51.59155273 31.03417969 C53.72399435 30.98563398 55.85538777 30.96296555 57.98828125 30.9453125 C59.27130127 30.92436523 60.55432129 30.90341797 61.8762207 30.88183594 C65.0625 31.3359375 65.0625 31.3359375 66.74035645 32.95153809 C68.48671921 36.1009891 68.42335156 38.34492706 68.40307617 41.94042969 C68.40373329 42.92153969 68.40373329 42.92153969 68.40440369 43.92247009 C68.40231997 46.07622525 68.37901015 48.22919398 68.35546875 50.3828125 C68.34987127 51.87924779 68.34560189 53.37568859 68.34260559 54.87213135 C68.33116864 58.80465966 68.30171169 62.73685388 68.26849365 66.66925049 C68.23776778 70.68440227 68.22409489 74.69960821 68.20898438 78.71484375 C68.1768406 86.58869472 68.12565849 94.46227452 68.0625 102.3359375 C69.45662109 102.27212891 69.45662109 102.27212891 70.87890625 102.20703125 C74.0625 102.3359375 74.0625 102.3359375 77 104.3984375 C79.0625 107.3359375 79.0625 107.3359375 79.0625 111.0234375 C78.0625 114.3359375 78.0625 114.3359375 75.0625 116.3359375 C72.68709564 116.59320641 72.68709564 116.59320641 69.82458496 116.60336304 C68.73937057 116.61189301 67.65415619 116.62042297 66.53605652 116.62921143 C65.34531021 116.62830505 64.1545639 116.62739868 62.92773438 116.62646484 C61.67390457 116.63318207 60.42007477 116.63989929 59.12825012 116.64682007 C55.68817945 116.66258015 52.24835015 116.669176 48.80825996 116.67045164 C45.93782737 116.67235017 43.06741797 116.67970692 40.1969943 116.68679583 C33.42672774 116.70308229 26.65651437 116.70796444 19.88623047 116.70654297 C12.89753671 116.70534052 5.90915127 116.726462 -1.07946444 116.7580303 C-7.07698921 116.78415831 -13.07441303 116.79491178 -19.0719943 116.79363215 C-22.6553503 116.79312161 -26.23843216 116.79885536 -29.82173157 116.81998825 C-33.81552254 116.84289937 -37.80888828 116.83387101 -41.80273438 116.82177734 C-42.99348068 116.83301636 -44.18422699 116.84425537 -45.41105652 116.85583496 C-46.4962709 116.84744598 -47.58148529 116.83905701 -48.69958496 116.83041382 C-49.64421349 116.83150335 -50.58884201 116.83259289 -51.56209564 116.83371544 C-53.9375 116.3359375 -53.9375 116.3359375 -55.73752594 114.49253273 C-57.38262173 111.53596405 -57.42360633 109.66923806 -56.9375 106.3359375 C-55.375 103.9609375 -55.375 103.9609375 -52.9375 102.3359375 C-50.60506828 102.27107844 -48.26976025 102.26518048 -45.9375 102.3359375 C-45.94416183 101.70366745 -45.95082367 101.0713974 -45.95768738 100.41996765 C-46.02396147 93.85042395 -46.06926761 87.28097491 -46.10229492 80.71118164 C-46.11739881 78.25801742 -46.13788321 75.80488026 -46.16381836 73.35180664 C-46.20013057 69.82952195 -46.21721036 66.30759369 -46.23046875 62.78515625 C-46.24595261 61.68507736 -46.26143646 60.58499847 -46.27738953 59.45158386 C-46.27761612 58.43075211 -46.27784271 57.40992035 -46.27807617 56.3581543 C-46.28473801 55.45880661 -46.29139984 54.55945892 -46.29826355 53.63285828 C-45.9375 51.3359375 -45.9375 51.3359375 -44.61535645 49.54333496 C-41.85919301 47.5599801 -39.19448293 48.00217853 -35.86328125 48.04296875 C-35.1794487 48.04721359 -34.49561615 48.05145844 -33.7910614 48.05583191 C-31.61030439 48.07260397 -29.43047691 48.11025093 -27.25 48.1484375 C-25.77019565 48.16348636 -24.2903768 48.17717442 -22.81054688 48.18945312 C-19.18589664 48.22250181 -15.56178906 48.27427304 -11.9375 48.3359375 C-11.94416183 47.76408722 -11.95082367 47.19223694 -11.95768738 46.60305786 C-12.02391392 40.66625577 -12.06924751 34.7295581 -12.10229492 28.79248047 C-12.11740753 26.57498922 -12.13789826 24.35752797 -12.16381836 22.14013672 C-12.20009293 18.95793261 -12.21720139 15.77612268 -12.23046875 12.59375 C-12.24595261 11.59787872 -12.26143646 10.60200745 -12.27738953 9.57595825 C-12.27761612 8.65515472 -12.27784271 7.7343512 -12.27807617 6.78564453 C-12.28473801 5.9729007 -12.29139984 5.16015686 -12.29826355 4.32278442 C-12.17921158 3.66712494 -12.06015961 3.01146545 -11.9375 2.3359375 C-7.9968178 -0.29118397 -4.57640043 0.01198209 0 0 Z " fill="#FBFEFB" transform="translate(185.9375,309.6640625)"/>
<path d="M0 0 C16.99607238 6.73577062 29.86550825 21.6783525 39 37 C39.44085938 37.68191406 39.88171875 38.36382812 40.3359375 39.06640625 C45.03354643 46.71124116 47.43550527 55.46345115 50 64 C50.27199219 64.88558594 50.54398437 65.77117187 50.82421875 66.68359375 C53.73903068 78.28082419 53.0552382 92.54285674 50 104 C47.95749089 103.54543566 45.9160274 103.08617174 43.875 102.625 C42.73804688 102.36976563 41.60109375 102.11453125 40.4296875 101.8515625 C37 101 37 101 33.86328125 99.9453125 C31.2916734 99.09629599 28.98399604 98.62091846 26.3125 98.25 C21.06808798 97.35116015 16.1657965 95.84454316 11.125 94.1875 C3.38287988 91.64779373 -4.38504538 89.64623792 -12.32641602 87.8359375 C-20.36169346 85.97915014 -28.17759034 83.60009373 -36 81 C-33.05558427 72.8446767 -30.12507939 64.84836525 -26.08203125 57.16015625 C-25.0564756 55.11274733 -24.25626557 53.09644807 -23.5 50.9375 C-22.15936573 47.13775943 -20.27039835 43.81009572 -18.18359375 40.37109375 C-16.85790957 37.90456621 -16.85790957 37.90456621 -16.06640625 34.6328125 C-14.95786585 30.85646609 -13.44006076 27.85315782 -11.5 24.4375 C-9.17222064 20.32936397 -7.46020796 16.47991803 -6 12 C-4.9940752 9.85784927 -3.95205611 7.7322837 -2.875 5.625 C-2.33617187 4.56539062 -1.79734375 3.50578125 -1.2421875 2.4140625 C-0.83226562 1.61742187 -0.42234375 0.82078125 0 0 Z " fill="#01BA1A" transform="translate(419,153)"/>
<path d="M0 0 C1.15245712 -0.00845947 2.30491425 -0.01691895 3.49229431 -0.02563477 C5.38287315 -0.01652573 5.38287315 -0.01652573 7.31164551 -0.00723267 C8.65548631 -0.01129879 9.99932378 -0.01664089 11.34315491 -0.02316284 C14.98984794 -0.03683764 18.6362863 -0.03153725 22.28298378 -0.02202559 C26.09947012 -0.01442979 29.91593468 -0.02147437 33.73242188 -0.02618408 C40.14151931 -0.03164188 46.55051304 -0.02444944 52.95959473 -0.01016235 C60.3691608 0.00616427 67.77847923 0.00087577 75.1880393 -0.01564157 C81.54993481 -0.0292558 87.91175577 -0.03117643 94.27366114 -0.02332556 C98.07326473 -0.01864867 101.87275191 -0.01802456 105.67234802 -0.02793503 C109.24454782 -0.03660156 112.81642836 -0.03058887 116.38859367 -0.01325226 C118.32485897 -0.00739361 120.26115127 -0.01630567 122.19740295 -0.02563477 C123.34986008 -0.01717529 124.5023172 -0.00871582 125.68969727 0 C126.69109993 0.00113108 127.69250259 0.00226215 128.72425079 0.00342751 C131.78153151 0.44385948 133.16698205 1.21130026 135.34484863 3.38095093 C135.85505592 7.46260919 135.65846665 8.91052389 133.34484863 12.38095093 C130.2460966 13.41386827 128.09707219 13.51416626 124.84791565 13.52812195 C123.70524734 13.53527725 122.56257904 13.54243256 121.38528442 13.54980469 C120.13065399 13.55249359 118.87602356 13.5551825 117.58337402 13.55795288 C116.24953535 13.56421887 114.91569842 13.57086579 113.5818634 13.5778656 C109.20208955 13.59888569 104.82231542 13.60926345 100.44250488 13.61923218 C98.93474242 13.62327997 97.42698015 13.6273969 95.91921806 13.63158226 C88.8381646 13.65062642 81.75712153 13.66486122 74.67604738 13.67319423 C66.4991923 13.68297567 58.32260727 13.70932181 50.14584738 13.74969512 C43.82645372 13.77982861 37.50713763 13.79466031 31.18767351 13.79797524 C27.41256661 13.80032818 23.63774849 13.80932033 19.86271858 13.83443642 C16.31266973 13.85767528 12.76310066 13.86196771 9.21299553 13.85167503 C7.28860246 13.85094178 5.36423399 13.87006078 3.43994141 13.88973999 C2.29445328 13.88279617 1.14896515 13.87585236 -0.03123474 13.86869812 C-1.02656188 13.87108647 -2.02188902 13.87347483 -3.04737759 13.87593555 C-6.39942522 13.23967943 -7.58463697 12.04456536 -9.65515137 9.38095093 C-10.15515137 6.31845093 -10.15515137 6.31845093 -9.65515137 3.38095093 C-6.57527639 0.33415219 -4.24614186 0.00479599 0 0 Z " fill="#F6FCF7" transform="translate(137.6551513671875,136.61904907226563)"/>
<path d="M0 0 C6.6 0 13.2 0 20 0 C20 29.04 20 58.08 20 88 C13.4 88 6.8 88 0 88 C0 58.96 0 29.92 0 0 Z " fill="#00BA19" transform="translate(187,324)"/>
<path d="M0 0 C0.900103 -0.00701431 1.80020599 -0.01402863 2.72758484 -0.02125549 C3.7126149 -0.01361176 4.69764496 -0.00596802 5.71252441 0.00190735 C6.75177567 -0.00174332 7.79102692 -0.00539398 8.86177063 -0.00915527 C12.30502546 -0.01727664 15.74781204 -0.00363715 19.19104004 0.01094055 C21.5785319 0.01145897 23.96602419 0.01094199 26.35351562 0.00942993 C31.36045696 0.00951973 36.36723752 0.01996414 41.37414551 0.03804016 C47.80054221 0.06072743 54.22670386 0.06127216 60.65312958 0.05452251 C65.58410745 0.05118518 70.51503148 0.0578082 75.44599915 0.06765175 C77.81594054 0.0715081 80.18588791 0.07265017 82.55583191 0.0710659 C85.86468979 0.07069612 89.17324338 0.0832912 92.48205566 0.0995636 C93.95960075 0.09584747 93.95960075 0.09584747 95.46699524 0.09205627 C96.36709824 0.09914108 97.26720123 0.10622589 98.19458008 0.11352539 C98.97697304 0.11557826 99.759366 0.11763113 100.56546783 0.11974621 C102.59729004 0.3742218 102.59729004 0.3742218 105.59729004 2.3742218 C106.03088379 4.43281555 106.03088379 4.43281555 106.03479004 6.8117218 C106.05412598 7.59418274 106.07346191 8.37664368 106.09338379 9.18281555 C105.59729004 11.3742218 105.59729004 11.3742218 103.84785843 12.98863697 C101.31501585 14.54800672 100.03407727 14.74544261 97.09210205 14.73498535 C96.19470306 14.73910934 95.29730408 14.74323334 94.37271118 14.7474823 C93.395914 14.73669647 92.41911682 14.72591064 91.41271973 14.71479797 C90.37825714 14.71523605 89.34379456 14.71567413 88.27798462 14.71612549 C84.85818621 14.71403521 81.43887783 14.69069226 78.01916504 14.66719055 C75.6483385 14.66159547 73.27750849 14.65732496 70.90667725 14.65432739 C64.66604032 14.64287182 58.42561278 14.61339823 52.18505859 14.58021545 C45.81728956 14.54953009 39.4494867 14.53582532 33.08166504 14.52070618 C20.58678136 14.48852944 8.09205311 14.43732426 -4.40270996 14.3742218 C-4.40270996 13.7142218 -4.40270996 13.0542218 -4.40270996 12.3742218 C-5.06270996 12.3742218 -5.72270996 12.3742218 -6.40270996 12.3742218 C-8.40270996 9.3742218 -8.40270996 9.3742218 -8.21520996 6.3742218 C-6.90109975 1.52212257 -4.98925896 -0.00106968 0 0 Z " fill="#F7FCF8" transform="translate(136.4027099609375,185.6257781982422)"/>
<path d="M0 0 C0.90284729 -0.00700928 1.80569458 -0.01401855 2.73590088 -0.02124023 C5.71934793 -0.0388416 8.7018461 -0.02719078 11.68530273 -0.01367188 C13.75748375 -0.01636593 15.82966353 -0.02024763 17.90184021 -0.02526855 C22.24376466 -0.03116631 26.58535991 -0.02259067 30.92724609 -0.00390625 C36.49848623 0.0188975 42.06895623 0.0057527 47.64016819 -0.01819611 C51.91836882 -0.03263434 56.19638613 -0.02805739 60.47459221 -0.01768494 C62.52914457 -0.01501293 64.58371348 -0.018304 66.63824654 -0.02760315 C69.50667697 -0.03773772 72.37385092 -0.02231171 75.2421875 0 C76.09473618 -0.00809692 76.94728485 -0.01619385 77.82566833 -0.02453613 C83.53348125 0.05791161 83.53348125 0.05791161 86.11509705 2.32727051 C87.55326692 5.67374486 86.93896773 8.05033395 86.05639648 11.51757812 C84.74086666 13.2077713 84.74086666 13.2077713 83.05639648 14.51757812 C80.08043855 14.82431748 77.31216148 14.9478509 74.33398438 14.9375 C73.44264297 14.94596954 72.55130157 14.95443909 71.63294983 14.96316528 C68.68150633 14.98659699 65.73058227 14.98755597 62.77905273 14.98632812 C60.73025807 14.99342599 58.68146541 15.00112443 56.63267517 15.00939941 C52.33611527 15.02285843 48.03973916 15.02440661 43.74316406 15.01855469 C38.23356459 15.01265739 32.72484595 15.04324508 27.21541691 15.08367157 C22.98350767 15.10950453 18.75181174 15.11242998 14.51983452 15.10877991 C12.48841577 15.1104753 10.4569876 15.12015788 8.42564583 15.13792419 C5.58589642 15.16002686 2.74794568 15.15045652 -0.09179688 15.1328125 C-0.93297058 15.14607574 -1.77414429 15.15933899 -2.64080811 15.17300415 C-6.79363949 15.11296243 -8.34174578 15.08514459 -11.46559143 12.13928223 C-13.12936629 9.18807133 -13.62413206 7.83515478 -12.94360352 4.51757812 C-9.47059806 -0.48335968 -5.58110088 -0.05313163 0 0 Z " fill="#F7FDF8" transform="translate(140.943603515625,234.482421875)"/>
<path d="M0 0 C6.93 0 13.86 0 21 0 C21 19.8 21 39.6 21 60 C14.07 60 7.14 60 0 60 C0 40.2 0 20.4 0 0 Z " fill="#0ABC22" transform="translate(220,353)"/>
<path d="M0 0 C6.93 0 13.86 0 21 0 C21 13.86 21 27.72 21 42 C14.07 42 7.14 42 0 42 C0 28.14 0 14.28 0 0 Z " fill="#09BC21" transform="translate(153,371)"/>
<path d="M0 0 C1.56047445 0.00015913 3.12095416 0.00585397 4.68139648 0.01586914 C5.91115456 0.01799156 5.91115456 0.01799156 7.16575623 0.02015686 C9.79470406 0.0257725 12.42356797 0.0383276 15.05249023 0.05102539 C16.8304838 0.05603838 18.60847869 0.06060163 20.38647461 0.06469727 C24.75434569 0.07574701 29.12215371 0.09302208 33.48999023 0.11352539 C33.48999023 2.11352539 33.48999023 2.11352539 31.30249023 4.48852539 C28.48999023 7.11352539 28.48999023 7.11352539 25.92749023 9.11352539 C23.40576037 11.04164623 23.40576037 11.04164623 21.48999023 13.61352539 C19.38679389 16.24252082 17.1109948 18.01672174 14.48999023 20.11352539 C13.13612088 21.76355367 11.80320881 23.43096409 10.48999023 25.11352539 C8.8469607 26.80349862 7.17527712 28.46568933 5.48999023 30.11352539 C4.73588867 30.87793945 3.98178711 31.64235352 3.20483398 32.42993164 C2.39143555 33.25364258 1.57803711 34.07735352 0.73999023 34.92602539 C-0.03860352 35.7162207 -0.81719727 36.50641602 -1.61938477 37.32055664 C-3.51000977 39.11352539 -3.51000977 39.11352539 -4.51000977 39.11352539 C-4.53465826 33.72005551 -4.55284507 28.32661814 -4.56494141 22.93310547 C-4.56998208 21.09683664 -4.57681453 19.26057185 -4.58544922 17.42431641 C-4.59752649 14.79076138 -4.60324058 12.15725923 -4.60766602 9.52368164 C-4.6128273 8.69763931 -4.61798859 7.87159698 -4.62330627 7.02052307 C-4.62350181 5.05116172 -4.57205128 3.08190926 -4.51000977 1.11352539 C-3.51000977 0.11352539 -3.51000977 0.11352539 0 0 Z " fill="#06BB1E" transform="translate(313.510009765625,420.886474609375)"/>
</svg>
