<?xml version="1.0" encoding="UTF-8"?>
<svg version="1.1" xmlns="http://www.w3.org/2000/svg" width="512" height="512">
<path d="M0 0 C1.44278607 -0.00302782 2.88557053 -0.00692044 4.32835221 -0.01159257 C8.25673924 -0.02180021 12.18503427 -0.01970938 16.11342859 -0.01541197 C20.36442687 -0.01293147 24.61540375 -0.0219753 28.86639404 -0.02944946 C37.18091096 -0.04216222 45.49539552 -0.04399441 53.80992052 -0.0416492 C60.57291219 -0.03986191 67.33589408 -0.04162448 74.09888458 -0.04587364 C75.06359136 -0.04646883 76.02829813 -0.04706402 77.02223845 -0.04767724 C78.98243108 -0.04888907 80.9426237 -0.05010321 82.90281633 -0.05131962 C101.26282153 -0.06218214 119.62280835 -0.06003888 137.98281458 -0.05393478 C154.75116286 -0.04876774 171.51945301 -0.06001775 188.28778979 -0.07903299 C205.5356682 -0.09844097 222.78351915 -0.10666215 240.03140855 -0.10290974 C249.70265762 -0.10100206 259.37385723 -0.10344282 269.04509735 -0.11762428 C277.2791938 -0.1295769 285.51321036 -0.13089971 293.74730799 -0.11883412 C297.94185824 -0.11297234 302.13626264 -0.11177045 306.33080292 -0.12383652 C336.10731633 -0.20353947 367.42548245 1.19422066 390.18927002 23.06538391 C391.56783076 24.44370928 392.91648052 25.851753 394.26373291 27.26069641 C395.00236572 28.02897766 395.74099854 28.79725891 396.50201416 29.58882141 C412.24424843 47.56247918 416.59089367 72.91723922 416.52442932 95.9969635 C416.52745715 97.43974957 416.53134976 98.88253403 416.53602189 100.32531571 C416.54622954 104.25370274 416.54413871 108.18199777 416.53984129 112.11039209 C416.53736079 116.36139037 416.54640462 120.61236725 416.55387878 124.86335754 C416.56659154 133.17787446 416.56842373 141.49235902 416.56607852 149.80688402 C416.56429123 156.56987569 416.5660538 163.33285758 416.57030296 170.09584808 C416.57089815 171.06055486 416.57149334 172.02526163 416.57210657 173.01920195 C416.57331839 174.97939458 416.57453253 176.9395872 416.57574894 178.89977983 C416.58661146 197.25978503 416.5844682 215.61977185 416.5783641 233.97977808 C416.57319706 250.74812636 416.58444707 267.51641651 416.60346232 284.28475329 C416.6228703 301.5326317 416.63109147 318.78048266 416.62733907 336.02837205 C416.62543139 345.69962112 416.62787214 355.37082073 416.6420536 365.04206085 C416.65400622 373.2761573 416.65532904 381.51017386 416.64326344 389.74427149 C416.63740166 393.93882174 416.63619977 398.13322615 416.64826584 402.32776642 C416.72796879 432.10427983 415.33020866 463.42244595 393.45904541 486.18623352 C392.08072004 487.56479426 390.67267632 488.91344402 389.26373291 490.26069641 C388.49545166 490.99932922 387.72717041 491.73796204 386.93560791 492.49897766 C368.96195015 508.24121193 343.6071901 512.58785717 320.52746582 512.52139282 C319.08467975 512.52442065 317.64189529 512.52831326 316.19911361 512.53298539 C312.27072658 512.54319304 308.34243155 512.54110221 304.41403723 512.5368048 C300.16303895 512.53432429 295.91206207 512.54336813 291.66107178 512.55084229 C283.34655486 512.56355504 275.0320703 512.56538723 266.7175453 512.56304202 C259.95455363 512.56125473 253.19157174 512.5630173 246.42858124 512.56726646 C245.46387446 512.56786165 244.49916769 512.56845684 243.50522737 512.56907007 C241.54503474 512.5702819 239.58484212 512.57149603 237.62464949 512.57271244 C219.26464429 512.58357496 200.90465747 512.5814317 182.54465124 512.5753276 C165.77630296 512.57016056 149.00801281 512.58141057 132.23967603 512.60042582 C114.99179762 512.6198338 97.74394667 512.62805497 80.49605727 512.62430257 C70.8248082 512.62239489 61.15360859 512.62483564 51.48236847 512.63901711 C43.24827202 512.65096973 35.01425546 512.65229254 26.78015783 512.64022694 C22.58560758 512.63436516 18.39120318 512.63316327 14.1966629 512.64522934 C-15.57985051 512.7249323 -46.89801663 511.32717216 -69.6618042 489.45600891 C-71.04036494 488.07768354 -72.3890147 486.66963982 -73.73626709 485.26069641 C-74.4748999 484.49241516 -75.21353271 483.72413391 -75.97454834 482.93257141 C-91.71678261 464.95891365 -96.06342785 439.6041536 -95.9969635 416.52442932 C-95.99999132 415.08164325 -96.00388394 413.63885879 -96.00855607 412.19607711 C-96.01876372 408.26769008 -96.01667289 404.33939505 -96.01237547 400.41100073 C-96.00989497 396.16000245 -96.0189388 391.90902557 -96.02641296 387.65803528 C-96.03912572 379.34351836 -96.04095791 371.0290338 -96.0386127 362.7145088 C-96.03682541 355.95151713 -96.03858798 349.18853524 -96.04283714 342.42554474 C-96.04343233 341.46083796 -96.04402752 340.49613119 -96.04464075 339.50219087 C-96.04585257 337.54199825 -96.04706671 335.58180562 -96.04828312 333.621613 C-96.05914564 315.26160779 -96.05700238 296.90162098 -96.05089828 278.54161474 C-96.04573124 261.77326646 -96.05698125 245.00497631 -96.0759965 228.23663953 C-96.09540448 210.98876112 -96.10362565 193.74091017 -96.09987324 176.49302077 C-96.09796557 166.82177171 -96.10040632 157.15057209 -96.11458778 147.47933197 C-96.1265404 139.24523552 -96.12786322 131.01121896 -96.11579762 122.77712134 C-96.10993584 118.58257108 -96.10873395 114.38816668 -96.12080002 110.1936264 C-96.20050297 80.41711299 -94.80274284 49.09894687 -72.93157959 26.3351593 C-71.55325422 24.95659856 -70.1452105 23.6079488 -68.73626709 22.26069641 C-67.58384521 21.15274719 -67.58384521 21.15274719 -66.40814209 20.02241516 C-48.43448432 4.28018089 -23.07972428 -0.06646435 0 0 Z " fill="#00BA19" transform="translate(95.73626708984375,-0.2606964111328125)"/>
<path d="M0 0 C15.91513439 6.05097348 32.03180939 11.87739993 48.76733398 15.15014648 C61.42977121 17.6483615 70.86144566 20.61343754 78.54296875 31.7109375 C83.10163863 39.68217099 83.87913597 47.70796025 81.51953125 56.54296875 C81.19726562 57.58839844 80.875 58.63382812 80.54296875 59.7109375 C92.50274003 53.59294827 104.14661277 47.081624 115.6796875 40.1953125 C122.97323764 35.84412396 130.33685459 31.61599035 137.70239258 27.38818359 C143.1683557 24.24725494 148.61780923 21.08355702 154.03515625 17.859375 C191.88435341 -4.62590366 191.88435341 -4.62590366 214.5 0.36328125 C222.99274444 3.82879693 229.44875753 10.62794539 233.54296875 18.7109375 C235.84623449 25.62073472 235.79594885 36.3729858 233.35546875 43.3359375 C229.86078074 49.84328759 226.33585024 54.43469093 219.98046875 58.3984375 C219.33480957 58.81504639 218.68915039 59.23165527 218.02392578 59.66088867 C211.04078496 64.12394059 203.90434855 68.34378637 196.78125 72.578125 C191.52067329 75.71187658 186.30773383 78.9190109 181.10546875 82.1484375 C180.23220947 82.69048828 179.3589502 83.23253906 178.45922852 83.79101562 C176.69328282 84.88796117 174.92757604 85.98529145 173.16210938 87.08300781 C151.80434531 100.35794916 130.41269193 113.58130602 108.90405273 126.6105957 C104.17542588 129.47961775 99.46855653 132.3772313 94.79296875 135.33203125 C93.85815674 135.92024658 92.92334473 136.50846191 91.96020508 137.11450195 C90.20822663 138.21934052 88.46028077 139.33061473 86.7175293 140.44995117 C81.20140993 143.9221538 75.65727474 146.47228106 69.54296875 148.7109375 C68.74576416 149.02119873 67.94855957 149.33145996 67.12719727 149.65112305 C48.08059418 156.83610911 26.69114944 148.27103673 8.3359375 142.67700195 C0.25522305 140.24952927 -7.95363517 138.31889697 -16.14453125 136.30371094 C-22.7106819 134.67816228 -29.23229282 132.98206517 -35.70703125 131.0234375 C-41.14667374 129.38712228 -46.59072727 127.79134905 -52.08203125 126.3359375 C-53.33242187 125.99820313 -54.5828125 125.66046875 -55.87109375 125.3125 C-63.04407349 124.10918967 -67.53642152 125.96524563 -73.45703125 129.7109375 C-72.59078125 131.23460937 -72.59078125 131.23460937 -71.70703125 132.7890625 C-67.16527747 141.08375511 -63.68426639 147.99129569 -65.45703125 157.7109375 C-68.4888713 167.34148825 -78.94528766 171.96648836 -87.20703125 176.5234375 C-88.24730469 177.10802734 -89.28757812 177.69261719 -90.359375 178.29492188 C-97.35773705 182.20151078 -102.35688448 184.47510229 -110.45703125 183.7109375 C-117.51780347 181.13103996 -121.53629857 176.00783732 -125.31640625 169.7109375 C-125.82660309 168.86390259 -125.82660309 168.86390259 -126.34710693 167.99975586 C-129.9440509 161.98435325 -133.33699811 155.85557562 -136.70703125 149.7109375 C-138.02141852 147.3270075 -139.33854915 144.94459976 -140.65625 142.5625 C-141.14326637 141.68146103 -141.14326637 141.68146103 -141.64012146 140.78262329 C-144.55194158 135.52258782 -147.52427183 130.29878249 -150.51953125 125.0859375 C-155.48630395 116.43846136 -160.36685477 107.74489555 -165.22875977 99.03808594 C-168.59137062 93.0229924 -171.97842025 87.02317654 -175.40527344 81.04443359 C-176.42460412 79.26525571 -177.44097561 77.48437853 -178.45410156 75.70166016 C-180.4346099 72.21778445 -182.42656804 68.76018254 -184.53515625 65.3515625 C-188.29067839 59.13915672 -189.88413161 53.97919283 -188.45703125 46.7109375 C-183.99295283 34.07381999 -166.65273448 27.32890651 -155.45703125 21.7109375 C-150.46793707 20.04790611 -145.15952834 19.62619818 -140.19921875 21.6171875 C-135.66163745 24.30868059 -132.59082459 27.50270072 -129.45703125 31.7109375 C-128.45741301 33.04455707 -127.45748985 34.37794824 -126.45703125 35.7109375 C-122.28921187 33.33795738 -118.12276677 30.96257339 -113.95703125 28.5859375 C-113.32711273 28.22668182 -112.69719421 27.86742615 -112.04818726 27.49728394 C-104.26024522 23.05385234 -96.4946377 18.57658744 -88.7644043 14.03320312 C-56.93830946 -4.66757878 -36.08416834 -13.81983354 0 0 Z " fill="#F9FEF9" transform="translate(213.45703125,272.2890625)"/>
<path d="M0 0 C2.65527344 1.13891602 2.65527344 1.13891602 5.359375 2.75390625 C6.37902344 3.35332031 7.39867188 3.95273437 8.44921875 4.5703125 C9.53847656 5.22773437 10.62773438 5.88515625 11.75 6.5625 C12.90673576 7.24747417 14.06430424 7.93104385 15.22265625 8.61328125 C17.62761083 10.03120342 20.02887559 11.45509179 22.42773438 12.88330078 C27.91885653 16.14576731 33.46203468 19.31796001 39 22.5 C41.14994809 23.74052413 43.29968665 24.98141145 45.44921875 26.22265625 C49.36666226 28.48301467 53.2860953 30.73984086 57.20828247 32.99195862 C89.57968329 51.57968329 89.57968329 51.57968329 93 55 C93.26285553 56.95003986 93.26285553 56.95003986 93.28088379 59.38288879 C93.29230408 60.30396927 93.30372437 61.22504974 93.31549072 62.17404175 C93.3188443 63.69434494 93.3188443 63.69434494 93.32226562 65.24536133 C93.33716034 66.84309135 93.33716034 66.84309135 93.35235596 68.47309875 C93.38165173 72.00943554 93.3952119 75.54559288 93.40625 79.08203125 C93.41774891 81.53342191 93.42926442 83.98481249 93.4407959 86.436203 C93.46183103 91.58190756 93.47350631 96.72754948 93.48046875 101.87329102 C93.49143957 108.4713255 93.53948965 115.06853474 93.59641266 121.66631031 C93.6336373 126.73205491 93.64407507 131.79760024 93.6471405 136.86347008 C93.65320144 139.29600218 93.6692852 141.72853045 93.69551086 144.16092873 C93.72957568 147.5634113 93.72588779 150.96387177 93.71289062 154.36645508 C93.73132019 155.37391785 93.74974976 156.38138062 93.76873779 157.41937256 C93.68885273 164.08612774 93.68885273 164.08612774 91.71742058 166.70154476 C90.13485718 168.0512085 90.13485718 168.0512085 87 170 C85.57905029 170.89803345 85.57905029 170.89803345 84.12939453 171.81420898 C83.14052246 172.36923096 82.15165039 172.92425293 81.1328125 173.49609375 C80.01245605 174.12974854 78.89209961 174.76340332 77.73779297 175.41625977 C77.14947693 175.74538361 76.56116089 176.07450745 75.95501709 176.41360474 C73.44444763 177.81826931 70.94152163 179.23630746 68.43814087 180.6537323 C67.15397508 181.38077802 65.86944782 182.10718565 64.58456421 182.83296204 C58.64926968 186.1881368 52.75732252 189.61535113 46.875 193.0625 C38.28543786 198.08796148 29.68129933 203.08739593 21.0625 208.0625 C19.9904834 208.6819751 18.9184668 209.3014502 17.81396484 209.93969727 C15.80203685 211.10010716 13.7875121 212.25603019 11.77001953 213.40673828 C9.98826336 214.43157001 8.21724744 215.47543075 6.46044922 216.54248047 C5.68846191 217.00154785 4.91647461 217.46061523 4.12109375 217.93359375 C3.46423584 218.33505615 2.80737793 218.73651855 2.13061523 219.15014648 C-1.73777631 220.69315908 -4.85530465 220.49098968 -8.65527344 218.86108398 C-9.54762695 218.32813721 -10.43998047 217.79519043 -11.359375 217.24609375 C-12.37902344 216.64667969 -13.39867188 216.04726563 -14.44921875 215.4296875 C-15.53847656 214.77226562 -16.62773438 214.11484375 -17.75 213.4375 C-18.90673576 212.75252583 -20.06430424 212.06895615 -21.22265625 211.38671875 C-23.62761083 209.96879658 -26.02887559 208.54490821 -28.42773438 207.11669922 C-33.91885653 203.85423269 -39.46203468 200.68203999 -45 197.5 C-47.14994809 196.25947587 -49.29968665 195.01858855 -51.44921875 193.77734375 C-55.94887514 191.18104947 -60.4519164 188.59071312 -64.95703125 186.00390625 C-84.71884188 174.65007095 -84.71884188 174.65007095 -92 170.25 C-92.94875 169.67765625 -93.8975 169.1053125 -94.875 168.515625 C-97 167 -97 167 -99 164 C-99.26006222 161.95814705 -99.26006222 161.95814705 -99.27415466 159.57278442 C-99.28412979 158.66715759 -99.29410492 157.76153076 -99.30438232 156.82846069 C-99.305047 155.83722198 -99.30571167 154.84598328 -99.30639648 153.82470703 C-99.31472 152.77891479 -99.32304352 151.73312256 -99.33161926 150.65563965 C-99.35576547 147.18965968 -99.36449694 143.72386772 -99.37109375 140.2578125 C-99.38005629 137.85269106 -99.38917806 135.44757021 -99.39845276 133.04244995 C-99.4149577 127.99687341 -99.42264567 122.95136334 -99.42553711 117.90576172 C-99.43092354 111.43676607 -99.46860879 104.96839408 -99.51428127 98.49957466 C-99.54400585 93.53076896 -99.55125967 88.56211429 -99.55226326 83.59322739 C-99.55647439 81.20816058 -99.56894417 78.82309367 -99.58978081 76.43811417 C-99.61659951 73.10296862 -99.61189719 69.7692799 -99.59936523 66.43408203 C-99.62161667 64.95329666 -99.62161667 64.95329666 -99.64431763 63.44259644 C-99.59471433 58.81298903 -99.55113844 56.70774173 -96.63287354 52.96026611 C-93.9265516 50.94531511 -91.24659266 49.18596963 -88.30078125 47.5390625 C-87.18751465 46.91056396 -86.07424805 46.28206543 -84.92724609 45.63452148 C-83.72234406 44.96465701 -82.51742833 44.29481717 -81.3125 43.625 C-80.05497159 42.917689 -78.79798111 42.20942084 -77.54150391 41.50024414 C-74.95744507 40.04213888 -72.37161204 38.58725663 -69.78466797 37.13427734 C-64.12185761 33.94765347 -58.49872371 30.69245488 -52.875 27.4375 C-50.7500911 26.20947776 -48.62509078 24.98161371 -46.5 23.75390625 C-44.91445312 22.83762451 -44.91445312 22.83762451 -43.296875 21.90283203 C-40.42377225 20.24458538 -37.54902499 18.58927159 -34.67306519 16.93598938 C-32.89002182 15.91097928 -31.10732023 14.88537715 -29.32470703 13.85961914 C-27.09196098 12.5751186 -24.85860231 11.29168208 -22.62451172 10.00952148 C-21.61146973 9.42630127 -20.59842773 8.84308105 -19.5546875 8.2421875 C-18.59788086 7.69272461 -17.64107422 7.14326172 -16.65527344 6.57714844 C-13.65281118 4.79378082 -10.76474698 2.87469203 -7.91845703 0.85205078 C-5.12677308 -0.38782921 -3.02638338 -0.29360436 0 0 Z " fill="#FBFFFA" transform="translate(107,56)"/>
<path d="M0 0 C1.28036045 0.46076483 2.56146269 0.9194731 3.84326172 1.3762207 C7.6321285 2.73085298 11.41002187 4.1139236 15.1875 5.5 C29.71234751 10.7959169 44.19525501 15.2443625 59.2109375 18.95703125 C74.67075492 22.86603067 74.67075492 22.86603067 79.1875 29.5 C80.7422669 32.60953379 80.47394437 35.06266761 80.1875 38.5 C78.0769195 42.4196495 75.96740831 45.15780681 72.1875 47.5 C63.43491676 49.04703302 54.8486723 46.43445276 46.47216797 44.11621094 C44.00121999 43.44975735 41.52143857 42.83324309 39.03515625 42.2265625 C38.15730469 42.01217529 37.27945313 41.79778809 36.375 41.5769043 C34.67608029 41.16307703 32.9768791 40.75040291 31.27734375 40.33911133 C26.4879875 39.1549352 21.84028556 37.77096947 17.19238281 36.11328125 C14.04063552 35.14918125 11.43783442 35.05387567 8.1875 35.5 C5.62411311 36.97993156 5.62411311 36.97993156 4.1875 39.5 C3.52083333 42.5 3.52083333 42.5 4.1875 45.5 C7.54393423 50.10950301 11.99609016 50.94104075 17.25 52.3125 C18.16031982 52.56040283 19.07063965 52.80830566 20.00854492 53.0637207 C23.06453903 53.89014264 26.12581642 54.69493208 29.1875 55.5 C31.46364612 56.11159057 33.73968513 56.72357988 36.015625 57.3359375 C67.15762788 65.64425141 89.4019751 69.86414629 118.56591797 53.13574219 C124.1441146 49.88881176 129.68313311 46.57695959 135.22265625 43.26464844 C141.14561997 39.7393535 147.1077552 36.28101723 153.06591797 32.81567383 C158.21237426 29.82140981 163.35162215 26.81612887 168.4765625 23.78515625 C206.16518266 1.53588646 206.16518266 1.53588646 223.1875 3.5 C227.80331142 5.68643699 229.91614085 7.99599804 232.1875 12.5 C232.62109375 15.40234375 232.62109375 15.40234375 232.625 18.4375 C232.65400391 19.93603516 232.65400391 19.93603516 232.68359375 21.46484375 C231.87210838 26.42960071 230.01513843 29.15926058 226.04125977 32.07446289 C223.31593817 33.81119001 220.54856288 35.4464705 217.75 37.0625 C215.65313291 38.30512446 213.55678913 39.54863234 211.4609375 40.79296875 C210.40487305 41.41478027 209.34880859 42.0365918 208.26074219 42.67724609 C203.7593822 45.34702316 199.31622119 48.10673226 194.875 50.875 C193.15003946 51.94579572 191.42477224 53.01609756 189.69921875 54.0859375 C188.81411621 54.63475586 187.92901367 55.18357422 187.01708984 55.74902344 C181.74717835 59.01009378 176.46677726 62.25412212 171.1875 65.5 C163.34676627 70.32145929 155.51125642 75.15103867 147.6875 80 C138.87611169 85.46039962 130.05679794 90.90790728 121.21777344 96.32348633 C116.11944094 99.44954538 111.03097021 102.58770055 105.98356628 105.79530334 C104.25497224 106.89280048 102.52293699 107.98465295 100.78979492 109.07495117 C98.63327354 110.43394757 96.48311122 111.80311575 94.34106445 113.18481445 C80.99487369 121.55416623 68.73407063 125.67377517 53.15917969 122.31274414 C46.04252242 120.66393922 39.04401602 118.61724663 32.0559082 116.49731445 C25.81531472 114.62605612 19.51438244 113.0509151 13.1875 111.5 C5.63480306 109.64726304 -1.83883427 107.66897477 -9.27661133 105.40112305 C-16.65440726 103.1844918 -24.13317469 101.37410916 -31.6171875 99.5546875 C-36.43189717 98.37804115 -41.11565135 97.09202999 -45.8125 95.5 C-51.38801178 94.23331017 -55.10796376 95.40497683 -59.98413086 98.36572266 C-61.7032516 99.46997192 -63.39804807 100.6044469 -65.08984375 101.75 C-67.8125 103.5 -67.8125 103.5 -69.8125 103.5 C-72.74956547 98.1211692 -75.68408711 92.74104929 -78.6015625 87.3515625 C-84.15768806 77.10314412 -89.80118307 66.91455691 -95.62744141 56.81689453 C-99.11709225 50.76157524 -102.48793997 44.64745079 -105.8125 38.5 C-90.84285873 29.60054599 -75.80676925 20.82252058 -60.69726562 12.16259766 C-58.17908723 10.71127785 -55.67295885 9.2422134 -53.171875 7.76171875 C-34.83982131 -3.00656189 -20.75753055 -7.75289703 0 0 Z " fill="#01BA19" transform="translate(199.8125,284.5)"/>
<path d="M0 0 C0.94101562 0.4021875 1.88203125 0.804375 2.8515625 1.21875 C14.75101936 6.6412873 22.89663968 14.45704004 29 26 C29.65162109 27.20849609 29.65162109 27.20849609 30.31640625 28.44140625 C35.20926719 39.33526736 34.40759115 53.74675224 31 65 C27.91026598 72.92187542 23.69539753 78.98390153 17.7578125 85.0390625 C15.7775039 86.80929457 15.7775039 86.80929457 16 89 C17.02738281 89.4846875 18.05476562 89.969375 19.11328125 90.46875 C43.34535046 102.09627031 61.44478225 119.50005718 71 145 C73.57086732 152.98643381 76.23943057 161.599415 75 170 C72.38585397 173.389431 70.90070671 174.83171475 66.64727688 175.62641239 C65.3591966 175.6269987 64.07111631 175.62758501 62.7440033 175.62818909 C62.02384822 175.63528347 61.30369314 175.64237786 60.56171519 175.64968723 C58.15379687 175.66725942 55.74749452 175.64916838 53.33959961 175.63110352 C51.6113766 175.63624263 49.88315883 175.64352385 48.154953 175.65278625 C43.4648502 175.6713082 38.7753155 175.65835732 34.08523631 175.63869596 C29.17836384 175.6223173 24.27152757 175.63112114 19.36463928 175.63621521 C11.12540606 175.64073662 2.88639983 175.62486235 -5.3527832 175.59692383 C-14.8817592 175.56486109 -24.41032602 175.56489162 -33.93933111 175.5821386 C-43.10332314 175.59799466 -52.26716499 175.59127675 -61.43115044 175.57420158 C-65.33261545 175.56732461 -69.23396031 175.56837013 -73.13542366 175.57574654 C-77.72792518 175.58340005 -82.3199602 175.57131397 -86.91238213 175.54389763 C-88.59903961 175.53700328 -90.28574058 175.53692706 -91.97239685 175.54411316 C-94.27244978 175.55278449 -96.57105524 175.53689352 -98.87098694 175.5146637 C-100.80254182 175.51045331 -100.80254182 175.51045331 -102.77311802 175.50615788 C-106.54985579 174.91375147 -107.73333843 174.0210375 -110 171 C-113.39220327 156.51880123 -104.40663277 138.05152234 -97 126 C-85.54187583 108.74839234 -69.29395662 95.57976867 -50 88 C-50.58007812 87.46632813 -51.16015625 86.93265625 -51.7578125 86.3828125 C-61.75671531 76.8459052 -68.15120248 65.89522062 -69.23828125 51.94140625 C-69.59212111 35.83238086 -64.78268211 23.03499636 -53.8125 11.25 C-40.02181893 -1.81485575 -17.96027665 -8.55868779 0 0 Z " fill="#FAFFFA" transform="translate(429,80)"/>
<path d="M0 0 C16.10730348 11.62868739 26.12217126 26.6108563 30 46 C-19.17 46 -68.34 46 -119 46 C-117.87339335 36.98714678 -117.87339335 36.98714678 -116.43359375 34.10546875 C-116.11704834 33.46536865 -115.80050293 32.82526855 -115.47436523 32.16577148 C-115.13219971 31.51294189 -114.79003418 30.8601123 -114.4375 30.1875 C-113.90394897 29.14928101 -113.90394897 29.14928101 -113.35961914 28.09008789 C-110.12926172 21.95987167 -106.41292854 16.35146548 -102 11 C-101.22462891 10.05447266 -101.22462891 10.05447266 -100.43359375 9.08984375 C-74.82764338 -19.08311918 -30.18436708 -21.02393727 0 0 Z " fill="#00BA19" transform="translate(456,193)"/>
<path d="M0 0 C0 27.39 0 54.78 0 83 C-26 98 -26 98 -33.55859375 102.359375 C-35.04854858 103.21873657 -35.04854858 103.21873657 -36.56860352 104.09545898 C-38.59109617 105.26186463 -40.61373339 106.4280196 -42.63647461 107.59399414 C-47.70312785 110.51575269 -52.76635591 113.44304407 -57.8203125 116.38671875 C-59.15557983 117.16354004 -59.15557983 117.16354004 -60.51782227 117.95605469 C-62.17304482 118.91968229 -63.82723681 119.88508301 -65.48022461 120.85253906 C-70.88893876 124 -70.88893876 124 -72 124 C-72.30173542 113.31710298 -72.53244899 102.63522496 -72.67355824 91.94892883 C-72.74130181 86.98606486 -72.83309582 82.02612308 -72.98071289 77.06494141 C-73.12239403 72.27304635 -73.19977319 67.4839528 -73.23340416 62.69012451 C-73.25735379 60.86533478 -73.30413225 59.04069214 -73.37449074 57.21710205 C-73.80367342 45.62811285 -73.80367342 45.62811285 -72 41 C-68.08353132 37.00391312 -64.16174681 35.17703024 -59 33 C-56.97039861 31.84812883 -54.95335461 30.67347191 -52.95703125 29.46484375 C-50.90994944 28.28715661 -48.86173971 27.11142825 -46.8125 25.9375 C-44.55466379 24.63936416 -42.29685206 23.34118574 -40.0390625 22.04296875 C-38.87665703 21.37543705 -37.7142219 20.70795697 -36.55175781 20.04052734 C-30.59253807 16.61810547 -24.64033795 13.18350513 -18.6875 9.75 C-17.59091064 9.11827881 -16.49432129 8.48655762 -15.36450195 7.83569336 C-14.3405835 7.2453833 -13.31666504 6.65507324 -12.26171875 6.046875 C-11.36412842 5.52963867 -10.46653809 5.01240234 -9.54174805 4.47949219 C-7.7760795 3.45173775 -6.02845695 2.39259918 -4.29614258 1.30957031 C-2 0 -2 0 0 0 Z " fill="#01BB19" transform="translate(184,130)"/>
<path d="M0 0 C14 8 14 8 15 9 C15.09840228 11.75144985 15.13713653 14.48237896 15.140625 17.234375 C15.15895831 18.94011746 15.1785291 20.64584699 15.19921875 22.3515625 C15.22816245 25.04872308 15.2499991 27.74505698 15.25048828 30.44238281 C15.25382772 33.04046485 15.28841252 35.63662679 15.328125 38.234375 C15.3210553 39.03663513 15.3139856 39.83889526 15.30670166 40.66546631 C15.39545951 44.75954452 15.61212452 46.50148139 18.19873047 49.82592773 C22.84795806 53.43420485 27.79943879 56.34717513 32.875 59.3125 C33.93847656 59.95767578 35.00195312 60.60285156 36.09765625 61.26757812 C43.5832532 65.90673747 43.5832532 65.90673747 52 66 C54.95980903 63.76753327 55.89915764 62.57564934 56.54589844 58.88378906 C56.5668457 57.68979492 56.58779297 56.49580078 56.609375 55.265625 C56.64160156 53.97011719 56.67382812 52.67460937 56.70703125 51.33984375 C56.72177469 49.97656698 56.73609222 48.61328555 56.75 47.25 C56.77816814 45.87105624 56.80809678 44.49214725 56.83984375 43.11328125 C56.9105593 39.7425065 56.95754094 36.37124907 57 33 C61.95 35.64 66.9 38.28 72 41 C72 68.72 72 96.44 72 125 C54.95560709 115.90965711 54.95560709 115.90965711 49.1875 112.4375 C41.7635951 108.02309438 34.29570058 103.68808854 26.8125 99.375 C25.22828247 98.4612561 25.22828247 98.4612561 23.61206055 97.52905273 C15.75236149 92.99982741 7.87621996 88.50069712 0 84 C0 56.28 0 28.56 0 0 Z " fill="#00BA19" transform="translate(24,129)"/>
<path d="M0 0 C2.37702964 4.14467193 4.75183392 8.29061487 7.125 12.4375 C7.48591736 13.06813354 7.84683472 13.69876709 8.21868896 14.34851074 C13.23726065 23.12165595 18.20667555 31.92014113 23.125 40.75 C27.69581094 48.95408623 32.3658933 57.09126268 37.125 65.1875 C42.20369055 73.82976199 47.10813562 82.5483412 51.85473633 91.37744141 C54.01981835 95.40015567 56.20331627 99.39355422 58.55859375 103.30859375 C58.94289551 103.9516748 59.32719727 104.59475586 59.72314453 105.25732422 C60.72641732 106.919852 61.74717925 108.57179244 62.76953125 110.22265625 C64 113 64 113 64.22265625 115.546875 C62.20723957 119.59058642 58.5016639 121.0939748 54.625 123.1875 C53.07534031 124.05566743 51.52585432 124.924145 49.9765625 125.79296875 C49.28643066 126.1696167 48.59629883 126.54626465 47.88525391 126.93432617 C46.21163304 127.8803706 44.59961682 128.93358878 43 130 C39.8125 130.125 39.8125 130.125 37 130 C36.63874023 129.35264893 36.27748047 128.70529785 35.90527344 128.03833008 C29.14419905 115.92883156 22.35967732 103.83508354 15.46289062 91.80224609 C11.86782897 85.52746621 8.30275052 79.23632215 4.75 72.9375 C0.12463058 64.73878114 -4.5313045 56.55811394 -9.20645142 48.38772583 C-10.23953243 46.58080838 -11.27082343 44.77288169 -12.30151367 42.96459961 C-15.19130821 37.89664653 -18.08769417 32.83417294 -21.05078125 27.80859375 C-21.48422852 27.06472412 -21.91767578 26.32085449 -22.36425781 25.55444336 C-23.13350078 24.23553961 -23.91204518 22.92199246 -24.70214844 21.61547852 C-27.03544022 17.58404324 -27.03544022 17.58404324 -26.87988281 15.02050781 C-25.62718378 12.14388816 -23.91662541 11.34443125 -21.23046875 9.765625 C-20.25916016 9.19199219 -19.28785156 8.61835938 -18.28710938 8.02734375 C-17.26423828 7.44082031 -16.24136719 6.85429687 -15.1875 6.25 C-14.17623047 5.64800781 -13.16496094 5.04601562 -12.12304688 4.42578125 C-4.53097541 0 -4.53097541 0 0 0 Z " fill="#01BB1A" transform="translate(68,309)"/>
<path d="M0 0 C9.74788641 -0.57615303 17.81354383 3.23176143 25.1953125 9.41796875 C33.01619483 16.94965447 35.8432787 25.2473803 36.0703125 35.91796875 C35.93351397 46.85045113 32.503497 53.26759372 24.98828125 61.1015625 C18.49081946 67.30316789 11.75922845 70.37259551 2.8203125 70.54296875 C-7.65756588 70.21430255 -16.14110574 67.80897392 -24.06640625 60.5625 C-32.51450176 51.26321099 -33.98494417 41.32672788 -33.41699219 29.17480469 C-32.54522525 19.47822383 -26.17554776 12.64686995 -19.2421875 6.41796875 C-13.099164 1.93868078 -7.40698742 0.7613454 0 0 Z " fill="#01BA19" transform="translate(410.2421875,92.76953125)"/>
<path d="M0 0 C2.91259766 1.6105957 2.91259766 1.6105957 5.9140625 3.67578125 C6.45098724 4.04221237 6.98791199 4.40864349 7.54110718 4.78617859 C8.66883645 5.55879612 9.79312026 6.3364646 10.9140625 7.11889648 C12.61992093 8.30895668 14.3360706 9.48275828 16.0546875 10.65429688 C25.8749171 17.40801863 25.8749171 17.40801863 29 21 C29.63019323 24.70238521 29.45807114 26.33388406 27.3190918 29.44433594 C24.86181907 32.15227687 22.45376667 33.95848637 19.39453125 35.953125 C18.32912109 36.654375 17.26371094 37.355625 16.16601562 38.078125 C14.50602539 39.15320313 14.50602539 39.15320313 12.8125 40.25 C11.68242943 40.98879882 10.55286686 41.72837529 9.42382812 42.46875 C7.36969202 43.8157245 5.31305048 45.15889109 3.25317383 46.49707031 C1.12310803 47.81160165 1.12310803 47.81160165 0 49 C-7.07246377 49.57971014 -7.07246377 49.57971014 -10.5 47.4375 C-12.58392818 44.05111671 -12.55802097 41.90614682 -12 38 C-10.125 35.5625 -10.125 35.5625 -8 34 C-7.34 34 -6.68 34 -6 34 C-6 33.34 -6 32.68 -6 32 C-6.86808289 32.00888245 -7.73616577 32.01776489 -8.6305542 32.0269165 C-16.81142973 32.10706476 -24.9921734 32.16796554 -33.17335129 32.20724869 C-37.37940977 32.22812361 -41.58514385 32.256439 -45.79101562 32.30175781 C-49.8499597 32.34521976 -53.90859174 32.36913782 -57.96775055 32.37950897 C-59.51633873 32.3868998 -61.06490983 32.40133252 -62.61336517 32.42292023 C-64.78265784 32.45196048 -66.95066141 32.45595599 -69.12011719 32.45410156 C-70.35477722 32.46298401 -71.58943726 32.47186646 -72.86151123 32.48101807 C-76.58391641 31.9105065 -77.74079648 30.95045813 -80 28 C-80.56640625 26 -80.56640625 26 -80.5625 24 C-80.58441406 23.34 -80.60632813 22.68 -80.62890625 22 C-79.636791 18.84495025 -77.71297781 17.79804605 -75 16 C-71.85514832 15.48101807 -71.85514832 15.48101807 -68.28198242 15.45410156 C-67.62776306 15.44376389 -66.9735437 15.43342621 -66.29949951 15.42277527 C-64.1512355 15.393432 -62.00391708 15.39185003 -59.85546875 15.390625 C-58.36044019 15.37563745 -56.86542815 15.35890909 -55.37043762 15.34051514 C-51.44629134 15.29689314 -47.52236839 15.27685423 -43.59802246 15.26177979 C-39.5893028 15.2421899 -35.58082367 15.20022209 -31.57226562 15.16015625 C-23.71490678 15.08491011 -15.85764254 15.03458507 -8 15 C-8.97453125 14.11828125 -8.97453125 14.11828125 -9.96875 13.21875 C-12 11 -12 11 -12.5 7.5 C-11.92936321 3.50554249 -11.14975126 2.40863332 -8 0 C-5.0287088 -1.4856456 -3.19208356 -0.77940641 0 0 Z " fill="#F9FFF9" transform="translate(293,109)"/>
<path d="M0 0 C2.4375 1.5 2.4375 1.5 4 4 C4.60921535 6.80468955 4.86557371 9.24736809 4 12 C2.36315639 13.36978048 0.69768751 14.70639547 -1 16 C0.2800013 16.00213753 0.2800013 16.00213753 1.58586121 16.00431824 C9.63430763 16.02216001 17.68220488 16.06380804 25.73038769 16.13209057 C29.86793938 16.16635763 34.00512196 16.19147002 38.14282227 16.19555664 C42.13726411 16.19984034 46.13087337 16.22830757 50.12505531 16.27343178 C51.64759786 16.28640474 53.17024006 16.29071512 54.69283104 16.28615379 C56.8289272 16.28124567 58.96259181 16.30734153 61.09838867 16.34057617 C62.92040047 16.35056892 62.92040047 16.35056892 64.77922058 16.36076355 C68.91080947 17.18077072 70.40823696 18.74597528 73 22 C73.625 25 73.625 25 73 28 C70.42084857 31.22939993 68.92044774 32.81513734 64.81718445 33.63923645 C63.02181999 33.6492292 63.02181999 33.6492292 61.19018555 33.65942383 C60.52621262 33.66990753 59.86223969 33.68039124 59.17814636 33.69119263 C56.99718968 33.71985045 54.81782926 33.71366317 52.63671875 33.70703125 C51.11926798 33.72015213 49.60183466 33.73545757 48.08442688 33.75285339 C44.10101085 33.79267167 40.11805201 33.80289169 36.13446045 33.80688477 C32.06541096 33.81622234 27.99662942 33.85363968 23.92773438 33.88867188 C15.95181794 33.95321522 7.97616537 33.9864818 0 34 C0.64831787 34.61875 1.29663574 35.2375 1.96459961 35.875 C4.16117203 38.16826693 4.56853773 38.90867973 4.5625 42 C4.38643496 45.25416766 4.09478381 45.88848964 1.875 48.5 C-1.4992545 50.26048061 -3.23548515 50.36658197 -7 50 C-9.46484375 48.6015625 -9.46484375 48.6015625 -11.9375 46.625 C-17.12473155 42.62219822 -22.46573335 38.98206684 -27.96069336 35.41455078 C-34.29761703 31.25565743 -34.29761703 31.25565743 -36 29 C-36.70533643 23.53364269 -36.70533643 23.53364269 -36 21 C-31.77467105 15.77579622 -25.95135585 12.4477674 -20.375 8.8125 C-19.42109375 8.18408203 -18.4671875 7.55566406 -17.484375 6.90820312 C-15.72098546 5.74709804 -13.95602231 4.58837664 -12.18896484 3.43286133 C-7.66078309 0.46878607 -5.52582082 -0.58166535 0 0 Z " fill="#FBFFFB" transform="translate(249,174)"/>
<path d="M0 0 C2.9921875 1.62890625 2.9921875 1.62890625 5.875 3.5625 C6.84179688 4.20316406 7.80859375 4.84382813 8.8046875 5.50390625 C9.89136719 6.24447266 9.89136719 6.24447266 11 7 C7.76733025 9.6908148 4.57222803 11.93884808 0.88671875 13.9609375 C-0.59634766 14.78126465 -0.59634766 14.78126465 -2.109375 15.61816406 C-3.16640625 16.19791992 -4.2234375 16.77767578 -5.3125 17.375 C-14.09670084 22.24226918 -22.83134335 27.17965366 -31.5 32.25 C-32.48887207 32.82540527 -33.47774414 33.40081055 -34.49658203 33.99365234 C-39.0703907 36.66291458 -43.61453354 39.36515054 -48.10546875 42.171875 C-49.27529297 42.89262207 -49.27529297 42.89262207 -50.46875 43.62792969 C-51.901676 44.5140481 -53.32568844 45.41482248 -54.73828125 46.33300781 C-59.31549972 49.14667863 -59.31549972 49.14667863 -62.625 48.4375 C-63.40875 47.963125 -64.1925 47.48875 -65 47 C-65.88300781 46.525625 -66.76601562 46.05125 -67.67578125 45.5625 C-68.54589844 45.046875 -69.41601562 44.53125 -70.3125 44 C-71.19550781 43.484375 -72.07851562 42.96875 -72.98828125 42.4375 C-73.65214844 41.963125 -74.31601563 41.48875 -75 41 C-75 40.34 -75 39.68 -75 39 C-72.35864935 37.47614386 -69.71729542 35.95229341 -67.07592773 34.4284668 C-64.74726036 33.08497317 -62.4186393 31.74139965 -60.09008789 30.39770508 C-54.08870082 26.9347526 -48.08647456 23.47327607 -42.08203125 20.015625 C-40.97617676 19.37826416 -39.87032227 18.74090332 -38.73095703 18.08422852 C-36.54428191 16.82490464 -34.35646401 15.5675629 -32.16748047 14.31225586 C-27.3381461 11.53651694 -22.53449056 8.73713585 -17.80078125 5.80078125 C-17.02226807 5.32294189 -16.24375488 4.84510254 -15.44165039 4.3527832 C-14.03464232 3.48431581 -12.63580191 2.60239268 -11.24780273 1.70385742 C-7.08265778 -0.8558971 -4.67314641 -1.55980356 0 0 Z " fill="#03BC1A" transform="translate(165,108)"/>
<path d="M0 0 C2.89453125 1.62890625 2.89453125 1.62890625 5.8125 3.5625 C6.78832031 4.20316406 7.76414062 4.84382813 8.76953125 5.50390625 C9.87361328 6.24447266 9.87361328 6.24447266 11 7 C7.59166354 9.8455204 4.16533016 12.18211602 0.30078125 14.36328125 C-0.81361328 14.99564697 -1.92800781 15.6280127 -3.07617188 16.27954102 C-3.66454834 16.61075958 -4.2529248 16.94197815 -4.85913086 17.28323364 C-7.35464745 18.68806553 -9.84472428 20.10241758 -12.3352356 21.51609802 C-13.62553771 22.24834299 -14.91612893 22.98007876 -16.20700073 23.71131897 C-22.82441159 27.46099149 -29.41409169 31.25779155 -36 35.0625 C-37.54433716 35.95352417 -37.54433716 35.95352417 -39.11987305 36.86254883 C-40.60741089 37.721427 -40.60741089 37.721427 -42.125 38.59765625 C-43.56939453 39.42354248 -43.56939453 39.42354248 -45.04296875 40.26611328 C-47.13161706 41.49081443 -49.19483629 42.75938404 -51.23828125 44.05810547 C-52.29402344 44.7182666 -53.34976563 45.37842773 -54.4375 46.05859375 C-55.85869141 46.97402954 -55.85869141 46.97402954 -57.30859375 47.90795898 C-60 49 -60 49 -62.68041992 48.27368164 C-63.44588135 47.8533667 -64.21134277 47.43305176 -65 47 C-65.88300781 46.525625 -66.76601562 46.05125 -67.67578125 45.5625 C-68.54589844 45.046875 -69.41601562 44.53125 -70.3125 44 C-71.19550781 43.484375 -72.07851562 42.96875 -72.98828125 42.4375 C-73.65214844 41.963125 -74.31601563 41.48875 -75 41 C-75 40.34 -75 39.68 -75 39 C-73.9790625 38.44054687 -72.958125 37.88109375 -71.90625 37.3046875 C-62.01982339 31.86228841 -52.23787743 26.25818786 -42.49951172 20.55541992 C-34.55736759 15.90471154 -26.59696197 11.28682638 -18.625 6.6875 C-17.49513672 6.03499268 -16.36527344 5.38248535 -15.20117188 4.71020508 C-13.63592773 3.80757935 -13.63592773 3.80757935 -12.0390625 2.88671875 C-11.11303223 2.35264404 -10.18700195 1.81856934 -9.23291016 1.26831055 C-5.49097868 -0.85713599 -4.21277732 -1.20794328 0 0 Z " fill="#03BC1A" transform="translate(108,75)"/>
<path d="M0 0 C2.8125 1.5625 2.8125 1.5625 5 3 C3.74327861 6.77016416 2.70437669 7.00711403 -0.72265625 8.86328125 C-1.72409668 9.41330811 -2.72553711 9.96333496 -3.75732422 10.5300293 C-4.84803223 11.11824463 -5.93874023 11.70645996 -7.0625 12.3125 C-9.35910773 13.57363821 -11.65465487 14.83670946 -13.94921875 16.1015625 C-14.83024261 16.58561806 -14.83024261 16.58561806 -15.72906494 17.07945251 C-21.66942808 20.34999239 -27.52623276 23.7566935 -33.375 27.1875 C-34.35911865 27.76097168 -35.3432373 28.33444336 -36.35717773 28.92529297 C-41.10334698 31.69471288 -45.82632442 34.49462641 -50.515625 37.359375 C-51.38010254 37.87991455 -52.24458008 38.4004541 -53.13525391 38.93676758 C-54.7449706 39.90704886 -56.3468842 40.89044844 -57.93896484 41.8894043 C-61.37969803 43.94848384 -63.25914926 45.01904056 -67.34375 44.9140625 C-70.50620168 43.82580707 -72.54169251 42.241398 -75 40 C-69.54242433 36.0743754 -63.82279199 32.72829877 -57.9375 29.5 C-50.57995234 25.46335667 -43.30571139 21.30086808 -36.0625 17.0625 C-35.0513916 16.47331787 -34.0402832 15.88413574 -32.99853516 15.27709961 C-28.11726059 12.42871116 -23.25372267 9.55652785 -18.421875 6.625 C-17.5568335 6.10671631 -16.69179199 5.58843262 -15.80053711 5.05444336 C-14.18470271 4.08551352 -12.57564869 3.10515197 -10.97485352 2.11157227 C-4.40381427 -1.80301091 -4.40381427 -1.80301091 0 0 Z " fill="#04BD1B" transform="translate(139,93)"/>
<path d="M0 0 C9 5 9 5 10 6 C10.08685603 7.56172745 10.10702219 9.12729344 10.09765625 10.69140625 C10.09443359 11.63564453 10.09121094 12.57988281 10.08789062 13.55273438 C10.07951172 14.54595703 10.07113281 15.53917969 10.0625 16.5625 C10.05798828 17.55958984 10.05347656 18.55667969 10.04882812 19.58398438 C10.03700023 22.05601487 10.01906415 24.52801472 10 27 C6.7 25.35 3.4 23.7 0 22 C0 14.74 0 7.48 0 0 Z " fill="#0BC21F" transform="translate(55,147)"/>
<path d="M0 0 C3.32274404 2.45594125 4.77618008 3.9256644 5.625 8 C4.77618008 12.0743356 3.32274404 13.54405875 0 16 C-3 16.625 -3 16.625 -6 16 C-8.9375 13.9375 -8.9375 13.9375 -11 11 C-11.07003547 7.00797809 -10.58571574 4.84603384 -8.3125 1.5625 C-5.22266708 -0.52522494 -3.6619192 -0.6725974 0 0 Z " fill="#EEFFEC" transform="translate(64,321)"/>
</svg>
