<?xml version="1.0" encoding="UTF-8"?>
<svg version="1.1" xmlns="http://www.w3.org/2000/svg" width="512" height="512">
<path d="M0 0 C1.44278607 -0.00302782 2.88557053 -0.00692044 4.32835221 -0.01159257 C8.25673924 -0.02180021 12.18503427 -0.01970938 16.11342859 -0.01541197 C20.36442687 -0.01293147 24.61540375 -0.0219753 28.86639404 -0.02944946 C37.18091096 -0.04216222 45.49539552 -0.04399441 53.80992052 -0.0416492 C60.57291219 -0.03986191 67.33589408 -0.04162448 74.09888458 -0.04587364 C75.06359136 -0.04646883 76.02829813 -0.04706402 77.02223845 -0.04767724 C78.98243108 -0.04888907 80.9426237 -0.05010321 82.90281633 -0.05131962 C101.26282153 -0.06218214 119.62280835 -0.06003888 137.98281458 -0.05393478 C154.75116286 -0.04876774 171.51945301 -0.06001775 188.28778979 -0.07903299 C205.5356682 -0.09844097 222.78351915 -0.10666215 240.03140855 -0.10290974 C249.70265762 -0.10100206 259.37385723 -0.10344282 269.04509735 -0.11762428 C277.2791938 -0.1295769 285.51321036 -0.13089971 293.74730799 -0.11883412 C297.94185824 -0.11297234 302.13626264 -0.11177045 306.33080292 -0.12383652 C336.10731633 -0.20353947 367.42548245 1.19422066 390.18927002 23.06538391 C391.56783076 24.44370928 392.91648052 25.851753 394.26373291 27.26069641 C395.00236572 28.02897766 395.74099854 28.79725891 396.50201416 29.58882141 C412.24424843 47.56247918 416.59089367 72.91723922 416.52442932 95.9969635 C416.52745715 97.43974957 416.53134976 98.88253403 416.53602189 100.32531571 C416.54622954 104.25370274 416.54413871 108.18199777 416.53984129 112.11039209 C416.53736079 116.36139037 416.54640462 120.61236725 416.55387878 124.86335754 C416.56659154 133.17787446 416.56842373 141.49235902 416.56607852 149.80688402 C416.56429123 156.56987569 416.5660538 163.33285758 416.57030296 170.09584808 C416.57089815 171.06055486 416.57149334 172.02526163 416.57210657 173.01920195 C416.57331839 174.97939458 416.57453253 176.9395872 416.57574894 178.89977983 C416.58661146 197.25978503 416.5844682 215.61977185 416.5783641 233.97977808 C416.57319706 250.74812636 416.58444707 267.51641651 416.60346232 284.28475329 C416.6228703 301.5326317 416.63109147 318.78048266 416.62733907 336.02837205 C416.62543139 345.69962112 416.62787214 355.37082073 416.6420536 365.04206085 C416.65400622 373.2761573 416.65532904 381.51017386 416.64326344 389.74427149 C416.63740166 393.93882174 416.63619977 398.13322615 416.64826584 402.32776642 C416.72796879 432.10427983 415.33020866 463.42244595 393.45904541 486.18623352 C392.08072004 487.56479426 390.67267632 488.91344402 389.26373291 490.26069641 C388.49545166 490.99932922 387.72717041 491.73796204 386.93560791 492.49897766 C368.96195015 508.24121193 343.6071901 512.58785717 320.52746582 512.52139282 C319.08467975 512.52442065 317.64189529 512.52831326 316.19911361 512.53298539 C312.27072658 512.54319304 308.34243155 512.54110221 304.41403723 512.5368048 C300.16303895 512.53432429 295.91206207 512.54336813 291.66107178 512.55084229 C283.34655486 512.56355504 275.0320703 512.56538723 266.7175453 512.56304202 C259.95455363 512.56125473 253.19157174 512.5630173 246.42858124 512.56726646 C245.46387446 512.56786165 244.49916769 512.56845684 243.50522737 512.56907007 C241.54503474 512.5702819 239.58484212 512.57149603 237.62464949 512.57271244 C219.26464429 512.58357496 200.90465747 512.5814317 182.54465124 512.5753276 C165.77630296 512.57016056 149.00801281 512.58141057 132.23967603 512.60042582 C114.99179762 512.6198338 97.74394667 512.62805497 80.49605727 512.62430257 C70.8248082 512.62239489 61.15360859 512.62483564 51.48236847 512.63901711 C43.24827202 512.65096973 35.01425546 512.65229254 26.78015783 512.64022694 C22.58560758 512.63436516 18.39120318 512.63316327 14.1966629 512.64522934 C-15.57985051 512.7249323 -46.89801663 511.32717216 -69.6618042 489.45600891 C-71.04036494 488.07768354 -72.3890147 486.66963982 -73.73626709 485.26069641 C-74.4748999 484.49241516 -75.21353271 483.72413391 -75.97454834 482.93257141 C-91.71678261 464.95891365 -96.06342785 439.6041536 -95.9969635 416.52442932 C-95.99999132 415.08164325 -96.00388394 413.63885879 -96.00855607 412.19607711 C-96.01876372 408.26769008 -96.01667289 404.33939505 -96.01237547 400.41100073 C-96.00989497 396.16000245 -96.0189388 391.90902557 -96.02641296 387.65803528 C-96.03912572 379.34351836 -96.04095791 371.0290338 -96.0386127 362.7145088 C-96.03682541 355.95151713 -96.03858798 349.18853524 -96.04283714 342.42554474 C-96.04343233 341.46083796 -96.04402752 340.49613119 -96.04464075 339.50219087 C-96.04585257 337.54199825 -96.04706671 335.58180562 -96.04828312 333.621613 C-96.05914564 315.26160779 -96.05700238 296.90162098 -96.05089828 278.54161474 C-96.04573124 261.77326646 -96.05698125 245.00497631 -96.0759965 228.23663953 C-96.09540448 210.98876112 -96.10362565 193.74091017 -96.09987324 176.49302077 C-96.09796557 166.82177171 -96.10040632 157.15057209 -96.11458778 147.47933197 C-96.1265404 139.24523552 -96.12786322 131.01121896 -96.11579762 122.77712134 C-96.10993584 118.58257108 -96.10873395 114.38816668 -96.12080002 110.1936264 C-96.20050297 80.41711299 -94.80274284 49.09894687 -72.93157959 26.3351593 C-71.55325422 24.95659856 -70.1452105 23.6079488 -68.73626709 22.26069641 C-67.58384521 21.15274719 -67.58384521 21.15274719 -66.40814209 20.02241516 C-48.43448432 4.28018089 -23.07972428 -0.06646435 0 0 Z " fill="#00BA19" transform="translate(95.73626708984375,-0.2606964111328125)"/>
<path d="M0 0 C1.44278607 -0.00302782 2.88557053 -0.00692044 4.32835221 -0.01159257 C8.25673924 -0.02180021 12.18503427 -0.01970938 16.11342859 -0.01541197 C20.36442687 -0.01293147 24.61540375 -0.0219753 28.86639404 -0.02944946 C37.18091096 -0.04216222 45.49539552 -0.04399441 53.80992052 -0.0416492 C60.57291219 -0.03986191 67.33589408 -0.04162448 74.09888458 -0.04587364 C75.06359136 -0.04646883 76.02829813 -0.04706402 77.02223845 -0.04767724 C78.98243108 -0.04888907 80.9426237 -0.05010321 82.90281633 -0.05131962 C101.26282153 -0.06218214 119.62280835 -0.06003888 137.98281458 -0.05393478 C154.75116286 -0.04876774 171.51945301 -0.06001775 188.28778979 -0.07903299 C205.5356682 -0.09844097 222.78351915 -0.10666215 240.03140855 -0.10290974 C249.70265762 -0.10100206 259.37385723 -0.10344282 269.04509735 -0.11762428 C277.2791938 -0.1295769 285.51321036 -0.13089971 293.74730799 -0.11883412 C297.94185824 -0.11297234 302.13626264 -0.11177045 306.33080292 -0.12383652 C336.10731633 -0.20353947 367.42548245 1.19422066 390.18927002 23.06538391 C391.56783076 24.44370928 392.91648052 25.851753 394.26373291 27.26069641 C395.00236572 28.02897766 395.74099854 28.79725891 396.50201416 29.58882141 C412.24424843 47.56247918 416.59089367 72.91723922 416.52442932 95.9969635 C416.52745715 97.43974957 416.53134976 98.88253403 416.53602189 100.32531571 C416.54622954 104.25370274 416.54413871 108.18199777 416.53984129 112.11039209 C416.53736079 116.36139037 416.54640462 120.61236725 416.55387878 124.86335754 C416.56659154 133.17787446 416.56842373 141.49235902 416.56607852 149.80688402 C416.56429123 156.56987569 416.5660538 163.33285758 416.57030296 170.09584808 C416.57089815 171.06055486 416.57149334 172.02526163 416.57210657 173.01920195 C416.57331839 174.97939458 416.57453253 176.9395872 416.57574894 178.89977983 C416.58661146 197.25978503 416.5844682 215.61977185 416.5783641 233.97977808 C416.57319706 250.74812636 416.58444707 267.51641651 416.60346232 284.28475329 C416.6228703 301.5326317 416.63109147 318.78048266 416.62733907 336.02837205 C416.62543139 345.69962112 416.62787214 355.37082073 416.6420536 365.04206085 C416.65400622 373.2761573 416.65532904 381.51017386 416.64326344 389.74427149 C416.63740166 393.93882174 416.63619977 398.13322615 416.64826584 402.32776642 C416.72796879 432.10427983 415.33020866 463.42244595 393.45904541 486.18623352 C392.08072004 487.56479426 390.67267632 488.91344402 389.26373291 490.26069641 C388.49545166 490.99932922 387.72717041 491.73796204 386.93560791 492.49897766 C368.96195015 508.24121193 343.6071901 512.58785717 320.52746582 512.52139282 C319.08467975 512.52442065 317.64189529 512.52831326 316.19911361 512.53298539 C312.27072658 512.54319304 308.34243155 512.54110221 304.41403723 512.5368048 C300.16303895 512.53432429 295.91206207 512.54336813 291.66107178 512.55084229 C283.34655486 512.56355504 275.0320703 512.56538723 266.7175453 512.56304202 C259.95455363 512.56125473 253.19157174 512.5630173 246.42858124 512.56726646 C245.46387446 512.56786165 244.49916769 512.56845684 243.50522737 512.56907007 C241.54503474 512.5702819 239.58484212 512.57149603 237.62464949 512.57271244 C219.26464429 512.58357496 200.90465747 512.5814317 182.54465124 512.5753276 C165.77630296 512.57016056 149.00801281 512.58141057 132.23967603 512.60042582 C114.99179762 512.6198338 97.74394667 512.62805497 80.49605727 512.62430257 C70.8248082 512.62239489 61.15360859 512.62483564 51.48236847 512.63901711 C43.24827202 512.65096973 35.01425546 512.65229254 26.78015783 512.64022694 C22.58560758 512.63436516 18.39120318 512.63316327 14.1966629 512.64522934 C-15.57985051 512.7249323 -46.89801663 511.32717216 -69.6618042 489.45600891 C-71.04036494 488.07768354 -72.3890147 486.66963982 -73.73626709 485.26069641 C-74.4748999 484.49241516 -75.21353271 483.72413391 -75.97454834 482.93257141 C-91.71678261 464.95891365 -96.06342785 439.6041536 -95.9969635 416.52442932 C-95.99999132 415.08164325 -96.00388394 413.63885879 -96.00855607 412.19607711 C-96.01876372 408.26769008 -96.01667289 404.33939505 -96.01237547 400.41100073 C-96.00989497 396.16000245 -96.0189388 391.90902557 -96.02641296 387.65803528 C-96.03912572 379.34351836 -96.04095791 371.0290338 -96.0386127 362.7145088 C-96.03682541 355.95151713 -96.03858798 349.18853524 -96.04283714 342.42554474 C-96.04343233 341.46083796 -96.04402752 340.49613119 -96.04464075 339.50219087 C-96.04585257 337.54199825 -96.04706671 335.58180562 -96.04828312 333.621613 C-96.05914564 315.26160779 -96.05700238 296.90162098 -96.05089828 278.54161474 C-96.04573124 261.77326646 -96.05698125 245.00497631 -96.0759965 228.23663953 C-96.09540448 210.98876112 -96.10362565 193.74091017 -96.09987324 176.49302077 C-96.09796557 166.82177171 -96.10040632 157.15057209 -96.11458778 147.47933197 C-96.1265404 139.24523552 -96.12786322 131.01121896 -96.11579762 122.77712134 C-96.10993584 118.58257108 -96.10873395 114.38816668 -96.12080002 110.1936264 C-96.20050297 80.41711299 -94.80274284 49.09894687 -72.93157959 26.3351593 C-71.55325422 24.95659856 -70.1452105 23.6079488 -68.73626709 22.26069641 C-67.58384521 21.15274719 -67.58384521 21.15274719 -66.40814209 20.02241516 C-48.43448432 4.28018089 -23.07972428 -0.06646435 0 0 Z M127.26373291 26.26069641 C122.3116333 36.44924672 122.68484761 50.78286071 121.53692627 61.95014954 C121.25315038 64.67782908 120.94917141 67.40268129 120.64263916 70.12788391 C120.52367027 71.37020279 120.52367027 71.37020279 120.40229797 72.63761902 C119.81006028 77.77453724 118.7671721 81.2434042 115.26373291 85.26069641 C112.800354 86.62519836 112.800354 86.62519836 110.03717041 87.49897766 C109.01341309 87.84001526 107.98965576 88.18105286 106.93487549 88.53242493 C105.84714844 88.87587952 104.75942139 89.21933411 103.63873291 89.57319641 C94.64546447 92.57962348 86.22060485 95.91375982 77.92340088 100.51777649 C73.87528366 102.70858575 70.99640442 103.92434298 66.26373291 103.26069641 C58.88579744 100.01952245 52.37123433 93.41992207 46.12701416 88.37007141 C42.51872713 85.45592939 38.87449332 82.59239161 35.20123291 79.76069641 C34.19963135 78.98725891 33.19802979 78.21382141 32.16607666 77.41694641 C24.51887834 71.36111841 24.51887834 71.36111841 15.26373291 70.26069641 C13.30606073 71.52708937 13.30606073 71.52708937 11.49005127 73.29658508 C10.79386688 73.93695709 10.0976825 74.5773291 9.38040161 75.23710632 C6.05649028 78.41485163 2.76433957 81.61725172 -0.48236084 84.87397766 C-1.52723412 85.91741585 -1.52723412 85.91741585 -2.59321594 86.98193359 C-4.04894708 88.43698987 -5.50343889 89.89328704 -6.95672607 91.3507843 C-9.18873977 93.58820536 -11.42610844 95.82017319 -13.66400146 98.05171204 C-15.08294243 99.47131296 -16.50157363 100.89122359 -17.91986084 102.31147766 C-18.92441566 103.31299614 -18.92441566 103.31299614 -19.94926453 104.33474731 C-20.56403152 104.95266647 -21.17879852 105.57058563 -21.81219482 106.20722961 C-22.35432114 106.75015152 -22.89644745 107.29307343 -23.45500183 107.85244751 C-25.24999978 109.82534413 -25.72247747 111.17992866 -26.17376709 113.82319641 C-25.16135018 121.77790073 -17.84784454 128.85459604 -12.98626709 135.01069641 C-11.75559897 136.58215488 -10.52513168 138.15377065 -9.29486084 139.72554016 C-8.69399658 140.49108215 -8.09313232 141.25662415 -7.47406006 142.04536438 C-4.98883468 145.21352048 -2.51385736 148.38935544 -0.04876709 151.57319641 C0.7182251 152.55932922 1.48521729 153.54546204 2.27545166 154.56147766 C8.12870293 162.50764 8.12870293 162.50764 7.26373291 168.26069641 C5.79262017 171.91338055 3.99919181 175.38479152 2.20123291 178.88569641 C-2.06793519 187.4308907 -5.65118981 195.91657506 -8.45330811 205.05220032 C-8.70008301 205.82741028 -8.94685791 206.60262024 -9.20111084 207.40132141 C-9.40341309 208.07711243 -9.60571533 208.75290344 -9.81414795 209.44917297 C-11.07550379 211.92713441 -12.33512154 212.85407973 -14.73626709 214.26069641 C-26.34271736 217.64774897 -38.73656471 218.34533834 -50.72674561 219.41474915 C-53.08707195 219.62854423 -55.44462044 219.86314173 -57.80267334 220.10054016 C-58.51210587 220.15797897 -59.22153839 220.21541779 -59.95246887 220.27459717 C-65.67048912 220.87116438 -69.5141976 222.8132914 -73.37924194 227.07028198 C-75.03437299 229.74187796 -75.12184183 231.35706017 -75.14031982 234.4848175 C-75.153004 235.52624908 -75.16568817 236.56768066 -75.17875671 237.64067078 C-75.17582108 238.76051361 -75.17288544 239.88035645 -75.16986084 241.03413391 C-75.17510269 242.19063446 -75.18034454 243.34713501 -75.18574524 244.53868103 C-75.19216788 246.98474831 -75.19082536 249.43084646 -75.18231201 251.87690735 C-75.17381465 255.61477395 -75.2025424 259.35110629 -75.23431396 263.08882141 C-75.2359264 265.46642512 -75.23534765 267.84403153 -75.23236084 270.22163391 C-75.24359482 271.33742828 -75.2548288 272.45322266 -75.2664032 273.60282898 C-75.21107901 279.78185439 -74.96390201 283.60948435 -70.73626709 288.26069641 C-67.02883215 290.7323197 -63.54889063 291.12744933 -59.23626709 291.76069641 C-57.97725586 291.95296814 -57.97725586 291.95296814 -56.69281006 292.14912415 C-50.76314552 293.02912746 -44.82499467 293.72192395 -38.86126709 294.32319641 C-27.36171546 295.4911288 -27.36171546 295.4911288 -22.42376709 296.13569641 C-21.45825928 296.25686829 -20.49275146 296.37804016 -19.49798584 296.50288391 C-15.88058699 297.49549406 -13.21826448 298.42977994 -10.73626709 301.26069641 C-8.70821302 305.37398725 -7.30327709 309.66319217 -5.86126709 314.01069641 C-2.7977247 322.81823458 0.33826329 331.28016845 4.92730713 339.41401672 C7.0171214 343.22376664 7.93911702 345.92793562 7.26373291 350.26069641 C5.66217041 353.12007141 5.66217041 353.12007141 3.26373291 356.26069641 C2.56232178 357.18592102 2.56232178 357.18592102 1.84674072 358.12983704 C0.21149342 360.27086292 -1.44736805 362.3918702 -3.11126709 364.51069641 C-3.71543457 365.28413391 -4.31960205 366.05757141 -4.94207764 366.85444641 C-6.87165525 369.32462449 -8.80381963 371.79276301 -10.73626709 374.26069641 C-13.34285387 377.59214683 -15.94651318 380.92586101 -18.54876709 384.26069641 C-19.15317627 385.03187805 -19.75758545 385.80305969 -20.38031006 386.59761047 C-20.93734619 387.31142883 -21.49438232 388.02524719 -22.06829834 388.76069641 C-22.56047852 389.38975891 -23.05265869 390.01882141 -23.55975342 390.66694641 C-26.19552333 394.2374602 -26.30463049 396.85588006 -25.73626709 401.26069641 C-24.43157848 403.18854316 -24.43157848 403.18854316 -22.68084717 405.01875305 C-21.72451889 406.06641342 -21.72451889 406.06641342 -20.74887085 407.13523865 C-17.58702365 410.47438211 -14.37967873 413.7601227 -11.12298584 417.00679016 C-10.07954765 418.05166344 -10.07954765 418.05166344 -9.01502991 419.11764526 C-7.55997363 420.5733764 -6.10367646 422.02786821 -4.6461792 423.4811554 C-2.40875814 425.71316909 -0.17679032 427.95053776 2.05474854 430.18843079 C3.47434945 431.60737176 4.89426008 433.02600295 6.31451416 434.44429016 C6.98219315 435.11399338 7.64987213 435.78369659 8.33778381 436.47369385 C8.95570297 437.08846085 9.57362213 437.70322784 10.21026611 438.33662415 C11.02464897 439.14981361 11.02464897 439.14981361 11.85548401 439.97943115 C13.82838063 441.77442911 15.18296516 442.2469068 17.82623291 442.69819641 C25.72723352 441.69261452 32.71664636 434.47290824 38.82623291 429.63569641 C44.92868322 424.84743216 51.06002 420.1047157 57.26373291 415.44819641 C57.93992676 414.93885559 58.61612061 414.42951477 59.31280518 413.90473938 C66.3611382 408.62874091 66.3611382 408.62874091 72.26373291 409.26069641 C75.92269883 410.71458506 79.38857403 412.52547891 82.88873291 414.32319641 C91.40252137 418.57974924 99.84445657 422.15545848 108.96734619 424.8898468 C109.7393335 425.13339905 110.5113208 425.37695129 111.30670166 425.62788391 C111.97725586 425.82494934 112.64781006 426.02201477 113.33868408 426.22505188 C116.33942118 427.83939896 117.49732424 429.30238724 119.26373291 432.26069641 C120.13056345 435.96572482 120.47255189 439.69139665 120.82623291 443.47554016 C120.9442627 444.56403763 121.06229248 445.6525351 121.18389893 446.77401733 C121.56001208 450.24726117 121.91442132 453.72216116 122.26373291 457.19819641 C122.72406597 461.77204287 123.20610499 466.3428447 123.70123291 470.91304016 C123.84830688 472.48359413 123.84830688 472.48359413 123.99835205 474.08587646 C124.72014621 480.73218238 125.91957401 485.24646592 131.07174683 489.89033508 C133.74541292 491.56182773 135.35043561 491.64621408 138.487854 491.66474915 C139.52928558 491.67743332 140.57071716 491.69011749 141.64370728 491.70318604 C142.76355011 491.7002504 143.88339294 491.69731476 145.03717041 491.69429016 C146.77192123 491.70215294 146.77192123 491.70215294 148.54171753 491.71017456 C150.9877848 491.7165972 153.43388296 491.71525468 155.87994385 491.70674133 C159.61781045 491.69824397 163.35414278 491.72697172 167.09185791 491.75874329 C169.46946162 491.76035572 171.84706803 491.75977697 174.22467041 491.75679016 C175.89836197 491.77364113 175.89836197 491.77364113 177.60586548 491.79083252 C183.78489089 491.73550834 187.61252085 491.48833133 192.26373291 487.26069641 C194.50362763 483.90085433 195.0227173 481.08978666 195.63873291 477.19819641 C195.76320801 476.45029846 195.88768311 475.70240051 196.01593018 474.93183899 C196.92243958 469.19909341 197.58966692 463.45204259 198.20513916 457.68257141 C198.28739746 456.92718582 198.36965576 456.17180023 198.45440674 455.39352417 C198.87190796 451.55727526 199.27188563 447.72069377 199.64215088 443.8795929 C199.79523408 442.43753979 199.94901377 440.99556042 200.10357666 439.55366516 C200.23111328 438.27000061 200.3586499 436.98633606 200.49005127 435.66377258 C201.36608249 431.81050681 202.45143602 430.00788086 205.26373291 427.26069641 C207.3916626 426.17744446 207.3916626 426.17744446 209.68560791 425.52241516 C210.96552612 425.13424622 210.96552612 425.13424622 212.27130127 424.73823547 C213.17630371 424.47752258 214.08130615 424.21680969 215.01373291 423.94819641 C224.69239607 420.95778167 233.3600174 417.03982026 242.26373291 412.26069641 C249.3485988 408.54390602 249.3485988 408.54390602 254.26373291 409.26069641 C259.30062797 412.33143507 263.87831987 415.99752742 268.51373291 419.63569641 C269.2907959 420.23986389 270.06785889 420.84403137 270.86846924 421.46650696 C275.01084363 424.69094284 279.12244499 427.9474186 283.19732666 431.25679016 C283.99428955 431.89632629 284.79125244 432.53586243 285.61236572 433.19477844 C287.13790477 434.41998695 288.65469056 435.65619898 290.16119385 436.90473938 C294.43409446 440.31615217 297.57001142 442.38663437 303.26373291 442.26069641 C309.21676713 440.01841378 313.05635703 435.88672846 317.43560791 431.45210266 C318.19923645 430.68897263 318.96286499 429.92584259 319.74963379 429.1395874 C321.35673718 427.5301502 322.96016481 425.91703518 324.56011963 424.30049133 C327.01049482 421.82646576 329.4739766 419.3660866 331.93951416 416.90718079 C333.50150679 415.3396129 335.06273146 413.77127932 336.62310791 412.20210266 C337.72776398 411.09881371 337.72776398 411.09881371 338.85473633 409.97323608 C339.53594543 409.28249496 340.21715454 408.59175385 340.91900635 407.88008118 C341.81785553 406.97432091 341.81785553 406.97432091 342.73486328 406.05026245 C345.06791131 403.3193929 346.14088263 401.01580204 346.71685791 397.47554016 C346.07401121 392.91465363 343.84984314 390.35442317 341.01373291 386.82319641 C340.47522705 386.12943909 339.93672119 385.43568176 339.38189697 384.72090149 C337.6922859 382.55390902 335.98172124 380.40524006 334.26373291 378.26069641 C333.73006104 377.59199524 333.19638916 376.92329407 332.64654541 376.23432922 C330.60618493 373.68007199 328.56271556 371.12843234 326.50958252 368.58442688 C312.56895584 351.27162866 312.56895584 351.27162866 313.26373291 344.26069641 C314.53306905 340.97750967 316.15247665 337.88738404 317.76373291 334.76069641 C322.06382852 326.17349411 325.53039936 317.53785862 328.39849854 308.37007141 C329.7754085 304.23628851 330.74904742 301.74778282 333.95904541 298.70991516 C338.00541942 296.93544145 341.51629456 296.44639521 345.88873291 296.13569641 C347.50745862 295.98985647 349.12595235 295.84141834 350.74420166 295.69038391 C351.91475098 295.58548645 351.91475098 295.58548645 353.10894775 295.47846985 C355.83389998 295.20307246 358.50816419 294.75588585 361.20123291 294.26069641 C364.80208054 293.60416038 368.36554472 293.14131269 372.00982666 292.83100891 C372.8548877 292.75624329 373.69994873 292.68147766 374.57061768 292.60444641 C376.24308409 292.46198706 377.91683308 292.33365269 379.59161377 292.22163391 C384.81913533 291.77013407 388.15350232 290.78199844 392.26373291 287.26069641 C394.78406983 283.71025421 395.64363169 281.26012211 395.68365479 276.92304993 C395.70752258 275.36101585 395.70752258 275.36101585 395.73187256 273.76742554 C395.73207397 272.65274399 395.73227539 271.53806244 395.73248291 270.38960266 C395.7439032 268.65697426 395.7439032 268.65697426 395.7555542 266.88934326 C395.76634813 264.44926615 395.7692112 262.00914286 395.76470947 259.56904602 C395.76373725 255.8398268 395.80536931 252.11266552 395.84967041 248.38374329 C395.85487759 246.0107007 395.8575656 243.63765096 395.85748291 241.26460266 C395.88207581 239.59561668 395.88207581 239.59561668 395.90716553 237.89291382 C395.91068245 231.33864989 395.91068245 231.33864989 393.06915283 225.62153625 C390.17107948 223.18272594 388.45408757 222.24735681 384.78326416 221.48335266 C383.7296167 221.26308411 382.67596924 221.04281555 381.59039307 220.81587219 C376.06069867 219.893039 370.52960699 219.24391558 364.95123291 218.69819641 C362.57746134 218.4462853 360.20376272 218.19368583 357.83013916 217.94038391 C354.76928009 217.62149892 351.70832779 217.30498174 348.64605713 216.99995422 C346.55872948 216.78922083 344.47356269 216.55735463 342.38873291 216.32319641 C341.29818604 216.21104797 340.20763916 216.09889954 339.08404541 215.98335266 C335.341309 215.02434126 333.87214372 214.17270913 331.26373291 211.26069641 C329.53899843 207.48633922 328.28972272 203.58054149 327.01373291 199.63569641 C323.9758794 190.65718044 320.60827443 182.21450715 316.00689697 173.92036438 C313.82575425 169.89101075 312.45629785 166.95907839 313.26373291 162.26069641 C314.86529541 159.40132141 314.86529541 159.40132141 317.26373291 156.26069641 C317.73134033 155.64388 318.19894775 155.0270636 318.6807251 154.39155579 C320.31595953 152.25054676 321.97563496 150.13012233 323.63873291 148.01069641 C324.24290039 147.23218323 324.84706787 146.45367004 325.46954346 145.65156555 C328.68019043 141.52110489 331.93064305 137.43306116 335.25982666 133.39741516 C336.21913086 132.21550598 336.21913086 132.21550598 337.19781494 131.00971985 C338.41908985 129.50685647 339.65508512 128.01579585 340.90777588 126.53901672 C344.15685399 122.50703955 346.5008309 118.89491671 346.64694214 113.59262085 C346.16947167 110.6870931 345.19526276 109.59190134 343.20123291 107.44941711 C342.24261604 106.40995186 342.24261604 106.40995186 341.26463318 105.3494873 C340.27418755 104.31553581 340.27418755 104.31553581 339.26373291 103.26069641 C338.66962112 102.63790298 338.07550934 102.01510956 337.46339417 101.3734436 C335.63828685 99.48839237 333.79318892 97.62546104 331.93951416 95.76850891 C331.27082809 95.09649445 330.60214203 94.42447998 329.91319275 93.73210144 C328.51368343 92.32757266 327.11285667 90.92435547 325.71075439 89.52241516 C323.56601673 87.37546972 321.42943273 85.22061949 319.29302979 83.06538391 C317.92568048 81.69510388 316.55785868 80.32529514 315.18951416 78.95600891 C314.55403152 78.31334076 313.91854889 77.67067261 313.2638092 77.00852966 C312.66606186 76.41385895 312.06831451 75.81918823 311.45245361 75.20649719 C310.93173782 74.68435638 310.41102203 74.16221558 309.87452698 73.62425232 C307.22751299 71.3835242 304.89405602 70.36324547 301.47857666 69.80757141 C296.91769013 70.45041812 294.35745967 72.67458618 290.82623291 75.51069641 C290.13247559 76.04920227 289.43871826 76.58770813 288.72393799 77.14253235 C286.55694552 78.83214342 284.40827656 80.54270809 282.26373291 82.26069641 C281.59503174 82.79436829 280.92633057 83.32804016 280.23736572 83.87788391 C277.68310848 85.91824439 275.13146884 87.96171376 272.58746338 90.0148468 C255.27466516 103.95547348 255.27466516 103.95547348 248.26373291 103.26069641 C244.98054617 101.99136027 241.89042053 100.37195267 238.76373291 98.76069641 C230.17653061 94.4606008 221.54089512 90.99402996 212.37310791 88.12593079 C211.5004126 87.83524719 210.62771729 87.5445636 209.72857666 87.24507141 C208.96150391 87.00498352 208.19443115 86.76489563 207.40411377 86.51753235 C204.29799992 84.69361606 202.65118041 82.51413392 201.26373291 79.26069641 C200.42588007 75.59095114 200.06035097 71.9102432 199.70123291 68.16694641 C199.52418823 66.5696167 199.52418823 66.5696167 199.34356689 64.9400177 C198.84110728 60.40208575 198.37699713 55.86042022 197.90924072 51.31880188 C197.56145455 47.99577646 197.19430668 44.67527583 196.82623291 41.35444641 C196.72818359 40.33242126 196.63013428 39.31039612 196.52911377 38.25740051 C195.90231369 32.62210411 195.15776231 28.64577184 191.26373291 24.26069641 C187.70872798 21.74711124 185.26431296 20.88080828 180.92608643 20.84077454 C179.88473038 20.82486267 178.84337433 20.80895081 177.77046204 20.79255676 C176.65578049 20.79235535 175.54109894 20.79215393 174.39263916 20.79194641 C173.23755356 20.78433289 172.08246796 20.77671936 170.89237976 20.76887512 C168.45230265 20.75808119 166.01217936 20.75521812 163.57208252 20.75971985 C159.8428633 20.76069208 156.11570202 20.71906001 152.38677979 20.67475891 C150.01373719 20.66955173 147.64068746 20.66686372 145.26763916 20.66694641 C143.59865318 20.64235352 143.59865318 20.64235352 141.89595032 20.61726379 C135.25192112 20.67645479 131.66033005 21.08367596 127.26373291 26.26069641 Z " fill="#FBFEFA" transform="translate(95.73626708984375,-0.2606964111328125)"/>
<path d="M0 0 C16.04330385 13.6003996 28.63322964 32.88542326 30.66796875 54.26171875 C32.30672713 79.70466392 27.75949173 102.49852374 10.57421875 122.20703125 C9.94515625 122.88507813 9.31609375 123.563125 8.66796875 124.26171875 C8.08015625 124.93976563 7.49234375 125.6178125 6.88671875 126.31640625 C-6.34267013 140.72298652 -27.77387139 150.7059404 -47.10546875 151.57421875 C-74.53788753 152.33255424 -95.78227781 144.91579954 -116.01953125 126.07421875 C-123.37861958 118.44752721 -128.95426348 108.85913271 -133.33203125 99.26171875 C-133.84765625 98.20984375 -134.36328125 97.15796875 -134.89453125 96.07421875 C-142.68275008 76.81763373 -141.57585017 51.95668716 -133.6015625 32.87890625 C-123.6614719 11.12050287 -106.2355566 -5.7609944 -83.96484375 -14.5546875 C-54.60406111 -24.12061991 -24.13891074 -19.18733931 0 0 Z " fill="#00BA19" transform="translate(310.33203125,189.73828125)"/>
<path d="M0 0 C0.33 0 0.66 0 1 0 C1.14695313 0.70125 1.29390625 1.4025 1.4453125 2.125 C3.85186462 12.30443887 7.89067506 18.08851752 16.65625 23.7734375 C21.87222011 26.50312852 27.12691588 27.41797634 32.92578125 28 C34.04632149 28.12181641 34.04632149 28.12181641 35.1894989 28.24609375 C37.56320963 28.50368009 39.9376982 28.75269022 42.3125 29 C48.21495579 29.61883022 54.10865664 30.2827802 60 31 C60.98887207 31.09539062 61.97774414 31.19078125 62.99658203 31.2890625 C65.40234375 31.625 65.40234375 31.625 69 33 C70.8060273 35.48486157 71.50277261 38.04673277 72.25 41 C72.70936602 42.54720981 73.17420538 44.09280524 73.64453125 45.63671875 C73.97638428 46.76086182 73.97638428 46.76086182 74.31494141 47.90771484 C75.49739923 51.51914164 77.31852623 54.74301932 79.21484375 58.01953125 C80.23635319 60.59617446 80.09437272 61.45275315 79 64 C77.57079595 66.05285673 76.12322681 67.99046917 74.5625 69.9375 C73.65094263 71.0988806 72.7394872 72.26034123 71.828125 73.421875 C71.35955078 74.01419922 70.89097656 74.60652344 70.40820312 75.21679688 C65.15744059 81.86582072 59.9643488 88.57169254 55 95.4375 C54.46375 96.17871094 53.9275 96.91992188 53.375 97.68359375 C48.70678465 105.54794518 48.51922538 116.05208408 50.69921875 124.80859375 C54.23084374 132.80398266 60.95321498 138.86827687 67 145 C68.40975219 146.44767711 69.81949022 147.89536805 71.22898865 149.34329224 C73.32301409 151.48902483 75.42633562 153.62546765 77.53231812 155.75946045 C78.58099279 156.82318537 79.62762016 157.88893316 80.67202759 158.95684814 C94.55936607 173.33514716 94.55936607 173.33514716 113.1875 178.375 C125.00255072 178.28194556 132.08560084 173.68465786 141.1484375 166.46875 C144.10136355 164.12634453 147.08559278 161.82440936 150.06445312 159.51513672 C153.07624028 157.1778015 156.08070177 154.83115884 159.08398438 152.48291016 C159.71626953 151.9935498 160.34855469 151.50418945 161 151 C161.66064453 150.4229834 162.32128906 149.8459668 163.00195312 149.25146484 C163.66130859 148.83848145 164.32066406 148.42549805 165 148 C168.24881233 148.78600298 170.93823051 149.71561365 174 151 C175.13953125 151.47566406 176.2790625 151.95132813 177.453125 152.44140625 C180.97916539 153.93809786 184.49046411 155.4650777 188 157 C189.28905878 157.54167552 190.57812121 158.08334236 191.8671875 158.625 C195 160 195 160 196 161 C196.24177644 162.35969325 196.42589715 163.7297315 196.58496094 165.1015625 C196.68887146 165.97337158 196.79278198 166.84518066 196.89984131 167.7434082 C197.06543549 169.16979614 197.06543549 169.16979614 197.234375 170.625 C197.48087546 172.63162061 197.72830185 174.63812765 197.9765625 176.64453125 C198.36486109 179.81205014 198.7476633 182.97979353 199.11425781 186.14990234 C199.47013449 189.20650889 199.85035175 192.25931828 200.234375 195.3125 C200.33667419 196.24723145 200.43897339 197.18196289 200.54437256 198.14501953 C201.81981609 207.96406071 205.9347161 215.10495911 213.66015625 221.33984375 C217.27655823 224.08195075 220.56177909 225.80925781 225 227 C225 227.33 225 227.66 225 228 C206.51835715 228.07035247 188.03674947 228.12311587 169.55500126 228.15543652 C160.97192446 228.17084824 152.38893129 228.19182761 143.8059082 228.22631836 C136.31735483 228.25639643 128.82886207 228.27561628 121.34024996 228.28226548 C117.38196482 228.28614687 113.42385297 228.2951469 109.46562386 228.31719017 C79.83167231 228.47566079 48.71332023 226.94644435 26.07446289 205.1953125 C24.69590215 203.81698713 23.34725239 202.40894341 22 201 C20.89205078 199.84757812 20.89205078 199.84757812 19.76171875 198.671875 C3.95821406 180.62826188 -0.35565469 155.19326403 -0.22705078 132.0300293 C-0.22648504 130.57985441 -0.2268064 129.12967895 -0.22793579 127.67950439 C-0.22850395 123.78571865 -0.21683776 119.89205896 -0.20278788 115.99830222 C-0.1901899 111.91308484 -0.18910293 107.82786381 -0.18673706 103.74263 C-0.18054871 96.02589614 -0.16417412 88.3092197 -0.14403808 80.592511 C-0.12159621 71.7991564 -0.11066491 63.00579889 -0.10064721 54.21242273 C-0.07980521 36.14158273 -0.0446813 18.070796 0 0 Z " fill="#00BA19" transform="translate(0,284)"/>
<path d="M0 0 C0.33 0 0.66 0 1 0 C1.07034431 18.87279188 1.12311194 37.74555685 1.15543652 56.61845303 C1.17084994 65.38313133 1.19183266 74.14772778 1.22631836 82.91235352 C1.25639112 90.55912001 1.27561505 98.20582718 1.28226548 105.85265118 C1.28614774 109.89477173 1.2951536 113.93672265 1.31719017 117.97878838 C1.4732462 147.78762257 0.10347932 179.12323575 -21.8046875 201.92553711 C-23.18301287 203.30409785 -24.59105659 204.65274761 -26 206 C-26.76828125 206.73863281 -27.5365625 207.47726562 -28.328125 208.23828125 C-46.28162746 223.96286249 -71.63439312 228.35462393 -94.69458008 228.22705078 C-96.11519869 228.22648499 -97.53581788 228.22680649 -98.95643616 228.22793579 C-102.76964708 228.22850377 -106.5827292 228.21684054 -110.3959105 228.20278788 C-114.39704608 228.19018688 -118.39818541 228.1891027 -122.39933777 228.18673706 C-129.95670037 228.18054958 -137.51400431 228.16417621 -145.07134122 228.14403808 C-153.68332062 228.12159345 -162.29530299 228.11066423 -170.90730441 228.10064721 C-188.60490272 228.0798072 -206.30244662 228.04468503 -224 228 C-221 226 -221 226 -218.51171875 224.7734375 C-211.89038869 221.49482594 -207.77070828 218.36629856 -204 212 C-203.13375 210.6078125 -203.13375 210.6078125 -202.25 209.1875 C-198.50811907 199.64570363 -198.21596402 188.6919518 -197.14453125 178.58398438 C-196.79307437 175.38497094 -196.39788843 172.19351141 -196 169 C-195.91492188 168.03698975 -195.82984375 167.07397949 -195.7421875 166.08178711 C-194.94942653 159.74949361 -194.94942653 159.74949361 -192.40820312 157.7434082 C-190.28926559 156.82227939 -188.24515197 156.23062391 -186 155.6875 C-184.45282223 155.23724932 -182.90722679 154.78152489 -181.36328125 154.3203125 C-180.61385254 154.10536133 -179.86442383 153.89041016 -179.09228516 153.66894531 C-175.47146734 152.51129761 -172.2569068 150.68143102 -168.98046875 148.78515625 C-166.47790915 147.79301724 -165.52452732 148.1515306 -163 149 C-161.25512695 150.10058594 -161.25512695 150.10058594 -159.48828125 151.484375 C-158.82111084 152.0014502 -158.15394043 152.51852539 -157.46655273 153.05126953 C-156.75571533 153.61185059 -156.04487793 154.17243164 -155.3125 154.75 C-154.57008057 155.32476074 -153.82766113 155.89952148 -153.06274414 156.49169922 C-149.15136674 159.52121636 -145.26456186 162.58111061 -141.3828125 165.6484375 C-140.26459106 166.52290527 -140.26459106 166.52290527 -139.1237793 167.41503906 C-137.70421373 168.52532798 -136.29117373 169.64403007 -134.88598633 170.77246094 C-125.58456448 178.03043195 -116.63133877 179.16663378 -105 178 C-96.48120315 175.86138991 -90.3475872 169.22529167 -84.26806641 163.23291016 C-82.54829214 161.53979332 -80.82153575 159.85554553 -79.08740234 158.17724609 C-76.31732055 155.49477107 -73.56105892 152.79866142 -70.81228638 150.09436035 C-69.70139851 149.00350459 -68.58759455 147.9156093 -67.47067261 146.83093262 C-53.86848778 133.72917626 -53.86848778 133.72917626 -48.65527344 116.20068359 C-48.4530669 101.08411411 -55.13957092 93.17648962 -64.44238281 81.90917969 C-66.87764435 78.92426664 -69.22347326 75.87305255 -71.5625 72.8125 C-72.34753906 71.78769531 -73.13257813 70.76289063 -73.94140625 69.70703125 C-74.62074219 68.81371094 -75.30007813 67.92039062 -76 67 C-76.60714844 66.32324219 -77.21429688 65.64648438 -77.83984375 64.94921875 C-79 63 -79 63 -78.9296875 60.80078125 C-77.60133177 56.79897007 -75.88833672 53.0143831 -74.125 49.1875 C-71.53138593 43.52050076 -69.1251214 37.86079078 -67 32 C-64.56269293 31.70664934 -62.12518076 31.41521913 -59.6875 31.125 C-58.92928955 31.03404053 -58.1710791 30.94308105 -57.38989258 30.84936523 C-53.28417191 30.36325529 -49.179039 29.91204412 -45.0625 29.52734375 C-24.24291857 27.92405055 -24.24291857 27.92405055 -7.15234375 16.9609375 C-3.39295206 11.73288911 -1.48183716 6.22631578 0 0 Z " fill="#00BA19" transform="translate(511,284)"/>
<path d="M0 0 C18.87279188 -0.07034431 37.74555685 -0.12311194 56.61845303 -0.15543652 C65.38313133 -0.17084994 74.14772778 -0.19183266 82.91235352 -0.22631836 C90.55912001 -0.25639112 98.20582718 -0.27561505 105.85265118 -0.28226548 C109.89477173 -0.28614774 113.93672265 -0.2951536 117.97878838 -0.31719017 C147.78762257 -0.4732462 179.12323575 0.89652068 201.92553711 22.8046875 C203.30409785 24.18301287 204.65274761 25.59105659 206 27 C206.73863281 27.76828125 207.47726562 28.5365625 208.23828125 29.328125 C223.96286249 47.28162746 228.35462393 72.63439312 228.22705078 95.69458008 C228.22648499 97.11519869 228.22680649 98.53581788 228.22793579 99.95643616 C228.22850377 103.76964708 228.21684054 107.5827292 228.20278788 111.3959105 C228.19018688 115.39704608 228.1891027 119.39818541 228.18673706 123.39933777 C228.18054958 130.95670037 228.16417621 138.51400431 228.14403808 146.07134122 C228.12159345 154.68332062 228.11066423 163.29530299 228.10064721 171.90730441 C228.0798072 189.60490272 228.04468503 207.30244662 228 225 C226.45757138 222.68635707 225.2968427 220.61395515 224.125 218.125 C219.90302434 209.74223673 213.89156205 205.34838487 205.20703125 201.88671875 C201.32691057 200.8138961 197.56105747 200.37784692 193.5625 200 C191.96209709 199.83602026 190.36183788 199.6706324 188.76171875 199.50390625 C187.96427246 199.42156738 187.16682617 199.33922852 186.34521484 199.25439453 C181.62573634 198.74245443 176.92683795 198.08615376 172.2265625 197.421875 C169.55844255 197.0730167 166.93214493 196.86305858 164.25 196.6875 C161 196 161 196 159.55078125 194.078125 C157.41460613 189.83805952 155.67157497 185.47972623 153.9375 181.0625 C153.58623047 180.18142578 153.23496094 179.30035156 152.87304688 178.39257812 C152.19771678 176.68829519 151.53425205 174.97924989 150.88427734 173.26513672 C150.15591783 171.39939417 149.3270521 169.57321277 148.47265625 167.76171875 C148 165 148 165 149.71875 161.984375 C150.6264474 160.88987856 151.55531291 159.81273389 152.5 158.75 C153.52437664 157.52031298 154.54776479 156.28980203 155.5703125 155.05859375 C156.12364258 154.40616699 156.67697266 153.75374023 157.24707031 153.08154297 C173.97251107 133.95798178 173.97251107 133.95798178 178.46484375 109.79296875 C176.58703759 94.47070172 160.97617224 82.77240338 150.55615234 72.31591797 C148.86222328 70.61214906 147.17928459 68.89796381 145.49609375 67.18359375 C132.88249663 54.32328232 132.88249663 54.32328232 116.02490234 49.56738281 C101.02106429 49.53426907 93.10936551 56.19499168 81.90917969 65.44238281 C78.92426664 67.87764435 75.87305255 70.22347326 72.8125 72.5625 C71.78769531 73.34753906 70.76289063 74.13257812 69.70703125 74.94140625 C68.81371094 75.62074219 67.92039062 76.30007812 67 77 C66.30261719 77.60714844 65.60523438 78.21429688 64.88671875 78.83984375 C63 80 63 80 61.19628906 79.69726562 C58.72954498 78.91413745 56.36481024 77.99248579 53.97265625 77.00390625 C53.01552734 76.61009766 52.05839844 76.21628906 51.07226562 75.81054688 C50.07904297 75.39869141 49.08582031 74.98683594 48.0625 74.5625 C46.09509932 73.75118754 44.12765292 72.93998591 42.16015625 72.12890625 C41.29011963 71.76869385 40.42008301 71.40848145 39.52368164 71.03735352 C37.02194237 70.00901936 34.51297864 69.00051431 32 68 C31.86424561 66.76958984 31.72849121 65.53917969 31.58862305 64.27148438 C31.07904399 59.67815005 30.55580484 55.08645495 30.02856445 50.49511719 C29.80286664 48.51311232 29.58080532 46.53068966 29.36254883 44.54785156 C29.04698777 41.68695629 28.71809301 38.82785159 28.38671875 35.96875 C28.29283371 35.09134155 28.19894867 34.21393311 28.10221863 33.30993652 C26.8810957 23.0366204 23.14969233 12.7827579 14.8125 6.125 C10.33703956 3.21191877 5.15521092 2.14663823 0 1 C0 0.67 0 0.34 0 0 Z " fill="#00BA19" transform="translate(284,0)"/>
<path d="M0 0 C1.42061861 0.00056579 2.8412378 0.00024429 4.26185608 -0.00088501 C8.07506701 -0.00145299 11.88814913 0.01021025 15.70133042 0.02426291 C19.702466 0.0368639 23.70360533 0.03794808 27.70475769 0.04031372 C35.26212029 0.0465012 42.81942423 0.06287457 50.37676114 0.0830127 C58.98874054 0.10545733 67.60072291 0.11638655 76.21272433 0.12640357 C93.91032264 0.14724358 111.60786654 0.18236575 129.30541992 0.22705078 C127.00070255 1.76352903 124.97448516 2.88931837 122.49291992 4.03955078 C115.46902584 7.55149782 110.57324473 12.09464419 107.30541992 19.22705078 C104.33174319 29.79721826 103.27815793 40.72074791 102.11791992 51.60205078 C101.93953933 53.22451886 101.76050648 54.84691536 101.58081055 56.46923828 C101.14818498 60.38772783 100.72429799 64.30706883 100.30541992 68.22705078 C99.74669189 68.44844727 99.18796387 68.66984375 98.61230469 68.89794922 C96.03008442 69.9224156 93.44900126 70.94971848 90.86791992 71.97705078 C89.98942383 72.32509766 89.11092773 72.67314453 88.20581055 73.03173828 C87.3324707 73.37978516 86.45913086 73.72783203 85.55932617 74.08642578 C84.6829248 74.43382813 83.80652344 74.78123047 82.90356445 75.13916016 C80.36419712 76.20243969 77.92570753 77.3998225 75.45776367 78.61767578 C71.69329647 80.29474883 71.69329647 80.29474883 68.57495117 79.75048828 C65.87388473 77.93738 63.44398584 75.99456668 60.99291992 73.85205078 C56.14199048 69.69444252 51.16412392 65.75101342 46.05541992 61.91455078 C45.40661865 61.4235791 44.75781738 60.93260742 44.08935547 60.42675781 C32.80017118 51.99173365 24.63402366 49.01200889 10.30541992 50.22705078 C3.75458341 51.88572631 -0.82749421 56.07824185 -5.65942383 60.60986328 C-6.22250748 61.13434052 -6.78559113 61.65881775 -7.36573792 62.19918823 C-13.14767402 67.60883739 -18.83521809 73.11282804 -24.45410156 78.69140625 C-25.58088433 79.80654904 -26.71214969 80.91717908 -27.84765625 82.0234375 C-37.17213208 91.10991516 -45.74137543 99.54283121 -46.00708008 113.28955078 C-45.99427206 125.19388919 -41.43408544 132.24376577 -34.16333008 141.37548828 C-31.8209246 144.32841433 -29.51898944 147.31264356 -27.2097168 150.29150391 C-24.87238158 153.30329106 -22.52573892 156.30775255 -20.17749023 159.31103516 C-19.68812988 159.94332031 -19.19876953 160.57560547 -18.69458008 161.22705078 C-18.12529785 161.91355713 -17.55601563 162.60006348 -16.96948242 163.30737305 C-16.54876465 163.9408667 -16.12804687 164.57436035 -15.69458008 165.22705078 C-16.25708008 167.84814453 -16.25708008 167.84814453 -17.69458008 171.22705078 C-18.32172105 172.8212623 -18.94652165 174.41639553 -19.56958008 176.01220703 C-20.27614653 177.77203205 -20.98452329 179.53113116 -21.69458008 181.28955078 C-22.05036133 182.17449219 -22.40614258 183.05943359 -22.77270508 183.97119141 C-23.43596674 185.62068357 -24.09994113 187.26988948 -24.76489258 188.91870117 C-25.74540561 191.35324705 -26.72067182 193.78985615 -27.69458008 196.22705078 C-28.41299072 196.30221924 -29.13140137 196.3773877 -29.87158203 196.45483398 C-47.655871 198.32198262 -47.655871 198.32198262 -65.38208008 200.66455078 C-66.11531494 200.76227783 -66.8485498 200.86000488 -67.60400391 200.96069336 C-75.97779052 202.25502735 -83.94440749 206.20950684 -89.10473633 213.11376953 C-91.64039219 216.99487544 -93.45701144 220.72680118 -94.69458008 225.22705078 C-95.02458008 225.22705078 -95.35458008 225.22705078 -95.69458008 225.22705078 C-95.76493255 206.74540793 -95.81769595 188.26380025 -95.85001659 169.78205204 C-95.86542832 161.19897525 -95.88640769 152.61598207 -95.92089844 144.03295898 C-95.95097651 136.54440561 -95.97019636 129.05591285 -95.97684556 121.56730074 C-95.98072694 117.6090156 -95.98972697 113.65090375 -96.01177025 109.69267464 C-96.17024086 80.0587231 -94.64102443 48.94037102 -72.88989258 26.30151367 C-71.51156721 24.92295293 -70.10352349 23.57430317 -68.69458008 22.22705078 C-67.5421582 21.11910156 -67.5421582 21.11910156 -66.36645508 19.98876953 C-48.41295262 4.26418829 -23.06018696 -0.12757315 0 0 Z " fill="#00BA19" transform="translate(95.694580078125,-0.22705078125)"/>
<path d="M0 0 C21.60613365 19.61936274 37.22340382 44.87720115 38.83984375 74.703125 C40.06017815 104.96741807 30.92234951 132.31467287 10.41113281 154.90917969 C-8.55076475 175.45453425 -34.83038657 188.55414865 -62.9375 189.6875 C-93.15089254 190.46829884 -120.16610242 180.40418434 -142.3125 159.65234375 C-148.46422699 153.75876449 -153.76802794 147.73448033 -158.28125 140.46875 C-158.87550781 139.54578125 -159.46976563 138.6228125 -160.08203125 137.671875 C-164.65610405 130.26716614 -167.58723923 122.71977929 -170.28125 114.46875 C-170.57902344 113.66695312 -170.87679687 112.86515625 -171.18359375 112.0390625 C-179.76614611 88.72526355 -176.12540538 60.80601464 -166.28125 38.46875 C-157.51806474 20.03087255 -143.73900277 3.26735996 -126.28125 -7.53125 C-125.29253906 -8.17578125 -124.30382812 -8.8203125 -123.28515625 -9.484375 C-85.17663606 -33.00482798 -34.01810509 -29.21554907 0 0 Z M-132.05859375 24.83984375 C-149.47899241 45.44428715 -155.37558329 68.87828705 -153.28125 95.46875 C-150.82405463 115.70269211 -138.67698232 135.45215016 -123.28125 148.46875 C-102.16166188 164.73935645 -79.2865358 169.92919357 -52.89453125 167.22412109 C-37.42035807 164.98236819 -21.62215514 155.99035021 -10.28125 145.46875 C-9.60320312 144.8809375 -8.92515625 144.293125 -8.2265625 143.6875 C6.18001777 130.45811112 16.16297165 109.02690986 17.03125 89.6953125 C17.78958549 62.26289372 10.37283079 41.01850344 -8.46875 20.78125 C-14.09182713 15.37369151 -20.56860228 11.37449753 -27.28125 7.46875 C-28.27253906 6.88867188 -29.26382813 6.30859375 -30.28515625 5.7109375 C-64.00608939 -12.5488331 -106.33886702 -2.00016146 -132.05859375 24.83984375 Z " fill="#FAFFFA" transform="translate(324.28125,173.53125)"/>
</svg>
