<?xml version="1.0" encoding="UTF-8"?>
<svg version="1.1" xmlns="http://www.w3.org/2000/svg" width="320" height="320">
<path d="M0 0 C3.16760724 -0.10881094 6.33141121 -0.18769629 9.5 -0.25 C10.386875 -0.28351562 11.27375 -0.31703125 12.1875 -0.3515625 C18.3574434 -0.44229696 22.87014963 0.46249803 28 4 C33.43653618 9.28052079 34.2245419 16.89816759 36 24 C84.51 24.495 84.51 24.495 134 25 C128.60211268 49.29049296 128.60211268 49.29049296 127 56.1875 C126.76539063 57.24001953 126.53078125 58.29253906 126.2890625 59.37695312 C124.60071838 66.5887241 123.01543329 72.61278198 117 77.375 C112.49543666 79.81497181 109.05167206 80.1240737 103.94628906 80.11352539 C102.72532532 80.11344986 101.50436157 80.11337433 100.24639893 80.11329651 C98.93274353 80.10813522 97.61908813 80.10297394 96.265625 80.09765625 C94.9037074 80.09579021 93.54178912 80.09436718 92.17987061 80.09336853 C88.60258111 80.08955803 85.02533248 80.07974032 81.44805908 80.06866455 C77.79480543 80.05841884 74.14154514 80.05386415 70.48828125 80.04882812 C63.32550224 80.03811669 56.16275686 80.02105794 49 80 C49.59109583 81.96231815 50.19833105 83.9197805 50.8125 85.875 C51.14894531 86.96554688 51.48539063 88.05609375 51.83203125 89.1796875 C52.80660505 92.27298725 52.80660505 92.27298725 56 94 C58.809826 94.32936731 58.809826 94.32936731 62.03198242 94.31884766 C63.27304245 94.33871735 64.51410248 94.35858704 65.79277039 94.37905884 C67.14700136 94.39093518 68.50123422 94.40259804 69.85546875 94.4140625 C71.24124812 94.43277317 72.62701609 94.45234652 74.01277161 94.4727478 C77.65739216 94.52408594 81.30204965 94.56370244 84.94683838 94.60089111 C88.66712597 94.64092036 92.38725966 94.69201759 96.10742188 94.7421875 C103.40484235 94.83896662 110.70233724 94.92336483 118 95 C118 97.97 118 100.94 118 104 C109.92404507 104.09297974 101.84831652 104.1639056 93.7719574 104.20724869 C90.02111811 104.22805897 86.27064698 104.25625467 82.52001953 104.30175781 C78.89547138 104.3454525 75.27127573 104.36918636 71.64648438 104.37950897 C70.26866106 104.38685832 68.89085545 104.40120946 67.51318359 104.42292023 C58.26519725 104.56276669 51.46143232 104.32829664 44.64379883 97.71411133 C42.66857041 94.45276952 41.62584042 91.23631243 40.69921875 87.57421875 C40.4960051 86.80824875 40.29279144 86.04227875 40.0834198 85.25309753 C36.92855881 73.16582077 34.13234501 60.98414721 31.28338623 48.82189941 C30.18524762 44.13584377 29.0832054 39.45070696 27.97917175 34.76603699 C27.39522073 32.2867455 26.81302616 29.80703944 26.23286438 27.32685852 C24.94317953 21.84280143 23.61958001 16.39647781 22 11 C19.19252545 10.2204542 16.57970192 9.8289851 13.671875 9.68359375 C12.87265625 9.64169922 12.0734375 9.59980469 11.25 9.55664062 C10.0125 9.49766602 10.0125 9.49766602 8.75 9.4375 C7.90953125 9.39431641 7.0690625 9.35113281 6.203125 9.30664062 C4.13559329 9.20091457 2.06781719 9.09998705 0 9 C0 6.03 0 3.06 0 0 Z " fill="#0098FF" transform="translate(93,2)"/>
<path d="M0 0 C1.19521774 -0.01283524 2.39043549 -0.02567047 3.62187195 -0.03889465 C4.91559219 -0.04628159 6.20931244 -0.05366852 7.54223633 -0.0612793 C8.53261115 -0.06739259 8.53261115 -0.06739259 9.54299355 -0.07362938 C13.04054066 -0.09447526 16.53804877 -0.10878099 20.03564453 -0.11816406 C23.63234932 -0.12920063 27.22843068 -0.16357168 30.82491589 -0.20333576 C33.6037758 -0.22960074 36.38248969 -0.23786476 39.16146278 -0.24144554 C41.12670866 -0.24863111 43.09185432 -0.27503078 45.05693054 -0.30183411 C53.8421301 -0.2806102 59.57532585 0.56556022 65.99926758 6.98950195 C71.56380067 15.0978216 72.33928253 22.36233482 72.28442383 31.8527832 C72.28300888 32.77794235 72.28159393 33.7031015 72.28013611 34.65629578 C72.27455473 37.60073122 72.26200563 40.54508963 72.24926758 43.48950195 C72.24425017 45.49015189 72.23968769 47.49080303 72.2355957 49.49145508 C72.22459139 54.38666689 72.20733955 59.28182138 72.18676758 64.17700195 C66.57676758 64.17700195 60.96676758 64.17700195 55.18676758 64.17700195 C54.85676758 52.95700195 54.52676758 41.73700195 54.18676758 30.17700195 C53.52676758 30.17700195 52.86676758 30.17700195 52.18676758 30.17700195 C51.85676758 41.39700195 51.52676758 52.61700195 51.18676758 64.17700195 C33.69676758 64.17700195 16.20676758 64.17700195 -1.81323242 64.17700195 C-2.14323242 52.95700195 -2.47323242 41.73700195 -2.81323242 30.17700195 C-3.47323242 30.17700195 -4.13323242 30.17700195 -4.81323242 30.17700195 C-5.14323242 41.39700195 -5.47323242 52.61700195 -5.81323242 64.17700195 C-11.42323242 64.17700195 -17.03323242 64.17700195 -22.81323242 64.17700195 C-22.88770535 58.05723698 -22.94198711 51.93773917 -22.97802734 45.81762695 C-22.99306085 43.73815309 -23.01349317 41.65871065 -23.03955078 39.5793457 C-23.07617378 36.58056862 -23.09301353 33.58221284 -23.10620117 30.58325195 C-23.12168503 29.66209595 -23.13716888 28.74093994 -23.15312195 27.79187012 C-23.1552642 19.46925043 -21.11119622 12.7994567 -15.81323242 6.17700195 C-10.70813203 1.85460574 -6.77310306 0.06332788 0 0 Z " fill="#0099FF" transform="translate(24.813232421875,253.822998046875)"/>
<path d="M0 0 C1.17519699 -0.01283524 2.35039398 -0.02567047 3.561203 -0.03889465 C5.4689727 -0.04997505 5.4689727 -0.04997505 7.4152832 -0.0612793 C8.72382767 -0.06935104 10.03237213 -0.07742279 11.38056946 -0.08573914 C14.15377675 -0.10075598 16.92695854 -0.11059761 19.70019531 -0.11816406 C23.23637081 -0.12919974 26.77191205 -0.16356989 30.30786419 -0.20333576 C33.6978106 -0.23592465 37.08769233 -0.24029169 40.4777832 -0.2487793 C41.73950851 -0.26628738 43.00123383 -0.28379547 44.30119324 -0.30183411 C53.02039632 -0.28041553 58.71592459 0.61436209 65.09106445 6.98950195 C70.65559755 15.0978216 71.4310794 22.36233482 71.3762207 31.8527832 C71.37480576 32.77794235 71.37339081 33.7031015 71.37193298 34.65629578 C71.3663516 37.60073122 71.3538025 40.54508963 71.34106445 43.48950195 C71.33604705 45.49015189 71.33148456 47.49080303 71.32739258 49.49145508 C71.31638826 54.38666689 71.29913643 59.28182138 71.27856445 64.17700195 C65.66856445 64.17700195 60.05856445 64.17700195 54.27856445 64.17700195 C53.94856445 52.95700195 53.61856445 41.73700195 53.27856445 30.17700195 C52.61856445 30.17700195 51.95856445 30.17700195 51.27856445 30.17700195 C50.94856445 41.39700195 50.61856445 52.61700195 50.27856445 64.17700195 C32.78856445 64.17700195 15.29856445 64.17700195 -2.72143555 64.17700195 C-3.05143555 52.95700195 -3.38143555 41.73700195 -3.72143555 30.17700195 C-4.38143555 30.17700195 -5.04143555 30.17700195 -5.72143555 30.17700195 C-6.05143555 41.39700195 -6.38143555 52.61700195 -6.72143555 64.17700195 C-12.33143555 64.17700195 -17.94143555 64.17700195 -23.72143555 64.17700195 C-23.79590847 58.05723698 -23.85019024 51.93773917 -23.88623047 45.81762695 C-23.90126398 43.73815309 -23.92169629 41.65871065 -23.94775391 39.5793457 C-23.9843769 36.58056862 -24.00121665 33.58221284 -24.0144043 30.58325195 C-24.02988815 29.66209595 -24.04537201 28.74093994 -24.06132507 27.79187012 C-24.06345104 19.53252372 -22.07727859 12.69086511 -16.72143555 6.17700195 C-11.30317882 2.11879347 -6.83022264 0.06495797 0 0 Z " fill="#0099FF" transform="translate(246.721435546875,253.822998046875)"/>
<path d="M0 0 C1.27407211 -0.00241196 2.54814423 -0.00482391 3.86082458 -0.00730896 C6.54180419 -0.0063337 9.22051268 0.00433853 11.90112305 0.03198242 C15.31275878 0.06609878 18.72289046 0.06001811 22.13459873 0.04131985 C25.4231512 0.02812939 28.71147969 0.04648877 32 0.0625 C33.8190963 0.0550602 33.8190963 0.0550602 35.67494202 0.04747009 C43.18062734 0.15098476 50.15299312 0.81521258 55.97828674 6.00511169 C60.91252239 11.56428373 63.5682873 17.75554992 63.54711914 25.12207031 C63.54700584 26.44298676 63.54700584 26.44298676 63.54689026 27.79058838 C63.54172897 28.73238953 63.53656769 29.67419067 63.53125 30.64453125 C63.52983505 31.61549744 63.5284201 32.58646362 63.52696228 33.58685303 C63.52137038 36.6842356 63.50881934 39.78154557 63.49609375 42.87890625 C63.4910777 44.98046771 63.48651498 47.08203029 63.48242188 49.18359375 C63.4714036 54.33205917 63.45414449 59.48047041 63.43359375 64.62890625 C57.82359375 64.62890625 52.21359375 64.62890625 46.43359375 64.62890625 C46.10359375 53.40890625 45.77359375 42.18890625 45.43359375 30.62890625 C44.77359375 30.62890625 44.11359375 30.62890625 43.43359375 30.62890625 C43.10359375 41.84890625 42.77359375 53.06890625 42.43359375 64.62890625 C24.94359375 64.62890625 7.45359375 64.62890625 -10.56640625 64.62890625 C-10.89640625 53.40890625 -11.22640625 42.18890625 -11.56640625 30.62890625 C-12.22640625 30.62890625 -12.88640625 30.62890625 -13.56640625 30.62890625 C-13.89640625 41.84890625 -14.22640625 53.06890625 -14.56640625 64.62890625 C-20.17640625 64.62890625 -25.78640625 64.62890625 -31.56640625 64.62890625 C-31.66605182 58.70651024 -31.73823889 52.78461331 -31.78613281 46.86157227 C-31.80612018 44.85106901 -31.83331951 42.84062292 -31.86816406 40.83032227 C-32.07390713 28.64609703 -32.08090053 18.61608844 -25.94140625 7.75390625 C-18.16363816 0.79485059 -10.10238309 -0.1106292 0 0 Z " fill="#0098FF" transform="translate(141.56640625,253.37109375)"/>
<path d="M0 0 C4.77601073 3.50514092 7.96758874 7.71039445 9.8203125 13.3359375 C10.73156976 20.42467127 10.10445973 26.49512808 5.8203125 32.3359375 C1.16458738 37.09747455 -3.96229608 40.23148198 -10.703125 40.3984375 C-18.65411062 39.82539349 -23.85094922 37.38477555 -29.1796875 31.3359375 C-32.83942455 25.97703681 -34.15830254 20.8415034 -33.1796875 14.3359375 C-30.88938812 7.85004658 -27.95106262 3.10499881 -22.1796875 -0.6640625 C-15.05535242 -4.06431333 -6.84925 -3.90989575 0 0 Z " fill="#0099FF" transform="translate(226.1796875,210.6640625)"/>
<path d="M0 0 C4.77601073 3.50514092 7.96758874 7.71039445 9.8203125 13.3359375 C10.73156976 20.42467127 10.10445973 26.49512808 5.8203125 32.3359375 C1.16458738 37.09747455 -3.96229608 40.23148198 -10.703125 40.3984375 C-18.65411062 39.82539349 -23.85094922 37.38477555 -29.1796875 31.3359375 C-32.83942455 25.97703681 -34.15830254 20.8415034 -33.1796875 14.3359375 C-30.88938812 7.85004658 -27.95106262 3.10499881 -22.1796875 -0.6640625 C-15.05535242 -4.06431333 -6.84925 -3.90989575 0 0 Z " fill="#0099FF" transform="translate(61.1796875,210.6640625)"/>
<path d="M0 0 C4.91875371 2.8482311 8.18962787 6.91835141 11.0625 11.75 C12.8275913 19.33989261 12.03659748 25.41048703 8.2421875 32.23828125 C4.65033843 37.31921348 -0.28588271 40.05640021 -6.3125 41.4375 C-12.48513206 42.13628854 -17.04168765 40.48902294 -22.3125 37.4375 C-26.72308529 33.69809074 -30.47277046 29.31560681 -31.3125 23.4375 C-31.80558066 15.91801987 -30.28600328 10.71186114 -25.5625 4.6875 C-19.02117468 -2.4295899 -8.77832336 -3.90147705 0 0 Z " fill="#0098FF" transform="translate(167.3125,209.5625)"/>
<path d="M0 0 C4.21410174 2.99619645 6.56362726 6.64791303 8.203125 11.56640625 C8.87561876 19.00793559 8.79885061 25.42925714 4.203125 31.56640625 C-0.45260012 36.3279433 -5.57948358 39.46195073 -12.3203125 39.62890625 C-19.60251943 39.10406251 -24.45579415 37.21042829 -29.546875 31.87890625 C-33.91772283 26.57973675 -35.09565913 21.86087882 -34.734375 15.06640625 C-33.83156996 8.91671076 -30.7442557 4.46385411 -26.359375 0.19140625 C-17.75957802 -5.26212354 -8.73523243 -4.82085941 0 0 Z " fill="#0099FF" transform="translate(282.796875,211.43359375)"/>
<path d="M0 0 C4.72152914 3.21388981 7.77973359 7.80252423 9.54296875 13.203125 C10.69955591 19.47822554 9.79960466 25.54837955 6.4375 30.98828125 C2.13011928 36.27578453 -2.11472268 39.50555026 -8.95703125 40.390625 C-16.11586514 40.72462969 -21.43380836 38.94216979 -26.95703125 34.390625 C-32.46193575 28.59598868 -33.38908344 23.19364748 -33.29296875 15.41796875 C-32.80353893 11.00740936 -31.26845697 8.14669179 -28.95703125 4.390625 C-28.29703125 4.390625 -27.63703125 4.390625 -26.95703125 4.390625 C-26.62703125 3.400625 -26.29703125 2.410625 -25.95703125 1.390625 C-17.95175265 -4.06171737 -8.53382822 -4.28957029 0 0 Z " fill="#0099FF" transform="translate(116.95703125,210.609375)"/>
<path d="M0 0 C4.98116041 2.92034768 8.23191208 7.10886304 10.5625 12.375 C12.21352653 18.86738253 11.55981193 24.40217477 8.5625 30.375 C5.8096445 34.66646054 2.60971012 38.18710395 -2.32421875 39.9375 C-9.38425309 41.39909676 -16.44163246 41.35840544 -22.75390625 37.64453125 C-27.06754148 34.39179007 -29.72704661 30.50636016 -31.4375 25.375 C-32.19792352 18.96445287 -32.15498677 12.80708303 -28.84765625 7.12890625 C-21.85668911 -1.56623017 -10.35882114 -4.76426698 0 0 Z " fill="#0098FF" transform="translate(197.4375,157.625)"/>
<path d="M0 0 C5.70358688 3.22947818 10.34695496 8.48957569 12.47265625 14.71484375 C12.51390625 15.51921875 12.55515625 16.32359375 12.59765625 17.15234375 C12.68015625 18.26609375 12.76265625 19.37984375 12.84765625 20.52734375 C12.34618704 27.79864728 8.87050411 33.3168174 3.59765625 38.15234375 C-2.36334485 41.84816443 -8.5126424 41.96774723 -15.40234375 41.15234375 C-21.34250864 39.42305233 -24.96960468 36.20048944 -28.40234375 31.15234375 C-31.0229746 25.7862901 -30.97019309 20.00555997 -30.40234375 14.15234375 C-29.15234375 10.77734375 -29.15234375 10.77734375 -27.40234375 8.15234375 C-26.84546875 7.28609375 -26.28859375 6.41984375 -25.71484375 5.52734375 C-18.94613869 -1.42429929 -9.2208765 -3.25354504 0 0 Z " fill="#0099FF" transform="translate(142.40234375,156.84765625)"/>
<path d="M0 0 C5.50252791 3.98933273 9.37955669 8.31509883 11.5 14.8125 C12.57881863 21.66681228 11.41326781 27.10193329 7.5 32.8125 C3.48802623 37.56352157 -0.20772282 40.42138091 -6.4921875 41.16796875 C-13.85880417 41.48270872 -18.94896786 40.82421385 -24.5 35.8125 C-29.37514098 31.14986517 -31.27305288 26.62664425 -31.8125 19.9375 C-31.61380986 14.44737773 -30.45193683 9.92191793 -26.66015625 5.82421875 C-18.68660933 -1.34751898 -10.56934684 -3.58602839 0 0 Z " fill="#0099FF" transform="translate(250.5,157.1875)"/>
<path d="M0 0 C5.50252791 3.98933273 9.37955669 8.31509883 11.5 14.8125 C12.57881863 21.66681228 11.41326781 27.10193329 7.5 32.8125 C3.48802623 37.56352157 -0.20772282 40.42138091 -6.4921875 41.16796875 C-13.85880417 41.48270872 -18.94896786 40.82421385 -24.5 35.8125 C-29.37514098 31.14986517 -31.27305288 26.62664425 -31.8125 19.9375 C-31.61380986 14.44737773 -30.45193683 9.92191793 -26.66015625 5.82421875 C-18.68660933 -1.34751898 -10.56934684 -3.58602839 0 0 Z " fill="#0099FF" transform="translate(86.5,157.1875)"/>
<path d="M0 0 C2.72985321 2.27487767 4.41092369 3.87825436 4.99609375 7.45703125 C5.11330187 11.94541286 5.19077717 15.17595813 2.25 18.75 C-1.81837359 22.52777548 -4.50025064 22.52714393 -9.89453125 22.47265625 C-13.40697119 22.06886394 -15.05302118 20.79972617 -17.375 18.1875 C-19.65826936 15.14314086 -19.79359308 11.9814921 -19.6953125 8.21875 C-19.05279482 4.14424762 -16.80357538 1.30995209 -13.625 -1.1875 C-8.37822281 -2.64493811 -4.71876312 -2.53415056 0 0 Z " fill="#0099FF" transform="translate(205.375,112.8125)"/>
<path d="M0 0 C3.87433153 2.3408963 6.55767172 4.67301516 8 9 C8.36945059 13.98758297 8.18227193 17.04959346 5 21 C1.37840594 24.0890067 -2.07655262 24.65090182 -6.7109375 24.47265625 C-10.87858264 23.61210154 -13.5495154 21.42197849 -16 18 C-17.61369818 13.80771194 -17.32397988 10.85854668 -15.75 6.6875 C-11.85460106 0.7052802 -7.28123249 -1.4376108 0 0 Z " fill="#0099FF" transform="translate(159,111)"/>
</svg>
