<?xml version="1.0" encoding="UTF-8"?>
<svg version="1.1" xmlns="http://www.w3.org/2000/svg" width="512" height="512">
<path d="M0 0 C1.44278607 -0.00302782 2.88557053 -0.00692044 4.32835221 -0.01159257 C8.25673924 -0.02180021 12.18503427 -0.01970938 16.11342859 -0.01541197 C20.36442687 -0.01293147 24.61540375 -0.0219753 28.86639404 -0.02944946 C37.18091096 -0.04216222 45.49539552 -0.04399441 53.80992052 -0.0416492 C60.57291219 -0.03986191 67.33589408 -0.04162448 74.09888458 -0.04587364 C75.06359136 -0.04646883 76.02829813 -0.04706402 77.02223845 -0.04767724 C78.98243108 -0.04888907 80.9426237 -0.05010321 82.90281633 -0.05131962 C101.26282153 -0.06218214 119.62280835 -0.06003888 137.98281458 -0.05393478 C154.75116286 -0.04876774 171.51945301 -0.06001775 188.28778979 -0.07903299 C205.5356682 -0.09844097 222.78351915 -0.10666215 240.03140855 -0.10290974 C249.70265762 -0.10100206 259.37385723 -0.10344282 269.04509735 -0.11762428 C277.2791938 -0.1295769 285.51321036 -0.13089971 293.74730799 -0.11883412 C297.94185824 -0.11297234 302.13626264 -0.11177045 306.33080292 -0.12383652 C336.10731633 -0.20353947 367.42548245 1.19422066 390.18927002 23.06538391 C391.56783076 24.44370928 392.91648052 25.851753 394.26373291 27.26069641 C395.00236572 28.02897766 395.74099854 28.79725891 396.50201416 29.58882141 C412.29151066 47.61644072 416.57797693 73.01264135 416.5446167 96.15313721 C416.54979787 97.61298496 416.55582799 99.0728299 416.5626235 100.53267103 C416.57860728 104.50839935 416.5823338 108.48405517 416.58381844 112.45981181 C416.58754706 116.76204043 416.60265515 121.0642326 416.61608887 125.36643982 C416.64314439 134.75733844 416.65528731 144.14821986 416.66411018 153.53915095 C416.66965349 159.41345943 416.67813143 165.28776142 416.68711853 171.16206551 C416.71148856 187.45713734 416.73209071 203.75220401 416.73886871 220.04729366 C416.73930785 221.08830472 416.73974698 222.12931578 416.74019942 223.20187262 C416.74063597 224.24523375 416.74107253 225.28859488 416.74152231 226.36357301 C416.74240921 228.47747418 416.74330234 230.59137533 416.74420166 232.70527649 C416.74464452 233.75382238 416.74508738 234.80236828 416.74554366 235.88268829 C416.75343315 252.85787712 416.78832823 269.83289392 416.8349207 286.80801635 C416.88247597 304.27627263 416.9072782 321.7444428 416.90960455 339.2127648 C416.91143081 349.00441569 416.9227514 358.79584228 416.95924377 368.58743095 C416.99021953 376.92757415 417.00018538 385.26742369 416.98376757 393.60761356 C416.97601539 397.8535845 416.97750924 402.09896568 417.00588226 406.34486198 C417.18331886 434.54739042 414.45828008 463.59817626 394.26373291 485.26069641 C393.6385376 485.96452454 393.01334229 486.66835266 392.36920166 487.39350891 C377.25799162 503.58189278 353.44586861 511.28232196 331.78832674 512.44770682 C328.03341531 512.51921104 324.28304509 512.53220804 320.52746582 512.52139282 C319.08467975 512.52442065 317.64189529 512.52831326 316.19911361 512.53298539 C312.27072658 512.54319304 308.34243155 512.54110221 304.41403723 512.5368048 C300.16303895 512.53432429 295.91206207 512.54336813 291.66107178 512.55084229 C283.34655486 512.56355504 275.0320703 512.56538723 266.7175453 512.56304202 C259.95455363 512.56125473 253.19157174 512.5630173 246.42858124 512.56726646 C245.46387446 512.56786165 244.49916769 512.56845684 243.50522737 512.56907007 C241.54503474 512.5702819 239.58484212 512.57149603 237.62464949 512.57271244 C219.26464429 512.58357496 200.90465747 512.5814317 182.54465124 512.5753276 C165.77630296 512.57016056 149.00801281 512.58141057 132.23967603 512.60042582 C114.99179762 512.6198338 97.74394667 512.62805497 80.49605727 512.62430257 C70.8248082 512.62239489 61.15360859 512.62483564 51.48236847 512.63901711 C43.24827202 512.65096973 35.01425546 512.65229254 26.78015783 512.64022694 C22.58560758 512.63436516 18.39120318 512.63316327 14.1966629 512.64522934 C-15.57985051 512.7249323 -46.89801663 511.32717216 -69.6618042 489.45600891 C-71.04036494 488.07768354 -72.3890147 486.66963982 -73.73626709 485.26069641 C-74.4748999 484.49241516 -75.21353271 483.72413391 -75.97454834 482.93257141 C-95.13949555 461.05103946 -96.64765962 431.49934444 -96.47663796 403.94369519 C-96.45662804 399.63762423 -96.47181179 395.33164351 -96.48228455 391.02555847 C-96.4972971 382.62191099 -96.48063145 374.21862179 -96.45273364 365.81501891 C-96.42135987 356.00680751 -96.42179801 346.19867058 -96.42325138 336.39041845 C-96.4247484 318.88103836 -96.39739741 301.37182353 -96.35369873 283.86250305 C-96.31141389 266.91064953 -96.29018825 249.95894129 -96.29217529 233.0070343 C-96.29229516 231.96204264 -96.29241503 230.91705098 -96.29253853 229.84039291 C-96.29265959 228.79712289 -96.29278066 227.75385287 -96.29290539 226.67896861 C-96.29497965 207.31761093 -96.27728204 187.95631437 -96.25044574 168.59497657 C-96.24143371 161.77339045 -96.23821152 154.95181564 -96.23684883 148.13022423 C-96.23479345 139.81031839 -96.22127478 131.49051573 -96.19385041 123.1706536 C-96.18008862 118.93352639 -96.1708255 114.69653024 -96.17463303 110.4593792 C-96.19529683 80.60555687 -94.86685182 49.16567232 -72.93157959 26.3351593 C-71.55325422 24.95659856 -70.1452105 23.6079488 -68.73626709 22.26069641 C-67.58384521 21.15274719 -67.58384521 21.15274719 -66.40814209 20.02241516 C-48.43448432 4.28018089 -23.07972428 -0.06646435 0 0 Z " fill="#FAFFF9" transform="translate(95.73626708984375,-0.2606964111328125)"/>
<path d="M0 0 C1.44278607 -0.00302782 2.88557053 -0.00692044 4.32835221 -0.01159257 C8.25673924 -0.02180021 12.18503427 -0.01970938 16.11342859 -0.01541197 C20.36442687 -0.01293147 24.61540375 -0.0219753 28.86639404 -0.02944946 C37.18091096 -0.04216222 45.49539552 -0.04399441 53.80992052 -0.0416492 C60.57291219 -0.03986191 67.33589408 -0.04162448 74.09888458 -0.04587364 C75.06359136 -0.04646883 76.02829813 -0.04706402 77.02223845 -0.04767724 C78.98243108 -0.04888907 80.9426237 -0.05010321 82.90281633 -0.05131962 C101.26282153 -0.06218214 119.62280835 -0.06003888 137.98281458 -0.05393478 C154.75116286 -0.04876774 171.51945301 -0.06001775 188.28778979 -0.07903299 C205.5356682 -0.09844097 222.78351915 -0.10666215 240.03140855 -0.10290974 C249.70265762 -0.10100206 259.37385723 -0.10344282 269.04509735 -0.11762428 C277.2791938 -0.1295769 285.51321036 -0.13089971 293.74730799 -0.11883412 C297.94185824 -0.11297234 302.13626264 -0.11177045 306.33080292 -0.12383652 C336.10731633 -0.20353947 367.42548245 1.19422066 390.18927002 23.06538391 C391.56783076 24.44370928 392.91648052 25.851753 394.26373291 27.26069641 C395.00236572 28.02897766 395.74099854 28.79725891 396.50201416 29.58882141 C414.05316726 49.62780786 416.58707082 76.87923924 416.49078369 102.28926086 C416.49021863 104.38967381 416.490538 106.49008716 416.4916687 108.59049988 C416.49223949 114.25693985 416.48052974 119.92329412 416.46652079 125.58971429 C416.45396754 131.52473017 416.45283932 137.45974829 416.45046997 143.39477539 C416.44426866 154.61768131 416.42787617 165.840548 416.40777099 177.06343669 C416.38536991 189.84704447 416.37440799 202.63065418 416.36438012 215.41427672 C416.34350869 241.69643832 416.30835906 267.97856516 416.26373291 294.26069641 C415.19892094 292.66347845 414.14548576 291.05590605 413.18560791 289.39350891 C412.79888916 288.73093079 412.41217041 288.06835266 412.01373291 287.38569641 C411.44912354 286.3995636 411.44912354 286.3995636 410.87310791 285.39350891 C407.0021277 280.26352058 401.73125671 277.19060574 396.09967041 274.29975891 C395.42634674 273.9461026 394.75302307 273.59244629 394.05929565 273.22807312 C391.92260509 272.10710174 389.7810603 270.99585114 387.63873291 269.88569641 C384.83202254 268.42339838 382.02759856 266.95679281 379.22467041 265.48725891 C378.54773132 265.13286743 377.87079224 264.77847595 377.17333984 264.41334534 C371.09349835 261.21117155 365.15852556 257.79307752 359.26373291 254.26069641 C359.7299525 251.33871852 360.18881033 248.51768474 361.01763916 245.67475891 C363.21329896 238.10132365 363.56121029 230.92702454 363.57623291 223.07319641 C363.58146973 222.06402161 363.58670654 221.0548468 363.59210205 220.01509094 C363.78700038 209.20755299 363.78700038 209.20755299 359.90948486 199.50996399 C357.10301336 197.37961023 354.63387593 197.83942853 351.26373291 198.26069641 C349.23200593 200.29698907 348.29095233 201.47992891 348.18951416 204.38960266 C348.38093994 205.59423157 348.38093994 205.59423157 348.57623291 206.82319641 C349.22723914 212.19761448 349.42329508 217.4789363 349.45123291 222.88569641 C349.46388184 223.67274963 349.47653076 224.45980286 349.48956299 225.27070618 C349.52256226 241.92839023 341.88707094 257.57860485 330.51373291 269.51069641 C315.68350838 283.62513333 299.11661009 287.74563054 279.21295166 287.46772766 C262.59946149 286.95765064 247.18494645 278.66060921 235.86138916 266.72944641 C230.43627894 260.44678966 226.58069037 253.85163512 223.26373291 246.26069641 C222.75133057 245.12761047 222.75133057 245.12761047 222.22857666 243.97163391 C216.15897612 226.91777652 218.62710917 209.40738819 225.61529541 193.10835266 C229.08624132 186.19554698 233.83383108 180.71873245 239.26373291 175.26069641 C239.8554126 174.63421204 240.44709229 174.00772766 241.05670166 173.36225891 C254.14360154 160.59314248 272.14118563 156.87420895 289.74420166 157.04585266 C305.32751446 157.99710927 319.3628084 165.47161827 330.38873291 176.19819641 C333.47958345 179.20630408 333.47958345 179.20630408 337.38092041 180.68257141 C340.44589264 180.3010396 342.08973115 179.43469817 344.26373291 177.26069641 C344.9627207 173.20656725 345.24717899 170.76844959 342.96685791 167.27241516 C329.87971104 153.31838464 309.58296093 143.81737513 290.63482666 142.94429016 C268.59814457 142.32609653 249.13062519 147.57244438 232.26373291 162.26069641 C231.66560791 162.71702454 231.06748291 163.17335266 230.45123291 163.64350891 C217.31023694 173.90991202 207.28576022 193.83172455 205.26373291 210.26069641 C204.1787461 223.91990541 204.94425863 236.26757899 209.26373291 249.26069641 C209.6114948 250.9244123 209.94719937 252.59075767 210.26373291 254.26069641 C205.89040984 256.591829 201.51618795 258.92126357 197.14117432 261.2492218 C195.65721043 262.03913581 194.17348055 262.82948961 192.69000244 263.62031555 C190.54073551 264.76596323 188.39059315 265.90995364 186.24029541 267.05366516 C185.26777328 267.57273689 185.26777328 267.57273689 184.27560425 268.10229492 C178.97909732 270.91625959 173.63358847 273.57576863 168.26373291 276.26069641 C168.26373291 232.04069641 168.26373291 187.82069641 168.26373291 142.26069641 C182.78373291 135.00069641 197.30373291 127.74069641 212.26373291 120.26069641 C218.53373291 116.96069641 224.80373291 113.66069641 231.26373291 110.26069641 C237.44303285 107.13887599 243.6272365 104.03023915 249.82623291 100.94819641 C251.38948091 100.16909404 252.95263206 99.38979733 254.51568604 98.61030579 C257.46650509 97.139053 260.41782077 95.66880595 263.36968994 94.19966125 C268.00410596 91.89280642 272.63474407 89.57842086 277.26373291 87.26069641 C277.28560669 88.60031433 277.28560669 88.60031433 277.30792236 89.96699524 C277.36900368 93.28286919 277.44315769 96.5979154 277.52618408 99.9132843 C277.55942292 101.34774269 277.58745826 102.78233154 277.61016846 104.21699524 C277.64373562 106.28030448 277.69604704 108.34241944 277.75201416 110.40522766 C277.77819824 111.64635315 277.80438232 112.88747864 277.83135986 114.16621399 C278.01621932 117.22065335 278.01621932 117.22065335 279.61212158 119.16181946 C282.2547242 120.92003888 284.17965548 120.7012789 287.26373291 120.26069641 C289.57265173 118.77263627 289.57265173 118.77263627 291.26373291 116.26069641 C291.66257295 113.54500963 291.8256265 111.2426619 291.79498291 108.53022766 C291.80072327 107.40544258 291.80072327 107.40544258 291.80657959 106.25793457 C291.80929756 104.67184609 291.80194422 103.08571269 291.78521729 101.49971008 C291.76395278 99.09802867 291.784941 96.69938979 291.81060791 94.29780579 C291.8271599 86.36185118 291.82363056 79.07925263 287.26373291 72.26069641 C286.70939575 71.41305725 286.70939575 71.41305725 286.14385986 70.54829407 C283.1411157 66.50255719 279.32801787 64.22815343 274.95123291 61.94819641 C273.81669678 61.33693909 273.81669678 61.33693909 272.65924072 60.71333313 C269.86799853 59.21513253 267.06595243 57.73826239 264.26373291 56.26069641 C261.75361535 54.92794538 259.24509284 53.59220027 256.73638916 52.25679016 C252.5854613 50.04850548 248.43343163 47.84234709 244.27813721 45.64228821 C236.57880584 41.56479149 228.90090546 37.45388388 221.26373291 33.26069641 C212.09329575 28.23066299 202.87305297 23.29711836 193.63873291 18.38569641 C192.96068604 18.02443665 192.28263916 17.66317688 191.58404541 17.29096985 C187.74524338 15.24647168 183.90132286 13.21229246 180.0479126 11.19544983 C178.30916471 10.28449868 176.57351299 9.36764549 174.83795166 8.45063782 C173.78994385 7.9084259 172.74193604 7.36621399 171.66217041 6.80757141 C170.75386475 6.33416321 169.84555908 5.860755 168.909729 5.3730011 C162.57383914 2.70956557 157.07608546 3.15080477 150.75982666 5.64350891 C147.30613875 7.27414105 143.97016866 9.10408792 140.63336182 10.95991516 C137.14270643 12.87607134 133.59768418 14.68315245 130.05718994 16.50508118 C120.59272039 21.38774671 111.21897818 26.4297987 101.88189697 31.55097961 C95.00261437 35.3219402 88.09710502 39.04220171 81.17871094 42.74079895 C79.39672606 43.69392115 77.61550949 44.6484636 75.83453369 45.60346985 C70.02878805 48.71585305 64.21702158 51.81606623 58.39263916 54.89350891 C56.24541068 56.03656327 54.09827107 57.1797846 51.95123291 58.32319641 C50.48484375 59.09071228 50.48484375 59.09071228 48.98883057 59.87373352 C38.69526193 65.32404208 38.69526193 65.32404208 31.88873291 74.44819641 C31.59224854 75.1017511 31.29576416 75.75530579 30.99029541 76.42866516 C29.54069891 80.08383052 29.13057222 82.90993066 29.10551453 86.82250977 C29.09572571 87.97937286 29.08593689 89.13623596 29.07585144 90.32815552 C29.07009598 91.59842087 29.06434052 92.86868622 29.05841064 94.17744446 C29.04883118 95.52762654 29.03882105 96.87780563 29.02841187 98.22798157 C29.00136416 101.89502319 28.98035387 105.56207767 28.96040988 109.22916389 C28.93854951 113.06089103 28.91116107 116.89257852 28.88435364 120.72427368 C28.83442745 127.98088378 28.78948834 135.23751589 28.74633127 142.49416906 C28.69695827 150.7552926 28.64204037 159.01637635 28.58665168 167.27746141 C28.47283277 184.2718363 28.36599352 201.26624812 28.26373291 218.26069641 C24.73991413 220.18366274 21.21594763 222.10635822 17.69195557 224.02900696 C16.70006729 224.57028984 15.70817902 225.11157272 14.68623352 225.66925812 C7.68120609 229.4908843 0.66768771 233.29573091 -6.36126709 237.07319641 C-7.4298999 237.64811829 -8.49853271 238.22304016 -9.59954834 238.81538391 C-16.46740454 242.50855165 -23.33978716 246.19323958 -30.21405029 249.87446594 C-32.55655758 251.12893405 -34.89884389 252.3838149 -37.24090576 253.63911438 C-42.5123867 256.46444868 -47.7848774 259.28775847 -53.063797 262.09916687 C-78.31449696 273.58935277 -78.31449696 273.58935277 -94.73626709 294.26069641 C-95.06626709 294.26069641 -95.39626709 294.26069641 -95.73626709 294.26069641 C-95.80649094 266.78256674 -95.85932067 239.3044506 -95.89170361 211.82624912 C-95.90714228 199.06633051 -95.92817423 186.3064678 -95.96258545 173.54658508 C-95.99257987 162.41912974 -96.01186387 151.29171492 -96.01853257 140.16422027 C-96.02242786 134.27770878 -96.03151931 128.39131314 -96.05345726 122.50483894 C-96.07398133 116.95219476 -96.08006902 111.39971297 -96.07559013 105.84703445 C-96.07640827 103.82073137 -96.08227823 101.79442225 -96.09388351 99.76815224 C-96.23658218 73.54310587 -91.8072534 45.981203 -72.93157959 26.3351593 C-71.55325422 24.95659856 -70.1452105 23.6079488 -68.73626709 22.26069641 C-67.58384521 21.15274719 -67.58384521 21.15274719 -66.40814209 20.02241516 C-48.43448432 4.28018089 -23.07972428 -0.06646435 0 0 Z " fill="#00BA19" transform="translate(95.73626708984375,-0.2606964111328125)"/>
<path d="M0 0 C0 44.22 0 88.44 0 134 C-11.23870321 139.91510695 -22.42448867 145.78520914 -33.84375 151.31445312 C-34.7409375 151.75595703 -35.638125 152.19746094 -36.5625 152.65234375 C-37.34753906 153.03382568 -38.13257813 153.41530762 -38.94140625 153.80834961 C-41.03543735 155.02051348 -42.47762284 156.12238162 -44 158 C-44.42454541 161.32560568 -44.31414524 163.33680449 -42.875 166.375 C-41.08741874 168.21460348 -41.08741874 168.21460348 -38.48046875 168.39306641 C-33.51482421 167.83227181 -29.8038311 165.67573025 -25.4375 163.3359375 C-23.57051946 162.3693918 -21.70332542 161.4032584 -19.8359375 160.4375 C-16.90930871 158.90576963 -13.98626883 157.36772518 -11.06738281 155.82128906 C-8.24106872 154.32970251 -5.40290995 152.86295705 -2.5625 151.3984375 C-1.69359131 150.92876556 -0.82468262 150.45909363 0.07055664 149.97518921 C6.12976114 146.87134074 6.12976114 146.87134074 10.02856445 147.44775391 C11.00913818 147.95999512 11.98971191 148.47223633 13 149 C14.411603 149.66557559 15.82331605 150.33091781 17.23510742 150.99609375 C18.86067396 151.80566735 20.48400762 152.61973487 22.10546875 153.4375 C22.98415115 153.87707031 23.86283356 154.31664062 24.7681427 154.76953125 C26.6308026 155.7023692 28.49249198 156.63714723 30.35327148 157.57373047 C33.13107792 158.9716067 35.911906 160.36330342 38.69335938 161.75390625 C48.25557212 166.5447628 57.76206931 171.42654191 67.21339417 176.43247986 C74.13595434 180.09174234 81.12533123 183.60566848 88.14199829 187.08029175 C98.27124748 192.09744937 108.3809996 197.13588193 118.31884766 202.52563477 C124.99718702 206.13738973 130.46154916 206.77694971 138 206 C141.90229238 204.78730845 145.39392665 203.03207018 149 201.125 C149.98838867 200.62685791 150.97677734 200.12871582 151.99511719 199.61547852 C154.02581981 198.58989247 156.05160224 197.55450429 158.07226562 196.50927734 C160.78998035 195.1082673 163.52159404 193.74310683 166.265625 192.39453125 C174.92735582 188.13273059 183.49015881 183.70417104 192.01269531 179.17163086 C199.24608999 175.34895623 206.56196196 171.69819071 213.88565063 168.05273438 C228.50919446 160.78329588 228.50919446 160.78329588 243.0625 153.375 C243.78630859 153.01019531 244.51011719 152.64539063 245.25585938 152.26953125 C252.03888661 148.73112821 257.45300537 144.18391269 262 138 C260.82450873 157.19969071 250.62624962 174.97037995 237 188 C236.23171875 188.73863281 235.4634375 189.47726562 234.671875 190.23828125 C216.69821723 205.98051552 191.34345719 210.32716076 168.26373291 210.26069641 C166.82094684 210.26372423 165.37816238 210.26761685 163.9353807 210.27228898 C160.00699367 210.28249663 156.07869864 210.2804058 152.15030432 210.27610838 C147.89930604 210.27362788 143.64832916 210.28267171 139.39733887 210.29014587 C131.08282195 210.30285863 122.76833739 210.30469082 114.45381239 210.30234561 C107.69082072 210.30055832 100.92783883 210.30232089 94.16484833 210.30657005 C93.20014155 210.30716524 92.23543478 210.30776043 91.24149446 210.30837366 C89.28130183 210.30958548 87.32110921 210.31079962 85.36091658 210.31201603 C67.00091138 210.32287855 48.64092456 210.32073529 30.28091833 210.31463119 C13.51257005 210.30946415 -3.2557201 210.32071416 -20.02405688 210.33972941 C-37.27193529 210.35913739 -54.51978624 210.36735856 -71.76767564 210.36360615 C-81.43892471 210.36169848 -91.11012432 210.36413923 -100.78136444 210.37832069 C-109.01546089 210.39027331 -117.24947745 210.39159613 -125.48357508 210.37953053 C-129.67812533 210.37366875 -133.87252973 210.37246686 -138.06707001 210.38453293 C-167.84358342 210.46423588 -199.16174954 209.06647575 -221.92553711 187.1953125 C-223.30409785 185.81698713 -224.65274761 184.40894341 -226 183 C-227.10794922 181.84757812 -227.10794922 181.84757812 -228.23828125 180.671875 C-237.27995438 170.34856665 -243.65762702 155.48247753 -246 142 C-245.58984375 139.61328125 -245.58984375 139.61328125 -245 138 C-244.6596875 138.51949219 -244.319375 139.03898438 -243.96875 139.57421875 C-243.4840625 140.27160156 -242.999375 140.96898437 -242.5 141.6875 C-242.0359375 142.37199219 -241.571875 143.05648437 -241.09375 143.76171875 C-234.27031135 151.05617835 -223.44283659 155.00118023 -214.625 159.5 C-213.05459763 160.30451209 -211.48428608 161.1092015 -209.9140625 161.9140625 C-199.57743347 167.20549853 -189.20390271 172.41951832 -178.80517578 177.58789062 C-171.91400534 181.01984831 -165.08989537 184.55933329 -158.29296875 188.17358398 C-151.24631176 191.9045698 -144.12898929 195.49215233 -137 199.0625 C-135.85853516 199.63548828 -134.71707031 200.20847656 -133.54101562 200.79882812 C-132.47560547 201.33056641 -131.41019531 201.86230469 -130.3125 202.41015625 C-129.35988281 202.88590088 -128.40726562 203.36164551 -127.42578125 203.85180664 C-121.28036741 206.76061112 -114.64306965 207.52167829 -108.08251953 205.37158203 C-102.88597243 203.26356083 -97.9508068 200.62186779 -93 198 C-91.33522469 197.13818367 -89.66984767 196.27752877 -88.00390625 195.41796875 C-83.31493954 192.98363503 -78.64647849 190.5144815 -74 188 C-73.17757812 187.5570459 -72.35515625 187.1140918 -71.5078125 186.65771484 C-70.70085937 186.21766113 -69.89390625 185.77760742 -69.0625 185.32421875 C-68.33160156 184.92678467 -67.60070312 184.52935059 -66.84765625 184.11987305 C-64.85148627 183.01027976 -64.85148627 183.01027976 -63 181 C-62.4110159 176.15693761 -62.4110159 176.15693761 -64.5625 172 C-68.85897956 170.23734172 -72.88766107 171.5495275 -77.0703125 173.2434082 C-78.07835937 173.75734131 -79.08640625 174.27127441 -80.125 174.80078125 C-81.80335938 175.64866211 -81.80335938 175.64866211 -83.515625 176.51367188 C-84.66546875 177.10728516 -85.8153125 177.70089844 -87 178.3125 C-88.14984375 178.89451172 -89.2996875 179.47652344 -90.484375 180.07617188 C-95.11024632 182.42907762 -99.71136465 184.7895135 -104.1875 187.41796875 C-107 189 -107 189 -109 189 C-109 144.78 -109 100.56 -109 55 C-67.64761905 33.79365079 -67.64761905 33.79365079 -49.5859375 24.80859375 C-43.72825276 21.87975138 -37.93828007 18.83164403 -32.15576172 15.7578125 C-25.44275843 12.20241245 -18.66688897 8.77695412 -11.875 5.375 C-10.28051025 4.57437134 -10.28051025 4.57437134 -8.65380859 3.75756836 C-7.67234863 3.26780518 -6.69088867 2.77804199 -5.6796875 2.2734375 C-4.80038574 1.83435059 -3.92108398 1.39526367 -3.01513672 0.94287109 C-1 0 -1 0 0 0 Z " fill="#00BB19" transform="translate(248,302)"/>
<path d="M0 0 C3.03288979 1.43361285 6.06531228 2.86821156 9.09765625 4.30297852 C9.94992798 4.70582314 10.80219971 5.10866776 11.68029785 5.52371979 C18.15767856 8.58938235 24.59650389 11.71992409 31 14.9375 C32.01578125 15.44635742 33.0315625 15.95521484 34.078125 16.47949219 C40.83406549 19.876559 47.53216201 23.37021865 54.20605469 26.92504883 C63.47184476 31.82950071 72.87552549 36.46358465 82.26953125 41.11621094 C82.93015564 41.44440826 83.59078003 41.77260559 84.27142334 42.11074829 C86.06715404 43.00276953 87.86409459 43.89235407 89.66113281 44.78173828 C96.15275778 48.10060529 102.56692252 51.56902534 109 55 C109 99.22 109 143.44 109 189 C104.73997927 187.57999309 101.37791962 186.28765048 97.4921875 184.234375 C96.43708984 183.68104492 95.38199219 183.12771484 94.29492188 182.55761719 C93.16634766 181.96110352 92.03777344 181.36458984 90.875 180.75 C88.44702828 179.47587448 86.01683232 178.20603848 83.5859375 176.9375 C82.96245422 176.61191101 82.33897095 176.28632202 81.69659424 175.9508667 C75.0061962 172.46634257 68.25588858 169.10527353 61.5 165.75 C53.05510501 161.55118668 44.65947544 157.28565648 36.33837891 152.84692383 C27.67037052 148.24801652 18.86962847 143.90932728 10.07617188 139.55664062 C8.91408203 138.97978516 7.75199219 138.40292969 6.5546875 137.80859375 C5.50780762 137.29095459 4.46092773 136.77331543 3.38232422 136.23999023 C1 135 1 135 0 134 C-0.09627113 132.26640402 -0.12187568 130.52885354 -0.12025452 128.79258728 C-0.12162918 127.66371597 -0.12300385 126.53484467 -0.12442017 125.37176514 C-0.12082489 124.12236145 -0.11722961 122.87295776 -0.11352539 121.58569336 C-0.11367142 120.27856888 -0.11381744 118.9714444 -0.1139679 117.62471008 C-0.11425586 114.02982901 -0.10835928 110.43498103 -0.10139394 106.84010768 C-0.09516026 103.08713748 -0.09455659 99.3341666 -0.09336853 95.58119202 C-0.09025526 88.46969174 -0.08204192 81.35820675 -0.07201904 74.24671322 C-0.06085778 66.15252934 -0.05534742 58.05834474 -0.05032361 49.96415508 C-0.03985931 33.30942775 -0.02225994 16.65471582 0 0 Z " fill="#00BA19" transform="translate(264,302)"/>
<path d="M0 0 C3.49351793 1.11602641 6.80584383 2.27900426 10.06396484 3.96435547 C11.17964844 4.53732613 11.17964844 4.53732613 12.31787109 5.12187195 C13.10758301 5.53282608 13.89729492 5.94378021 14.7109375 6.3671875 C15.54786133 6.79816238 16.38478516 7.22913727 17.24707031 7.673172 C19.95831359 9.07006817 22.6666059 10.47258901 25.375 11.875 C29.10311871 13.79760981 32.83278438 15.71720905 36.5625 17.63671875 C37.47526703 18.10694962 38.38803406 18.57718048 39.32846069 19.06166077 C46.31714157 22.65879341 53.33313432 26.19546878 60.375 29.6875 C70.33685466 34.63699785 80.17336302 39.78586609 90 45 C96.27 48.3 102.54 51.6 109 55 C109 99.22 109 143.44 109 189 C87.19549149 178.6715486 87.19549149 178.6715486 78.70703125 174.29296875 C77.7549176 173.80512909 76.80280396 173.31728943 75.82183838 172.81466675 C72.81740971 171.27482724 69.81493441 169.7312237 66.8125 168.1875 C62.65186471 166.05307985 58.49016476 163.9207425 54.328125 161.7890625 C53.32834122 161.2767659 52.32855743 160.7644693 51.29847717 160.23664856 C43.91318479 156.4564633 36.49903349 152.74067086 29.0625 149.0625 C22.56579362 145.82338986 16.08063752 142.56489237 9.6875 139.125 C9.03982666 138.79121338 8.39215332 138.45742676 7.72485352 138.11352539 C3.34027627 135.69184977 1.71156927 133.67192249 0 129 C-0.42496582 124.82408576 -0.3787615 120.67117911 -0.34057617 116.47705078 C-0.34101425 115.21796402 -0.34145233 113.95887726 -0.34190369 112.66163635 C-0.34276199 109.22188902 -0.32516339 105.78245758 -0.30418181 102.34278345 C-0.28538724 98.74333976 -0.28366239 95.14388827 -0.28010559 91.54440308 C-0.27079326 84.73404278 -0.24619057 77.92382752 -0.21605712 71.11353099 C-0.18248775 63.35781626 -0.16602074 55.60209449 -0.15097082 47.84632516 C-0.11964021 31.89746621 -0.06689564 15.94875183 0 0 Z " fill="#00BA19" transform="translate(15,302)"/>
<path d="M0 0 C0.07011323 16.71586581 0.12299948 33.43168384 0.15543652 50.14766121 C0.17089861 57.90936324 0.19197549 65.67097384 0.22631836 73.43261719 C0.25624093 80.19848469 0.27557979 86.96428598 0.28226548 93.73021781 C0.28617293 97.31201048 0.29534206 100.89361372 0.31719017 104.47534561 C0.3413952 108.47599911 0.34196816 112.47632428 0.34057617 116.47705078 C0.351362 117.6617244 0.36214783 118.84639801 0.3732605 120.06697083 C0.33522984 130.15261835 0.33522984 130.15261835 -3 135 C-4.71972656 136.40869141 -4.71972656 136.40869141 -6.640625 137.3515625 C-7.36886475 137.72120117 -8.09710449 138.09083984 -8.84741211 138.47167969 C-9.64026611 138.85227539 -10.43312012 139.23287109 -11.25 139.625 C-12.98593575 140.49688101 -14.72160156 141.36929963 -16.45703125 142.2421875 C-17.36791504 142.69303711 -18.27879883 143.14388672 -19.21728516 143.60839844 C-22.88518108 145.4426682 -26.50851105 147.35655392 -30.13476562 149.27148438 C-40.36861325 154.67010643 -50.69626376 159.87413108 -61.05725098 165.02313232 C-69.15985669 169.05074496 -77.22170767 173.13705522 -85.17480469 177.45361328 C-92.98162283 181.6438971 -100.93809401 185.20616189 -109 189 C-109 144.78 -109 100.56 -109 55 C-87.56328046 43.71751603 -87.56328046 43.71751603 -80 40 C-73.70162803 36.87778252 -67.45442953 33.6796967 -61.25 30.375 C-51.84276175 25.37021902 -42.30644125 20.63161197 -32.76544189 15.88885498 C-23.97105367 11.51617457 -15.20770174 7.10775086 -6.59326172 2.38647461 C-2.2007219 0 -2.2007219 0 0 0 Z " fill="#00BA19" transform="translate(497,302)"/>
<path d="M0 0 C7.92 3.96 7.92 3.96 16 8 C19.86417262 9.9264421 19.86417262 9.9264421 23.72895813 11.85165405 C27.18936973 13.57486996 30.64848314 15.30068637 34.10766602 17.02636719 C35.90515725 17.92259804 37.7030068 18.81811062 39.5012207 19.71289062 C48.65974556 24.27088132 57.79057624 28.86258662 66.82421875 33.6640625 C80.77736356 40.98075955 94.90817809 47.95408905 109 55 C109 98.89 109 142.78 109 188 C105.03540257 187.20708051 103.13343041 186.73713005 99.82421875 184.875 C99.01275391 184.42447266 98.20128906 183.97394531 97.36523438 183.50976562 C96.48158203 183.01154297 95.59792969 182.51332031 94.6875 182 C92.71326481 180.90440054 90.73793583 179.81077053 88.76171875 178.71875 C87.14595947 177.82542969 87.14595947 177.82542969 85.49755859 176.9140625 C79.71970534 173.75209339 73.8964699 170.67639059 68.07424927 167.59710693 C58.26911719 162.41100006 48.48082235 157.19968303 38.75 151.875 C25.87550794 144.83894039 12.93280666 137.92828928 0 131 C0 87.77 0 44.54 0 0 Z " fill="#01BA19" transform="translate(139,87)"/>
<path d="M0 0 C2.50267368 1.05593939 4.74891674 2.13705263 7.109375 3.4453125 C7.78482361 3.80674347 8.46027222 4.16817444 9.15618896 4.54055786 C11.36062302 5.72374023 13.55514121 6.92416288 15.75 8.125 C17.2864967 8.95393613 18.823613 9.78172473 20.36132812 10.60839844 C23.45879419 12.27611474 26.5524029 13.95064912 29.64257812 15.63183594 C33.45806407 17.70749863 37.28151862 19.76755014 41.109375 21.8203125 C45.32638248 24.08218501 49.54012734 26.34987452 53.75 28.625 C58.07984887 30.96486782 62.4134455 33.29758313 66.75 35.625 C79.22137204 42.3207618 91.65324492 49.0768841 104 56 C101.46020168 58.90815353 98.62433568 60.40093905 95.20703125 62.15234375 C94.63275894 62.44845551 94.05848663 62.74456726 93.46681213 63.0496521 C91.58490952 64.01797565 89.69882908 64.97783194 87.8125 65.9375 C86.49866582 66.6111924 85.18502853 67.28526888 83.87158203 67.9597168 C74.74304126 72.63854421 65.57279086 77.23309766 56.38647461 81.79736328 C50.50603683 84.72503501 44.67369011 87.72643903 38.875 90.8125 C30.99910577 94.98949462 23.0730832 99.06564232 15.11602783 103.08554077 C13.75436348 103.77479103 12.39411244 104.466841 11.03533936 105.16177368 C9.12247962 106.13916253 7.204618 107.10596773 5.28515625 108.0703125 C3.61271851 108.91746826 3.61271851 108.91746826 1.90649414 109.78173828 C-1.43735188 111.18331675 -3.74286986 111.48763624 -7.1754303 110.15615845 C-7.9619548 109.75996307 -8.74847931 109.3637677 -9.55883789 108.95556641 C-10.45820572 108.50734528 -11.35757355 108.05912415 -12.28419495 107.59732056 C-13.73873329 106.85692032 -13.73873329 106.85692032 -15.22265625 106.1015625 C-16.23734482 105.59257416 -17.25203339 105.08358582 -18.29747009 104.55917358 C-21.55628334 102.92188443 -24.80929779 101.27340476 -28.0625 99.625 C-30.19561587 98.55269352 -32.32907606 97.4810717 -34.46289062 96.41015625 C-44.7531051 91.23479344 -54.99330153 85.97760984 -65.1685791 80.57997131 C-70.6239836 77.69656011 -76.12522962 74.91880698 -81.66015625 72.19140625 C-82.44030594 71.80643982 -83.22045563 71.42147339 -84.02424622 71.02484131 C-87.18438063 69.46734282 -90.34561313 67.91226191 -93.51196289 66.36743164 C-95.87746033 65.21174892 -98.2378651 64.04618638 -100.59765625 62.87890625 C-101.3151857 62.53203262 -102.03271515 62.185159 -102.77198792 61.82777405 C-106.13229092 60.15661829 -107.8761978 59.18570331 -110 56 C-97.38854425 49.06084791 -84.71976194 42.23788699 -72 35.5 C-62.88960194 30.67352196 -53.79250806 25.8279828 -44.75 20.875 C-43.90824219 20.41577148 -43.06648438 19.95654297 -42.19921875 19.48339844 C-38.27661836 17.3431259 -34.3564327 15.19889986 -30.44726562 13.03417969 C-27.2668433 11.27347293 -24.07955999 9.52571856 -20.88830566 7.784729 C-19.64222212 7.10191647 -18.39858184 6.4146236 -17.15759277 5.72259521 C-15.42399817 4.75654677 -13.68089246 3.80762738 -11.9375 2.859375 C-10.93589844 2.30733398 -9.93429688 1.75529297 -8.90234375 1.18652344 C-5.55125072 -0.18345571 -3.59060292 -0.46037759 0 0 Z " fill="#00BA19" transform="translate(259,18)"/>
<path d="M0 0 C3.56405602 1.1987329 6.85185085 2.88627746 10.18359375 4.6171875 C11.68079956 5.39425049 11.68079956 5.39425049 13.20825195 6.18701172 C14.27390381 6.74404785 15.33955566 7.30108398 16.4375 7.875 C18.11042114 8.74729248 18.11042114 8.74729248 19.81713867 9.63720703 C27.75266175 13.78937812 35.63385567 18.03282451 43.48510742 22.34179688 C50.29191407 26.07634378 57.12399981 29.76133219 63.97039795 33.42279053 C65.73952202 34.36939356 67.50780494 35.31755051 69.27587891 36.26611328 C74.72541052 39.18813911 80.17973508 42.09983006 85.65383911 44.97561646 C87.49452626 45.94367799 89.33305923 46.9157043 91.17089844 47.88916016 C93.47343198 49.10756551 95.7799484 50.31848068 98.09082031 51.52099609 C99.1165918 52.06578613 100.14236328 52.61057617 101.19921875 53.171875 C102.10502686 53.6472168 103.01083496 54.12255859 103.9440918 54.61230469 C106 56 106 56 107 59 C106.4330542 59.28085449 105.8661084 59.56170898 105.28198242 59.85107422 C95.55204079 64.67737588 85.83381631 69.51348511 76.25 74.625 C66.51035015 79.81161816 56.62635963 84.7041876 46.74865723 89.62054443 C38.1219113 93.91602056 29.5152846 98.23605362 21 102.75 C20.25975586 103.14034424 19.51951172 103.53068848 18.75683594 103.93286133 C15.78158539 105.50584215 12.82534586 107.09807839 9.890625 108.74609375 C9.01921875 109.22175781 8.1478125 109.69742188 7.25 110.1875 C6.57453125 110.57292969 5.8990625 110.95835937 5.203125 111.35546875 C-0.27176685 112.95716583 -5.00727867 110.75490814 -9.74414062 108.16992188 C-10.46794922 107.76322266 -11.19175781 107.35652344 -11.9375 106.9375 C-20.1692327 102.4565975 -28.49875744 98.21241076 -36.89242554 94.04614258 C-46.89755585 89.07986831 -56.87857998 84.08952347 -66.72436523 78.81225586 C-71.68736879 76.16971839 -76.70265485 73.64837158 -81.74609375 71.1640625 C-82.42929688 70.826595 -83.1125 70.4891275 -83.81640625 70.14143372 C-87.24800695 68.44683938 -90.68329029 66.76061017 -94.12548828 65.08764648 C-95.38721476 64.46632918 -96.64877832 63.84468086 -97.91015625 63.22265625 C-99.03558838 62.67359619 -100.16102051 62.12453613 -101.32055664 61.55883789 C-104 60 -104 60 -106 57 C-90.58482195 48.5493669 -75.10870669 40.21539671 -59.60546875 31.92773438 C-53.69372301 28.76729177 -47.78428467 25.6025412 -41.875 22.4375 C-40.73417969 21.82656494 -39.59335938 21.21562988 -38.41796875 20.58618164 C-28.93595266 15.50624253 -19.46356653 10.40856806 -9.99560547 5.30249023 C-8.46250732 4.47599976 -8.46250732 4.47599976 -6.8984375 3.6328125 C-5.99786621 3.14699707 -5.09729492 2.66118164 -4.16943359 2.16064453 C-2.78920826 1.42222553 -1.40008131 0.70004065 0 0 Z " fill="#00BA19" transform="translate(131,231)"/>
<path d="M0 0 C1.578125 1.8203125 1.578125 1.8203125 3.25 4.125 C14.61007582 19.03656951 31.52273476 29.3817928 50 33 C54.69679612 33.38053459 59.35297516 33.37583412 64.0625 33.3125 C65.86557617 33.31733398 65.86557617 33.31733398 67.70507812 33.32226562 C88.76730766 33.19586927 106.37221354 25.4022373 121.88671875 11.1640625 C125.58763975 7.37420994 128.81931543 3.22935714 132 -1 C145.10479727 5.46680852 158.06004817 12.21026713 171 19 C171 19.99 171 20.98 171 22 C159.75731568 28.01780962 148.41701215 33.82138698 137 39.5 C128.11549044 43.91926769 119.26842885 48.38818662 110.515625 53.06445312 C100.9996166 58.11461548 91.3262336 62.86074242 81.67431641 67.64428711 C80.65115829 68.15269386 80.65115829 68.15269386 79.60733032 68.67137146 C78.31701185 69.31243867 77.02585417 69.95182043 75.73373413 70.58924866 C73.02613353 71.93543105 70.52169363 73.31887091 68 75 C60.85206645 74.99044394 54.96175786 71.2749178 48.75 68.0625 C47.5846875 67.46985352 46.419375 66.87720703 45.21875 66.26660156 C38.05192225 62.6101776 30.92736144 58.8758961 23.82714844 55.09204102 C15.6254441 50.74768461 7.30810562 46.63573278 -1 42.5 C-10.47611969 37.78143463 -19.94733358 33.06161809 -29.3125 28.125 C-30.04533203 27.73892578 -30.77816406 27.35285156 -31.53320312 26.95507812 C-35.08524264 25.06730495 -38.57360252 23.10753268 -42 21 C-38.91247056 18.55001758 -35.71401294 16.67326054 -32.23828125 14.8203125 C-31.11873047 14.22089844 -29.99917969 13.62148438 -28.84570312 13.00390625 C-27.66804776 12.37745562 -26.49031292 11.75115437 -25.3125 11.125 C-23.01663262 9.89898875 -20.72105426 8.67243613 -18.42578125 7.4453125 C-17.32959473 6.86297852 -16.2334082 6.28064453 -15.10400391 5.68066406 C-11.61326747 3.79060353 -8.19048223 1.79936084 -4.79370117 -0.25439453 C-3 -1 -3 -1 0 0 Z " fill="#01BB19" transform="translate(315,268)"/>
<path d="M0 0 C2.875 2.0625 2.875 2.0625 5 5 C5.27001462 8.6451974 4.94399977 10.83713995 2.6015625 13.72265625 C1.40572856 14.91037367 0.18200639 16.07041553 -1.0625 17.20703125 C-2.91477331 18.92113095 -4.50493517 20.69307269 -6.125 22.625 C-9.40512548 26.43944456 -12.92524737 29.96563435 -16.5 33.5 C-19.97030997 36.9313232 -23.39990146 40.34042457 -26.5625 44.0625 C-29.62910903 47.61854289 -32.77056625 51.09162271 -36 54.5 C-36.73005249 55.31223022 -36.73005249 55.31223022 -37.47485352 56.14086914 C-40.0081862 58.76553881 -41.80607377 59.95510967 -45.375 60.78125 C-50.62623676 59.64951794 -53.26500984 56.71277923 -57 53 C-58.37717513 51.72198408 -59.75738367 50.44722904 -61.140625 49.17578125 C-62.51171681 47.88940519 -63.8815074 46.60164084 -65.25 45.3125 C-65.94351562 44.66216797 -66.63703125 44.01183594 -67.3515625 43.34179688 C-68.67147218 42.10153691 -69.98810582 40.85777737 -71.30078125 39.60986328 C-72.67069248 38.31199049 -74.05909969 37.03365585 -75.453125 35.76171875 C-77 34 -77 34 -77.5 30.5 C-77 27 -77 27 -75.375 24.5625 C-73 23 -73 23 -70.25 22.3125 C-65.25948215 23.36818647 -62.59316202 26.52070579 -59 30 C-57.25699016 31.6117591 -55.50684758 33.21583558 -53.75 34.8125 C-52.94046875 35.56144531 -52.1309375 36.31039062 -51.296875 37.08203125 C-49.24380935 38.7964109 -47.44010525 39.94224795 -45 41 C-44.31035156 40.23816406 -43.62070312 39.47632813 -42.91015625 38.69140625 C-37.74630405 33.01005992 -32.50791144 27.46186322 -27.0390625 22.0703125 C-25.1461065 20.14834568 -23.37658837 18.17543757 -21.625 16.125 C-18.61909048 12.62399949 -15.44231843 9.33000366 -12.1875 6.0625 C-11.70684082 5.5773291 -11.22618164 5.0921582 -10.73095703 4.59228516 C-7.17209778 1.04858612 -5.14420094 -0.71779548 0 0 Z " fill="#F9FFF9" transform="translate(416,195)"/>
</svg>
