<?xml version="1.0" encoding="utf-8"?>
<!-- Generator: Adobe Illustrator 27.5.0, SVG Export Plug-In . SVG Version: 6.00 Build 0)  -->
<svg version="1.1"
	 id="svg2" xmlns:rdf="http://www.w3.org/1999/02/22-rdf-syntax-ns#" xmlns:dc="http://purl.org/dc/elements/1.1/" xmlns:cc="http://creativecommons.org/ns#" xmlns:svg="http://www.w3.org/2000/svg"
	 xmlns="http://www.w3.org/2000/svg" xmlns:xlink="http://www.w3.org/1999/xlink" x="0px" y="0px" viewBox="0 0 813.1 657.5"
	 style="enable-background:new 0 0 813.1 657.5;" xml:space="preserve">
<style type="text/css">
	
		.st0{clip-path:url(#SVGID_00000127726707453625329770000013601513002888172476_);fill:url(#path30_00000138563549201301689650000002322716471595297719_);}
	
		.st1{clip-path:url(#SVGID_00000013897265529033694200000011697358604169189029_);fill:url(#path48_00000183941238991861181800000015329511426646460552_);}
	
		.st2{clip-path:url(#SVGID_00000093165005335486039890000013981751796480325769_);fill:url(#path66_00000105384585973889003270000009926744044390993028_);}
	
		.st3{clip-path:url(#SVGID_00000180343141938249893550000007519302044893817777_);fill:url(#path86_00000181057416580721521460000004468060150908339842_);}
	
		.st4{clip-path:url(#SVGID_00000052102374580468315610000013603797201139579826_);fill:url(#path106_00000092456645421286620800000017606311797920967576_);}
	
		.st5{clip-path:url(#SVGID_00000063632844179869425250000007079769649445441429_);fill:url(#path122_00000124858938300935172440000000681664719434046865_);}
	.st6{fill:#004E29;}
</style>
<g>
	<g>
		<g>
			<defs>
				<path id="SVGID_1_" d="M505.6,394c-11.6,0-22.7-1.4-33-4.1l0,0l0,0c-17.1,23.5-39.2,43.9-64.8,57.8c22.6,12.3,48,19.6,75,19.6
					c103.6,0,174.2-107.8,182.5-199.4C662.1,280,640.8,394,505.6,394L505.6,394z"/>
			</defs>
			<clipPath id="SVGID_00000060746580403144086510000000772684194120116157_">
				<use xlink:href="#SVGID_1_"  style="overflow:visible;"/>
			</clipPath>
			
				<linearGradient id="path30_00000159427592207191372450000014082827613622444161_" gradientUnits="userSpaceOnUse" x1="416.9059" y1="-76.4008" x2="417.9059" y2="-76.4008" gradientTransform="matrix(-162.83 -37.9936 37.9936 -162.83 71410.7344 3780.5364)">
				<stop  offset="0" style="stop-color:#219B49"/>
				<stop  offset="0.1209" style="stop-color:#219B4A"/>
				<stop  offset="1" style="stop-color:#A6D93D"/>
			</linearGradient>
			
				<path id="path30" style="clip-path:url(#SVGID_00000060746580403144086510000000772684194120116157_);fill:url(#path30_00000159427592207191372450000014082827613622444161_);" d="
				M505.6,394c-11.6,0-22.7-1.4-33-4.1l0,0c-17.1,23.5-39.2,43.9-64.8,57.8c22.6,12.3,48,19.6,75,19.6
				c103.6,0,174.2-107.8,182.5-199.4C662.1,280,640.8,394,505.6,394"/>
		</g>
	</g>
	<g>
		<g>
			<defs>
				<path id="SVGID_00000078021044891269840630000005360913935484891795_" d="M531.4,107.6c-49.9,0-73.9,28.9-73.9,28.9
					c51.5,5.2,114.7,41.5,114.7,116.7c0,73-47.9,106.2-87,117.3c-3.8,6.7-8.2,13.5-12.8,19.8c9.2,2.8,21.6,4.1,33.2,4.1
					c135.1,0,156.5-114.3,159.7-126.4c0.6-6.2,0.8-12.2,0.8-18.2C666.2,147,587.7,107.6,531.4,107.6L531.4,107.6z"/>
			</defs>
			<clipPath id="SVGID_00000070838261643907659530000014947398003641405333_">
				<use xlink:href="#SVGID_00000078021044891269840630000005360913935484891795_"  style="overflow:visible;"/>
			</clipPath>
			
				<linearGradient id="path48_00000041996418005005554110000016094107761011920567_" gradientUnits="userSpaceOnUse" x1="413.0106" y1="-76.8327" x2="414.0106" y2="-76.8327" gradientTransform="matrix(-1.607500e-05 367.8888 -367.8888 -1.607500e-05 -27704.0762 -151912.8125)">
				<stop  offset="0" style="stop-color:#31AD45"/>
				<stop  offset="0.7473" style="stop-color:#A6D93D"/>
				<stop  offset="1" style="stop-color:#A6D93D"/>
			</linearGradient>
			
				<path id="path48" style="clip-path:url(#SVGID_00000070838261643907659530000014947398003641405333_);fill:url(#path48_00000041996418005005554110000016094107761011920567_);" d="
				M531.4,107.6c-49.9,0-73.9,28.9-73.9,28.9c51.5,5.2,114.7,41.5,114.7,116.7c0,73-47.9,106.2-87,117.3
				c-3.8,6.7-8.2,13.5-12.8,19.8c9.2,2.8,21.6,4.1,33.2,4.1c135.1,0,156.5-114.3,159.7-126.4c0.6-6.2,0.8-12.2,0.8-18.2
				C666.2,147,587.7,107.6,531.4,107.6"/>
		</g>
	</g>
	<g>
		<g>
			<defs>
				<path id="SVGID_00000078733799176486942170000000541314618831505548_" d="M310.1,394c28.7,0,53.8-8.8,73.8-22.8
					c-6.9,2.1-15.3,3.8-23.8,3.8c-38.1,0-116.6-28.2-116.6-121.8c0-75.2,63.2-111.5,114.7-116.7c0,0-24-28.9-73.9-28.9
					c-56.3,0-134.8,39.4-134.8,142.2c0,6,0.3,12,0.8,18.2C153.6,280.1,174.6,394,310.1,394L310.1,394z"/>
			</defs>
			<clipPath id="SVGID_00000017513666281612150000000008160222321611393456_">
				<use xlink:href="#SVGID_00000078733799176486942170000000541314618831505548_"  style="overflow:visible;"/>
			</clipPath>
			
				<linearGradient id="path66_00000089558784899589374310000003103894524380510362_" gradientUnits="userSpaceOnUse" x1="413.0095" y1="-76.8318" x2="414.0095" y2="-76.8318" gradientTransform="matrix(-1.606250e-05 367.505 -367.505 -1.606250e-05 -27969.3633 -151753.8438)">
				<stop  offset="0" style="stop-color:#31AD45"/>
				<stop  offset="0.7473" style="stop-color:#A6D93D"/>
				<stop  offset="1" style="stop-color:#A6D93D"/>
			</linearGradient>
			
				<path id="path66" style="clip-path:url(#SVGID_00000017513666281612150000000008160222321611393456_);fill:url(#path66_00000089558784899589374310000003103894524380510362_);" d="
				M310.1,394c28.7,0,53.8-8.8,73.8-22.8c-6.9,2.1-15.3,3.8-23.8,3.8c-38.1,0-116.6-28.2-116.6-121.8c0-75.2,63.2-111.5,114.7-116.7
				c0,0-24-28.9-73.9-28.9c-56.3,0-134.8,39.4-134.8,142.2c0,6,0.3,12,0.8,18.2C153.6,280.1,174.6,394,310.1,394"/>
		</g>
	</g>
	<g>
		<g>
			<defs>
				<path id="SVGID_00000158732550527739662310000006302964778587928480_" d="M361.1,376.9c8.5,0,16.1-1.3,22.8-5.7l0,0
					c9.2-6.5,17.4-14,24.4-22.4l0,0c-4.8-6-26.9-35.9-26.9-75.9c0-37.4,20.1-53.4,26.7-57.7l0,0l0,0C394.3,205,378.8,202,370,202
					c-14.2,0-52.6,9.7-61.7,53.6l0,0v0.1c-0.3,1.8-0.6,3.5-0.9,5.3c-0.9,7.3-1.4,15.4-1.4,24.3c0,35.2,16,68.6,27.7,87.9
					C343.8,375.7,353.3,376.9,361.1,376.9L361.1,376.9z"/>
			</defs>
			<clipPath id="SVGID_00000124135399193142967960000005803106933766367380_">
				<use xlink:href="#SVGID_00000158732550527739662310000006302964778587928480_"  style="overflow:visible;"/>
			</clipPath>
			
				<linearGradient id="path86_00000047049425429920590940000006550516958803223215_" gradientUnits="userSpaceOnUse" x1="411.9893" y1="-75.6717" x2="412.9893" y2="-75.6717" gradientTransform="matrix(-7.912500e-06 181.0287 -181.0287 -7.912500e-06 -13341.5977 -74381.1641)">
				<stop  offset="0" style="stop-color:#219B49"/>
				<stop  offset="0.1868" style="stop-color:#219B49"/>
				<stop  offset="0.7802" style="stop-color:#A6D93D"/>
				<stop  offset="1" style="stop-color:#A6D93D"/>
			</linearGradient>
			
				<path id="path86" style="clip-path:url(#SVGID_00000124135399193142967960000005803106933766367380_);fill:url(#path86_00000047049425429920590940000006550516958803223215_);" d="
				M361.1,376.9c8.5,0,16.1-1.3,22.8-5.7l0,0c9.2-6.5,17.4-14,24.4-22.4l0,0c-4.8-6-26.9-35.9-26.9-75.9c0-37.4,20.1-53.4,26.7-57.7
				l0,0l0,0C394.3,205,378.8,202,370,202c-14.2,0-52.6,9.7-61.7,53.6l0,0v0.1c-0.3,1.8-0.6,3.5-0.9,5.3c-0.9,7.3-1.4,15.4-1.4,24.3
				c0,35.2,16,68.6,27.7,87.9C343.8,375.7,353.3,376.9,361.1,376.9"/>
		</g>
	</g>
	<g>
		<g>
			<defs>
				<path id="SVGID_00000013165314811195071130000016372717421041852307_" d="M408.6,167.3c-62.6,0-92.3,46-100.3,88.3
					c9.1-43.9,47.3-52.5,58.2-53c13.5-0.7,26.8,2.7,41.6,12.7l0,0c15,11.2,27.9,30.1,27.9,60.2c0,25.7-10,52-27.7,73.3l0,0
					c-22.2,26.6-56.4,45.2-98.2,45.2c-135.5,0-156.5-113.9-159.8-126.1c8.3,91.6,78.9,199.4,182.6,199.4
					c101.2,0,178.6-102.2,178.6-187.7C511.4,220.3,477.7,167.3,408.6,167.3z"/>
			</defs>
			<clipPath id="SVGID_00000122708943876735195200000016972004782524442799_">
				<use xlink:href="#SVGID_00000013165314811195071130000016372717421041852307_"  style="overflow:visible;"/>
			</clipPath>
			
				<linearGradient id="path106_00000126293079796905364070000011810846887699026360_" gradientUnits="userSpaceOnUse" x1="414.4657" y1="-78.8935" x2="415.4657" y2="-78.8935" gradientTransform="matrix(135.2088 -510.0487 510.0487 135.2088 -15512.5586 222513.0938)">
				<stop  offset="0" style="stop-color:#219B49"/>
				<stop  offset="5.494510e-02" style="stop-color:#219B4A"/>
				<stop  offset="0.522" style="stop-color:#A6D93D"/>
				<stop  offset="1" style="stop-color:#A6D93D"/>
			</linearGradient>
			
				<path id="path106" style="clip-path:url(#SVGID_00000122708943876735195200000016972004782524442799_);fill:url(#path106_00000126293079796905364070000011810846887699026360_);" d="
				M408.6,167.3c-62.6,0-92.3,46-100.3,88.3c9.1-43.9,47.3-52.5,58.2-53c13.5-0.7,26.8,2.7,41.6,12.7l0,0
				c15,11.2,27.9,30.1,27.9,60.2c0,25.7-10,52-27.7,73.3l0,0c-22.2,26.6-56.4,45.2-98.2,45.2c-135.5,0-156.5-113.9-159.8-126.1
				c8.3,91.6,78.9,199.4,182.6,199.4c101.2,0,178.6-102.2,178.6-187.7C511.4,220.3,477.7,167.3,408.6,167.3"/>
		</g>
	</g>
	<g>
		<g>
			<defs>
				<path id="SVGID_00000008113123788351141350000016191258397158016955_" d="M410.4,132.3c0,0-21.6-20.8-23.1-49.1
					c-1.1-20.6,7.2-52.1,39.9-69.5c76.3-40.8,142.6,18.6,134.9,57c0,0-56.8-25.8-109.1,5.1C414.5,98.6,410.4,132.3,410.4,132.3
					L410.4,132.3z"/>
			</defs>
			<clipPath id="SVGID_00000127039264006104754280000003704252416713170592_">
				<use xlink:href="#SVGID_00000008113123788351141350000016191258397158016955_"  style="overflow:visible;"/>
			</clipPath>
			
				<linearGradient id="path122_00000054257392735677491930000011896869311418009784_" gradientUnits="userSpaceOnUse" x1="413.8228" y1="-80.4635" x2="414.8228" y2="-80.4635" gradientTransform="matrix(156.2462 -154.2337 154.2337 156.2462 -51862.4727 76545.0938)">
				<stop  offset="0" style="stop-color:#55B83B"/>
				<stop  offset="1" style="stop-color:#A6D93D"/>
			</linearGradient>
			
				<path id="path122" style="clip-path:url(#SVGID_00000127039264006104754280000003704252416713170592_);fill:url(#path122_00000054257392735677491930000011896869311418009784_);" d="
				M410.4,132.3c0,0-21.6-20.8-23.1-49.1c-1.1-20.6,7.2-52.1,39.9-69.5c76.3-40.8,142.6,18.6,134.9,57c0,0-56.8-25.8-109.1,5.1
				C414.5,98.6,410.4,132.3,410.4,132.3"/>
		</g>
	</g>
</g>
<g>
	<path id="path132" class="st6" d="M326.7,655.3h11.4V515.8h-11.4V655.3z"/>
	<path id="path134" class="st6" d="M240.9,605.9c0,24,12.7,41.9,30.5,41.9s30.3-17.9,30.3-42.1c0-24.4-12.4-42.3-30.1-42.3
		C253,563.4,240.9,580.9,240.9,605.9L240.9,605.9z M314,605.7c0,31.1-17,51.8-42.5,51.8c-25.9,0-43.1-20.5-43.1-51.8
		c0-31.8,17-52,43.3-52C297.6,553.7,314,573.9,314,605.7"/>
	<path id="path136" class="st6" d="M482.4,605.9c0,24,12.7,41.9,30.5,41.9c17.8,0,30.3-17.9,30.3-42.1c0-24.4-12.4-42.3-30.1-42.3
		C494.5,563.4,482.4,580.9,482.4,605.9L482.4,605.9z M555.6,605.7c0,31.1-17,51.8-42.5,51.8c-25.9,0-43.1-20.5-43.1-51.8
		c0-31.8,17-52,43.3-52C539.1,553.7,555.6,573.9,555.6,605.7"/>
	<path id="path138" class="st6" d="M146.8,605.9c0,24,12.7,41.9,30.5,41.9s30.3-17.9,30.3-42.1c0-24.4-12.4-42.3-30.1-42.3
		C158.9,563.4,146.8,580.9,146.8,605.9L146.8,605.9z M219.9,605.7c0,31.1-17,51.8-42.5,51.8c-25.9,0-43.1-20.5-43.1-51.8
		c0-31.8,17-52,43.3-52C203.5,553.7,219.9,573.9,219.9,605.7"/>
	<path id="path140" class="st6" d="M681.1,556.1v4.7c-0.2,4.3,0,8.8-0.6,13.1c6.4-12.3,17.9-19.3,31.3-19.3
		c21.9,0,29.8,16.2,31,36.9c0.4,4.7,0.6,12.7,0.6,17.4v46.3H732V609c0-5.7-0.2-15.4-0.6-20.1c-1.4-15.8-9.1-24.4-21.7-24.4
		c-10.3,0-19.8,6.8-24.9,17.4c-1.9,3.9-2.7,7.8-3.3,16.2c-0.2,3.1-0.4,9.3-0.4,10.9v46.3h-11.3V515.8h11.3V556.1"/>
	<path id="path142" class="st6" d="M805,567.7c-7.7-2.6-11.3-3.4-18.9-3.7c-11.3-0.5-19.5,6.8-19.5,15.2c0,20.5,46.5,18.2,46.5,49.8
		c0,16.6-13.8,28.1-34,28.1c-8.5,0-15.7-1.4-24.2-4.9l0.8-11.2c8.5,4.7,15.1,6.5,22.7,6.5c12.9,0,22.3-8.5,22.3-18.4
		c0-23.8-45.4-19.7-45.4-49.6c0-15.4,12.1-25.5,31-25.2c7.3,0.1,10.7,0.3,19.6,3.4L805,567.7"/>
	<path id="path144" class="st6" d="M414.4,555.7c0,0,13.8,56.3,16.7,69.5c1.4,6.4,3.5,15.8,3.5,15.8s2.2-9.4,3.9-15.8
		c3.6-13.3,19.4-69.5,19.4-69.5H470l-28.8,99.5h-13.4c0,0-15.2-65.7-16.9-73.8c-0.9-4.1-2.1-10.2-2.1-10.2s-1.2,6.2-2.1,10.2
		c-1.8,8.1-16.9,73.8-16.9,73.8h-13.4l-28.8-99.5h12.2c0,0,15.8,56.2,19.4,69.5c1.7,6.4,3.9,15.8,3.9,15.8s2.1-9.4,3.5-15.8
		c2.9-13.2,16.7-69.5,16.7-69.5H414.4"/>
	<path id="path146" class="st6" d="M73,540.7c0,0,18.6,67.8,21.7,79.5c1.8,6.5,4.5,18.1,4.5,18.1s2.4-11.5,4.1-18.1
		c2.9-11.6,20.3-79.4,20.3-79.4h11.8l-29.5,114.6H93c0,0-21.7-82.9-22.7-87.1c-1-4.2-2.6-12.4-2.6-12.4s-1.6,8.2-2.6,12.4
		s-22.7,87.1-22.7,87.1H29.5L0,540.7h11.8c0,0,17.4,67.8,20.3,79.4c1.6,6.6,4.1,18.1,4.1,18.1s2.8-11.5,4.5-18.1
		c3.1-11.7,21.7-79.5,21.7-79.5L73,540.7"/>
	<path id="path148" class="st6" d="M567.8,655.3v-99.4h9.7v22.7c0,0,5.4-21.1,35.4-22.7c4.2-0.2,9.6-0.1,9.6-0.1v-25l11.3-4.4v29.4
		H657V566h-23.2c0,0,0,50.2,0,60.4c0,14.3,4.5,19.2,14.2,19.2c5.4,0,9.8-2,9.8-2l1.2,9.8c0,0-5.6,1.8-11.6,1.8
		c-3.1,0-12.1,0.4-18.3-5.8c-4.1-4.2-6.6-11-6.6-23.6c0-11.5,0-60.2,0-60.2c-3.9,0-12.4-0.5-19.2,1.3c-9.2,2.4-24.2,11.9-24.2,35.7
		c0,8.6,0,52.7,0,52.7L567.8,655.3"/>
</g>
</svg>
